<?xml version="1.0" standalone="no"?>
<!DOCTYPE svg PUBLIC "-//W3C//DTD SVG 1.1//EN" "http://www.w3.org/Graphics/SVG/1.1/DTD/svg11.dtd" >
<svg>
<metadata>
Created by FontForge 20090914 at Wed Mar 27 18:49:49 2013
 By www-data
Copyright (c) D-Studio; Dubina Nikolay; Moscow, 2001. All rights reserved.
</metadata>
<defs>
<font id="Stylo-Bold" horiz-adv-x="586" >
  <font-face 
    font-family="Stylo"
    font-weight="700"
    font-stretch="normal"
    units-per-em="1000"
    panose-1="3 6 5 0 0 0 0 0 0 0"
    ascent="800"
    descent="-200"
    x-height="404"
    cap-height="710"
    bbox="11.999 -233.998 892.001 781.003"
    underline-thickness="25"
    underline-position="-28"
    unicode-range="U+0020-U+2116"
  />
<missing-glyph horiz-adv-x="500" 
 />
    <glyph glyph-name=".notdef" horiz-adv-x="500" 
 />
    <glyph glyph-name="space" unicode=" " horiz-adv-x="500" 
 />
    <glyph glyph-name="FL0021h" unicode="!" horiz-adv-x="147" 
d="M64 636h-4.99902c-2.66699 0 -6 -1.16699 -10 -3.5s-8 -4.5 -12 -6.5l-6 -2c-3.33301 -21.333 -6 -45.333 -8 -72s-3 -56.334 -3 -89.001c0.666992 -35.333 1.16699 -70.666 1.5 -105.999s0.5 -70.333 0.5 -105c0 -14.667 1.66699 -28.667 5 -42s10 -20 20 -20
c7.33301 0 18 3.33301 32 10l4 2c2 18 4 33.833 6 47.5s3.33301 25.167 4 34.5c2 24 4 42 6 54l16 136c5.33301 48 9.33301 94.667 12 140c-18.667 7.33301 -32.834 12.5 -42.501 15.5s-16.5 5.5 -20.5 7.5v-1zM47.001 116c-7.33301 -14 -13.501 -24.999 -18.501 -32.999
s-7.5 -19 -7.5 -33v-5c0.666992 0 2.5 -1.16699 5.5 -3.5l9 -7c3 -2.33301 5.66699 -4.83301 8 -7.5s3.5 -4.33398 3.5 -5.00098v-2c14 -15.333 26 -23 36 -23c12.667 0 20.834 5.5 24.501 16.5s5.5 21.167 5.5 30.5v7c-0.666992 0.666992 -1 3 -1 7l-4 14
c-3.33301 6.66699 -7.33301 10.5 -12 11.5s-9.66699 3.83301 -15 8.5s-11.333 9.5 -18 14.5s-12 8.83301 -16 11.5v-2z" />
    <glyph glyph-name="quotedbl" unicode="&#x22;" horiz-adv-x="400" 
d="M170 517l9.99902 19c7.33301 8 12 14.833 14 20.5s3 12.834 3 21.501c0 11.333 -1 23.166 -3 35.499s-5 22.833 -9 31.5c-4.66699 0 -10.5 -4 -17.5 -12s-14.167 -17.5 -21.5 -28.5s-14.5 -22.333 -21.5 -34l-17.5 -29.5c-58 -29.333 -87 -64.333 -87 -105v-5
c5.33301 -3.33301 10.833 -5.33301 16.5 -6s12.834 -1 21.501 -1zM277.999 626l-2 -0.0078125c-2 -9.33301 -5.5 -19.666 -10.5 -30.999s-10 -21.666 -15 -30.999s-9.5 -17.166 -13.5 -23.499s-6 -9.16602 -6 -8.49902c-9.33301 -21.333 -15.666 -40.666 -18.999 -57.999
c4.66699 -11.333 9 -19.666 13 -24.999s7.33301 -9.33301 10 -12s5 -4.16699 7 -4.5s3.66699 -1.16602 5 -2.49902v-1c3.33301 0 8.5 -0.166992 15.5 -0.5l10.5 -0.5l-2 4c-0.666992 0.666992 -2 3 -4 7l-2 3c0 0.666992 1 4 3 10l6.5 19.5
c2.33301 7 3.83301 10.833 4.5 11.5c1.33301 10 7.66602 23.167 18.999 39.5s23.333 32.5 36 48.5l33.5 41c9.66699 11.333 13.5 17 11.5 17l-46 6c-7.33301 0.666992 -11 1.33398 -11 2.00098l-19 5zM46.999 466.992c0 0.666992 0.833008 3.66699 2.5 9s4 11 7 17
s7 11.5 12 16.5s10.833 7.5 17.5 7.5h2c-2 -1.33301 -5.16699 -4.5 -9.5 -9.5s-6.5 -9.16699 -6.5 -12.5v-2c-4 -6 -8.16699 -11 -12.5 -15s-8.5 -7.66699 -12.5 -11z" />
    <glyph glyph-name="FLW35" unicode="#" horiz-adv-x="265" 
d="M113 96c-1.33301 -2.66699 -2.50195 -6.16602 -3.50195 -10.499l-3.5 -14.5c-1.33301 -3.33301 -2 -6 -2 -8v-5c0 -3.33301 0.666992 -5.33301 2 -6v-4c2 -6 3.33301 -9.83301 4 -11.5s2 -3.16699 4 -4.5h2c0 -6.66699 0.666992 -10 2 -10c2.66699 0 6 5.33301 10 16
l24 59c2 6 4.5 10 7.5 12s5.66699 3.33301 8 4s4.5 1 6.5 1c2.66699 0 4.66699 0.666992 6 2l6 3c13.333 4 23 7.83301 29 11.5s9.33301 8.83398 10 15.501c0 1.33301 -1 3.66602 -3 6.99902h-45c4 10 7.66699 15.333 11 16s7.66602 2.33398 12.999 5.00098l4 2
c13.333 3.33301 23.166 6.66602 29.499 9.99902s9.83301 7.66602 10.5 12.999c0 2 -1 4 -3 6h-50c2 12.667 3 23 3 31c0 8.66699 -3 13.334 -9 14.001c-3.33301 0 -5.33301 -0.666992 -6 -2l-19 -43h-17c2.66699 5.33301 4.5 10.166 5.5 14.499s1.5 7.16602 1.5 8.49902l1 6
c3.33301 16.667 5 28.334 5 35.001c0 8 -2.33301 12.333 -7 13c-2 0 -3.66699 -0.666992 -5 -2l-33 -75h-5v-1c-6 0 -13.167 -1.66699 -21.5 -5s-12.833 -5.33301 -13.5 -6l-5 -3c-6.66699 -4.66699 -10.5 -7.5 -11.5 -8.5l-1.5 -1.5v-1
c-9.33301 -4.66699 -14 -7.33398 -14 -8.00098s7.66699 -1 23 -1h33l-7 -17h-2c-4.66699 0 -11.667 -1.16699 -21 -3.5s-14.333 -5.16602 -15 -8.49902v-2l-4 -1c-5.33301 -5.33301 -8.16602 -8.33301 -8.49902 -9l-2.5 -5l-1 -2c-3.33301 -2.66699 -6.33301 -4.66699 -9 -6
s-4 -2.33301 -4 -3s7 -1 21 -1h31c-1.33301 -6 -2.16602 -11.667 -2.49902 -17s-0.5 -8.33301 -0.5 -9l-1 -3l1 -5c0.666992 -7.33301 1.16699 -11.833 1.5 -13.5l0.5 -2.5h1c1.33301 -2.66699 1.83301 -5.5 1.5 -8.5s-0.166016 -4.5 0.500977 -4.5s1.83398 1.5 3.50098 4.5
s4.16699 8.83301 7.5 17.5l17 41h16zM128.998 170.001l17 -0.000976562l-8 -17h-16l3.5 9c1 2.66699 2.16699 5.33398 3.5 8.00098z" />
    <glyph glyph-name="FLW36" unicode="$" horiz-adv-x="432" 
d="M205 500l-39.001 -26.501c-12 -8.33301 -22.5 -16.833 -31.5 -25.5s-16 -17.5 -21 -26.5s-7.5 -18.5 -7.5 -28.5v-4l-12 -33.5c-4 -11.667 -7.66699 -22.834 -11 -33.501c8.66699 -40 30.667 -70.667 66 -92c30 -17.333 59.833 -31.5 89.5 -42.5s60.5 -20.167 92.5 -27.5
c0 -11.333 -7.33301 -20.166 -22 -26.499s-31.5 -11.333 -50.5 -15s-37.5 -6 -55.5 -7s-30.667 -1.5 -38 -1.5c-30.667 0 -52.667 1.33301 -66 4l-28 2c-2 0 -5.33301 0.5 -10 1.5s-8.66699 1.5 -12 1.5l-29 -19l23 -36c12.667 -10.667 28.167 -21.167 46.5 -31.5
s38.833 -19.166 61.5 -26.499c12.667 -4.66699 23.834 -8 33.501 -10l24.5 -5v-9c-1.33301 0 -2 -0.666992 -2 -2v-13c0 -12.667 2.33301 -25.5 7 -38.5s9.66699 -23.833 15 -32.5c24 0 36 11.333 36 34v10c-1.33301 5.33301 -2 8.66602 -2 9.99902v26
c0 10.667 5.16699 20.334 15.5 29.001s22.833 13 37.5 13c21.333 0 38.333 5 51 15s22.167 21.333 28.5 34s10.333 25.167 12 37.5s2.5 21.166 2.5 26.499c0 32.667 -9.16699 61.667 -27.5 87s-44.166 46.666 -77.499 63.999l8.5 7l18.5 15.5
c6.66699 5.66699 12.667 11 18 16s8 8.16699 8 9.5v1l15 10.5c6 4.33301 11.833 9 17.5 14s10.667 10.167 15 15.5s6.5 10.333 6.5 15v6c0 2.66699 -0.666992 7.33398 -2 14.001l-4 14c-4 12.667 -6 20.667 -6 24c0 8 -1.16699 14.5 -3.5 19.5s-5.5 9 -9.5 12
s-8.66699 5.5 -14 7.5s-11 4.33301 -17 7c-10.667 4.66699 -20.667 7.83398 -30 9.50098s-17.833 4 -25.5 7s-14.334 8 -20.001 15s-10.167 18.5 -13.5 34.5v3l-8 30.5c-2 7.66699 -7.66699 14.5 -17 20.5zM300.999 405.999l-3.99902 -8.00098
c-9.33301 -13.333 -18.333 -27.5 -27 -42.5s-13 -26.167 -13 -33.5c0 -5.33301 0.5 -9.16602 1.5 -11.499s1.5 -4.83301 1.5 -7.5c0 -1.33301 -1 -2 -3 -2c-1.33301 0 -5.33301 0.666992 -12 2c-40.667 9.33301 -69 26.333 -85 51c42 36 84 54 126 54h9
c0 -1.33301 0.666992 -2 2 -2s2.66602 0.666992 3.99902 2v-2z" />
    <glyph glyph-name="percent" unicode="%" horiz-adv-x="384" 
d="M321 642c-6.66699 0 -13.4961 -0.999023 -20.4961 -2.99902s-11.833 -4.66699 -14.5 -8c-39.333 -85.333 -91 -189.666 -155 -312.999c-13.333 -26 -25.333 -48.167 -36 -66.5s-20.5 -34 -29.5 -47s-17.167 -23.833 -24.5 -32.5s-14.333 -16 -21 -22
c0 -7.33301 2 -15.5 6 -24.5s9.16699 -17.833 15.5 -26.5s13.166 -15.834 20.499 -21.501s14.666 -8.5 21.999 -8.5c6 0 11 2.33301 15 7c6 8.66699 10.833 16.667 14.5 24s7 14.333 10 21s6.16699 13 9.5 19s7.66602 12.667 12.999 20l16 18.5l17 20.5l14 18
c4 5.33301 6.33301 9 7 11l-3 2c-0.666992 0 -2.33398 1.33301 -5.00098 4s-3.66699 4.66699 -3 6l39 74l70.5 137.5l54.5 111.5c0.666992 3.33301 1.16699 6.16602 1.5 8.49902s0.5 4.5 0.5 6.5c0 4.66699 -0.833008 8.66699 -2.5 12s-3.5 6.33301 -5.5 9l-6.5 9
c-2.33301 3.33301 -4.5 8 -6.5 14v2c-2 0.666992 -4.5 3.5 -7.5 8.5s-4.83301 8.16699 -5.5 9.5zM278.004 231.001c-23.333 0 -43.333 -7.66699 -60 -23s-25 -33.666 -25 -54.999s8.33301 -39.5 25 -54.5s36.667 -22.5 60 -22.5s43.5 7.5 60.5 22.5s25.5 33.167 25.5 54.5
s-8.5 39.666 -25.5 54.999s-37.167 23 -60.5 23zM119.004 620.001c-23.333 0 -43.333 -7.66699 -60 -23s-25 -33.666 -25 -54.999s8.33301 -39.5 25 -54.5s36.667 -22.5 60 -22.5s43.5 7.5 60.5 22.5s25.5 33.167 25.5 54.5s-8.5 39.666 -25.5 54.999s-37.167 23 -60.5 23z
M279.004 192.001c18 0 33.333 -2.5 46 -7.5s19 -15.5 19 -31.5s-6.16699 -26.667 -18.5 -32s-27.5 -8 -45.5 -8s-33.667 2.66699 -47 8s-20 16 -20 32s5.83301 26.333 17.5 31s26.5 7 44.5 7zM120.004 581.001c18 0 33.333 -2.5 46 -7.5s19 -15.5 19 -31.5
s-6.16699 -26.667 -18.5 -32s-27.5 -8 -45.5 -8s-33.667 2.66699 -47 8s-20 16 -20 32s5.83301 26.333 17.5 31s26.5 7 44.5 7z" />
    <glyph glyph-name="FLW38" unicode="&#x26;" horiz-adv-x="592" 
d="M148 591c-4.66699 -7.33301 -8.66797 -17.8311 -12.001 -31.498s-5 -24.167 -5 -31.5c0 -20.667 1.83301 -39.167 5.5 -55.5s7.83398 -31.166 12.501 -44.499s8.83398 -25.833 12.501 -37.5s5.5 -23.167 5.5 -34.5c0 -21.333 -7.66699 -42.166 -23 -62.499
s-32.166 -41.333 -50.499 -63s-35.166 -44.667 -50.499 -69s-23 -51.166 -23 -80.499c18 -36 42 -60.167 72 -72.5s64.667 -18.5 104 -18.5c33.333 0 65.166 4.16699 95.499 12.5s59.5 20.166 87.5 35.499c4 0 11.5 -2.33301 22.5 -7s22.5 -12.334 34.5 -23.001
c9.33301 -7.33301 18.833 -13.833 28.5 -19.5s18.834 -8.5 27.501 -8.5c10.667 0 21 3.5 31 10.5s18.5 15.167 25.5 24.5s12.667 18.833 17 28.5s6.5 17.167 6.5 22.5c0 13.333 -4.33301 20 -13 20c-5.33301 0 -10.5 -2.33301 -15.5 -7s-10.167 -7 -15.5 -7
c-1.33301 0 -4.5 1 -9.5 3s-10.333 4.5 -16 7.5s-10.834 6.16699 -15.501 9.5s-7 6.66602 -7 9.99902l-3.5 0.5c-2.33301 0.333008 -3.5 0.833008 -3.5 1.5v4c-0.666992 0.666992 -1 2 -1 4c0 7.33301 0.166992 12.5 0.5 15.5s0.833008 6.16699 1.5 9.5
c2.66699 20 4.33398 33.833 5.00098 41.5s1 12.834 1 15.501c0 9.33301 -1 16.5 -3 21.5s-4.66699 9.5 -8 13.5l-10.5 12.5c-3.66699 4.33301 -7.16699 10.166 -10.5 17.499v1h-2c-10 16 -20 24 -30 24c-3.33301 0 -6 -0.666992 -8 -2c0 -7.33301 3 -14 9 -20s9 -14 9 -24
c0 -2.66699 -0.5 -6.66699 -1.5 -12s-2.33301 -10.833 -4 -16.5s-3.66699 -10.667 -6 -15s-5.16602 -6.5 -8.49902 -6.5h-2c-7.33301 0 -13.5 1.5 -18.5 4.5s-9.33301 6.66699 -13 11s-6.83398 8.83301 -9.50098 13.5s-5 8.33398 -7 11.001
c-17.333 23.333 -31.333 43.833 -42 61.5s-16 31.834 -16 42.501c0 8.66699 4.66699 18.5 14 29.5s19.666 22.167 30.999 33.5s21.666 22.666 30.999 33.999s14 21.666 14 30.999l2 12c0 12 -2.33301 24.667 -7 38s-12.334 25.666 -23.001 36.999
c-14.667 15.333 -31.167 26.666 -49.5 33.999s-36.5 11 -54.5 11l-32 -4c6.66699 -14 14 -24.667 22 -32s15.333 -13.666 22 -18.999s12.334 -10.833 17.001 -16.5s7 -13.834 7 -24.501v-8c-2.66699 -12.667 -8 -24.167 -16 -34.5s-16.333 -15.5 -25 -15.5h-5
c-6 8 -11.5 19.667 -16.5 35s-9.33301 31.833 -13 49.5s-6.83398 35.167 -9.50098 52.5s-4.66699 32.333 -6 45c-24 -4 -41.667 -13.333 -53 -28v-1zM305.999 140.002c-14.667 -10.667 -36.668 -19.332 -66.001 -25.999s-62.666 -13.334 -99.999 -20.001l-23 -3.5
c-6.66699 -1 -15 -1.5 -25 -1.5c-2.66699 4.66699 -4.66699 7 -6 7c-0.666992 0 -1 1.33301 -1 4c0 4.66699 2 10.667 6 18s6.33301 11.333 7 12l118 127l12 -2z" />
    <glyph glyph-name="FLW40" unicode="(" horiz-adv-x="504" 
d="M316 712c-56 0 -99.3311 -12.3301 -129.998 -36.9971c9.33301 -4.66699 17.666 -7 24.999 -7c5.33301 0 10.833 -0.666992 16.5 -2s8.5 -4 8.5 -8c0 -4.66699 -1.83301 -8.33398 -5.5 -11.001s-5.83398 -4 -6.50098 -4c-21.333 -4.66699 -41.166 -15.334 -59.499 -32.001
s-35 -36.667 -50 -60s-28.5 -48.833 -40.5 -76.5s-22 -54.834 -30 -81.501s-14 -51.667 -18 -75s-6 -42.333 -6 -57c0 -38 4.16699 -73 12.5 -105s21.5 -59.5 39.5 -82.5s41.333 -41 70 -54s63 -19.5 103 -19.5h33c4.66699 0 7 3.66699 7 11s-2.33301 17.5 -7 30.5
s-10.334 26.167 -17.001 39.5s-13.667 25.5 -21 36.5s-13.333 18.5 -18 22.5c-7.33301 6 -16.333 10 -27 12s-21 3.83301 -31 5.5s-18.667 4.16699 -26 7.5s-11 9 -11 17v14c0 41.333 5.83301 81.333 17.5 120s28.167 75.167 49.5 109.5s46.5 65.833 75.5 94.5
s61.167 53.667 96.5 75c8 4.66699 18.667 10 32 16s26.333 12.5 39 19.5s23.667 14.333 33 22s14 15.834 14 24.501c0 9.33301 -5.33301 16.166 -16 20.499s-22.667 6.5 -36 6.5z" />
    <glyph glyph-name="FLW41" unicode=")" horiz-adv-x="504" 
d="M68 8c13.333 0 26.665 -0.499023 39.998 -1.49902s25.666 -2 36.999 -3l28.5 -2.5c7.66699 -0.666992 12.5 -1 14.5 -1c56 0 99.333 12.333 130 37c-4.66699 2 -10 3.83301 -16 5.5s-11.5 3 -16.5 4s-9.16699 2 -12.5 3s-5 2.5 -5 4.5
c0 4.66699 1.83301 8.33398 5.5 11.001s5.83398 4 6.50098 4c18 5.33301 35.667 16.5 53 33.5s33.5 37.167 48.5 60.5s28.833 48.833 41.5 76.5s23.5 54.667 32.5 81s16 51 21 74s7.5 41.833 7.5 56.5c0 38 -4.16699 73 -12.5 105s-21.5 59.5 -39.5 82.5s-41.333 41 -70 54
s-63 19.5 -103 19.5h-33c-4.66699 0 -7 -3.66699 -7 -11s2.33301 -17.5 7 -30.5s10.334 -26.167 17.001 -39.5s13.5 -25.5 20.5 -36.5s13.167 -18.5 18.5 -22.5c7.33301 -6 16.333 -10 27 -12s21 -3.83301 31 -5.5s18.667 -4.16699 26 -7.5s11 -9 11 -17v-14
c0 -41.333 -5.83301 -81.333 -17.5 -120s-28.167 -75.167 -49.5 -109.5s-46.666 -65.833 -75.999 -94.5s-61.333 -53.667 -96 -75c-8 -4.66699 -18.667 -10.334 -32 -17.001s-26.333 -13.834 -39 -21.501s-23.667 -15.667 -33 -24s-14 -16.833 -14 -25.5
c0 -15.333 12 -23 36 -23h12v2z" />
    <glyph glyph-name="FLW43" unicode="+" horiz-adv-x="260" 
d="M94 105c-2 -5.33301 -3.00195 -12 -3.00195 -20c0 -4.66699 0.5 -9 1.5 -13s2.83301 -6 5.5 -6h2l17 -14c0 -1.33301 2 -3.83301 6 -7.5l6 -5.5l25 83c0 2 2.83301 4 8.5 6s11 3.33301 16 4s7.83301 1 8.5 1l5 3c4 3.33301 8.66699 6.66602 14 9.99902l15.5 10
c5 3.33301 9.33301 6.5 13 9.5s5.5 5.83301 5.5 8.5l-1.5 3.5c-1 2.33301 -2.16699 4.16602 -3.5 5.49902h-63c2.66699 8.66699 4.33398 16.167 5.00098 22.5s1 10.5 1 12.5l-2 4c-2 26 -8.33301 39 -19 39c-3.33301 0 -6 -0.333008 -8 -1s-4.33301 -1.66699 -7 -3l-24 -73
h-18l-1 -1c-5.33301 0 -13.166 -1.66699 -23.499 -5s-16.166 -7.33301 -17.499 -12v-2l-4 -2c-3.33301 -3.33301 -5.83301 -5.66602 -7.5 -6.99902s-3 -2.5 -4 -3.5s-1.83301 -2 -2.5 -3s-1.33398 -2.83301 -2.00098 -5.5v-2
c-5.33301 -5.33301 -9.66602 -9.16602 -12.999 -11.499s-5 -3.83301 -5 -4.5h1c0.666992 0 2.66699 0.333008 6 1s8.66602 1 15.999 1h56l-6 -22h1z" />
    <glyph glyph-name="FLW44" unicode="," horiz-adv-x="150" 
d="M41 92l0.000976562 0.998047h21c19.333 0 35.5 -6.5 48.5 -19.5s19.5 -27.5 19.5 -43.5v-8c0 -1.33301 -0.333008 -2.83301 -1 -4.5s-1.33398 -3.5 -2.00098 -5.5l-9 -5l-16 -71l-80 -64l-2 6v8c0 2.66699 0.333008 7.33398 1 14.001s2.66699 11.667 6 15l2 4
c0 0.666992 1 2.83398 3 6.50098s4 8 6 13s3.83301 9.83301 5.5 14.5s2.5 8.66699 2.5 12v2c2 6.66699 3.83301 12.5 5.5 17.5s2.5 10.167 2.5 15.5c0 14 -3.33301 24.5 -10 31.5s-10 17.833 -10 32.5c0 5.33301 0.333008 10.333 1 15s2.66699 9 6 13z" />
    <glyph glyph-name="hyphen" unicode="-" horiz-adv-x="180" 
d="M68 251c-5.33301 0 -10.002 -2.00098 -14.002 -6.00098s-7.66699 -8 -11 -12s-6 -7.83301 -8 -11.5s-3.66699 -8.16699 -5 -13.5v-2c-3.33301 -5.33301 -6 -8.5 -8 -9.5s-3 -1.83301 -3 -2.5c0 -2 5.33301 -3 16 -3h35c10.667 0 22.334 0.333008 35.001 1
s20.334 2.33398 23.001 5.00098l4 4c16 10 25 21.333 27 34l1 6c-0.666992 0.666992 -1 4 -1 10h-91z" />
    <glyph glyph-name="period" unicode="." horiz-adv-x="134" 
d="M32 112c-2.66699 -3.33301 -5.33496 -7.66602 -8.00195 -12.999s-4 -10.333 -4 -15v-8c0 -0.666992 0.166992 -1.16699 0.5 -1.5l0.5 -0.5v-2c2.66699 -4.66699 4 -9.33398 4 -14.001v-22c0 -0.666992 0.333008 -3.16699 1 -7.5s1.83398 -8.83301 3.50098 -13.5
s3.5 -9 5.5 -13s4.33301 -6 7 -6c0.666992 0 1.16699 0.166992 1.5 0.5s0.833008 0.5 1.5 0.5l4 2h4c0.666992 0.666992 2.33398 1 5.00098 1h10l5 -1h6c0.666992 -0.666992 2.66699 -1 6 -1c19.333 0 29 8 29 24v6c0 18.667 -9 42 -27 70z" />
    <glyph glyph-name="slash" unicode="/" horiz-adv-x="375" 
d="M321 693c-5.33301 1.33301 -9.33203 2.00098 -11.999 2.00098c-8.66699 0 -15.334 -3.33301 -20.001 -10c-19.333 -50.667 -42.333 -106.834 -69 -168.501l-92 -203.5c-2 -3.33301 -3.66699 -6.83301 -5 -10.5s-3 -8 -5 -13l-7.5 -19
c-3 -7.66699 -7.16699 -17.5 -12.5 -29.5l-4 -9c-23.333 -52 -48 -91.333 -74 -118c0 -8 2 -17.5 6 -28.5s9.16699 -21.333 15.5 -31s13.166 -18 20.499 -25s14.666 -10.5 21.999 -10.5c6.66699 0 11.667 2.66699 15 8c6 11.333 10.833 21.166 14.5 29.499s7 16.333 10 24
s6.16699 15 9.5 22s7.66602 14.833 12.999 23.5l16 23c0.666992 0.666992 3 3.5 7 8.5s8.16699 10.667 12.5 17s8.33301 12.5 12 18.5s5.83398 10.333 6.50098 13l-3 2c-0.666992 0 -2.16699 2 -4.5 6l-3.5 6l39 86l70.5 162l54.5 132
c0.666992 3.33301 1.16699 6.33301 1.5 9s0.5 5.33398 0.5 8.00098c0 6 -0.833008 10.833 -2.5 14.5s-3.66699 7.16699 -6 10.5s-4.66602 7 -6.99902 11s-4.16602 9.33301 -5.49902 16v2c-2 0.666992 -4.5 4.16699 -7.5 10.5z" />
    <glyph glyph-name="FLW48" unicode="0" horiz-adv-x="643" 
d="M364 631c-10 -21.333 -26.334 -32 -49.001 -32c-12 0 -24.833 1.5 -38.5 4.5s-25.5 4.5 -35.5 4.5c-29.333 -7.33301 -57.166 -20.833 -83.499 -40.5s-49.833 -42.834 -70.5 -69.501s-37 -55.334 -49 -86.001s-18 -60.667 -18 -90
c0 -109.333 22.167 -192.666 66.5 -249.999s109.5 -86 195.5 -86c15.333 0 28 0.5 38 1.5s19 2.16699 27 3.5s16 3.16602 24 5.49902s17.667 4.83301 29 7.5c12 22 38.667 38.667 80 50l2 2c14 4 25.5 7.83301 34.5 11.5s16.5 7.83398 22.5 12.501
s11.167 10.334 15.5 17.001s8.83301 15 13.5 25c16.667 36 30 75 40 117s15 79 15 111c0 34.667 -4.66699 69 -14 103s-23.333 64.5 -42 91.5s-42 48.667 -70 65s-60.667 24.5 -98 24.5c-10.667 0 -18.5 -0.333008 -23.5 -1s-8.83301 -1 -11.5 -1v-1zM435.999 555
c7.33301 -23.333 12.3311 -44.334 14.998 -63.001s4 -39.667 4 -63c0 -31.333 -2.66699 -61.666 -8 -90.999s-12.666 -58.166 -21.999 -86.499s-20.166 -56.166 -32.499 -83.499l-38.5 -82c-13.333 -1.33301 -22.666 -2.33301 -27.999 -3s-9.33301 -1 -12 -1
c-23.333 0 -46.166 5.16699 -68.499 15.5s-42 23.666 -59 39.999s-30.667 34.333 -41 54s-15.5 39.167 -15.5 58.5c0 11.333 2.16699 21.833 6.5 31.5s8.5 20.5 12.5 32.5c8 26 18.333 51.667 31 77s27 48.166 43 68.499s33.667 36.833 53 49.5s40 19 62 19
c15.333 0 27.666 -1.33301 36.999 -4s19.333 -4 30 -4c7.33301 0 12.166 0.666992 14.499 2s3.5 3.33301 3.5 6c0 4 -2.16699 9 -6.5 15s-9.33301 12 -15 18s-11.5 11.5 -17.5 16.5s-10.333 8.16699 -13 9.5l5 13c30 -6 50 -20.667 60 -44v-1z" />
    <glyph glyph-name="one" unicode="1" horiz-adv-x="313" 
d="M161 632c-10 -12 -14.999 -26.335 -14.999 -43.002c0 -5.33301 1 -14.333 3 -27s3 -23.334 3 -32.001l-2 -19c-6 -7.33301 -12.167 -12.666 -18.5 -15.999s-15.5 -7 -27.5 -11c-7.33301 0 -13.333 -1.83301 -18 -5.5s-10 -5.83398 -16 -6.50098
c-19.333 -1.33301 -32.5 -3.83301 -39.5 -7.5s-10.5 -9.16699 -10.5 -16.5c8 -14 19.667 -22.667 35 -26s29.666 -5 42.999 -5c19.333 0 32 -0.166992 38 -0.5s10.667 -1.16602 14 -2.49902l11 -312c-7.33301 -11.333 -12.666 -21.166 -15.999 -29.499s-5 -15.5 -5 -21.5
c0 -8 3.66699 -15.5 11 -22.5s16.166 -13.167 26.499 -18.5s21.333 -9.5 33 -12.5s22.167 -4.5 31.5 -4.5c6 0 11.333 0.166992 16 0.5s10 0.833008 16 1.5c12.667 0.666992 19 3.66699 19 9c0 4.66699 -1.5 9.5 -4.5 14.5s-5.83301 7.5 -8.5 7.5
c-3.33301 1.33301 -6.83301 3.16602 -10.5 5.49902s-5.5 4.5 -5.5 6.5l-4 68c-3.33301 64 -6.5 116.333 -9.5 157l-7.5 98.5c-2 25 -3.5 44.333 -4.5 58s-1.5 25.5 -1.5 35.5l11 45l6.5 27.5c1.66699 7 2.83398 12.333 3.50098 16s1 7.16699 1 10.5
c-3.33301 14.667 -8.33301 26.334 -15 35.001s-15.334 15.667 -26.001 21c-22 12.667 -41 20.334 -57 23.001v-1z" />
    <glyph glyph-name="two" unicode="2" horiz-adv-x="561" 
d="M437 557l0.00292969 -19c0 -11.333 -1.33301 -23 -4 -35s-6.66699 -22.667 -12 -32c-16 -30 -35.667 -58.333 -59 -85s-46.333 -50.5 -69 -71.5s-43.167 -38.833 -61.5 -53.5s-30.833 -25 -37.5 -31l-129 -122l-45 -21v-7c0 -5.33301 1.83301 -13 5.5 -23
s8.16699 -19.667 13.5 -29c2.66699 -9.33301 7.83398 -16.833 15.501 -22.5s15.834 -10 24.501 -13s17.167 -5.16699 25.5 -6.5s15.166 -2 20.499 -2c19.333 0 36.166 1.16699 50.499 3.5s26.166 4.83301 35.499 7.5c38 6 76.667 9 116 9c13.333 0 30.666 0.5 51.999 1.5
s42.333 3.33301 63 7s39.167 9 55.5 16s26.5 16.833 30.5 29.5c4 14 7.16699 26.333 9.5 37s3.5 22 3.5 34c-0.666992 12 -1.33398 20.667 -2.00098 26l-1 8c-5.33301 -1.33301 -10.5 -4 -15.5 -8s-7.5 -7.66699 -7.5 -11c-12.667 -7.33301 -24 -12.833 -34 -16.5
s-19 -6.5 -27 -8.5c-8.66699 -2 -22.5 -3.83301 -41.5 -5.5l-59.5 -5c-20.667 -1.66699 -40.167 -3 -58.5 -4s-30.833 -1.5 -37.5 -1.5c-8.66699 0 -16 0.333008 -22 1s-11.333 1.33398 -16 2.00098v10l197 187c23.333 22 42.333 45.833 57 71.5s22 54.5 22 86.5
c0 9.33301 -1.83301 19.666 -5.5 30.999s-8.16699 21.833 -13.5 31.5s-11.5 17.667 -18.5 24s-13.833 9.5 -20.5 9.5zM307.003 624c-18.667 0 -36.835 -4.33105 -54.502 -12.998s-34.167 -19.834 -49.5 -33.501s-29.166 -28.667 -41.499 -45s-22.5 -32.5 -30.5 -48.5
c-1.33301 -6 -2.66602 -11.167 -3.99902 -15.5s-2 -7.83301 -2 -10.5v-2c0 -5.33301 1.66699 -12.333 5 -21s7.33301 -17.167 12 -25.5s9.5 -15.5 14.5 -21.5s9.16699 -9 12.5 -9c11.333 -0.666992 21 -1.33398 29 -2.00098s15 -1 21 -1c23.333 0 35 3.66699 35 11
c0 6 -2.5 11 -7.5 15s-10.5 7.5 -16.5 10.5s-11.5 6.16699 -16.5 9.5s-7.5 7.33301 -7.5 12c0 17.333 5.16699 32.833 15.5 46.5s23.333 25.834 39 36.501s33 19.834 52 27.501s37 14.167 54 19.5s32.167 9.66602 45.5 12.999s22.333 5.66602 27 6.99902
c-14 26.667 -51.667 40 -113 40h-19z" />
    <glyph glyph-name="three" unicode="3" horiz-adv-x="523" 
d="M44 641c-1.33301 -13.333 -2.33594 -23.8281 -3.00293 -31.4951s-1 -12.834 -1 -15.501c0 -30.667 7.33301 -51.5 22 -62.5s35.334 -16.5 62.001 -16.5c31.333 0 54.833 1.83301 70.5 5.5s26.834 6.16699 33.501 7.5l27 4c5.33301 -8 8.33301 -13.667 9 -17s1 -6 1 -8
l-79.5 -82c-23 -24.667 -45.5 -42.334 -67.5 -53.001c0 -8.66699 3.5 -18.334 10.5 -29.001s14.667 -20.834 23 -30.501s16.666 -18 24.999 -25s14.166 -11.5 17.499 -13.5c18 10 30.333 16.5 37 19.5s12 4.5 16 4.5c32.667 0 59.334 -0.5 80.001 -1.5s37 -2.66699 49 -5
s20.833 -5.83301 26.5 -10.5s10.167 -11 13.5 -19c-11.333 -26 -27 -50.5 -47 -73.5s-42.667 -43 -68 -60s-52 -30.333 -80 -40s-55.667 -14.5 -83 -14.5c-14.667 0 -25.667 1.5 -33 4.5s-12.666 7.83301 -15.999 14.5c0.666992 5.33301 7.5 10.333 20.5 15
s27 9.33398 42 14.001s28.667 9.5 41 14.5s18.5 10.5 18.5 16.5c0 2.66699 -3.33301 4.16699 -10 4.5s-11 0.5 -13 0.5c-32.667 0 -59.667 -2.16699 -81 -6.5s-38.333 -9.5 -51 -15.5s-21.667 -12.5 -27 -19.5s-8.33301 -13.167 -9 -18.5c0 -8.66699 4 -17 12 -25
s18.333 -15.667 31 -23s26.5 -14 41.5 -20s29.833 -11.167 44.5 -15.5s28 -7.66602 40 -9.99902s21 -3.5 27 -3.5c35.333 0 70.166 4.5 104.499 13.5s65 22.5 92 40.5s48.833 40.333 65.5 67s25 57.667 25 93c0 10 -2 18.5 -6 25.5s-9 15.167 -15 24.5
c-18 28.667 -41.667 53.167 -71 73.5s-69 36.166 -119 47.499c-19.333 4.66699 -35.166 8 -47.499 10s-18.5 6.66699 -18.5 14l0.5 1l1.5 3c12.667 16.667 30.167 32.167 52.5 46.5l67 41c22.333 13 42.666 25.833 60.999 38.5s29.5 26 33.5 40
c-6 23.333 -15.833 38.166 -29.5 44.499s-30.167 9.5 -49.5 9.5c-37.333 0 -69.333 -0.5 -96 -1.5s-50 -2.33301 -70 -4s-37 -3 -51 -4s-27 -1.5 -39 -1.5c-11.333 0 -20.833 0.666992 -28.5 2s-12.5 3.66602 -14.5 6.99902c-3.33301 4.66699 -6.16602 7.66699 -8.49902 9
s-4.16602 2 -5.49902 2c-3.33301 0 -5.33301 -0.333008 -6 -1v-1z" />
    <glyph glyph-name="four" unicode="4" horiz-adv-x="634" 
d="M380 548c-92 -70 -192.999 -169.003 -302.999 -297.003c-2.66699 -1.33301 -5.83398 -2.16602 -9.50098 -2.49902s-6.83398 -0.5 -9.50098 -0.5c-14 0 -23.833 -2 -29.5 -6s-8.5 -13.333 -8.5 -28c0 -5.33301 0.5 -13.333 1.5 -24s3 -21.334 6 -32.001
s7.16699 -20 12.5 -28s12 -12 20 -12c6.66699 0 12.834 1.66699 18.501 5s10.667 7 15 11s7.83301 7.66699 10.5 11l4 5l234 8c14.667 -10.667 22 -28 22 -52v-34c0 -12 2.5 -22.833 7.5 -32.5s11.667 -17.667 20 -24s17.666 -11.166 27.999 -14.499s20.833 -5 31.5 -5
c8.66699 0 17.667 1 27 3l-8 143c8.66699 14.667 26.667 22 54 22c2.66699 0 6.83398 -0.333008 12.501 -1s11.334 -1.16699 17.001 -1.5s11.167 -0.833008 16.5 -1.5s9 -1 11 -1c15.333 0 24.333 4.33301 27 13s4.66699 20.334 6 35.001
c-6 18.667 -14.167 39.167 -24.5 61.5l-34.5 75.5c-6 12.667 -12 26.334 -18 41.001l-17.5 41.5l-14.5 34c-4 9.66699 -7 15.834 -9 18.501c-6 8.66699 -10.833 18.667 -14.5 30s-6.33398 23.166 -8.00098 35.499s-2.66699 24.833 -3 37.5s-0.5 24.667 -0.5 36v18
c-22 -5.33301 -42 -15.333 -60 -30c-20 -17.333 -30 -36.333 -30 -57v-1zM368.001 401.997c0 0.666992 -0.333008 -2.83203 -1 -10.499s-1.33398 -16.667 -2.00098 -27l-2 -31.5c-0.666992 -10.667 -1 -19 -1 -25c0 -14 -0.833008 -25 -2.5 -33
s-4.83398 -13.833 -9.50098 -17.5s-11.167 -5.83398 -19.5 -6.50098s-19.166 -1 -32.499 -1c-14 0 -28.167 0.833008 -42.5 2.5s-26.166 2.5 -35.499 2.5c2.66699 8 8 17.333 16 28s18.667 23.667 32 39c20 22 35.333 39.5 46 52.5l24.5 29.5l11.5 13.5
c2 2.33301 4 3.5 6 3.5c4 0 8 -6.33301 12 -19zM555.001 273.998c-13.333 -5.33301 -23.8301 -9.66504 -31.4971 -12.998s-17.5 -5 -29.5 -5l-24 18v191l8 4c4 -8.66699 9.16699 -18.834 15.5 -30.501s12.666 -24 18.999 -37s12.166 -25.833 17.499 -38.5
s8.66602 -24.334 9.99902 -35.001l9 -31c2.66699 -9.33301 4.66699 -17 6 -23z" />
    <glyph glyph-name="five" unicode="5" horiz-adv-x="489" 
d="M76 637c-18 -19.333 -26.999 -43.334 -26.999 -72.001c0 -10.667 0.666992 -23.834 2 -39.501s3 -31.5 5 -47.5s3.66699 -30.833 5 -44.5s2 -23.5 2 -29.5c0 -8 0.5 -18.5 1.5 -31.5s3.16699 -25.667 6.5 -38s8.66602 -22.833 15.999 -31.5s17.666 -13 30.999 -13
c8 0 15.333 1.16699 22 3.5s12.834 4.83301 18.501 7.5s10.334 5.16699 14.001 7.5s6.5 3.5 8.5 3.5c104.667 -4 173.334 -37.333 206.001 -100c-18 -20.667 -39.167 -36.834 -63.5 -48.501s-48.666 -20.5 -72.999 -26.5s-47 -9.66699 -68 -11s-37.5 -2 -49.5 -2
c-11.333 0 -20.833 1 -28.5 3s-11.5 5.66699 -11.5 11c0 6.66699 3 13.5 9 20.5s12.667 13.5 20 19.5s14.333 11.333 21 16s10.667 8.33398 12 11.001c-6 -0.666992 -16.333 -3.5 -31 -8.5s-29.667 -11.667 -45 -20s-29 -18.666 -41 -30.999s-18 -26.166 -18 -41.499
c0 -14.667 5.83301 -28.5 17.5 -41.5s25.5 -24.333 41.5 -34s32.333 -17.334 49 -23.001s29.667 -8.5 39 -8.5c29.333 0 60.5 3.83301 93.5 11.5s63.5 19.834 91.5 36.501s51.167 37.834 69.5 63.501s27.5 56.167 27.5 91.5c0 20 -5.33301 42 -16 66
s-25.167 46.167 -43.5 66.5s-40 37.333 -65 51s-51.5 20.5 -79.5 20.5l-30 -2c-17.333 0 -31.333 3.33301 -42 10c0 6.66699 -0.5 13.667 -1.5 21s-1.83301 14.333 -2.5 21s-1.33398 12.334 -2.00098 17.001s-1 7.66699 -1 9c0 17.333 5.66699 29.666 17 36.999
c25.333 -4.66699 51 -8 77 -10s51.667 -3 77 -3c0.666992 0 8.33398 0.333008 23.001 1l65 3l20.5 -25.5c3 -3.66699 5.83301 -5.5 8.5 -5.5c3.33301 0 6 2 8 6s3.5 8.83301 4.5 14.5s1.66699 11 2 16s0.5 8.5 0.5 10.5c0 32 -10 59.667 -30 83
c-11.333 0.666992 -22 1.5 -32 2.5s-20.333 1.83301 -31 2.5c-43.333 1.33301 -80.833 2.66602 -112.5 3.99902s-59.334 3 -83.001 5s-43.834 4.33301 -60.501 7s-31.334 6 -44.001 10v-1z" />
    <glyph glyph-name="six" unicode="6" horiz-adv-x="498" 
d="M413 624c-13.333 2.66699 -27.0029 3.99316 -41.0029 3.99316c-47.333 0 -91.833 -11 -133.5 -33s-78 -51 -109 -87s-56 -76.5 -75 -121.5s-29.833 -90.5 -32.5 -136.5c-0.666992 -5.33301 -1.16699 -9.16602 -1.5 -11.499s-0.5 -3.16602 -0.5 -2.49902
c0.666992 -30.667 3.5 -60.334 8.5 -89.001s13.5 -54.167 25.5 -76.5s28 -40.166 48 -53.499s45 -20 75 -20c12 0 23.833 1.5 35.5 4.5s22.834 4.5 33.501 4.5c9.33301 0 18 -3.33301 26 -10s16.333 -10 25 -10c5.33301 0 10.833 1.33301 16.5 4s10.834 4 15.501 4h2
c18.667 8 37 19.167 55 33.5s33.667 30.833 47 49.5s24.166 38.834 32.499 60.501s12.5 43.834 12.5 66.501c0 48 -14 86 -42 114s-66 42 -114 42c-14.667 0 -30.167 -1.66699 -46.5 -5s-31.5 -8.66602 -45.5 -15.999s-25.5 -16.666 -34.5 -27.999s-13.5 -25 -13.5 -41
c0 -0.666992 0.333008 -1.16699 1 -1.5l1 -0.5c10 -22 20.667 -39.833 32 -53.5s21.666 -24.5 30.999 -32.5s17.333 -13.5 24 -16.5s10.667 -4.5 12 -4.5h19v3c-4 8.66699 -9.66699 13 -17 13c-4.66699 0 -9 2.66699 -13 8s-7.5 11.166 -10.5 17.499s-5.33301 12.5 -7 18.5
s-2.5 9.66699 -2.5 11c2.66699 8 7.83398 15.167 15.501 21.5s16.334 11.5 26.001 15.5s19.667 7 30 9s19.5 3 27.5 3c6.66699 0 12.334 -1.33301 17.001 -4s7 -7.66699 7 -15v-9c0 -18 -4 -39.667 -12 -65s-18.667 -49.5 -32 -72.5s-29 -42.667 -47 -59
s-37.333 -24.5 -58 -24.5c-15.333 0 -28.166 6 -38.499 18s-18.5 26.167 -24.5 42.5s-10.333 32.833 -13 49.5s-4 29.334 -4 38.001c0 22.667 2.66699 48.5 8 77.5s12.833 58.833 22.5 89.5s21.5 60.834 35.5 90.501s29.5 56 46.5 79s35.333 41.667 55 56
s40.5 21.5 62.5 21.5c8 0 17.5 -1.5 28.5 -4.5s21.667 -6.5 32 -10.5s19.166 -7.83301 26.499 -11.5s11.333 -6.16699 12 -7.5v14c-4 6 -8.83301 11.5 -14.5 16.5s-11.667 9.5 -18 13.5l-17.5 11c-5.33301 3.33301 -9.33301 6.33301 -12 9z" />
    <glyph glyph-name="seven" unicode="7" horiz-adv-x="521" 
d="M244 624c-38.667 0 -74.8301 -0.832031 -108.497 -2.49902s-65.5 -4.16699 -95.5 -7.5c-7.33301 -2.66699 -12.5 -7.16699 -15.5 -13.5s-4.5 -13.166 -4.5 -20.499c10 -36 19.333 -61 28 -75s15 -21 19 -21c2.66699 0 4 2.66699 4 8c4.66699 10.667 12 18 22 22
c64 12 122 18 174 18c14 0 28.333 -0.666992 43 -2s27.667 -4.33301 39 -9l-19.5 -41l-21.5 -44c-7.33301 -14.667 -14.833 -28.5 -22.5 -41.5s-15.167 -23.833 -22.5 -32.5l-29.5 -4.5c-11 -1.66699 -21.5 -2.5 -31.5 -2.5c-4 0 -13.333 0.666992 -28 2
s-30.334 2.83301 -47.001 4.5s-32.334 3.16699 -47.001 4.5s-24.334 2 -29.001 2c-4 0 -7.33301 -2.16699 -10 -6.5s-4.66699 -9.33301 -6 -15s-2.33301 -11.5 -3 -17.5s-1 -10.333 -1 -13c0 -3.33301 0.5 -7.5 1.5 -12.5s2.66699 -9.83301 5 -14.5
s5.16602 -8.66699 8.49902 -12s7 -5 11 -5c14.667 0 26.5 -4 35.5 -12s15.833 -18.333 20.5 -31s8 -26.5 10 -41.5s3.66699 -29.5 5 -43.5s2.83301 -26.333 4.5 -37s4.5 -17.667 8.5 -21c4.66699 -4 7.83398 -9 9.50098 -15s2.5 -12.667 2.5 -20v-21
c0 -6.66699 0.666992 -13.334 2 -20.001c12.667 -11.333 21.167 -18.166 25.5 -20.499s8.16602 -3.5 11.499 -3.5c20.667 0 31 11.333 31 34c0 9.33301 3 19.166 9 29.499s10.333 19.166 13 26.499l16 51c0 10 1.83301 20.5 5.5 31.5s8 21.5 13 31.5
s9.83301 18.833 14.5 26.5s8 12.834 10 15.501c22 30.667 51.667 46 89 46c20.667 0 36.5 2.5 47.5 7.5s19.833 12.833 26.5 23.5c6 8 12 17.333 18 28s11.333 21.667 16 33c-31.333 0 -53.666 -1.33301 -66.999 -4s-23 -4 -29 -4c-17.333 0 -26 5 -26 15l24 44
c7.33301 14 14 27.333 20 40c12 25.333 28.667 41.666 50 48.999v14c0 14.667 -3.33301 29.5 -10 44.5s-14.667 28.167 -24 39.5zM193.004 252.001l-0.000976562 -9.99805c0 -4 -1 -9.83301 -3 -17.5s-4.66699 -15.334 -8 -23.001s-7.16602 -14.167 -11.499 -19.5
s-8.83301 -8 -13.5 -8c-4 0 -8.33301 3 -13 9s-9 13 -13 21s-7.33301 15.667 -10 23s-4 12.666 -4 15.999c0 10 7.33301 15 22 15c5.33301 0 13.5 -1 24.5 -3s19.5 -3 25.5 -3h4z" />
    <glyph glyph-name="eight" unicode="8" horiz-adv-x="525" 
d="M276 624c-21.333 4 -36.665 5.99805 -45.998 5.99805c-23.333 0 -45.166 -4.16699 -65.499 -12.5s-38 -19.666 -53 -33.999s-26.667 -31.5 -35 -51.5s-12.5 -41.667 -12.5 -65c0 -19.333 3.66699 -35.333 11 -48s15.5 -24 24.5 -34l25 -28
c7.66699 -8.66699 11.5 -18.334 11.5 -29.001v-2c-15.333 -11.333 -30 -23.833 -44 -37.5s-26.333 -28.5 -37 -44.5s-19.167 -33 -25.5 -51s-9.5 -37 -9.5 -57c0 -25.333 4.83301 -47.166 14.5 -65.499s22.667 -33.5 39 -45.5s35.166 -20.833 56.499 -26.5
s43.666 -8.5 66.999 -8.5c29.333 0 49.166 3 59.499 9s15.5 10.333 15.5 13c0 5.33301 -7.33301 12 -22 20l-49 27.5c-18 10.333 -34.333 21.666 -49 33.999s-22 25.5 -22 39.5c0 14.667 7.83301 31.167 23.5 49.5s34 35.5 55 51.5s42 29.5 63 40.5s37.167 16.5 48.5 16.5
s23.333 -1.83301 36 -5.5s24.5 -8.33398 35.5 -14.001s20 -12 27 -19s10.5 -13.833 10.5 -20.5c0 -16 -7 -32.833 -21 -50.5s-30.5 -33.834 -49.5 -48.501s-38.833 -26.667 -59.5 -36s-37.334 -14 -50.001 -14c-6 0.666992 -12 0.833984 -18 0.500977
s-9.66699 0.833984 -11 3.50098c20 -22.667 41.667 -39.834 65 -51.501s45.666 -17.5 66.999 -17.5c20.667 0 40.334 5.16699 59.001 15.5s35 23.333 49 39s25 32.334 33 50.001s12 33.834 12 48.501c0 24 -4.33301 44.5 -13 61.5s-20 31.833 -34 44.5
s-29.833 23.834 -47.5 33.501l-52.5 27.5c13.333 10 26.166 21.667 38.499 35s23.333 27 33 41s17.334 27.667 23.001 41s8.5 25.666 8.5 36.999c-3.33301 20 -8.5 37.833 -15.5 53.5s-18.833 24.5 -35.5 26.5c-6.66699 0.666992 -15.667 2.83398 -27 6.50098
s-23.166 8.16699 -35.499 13.5l-37.5 17c-12.667 6 -24 11.667 -34 17v-2zM358.001 546.998c0 -20 -5.99805 -39.835 -17.998 -59.502s-26.333 -37.5 -43 -53.5s-33.5 -28.833 -50.5 -38.5s-30.5 -14.5 -40.5 -14.5c-9.33301 0 -17.5 1.66699 -24.5 5
s-13 7.16602 -18 11.499s-8.83301 9 -11.5 14s-4 9.16699 -4 12.5c0 8.66699 4.16699 18.334 12.5 29.001s18.666 21.334 30.999 32.001s26 20.834 41 30.501s29.333 18.167 43 25.5s25.667 13.333 36 18s17.166 7 20.499 7c13.333 0 22 -6 26 -18v-1z" />
    <glyph glyph-name="nine" unicode="9" horiz-adv-x="555" 
d="M20 393c0 -26 7.49512 -48.6631 22.4951 -67.9961s33.833 -35.5 56.5 -48.5s47.167 -22.667 73.5 -29s50.833 -9.5 73.5 -9.5c12.667 0 27.834 1.66699 45.501 5s35.5 7.83301 53.5 13.5s34.833 11.667 50.5 18s27.834 12.5 36.501 18.5
c-30.667 -44.667 -92 -93.667 -184 -147c-18 -8 -33.5 -15.833 -46.5 -23.5s-24.833 -15.5 -35.5 -23.5s-21.167 -16.667 -31.5 -26s-22.5 -19.333 -36.5 -30c6 -7.33301 13.667 -13.833 23 -19.5s19.333 -10.5 30 -14.5s21.334 -7.16699 32.001 -9.5
s20.334 -3.83301 29.001 -4.5c38 8.66699 76.167 23.5 114.5 44.5s73 46.5 104 76.5s56.167 63.5 75.5 100.5s29 76.167 29 117.5c0 35.333 -9.66699 71.666 -29 108.999c-1.33301 2 -6 7.66699 -14 17s-16.667 20.166 -26 32.499s-17.833 25 -25.5 38
s-11.5 24.167 -11.5 33.5c0 3.33301 1.33301 5.83301 4 7.5s8 2.5 16 2.5c14.667 0 22.334 3.33301 23.001 10c-49.333 29.333 -105.333 44 -168 44c-33.333 0 -63.333 -5 -90 -15s-50.5 -22.667 -71.5 -38s-39.167 -32.333 -54.5 -51s-28 -36.834 -38 -54.501
s-17.5 -33.334 -22.5 -47.001s-7.5 -23.5 -7.5 -29.5zM439.995 346.004c-14.667 -4 -28.499 -7.5 -41.499 -10.5s-26.333 -5.5 -40 -7.5s-28.334 -3.83301 -44.001 -5.5s-33.167 -3.16699 -52.5 -4.5c-68.667 0 -122.667 15.333 -162 46c10 28 25 52.833 45 74.5
s42.667 40.5 68 56.5s51.5 29 78.5 39s52.5 17.667 76.5 23c52 -47.333 78 -103 78 -167c0 -22 -2 -36.333 -6 -43v-1z" />
    <glyph glyph-name="colon" unicode=":" horiz-adv-x="174" 
d="M35 119l0.998047 -13.001c0 -9.33301 -0.833008 -17.333 -2.5 -24s-3.5 -12.667 -5.5 -18s-3.83301 -11 -5.5 -17s-2.5 -13 -2.5 -21c0 -8.66699 5 -17.167 15 -25.5s23.333 -12.5 40 -12.5c4 0 7.83301 1.66699 11.5 5s6.83398 5 9.50098 5c10 4 16.333 6 19 6
c13.333 0 23.166 2.16699 29.499 6.5s9.5 17.166 9.5 38.499c0 12.667 -2.5 23.834 -7.5 33.501s-11.167 18 -18.5 25s-15.166 12.333 -23.499 16s-16.166 5.5 -23.499 5.5c-14 0 -23.5 -0.666992 -28.5 -2s-10.833 -3.66602 -17.5 -6.99902v-1zM59.998 384.999
c-5.33301 -16.667 -9.33398 -30.667 -12.001 -42s-4 -23.333 -4 -36c0 -6.66699 -0.333008 -12.5 -1 -17.5l-1 -7.5l41 -40c10 -9.33301 19.667 -14 29 -14c6.66699 2.66699 14.334 9.66699 23.001 21s13 24.333 13 39c1.33301 8 2.5 14.333 3.5 19s1.5 8.66699 1.5 12
c0 4 -2.66699 9.83301 -8 17.5s-11.833 15.167 -19.5 22.5s-16 13.833 -25 19.5s-17.167 8.5 -24.5 8.5c-4.66699 -0.666992 -8 -1 -10 -1h-6v-1z" />
    <glyph glyph-name="semicolon" unicode=";" horiz-adv-x="243" 
d="M66 -58c-5.33301 -11.333 -10.502 -23.333 -15.502 -36l-13.5 -35l-10.5 -27c-3 -7.33301 -5.16699 -11.333 -6.5 -12h10c26 20.667 59 60.667 99 120l22.5 47.5l14 30c3.66699 7.66699 6.5 13.834 8.5 18.501s4 9 6 13c9.33301 17.333 14 32.333 14 45
c-4 6.66699 -9.66699 10 -17 10c-10 0 -18.167 -0.833008 -24.5 -2.5s-11.666 -3.83398 -15.999 -6.50098s-8.16602 -5.16699 -11.499 -7.5s-7 -3.83301 -11 -4.5zM127.998 362c2.66699 -8.66699 3.99512 -16.9971 3.99512 -24.9971
c0 -6.66699 -0.333008 -13.834 -1 -21.501s-1.16699 -14.834 -1.5 -21.501s-0.833008 -12.334 -1.5 -17.001l-1 -7c0 -14.667 4.33301 -28.667 13 -42s20.667 -20 36 -20h2c8 0 14.833 4 20.5 12s10.334 17 14.001 27s6.33398 19.333 8.00098 28s2.5 13.667 2.5 15
c0 7.33301 -2.5 14.333 -7.5 21s-10.667 12.667 -17 18s-12.166 10 -17.499 14s-8.66602 7 -9.99902 9c-5.33301 8 -13.666 12 -24.999 12z" />
    <glyph glyph-name="less" unicode="&#x3c;" horiz-adv-x="410" 
d="M390 98c-6 22 -13.999 41.001 -23.999 57.001s-21.667 30.333 -35 43s-28.333 24.167 -45 34.5l-53 31.5c-20 8.66699 -36.5 16.5 -49.5 23.5s-23.167 13.333 -30.5 19s-12.333 11 -15 16s-4 9.83301 -4 14.5c0 5.33301 1.16699 10.333 3.5 15
s5.16602 9.66699 8.49902 15c16.667 22 34.334 39.333 53.001 52s36.834 23.167 54.501 31.5s34.5 15.333 50.5 21s30.167 12.5 42.5 20.5s22 18.5 29 31.5s10.5 30.833 10.5 53.5c0 17.333 -3.33301 27.333 -10 30c-6 2.66699 -10 7 -12 13
c0 0.666992 -1.66699 2.33398 -5 5.00098s-7 5.33398 -11 8.00098l-11.5 7.5c-3.66699 2.33301 -5.83398 3.5 -6.50098 3.5c0 -4.66699 0.166992 -8.16699 0.5 -10.5s0.5 -4.5 0.5 -6.5v-7c0 -12 -6.16699 -23.5 -18.5 -34.5s-27.5 -21.833 -45.5 -32.5
s-37.833 -21.334 -59.5 -32.001s-41.5 -21.334 -59.5 -32.001s-33.167 -21.834 -45.5 -33.501s-18.5 -24.167 -18.5 -37.5c0 -5.33301 0.333008 -10 1 -14s1 -9.33301 1 -16c-22.667 -1.33301 -39.334 -8.33301 -50.001 -21s-16 -27 -16 -43
c0 -21.333 6.33301 -39.833 19 -55.5s28.167 -29.667 46.5 -42s37.5 -23.5 57.5 -33.5s37.333 -19.667 52 -29c46.667 -92.667 105 -139 175 -139c9.33301 8.66699 15 17.667 17 27s3 20.333 3 33v13zM318.001 68.001c-17.333 0 -30.998 5.66699 -40.998 17
c-5.33301 5.33301 -11.5 11.833 -18.5 19.5s-15.167 16.167 -24.5 25.5l-4 4l3 5c1.33301 -4 6 -10 14 -18c8.66699 -8.66699 16.667 -13 24 -13c11.333 -6 20.666 -12.5 27.999 -19.5s13.666 -13.833 18.999 -20.5z" />
    <glyph glyph-name="FLW61" unicode="=" horiz-adv-x="227" 
d="M71 129c-5.33301 0 -11.3311 -1.83203 -17.998 -5.49902s-10 -8.16699 -10 -13.5l-3 -4c-0.666992 -2.66699 -2.16699 -5.83398 -4.5 -9.50098l-7 -11c-2.33301 -3.66699 -4.33301 -7 -6 -10s-2.5 -4.83301 -2.5 -5.5c0 -1.33301 6.66699 -2 20 -2c78.667 0 120 2 124 6
c23.333 13.333 35 26 35 38c-0.666992 4.66699 -1.33398 8.16699 -2.00098 10.5s-1.33398 4.5 -2.00098 6.5h-124zM82.002 204.001c-5.33301 0 -11.499 -2.50195 -18.499 -7.50195s-10.833 -7.83301 -11.5 -8.5c-6 -8.66699 -11.5 -15.667 -16.5 -21
s-7.5 -8.66602 -7.5 -9.99902c0 -2 6.66699 -3 20 -3c39.333 0 69.166 0.166992 89.499 0.5s31.833 1.83301 34.5 4.5c23.333 11.333 35 22 35 32c0 2.66699 -0.5 5.33398 -1.5 8.00098s-1.83301 4 -2.5 4z" />
    <glyph glyph-name="FLW62" unicode="&#x3e;" horiz-adv-x="410" 
d="M20 572c6 -22 14.001 -41.1719 24.001 -57.5049s21.667 -30.666 35 -42.999s28.166 -23.666 44.499 -33.999s34.166 -20.833 53.499 -31.5c37.333 -16.667 63 -30.667 77 -42s21 -22.333 21 -33c0 -18 -6.16699 -33.833 -18.5 -47.5s-27.333 -25.667 -45 -36
s-36.334 -19.666 -56.001 -27.999s-36.834 -16.166 -51.501 -23.499c-21.333 -13.333 -40 -27.666 -56 -42.999s-24 -35.333 -24 -60c0 -17.333 3 -27.333 9 -30s10.333 -7 13 -13c0 -0.666992 1.66699 -2.33398 5 -5.00098l11 -8.5c4 -3 7.83301 -5.5 11.5 -7.5
s5.83398 -3 6.50098 -3c0 4.66699 -0.166992 8.16699 -0.5 10.5s-0.5 4.5 -0.5 6.5c0 13.333 6.16699 25.833 18.5 37.5s27.5 23.167 45.5 34.5s37.833 22.333 59.5 33s41.5 21.5 59.5 32.5s33.167 22.5 45.5 34.5s18.5 24.333 18.5 37c0 5.33301 -0.333008 10 -1 14
s-1 9.33301 -1 16c22.667 1.33301 39.334 8.33301 50.001 21s16 27 16 43c0 15.333 -4.66699 30.833 -14 46.5s-22.333 27.834 -39 36.501c-11.333 10 -21.5 18.167 -30.5 24.5s-18 12 -27 17l-29 15.5c-10.333 5.33301 -22.166 12 -35.499 20
c-46.667 92.667 -105 139 -175 139c-9.33301 -8.66699 -15 -17.667 -17 -27s-3 -20.333 -3 -33v-13zM92.001 601.995c17.333 0 31 -5.66699 41 -17c5.33301 -5.33301 11.5 -11.833 18.5 -19.5s15.167 -16.167 24.5 -25.5l4 -4l-3 -5c-0.666992 2 -2.66699 4.66699 -6 8
l-11 10.5c-4 3.66699 -8 6.66699 -12 9s-7 3.5 -9 3.5h-2c-10.667 6 -19.5 12.5 -26.5 19.5s-13.167 13.833 -18.5 20.5z" />
    <glyph glyph-name="FLW63" unicode="?" horiz-adv-x="334" 
d="M20 442c0 -8 3.00391 -16.835 9.00391 -26.502s12.5 -18.667 19.5 -27s13.5 -15.166 19.5 -20.499s9 -7.33301 9 -6l1 14c-4 4 -7.66699 7.5 -11 10.5s-5 9.5 -5 19.5v10c0 0.666992 -0.666992 3 -2 7c0 18 7.5 33.333 22.5 46s31.5 22.834 49.5 30.501
s35 13.334 51 17.001s25 5.5 27 5.5c6 0 11.333 -1.33301 16 -4c0 -13.333 -4.33301 -29.833 -13 -49.5s-19.334 -40.5 -32.001 -62.5s-26.667 -44.167 -42 -66.5l-42 -61.5l-32 -48.5c-8.66699 -13.667 -13 -22.834 -13 -27.501c12 -14 27.833 -27.167 47.5 -39.5
s39.167 -18.5 58.5 -18.5c22 4.66699 40.5 12 55.5 22s28.167 21.5 39.5 34.5s21.5 27.167 30.5 42.5l27.5 46c-12 -1.33301 -24.833 -5 -38.5 -11s-27.334 -12.5 -41.001 -19.5s-27.167 -13.167 -40.5 -18.5s-25.666 -8 -36.999 -8c-4 0 -9.33301 0.666992 -16 2
c26 31.333 49.667 61.833 71 91.5s39.666 57.167 54.999 82.5s27.166 48 35.499 68s12.5 36 12.5 48c0 32 -9.66699 56.333 -29 73s-42 25 -68 25c-38.667 0 -70.667 -7.83301 -96 -23.5s-45.333 -33.667 -60 -54s-24.834 -40.5 -30.501 -60.5s-8.5 -34 -8.5 -42z
M108.004 111.998c-3.33301 -2 -6.66699 -5.99512 -10 -11.9951s-6.66602 -12.833 -9.99902 -20.5s-6 -15.334 -8 -23.001s-3 -13.5 -3 -17.5c0 -7.33301 2 -13.833 6 -19.5s9 -10.834 15 -15.501s12.667 -8.83398 20 -12.501s14 -6.83398 20 -9.50098
c2.66699 1.33301 4.5 2.5 5.5 3.5s2.5 1.83301 4.5 2.5c9.33301 0 17.166 2.5 23.499 7.5s11.5 10.5 15.5 16.5s6.83301 11.833 8.5 17.5s2.5 9.5 2.5 11.5c0 7.33301 -3.5 13.166 -10.5 17.499s-14.667 8.33301 -23 12s-16.5 7.5 -24.5 11.5s-13 9.33301 -15 16
c-3.33301 9.33301 -7 14 -11 14h-6z" />
    <glyph glyph-name="FLW65" unicode="A" horiz-adv-x="790" 
d="M376 712l-38.0039 -72l-43 -87.5l-44 -94.5l-41.5 -92l-35.5 -82l-26 -63c-7.33301 -0.666992 -18.166 -1.16699 -32.499 -1.5s-28.5 -1.16602 -42.5 -2.49902s-26.333 -3.33301 -37 -6s-16 -6.33398 -16 -11.001c6 -15.333 16.5 -29.666 31.5 -42.999
s30.5 -21.666 46.5 -24.999c0 -15.333 -2.5 -29.833 -7.5 -43.5s-7.5 -25.167 -7.5 -34.5c0 -5.33301 2.83301 -10.666 8.5 -15.999s12.5 -10.166 20.5 -14.499s16.5 -7.83301 25.5 -10.5s16.833 -4 23.5 -4c8 0 16.333 4.33301 25 13s16.334 18.5 23.001 29.5
s12.167 21.667 16.5 32s6.5 17.166 6.5 20.499c9.33301 0 20.5 -0.5 33.5 -1.5s21.5 -1.5 25.5 -1.5c50.667 -19.333 110.834 -37.333 180.501 -54s151.5 -32.334 245.5 -47.001c18 0 27 6.66699 27 20c0 6.66699 -3.66699 16.5 -11 29.5l-24.5 42.5
c-9 15.333 -17.167 30.666 -24.5 45.999s-11 28.666 -11 39.999c0 6 1.83301 9.83301 5.5 11.5s6.16699 2.5 7.5 2.5c12.667 -1.33301 22.834 -2.16602 30.501 -2.49902s13.5 -0.666016 17.5 -0.999023s6.66699 -0.5 8 -0.5h6c10.667 0 18 2 22 6
c-16.667 12.667 -30.167 23.667 -40.5 33l-26 23c-7 6 -12.667 10.5 -17 13.5s-8.5 4.5 -12.5 4.5l-26 -8c-9.33301 8.66699 -18.333 21.667 -27 39s-17 36.666 -25 57.999s-15.833 43.666 -23.5 66.999s-14.5 46 -20.5 68l-16 61
c-4.66699 18.667 -8.66699 33.334 -12 44.001c-3.33301 12 -6.5 22.5 -9.5 31.5s-6.5 16.833 -10.5 23.5s-9 12 -15 16s-14 7.66699 -24 11c-20 10 -37.333 17.667 -52 23s-27 8.66602 -37 9.99902zM424.996 521c3.33301 -4.66699 7.83496 -12.833 13.502 -24.5l19 -41
c7 -15.667 14 -32.5 21 -50.5s13.5 -35.5 19.5 -52.5s10.833 -32.5 14.5 -46.5s5.5 -24.667 5.5 -32s-1.66699 -11 -5 -11c-10 -4 -25.333 -7 -46 -9s-42.5 -3.83301 -65.5 -5.5l-66 -5c-21 -1.66699 -37.5 -4.16699 -49.5 -7.5c4.66699 9.33301 9.16699 18.833 13.5 28.5
s8.5 19.5 12.5 29.5l37 89.5c10.667 25 20.167 46.333 28.5 64s15.666 32.5 21.999 44.5s12.166 22 17.499 30h8v-1zM627.998 84.001c0 -10.667 -5.33789 -16.001 -16.0049 -16.001c-7.33301 0 -12.166 0.333008 -14.499 1s-3.83301 1 -4.5 1c-15.333 0 -33.833 1 -55.5 3
s-44.167 4.5 -67.5 7.5s-46.666 6.16699 -69.999 9.5s-44.166 6.83301 -62.499 10.5s-33.166 6.83398 -44.499 9.50098s-17 4.66699 -17 6v9c30.667 2 57.334 5 80.001 9s44 8.33301 64 13s39.667 8.66699 59 12s41.666 5 66.999 5c16.667 0 31.167 -3.66699 43.5 -11
s18.5 -17.333 18.5 -30c4.66699 -17.333 11.334 -30.333 20.001 -39z" />
    <glyph glyph-name="B" unicode="B" horiz-adv-x="652" 
d="M27 648c-4.66699 -4.66699 -7.00293 -10.6699 -7.00293 -18.0029l7 -40c11.333 -14 21.166 -29 29.499 -45s15.5 -27 21.5 -33c30.667 -60 63.334 -97.333 98.001 -112c4.66699 -14.667 8.33398 -34.834 11.001 -60.501s4.5 -51.167 5.5 -76.5s1.66699 -47.666 2 -66.999
s0.5 -30 0.5 -32v-32c-7.33301 -5.33301 -14.333 -8 -21 -8c-8 0 -15.667 2.16699 -23 6.5s-13.833 9.33301 -19.5 15l-14.5 15c-4 4.33301 -7 6.5 -9 6.5c-5.33301 0 -8 -5.66699 -8 -17c0 -26.667 5.33301 -49.5 16 -68.5s25.167 -34.5 43.5 -46.5s40 -20.833 65 -26.5
s52.167 -8.5 81.5 -8.5c30 0 63.833 1.33301 101.5 4s73.167 8.83398 106.5 18.501s61.333 24.167 84 43.5s34 46 34 80c0 26.667 -4 49 -12 67s-18 33.833 -30 47.5s-25.167 25.834 -39.5 36.501s-28.166 22 -41.499 34v6c60 36 96.333 98.333 109 187
c-11.333 34 -29.5 62.833 -54.5 86.5s-53.667 43 -86 58s-66.666 26 -102.999 33s-71.833 10.5 -106.5 10.5c-52 0 -97.167 -5.16699 -135.5 -15.5s-73.5 -26.166 -105.5 -47.499v-1zM487.997 548.997c-4 -22 -14.333 -44.5 -31 -67.5s-35 -43.833 -55 -62.5
s-39 -33.834 -57 -45.501s-30.333 -17.5 -37 -17.5c-12 0 -18 5.33301 -18 16v105c0 29.333 0.166992 53.5 0.5 72.5s0.5 33.5 0.5 43.5v23c46 0 85.833 -4.66699 119.5 -14s59.5 -26.666 77.5 -51.999v-1zM508.997 213.997
c-3.33301 -19.333 -13.002 -35.835 -29.002 -49.502s-34 -25 -54 -34s-40 -15.667 -60 -20s-35.333 -6.5 -46 -6.5c-6 0 -11.667 1.33301 -17 4s-9.33301 7.33398 -12 14.001c2 21.333 3.83301 38.833 5.5 52.5s2.5 28.834 2.5 45.501v48
c2.66699 2.66699 6.33398 4 11.001 4c17.333 1.33301 29.333 3.33301 36 6s11.334 4 14.001 4c40.667 -4 72.5 -11.5 95.5 -22.5s40.833 -25.833 53.5 -44.5v-1zM223.995 611.995c0 -10.667 -7.99609 -22 -23.9961 -34c-4.66699 -4.66699 -8.83398 -8.5 -12.501 -11.5
s-6.66699 -6.16699 -9 -9.5s-4 -7.5 -5 -12.5s-1.5 -11.833 -1.5 -20.5c0 -2.66699 -0.333008 -5.66699 -1 -9s-1 -6.66602 -1 -9.99902v-27c0 -6.66699 0.666992 -14.5 2 -23.5s2.66602 -16.5 3.99902 -22.5c-2.66699 6 -5.83398 13.5 -9.50098 22.5
s-8.16699 18.833 -13.5 29.5l-2 4c-4.66699 14 -11.334 26.333 -20.001 37s-13 22 -13 34v5c0 1.33301 0.166992 2.16602 0.5 2.49902s0.5 0.833008 0.5 1.5v10c5.33301 4 11.166 7.83301 17.499 11.5s12.833 6.5 19.5 8.5c3.33301 1.33301 9.83301 3.33301 19.5 6l28.5 8
l6 2c6.66699 0 11.334 1.33301 14.001 4v-6z" />
    <glyph glyph-name="C" unicode="C" 
d="M410 706l-46.498 4.00488c-15.667 1.33301 -31.5 2 -47.5 2c-56 0 -99.333 -12.333 -130 -37c9.33301 -4.66699 17.666 -7 24.999 -7c5.33301 0 10.833 -0.666992 16.5 -2s8.5 -3.33301 8.5 -6c-4.66699 -7.33301 -7.66699 -11.833 -9 -13.5
s-2.33301 -2.83398 -3 -3.50098c-31.333 -12 -59.666 -32.167 -84.999 -60.5s-46.833 -60.5 -64.5 -96.5s-31.167 -73.833 -40.5 -113.5s-14 -76.834 -14 -111.501c0 -38 4.16699 -73 12.5 -105s21.5 -59.5 39.5 -82.5s41.333 -41 70 -54s63 -19.5 103 -19.5
c40.667 0 80.167 8 118.5 24s72.5 36.333 102.5 61s54.167 51.667 72.5 81s27.5 57 27.5 83c0 3.33301 -1 6.5 -3 9.5s-5.33301 4.83301 -10 5.5c-6 -10.667 -17.667 -21 -35 -31s-37.333 -19.5 -60 -28.5s-46.667 -17.5 -72 -25.5s-49.333 -14.833 -72 -20.5
s-42.334 -10.167 -59.001 -13.5s-27.667 -5 -33 -5c-9.33301 0 -19.5 0.666992 -30.5 2s-21.333 3.5 -31 6.5s-17.667 7.16699 -24 12.5s-9.5 12.333 -9.5 21c0 44 5.5 86.167 16.5 126.5s26.833 78.166 47.5 113.499s45.667 67.666 75 96.999s62.666 54.666 99.999 75.999
c22 -16.667 37.833 -32.5 47.5 -47.5s14.5 -32.833 14.5 -53.5c0 -19.333 -1.5 -35.833 -4.5 -49.5s-7.16699 -25.834 -12.5 -36.501c16 1.33301 31.833 6 47.5 14s29.667 18.5 42 31.5s22.333 27.833 30 44.5s11.5 34.334 11.5 53.001l-12.5 43l-7 24.5l-3.5 12
c-0.666992 2.33301 -1 4.5 -1 6.5c0 46 -23.333 69 -70 69h-38z" />
    <glyph glyph-name="D" unicode="D" horiz-adv-x="672" 
d="M20 610c0 -9.33301 2.15918 -21.166 6.49219 -35.499s9.83301 -29.333 16.5 -45s13.834 -31.5 21.501 -47.5s14.834 -30 21.501 -42c2 -4 3.66699 -8.33301 5 -13s3 -9.66699 5 -15c2.66699 -9.33301 6.33398 -19 11.001 -29s11.667 -16.333 21 -19v8
c0 5.33301 -2 14.666 -6 27.999l-13.5 43l-14 44.5c-4.33301 14.333 -7.16602 25.5 -8.49902 33.5c14.667 32 46 51 94 57c6.66699 -2.66699 10 -6.66699 10 -12c0 -4.66699 -1.66699 -9.83398 -5 -15.501s-7 -11.167 -11 -16.5s-7.83301 -10.166 -11.5 -14.499
s-5.5 -7.5 -5.5 -9.5c-1.33301 -14.667 -2.16602 -30.334 -2.49902 -47.001s-0.5 -30.667 -0.5 -42l14 -265c0 -21.333 -10 -32 -30 -32c-10.667 0 -22.167 2.33301 -34.5 7s-23.5 7 -33.5 7h-5c4 -28 13 -50.833 27 -68.5s31 -31.667 51 -42s42.333 -17.5 67 -21.5
s50.334 -6 77.001 -6c42.667 0 84.667 6.33301 126 19s78.833 30.834 112.5 54.501s61.834 52.167 84.501 85.5s36.667 71 42 113c-3.33301 26.667 -6.16602 47.5 -8.49902 62.5s-3.5 30.167 -3.5 45.5c0 3.33301 0.333008 5.5 1 6.5s1 1.83301 1 2.5v9l2 6
c0 12.667 -2 23.5 -6 32.5s-7.66699 18.167 -11 27.5c-13.333 34 -27.833 62.833 -43.5 86.5s-35.5 43.834 -59.5 60.501c-12 7.33301 -30 16.666 -54 27.999s-50.833 22.5 -80.5 33.5s-60.5 20.333 -92.5 28s-62 11.5 -90 11.5c-21.333 0 -43 -1.5 -65 -4.5
s-42 -8.33301 -60 -16s-32.833 -18 -44.5 -31s-17.5 -29.833 -17.5 -50.5zM584.992 306c-16 -28.667 -35.832 -54.001 -59.499 -76.001s-50 -40.5 -79 -55.5s-59.667 -26.5 -92 -34.5s-65.166 -12 -98.499 -12l-3 -0.5c-2 -0.333008 -3.66699 -0.5 -5 -0.5
c-0.666992 2 -1 3.66699 -1 5c0 3.33301 1.66699 9.5 5 18.5s6 15.833 8 20.5c11.333 17.333 18 34.333 20 51s3 36 3 58c0 12.667 -0.5 27.5 -1.5 44.5s-2.33301 34.5 -4 52.5s-3 35.333 -4 52s-1.5 31 -1.5 43c0 8.66699 0.5 18.834 1.5 30.501s2.16699 22.667 3.5 33
s2.66602 19 3.99902 26s2.33301 10.5 3 10.5l12 4c35.333 -12.667 69.166 -26.5 101.499 -41.5s61.5 -33 87.5 -54s47.833 -45.5 65.5 -73.5s29.167 -61.333 34.5 -100v-1z" />
    <glyph glyph-name="E" unicode="E" horiz-adv-x="712" 
d="M580 710c-4 0 -8.65918 0.166992 -13.9922 0.5l-16 1c-5.33301 0.333008 -10 0.5 -14 0.5h-8c-54 0 -103.5 -0.833008 -148.5 -2.5s-84.5 -3.33398 -118.5 -5.00098s-62 -3.16699 -84 -4.5s-37.333 -2 -46 -2c-14 0 -28.5 1.5 -43.5 4.5s-30.167 5.5 -45.5 7.5
c-7.33301 -7.33301 -11 -17 -11 -29c0 -5.33301 0.666992 -12.666 2 -21.999s3.5 -18.666 6.5 -27.999s7.16699 -17.333 12.5 -24s12.333 -10 21 -10c15.333 -2.66699 26 -7.66699 32 -15l6 -128c-6 0 -12.333 -2.66699 -19 -8s-12.834 -11.666 -18.501 -18.999
s-10.5 -14.666 -14.5 -21.999s-6 -13 -6 -17c0 -7.33301 2.16699 -15.5 6.5 -24.5s11.5 -14.167 21.5 -15.5c15.333 -6.66699 24.666 -17.334 27.999 -32.001s5 -33.334 5 -56.001c0 -12 -0.666992 -22 -2 -30s-3.66602 -15 -6.99902 -21s-7.5 -11.667 -12.5 -17
s-11.167 -11.333 -18.5 -18l-36.5 -36c-11.667 -12 -17.5 -27.667 -17.5 -47c0 -20 3.83301 -35.833 11.5 -47.5s17.667 -20.834 30 -27.501s26 -11 41 -13s29.5 -3 43.5 -3c60 0 111.667 1 155 3s80.166 4.66699 110.499 8s55.166 7 74.499 11s35.5 8 48.5 12
s23.333 7.83301 31 11.5s15.167 6.5 22.5 8.5c40 12.667 68 42 84 88c1.33301 5.33301 5 11.666 11 18.999s9 14 9 20c0 7.33301 -6.33301 11 -19 11c-37.333 0 -74.833 -3.5 -112.5 -10.5s-74.334 -14.5 -110.001 -22.5l-102.5 -22.5c-32.667 -7 -62.667 -10.5 -90 -10.5
h-18c-5.33301 4 -8.83301 10.167 -10.5 18.5s-2.5 18.833 -2.5 31.5v58c10 14 20 25.167 30 33.5s19.5 14.833 28.5 19.5s16.833 8.16699 23.5 10.5s11.667 4.5 15 6.5c16 8.66699 33 15.167 51 19.5s40.333 6.5 67 6.5c18.667 0 36.667 2.16699 54 6.5
s33.166 9.66602 47.499 15.999s26.666 13 36.999 20s18.166 13.167 23.499 18.5c-2 2 -3.5 5.16699 -4.5 9.5s-2.16699 8.83301 -3.5 13.5v2c0 14.667 -7 23.834 -21 27.501s-30 5.5 -48 5.5c-24 0 -52.5 -0.5 -85.5 -1.5s-64.5 -2.33301 -94.5 -4
s-55.833 -3.16699 -77.5 -4.5s-33.834 -2.33301 -36.501 -3c-7.33301 3.33301 -11 7.33301 -11 12c0 10.667 -1 18.667 -3 24s-3 12.666 -3 21.999c1.33301 6 2.66602 11 3.99902 15s2 7.66699 2 11c0 25.333 -1.33301 43.333 -4 54s-4 16.667 -4 18
c11.333 0 27.666 0.833008 48.999 2.5s44.166 3.33398 68.499 5.00098l73.5 5c24.667 1.66699 46.334 2.5 65.001 2.5c2.66699 0 6.5 -1.33301 11.5 -4s7.5 -6 7.5 -10c-14.667 -12 -32.5 -23.167 -53.5 -33.5s-42.667 -20 -65 -29l-64.5 -26
c-20.667 -8.33301 -38 -16.833 -52 -25.5l334 117c10.667 2.66699 18.834 7.16699 24.501 13.5s9.83398 12.5 12.501 18.5s4.33398 11.333 5.00098 16l1 7c0 4 -1.33301 9.16699 -4 15.5s-6.33398 12.833 -11.001 19.5s-10 12.334 -16 17.001s-12.333 7 -19 7h-1z
M336.008 328c1.33301 -2.66699 1.99805 -5.33398 1.99805 -8.00098s-2.16699 -4.66699 -6.5 -6s-7.83301 -2 -10.5 -2c-6 -1.33301 -12.667 -3.83301 -20 -7.5s-14.666 -7.66699 -21.999 -12s-14.333 -8.16602 -21 -11.499s-12.667 -5 -18 -5
c-3.33301 0.666992 -7.16602 2.16699 -11.499 4.5s-6.5 4.83301 -6.5 7.5l-2 9c0 22.667 12.667 34 38 34c14 0 25.5 -0.833008 34.5 -2.5s17.5 -2.5 25.5 -2.5c7.33301 0 13.333 1.33301 18 4v-2zM120.006 150c0 -16.667 -8.66504 -25 -25.998 -25
c-10.667 0 -18.167 2 -22.5 6s-6.5 8.66699 -6.5 14c0 8 3.66699 16.167 11 24.5s14.666 12.5 21.999 12.5c13.333 0 20.666 -5.66699 21.999 -17v-15z" />
    <glyph glyph-name="F" unicode="F" horiz-adv-x="664" 
d="M20 700c0 -14 5.66797 -27.9971 17.001 -41.9971s24.666 -26.667 39.999 -38s30.666 -21 45.999 -29s27.333 -13 36 -15c-12 -21.333 -19 -52 -21 -92c0 -3.33301 0.166992 -9.16602 0.5 -17.499s0.833008 -16.666 1.5 -24.999s1.16699 -15.5 1.5 -21.5
s0.5 -8.66699 0.5 -8c-4.66699 -14.667 -11.167 -26.167 -19.5 -34.5s-16.666 -15.5 -24.999 -21.5s-15.666 -11.5 -21.999 -16.5s-9.5 -11.5 -9.5 -19.5c0 -16 4.83301 -28.5 14.5 -37.5s20.334 -17 32.001 -24s22.334 -14.333 32.001 -22s14.5 -17.834 14.5 -30.501
c0 -4 -0.166992 -8.33301 -0.5 -13s-0.5 -8.33398 -0.5 -11.001c0 -7.33301 0.666992 -18 2 -32s2.66602 -29 3.99902 -45l4 -46.5c1.33301 -15 2 -27.167 2 -36.5c12.667 -14.667 34.667 -22 66 -22c10.667 0 21.334 0.666992 32.001 2s20.334 3.66602 29.001 6.99902
s15.667 7.66602 21 12.999s8 12 8 20c0 12 -2.66699 25.167 -8 39.5s-11 28.666 -17 42.999l-17 40.5c-5.33301 12.667 -8 23 -8 31c0 14 2.66699 22.833 8 26.5s14.666 5.5 27.999 5.5c16.667 0 36.5 0.666992 59.5 2l67.5 4c22 1.33301 41.833 2.83301 59.5 4.5
s29.5 2.83398 35.5 3.50098c14 1.33301 27 5 39 11s18 19.667 18 41c0 13.333 -1.83301 22.333 -5.5 27s-5.83398 9 -6.50098 13c0 6 0.5 11.167 1.5 15.5s1.5 8.5 1.5 12.5c0 6 -2.16699 12.5 -6.5 19.5s-8.83301 10.5 -13.5 10.5c-5.33301 0 -9.5 -2.66699 -12.5 -8
s-5.5 -9.33301 -7.5 -12c-22 0 -47 -1.16699 -75 -3.5s-55.167 -5 -81.5 -8l-70.5 -8c-20.667 -2.33301 -35 -3.5 -43 -3.5l-8 9c1.33301 1.33301 2 4 2 8v30c0 6.66699 1.5 13.5 4.5 20.5s7.16699 11.833 12.5 14.5c34.667 13.333 69.334 27.5 104.001 42.5
s67.667 30.333 99 46s60.666 31.167 87.999 46.5s50.666 30 69.999 44c-5.33301 4 -9.33301 10 -12 18c-8 26 -17.5 45.833 -28.5 59.5s-19.167 20.5 -24.5 20.5c-26.667 0 -55.667 -0.333008 -87 -1l-96.5 -2c-33 -0.666992 -65.5 -1.66699 -97.5 -3s-62 -2.33301 -90 -3
s-52.833 -1.33398 -74.5 -2.00098s-38.5 -1 -50.5 -1c-3.33301 2.66699 -8 5.66699 -14 9s-11.667 5 -17 5c-18.667 0 -29.334 -3.33301 -32.001 -10zM270.001 528.003c0 22.667 6.99902 40.001 20.999 52.001c14.667 1.33301 31.834 2.33301 51.501 3s39.834 1 60.501 1
s40.5 -0.333008 59.5 -1s35.5 -1.66699 49.5 -3c0 -4 -0.333008 -8.16699 -1 -12.5s-2.33398 -7.5 -5.00098 -9.5l-63 -39.5c-18 -11 -35 -20.833 -51 -29.5s-32 -16.834 -48 -24.501l-53 -24.5h-14v10c0 0.666992 -0.333008 4 -1 10l-2.5 21.5
c-1 8.33301 -1.83301 16.833 -2.5 25.5s-1 15.667 -1 21zM142 348.004c0 -1.33301 -0.666992 -3.33398 -2 -6.00098s-3.33301 -4 -6 -4c-12 0 -18 2.33301 -18 7c0 6.66699 1.5 11.834 4.5 15.501s5.5 5.5 7.5 5.5c9.33301 0 14 -3.33301 14 -10v-8z" />
    <glyph glyph-name="G" unicode="G" horiz-adv-x="781" 
d="M22 191c0 -32 11.832 -59.9922 35.499 -83.9922s53.167 -43.833 88.5 -59.5s73.5 -27.5 114.5 -35.5s78.833 -12 113.5 -12c22 0 48.333 2.16699 79 6.5s60 11.666 88 21.999s51.667 24 71 41s29 37.833 29 62.5c0 3.33301 -0.833008 7.66602 -2.5 12.999
s-2.5 9.66602 -2.5 12.999c0 7.33301 5.66699 11 17 11c9.33301 0 16.666 -0.666992 21.999 -2s9.33301 -2 12 -2c8 0 17.333 4.16699 28 12.5s20.834 18.333 30.501 30s17.834 23.834 24.501 36.501s10 23.334 10 32.001c0 11.333 -6.33301 17 -19 17
c-5.33301 0 -13.5 -0.166992 -24.5 -0.5s-23.333 -0.833008 -37 -1.5s-27.834 -1.5 -42.501 -2.5s-28.5 -1.83301 -41.5 -2.5s-24 -1.16699 -33 -1.5s-14.833 -0.5 -17.5 -0.5c-42 0 -75.667 1.16699 -101 3.5s-44.833 5 -58.5 8s-22.834 6 -27.501 9s-7 5.16699 -7 6.5
c0 4 4.66699 8.16699 14 12.5s20.333 6.5 33 6.5c26 0 43.667 0.333008 53 1s14 1.66699 14 3c0 0.666992 -4 1.66699 -12 3s-17.5 2.66602 -28.5 3.99902s-22 2.33301 -33 3s-19.833 1 -26.5 1c-21.333 0 -38.166 -1.33301 -50.499 -4s-22 -6.5 -29 -11.5
s-11.5 -11.167 -13.5 -18.5s-3 -15.666 -3 -24.999c0 -22 4.16699 -40.333 12.5 -55s19 -26.334 32 -35.001s27.833 -14.834 44.5 -18.501s33 -5.5 49 -5.5c10.667 0 22.834 -0.333008 36.501 -1l39.5 -2c12.667 -0.666992 24 -1.83398 34 -3.50098s16.667 -3.5 20 -5.5
c-1.33301 -6 -4.83301 -12 -10.5 -18s-12 -11.333 -19 -16s-14.333 -8.5 -22 -11.5s-14.5 -4.5 -20.5 -4.5c-24.667 0 -47 -2 -67 -6s-37.667 -6 -53 -6c-44 0 -87.333 6.5 -130 19.5s-80 33.833 -112 62.5c0 44.667 5.66699 85 17 121s26.166 68.167 44.499 96.5
s39.166 52.833 62.499 73.5s46.5 37.667 69.5 51s45.167 23.333 66.5 30s39.333 10 54 10c17.333 0 37 -5.33301 59 -16s42.833 -22.5 62.5 -35.5s36.334 -24.833 50.001 -35.5s20.834 -16 21.501 -16c10 0 16.333 4.66699 19 14s4 25.333 4 48
c0 18 -5.16699 35.167 -15.5 51.5s-23.666 31.666 -39.999 45.999s-34.833 27.166 -55.5 38.499s-41.167 21.166 -61.5 29.499s-39.5 14.666 -57.5 18.999s-32.667 6.5 -44 6.5c-16 0 -29.667 -2 -41 -6s-20.833 -8.83301 -28.5 -14.5s-13.334 -11.167 -17.001 -16.5
s-5.5 -9 -5.5 -11c0 -10 6.66699 -19.667 20 -29c-4.66699 -2 -11 -5 -19 -9s-15.667 -6 -23 -6c-46.667 0 -85.5 -12 -116.5 -36s-55.833 -55.5 -74.5 -94.5s-32 -83.333 -40 -133s-12 -100.167 -12 -151.5v-14z" />
    <glyph glyph-name="H" unicode="H" horiz-adv-x="846" 
d="M20 414c0 -10.667 1.33691 -22.998 4.00391 -36.998s4 -25 4 -33c0 -11.333 3.33301 -21.166 10 -29.499s15 -16.166 25 -23.499s20.667 -14.666 32 -21.999s21.666 -15.666 30.999 -24.999l8 -174c30.667 -40 64.334 -63.333 101.001 -70c14 14 21 35.333 21 64
c0 4 -0.166992 9 -0.5 15s-0.833008 12 -1.5 18s-1.16699 11.333 -1.5 16s-0.5 7.66699 -0.5 9c0.666992 40 8.33398 60 23.001 60c6 0 12.833 -1.66699 20.5 -5s15.5 -7.33301 23.5 -12l24 -13.5c8 -4.33301 15.667 -7.5 23 -9.5l17.5 -5c7 -2 14.167 -4.33301 21.5 -7
s14.666 -5.66699 21.999 -9s13.666 -7 18.999 -11c21.333 -9.33301 38.166 -16.166 50.499 -20.499s21.5 -7.16602 27.5 -8.49902c-18 10 -40.5 21.5 -67.5 34.5l-78.5 39.5c-25.333 13.333 -47 26.166 -65 38.499s-27 23.166 -27 32.499l2 6l75 -8l73 -7.5l64.5 -6.5
c19.667 -2 36.167 -3.33301 49.5 -4l19 -20c-0.666992 -3.33301 -1.16699 -6.5 -1.5 -9.5s-0.5 -5.83301 -0.5 -8.5c0 -6 0.833008 -15.5 2.5 -28.5s2.5 -23.5 2.5 -31.5c0 -20.667 -8 -35.334 -24 -44.001l66 -35c16 -8.66699 28.5 -15.167 37.5 -19.5s15.5 -7 19.5 -8
s7.66699 -1.5 11 -1.5c10 0 17.667 2.5 23 7.5s8 10.5 8 16.5l-11 79c-2.66699 19.333 -4 33 -4 41c0 14.667 0.666992 26.667 2 36s3.66602 17.333 6.99902 24c12.667 2.66699 23.667 4 33 4c34.667 0.666992 57.667 3.5 69 8.5s17 10.167 17 15.5
c0 8 -2.5 18.167 -7.5 30.5s-9.16699 22.166 -12.5 29.499c-4.66699 10 -11 16.833 -19 20.5s-17.667 5.5 -29 5.5c-14 0 -25 1.16699 -33 3.5s-14.333 5.5 -19 9.5s-7.66699 8.66699 -9 14s-2 11 -2 17c0 23.333 1.83301 44.166 5.5 62.499s5.5 33.166 5.5 44.499
c0 38 0.5 72.333 1.5 103s1.5 54 1.5 70c0 9.33301 -4.33301 17.166 -13 23.499s-20.667 12.166 -36 17.499c-10.667 3.33301 -21 7.66602 -31 12.999s-16.333 8 -19 8c-4 0 -7 -0.5 -9 -1.5s-3 -1.16699 -3 -0.5c0 -8.66699 -0.666992 -22.167 -2 -40.5s-3 -39 -5 -62
l-6 -72l-5.5 -68.5c-1.66699 -20.667 -3.16699 -38.167 -4.5 -52.5s-2 -22.166 -2 -23.499c0 -12 -1 -23.5 -3 -34.5s-7.33301 -17.167 -16 -18.5c-105.333 7.33301 -204 22.333 -296 45v251c-4 2.66699 -11.167 8.5 -21.5 17.5l-33 28.5c-11.667 10 -23 18.833 -34 26.5
s-19.5 11.5 -25.5 11.5c-7.33301 0 -12.833 -0.666992 -16.5 -2s-6.83398 -3.33301 -9.50098 -6c5.33301 -28.667 9.33301 -58.167 12 -88.5s4 -54.833 4 -73.5c0 -7.33301 -0.333008 -18.333 -1 -33s-2 -29.334 -4 -44.001s-5.33301 -27.5 -10 -38.5s-11 -16.5 -19 -16.5
c-10.667 0 -19.5 1.33301 -26.5 4s-13 5.5 -18 8.5l-13.5 8c-4 2.33301 -8.66699 3.5 -14 3.5c-3.33301 -5.33301 -5.5 -9.16602 -6.5 -11.499s-1.5 -4.5 -1.5 -6.5z" />
    <glyph glyph-name="I" unicode="I" horiz-adv-x="219" 
d="M60 712c-6.66699 0 -14.501 -1.83301 -23.501 -5.5s-13.5 -8.83398 -13.5 -15.501c12 -108 18 -243 18 -405c0.666992 -8.66699 1.5 -16.167 2.5 -22.5s1.5 -11.833 1.5 -16.5v-49c0 -56.667 -8.33301 -102.667 -25 -138c4.66699 -6 12 -12.667 22 -20
s21.167 -14.166 33.5 -20.499s24.833 -11.5 37.5 -15.5s24 -6 34 -6c16 0 25.333 5.33301 28 16l3.5 25c1 7.33301 1.5 13.666 1.5 18.999c0 10.667 -1 18.667 -3 24s-3 12.666 -3 21.999c0 7.33301 1.33301 16.833 4 28.5l8.5 35.5c3 12 5.83301 22.833 8.5 32.5
s4 16.5 4 20.5c0 -0.666992 -0.666992 -1 -2 -1c-5.33301 0 -9.83301 1 -13.5 3s-6.5 3.66699 -8.5 5c0 12 -0.333008 28.667 -1 50s-1.5 44.833 -2.5 70.5s-2 52.834 -3 81.501s-2.16699 56.167 -3.5 82.5s-2.66602 50.833 -3.99902 73.5s-2.66602 41 -3.99902 55
c-4 10.667 -8.33301 18.167 -13 22.5s-9.83398 7.83301 -15.501 10.5l-17.5 8c-6 2.66699 -12.333 7.33398 -19 14.001c-4.66699 1.33301 -10.667 4 -18 8s-12 6.66699 -14 8z" />
    <glyph glyph-name="J" unicode="J" horiz-adv-x="458" 
d="M316 685c-18.667 7.33301 -36.5029 12.332 -53.5029 14.999s-36.167 4 -57.5 4c-14.667 0 -32.5 -1.83301 -53.5 -5.5s-41.333 -9.16699 -61 -16.5s-36.334 -16.666 -50.001 -27.999s-20.5 -24.666 -20.5 -39.999c0 -24 7 -45.333 21 -64s32.333 -31 55 -37
c3.33301 1.33301 5.5 2.16602 6.5 2.49902s1.5 0.833008 1.5 1.5c-2 3.33301 -6.16699 8.83301 -12.5 16.5s-9.5 13.167 -9.5 16.5c0 10 6 18.5 18 25.5s26.667 12.667 44 17s35.666 7.5 54.999 9.5s36.333 3 51 3c21.333 0 36.333 -3.33301 45 -10l5.5 -41
c1.66699 -12 2.83398 -23.833 3.50098 -35.5s1.16699 -23.667 1.5 -36s0.5 -25.833 0.5 -40.5c0 -18.667 -1.16699 -42.334 -3.5 -71.001s-5.5 -59.334 -9.5 -92.001s-8.83301 -65.667 -14.5 -99s-12.167 -63.833 -19.5 -91.5s-15.166 -51 -23.499 -70
s-16.833 -30.5 -25.5 -34.5c-5.33301 0 -11.166 4.66699 -17.499 14s-12.333 21.5 -18 36.5s-10.5 31.833 -14.5 50.5s-6 37 -6 55v10c-1.33301 4 -2 6.66699 -2 8c0 11.333 1 21.5 3 30.5s3 14.167 3 15.5c0 4.66699 -0.5 8.83398 -1.5 12.501s-1.83301 5.5 -2.5 5.5
c-20 0 -36.333 -4.5 -49 -13.5s-22.5 -20.167 -29.5 -33.5s-11.667 -28 -14 -44s-3.5 -31 -3.5 -45c0 -16 2 -32.167 6 -48.5s10 -31.166 18 -44.499s17.833 -24.333 29.5 -33s25.167 -13 40.5 -13c8 0 16 2.5 24 7.5s14.667 7.5 20 7.5c2.66699 0 4.83398 -1 6.50098 -3
s3 -4.33301 4 -7s2.16699 -5 3.5 -7s3 -3 5 -3c13.333 0 23.666 3.16699 30.999 9.5l22 18.5c18 14.667 34.667 33.167 50 55.5s29.333 46.5 42 72.5s23.834 53.5 33.501 82.5s17.834 57.5 24.501 85.5s11.667 55 15 81s5 49 5 69c0 20.667 -2 45.834 -6 75.501
s-10.167 58.5 -18.5 86.5s-19 52.667 -32 74s-28.167 34.666 -45.5 39.999l-20 -6v-1z" />
    <glyph glyph-name="K" unicode="K" horiz-adv-x="588" 
d="M456 712c-6.66699 -4.66699 -10.002 -11.0068 -10.002 -19.0068c-38 -49.333 -78.333 -93.5 -121 -132.5s-89 -74.5 -139 -106.5l-16 -2c-1.33301 23.333 -4 48.833 -8 76.5s-10.333 53.5 -19 77.5s-20.167 44.167 -34.5 60.5s-31.833 24.5 -52.5 24.5
c-9.33301 0 -16.333 -3.33301 -21 -10c2.66699 -25.333 5.33398 -52.833 8.00098 -82.5l8 -88c2.66699 -29 4.83398 -56.167 6.50098 -81.5s2.5 -45.666 2.5 -60.999c0 -2 -1.66699 -5.16699 -5 -9.5l-10.5 -14l-10.5 -14c-3.33301 -4.33301 -5 -7.83301 -5 -10.5
c0 -8 1.33301 -14.333 4 -19s5.66699 -8.33398 9 -11.001s6.5 -5 9.5 -7s4.5 -4.33301 4.5 -7v-19l2 -21c0 -0.666992 0.333008 -1.16699 1 -1.5s1 -1.16602 1 -2.49902c0 -4.66699 0.333008 -8.5 1 -11.5s1 -5.83301 1 -8.5c0 -16 -2.16699 -29.667 -6.5 -41
s-9.16602 -21.166 -14.499 -29.499s-10.166 -15.5 -14.499 -21.5s-6.5 -12 -6.5 -18c0 -9.33301 4.83301 -21.333 14.5 -36s23.834 -27.334 42.501 -38.001c9.33301 -7.33301 17.333 -13.166 24 -17.499s12.667 -6.5 18 -6.5c7.33301 0 14 5.5 20 16.5
s11.167 23.5 15.5 37.5s7.66602 27.167 9.99902 39.5s3.5 19.833 3.5 22.5c0 12 1.33301 24.333 4 37s6.66699 19 12 19c32.667 -34.667 62.5 -63.334 89.5 -86.001s53.167 -40.667 78.5 -54s50.666 -22.666 75.999 -27.999s52.666 -8 81.999 -8
c11.333 0 20.666 1.66699 27.999 5s13.333 7.83301 18 13.5s7.83398 11.834 9.50098 18.501s2.5 13 2.5 19c0 8 -8.16699 18.833 -24.5 32.5s-34.5 27.334 -54.5 41.001s-38.167 25.334 -54.5 35.001l-24.5 14.5c0 -3.33301 2.33301 -10 7 -20s7 -18.667 7 -26
c0 -3.33301 -1 -6.16602 -3 -8.49902s-4.66699 -3.5 -8 -3.5c-13.333 0 -29.666 5.83301 -48.999 17.5s-39.833 25.667 -61.5 42s-42.834 33.333 -63.501 51s-39 32.5 -55 44.5v17l114 85c40.667 30.667 78.334 60.834 113.001 90.501s63.5 57 86.5 82
s34.5 44.833 34.5 59.5c0 9.33301 -2.66699 19.5 -8 30.5s-12 21.333 -20 31s-16.333 18.167 -25 25.5s-16.334 12.333 -23.001 15z" />
    <glyph glyph-name="L" unicode="L" horiz-adv-x="578" 
d="M86 425c0 -19.333 1.66406 -38.998 4.99707 -58.998s7 -40 11 -60s7.66699 -39.833 11 -59.5s5 -39.5 5 -59.5c0 -7.33301 -1.83301 -13 -5.5 -17s-10.5 -6 -20.5 -6c-11.333 0 -19 0.5 -23 1.5s-7 1.5 -9 1.5c-14 0 -23.833 -2 -29.5 -6s-9.16699 -10.333 -10.5 -19
c6.66699 -8 15.334 -19.333 26.001 -34s23 -29.167 37 -43.5s29.333 -26.666 46 -36.999s34.334 -15.5 53.001 -15.5c6 0 12 2.5 18 7.5s12.667 11.167 20 18.5c2 4 7.5 7.33301 16.5 10s19 4.66699 30 6s21.5 2.33301 31.5 3s16.667 1 20 1c8 0 14 0.333008 18 1
s7.33301 1 10 1c23.333 0 42.666 -3.16699 57.999 -9.5s28.666 -13.166 39.999 -20.499s21.333 -14.166 30 -20.499s18.334 -9.5 29.001 -9.5c13.333 0 22 2.33301 26 7s6 10.334 6 17.001s-0.833008 13.5 -2.5 20.5s-2.5 12.833 -2.5 17.5c0 14 1.5 25.5 4.5 34.5
s6.16699 16.833 9.5 23.5l9.5 18.5c3 5.66699 4.5 12.167 4.5 19.5c0 16 -7.33301 27.333 -22 34c1.33301 11.333 2.5 25.166 3.5 41.499l3 48c1 15.667 1.83301 29.667 2.5 42s1.66699 20.5 3 24.5l-18 -1c-2 -42 -5.66699 -75.833 -11 -101.5s-12 -45.5 -20 -59.5
s-17.333 -23.5 -28 -28.5s-22.334 -7.5 -35.001 -7.5c-19.333 0 -38.166 0.833008 -56.499 2.5s-34.666 3.66699 -48.999 6s-26.166 4.33301 -35.499 6s-15 2.5 -17 2.5c-23.333 0 -39.5 5.16699 -48.5 15.5s-13.5 26.166 -13.5 47.499
c0 5.33301 0.166992 8.66602 0.5 9.99902s0.5 2.66602 0.5 3.99902v26c0 4 -1 6.83301 -3 8.5s-3 4.16699 -3 7.5c0 5.33301 0.833008 12.833 2.5 22.5s2.5 15.5 2.5 17.5c0 5.33301 -0.166992 13.833 -0.5 25.5l-1 35.5c-0.333008 12 -0.666016 22.5 -0.999023 31.5
l-0.5 13.5c0 42 1.33301 74.667 4 98s6.16699 40.666 10.5 51.999s9.5 18.166 15.5 20.499s12.333 3.5 19 3.5c16 0 32.5 -3.66699 49.5 -11s33 -15.333 48 -24l40.5 -24c12 -7.33301 20.667 -11 26 -11c2 0 3.83301 2.5 5.5 7.5s3 10.667 4 17s1.66699 12.166 2 17.499
s0.5 8.66602 0.5 9.99902c0 24.667 -4.83301 45 -14.5 61s-22.5 28.667 -38.5 38s-34.333 15.833 -55 19.5s-42 5.5 -64 5.5c-23.333 0 -44.166 -3.16699 -62.499 -9.5s-33.666 -13.666 -45.999 -21.999s-21.833 -16.5 -28.5 -24.5s-10 -13.333 -10 -16
c0.666992 -10.667 5.66699 -16 15 -16c11.333 0 18.666 -0.5 21.999 -1.5s5.66602 -2.5 6.99902 -4.5c-14.667 -12 -26.834 -25.667 -36.501 -41s-17.5 -31.666 -23.5 -48.999s-10.333 -34.833 -13 -52.5s-4 -34.5 -4 -50.5z" />
    <glyph glyph-name="M" unicode="M" horiz-adv-x="772" 
d="M101 477c0 -8.66699 -1.99902 -22.4961 -5.99902 -41.4961s-9 -41.167 -15 -66.5l-19.5 -81c-7 -28.667 -13.5 -57 -19.5 -85s-11 -54.667 -15 -80s-6 -46.666 -6 -63.999c0 -9.33301 2.16699 -18.833 6.5 -28.5s8.16602 -14.5 11.499 -14.5
c17.333 0 32.833 6.33301 46.5 19s25.667 28.834 36 48.501s19 41.5 26 65.5s12.667 47.5 17 70.5s7.5 44 9.5 63s3 33.5 3 43.5c0 18.667 1 30.334 3 35.001s5 7 9 7c11.333 -18.667 24.833 -37.334 40.5 -56.001l44.5 -53.5c14 -17 26 -33 36 -48s15 -28.167 15 -39.5
c0 -7.33301 -1.5 -14.833 -4.5 -22.5s-4.5 -16.834 -4.5 -27.501c0 -6.66699 2.33301 -13.834 7 -21.501s10.5 -15 17.5 -22s14.333 -12.833 22 -17.5s14.5 -7 20.5 -7c7.33301 0 13.166 2.83301 17.499 8.5s8.83301 8.5 13.5 8.5c3.33301 0 7.5 -1.16699 12.5 -3.5l15.5 -7
c5.33301 -2.33301 10.333 -4.66602 15 -6.99902s8 -3.5 10 -3.5c7.33301 0 14.833 5.66699 22.5 17s11.5 24.666 11.5 39.999c5.33301 19.333 10.666 35.166 15.999 47.499s8 25.833 8 40.5c0 6.66699 -0.333008 12.834 -1 18.501s-1.66699 8.5 -3 8.5s-2 -0.333008 -2 -1
h-2c-2.66699 -10.667 -6.16699 -20.5 -10.5 -29.5s-8.5 -16.833 -12.5 -23.5s-7.83301 -11.834 -11.5 -15.501s-6.16699 -5.5 -7.5 -5.5c-4.66699 0 -8.16699 2.83301 -10.5 8.5s-3.5 9.5 -3.5 11.5c10.667 32.667 21.5 61.5 32.5 86.5s21.833 47.833 32.5 68.5l30 58.5
c9.33301 18.333 17.5 37.166 24.5 56.499s12.5 40.166 16.5 62.499s6 48.166 6 77.499c0 15.333 -2.5 27.833 -7.5 37.5s-13.5 14.5 -25.5 14.5c-5.33301 0 -11.666 -5.83301 -18.999 -17.5s-15.666 -27.167 -24.999 -46.5l-31 -65.5l-36 -74
c-12.667 -25 -26 -49.333 -40 -73s-28.667 -44.167 -44 -61.5c-15.333 10 -32.833 27.5 -52.5 52.5s-39.834 53 -60.501 84s-41 63.333 -61 97l-54 92.5l-40 69c-10.667 18 -16.667 27 -18 27c-7.33301 0 -15 -2.66699 -23 -8s-15.167 -11.333 -21.5 -18
s-11.666 -13.167 -15.999 -19.5s-6.5 -10.5 -6.5 -12.5c0 -13.333 4.16699 -28.833 12.5 -46.5s17.5 -35.167 27.5 -52.5l27.5 -47.5c8.33301 -14.333 12.5 -24.5 12.5 -30.5zM613.001 276.004c0 -10.667 0.163086 -25.332 0.496094 -43.999s0.833008 -38.5 1.5 -59.5
s1.5 -41.667 2.5 -62s2.16699 -37.166 3.5 -50.499c13.333 -8.66699 26.333 -16.667 39 -24s24.334 -13.5 35.001 -18.5s19.5 -8.83301 26.5 -11.5s11.5 -4 13.5 -4c4.66699 0 8.66699 1.66699 12 5s5 9.66602 5 18.999c0 34 -0.666992 71.333 -2 112
s-3.16602 82 -5.49902 124s-4.83301 83.167 -7.5 123.5l-7.5 111.5l-6 88l-3.5 52c-7.33301 8 -15.666 15.667 -24.999 23s-19 13.833 -29 19.5s-19.667 10.167 -29 13.5s-17.666 5 -24.999 5v-158v-109c0 -29.333 0.166992 -52.833 0.5 -70.5s0.5 -31.834 0.5 -42.501v-24
v-18z" />
    <glyph glyph-name="N" unicode="N" horiz-adv-x="699" 
d="M20 641c0 -7.33301 4.16016 -18.832 12.4932 -34.499l27 -51c9.66699 -18.333 18.667 -36.666 27 -54.999s12.5 -34.5 12.5 -48.5c0 -4 0.333008 -9.83301 1 -17.5s1.16699 -15.5 1.5 -23.5s0.833008 -15.667 1.5 -23s1 -13 1 -17
c0 -3.33301 -0.333008 -13.166 -1 -29.499s-1.33398 -35.833 -2.00098 -58.5s-1.5 -46.834 -2.5 -72.501s-1.83301 -49.834 -2.5 -72.501s-1.33398 -41.834 -2.00098 -57.501s-1 -24.834 -1 -27.501c11.333 -17.333 27.166 -30.5 47.499 -39.5s40.166 -13.5 59.499 -13.5
c8.66699 0 15.334 1.16699 20.001 3.5s7 7.83301 7 16.5c0 24.667 -1.5 45 -4.5 61s-7.83301 30.667 -14.5 44v109c0 9.33301 0.166992 18.333 0.5 27s0.833008 17 1.5 25l58 -53.5l67 -62.5l71.5 -62.5c24.333 -20.333 48.166 -38.5 71.499 -54.5s45.333 -29 66 -39
s39 -15 55 -15c17.333 0 31.333 4.33301 42 13s18.834 20.167 24.501 34.5s9.33398 30.666 11.001 48.999s2.5 37.166 2.5 56.499c0 18 -0.5 33.833 -1.5 47.5s-2.16699 25.834 -3.5 36.501l-6 2c-4 -8 -6 -19 -6 -33c0 -6 0.166992 -13 0.5 -21s0.5 -12.667 0.5 -14
s-0.333008 -3.66602 -1 -6.99902s-1.5 -6.66602 -2.5 -9.99902s-2.16699 -6.33301 -3.5 -9s-3 -4 -5 -4h-10c-1.33301 0 -2 0.666992 -2 2c0 11.333 -0.333008 20.166 -1 26.499s-1 11.5 -1 15.5c0 13.333 0.5 29.333 1.5 48s2.16699 37 3.5 55s2.5 34.5 3.5 49.5
s1.5 25.5 1.5 31.5c2 27.333 3.5 51.666 4.5 72.999s1.5 42.666 1.5 63.999c0 53.333 -4.66699 101.333 -14 144c-30 38 -65.667 57 -107 57c-4 0 -7.83301 -0.333008 -11.5 -1s-6.16699 -1 -7.5 -1c0 -4 0.333008 -14.5 1 -31.5s1.33398 -35 2.00098 -54
s1.33398 -36.167 2.00098 -51.5s1 -22.666 1 -21.999c4.66699 -62.667 8.33398 -120.834 11.001 -174.501s4 -103.5 4 -149.5v-39c0 -2.66699 -0.666992 -5.33398 -2 -8.00098s-3.66602 -4 -6.99902 -4c-18.667 5.33301 -38 15.5 -58 30.5s-40 32.833 -60 53.5
s-39.667 42.834 -59 66.501l-55 69.5l-47.5 62c-14.333 18.667 -26.833 33.334 -37.5 44.001c-3.33301 14.667 -5 35.334 -5 62.001c0 8.66699 -0.333008 19.334 -1 32.001s-2.66699 24.667 -6 36s-8.16602 21.166 -14.499 29.499s-15.166 12.5 -26.499 12.5
s-21.666 -3.5 -30.999 -10.5s-17.666 -10.5 -24.999 -10.5c-4 1.33301 -7.83301 5.5 -11.5 12.5l-11.5 22c-4 7.66699 -7.83301 14.667 -11.5 21s-7.5 9.5 -11.5 9.5c-6.66699 0 -12.167 -2.66699 -16.5 -8s-7.66602 -11.666 -9.99902 -18.999s-4 -15 -5 -23
s-1.5 -15 -1.5 -21z" />
    <glyph glyph-name="O" unicode="O" horiz-adv-x="670" 
d="M20 332c0 -49.333 8.50293 -94.334 25.5029 -135.001s39.333 -75.667 67 -105s59.167 -52 94.5 -68s71 -24 107 -24c40 0 72.167 5.83301 96.5 17.5s43.5 24.834 57.5 39.501s23.667 28.5 29 41.5s8.66602 20.5 9.99902 22.5c30.667 0 55.5 6.66699 74.5 20
s33.5 30.5 43.5 51.5s16.667 44.5 20 70.5s5 51.667 5 77c0 42 -6.5 85 -19.5 129s-31.5 84 -55.5 120s-53.333 65.5 -88 88.5s-73.667 34.5 -117 34.5c-10.667 0 -20.167 -1.66699 -28.5 -5s-16.5 -7 -24.5 -11s-16.667 -8 -26 -12s-20.333 -6.66699 -33 -8
c-2 -1.33301 -5.5 -2.5 -10.5 -3.5s-10.333 -2.16699 -16 -3.5s-11.167 -2.5 -16.5 -3.5s-9.33301 -2.16699 -12 -3.5c-28.667 -15.333 -54.334 -35.166 -77.001 -59.499s-41.834 -51.5 -57.501 -81.5s-27.667 -61.333 -36 -94s-12.5 -64.334 -12.5 -95.001z
M149.003 247.999c2 183.333 65.335 304.001 190.002 362.001c24 0 45.333 -6.5 64 -19.5s34.834 -29.667 48.501 -50s25 -42.833 34 -67.5s16.167 -48.5 21.5 -71.5s9.16602 -43.833 11.499 -62.5s3.5 -32.334 3.5 -41.001c0 -2.66699 -0.166992 -10.834 -0.5 -24.501
s-1.16602 -28.334 -2.49902 -44.001s-3.33301 -29.667 -6 -42s-6 -18.5 -10 -18.5c-2 0 -4.16699 2 -6.5 6s-4.66602 8.5 -6.99902 13.5s-4.33301 10.167 -6 15.5s-2.83398 9.33301 -3.50098 12v3c-2 2 -3.5 4.83301 -4.5 8.5s-1.83301 7.5 -2.5 11.5
s-1.33398 7.66699 -2.00098 11s-1 5.33301 -1 6c-0.666992 1.33301 -2.16699 3.33301 -4.5 6l-7 8c-2.33301 2.66699 -4.5 5 -6.5 7s-3 3.33301 -3 4c-1.33301 -5.33301 -2 -7.66602 -2 -6.99902c0 -13.333 2.33301 -27.666 7 -42.999s7 -27 7 -35c0 -11.333 -5 -21 -15 -29
s-21.833 -14.5 -35.5 -19.5s-27.834 -8.5 -42.501 -10.5s-26.334 -3 -35.001 -3c-28 0 -52.833 4.83301 -74.5 14.5s-40.167 21 -55.5 34s-27.5 25.667 -36.5 38s-14.833 21.5 -17.5 27.5z" />
    <glyph glyph-name="P" unicode="P" horiz-adv-x="616" 
d="M58 276c0 -28.667 6.00098 -50.166 18.001 -64.499s23.333 -21.5 34 -21.5c9.33301 -3.33301 17.333 -7.16602 24 -11.499s10 -12.5 10 -24.5v-53c0 -13.333 0.333008 -24.166 1 -32.499s1.33398 -14.833 2.00098 -19.5s1.66699 -9.66699 3 -15
c30.667 -22.667 63.667 -34 99 -34c9.33301 0 17.5 0.666992 24.5 2s10.5 5.33301 10.5 12c0 12.667 -1.66699 25.834 -5 39.501s-7.16602 26.5 -11.499 38.5l-11.5 32c-3.33301 9.33301 -5 16.666 -5 21.999c0 9.33301 1.83301 16.166 5.5 20.499
s11.834 7.16602 24.501 8.49902c43.333 4.66699 84.166 13.5 122.499 26.5s71.666 30.667 99.999 53s50.833 49.333 67.5 81s25 68.5 25 110.5c0 46 -11.5 85.667 -34.5 119s-52.167 60.833 -87.5 82.5s-73.833 37.834 -115.5 48.501s-81.5 16 -119.5 16
c-37.333 0 -69.666 -3.66699 -96.999 -11s-50 -16.166 -68 -26.499s-31.5 -21 -40.5 -32s-13.5 -20.5 -13.5 -28.5c0 -20 2.16699 -39.167 6.5 -57.5s10 -35.5 17 -51.5s14.667 -30.833 23 -44.5s16.833 -26.167 25.5 -37.5l6 -1c-1.33301 13.333 -3.33301 24 -6 32
c-5.33301 20 -11.166 39.5 -17.499 58.5s-9.5 35.833 -9.5 50.5c0 14 2.5 25.167 7.5 33.5s11.167 14.666 18.5 18.999s15.333 7.16602 24 8.49902s17 2 25 2c6 0 13.5 -1 22.5 -3s14.833 -4.33301 17.5 -7c-25.333 -29.333 -38 -70.666 -38 -123.999
c0 -14.667 0.166992 -26.334 0.5 -35.001s0.5 -15.667 0.5 -21c0 -4.66699 0.166992 -8 0.5 -10s0.5 -4 0.5 -6c0 -12.667 -0.333008 -22.834 -1 -30.501s-1.33398 -14 -2.00098 -19s-1.33398 -9 -2.00098 -12s-1 -5.5 -1 -7.5c0 -6.66699 1.33301 -13 4 -19
s4 -10.667 4 -14c0 -6 -1.66699 -9.83301 -5 -11.5s-6.33301 -2.5 -9 -2.5s-6.16699 2.33301 -10.5 7l-14 15c-5 5.33301 -10 10.333 -15 15s-9.5 7 -13.5 7c-4.66699 0 -8.33398 -2.5 -11.001 -7.5s-4.83398 -11.333 -6.50098 -19s-2.66699 -15.667 -3 -24
s-0.5 -15.5 -0.5 -21.5zM494.001 398.001c-31.333 -33.333 -64 -57.335 -98 -72.002s-75.333 -22 -124 -22l-21 10c3.33301 20 5.33301 51.333 6 94c0 4.66699 0.5 16.5 1.5 35.5s2.33301 39.667 4 62s3 43.333 4 63s1.5 32.834 1.5 39.501c26 -2 52.333 -9 79 -21
s51 -27.5 73 -46.5s39.833 -40.667 53.5 -65s20.5 -50.166 20.5 -77.499z" />
    <glyph glyph-name="Q" unicode="Q" horiz-adv-x="658" 
d="M23 238c0 -69.333 30.6738 -116.998 92.0068 -142.998c14 -1.33301 21 -7.33301 21 -18c-0.666992 -8 -1.16699 -14.167 -1.5 -18.5s-0.5 -7.83301 -0.5 -10.5c0 -9.33301 4 -15.333 12 -18c2.66699 10.667 7 19.667 13 27s15.333 11 28 11
c22.667 0 47.667 -3.5 75 -10.5s55 -14.833 83 -23.5s55 -16.5 81 -23.5s48.667 -10.5 68 -10.5c36 0 66.667 11 92 33s42.666 51 51.999 87l-6 1c-9.33301 -15.333 -25.666 -23 -48.999 -23c-22.667 0 -41 1 -55 3s-25 4.5 -33 7.5s-13.5 5.66699 -16.5 8
s-4.5 4.16602 -4.5 5.49902c0 4 3.16699 8.5 9.5 13.5s11.166 9.16699 14.499 12.5c40 32 69.333 68.833 88 110.5s28 87.5 28 137.5c0 28 -4.33301 55.333 -13 82s-19.834 51.667 -33.501 75s-28.834 44.833 -45.501 64.5s-32.834 36.5 -48.501 50.5
s-29.834 24.833 -42.501 32.5s-21.667 11.5 -27 11.5c-11.333 0 -25.333 -2.33301 -42 -7s-34.167 -10.167 -52.5 -16.5l-54 -19c-17.667 -6.33301 -32.834 -11.5 -45.501 -15.5v-10c17.333 4.66699 36 8.5 56 11.5s36 4.5 48 4.5c35.333 0 63.166 -8.33301 83.499 -25
s35.666 -37.334 45.999 -62.001s16.833 -51.334 19.5 -80.001s4 -55 4 -79c0 -48 -5.5 -91.333 -16.5 -130s-27.833 -74.334 -50.5 -107.001c-6.66699 -3.33301 -16.5 -6.16602 -29.5 -8.49902s-29.5 -3.5 -49.5 -3.5c-18 0 -37.167 2.33301 -57.5 7
s-39.166 10.667 -56.499 18c-4.66699 0 -9.83398 -1.33301 -15.501 -4s-11.5 -5.83398 -17.5 -9.50098s-11.667 -6.83398 -17 -9.50098s-9.66602 -4 -12.999 -4c-6 0 -11 3.33301 -15 10s-7.16699 14.5 -9.5 23.5s-4.16602 18.333 -5.49902 28s-2 17.834 -2 24.501
c3.33301 34.667 11 69.334 23 104.001s28 67 48 97s43.5 56.833 70.5 80.5s57.167 42.167 90.5 55.5c-12.667 6.66699 -23.334 12 -32.001 16s-16 7 -22 9s-11.167 3.33301 -15.5 4s-8.5 1 -12.5 1c-32 0 -60 -5.66699 -84 -17s-44.833 -26.666 -62.5 -45.999
s-32.5 -41.833 -44.5 -67.5s-21.5 -52.5 -28.5 -80.5s-12 -56.333 -15 -85s-4.5 -56 -4.5 -82z" />
    <glyph glyph-name="R" unicode="R" horiz-adv-x="656" 
d="M20 614c0 -21.333 5.66504 -42.335 16.998 -63.002s23.666 -39.334 36.999 -56.001v5c0 3.33301 -1 9 -3 17s-3 14.333 -3 19c0 12 5.83301 22 17.5 30s26 14.5 43 19.5s35.5 8.66699 55.5 11s38 3.5 54 3.5c20.667 0 44.334 -1.83301 71.001 -5.5
s52 -8.83398 76 -15.501s44.167 -14.667 60.5 -24s24.5 -19.666 24.5 -30.999c0 -16.667 -5.83301 -35.5 -17.5 -56.5s-26.667 -40.833 -45 -59.5s-39.333 -34.334 -63 -47.001s-47.5 -19 -71.5 -19c-14 0 -21 6.66699 -21 20c0 14.667 0.833008 29.834 2.5 45.501
s3.5 31.334 5.5 47.001l5.5 44.5c1.66699 14 2.5 26.333 2.5 37c0 13.333 -2.5 23.166 -7.5 29.499s-9.83301 9.5 -14.5 9.5c-6.66699 0 -14 -1.16699 -22 -3.5s-14.333 -3.5 -19 -3.5c-13.333 0 -24.166 -2.66699 -32.499 -8s-15.166 -12.5 -20.499 -21.5
s-9 -19.333 -11 -31s-3 -23.834 -3 -36.501c0 -19.333 -0.666992 -34.833 -2 -46.5s-4.66602 -17.5 -9.99902 -17.5c-1.33301 0 -3.66602 0.833008 -6.99902 2.5s-6 2.5 -8 2.5c-12 0 -21.667 -4.83301 -29 -14.5s-11 -20.834 -11 -33.501
c0 -6.66699 2.83301 -12.834 8.5 -18.501s12.167 -10.834 19.5 -15.501l21 -13.5c6.66699 -4.33301 11.334 -8.5 14.001 -12.5c0 -3.33301 -0.333008 -11 -1 -23s-1.33398 -26.167 -2.00098 -42.5s-1.5 -33.666 -2.5 -51.999s-1.83301 -35.666 -2.5 -51.999
s-1.33398 -30.666 -2.00098 -42.999s-1 -20.5 -1 -24.5c0 -9.33301 0.833008 -17.166 2.5 -23.499s5.16699 -9.5 10.5 -9.5c6.66699 0 13 1.16699 19 3.5s14.333 4.5 25 6.5c15.333 8.66699 28.5 22.5 39.5 41.5s16.5 39.167 16.5 60.5c-1.33301 9.33301 -3 17 -5 23
s-3 11 -3 15c0 6.66699 1.66699 12.667 5 18s7.33301 10.333 12 15l99.5 -73.5l97.5 -70.5c30.667 -21.333 57.667 -38.833 81 -52.5s39.666 -20.5 48.999 -20.5c12.667 0 23 8.16699 31 24.5s14.333 34.5 19 54.5s8 38.167 10 54.5s3.33301 24.5 4 24.5l-4 2
c-5.33301 -5.33301 -10.666 -12.333 -15.999 -21s-10.666 -13 -15.999 -13c-3.33301 0 -12.5 4.33301 -27.5 13l-53.5 32.5l-66.5 43l-67 44.5l-54 36c-15 10 -24.167 15.667 -27.5 17v12c24.667 0 53.167 2.16699 85.5 6.5s63 12 92 23s53.667 26.167 74 45.5
s30.5 44 30.5 74c0 38.667 -8.16699 71.334 -24.5 98.001s-37 48.834 -62 66.501s-52.333 31.5 -82 41.5s-58.167 17.5 -85.5 22.5s-51.5 8 -72.5 9s-34.833 1.5 -41.5 1.5c-24 0 -47.833 -1.83301 -71.5 -5.5s-44.834 -9.5 -63.501 -17.5s-33.834 -18.167 -45.501 -30.5
s-17.5 -27.166 -17.5 -44.499z" />
    <glyph glyph-name="S" unicode="S" horiz-adv-x="612" 
d="M92 444c2 -9.33301 6.83301 -18.3369 14.5 -27.0039s16.667 -17 27 -25s21.666 -15.5 33.999 -22.5s24.166 -13.167 35.499 -18.5c21.333 -6.66699 45.166 -12.5 71.499 -17.5s52.5 -9.66699 78.5 -14l73.5 -12c23 -3.66699 42.167 -7.5 57.5 -11.5
c9.33301 -0.666992 18 -2.66699 26 -6s12 -11.666 12 -24.999c-21.333 -22 -45.666 -41.5 -72.999 -58.5s-56 -31.5 -86 -43.5s-60.667 -21.167 -92 -27.5s-62.333 -9.5 -93 -9.5c-26 0 -44.167 1.5 -54.5 4.5s-15.5 8.16699 -15.5 15.5c0 30 8 53.833 24 71.5
s38.667 33.834 68 48.501l-6 6c-42 0 -74.667 -2.66699 -98 -8s-40.666 -12.666 -51.999 -21.999s-18.166 -20.5 -20.499 -33.5s-3.5 -27.167 -3.5 -42.5c0 -32 5.83301 -58.667 17.5 -80s27 -38.333 46 -51s40.667 -21.667 65 -27s48.833 -8 73.5 -8
c23.333 0 48.666 1.83301 75.999 5.5s54.833 9.33398 82.5 17.001s54.167 17.5 79.5 29.5s47.833 26.5 67.5 43.5s35.334 36.667 47.001 59s17.5 47.5 17.5 75.5c-3.33301 8 -6.16602 14 -8.49902 18s-3.5 9.33301 -3.5 16c0 8.66699 0.5 14.667 1.5 18
s1.5 5.66602 1.5 6.99902c-5.33301 34 -19 60.667 -41 80s-52.333 33.666 -91 42.999c-28.667 6.66699 -60.834 12.834 -96.501 18.501l-104.5 17c-34 5.66699 -65.167 11.834 -93.5 18.501s-49.833 14 -64.5 22v-44zM579 627.996c0 16 -4.83398 29.334 -14.501 40.001
s-21.334 19.167 -35.001 25.5s-28 11 -43 14s-28.5 4.5 -40.5 4.5c-78 0 -142.333 -7.5 -193 -22.5s-93 -36.833 -127 -65.5c-5.33301 -4 -9.66602 -10 -12.999 -18s-6.16602 -16.833 -8.49902 -26.5s-4 -19.334 -5 -29.001s-1.5 -18.5 -1.5 -26.5
c10.667 -10 22.667 -17 36 -21c18 18 37 33.167 57 45.5s41.833 22 65.5 29s50 12 79 15s62.167 4.5 99.5 4.5c11.333 0 21.333 -2.16699 30 -6.5s16.167 -9.5 22.5 -15.5s11.166 -12 14.499 -18s5 -10.333 5 -13c-1.33301 -9.33301 -2.5 -17.833 -3.5 -25.5
s-1.5 -12.834 -1.5 -15.501h11c20.667 18.667 36.834 37.834 48.501 57.501s17.5 42.167 17.5 67.5z" />
    <glyph glyph-name="T" unicode="T" horiz-adv-x="573" 
d="M20 634c0 -15.333 2.49512 -27.665 7.49512 -36.998s11.833 -16.666 20.5 -21.999s18.667 -8.83301 30 -10.5s23.666 -2.5 36.999 -2.5c8.66699 0 19.667 0.333008 33 1l40.5 2c13.667 0.666992 26 1.33398 37 2.00098s18.5 1 22.5 1s6.66699 -2 8 -6s2 -6.66699 2 -8
c-6.66699 -44.667 -11 -86 -13 -124s-3.66699 -74.667 -5 -110l-29 69c-7.33301 16.667 -13 33.667 -17 51c-4.66699 5.33301 -7.66699 11.333 -9 18l-4 19.5c-1.33301 6.33301 -3.5 12.333 -6.5 18s-8.16699 10.167 -15.5 13.5l-2 -9c18.667 -53.333 33.667 -108 45 -164
s22 -118.333 32 -187c0 -6.66699 -1.5 -14 -4.5 -22s-6.5 -15.667 -10.5 -23l-10.5 -20c-3 -6 -4.5 -10 -4.5 -12c0 -12 4.83301 -22.5 14.5 -31.5s21.334 -16.5 35.001 -22.5s27.667 -10.5 42 -13.5s26.166 -4.5 35.499 -4.5c4.66699 0 9.83398 0.166992 15.501 0.5
s11 1.33301 16 3s9.16699 4.16699 12.5 7.5s5 8.33301 5 15c0 2 -1.33301 5.66699 -4 11l-9 18c-3.33301 6.66699 -6.33301 13.167 -9 19.5s-4 11.166 -4 14.499c0 5.33301 -0.166992 19.166 -0.5 41.499s-0.666016 49 -0.999023 80s-0.666016 64.333 -0.999023 100
s-0.666016 69.5 -0.999023 101.5s-0.666016 60 -0.999023 84s-0.5 40 -0.5 48c0 13.333 6.33301 20 19 20c14 0 29.833 0.833008 47.5 2.5s34.834 4.5 51.501 8.5s31.5 9.16699 44.5 15.5s22.167 14.166 27.5 23.499c4 7.33301 7.33301 18.166 10 32.499s4 24.833 4 31.5
c-0.666992 4 -1.16699 8.5 -1.5 13.5s-1.16602 8.5 -2.49902 10.5c-13.333 -2 -32.5 -3.83301 -57.5 -5.5s-52.667 -3.16699 -83 -4.5s-62 -2.33301 -95 -3s-64.167 -1.33398 -93.5 -2.00098s-55.333 -1.16699 -78 -1.5s-39.334 -0.5 -50.001 -0.5
c-6.66699 0 -12 1.33301 -16 4s-7.66699 5.83398 -11 9.50098s-6.5 6.83398 -9.5 9.50098s-6.5 4 -10.5 4c-5.33301 0 -9.66602 -3.5 -12.999 -10.5s-5.83301 -15 -7.5 -24s-2.83398 -17.833 -3.50098 -26.5s-1 -14.334 -1 -17.001z" />
    <glyph glyph-name="U" unicode="U" horiz-adv-x="585" 
d="M88 698c-7.33301 0 -16.5039 1.99707 -27.5039 5.99707s-18.167 6 -21.5 6c-4.66699 0 -9 -0.5 -13 -1.5s-6 -3.83301 -6 -8.5c0 -5.33301 1 -8.83301 3 -10.5s4 -4.16699 6 -7.5c2.66699 -30 4.33398 -59.333 5.00098 -88s1 -58 1 -88
c0 -42.667 -0.833008 -80.5 -2.5 -113.5s-2.5 -63.5 -2.5 -91.5c0 -34.667 2.66699 -67.834 8 -99.501s15 -59.667 29 -84s33 -43.833 57 -58.5s54.333 -22 91 -22c21.333 0 43 0.666992 65 2s42.5 4.33301 61.5 9s35.333 11.667 49 21s23.167 22.333 28.5 39
c8.66699 -2 13.667 -5.83301 15 -11.5s2 -12.167 2 -19.5c0 -10 2.83301 -19.333 8.5 -28s12.5 -16.5 20.5 -23.5s16.167 -12.5 24.5 -16.5s15.5 -6 21.5 -6c7.33301 0 11 3 11 9c0 29.333 -0.5 61.333 -1.5 96s-2.33301 69 -4 103s-3 66 -4 96s-1.5 55 -1.5 75
c0 26.667 2.83301 51.334 8.5 74.001s11.834 43 18.501 61s12.834 33.833 18.501 47.5s8.5 24.834 8.5 33.501c0 14.667 -5.16699 28.5 -15.5 41.5s-22.166 24.167 -35.499 33.5s-26 16.833 -38 22.5s-19.667 8.5 -23 8.5c-12.667 0 -21 -5 -25 -15
c-1.33301 -20 -2.33301 -44.667 -3 -74s-1.33398 -60.666 -2.00098 -93.999s-1.16699 -67.166 -1.5 -101.499s-0.833008 -66.5 -1.5 -96.5s-1 -56.333 -1 -79v-48c-14.667 -22.667 -40.667 -34 -78 -34c-11.333 0 -20.833 -0.666992 -28.5 -2s-15 -3 -22 -5
s-14 -3.66699 -21 -5s-14.833 -2 -23.5 -2c-12 0 -22.167 0.833008 -30.5 2.5s-15.5 3.66699 -21.5 6s-11.333 5.16602 -16 8.49902s-9.66699 6.66602 -15 9.99902c-3.33301 16.667 -6.16602 36.834 -8.49902 60.501s-4.33301 48.834 -6 75.501s-3 54 -4 82
s-1.83301 54.5 -2.5 79.5s-1.16699 47.5 -1.5 67.5s-0.5 35.667 -0.5 47c0 8.66699 -2 18.667 -6 30s-9 23 -15 35c-3.33301 6 -8 13.833 -14 23.5l-17 27.5v-5z" />
    <glyph glyph-name="V" unicode="V" horiz-adv-x="641" 
d="M604 692c-17.333 0 -31.9961 3.16797 -43.9961 9.50098s-22 9.5 -30 9.5c-7.33301 0 -13.333 -4.5 -18 -13.5s-7.33398 -20.833 -8.00098 -35.5l-80.5 -187.5l-55.5 -127l-38.5 -86l-29.5 -63.5l-12 -6c-8 18 -16.333 39.667 -25 65l-25 76.5l-22 73l-16 55.5
c0 16.667 -3.33301 33 -10 49c-7.33301 18 -11.333 30.333 -12 37l-14 44.5l-10 31.5c-42 36 -79 56.667 -111 62v7c-0.666992 1.33301 -1.33398 3.16602 -2.00098 5.49902s-2.33398 3.5 -5.00098 3.5c-4.66699 0 -8.5 -1.5 -11.5 -4.5s-4.5 -5.83301 -4.5 -8.5
c0 -14 2.5 -34 7.5 -60s12 -55.833 21 -89.5s19.833 -70 32.5 -109s26.667 -78.167 42 -117.5s32 -78 50 -116s36.667 -72.667 56 -104c0 -4.66699 -1.5 -9.5 -4.5 -14.5s-6.33301 -10 -10 -15s-7 -9.83301 -10 -14.5s-4.5 -9 -4.5 -13c0 -7.33301 6.66699 -14 20 -20
c5.33301 3.33301 10.166 5.5 14.499 6.5s8.5 1.5 12.5 1.5c6.66699 0 13.834 -1.33301 21.501 -4s15 -5.5 22 -8.5s13.5 -5.66699 19.5 -8s11 -3.5 15 -3.5c11.333 -0 22.166 3.83301 32.499 11.5s19.5 16.667 27.5 27s14.333 20.5 19 30.5s7 17.667 7 23s-0.333008 8 -1 8
c-14 0 -23.5 -4.33301 -28.5 -13s-10.167 -17 -15.5 -25c-4 0 -7.33301 1.33301 -10 4l-4 2c8 15.333 17.667 31.833 29 49.5l35 53.5l35 52c11.333 16.667 21 31.667 29 45l50 86.5c16.667 29.667 31.667 59.834 45 90.501s24.333 61.167 33 91.5s13 60.166 13 89.499
c0 19.333 -1 35.333 -3 48s-6.66699 19 -14 19v-1z" />
    <glyph glyph-name="W" unicode="W" horiz-adv-x="914" 
d="M262 98c12.667 -18.667 25.1689 -34.002 37.502 -46.002s23.166 -18 32.499 -18c11.333 0 19.166 1.5 23.499 4.5s6.5 6.83301 6.5 11.5c0 3.33301 -1.5 9 -4.5 17s-4.5 13 -4.5 15c0 2.66699 1 4.66699 3 6s4 2 6 2c6 -2 9.83301 -3.16699 11.5 -3.5
s3.16699 -0.5 4.5 -0.5c10.667 2.66699 20.667 8.66699 30 18s16.666 22 21.999 38c10 20.667 18.667 37.834 26 51.501s13.833 24.667 19.5 33s10.5 14.666 14.5 18.999s8 7.5 12 9.5c9.33301 -6.66699 17.333 -17.5 24 -32.5s12.834 -32 18.501 -51l17 -58.5
c5.66699 -20 12.334 -38.5 20.001 -55.5s16.834 -30.833 27.501 -41.5s23.667 -16 39 -16c13.333 0 24.333 5.33301 33 16c10 12 17 19.333 21 22c22.667 17.333 43.167 41.833 61.5 73.5s34.666 66.334 48.999 104.001s26.5 77 36.5 118s18.167 79.667 24.5 116
s11 68.833 14 97.5s4.5 49.667 4.5 63c0 12.667 -1.16699 25 -3.5 37s-6.16602 22.667 -11.499 32s-12.333 16.833 -21 22.5s-19 8.5 -31 8.5c-8.66699 0 -14.167 -0.166992 -16.5 -0.5s-3.83301 -0.833008 -4.5 -1.5c-7.33301 -18.667 -16 -45 -26 -79l-32 -111l-34.5 -122
l-33 -113c-10.333 -34 -19.833 -61.667 -28.5 -83s-15.334 -32 -20.001 -32c-10.667 17.333 -20 37.333 -28 60s-12 44.334 -12 65.001l-19.5 48.5c-5 13 -8.83301 23.833 -11.5 32.5s-4.5 15.5 -5.5 20.5s-1.5 9.5 -1.5 13.5c19.333 46.667 34.166 85 44.499 115
s15.5 49.667 15.5 59c-2 8.66699 -4.5 18.167 -7.5 28.5s-6.83301 19.666 -11.5 27.999s-10.5 15.333 -17.5 21s-15.5 8.5 -25.5 8.5c-10 -6 -17.167 -12.667 -21.5 -20s-7.83301 -14.5 -10.5 -21.5s-5.66699 -13.333 -9 -19s-8.66602 -9.83398 -15.999 -12.501
c-9.33301 32 -17.333 55.5 -24 70.5s-14.334 22.5 -23.001 22.5c-10 0 -17 -0.5 -21 -1.5s-7 -2.5 -9 -4.5c-0.666992 -21.333 -3 -47.333 -7 -78s-10.333 -66.667 -19 -108c-8 -38 -13.833 -69.167 -17.5 -93.5s-7.33398 -46.333 -11.001 -66s-8 -39 -13 -58
s-13.167 -42.5 -24.5 -70.5c-6 0.666992 -9.83301 1.83398 -11.5 3.50098s-2.5 4.16699 -2.5 7.5c-10 38 -21 76.333 -33 115s-24.5 76.167 -37.5 112.5l-38.5 103l-35 87.5c-14 20 -29.833 35.5 -47.5 46.5s-38.5 16.5 -62.5 16.5c-13.333 0 -22.666 -1.16699 -27.999 -3.5
s-8 -5.83301 -8 -10.5c0 -17.333 4.5 -39.833 13.5 -67.5s20.667 -58.667 35 -93s30.5 -70.666 48.5 -108.999l54 -114l51 -109.5c16 -35.333 29.333 -67 40 -95zM396.002 386.998l-8.00098 -0.998047v7c-1.33301 1.33301 -2 2.33301 -2 3c0 12 2.83301 25.167 8.5 39.5
s8.5 29.166 8.5 44.499c0.666992 1.33301 1.33398 3.83301 2.00098 7.5s1.5 7.5 2.5 11.5s2.16699 7.66699 3.5 11s3 5 5 5c3.33301 0 6.66602 -5 9.99902 -15c0.666992 -2 1.33398 -4.33301 2.00098 -7s2 -4.33398 4 -5.00098z" />
    <glyph glyph-name="X" unicode="X" horiz-adv-x="698" 
d="M642 525l-0.000976562 -14.001c4.66699 0 8.5 3.66699 11.5 11s5.33301 15.666 7 24.999s2.83398 18.333 3.50098 27s1 14 1 16c1.33301 15.333 3.83301 29.833 7.5 43.5s5.5 28.5 5.5 44.5c0 7.33301 -3.83301 14.833 -11.5 22.5s-15.167 11.5 -22.5 11.5
c-34 -4.66699 -64.833 -17 -92.5 -37s-53.834 -43.333 -78.501 -70s-48.667 -54.167 -72 -82.5s-48 -53.166 -74 -74.499l-11 -2c-14 15.333 -27.333 34.833 -40 58.5l-38.5 70.5c-13 23.333 -26.833 44.333 -41.5 63s-31.334 30.667 -50.001 36
c-10 0 -20 -2.83301 -30 -8.5s-19.333 -12.834 -28 -21.501s-16.667 -18.5 -24 -29.5s-13 -21.833 -17 -32.5c2.66699 -1.33301 5.66699 -2 9 -2c2 0 4.5 1.16699 7.5 3.5s6 4.83301 9 7.5l8.5 7.5c2.66699 2.33301 4.66699 3.5 6 3.5c8 0 17.167 -6.33301 27.5 -19
s20.666 -28.5 30.999 -47.5s20.333 -39.667 30 -62s18.167 -43.333 25.5 -63s13.333 -36.5 18 -50.5s7 -22 7 -24v-4c-26.667 -35.333 -59 -69.833 -97 -103.5l-109 -97.5c3.33301 -4.66699 5.5 -9.33398 6.5 -14.001s1.5 -10.334 1.5 -17.001
c0 -10.667 2 -21.334 6 -32.001s7.66699 -17 11 -19l27.5 -17.5c9.66699 -6.33301 20.834 -9.5 33.501 -9.5c18 0 36.667 7 56 21s38 30.833 56 50.5s35.167 40 51.5 61s31.166 38.833 44.499 53.5l16 -1c14.667 -14 30.834 -32.667 48.501 -56s36.667 -46.166 57 -68.499
s42 -41.666 65 -57.999s47.5 -24.5 73.5 -24.5c11.333 0 20 1.16699 26 3.5s10.667 5.83301 14 10.5c2.66699 25.333 5 45.5 7 60.5s3.5 26.833 4.5 35.5s1.66699 14.834 2 18.501s0.5 6.83398 0.5 9.50098c0 6.66699 -1 12.167 -3 16.5s-5.66699 6.5 -11 6.5
c-3.33301 0 -5.83301 -2.16699 -7.5 -6.5s-3.16699 -9 -4.5 -14s-3 -9.66699 -5 -14s-4.66699 -6.5 -8 -6.5c-8.66699 0 -19.167 4 -31.5 12s-25.166 18.167 -38.499 30.5s-26.5 26 -39.5 41s-24.667 29.333 -35 43s-18.666 25.667 -24.999 36s-9.5 17.5 -9.5 21.5
c0 10.667 5 23.834 15 39.501s22.5 32 37.5 49s31.667 34.167 50 51.5l52 47.5l43.5 37.5l25 21z" />
    <glyph glyph-name="Y" unicode="Y" horiz-adv-x="725" 
d="M47 674c-2 -3.33301 -4.49805 -7.83887 -7.49805 -13.5059l-9 -17c-3 -5.66699 -5.5 -10.667 -7.5 -15s-2.66699 -6.5 -2 -6.5c4.66699 0 8.33398 0.333008 11.001 1s5 1 7 1c14.667 0 28.667 -9.16699 42 -27.5s26.5 -41.166 39.5 -68.499s25.5 -57.166 37.5 -89.499
s24.167 -62.166 36.5 -89.499s24.666 -50.166 36.999 -68.499s24.833 -27.5 37.5 -27.5c5.33301 0 9.83301 0.666992 13.5 2s10.5 2 20.5 2c15.333 0 23 -2 23 -6c0 -7.33301 -3.66699 -19 -11 -35s-15.333 -32 -24 -48s-16.5 -29.833 -23.5 -41.5
s-9.83301 -16.5 -8.5 -14.5c-8.66699 -6.66699 -18 -10 -28 -10c-18.667 0 -33 2.66699 -43 8s-18 11 -24 17s-10.833 11.667 -14.5 17s-7.83398 8 -12.501 8h-2c-4.66699 -20 -10 -38 -16 -54s-9 -30.333 -9 -43c0 -12 5.33301 -21.5 16 -28.5s23.834 -12.5 39.501 -16.5
s32 -6.66699 49 -8s31.833 -2 44.5 -2c56 0 118 3 186 9c4.66699 2 13.5 7.83301 26.5 17.5s26 20.334 39 32.001s24.667 23.5 35 35.5s15.5 21.667 15.5 29v14c-4 -4.66699 -13.667 -8.5 -29 -11.5s-32.166 -5.5 -50.499 -7.5s-36 -3.5 -53 -4.5s-29.5 -1.5 -37.5 -1.5h-2
c-6.66699 0 -10 4 -10 12c63.333 69.333 120.666 167.666 171.999 294.999c101.333 71.333 152.666 159.333 153.999 264c0 4.66699 -2.16699 8.83398 -6.5 12.501s-9.66602 6.66699 -15.999 9s-13.5 4.16602 -21.5 5.49902s-15.333 2 -22 2c-13.333 0 -26.5 -3 -39.5 -9
s-25 -13.333 -36 -22s-20.833 -18.167 -29.5 -28.5s-15.667 -19.833 -21 -28.5c-5.33301 -9.33301 -13.5 -25.5 -24.5 -48.5l-34.5 -73.5l-34 -74.5c-10.667 -23.667 -18.334 -41.167 -23.001 -52.5l-17.5 -39c-5 -10.667 -12.5 -16 -22.5 -16
c-26 14.667 -46.833 34.334 -62.5 59.001s-28.834 51.334 -39.501 80.001s-20.167 57.667 -28.5 87s-17.833 55.833 -28.5 79.5s-24 43 -40 58s-37 22.5 -63 22.5c-18.667 0 -30 -4.66699 -34 -14c-4 -8.66699 -8.66699 -14.667 -14 -18zM657.002 603.994
c0 -39.333 -21.001 -80 -63.001 -122l-11 -10l-4 4c0.666992 1.33301 2.83398 4 6.50098 8s7.5 8.83301 11.5 14.5s7.66699 11.5 11 17.5s5 12 5 18v2c14 30.667 28.667 53.667 44 69v-1z" />
    <glyph glyph-name="Z" unicode="Z" horiz-adv-x="822" 
d="M713 712c-16 -0.666992 -36.1738 -1.83496 -60.5068 -3.50195s-50.833 -3.66699 -79.5 -6l-89 -7.5l-89 -7.5c-28.667 -2.33301 -55.167 -4.16602 -79.5 -5.49902s-44.5 -2 -60.5 -2c-48 0 -87.5 3.33301 -118.5 10s-53.833 10 -68.5 10h-8l16 -65
c5.33301 -20.667 13 -34 23 -40c28.667 -5.33301 66 -9.5 112 -12.5s94.167 -5.5 144.5 -7.5s99.333 -3.83301 147 -5.5s87.834 -3.16699 120.501 -4.5v-12l-99.5 -92l-94.5 -80c-34 16.667 -64.5 28.834 -91.5 36.501s-54.5 11.5 -82.5 11.5c-6 0 -13.167 -1 -21.5 -3
s-16 -5.16699 -23 -9.5s-13 -9.66602 -18 -15.999s-7.5 -13.5 -7.5 -21.5c0 -4 1.66699 -10.5 5 -19.5s8 -18.167 14 -27.5s12.833 -17.5 20.5 -24.5s15.834 -10.5 24.501 -10.5l39 -27l-113.5 -86l-60 -44c-13 -9.33301 -21 -14.833 -24 -16.5s-4.83301 -2.5 -5.5 -2.5
c-21.333 0 -37.5 -4.83301 -48.5 -14.5s-16.5 -21.167 -16.5 -34.5c0 -6 0.666992 -13.167 2 -21.5s3.33301 -16.333 6 -24s6.33398 -14 11.001 -19s10.667 -7.5 18 -7.5c2.66699 0 7.33398 1.16699 14.001 3.5s13.834 5 21.501 8l21.5 8.5c6.66699 2.66699 11 4 13 4
c38.667 0 84.667 -0.833008 138 -2.5s107 -3.5 161 -5.5s104.167 -3.66699 150.5 -5s81.833 -2 106.5 -2c9.33301 0 19.833 1.5 31.5 4.5s22.5 7.16699 32.5 12.5s18.5 11.166 25.5 17.499s10.5 13.166 10.5 20.499c0 19.333 -2.66699 36.5 -8 51.5s-12.666 29 -21.999 42
s-20.666 25.833 -33.999 38.5l-45 41c0 2 2.66699 3.83301 8 5.5s11.333 3 18 4s13.167 1.83301 19.5 2.5s10.833 1 13.5 1c9.33301 0 18.166 3.83301 26.499 11.5s15.5 17.167 21.5 28.5s10.833 23.5 14.5 36.5s5.5 24.5 5.5 34.5c0 6.66699 -2.33301 10 -7 10
c-6.66699 0 -17.667 -0.833008 -33 -2.5s-32.333 -3.16699 -51 -4.5l-57 -4c-19.333 -1.33301 -36.666 -2 -51.999 -2c-29.333 0 -57.333 2.66699 -84 8c14.667 16.667 33.834 34.334 57.501 53.001s48.334 37.167 74.001 55.5l76 54.5c25 18 46.167 35 63.5 51v19
c-6 16 -11.667 29.5 -17 40.5s-10.833 20.667 -16.5 29s-11.834 15.833 -18.501 22.5s-14.334 13.667 -23.001 21zM720.993 163.999c0 -9.33301 -7.66895 -14.6719 -23.002 -16.0049c-4.66699 -0.666992 -19 -1.16699 -43 -1.5s-52.667 -0.666016 -86 -0.999023
s-69.333 -0.666016 -108 -0.999023s-74.834 -0.666016 -108.501 -0.999023s-62.667 -0.666016 -87 -0.999023s-39.166 -0.5 -44.499 -0.5c6.66699 7.33301 16.834 16.5 30.501 27.5l43 33l43.5 31.5l33 24c12 -3.33301 27.667 -5.66602 47 -6.99902
c18.667 -1.33301 38.334 -2.33301 59.001 -3l60 -2c19.333 -0.666992 36.833 -1.5 52.5 -2.5s27.5 -2.16699 35.5 -3.5c40 -6 72 -29.667 96 -71v-5zM396.991 374.993c0 -0.666992 -1.5 -1.16895 -4.5 -1.50195s-6.33301 -0.666016 -10 -0.999023s-7.5 -0.5 -11.5 -0.5h-7
c-22 0 -43.167 2 -63.5 6s-36.833 11.333 -49.5 22l6 12c28 0 52.5 -2.66699 73.5 -8s43.167 -14.666 66.5 -27.999v-1z" />
    <glyph glyph-name="FLW92" unicode="\" horiz-adv-x="375" 
d="M54 693c-4 -10 -7.83398 -18.167 -11.501 -24.5s-7 -12.5 -10 -18.5s-5.33301 -12.833 -7 -20.5s-2.83398 -17.5 -3.50098 -29.5l54.5 -132l70.5 -162c13.333 -31.333 22.5 -53.833 27.5 -67.5s7.5 -22.5 7.5 -26.5l-7 -6c0.666992 -2 3 -6 7 -12l12.5 -18.5l12 -17.5
c3.66699 -5.33301 5.83398 -8.33301 6.50098 -9c9.33301 -14 16.666 -26.167 21.999 -36.5s10 -20 14 -29l12 -26.5c4 -8.66699 9 -18.667 15 -30c3.33301 -5.33301 8.33301 -8 15 -8s13.834 3.5 21.501 10.5s14.667 15.333 21 25s11.5 20 15.5 31s6 20.5 6 28.5
c-26 26.667 -50.667 66 -74 118l-54.5 120l-53.5 121.5l-48.5 114c-15 36.333 -27.833 68.833 -38.5 97.5c-1.33301 3.33301 -3.83301 5.83301 -7.5 7.5s-7.5 2.5 -11.5 2.5c-3.33301 0 -7.66602 -0.666992 -12.999 -2z" />
    <glyph glyph-name="FLW94" unicode="^" horiz-adv-x="429" 
d="M20 436c5.33301 -6 10.832 -9.49805 16.499 -10.498s12.834 -1.5 21.501 -1.5c30.667 6.66699 53.667 17.834 69 33.501s29.666 35.5 42.999 59.5c7.33301 13.333 13.333 23 18 29s7 10.333 7 13c2.66699 13.333 8.33398 20 17.001 20s18 -4.83301 28 -14.5
s19.5 -20.834 28.5 -33.501s16.5 -24.667 22.5 -36l11 -21c8.66699 -14 17.834 -25.5 27.501 -34.5s22.167 -13.5 37.5 -13.5c7.33301 1.33301 13 3 17 5s7.16699 4.5 9.5 7.5s4.66602 6.16699 6.99902 9.5s5.16602 7 8.49902 11h-15
c-5.33301 0 -10.666 3.16699 -15.999 9.5s-10.5 13.666 -15.5 21.999s-9.33301 16.166 -13 23.499s-6.5 12 -8.5 14c-6 9.33301 -12.333 18.666 -19 27.999s-13.167 17.833 -19.5 25.5s-12.5 13.834 -18.5 18.501s-11.667 7 -17 7c-3.33301 0 -5.5 -0.5 -6.5 -1.5
s-2.83301 -1.5 -5.5 -1.5c-0.666992 0 -3 0.666992 -7 2c-1.33301 13.333 -5.83301 23.333 -13.5 30s-16.5 10 -26.5 10c-12 0 -22.833 -3.5 -32.5 -10.5s-18.667 -15.833 -27 -26.5s-15.833 -22.167 -22.5 -34.5s-13 -23.5 -19 -33.5c-58 -29.333 -87 -64.333 -87 -105z
M46.999 467.002c0 0.666992 0.832031 3.66699 2.49902 9s4 11 7 17s7 11.5 12 16.5s10.833 7.5 17.5 7.5l2 2l2 -2c-1.33301 -1.33301 -4.66602 -4.5 -9.99902 -9.5s-8 -9.16699 -8 -12.5v-2c-4 -6 -8.16699 -11 -12.5 -15s-8.5 -7.66699 -12.5 -11z" />
    <glyph glyph-name="FLW95" unicode="_" horiz-adv-x="219" 
d="M74 23c-5.33301 0 -11.8301 -1.33301 -19.4971 -4s-11.5 -6 -11.5 -10v-2c-2 -2.66699 -3.66699 -4.5 -5 -5.5s-2.33301 -2 -3 -3s-1.33398 -2.16699 -2.00098 -3.5s-1.33398 -3.33301 -2.00098 -6c-1.33301 -6.66699 -3.5 -10.167 -6.5 -10.5s-4.5 -0.833008 -4.5 -1.5
c0 -1.33301 6.66699 -2 20 -2c39.333 0 69.166 0.166992 89.499 0.5s31.833 1.83301 34.5 4.5c12.667 5.33301 21.667 10.333 27 15s8 9.66699 8 15c0 2.66699 -0.5 5.66699 -1.5 9s-1.83301 5 -2.5 5h-121v-1z" />
    <glyph glyph-name="FLW97" unicode="a" horiz-adv-x="542" 
d="M366 408c-6.66699 1.33301 -13.167 2.33496 -19.5 3.00195s-12.5 1 -18.5 1c-22 0 -45 -4.16699 -69 -12.5s-47.333 -19.5 -70 -33.5s-44.334 -30.167 -65.001 -48.5s-38.667 -37.833 -54 -58.5s-27.5 -41.5 -36.5 -62.5s-13.5 -41.167 -13.5 -60.5
c0 -27.333 3.33301 -48.833 10 -64.5s15 -27.334 25 -35.001s21.167 -12.334 33.5 -14.001s24.5 -2.5 36.5 -2.5c82.667 0 161 51.667 235 155c2.66699 2.66699 5.16699 4.5 7.5 5.5s6.16602 1.5 11.499 1.5c4 0 6.33301 -4 7 -12c-0.666992 -4 -1.5 -10.833 -2.5 -20.5
s-1.83301 -20.167 -2.5 -31.5l-2 -33c-0.666992 -10.667 -1 -19 -1 -25c0 -14.667 0.666992 -28.167 2 -40.5s4 -23 8 -32s9.66699 -16 17 -21s17 -7.5 29 -7.5c16 0 29.667 7.66699 41 23s20.5 32.833 27.5 52.5s12 38.334 15 56.001s4.5 29.167 4.5 34.5
c-4 -2 -7.33301 -3 -10 -3c-3.33301 0 -6.83301 1.16699 -10.5 3.5s-6.83398 4.83301 -9.50098 7.5c0 28.667 -1.16699 54.667 -3.5 78s-3.5 39.666 -3.5 48.999c0 38 -1.66699 64.5 -5 79.5s-11.666 22.5 -24.999 22.5c-7.33301 0 -14.666 2 -21.999 6
s-14.666 8.66699 -21.999 14l-22 15.5c-7.33301 5 -15 8.5 -23 10.5zM402 348.002c0 -21.333 -3.16699 -43.8311 -9.5 -67.498s-20.5 -46.5 -42.5 -68.5c-10 -8.66699 -23.5 -18.5 -40.5 -29.5s-34.667 -21.333 -53 -31s-36.333 -17.834 -54 -24.501s-32.167 -10 -43.5 -10
c-15.333 0 -23 6.33301 -23 19c0 21.333 9 44.333 27 69s39.667 47.667 65 69s51.333 39.166 78 53.499s49 21.5 67 21.5h29v-1z" />
    <glyph glyph-name="b" unicode="b" horiz-adv-x="449" 
d="M118 630c-16 0 -29.0049 -5.16895 -39.0049 -15.502s-18.167 -23 -24.5 -38s-11.333 -30.667 -15 -47s-6.5 -30.833 -8.5 -43.5c-5.33301 -30.667 -8.5 -58.334 -9.5 -83.001s-1.5 -50.334 -1.5 -77.001c0 -25.333 1.33301 -53.166 4 -83.499s7 -57.166 13 -80.499
l-15 -132c2.66699 -6.66699 5.83398 -12.5 9.50098 -17.5s7.5 -7.5 11.5 -7.5c6.66699 0 12.834 2 18.501 6s11.167 8.16699 16.5 12.5l15.5 12.5c5 4 9.83301 6 14.5 6c4.66699 -2 9.5 -5.83301 14.5 -11.5s10.5 -11.5 16.5 -17.5s12.833 -11.333 20.5 -16
s16.834 -7 27.501 -7c24.667 0 51.167 4.83301 79.5 14.5s54.5 23.334 78.5 41.001s44 38.5 60 62.5s24 50.667 24 80c0 24.667 -4.83301 48.667 -14.5 72s-23 44.333 -40 63s-36.667 33.667 -59 45s-46.166 17 -71.499 17c-12 0 -22.333 -2.33301 -31 -7
s-16.667 -11 -24 -19s-14.666 -17.5 -21.999 -28.5l-24 -36.5l-14 -1c-4 24 -6 55.333 -6 94c0 14.667 0.333008 30.834 1 48.501s1.5 35.667 2.5 54l3 53.5c1 17.333 2.16699 33.333 3.5 48l2 25c0 3.33301 -2.5 6 -7.5 8s-7.5 3.33301 -7.5 4v2h-2zM126.995 208.998
c0 10 3.16797 21.333 9.50098 34s13.666 24.334 21.999 35.001s16.666 19.667 24.999 27s14.5 11 18.5 11c26 0 46.333 -5.66699 61 -17s25.334 -24.333 32.001 -39s10.667 -28.834 12 -42.501s2 -22.834 2 -27.501c0 -20.667 -5.16699 -37 -15.5 -49s-23 -21 -38 -27
s-31.167 -9.83301 -48.5 -11.5s-33.333 -2.5 -48 -2.5c-1.33301 8.66699 -2.33301 14.334 -3 17.001s-1 4.66699 -1 6c0 22.667 9.33301 44.334 28 65.001l-8 6l-40 -33c-0.666992 5.33301 -2.16699 13.166 -4.5 23.499s-3.5 18.5 -3.5 24.5z" />
    <glyph glyph-name="c" unicode="c" horiz-adv-x="446" 
d="M270 406c-35.333 0 -68.3311 -5.33203 -98.998 -15.999s-57.167 -26 -79.5 -46s-39.833 -44 -52.5 -72s-19 -59.333 -19 -94c0 -23.333 3.16699 -45.833 9.5 -67.5s16 -40.834 29 -57.501s29 -30 48 -40s41.167 -15 66.5 -15c26 0 50.833 1.83301 74.5 5.5
s45.667 9.83398 66 18.501s38.833 20.334 55.5 35.001s31 33 43 55c2 10 4.83301 20.667 8.5 32s5.5 20.333 5.5 27c0 11.333 -2.66699 17 -8 17c-14 -19.333 -32.5 -35.5 -55.5 -48.5s-46.833 -23.5 -71.5 -31.5s-48.667 -13.667 -72 -17s-42.333 -5 -57 -5
c-7.33301 0 -15.833 1.33301 -25.5 4s-18.834 6.5 -27.501 11.5s-16 11 -22 18s-9 15.167 -9 24.5c0 17.333 4.16699 36.5 12.5 57.5s21 40.667 38 59s38.5 33.666 64.5 45.999s56.667 18.5 92 18.5c14 0 25.667 -4.5 35 -13.5s18 -18.667 26 -29s16.5 -20 25.5 -29
s20.167 -13.5 33.5 -13.5c11.333 0 17 7.33301 17 22c0 16.667 -4.16699 34.667 -12.5 54s-18.333 37.166 -30 53.499s-23.834 29.833 -36.501 40.5s-23.667 16 -33 16z" />
    <glyph glyph-name="d" unicode="d" horiz-adv-x="462" 
d="M362 628c-11.333 -30 -20.6719 -66.665 -28.0049 -109.998c-3.33301 -22.667 -6.16602 -43.834 -8.49902 -63.501s-4.16602 -38.5 -5.49902 -56.5c-2.66699 -2.66699 -4 -5.66699 -4 -9c1.33301 -13.333 2.66602 -23 3.99902 -29s2 -10 2 -12c0 -12 -3.33301 -18 -10 -18
s-13.5 2.5 -20.5 7.5s-13.833 10.667 -20.5 17s-13.167 12 -19.5 17s-12.166 7.5 -17.499 7.5c-28 0 -54.833 -7.83301 -80.5 -23.5s-48.5 -35.667 -68.5 -60s-35.833 -51.5 -47.5 -81.5s-17.5 -59 -17.5 -87c0 -16 1.5 -31.5 4.5 -46.5s8 -28 15 -39
s16.333 -19.833 28 -26.5s25.834 -10 42.501 -10c18.667 0 37.167 6.66699 55.5 20s35.833 30 52.5 50s32.334 41.5 47.001 64.5l41 63.5l8 -1c0.666992 0 1.5 -2.5 2.5 -7.5s1.66699 -11.167 2 -18.5s0.666016 -15.166 0.999023 -23.499s0.5 -15.5 0.5 -21.5
c0 -18 1.33301 -35.5 4 -52.5s7.5 -32.333 14.5 -46s16.333 -24.5 28 -32.5s26.5 -12 44.5 -12c8.66699 0 16 1.66699 22 5s9 7.66602 9 12.999c0 2.66699 -1.16699 5.33398 -3.5 8.00098s-5.16602 4.66699 -8.49902 6c-5.33301 18 -9.83301 42.167 -13.5 72.5
s-6.66699 63.166 -9 98.499s-4.16602 71.166 -5.49902 107.499s-2 69.5 -2 99.5c0 10 2 22.5 6 37.5s8.33301 30.333 13 46l13 44.5c4 14 6 25 6 33c0 12 -1.83301 21 -5.5 27s-7.83398 10.667 -12.501 14c-16.667 8.66699 -28.667 15.167 -36 19.5
s-14.666 7.83301 -21.999 10.5v-2zM319.994 274.002c-2.66699 -8.66699 -11.3311 -21.333 -25.998 -38s-31.834 -33.334 -51.501 -50.001s-39.5 -31.167 -59.5 -43.5s-37 -18.5 -51 -18.5c-6.66699 0 -10.667 3.66699 -12 11c0 8 5.33301 20.667 16 38s24.167 35 40.5 53
s34.5 33.833 54.5 47.5s39.333 20.5 58 20.5c8.66699 0 15.667 -1.16699 21 -3.5s8.66602 -7.16602 9.99902 -14.499v-2z" />
    <glyph glyph-name="e" unicode="e" horiz-adv-x="500" 
d="M266 425c-17.333 0 -31.666 -4.50098 -42.999 -13.501s-19.333 -19.167 -24 -30.5c-60 -22 -104.833 -47.833 -134.5 -77.5s-44.5 -70.5 -44.5 -122.5c0 -35.333 6.5 -64.666 19.5 -87.999s30.333 -42 52 -56s47 -23.833 76 -29.5s59.5 -8.5 91.5 -8.5
c28 0 52.667 3 74 9s40.5 15.167 57.5 27.5s32.667 28.5 47 48.5s28.5 44 42.5 72l-6 5c-36 -14.667 -74.833 -27.5 -116.5 -38.5s-82.834 -16.5 -123.501 -16.5c-38 0 -67 3.5 -87 10.5s-30 21.833 -30 44.5l2 27c0.666992 7.33301 3.66699 12.333 9 15s11.666 4 18.999 4
c10 0 21 -1.16699 33 -3.5s23.667 -3.5 35 -3.5c24.667 0 42.5 0.333008 53.5 1s21.5 1.66699 31.5 3c1.33301 0 2.83301 -0.666992 4.5 -2s3.5 -2 5.5 -2s6.33301 1 13 3l21 6.5l21 6.5c6.66699 2 11.334 3 14.001 3c6 0 11.167 -1.16699 15.5 -3.5
s8.5 -6.83301 12.5 -13.5c6.66699 0 12.667 1.83301 18 5.5s9.5 8.33398 12.5 14.001s5.33301 11.5 7 17.5s2.5 11.667 2.5 17c0 22 -5.33301 43.333 -16 64s-24.5 38.667 -41.5 54s-36.333 27.666 -58 36.999s-43.167 14 -64.5 14h-1zM337 302.999
c0 -15.333 -6 -23 -18 -23l-162 6c-4 4 -6 8 -6 12c0 3.33301 0.5 5.83301 1.5 7.5s2.5 4.5 4.5 8.5c7.33301 15.333 15.666 26.5 24.999 33.5s19.666 10.5 30.999 10.5c24.667 0 48.834 -4.66699 72.501 -14s40.834 -23 51.501 -41z" />
    <glyph glyph-name="f" unicode="f" horiz-adv-x="310" 
d="M136 634c-2 -1.33301 -5.49902 -4.49707 -10.499 -9.49707s-10 -10.5 -15 -16.5s-9.5 -12 -13.5 -18s-6 -10.333 -6 -13c0 -2 1 -3 3 -3c3.33301 0 5.5 0.666992 6.5 2s4.16699 2 9.5 2c12.667 -1.33301 21.167 -3.66602 25.5 -6.99902s6.5 -5.66602 6.5 -6.99902v-4
c-30.667 -26.667 -46 -65.334 -46 -116.001c0 -4 0.333008 -9.66699 1 -17s1.66699 -16.333 3 -27c0 -11.333 -3.5 -18.333 -10.5 -21s-14.833 -4.33398 -23.5 -5.00098c-19.333 -1.33301 -31.833 -5 -37.5 -11s-8.5 -15 -8.5 -27s2.16699 -20.333 6.5 -25
s10.833 -7 19.5 -7c14 0 24.5 -0.5 31.5 -1.5s11.833 -3.83301 14.5 -8.5c0 -10 0.166992 -18.833 0.5 -26.5s0.833008 -13.834 1.5 -18.501c0 -54.667 1 -98.334 3 -131.001s4.33301 -61.334 7 -86.001c6.66699 -9.33301 15.667 -18 27 -26s22.333 -12 33 -12
c11.333 0 20 6.66699 26 20c-1.33301 17.333 -2.83301 40 -4.5 68s-3 56 -4 84s-1.83301 53.5 -2.5 76.5s-1 38.167 -1 45.5c0 3.33301 1.33301 6.33301 4 9s6 5 10 7s8 3.5 12 4.5s7.33301 1.5 10 1.5c19.333 0 31.666 -2.83301 36.999 -8.5s8 -14.834 8 -27.501
c-2 -16 -4.16699 -29 -6.5 -39s-3.5 -17.667 -3.5 -23c0 -3.33301 -1 -7.5 -3 -12.5s-4.33301 -10.5 -7 -16.5s-5 -12 -7 -18s-3 -11.333 -3 -16c0 -9.33301 0.833008 -16 2.5 -20s3.16699 -6 4.5 -6c2 0 4.33301 4.16699 7 12.5s4.66699 13.833 6 16.5
c14 28 21 50.333 21 67c0 8 1 16.5 3 25.5s4.33301 18.333 7 28s5 18.834 7 27.501s3 16.667 3 24c0 17.333 -5.33301 31.333 -16 42c-4 4 -10.5 7 -19.5 9s-18.5 3.83301 -28.5 5.5s-19.5 3.33398 -28.5 5.00098s-15.5 3.83398 -19.5 6.50098v79
c0 19.333 1.33301 36.666 4 51.999s8.66699 23 18 23c4 0 8.5 -0.833008 13.5 -2.5s10 -4 15 -7s9.16699 -6.33301 12.5 -10s5 -7.5 5 -11.5c0 -3.33301 -0.833008 -8 -2.5 -14s-2.5 -9.66699 -2.5 -11c0 -4 0.333008 -6 1 -6c5.33301 0 9 2 11 6
c18.667 38.667 29 68.667 31 90c-17.333 17.333 -39 30.666 -65 39.999s-53 14 -81 14h-2z" />
    <glyph glyph-name="g" unicode="g" horiz-adv-x="594" 
d="M464 464c-5.33301 0 -9.82617 -3.1709 -13.4932 -9.50391s-5.5 -13.166 -5.5 -20.499c0 -3.33301 0.166992 -5.83301 0.5 -7.5s0.5 -2.83398 0.5 -3.50098c0 -12 -1 -20.667 -3 -26s-5 -9 -9 -11c-8.66699 0 -16.667 0.833008 -24 2.5s-14.5 3.5 -21.5 5.5
s-14.333 3.83301 -22 5.5s-15.834 2.5 -24.501 2.5c-18.667 0 -39.334 -1.16699 -62.001 -3.5s-45.5 -6.33301 -68.5 -12s-45.333 -13.167 -67 -22.5s-40.834 -21.166 -57.501 -35.499s-30.167 -31.166 -40.5 -50.499s-15.5 -41.666 -15.5 -66.999
s8.16699 -49.833 24.5 -73.5s37 -44.667 62 -63s51.833 -33 80.5 -44s55.667 -16.5 81 -16.5c15.333 0 29.833 2 43.5 6s26.167 8.33301 37.5 13s21.333 9 30 13s15.667 6 21 6c8 0 12 -6 12 -18c-3.33301 -36 -15.5 -61 -36.5 -75s-47.833 -21 -80.5 -21
c-28 0 -56.333 0.666992 -85 2s-55.334 4.83301 -80.001 10.5s-46.5 14.167 -65.5 25.5s-33.5 26.666 -43.5 45.999c-5.33301 -12.667 -9.16602 -24.5 -11.499 -35.5s-3.5 -21.5 -3.5 -31.5c0 -26.667 7.66699 -49 23 -67s34.666 -32.333 57.999 -43
s48.666 -18.167 75.999 -22.5s52.666 -6.5 75.999 -6.5c10.667 0 25 0.833008 43 2.5s37 4.33398 57 8.00098s40.167 8.66699 60.5 15s38.833 14.333 55.5 24s30.167 21.167 40.5 34.5s15.5 28.666 15.5 45.999c0 6.66699 -3.33301 11.334 -10 14.001s-11.334 6 -14.001 10
c6.66699 5.33301 12.334 16.166 17.001 32.499s8.66699 35.333 12 57s6.16602 45 8.49902 70s4 48.667 5 71s1.66699 42.5 2 60.5s0.5 31 0.5 39c0 9.33301 4.33301 14 13 14c3.33301 0 6 -2.16699 8 -6.5s3 -7.83301 3 -10.5c0 -3.33301 0.166992 -6.16602 0.5 -8.49902
s0.833008 -3.5 1.5 -3.5s1.16699 1.5 1.5 4.5s0.833008 6.5 1.5 10.5s1.16699 7.83301 1.5 11.5s0.5 5.83398 0.5 6.50098c0 16.667 -3 33.667 -9 51s-14.167 33 -24.5 47s-22 25.5 -35 34.5s-26.5 13.5 -40.5 13.5h-1zM436.007 329.996
c-1.33301 -6.66699 -2.33203 -15.5 -2.99902 -26.5s-1 -22.167 -1 -33.5c0.666992 -15.333 1.16699 -25.5 1.5 -30.5l0.5 -7.5v-23c0 -18 -5.5 -32.333 -16.5 -43s-24.5 -18.834 -40.5 -24.501s-33.5 -9.5 -52.5 -11.5s-36.5 -3 -52.5 -3c-19.333 0 -38.5 1.16699 -57.5 3.5
s-35.833 5.5 -50.5 9.5s-26.5 9 -35.5 15s-13.5 12.667 -13.5 20c8.66699 38 23.667 68.333 45 91s45.666 39.834 72.999 51.501s56.5 19.334 87.5 23.001s60.833 5.5 89.5 5.5c10 0 16.833 -1.33301 20.5 -4s5.5 -6.33398 5.5 -11.001v-1z" />
    <glyph glyph-name="h" unicode="h" horiz-adv-x="399" 
d="M20 504c0 -18 0.332031 -38.498 0.999023 -61.498l2 -70c0.666992 -23.667 1.5 -46.334 2.5 -68.001s1.83301 -40.5 2.5 -56.5c0 -7.33301 0.666992 -17.5 2 -30.5l4 -39l3.5 -33.5l1.5 -14c0 -2 -1 -6.66699 -3 -14l-6.5 -23.5c-2.33301 -8.33301 -4.5 -16.5 -6.5 -24.5
s-3 -13.667 -3 -17c0 -9.33301 2.83301 -17.333 8.5 -24s12.5 -12.334 20.5 -17.001s16.333 -8.16699 25 -10.5s16 -3.5 22 -3.5c8 0 14 1.66699 18 5s7 7.83301 9 13.5s3.16699 11.834 3.5 18.501s0.5 13.334 0.5 20.001c0 8 -0.333008 19.5 -1 34.5l-2 45.5
c-0.666992 15.333 -1.33398 29.166 -2.00098 41.499s-1 19.833 -1 22.5c34 56 72.333 84 115 84c8.66699 0 15.834 -2.33301 21.501 -7s8.5 -12.334 8.5 -23.001v-144c0 -18.667 1.66699 -35.167 5 -49.5s9.16602 -26.5 17.499 -36.5s19.833 -17.667 34.5 -23
s33.334 -8 56.001 -8c0 23.333 -0.5 49.5 -1.5 78.5s-2.16699 56.667 -3.5 83s-2.66602 49 -3.99902 68s-2 30.5 -2 34.5c-1.33301 16.667 -2.83301 32 -4.5 46s-5 25.667 -10 35s-12 16.666 -21 21.999s-21.5 8 -37.5 8c-26 0 -47.167 -3.16699 -63.5 -9.5
s-30.333 -15 -42 -26s-22.334 -24.167 -32.001 -39.5s-20.834 -32 -33.501 -50c-1.33301 0 -2.33301 0.333008 -3 1c-4 26.667 -6 53.334 -6 80.001c0 18.667 2 38.5 6 59.5s8.5 41.833 13.5 62.5s9.5 40.667 13.5 60s6 36.666 6 51.999c0 10 -5 19.5 -15 28.5
s-21.167 17 -33.5 24s-24.333 12.667 -36 17s-19.167 6.5 -22.5 6.5s-8.16602 -1.66699 -14.499 -5s-9.5 -7 -9.5 -11c-0.666992 -18.667 -1.16699 -34 -1.5 -46s-0.666016 -22.167 -0.999023 -30.5s-0.5 -15.166 -0.5 -20.499v-15z" />
    <glyph glyph-name="i" unicode="i" horiz-adv-x="201" 
d="M21 208c0 -5.33301 0.166016 -14.501 0.499023 -27.501s1.16602 -27.667 2.49902 -44s3 -33.166 5 -50.499s4.5 -33.333 7.5 -48s6.83301 -26.667 11.5 -36s10 -14 16 -14c12.667 0 25.167 5.33301 37.5 16s23.5 23.167 33.5 37.5s18.5 28.666 25.5 42.999
s11.5 25.5 13.5 33.5c-2 0 -4.5 -0.833008 -7.5 -2.5s-7.16699 -2.83398 -12.5 -3.50098c-4.66699 0 -8.33398 0.666992 -11.001 2c-3.33301 30 -6 63 -8 99s-3 76 -3 120v61c-7.33301 6.66699 -16.666 10 -27.999 10c-17.333 -3.33301 -31.166 -8.16602 -41.499 -14.499
s-19.166 -14.166 -26.499 -23.499c-10 -48 -15 -100.667 -15 -158zM131.999 617.999c-9.33301 0 -20.499 -3.33301 -33.499 -10s-25.167 -15.667 -36.5 -27s-21 -24.5 -29 -39.5s-12 -30.833 -12 -47.5c0 -8.66699 6.16699 -18.5 18.5 -29.5s28.5 -16.5 48.5 -16.5
c9.33301 0 17.666 4.66699 24.999 14s11 18.666 11 27.999c0 8 3 16 9 24s12.5 15.833 19.5 23.5l19.5 22c6 7 9 13.167 9 18.5c0 4.66699 -1.83301 9.33398 -5.5 14.001s-8 9 -13 13s-10.333 7.16699 -16 9.5s-10.5 3.5 -14.5 3.5z" />
    <glyph glyph-name="j" unicode="j" horiz-adv-x="278" 
d="M146 423c3.33301 -12 6.16602 -29.3291 8.49902 -51.9961s3.5 -45.667 3.5 -69c0 -25.333 -0.333008 -55 -1 -89s-2.33398 -67.333 -5.00098 -100s-6.16699 -61.834 -10.5 -87.501s-10.5 -42.167 -18.5 -49.5c-16 18.667 -29.333 39.5 -40 62.5s-16 44.5 -16 64.5
c0 13.333 3 26.5 9 39.5s9 26.833 9 41.5c0 5.33301 -1.33301 9.33301 -4 12c-40.667 -66.667 -61 -125.334 -61 -176.001c0 -13.333 3 -27 9 -41s13.833 -26.5 23.5 -37.5s20.167 -20 31.5 -27s22.333 -10.5 33 -10.5c24 0 44.833 9.33301 62.5 28s32.334 44 44.001 76
s20.334 69.167 26.001 111.5s8.5 87.166 8.5 134.499c0 19.333 -1.5 39 -4.5 59s-8.5 38.167 -16.5 54.5s-18.833 29.666 -32.5 39.999s-31.167 15.5 -52.5 15.5h-6zM134 603.004c-3.33301 -5.33301 -6.33105 -11.832 -8.99805 -19.499s-4 -15.834 -4 -24.501
c0 -9.33301 1.83301 -18.333 5.5 -27s8.5 -16.667 14.5 -24s13.167 -13.166 21.5 -17.499s17.5 -6.5 27.5 -6.5c16 0 27.667 4.66699 35 14s11 16.666 11 21.999c0 12 -0.666992 23.667 -2 35s-4 21.5 -8 30.5s-9.66699 16.333 -17 22s-17 8.5 -29 8.5
c-8.66699 -1.33301 -16.334 -2.83301 -23.001 -4.5s-14.334 -4.16699 -23.001 -7.5v-1z" />
    <glyph glyph-name="k" unicode="k" horiz-adv-x="470" 
d="M23 626c6 -28 10.9951 -55.166 14.9951 -81.499s6.33301 -53.5 7 -81.5c0.666992 -24.667 1.5 -51.167 2.5 -79.5s1.5 -58.5 1.5 -90.5v-74c-1.33301 -3.33301 -3.5 -6.83301 -6.5 -10.5l-9.5 -11.5c-3.33301 -4 -6.33301 -8 -9 -12s-4 -7.66699 -4 -11
c0 -5.33301 1.5 -10 4.5 -14s6.33301 -8.16699 10 -12.5s7 -9.16602 10 -14.499s4.5 -11.666 4.5 -18.999c0 -8.66699 -0.166992 -15.667 -0.5 -21s-0.666016 -9.83301 -0.999023 -13.5s-0.5 -6.83398 -0.5 -9.50098v-8v-6l2 -6
c-1.33301 -11.333 -2.16602 -19.166 -2.49902 -23.499s-0.833008 -7.83301 -1.5 -10.5c0 -2.66699 0.5 -6 1.5 -10s2.5 -6 4.5 -6c8.66699 0 17 2.33301 25 7s15.167 10.5 21.5 17.5s11.5 14.5 15.5 22.5s6 15 6 21c3.33301 16 7.66602 29.167 12.999 39.5s12 15.5 20 15.5
c52 -34.667 97.167 -60.834 135.5 -78.501s68.833 -26.5 91.5 -26.5c9.33301 0 17.666 4.16699 24.999 12.5s13.833 17.5 19.5 27.5s10.334 19.5 14.001 28.5s6.16699 14.167 7.5 15.5c-1.33301 5.33301 -3 8 -5 8c-7.33301 0 -13.666 -2.66699 -18.999 -8
c-30 4.66699 -61.167 12.334 -93.5 23.001s-61.833 25 -88.5 43v11c28.667 11.333 55.167 25.666 79.5 42.999s45.5 35.666 63.5 54.999s32.833 38.5 44.5 57.5s19.5 35.5 23.5 49.5c-3.33301 5.33301 -7.66602 10.833 -12.999 16.5s-11.5 11 -18.5 16s-14.333 9 -22 12
s-15.5 4.5 -23.5 4.5c-11.333 0 -24.666 -4 -39.999 -12s-30.166 -17.5 -44.499 -28.5s-26.666 -22.333 -36.999 -34s-15.833 -21.167 -16.5 -28.5l1 -2c1.33301 0 4 1.16699 8 3.5s8 5 12 8l11 8c3.33301 2.33301 5.66602 3.5 6.99902 3.5c2.66699 0 4 -1 4 -3
c0 -3.33301 -2.33301 -7.83301 -7 -13.5s-8 -9.83398 -10 -12.501c-6 -7.33301 -13.167 -15.333 -21.5 -24s-17.333 -16.667 -27 -24s-19.5 -13.333 -29.5 -18s-19.667 -7 -29 -7c-3.33301 0.666992 -6 1 -8 1s-4 1 -6 3v296c0 10.667 -1.83301 21 -5.5 31
s-9.33398 19.167 -17.001 27.5s-17.167 15.333 -28.5 21s-24.666 9.5 -39.999 11.5c-15.333 0 -24 -4.66699 -26 -14z" />
    <glyph glyph-name="l" unicode="l" horiz-adv-x="210" 
d="M41 590c-7.33301 -26.667 -12.999 -55.8369 -16.999 -87.5039s-6 -68.5 -6 -110.5c0 -23.333 0.333008 -49 1 -77s1.5 -56.333 2.5 -85s2.5 -56.5 4.5 -83.5s4.66699 -51 8 -72s7.16602 -37.833 11.499 -50.5s9.16602 -19 14.499 -19c10 0 21.333 -2.16699 34 -6.5
s22 -6.5 28 -6.5c10 0 17.833 2.66699 23.5 8s10.334 12 14.001 20s6.5 16.5 8.5 25.5s4 17.167 6 24.5c0 12.667 2 24.667 6 36s7.33301 20.333 10 27l-7 -4l-2.5 2.5c-1 1 -1.83301 1.5 -2.5 1.5c-4 0 -8.83301 -3.5 -14.5 -10.5s-11.5 -10.5 -17.5 -10.5
c-4 0 -7 0.666992 -9 2s-3.66699 3.33301 -5 6c0 26 -0.166992 51.833 -0.5 77.5s-0.833008 49.334 -1.5 71.001s-1.16699 40.334 -1.5 56.001s-0.5 26.167 -0.5 31.5c0 12.667 0.5 27.834 1.5 45.501s2.33301 35.834 4 54.501s3 37 4 55s1.5 34 1.5 48
c0 21.333 -1.83301 38.833 -5.5 52.5s-10.167 20.5 -19.5 20.5h-1c-16 0 -28 -4.66699 -36 -14c-7.33301 -9.33301 -19.333 -18.333 -36 -27v-1z" />
    <glyph glyph-name="m" unicode="m" horiz-adv-x="693" 
d="M24 461c0 -4.66699 -0.668945 -12.832 -2.00195 -24.499s-2.66602 -24 -3.99902 -37l-4 -38c-1.33301 -12.333 -2 -21.166 -2 -26.499c0 -7.33301 0.166992 -18.833 0.5 -34.5s0.833008 -33.5 1.5 -53.5l2 -62.5c0.666992 -21.667 1.33398 -41.834 2.00098 -60.501
s1.16699 -34.834 1.5 -48.501s0.5 -22.834 0.5 -27.501l37 -47c6.66699 -6.66699 14 -10 22 -10c6.66699 0 12 3.33301 16 10c8.66699 13.333 19.167 32.166 31.5 56.499l39 76.5l40.5 75.5c13.333 23.667 25.666 41.834 36.999 54.501c14.667 0 22 -8 22 -24
c-0.666992 -19.333 -1.16699 -31.833 -1.5 -37.5s-0.5 -9.83398 -0.5 -12.501c0 -14 0.333008 -29.667 1 -47s2.33398 -33.5 5.00098 -48.5s6.5 -27.5 11.5 -37.5s11.833 -15 20.5 -15h4c1.33301 -1.33301 3.83301 -2.16602 7.5 -2.49902s5.83398 -0.5 6.50098 -0.5
c7.33301 0 14.5 4 21.5 12s14.5 17.5 22.5 28.5l26 34.5c9.33301 12 20 22 32 30c16 17.333 30 33.166 42 47.499s28 28.5 48 42.5c5.33301 0 9.16602 -3.16699 11.499 -9.5s3.5 -11.5 3.5 -15.5c0 -24 -0.5 -46.167 -1.5 -66.5s-1.5 -40.166 -1.5 -59.499
c0 -14.667 0.333008 -29.167 1 -43.5s2.83398 -27.166 6.50098 -38.499s9.66699 -20.5 18 -27.5s20.166 -10.5 35.499 -10.5c46 14 75.667 33.667 89 59c-2 8 -4 17.833 -6 29.5s-3.66699 23.667 -5 36s-2.33301 24.333 -3 36s-1 21.834 -1 30.501v20
c0 7.33301 0.333008 14 1 20c-2 24 -3.66699 46.167 -5 66.5s-3.66602 37.833 -6.99902 52.5s-8.16602 26.167 -14.499 34.5s-15.5 12.5 -27.5 12.5c-16.667 0 -33.834 -3 -51.501 -9s-35 -13.833 -52 -23.5s-33.667 -20.5 -50 -32.5s-31.5 -23.667 -45.5 -35
c-6.66699 16 -11 42.333 -13 79c-0.666992 18.667 -1.83398 34.167 -3.50098 46.5s-4.66699 22.166 -9 29.499s-11 12.333 -20 15s-20.833 4 -35.5 4c-4.66699 0 -8 0.166992 -10 0.5s-3.33301 0.5 -4 0.5c-39.333 -26.667 -71.333 -59.667 -96 -99
s-45.667 -82.333 -63 -129h-4l-3 -1c-0.666992 0 -1.83398 0.333008 -3.50098 1s-2.5 2 -2.5 4v33c0 9.33301 -0.166992 17.333 -0.5 24s-0.666016 12.667 -0.999023 18s-0.5 11 -0.5 17c-3.33301 42.667 -7.33301 75.667 -12 99c-20 32.667 -53.667 52.667 -101 60v-1z" />
    <glyph glyph-name="n" unicode="n" horiz-adv-x="477" 
d="M20 423c4 -21.333 7.50293 -41.1689 10.5029 -59.502s5.33301 -37 7 -56s2.83398 -39 3.50098 -60s1.33398 -44.833 2.00098 -71.5v-34c-8 -11.333 -12 -28.333 -12 -51c0 -32 6.33301 -55.333 19 -70s32 -22 58 -22l17 1c3.33301 10.667 6.16602 20.167 8.49902 28.5
l6.5 24c2 7.66699 3.5 15.834 4.5 24.501s1.83301 18.667 2.5 30l-2 60c0.666992 9.33301 5.5 21.833 14.5 37.5s19.5 31.834 31.5 48.501s24 32 36 46s22 24.333 30 31c15.333 0 23.666 -2.66699 24.999 -8c0.666992 -11.333 1.5 -27.166 2.5 -47.499s2.5 -42.333 4.5 -66
s4.83301 -47.667 8.5 -72s8.5 -46.5 14.5 -66.5s13.167 -36.333 21.5 -49s18.5 -19 30.5 -19c13.333 0 25.666 5.33301 36.999 16s21.166 22.834 29.499 36.501s14.833 26.834 19.5 39.501s7 20.667 7 24l-1 8l-17 -20.5c-2 -2.33301 -3.33301 -3.5 -4 -3.5
c-1.33301 0 -4.66602 0.666992 -9.99902 2s-8 2.66602 -8 3.99902c0 16.667 -0.833008 32.5 -2.5 47.5s-3.5 28.5 -5.5 40.5s-3.83301 22.167 -5.5 30.5s-2.5 14.166 -2.5 17.499c0 14 -1.33301 30.167 -4 48.5s-7.33398 35.833 -14.001 52.5s-15.834 30.667 -27.501 42
s-26.5 17 -44.5 17c-16 0 -32 -4.33301 -48 -13s-31 -18 -45 -28s-26.167 -19.333 -36.5 -28s-17.833 -13 -22.5 -13c-11.333 0 -19.5 4 -24.5 12s-7.5 16.667 -7.5 26c0 23.333 -8 40.666 -24 51.999s-33.333 17 -52 17l-31 -5v-1z" />
    <glyph glyph-name="o" unicode="o" horiz-adv-x="472" 
d="M20 208c0 -31.333 4.50293 -59.999 13.5029 -85.999s21.833 -48.333 38.5 -67s36.667 -33.167 60 -43.5s49 -15.5 77 -15.5c28.667 0 57.5 5.83301 86.5 17.5s55.167 27.5 78.5 47.5s42.166 43.167 56.499 69.5s21.5 54.166 21.5 83.499c0 24 -1.66699 47.667 -5 71
s-10 44 -20 62s-23.833 32.667 -41.5 44s-40.834 17 -69.501 17c-16 0 -32.333 -2.33301 -49 -7s-31.5 -11.5 -44.5 -20.5s-23.667 -20.167 -32 -33.5s-12.5 -28.666 -12.5 -45.999c0 -4 2 -7.83301 6 -11.5s8 -5.5 12 -5.5c23.333 9.33301 43.333 16.333 60 21s32 7 46 7
c16 0 30.667 -3 44 -9c-0.666992 -26 -3.5 -51.667 -8.5 -77s-13.667 -48 -26 -68s-29.166 -36.167 -50.499 -48.5s-49 -18.5 -83 -18.5c-13.333 0 -24.5 6.33301 -33.5 19s-16 27.667 -21 45s-8.5 35 -10.5 53s-3 32.667 -3 44c0 24.667 4.66699 46.167 14 64.5
s21.666 34.666 36.999 48.999s32.666 27.666 51.999 39.999l59 38.5c-38.667 0 -73.5 -7.66699 -104.5 -23s-57.5 -34.666 -79.5 -57.999s-38.833 -48.833 -50.5 -76.5s-17.5 -53.5 -17.5 -77.5v-1z" />
    <glyph glyph-name="p" unicode="p" horiz-adv-x="515" 
d="M22 437c-2 -2 -3.00195 -3.99902 -3.00195 -5.99902c0 -3.33301 1.5 -6.83301 4.5 -10.5s5.5 -6.5 7.5 -8.5c4.66699 -6 7.5 -10.333 8.5 -13s1.5 -5.33398 1.5 -8.00098c4.66699 -30 8.5 -60.333 11.5 -91s5.16699 -59 6.5 -85s2.33301 -48.833 3 -68.5
s1 -33.834 1 -42.501v-20l-6 -2c-2 0 -5.5 3 -10.5 9s-8.16699 9 -9.5 9c-4.66699 -1.33301 -7.5 -5.33301 -8.5 -12s-1.5 -10.667 -1.5 -12c0 -10.667 3.83301 -22.167 11.5 -34.5s15.834 -21.5 24.501 -27.5c2.66699 -10 4 -22.667 4 -38l-3 -51
c-0.666992 -11.333 -1 -19.666 -1 -24.999s0.833008 -12.833 2.5 -22.5s4.5 -19.334 8.5 -29.001s9.33301 -18.167 16 -25.5s15 -11 25 -11c7.33301 -4 15.166 -7.33301 23.499 -10s12.833 -4 13.5 -4c8.66699 0 15.667 2.66699 21 8l-12 178l10 11c20 -6 42.333 -9 67 -9
c21.333 0 46.666 3.83301 75.999 11.5s57.5 19 84.5 34s49.833 33.833 68.5 56.5s28 49 28 79c0 29.333 -3.33301 59 -10 89s-18.167 57.333 -34.5 82s-38.166 44.667 -65.499 60s-61.666 23 -102.999 23c-19.333 0 -35.833 -5.16699 -49.5 -15.5s-25.167 -23.5 -34.5 -39.5
s-17.5 -33.333 -24.5 -52s-13.833 -36 -20.5 -52c-6 0 -10.333 9 -13 27c-3.33301 20 -7.5 38.833 -12.5 56.5s-11.167 33.334 -18.5 47.001s-16.666 24.5 -27.999 32.5s-25.333 12 -42 12h-17zM156.998 167.001c0 20 2.33301 39.5 7 58.5s11.5 35.667 20.5 50
s20.333 26 34 35s29.5 13.5 47.5 13.5c39.333 0 68 -6.5 86 -19.5s27 -34.5 27 -64.5c0 -24 -7.83301 -47.167 -23.5 -69.5s-34.334 -42.166 -56.001 -59.499s-44.167 -31.333 -67.5 -42s-42.333 -16 -57 -16h-10c-2 26 -3.5 46.167 -4.5 60.5s-1.66699 25.333 -2 33
s-0.666016 12.667 -0.999023 15s-0.5 4.16602 -0.5 5.49902z" />
    <glyph glyph-name="q" unicode="q" horiz-adv-x="537" 
d="M415 460c-17.333 -5.33301 -32.002 -11.8311 -44.002 -19.498s-23.333 -19.834 -34 -36.501c-37.333 0 -74.833 -5.5 -112.5 -16.5s-71.667 -26.667 -102 -47s-55 -45.333 -74 -75s-28.5 -63.167 -28.5 -100.5c0 -20.667 3 -40.834 9 -60.501s14.667 -37.334 26 -53.001
s25.666 -28.167 42.999 -37.5s37 -14 59 -14c42 0 77 8 105 24s49.667 37.667 65 65c2.66699 -3.33301 4.83398 -7 6.50098 -11s2.5 -8.66699 2.5 -14c-1.33301 -21.333 -2.33301 -35.5 -3 -42.5s-1 -12.5 -1 -16.5c0 -9.33301 1.83301 -17.833 5.5 -25.5
s5.5 -16.834 5.5 -27.501l-9 -64.5c-2 -13.667 -3 -21.5 -3 -23.5c0 -20.667 5.83301 -35.5 17.5 -44.5s30.167 -13.5 55.5 -13.5c10.667 0 18.334 1.33301 23.001 4c5.33301 36.667 11.666 72.334 18.999 107.001s14.666 66.834 21.999 96.501s14.333 55.834 21 78.501
s12.334 40.667 17.001 54v23c0 7.33301 1.66699 12.833 5 16.5s5 7.5 5 11.5c0 2.66699 -1.33301 6 -4 10s-5.66699 7 -9 9c-1.33301 0 -3.33301 -2.33301 -6 -7s-5.33398 -9.66699 -8.00098 -15s-4.83398 -10.666 -6.50098 -15.999s-2.5 -8.33301 -2.5 -9
c0 -6.66699 -1.83301 -14 -5.5 -22s-7.5 -15.833 -11.5 -23.5s-7.83301 -14.667 -11.5 -21s-5.5 -11.5 -5.5 -15.5c-2 -6.66699 -4.33301 -12.5 -7 -17.5s-6.66699 -7.5 -12 -7.5c-1.33301 0 -2.66602 0.166992 -3.99902 0.5s-2 0.833008 -2 1.5
c0 4.66699 -0.166992 13.167 -0.5 25.5s-0.666016 26.666 -0.999023 42.999s-0.833008 33.833 -1.5 52.5s-1.16699 36.5 -1.5 53.5s-0.666016 32.333 -0.999023 46s-0.5 23.834 -0.5 30.501c0 3.33301 1.83301 6.83301 5.5 10.5s6.83398 5.5 9.50098 5.5
c4 0 7.83301 -0.5 11.5 -1.5s6.5 -1.5 8.5 -1.5c8 0 12 3 12 9c0 8.66699 -2.16699 16.667 -6.5 24s-9 14.166 -14 20.499s-9.5 12.833 -13.5 19.5s-6 14 -6 22c0 7.33301 1.66699 13.666 5 18.999s5 9.33301 5 12zM131.998 123.002c2 16 6.99902 36.002 14.999 60.002
s19 47.167 33 69.5s31.5 41.5 52.5 57.5s45.5 24 73.5 24c7.33301 0 13.833 -1 19.5 -3s8.5 -5.66699 8.5 -11c0 -6 -0.166992 -13.667 -0.5 -23l-1 -28.5c-0.333008 -9.66699 -0.666016 -18.834 -0.999023 -27.501s-0.5 -15.334 -0.5 -20.001
c0 -19.333 -5.66699 -37.833 -17 -55.5s-25.5 -33 -42.5 -46s-35.333 -23.333 -55 -31s-38.167 -11.5 -55.5 -11.5c-14.667 0 -23.167 4.33301 -25.5 13s-3.5 19.667 -3.5 33z" />
    <glyph glyph-name="r" unicode="r" horiz-adv-x="325" 
d="M20 417c0.666992 -2 1.6709 -6.33203 3.00391 -12.999c7.33301 -38 13.166 -71.167 17.499 -99.5s7.16602 -53.166 8.49902 -74.499c0 -43.333 -1.83301 -77.833 -5.5 -103.5s-5.5 -45.834 -5.5 -60.501c0 -13.333 3.33301 -24.833 10 -34.5s14.5 -17.834 23.5 -24.501
s18.167 -11.5 27.5 -14.5s16.666 -4.5 21.999 -4.5c24.667 0 37 7.66699 37 23c0 8 -1 17 -3 27s-3 20 -3 30c0 12.667 -0.166992 28.334 -0.5 47.001s-0.833008 37 -1.5 55s-1.16699 34 -1.5 48s-0.5 22.667 -0.5 26c0 50.667 23.667 76 71 76
c11.333 0 21.5 -2.83301 30.5 -8.5s13.5 -17.5 13.5 -35.5c0 -13.333 -4 -29 -12 -47c-8.66699 -18.667 -13.334 -34.334 -14.001 -47.001l7 -1c16 38 29.167 75.333 39.5 112s17.5 72.334 21.5 107.001c-1.33301 5.33301 -5.33301 9.66602 -12 12.999s-14.834 6 -24.501 8
s-20 3.33301 -31 4s-21.167 1 -30.5 1c-6 -5.33301 -11.5 -13.5 -16.5 -24.5l-14.5 -33c-4.66699 -11 -9.33398 -20.667 -14.001 -29s-10 -12.5 -16 -12.5c-4.66699 0 -8.33398 5.33301 -11.001 16c-3.33301 10 -6.16602 20 -8.49902 30s-5.66602 19 -9.99902 27
s-10.666 14.5 -18.999 19.5s-20.166 7.5 -35.499 7.5c-12.667 2.66699 -21.834 4.66699 -27.501 6l-8.5 2z" />
    <glyph glyph-name="s" unicode="s" horiz-adv-x="435" 
d="M53 290c2.66699 -31.333 12.9902 -54.1641 30.9902 -68.4971s39.333 -24.5 64 -30.5s50.334 -10.5 77.001 -13.5s49.667 -8.83301 69 -17.5l4 -14c-12 -9.33301 -27.333 -18 -46 -26s-37.5 -15 -56.5 -21s-37 -10.667 -54 -14s-29.833 -5 -38.5 -5
c-12 0 -22 1.33301 -30 4c4.66699 9.33301 11 15.333 19 18s19.333 6.66699 34 12l6 2h5c8.66699 2.66699 14.834 5.5 18.501 8.5s11.5 5.16699 23.5 6.5h2l4 2c2.66699 0 5.66699 0.5 9 1.5s5 2.16699 5 3.5h-4l-4 2c-28 -6 -52.667 -10.833 -74 -14.5
s-39.166 -7.5 -53.499 -11.5s-25.166 -9 -32.499 -15s-11 -14.667 -11 -26c0 -15.333 8.16699 -28.166 24.5 -38.499s35 -18.833 56 -25.5s41.833 -11.334 62.5 -14.001s35 -4 43 -4c28.667 0 55.834 2 81.501 6s47.834 11.167 66.501 21.5s33.5 24 44.5 41
s16.5 38.5 16.5 64.5c0 17.333 -3.66699 32.166 -11 44.499s-17 22.666 -29 30.999s-25.667 15.5 -41 21.5s-31 11 -47 15c-11.333 2.66699 -23.5 5.33398 -36.5 8.00098l-39.5 8.5c-13.333 3 -26.166 6.33301 -38.499 10s-22.833 8.16699 -31.5 13.5
c10.667 18.667 25.334 33.167 44.001 43.5s37.834 18 57.501 23s38.334 8.16699 56.001 9.5s30.834 2 39.501 2c21.333 0 43.666 -5 66.999 -15c-14 33.333 -32.833 56.166 -56.5 68.499s-53.167 18.5 -88.5 18.5c-20 0 -41 -1.83301 -63 -5.5
s-42.167 -9.33398 -60.5 -17.001s-33.5 -17.167 -45.5 -28.5s-18 -25 -18 -41c0 -26 -6.66699 -40.667 -20 -44z" />
    <glyph glyph-name="t" unicode="t" horiz-adv-x="343" 
d="M98 632c0 -18 0.661133 -34.333 1.99414 -49s2.83301 -28.5 4.5 -41.5s3.16699 -25.667 4.5 -38s2 -24.5 2 -36.5c0 -20 -3 -33.167 -9 -39.5s-15.333 -9.5 -28 -9.5c-20.667 0 -34.834 -4.33301 -42.501 -13s-11.5 -19.667 -11.5 -33
c0 -11.333 0.833008 -22.333 2.5 -33s4.33398 -20.167 8.00098 -28.5s8.66699 -15.166 15 -20.499s14.5 -8 24.5 -8c4.66699 0 7 0.666992 7 2c-0.666992 2.66699 -1.16699 4.5 -1.5 5.5s-0.833008 2.16699 -1.5 3.5c-5.33301 4 -8.66602 8 -9.99902 12s-2 7 -2 9
s1.33301 4.83301 4 8.5s5.66699 5.5 9 5.5h10l5 2c10 0 17.333 -3.33301 22 -10l10 -262c8.66699 -16 19.834 -29.167 33.501 -39.5s28.334 -18.5 44.001 -24.5s31 -10.167 46 -12.5s27.833 -3.5 38.5 -3.5l-12 19c0 4 1.33301 8.33301 4 13s5.66699 9.16699 9 13.5l9 12
c2.66699 3.66699 4 6.5 4 8.5c-26 30 -43 56.167 -51 78.5s-12.333 37.833 -13 46.5l-10 138c2 11.333 9.33301 17 22 17c9.33301 0 16.666 -0.333008 21.999 -1s10.666 -1 15.999 -1c10 0 19 7.66699 27 23s12 33.666 12 54.999c0 10.667 -3.16699 18 -9.5 22
s-12.833 6 -19.5 6c-16 0 -27.667 -1.16699 -35 -3.5s-12.666 -3.5 -15.999 -3.5c-11.333 0 -18.666 4 -21.999 12s-5 18 -5 30s-0.5 24.833 -1.5 38.5s-2.16699 26.667 -3.5 39s-3.16602 23 -5.49902 32s-4.83301 14.833 -7.5 17.5l-33 32.5
c-11.333 11 -23.666 16.5 -36.999 16.5c-8 0 -14.167 -0.5 -18.5 -1.5s-8.16602 -2.5 -11.499 -4.5v-1z" />
    <glyph glyph-name="u" unicode="u" horiz-adv-x="492" 
d="M115 425c-5.33301 2 -11.3369 4.66699 -18.0039 8s-13.5 6.5 -20.5 9.5s-13.833 5.66699 -20.5 8s-12.334 3.5 -17.001 3.5c-5.33301 0 -11.666 -1.33301 -18.999 -4c6 -16.667 11.167 -40.167 15.5 -70.5s7.83301 -62.833 10.5 -97.5s4.66699 -69 6 -103
s2 -62.667 2 -86c4 -11.333 10 -21.666 18 -30.999s16.667 -17.833 26 -25.5s18.666 -14.167 27.999 -19.5s17.333 -9.33301 24 -12c16.667 1.33301 32.167 6.16602 46.5 14.499s28 18.666 41 30.999s25.833 26.333 38.5 42l40 47.5l12 -2l4 -8
c1.33301 -2.66699 2 -5.66699 2 -9c0 -8 -0.166992 -17.167 -0.5 -27.5s-0.666016 -20.166 -0.999023 -29.499s-0.666016 -17.166 -0.999023 -23.499s-0.5 -9.83301 -0.5 -10.5c0 -18.667 6.33301 -35.167 19 -49.5s36 -21.5 70 -21.5c6 -2 13.333 -3 22 -3
c0.666992 0 2.66699 0.166992 6 0.5s6.83301 0.833008 10.5 1.5s6.83398 1.5 9.50098 2.5s4 2.5 4 4.5c0 5.33301 -2 11.166 -6 17.499s-6.33301 13.5 -7 21.5c-14 112.667 -21 192.667 -21 240c0 23.333 0.5 40.5 1.5 51.5s3.16699 19.833 6.5 26.5
c10 13.333 16.333 25.5 19 36.5s4 17.833 4 20.5s-3.16699 6.16699 -9.5 10.5s-14 8.66602 -23 12.999s-18 8 -27 11s-15.5 4.5 -19.5 4.5c-11.333 0 -22.666 -5.33301 -33.999 -16c-2 -8 -6.33301 -19.5 -13 -34.5s-15.167 -31.167 -25.5 -48.5s-22 -35 -35 -53
s-26.5 -34.333 -40.5 -49s-28.167 -26.667 -42.5 -36s-28.166 -14 -41.499 -14c-7.33301 0 -12 2.66699 -14 8c0 27.333 -0.333008 51.5 -1 72.5s-1.66699 40 -3 57s-2.66602 32.833 -3.99902 47.5l-4 43c-2.66699 8 -5.33398 14.333 -8.00098 19
s-5.66699 8.33398 -9 11.001z" />
    <glyph glyph-name="v" unicode="v" horiz-adv-x="426" 
d="M21 424c0 -12 3.00293 -28.665 9.00293 -49.998s12.667 -42.833 20 -64.5l21 -60c6.66699 -18.333 11 -30.5 13 -36.5c7.33301 -16 13.666 -30.833 18.999 -44.5s11 -26 17 -37s12.5 -20.333 19.5 -28s16.167 -13.167 27.5 -16.5
c8.66699 -8.66699 14.834 -17.167 18.501 -25.5l10 -23c3 -7 7 -13.5 12 -19.5s13.167 -11 24.5 -15l22.5 -9.5c2.33301 -1 4.16602 -1.5 5.49902 -1.5c6 0 12.667 5.33301 20 16s15 24 23 40s16 33.333 24 52s15.167 36.5 21.5 53.5l16 44
c4.33301 12.333 7.16602 19.833 8.49902 22.5c8.66699 19.333 16.334 37.166 23.001 53.499s10 34.166 10 53.499c0 26.667 -8 48.667 -24 66s-36.667 26 -62 26c-10.667 0 -19.334 -1.83301 -26.001 -5.5s-12 -7.66699 -16 -12s-7 -8.66602 -9 -12.999
s-3.66699 -7.5 -5 -9.5c-22.667 -34.667 -34 -62 -34 -82v-3c5.33301 5.33301 10.333 11.666 15 18.999l14 21c4.66699 6.66699 9.66699 12.667 15 18s11.333 9 18 11c0 -12.667 -2.66699 -28.834 -8 -48.501s-11.833 -40.167 -19.5 -61.5s-16 -42.166 -25 -62.499
s-17.167 -37.5 -24.5 -51.5l-13 -8c-18.667 54 -34.834 103.333 -48.501 148s-26.5 81 -38.5 109l-41 28.5l-22 15.5c-4.66699 3.33301 -7.66699 5.33301 -9 6s-2.33301 1 -3 1c-8.66699 0 -14 -1.66699 -16 -5s-3 -7 -3 -11z" />
    <glyph glyph-name="w" unicode="w" horiz-adv-x="706" 
d="M136 426c-2 0 -6.66016 0.666016 -13.9932 1.99902s-15.333 2.66602 -24 3.99902s-17 2.5 -25 3.5s-13 1.5 -15 1.5c-17.333 0 -30 -4.33301 -38 -13c3.33301 -6.66699 8.66602 -19.167 15.999 -37.5l25.5 -64.5c9.66699 -24.667 19.5 -51.167 29.5 -79.5l28 -81.5
c8.66699 -26 15.667 -49.5 21 -70.5s8 -36.5 8 -46.5l24 -34c9.33301 0 18.166 1.83301 26.499 5.5s15.666 8.5 21.999 14.5s11.333 12.833 15 20.5s5.5 15.5 5.5 23.5s1.5 16.667 4.5 26s7 18.5 12 27.5s10.833 17 17.5 24s13.667 12.167 21 15.5
c6.66699 -6 14.5 -17.167 23.5 -33.5s17.5 -33 25.5 -50s14.833 -32.167 20.5 -45.5l8.5 -20c5.33301 0 11 1.5 17 4.5s11.667 6.16699 17 9.5s10.166 6.5 14.499 9.5s7.5 4.5 9.5 4.5h4c0 -10.667 -3.66699 -21 -11 -31s-11 -19.333 -11 -28c0 -6.66699 3 -12.167 9 -16.5
s16.333 -6.5 31 -6.5c4.66699 0 12.834 0.833008 24.501 2.5s23.667 5 36 10s23.333 12.5 33 22.5s14.5 23 14.5 39c0 15.333 4.33301 26.833 13 34.5l21 18.5l27.5 52.5c10.333 19 20.166 38.833 29.499 59.5s17.166 41.5 23.499 62.5s9.5 41.167 9.5 60.5
c0 9.33301 -1 19.666 -3 30.999s-6 21.833 -12 31.5s-14.167 17.834 -24.5 24.501s-23.833 10 -40.5 10c-5.33301 0 -9.16602 -0.5 -11.499 -1.5s-4.83301 -1.5 -7.5 -1.5l-67 -226c-11.333 -22.667 -21.5 -39 -30.5 -49s-22.167 -15 -39.5 -15h-6
c-16 32.667 -27.667 61.334 -35 86.001s-13 48 -17 70s-7.33301 43.833 -10 65.5s-7 45.834 -13 72.501c-30.667 -2 -52.334 -13.333 -65.001 -34c-5.33301 -10 -9.83301 -25 -13.5 -45s-7.66699 -40 -12 -60s-9.83301 -37.667 -16.5 -53s-16 -23 -28 -23
c-6.66699 0 -11.334 2.33301 -14.001 7c-20.667 38.667 -37.834 77 -51.501 115s-24.5 69.667 -32.5 95z" />
    <glyph glyph-name="x" unicode="x" horiz-adv-x="487" 
d="M146 432c-6 0 -13.832 -2.67188 -23.499 -8.00488s-14.5 -12.666 -14.5 -21.999c0 -28 5.33301 -57.167 16 -87.5s22.334 -55.833 35.001 -76.5c-4.66699 -11.333 -12.834 -23.166 -24.501 -35.499s-24.5 -24.833 -38.5 -37.5l-41.5 -36
c-13.667 -11.333 -24.5 -21.666 -32.5 -30.999c0 -10.667 2 -22.5 6 -35.5s9 -25.333 15 -37s12.667 -21.5 20 -29.5s14.666 -12 21.999 -12c2 0 6.5 2.33301 13.5 7s14.167 9.83398 21.5 15.501s13.833 11 19.5 16s8.5 8.16699 8.5 9.5
c-5.33301 2.66699 -9 4.83398 -11 6.50098s-3 3.5 -3 5.5c0 10.667 4.66699 21 14 31s19.666 18.5 30.999 25.5s21.5 12.667 30.5 17s13.167 6.5 12.5 6.5c12 0 23.667 -5.16699 35 -15.5s22.333 -21.833 33 -34.5s21 -24.167 31 -34.5s19.667 -15.5 29 -15.5
c14.667 0 27.5 5.5 38.5 16.5s20 24.167 27 39.5s12.167 31.166 15.5 47.499s5 30.166 5 41.499c0 15.333 1.66699 29.833 5 43.5s6.83301 26.834 10.5 39.501s7.16699 25.5 10.5 38.5s5 26.833 5 41.5c0 18 -5 33.833 -15 47.5s-26 20.5 -48 20.5c-26 0 -62 -18 -108 -54
c-4 -3.33301 -8.33301 -7.16602 -13 -11.499l-14 -12.5c-4.66699 -4 -9.16699 -7.5 -13.5 -10.5s-8.16602 -4.5 -11.499 -4.5c-6.66699 0 -13.667 3 -21 9s-14.5 13.167 -21.5 21.5s-13.333 17 -19 26s-9.5 16.5 -11.5 22.5l-17 46h-8zM385.001 107.995
c-14 5.33301 -27.998 16.5 -41.998 33.5l-43 52.5c3.33301 6.66699 10.666 15.667 21.999 27s23.5 22.5 36.5 33.5s25.333 20.667 37 29s19.5 12.5 23.5 12.5h11c4 0 6 -3.33301 6 -10c0 -24 -0.5 -44 -1.5 -60s-3.33301 -30.333 -7 -43s-8.83398 -24.667 -15.501 -36
s-15.667 -24.333 -27 -39z" />
    <glyph glyph-name="y" unicode="y" horiz-adv-x="467" 
d="M29 350c0.666992 -22 2.00293 -43.6631 4.00293 -64.9961s5.83301 -42.333 11.5 -63s13.334 -40.834 23.001 -60.501s22.834 -38.834 39.501 -57.501c25.333 -29.333 39 -52.333 41 -69l-92 -142.5c-24 -35.667 -36 -59.167 -36 -70.5c0 -14.667 6.66699 -27.667 20 -39
s28.666 -17 45.999 -17c6 0 14.667 1.66699 26 5s22.666 7 33.999 11s22 8.16699 32 12.5s17 7.5 21 9.5l5 15c-6.66699 8.66699 -10 18.334 -10 29.001c0 10 2.5 20.667 7.5 32s11.167 21.666 18.5 30.999s15.166 17.166 23.499 23.499s15.833 9.5 22.5 9.5
c12 0 24 4 36 12s23.167 17.5 33.5 28.5s19.666 22 27.999 33l18.5 24.5c0.666992 16.667 2.33398 38.5 5.00098 65.5s6.5 56.333 11.5 88s11.5 64.167 19.5 97.5s17.667 64.666 29 93.999c0 11.333 -4.5 21 -13.5 29s-24.167 13.667 -45.5 17h-1c-10 -4 -20 -12 -30 -24
s-20 -26.167 -30 -42.5s-20 -33.833 -30 -52.5l-28.5 -54c-9 -17.333 -17.833 -33.166 -26.5 -47.499s-16.667 -25.166 -24 -32.499c-26.667 14 -46.167 31.5 -58.5 52.5s-22.333 42.5 -30 64.5s-15.334 42.833 -23.001 62.5s-19.834 35.167 -36.501 46.5
c-8.66699 0 -15.667 -1.83301 -21 -5.5s-9.5 -8.33398 -12.5 -14.001s-5 -11.834 -6 -18.501s-1.5 -12.667 -1.5 -18zM344.003 68.0039l-6.00098 -2c-8.66699 0 -13 4.66699 -13 14c0 10.667 2.33301 22.667 7 36s10.334 26.833 17.001 40.5s14 27 22 40l21 33.5
c-2.66699 -32 -8 -62.5 -16 -91.5s-18.667 -52.5 -32 -70.5z" />
    <glyph glyph-name="z" unicode="z" horiz-adv-x="457" 
d="M384 404c-4 -2 -7.33203 -3.00488 -9.99902 -3.00488c-3.33301 0 -6 0.5 -8 1.5s-3.66699 1.5 -5 1.5c-10 -2.66699 -26.5 -5 -49.5 -7s-48.5 -3.66699 -76.5 -5s-56.167 -2.33301 -84.5 -3s-52.5 -1 -72.5 -1l-37 16c-2.66699 -3.33301 -4 -7.33301 -4 -12
c0 -1.33301 1 -5.33301 3 -12s3 -12 3 -16l-4 -15c0 -6.66699 4 -12.5 12 -17.5s14.333 -7.5 19 -7.5l235 12l8 -12l-83 -72l-89 -12c-4 -1.33301 -6.66699 -2 -8 -2c-9.33301 0 -17.833 1.66699 -25.5 5s-13.834 5 -18.501 5s-8.83398 -1.66699 -12.501 -5
s-5.5 -7.66602 -5.5 -12.999c0 -12.667 5.16699 -24.334 15.5 -35.001s21.833 -20.667 34.5 -30c-6.66699 -6 -15.5 -12.333 -26.5 -19l-33 -19.5c-11 -6.33301 -20.5 -12.666 -28.5 -18.999s-12 -12.166 -12 -17.499c0 -35.333 12.333 -65.333 37 -90
c18.667 0 38.5 0.5 59.5 1.5s40.333 2 58 3s32.834 2 45.501 3s20 1.5 22 1.5c24.667 1.33301 48.667 4.83301 72 10.5s44 13.5 62 23.5s32.5 21.667 43.5 35s16.5 28.333 16.5 45c0 14 -3 25 -9 33s-12.667 14.333 -20 19s-14 8.16699 -20 10.5s-9 4.5 -9 6.5
c2 2.66699 5.66699 6.83398 11 12.501s10.833 11.834 16.5 18.501s10.5 13 14.5 19s6 11 6 15l-14 17c-10 -16 -30.667 -24 -62 -24c-21.333 0 -35.5 -0.166992 -42.5 -0.5s-10.833 -0.5 -11.5 -0.5l-14 9c8 12 17.5 22.667 28.5 32s22.167 17.833 33.5 25.5
s22 14.5 32 20.5s18 12 24 18c0 10.667 -1 19.834 -3 27.501s-6.66699 15.167 -14 22.5zM408.001 157.995c0 -12.667 -5.49805 -22.667 -16.498 -30s-27.833 -12.666 -50.5 -15.999s-51 -5.5 -85 -6.5s-74.333 -1.5 -121 -1.5h-18c2 4 4.83301 8.83301 8.5 14.5
s8 11.5 13 17.5s10.5 11.667 16.5 17s12 9.66602 18 12.999c34 4 59.5 6.66699 76.5 8s27.833 2 32.5 2c31.333 0 55.666 -0.5 72.999 -1.5s31.666 -3.16699 42.999 -6.5z" />
    <glyph glyph-name="braceleft" unicode="{" horiz-adv-x="504" 
d="M20 261c0 -38 4.16797 -73.0029 12.501 -105.003s21.5 -59.5 39.5 -82.5s41.333 -41 70 -54s63 -19.5 103 -19.5c18.667 0 30 1 34 3s6 4.66699 6 8c0 7.33301 -2.33301 17.5 -7 30.5s-10.334 26.167 -17.001 39.5s-13.667 25.5 -21 36.5s-13.333 18.5 -18 22.5
c-7.33301 6 -16.333 10 -27 12s-21 3.83301 -31 5.5s-18.667 4.16699 -26 7.5s-11 9 -11 17c0 52.667 8.83301 100.5 26.5 143.5s39.667 81.833 66 116.5s55 65.334 86 92.001s59.667 49.834 86 69.501l66 49c17.667 13 26.5 23.167 26.5 30.5c0 15.333 -12 23 -36 23
c-3.33301 0 -10.166 0.333008 -20.499 1s-22 1.33398 -35 2.00098l-40 2c-13.667 0.666992 -25.834 1 -36.501 1c-56 0 -99.333 -12.333 -130 -37c9.33301 -4.66699 17.666 -7 24.999 -7c5.33301 0 10.833 -0.666992 16.5 -2s8.5 -3.33301 8.5 -6
c0 -5.33301 -1.16699 -9 -3.5 -11s-5.16602 -4 -8.49902 -6c-29.333 -16.667 -56.5 -39.5 -81.5 -68.5s-46.5 -60.833 -64.5 -95.5s-32.167 -71 -42.5 -109s-15.5 -74.333 -15.5 -109z" />
    <glyph glyph-name="FLW124" unicode="|" horiz-adv-x="165" 
d="M48 712c-6.66699 -2.66699 -12.499 -5.16699 -17.499 -7.5s-7.83301 -6.83301 -8.5 -13.5c8 -108 12 -243 12 -405l8 -90c0 -23.333 -2.16699 -47.166 -6.5 -71.499s-9.5 -45.833 -15.5 -64.5c2.66699 -6 7.5 -12.667 14.5 -20s14.833 -14.166 23.5 -20.499
s17.5 -11.5 26.5 -15.5s16.833 -6 23.5 -6c11.333 0 18 5.33301 20 16c1.33301 9.33301 2.33301 17.666 3 24.999s1 13.666 1 18.999c0 10.667 -0.666992 18.667 -2 24s-2 12.666 -2 21.999c0 8.66699 0.833008 18.667 2.5 30s3.66699 22.666 6 33.999
s4.33301 21.833 6 31.5s2.5 16.834 2.5 21.501c0 -0.666992 -0.333008 -1 -1 -1v0h-3c-0.666992 0 -3 1 -7 3s-6 3.66699 -6 5c-0.666992 55.333 -1.33398 104 -2.00098 146s-1.5 79.333 -2.5 112s-2.16699 61.334 -3.5 86.001s-2.66602 47.667 -3.99902 69
c-2.66699 10 -5.5 17.333 -8.5 22s-6.5 8.5 -10.5 11.5s-8.33301 5.83301 -13 8.5s-9.33398 7 -14.001 13l-1 2c-2.66699 0 -6.5 2 -11.5 6s-8.16699 6.66699 -9.5 8z" />
    <glyph glyph-name="FLW125" unicode="}" horiz-adv-x="504" 
d="M20 29c0 -15.333 11.9971 -23.002 35.9971 -23.002c4 0 11.167 -0.333008 21.5 -1s22 -1.33398 35 -2.00098l40 -2c13.667 -0.666992 25.5 -1 35.5 -1c56 0 99.333 12.333 130 37c-33.333 6.66699 -50 11.667 -50 15c0 5.33301 1.33301 10 4 14s5.66699 7.33301 9 10
c26.667 22 52.334 47.333 77.001 76s46.334 59.334 65.001 92.001s33.5 66.667 44.5 102s16.5 70.333 16.5 105c0 84.667 -23.333 156.334 -70 215.001c-12.667 6.66699 -27.5 12.834 -44.5 18.501s-34.333 10.5 -52 14.5s-34.667 7.16699 -51 9.5s-29.833 3.5 -40.5 3.5
c-4.66699 0 -7 -3.66699 -7 -11s2.33301 -17.5 7 -30.5s10.334 -26.167 17.001 -39.5s13.5 -25.5 20.5 -36.5s13.167 -18.5 18.5 -22.5c7.33301 -6 16.333 -10 27 -12s21 -3.83301 31 -5.5s18.667 -4.16699 26 -7.5s11 -9 11 -17c0 -90 -19.167 -169.667 -57.5 -239
s-98.833 -127.333 -181.5 -174c-8 -4.66699 -18.667 -10.167 -32 -16.5s-26.333 -13.5 -39 -21.5s-23.667 -16.167 -33 -24.5s-14 -16.833 -14 -25.5z" />
    <glyph glyph-name="nonbreakingspace" unicode="&#xa0;" horiz-adv-x="500" 
 />
    <glyph glyph-name="FLW167" unicode="&#xa7;" horiz-adv-x="287" 
d="M107 245c-1.33301 -5.33301 -2.49609 -14.002 -3.49609 -26.002s-1.5 -22.667 -1.5 -32c-12.667 -4 -24.334 -10.833 -35.001 -20.5s-16 -21.834 -16 -36.501v-1c0 -17.333 -3.33301 -27 -10 -29c0 -18 3.83301 -32 11.5 -42s17.167 -17.667 28.5 -23
s23.5 -9.5 36.5 -12.5s25.167 -6.5 36.5 -10.5c0 -12 -2 -21.5 -6 -28.5s-9 -12.5 -15 -16.5s-12.5 -6.66699 -19.5 -8s-13.833 -2 -20.5 -2c-28.667 0 -52.334 6 -71.001 18c0 -1.33301 1.5 -6.16602 4.5 -14.499s8.16699 -21.833 15.5 -40.5
c17.333 -8 31.333 -13.5 42 -16.5s20.667 -4.5 30 -4.5c32 0 56.167 7.66699 72.5 23s24.5 37.333 24.5 66c0 6 -0.833008 11.5 -2.5 16.5s-2.83398 8.83301 -3.50098 11.5c10.667 2.66699 20 7.33398 28 14.001s14.5 14.167 19.5 22.5s8.66699 17 11 26
s3.5 17.167 3.5 24.5c0 20.667 -5 36.834 -15 48.501s-21.833 20.5 -35.5 26.5s-27.5 10.333 -41.5 13s-25.333 5.33398 -34 8.00098c4 12.667 10.167 23 18.5 31s17.166 14 26.499 18s18.166 6.66699 26.499 8s14.5 2 18.5 2c4.66699 0 9.66699 -0.833008 15 -2.5
s10.333 -3.83398 15 -6.50098c-8 38.667 -30.333 58 -67 58c-18 0 -35.667 -5.16699 -53 -15.5s-28.666 -25.833 -33.999 -46.5zM83.0039 90.998c7.33301 19.333 18.168 32.666 32.501 39.999s30.166 11 47.499 11c10.667 0 21.167 -1.16699 31.5 -3.5
s15.5 -6.16602 15.5 -11.499c0 -12.667 -1.5 -22.834 -4.5 -30.501s-6.83301 -13.667 -11.5 -18s-10 -7.33301 -16 -9s-12.333 -2.5 -19 -2.5c-19.333 0 -35.5 1.33301 -48.5 4s-22.167 9.33398 -27.5 20.001z" />
    <glyph glyph-name="Agrave" unicode="&#xc0;" horiz-adv-x="790" 
d="M376 712l-38.0039 -72l-43 -87.5l-44 -94.5l-41.5 -92l-35.5 -82l-26 -63c-7.33301 -0.666992 -18.166 -1.16699 -32.499 -1.5s-28.5 -1.16602 -42.5 -2.49902s-26.333 -3.33301 -37 -6s-16 -6.33398 -16 -11.001c6 -15.333 16.5 -29.666 31.5 -42.999
s30.5 -21.666 46.5 -24.999c0 -15.333 -2.5 -29.833 -7.5 -43.5s-7.5 -25.167 -7.5 -34.5c0 -5.33301 2.83301 -10.666 8.5 -15.999s12.5 -10.166 20.5 -14.499s16.5 -7.83301 25.5 -10.5s16.833 -4 23.5 -4c8 0 16.333 4.33301 25 13s16.334 18.5 23.001 29.5
s12.167 21.667 16.5 32s6.5 17.166 6.5 20.499c9.33301 0 20.5 -0.5 33.5 -1.5s21.5 -1.5 25.5 -1.5c50.667 -19.333 110.834 -37.333 180.501 -54s151.5 -32.334 245.5 -47.001c18 0 27 6.66699 27 20c0 6.66699 -3.66699 16.5 -11 29.5l-24.5 42.5
c-9 15.333 -17.167 30.666 -24.5 45.999s-11 28.666 -11 39.999c0 6 1.83301 9.83301 5.5 11.5s6.16699 2.5 7.5 2.5c12.667 -1.33301 22.834 -2.16602 30.501 -2.49902s13.5 -0.666016 17.5 -0.999023s6.66699 -0.5 8 -0.5h6c10.667 0 18 2 22 6
c-16.667 12.667 -30.167 23.667 -40.5 33l-26 23c-7 6 -12.667 10.5 -17 13.5s-8.5 4.5 -12.5 4.5l-26 -8c-9.33301 8.66699 -18.333 21.667 -27 39s-17 36.666 -25 57.999s-15.833 43.666 -23.5 66.999s-14.5 46 -20.5 68l-16 61
c-4.66699 18.667 -8.66699 33.334 -12 44.001c-3.33301 12 -6.5 22.5 -9.5 31.5s-6.5 16.833 -10.5 23.5s-9 12 -15 16s-14 7.66699 -24 11c-20 10 -37.333 17.667 -52 23s-27 8.66602 -37 9.99902zM424.996 521c3.33301 -4.66699 7.83496 -12.833 13.502 -24.5l19 -41
c7 -15.667 14 -32.5 21 -50.5s13.5 -35.5 19.5 -52.5s10.833 -32.5 14.5 -46.5s5.5 -24.667 5.5 -32s-1.66699 -11 -5 -11c-10 -4 -25.333 -7 -46 -9s-42.5 -3.83301 -65.5 -5.5l-66 -5c-21 -1.66699 -37.5 -4.16699 -49.5 -7.5c4.66699 9.33301 9.16699 18.833 13.5 28.5
s8.5 19.5 12.5 29.5l37 89.5c10.667 25 20.167 46.333 28.5 64s15.666 32.5 21.999 44.5s12.166 22 17.499 30h8v-1zM627.998 84.001c0 -10.667 -5.33789 -16.001 -16.0049 -16.001c-7.33301 0 -12.166 0.333008 -14.499 1s-3.83301 1 -4.5 1c-15.333 0 -33.833 1 -55.5 3
s-44.167 4.5 -67.5 7.5s-46.666 6.16699 -69.999 9.5s-44.166 6.83301 -62.499 10.5s-33.166 6.83398 -44.499 9.50098s-17 4.66699 -17 6v9c30.667 2 57.334 5 80.001 9s44 8.33301 64 13s39.667 8.66699 59 12s41.666 5 66.999 5c16.667 0 31.167 -3.66699 43.5 -11
s18.5 -17.333 18.5 -30c4.66699 -17.333 11.334 -30.333 20.001 -39z" />
    <glyph glyph-name="Aacute" unicode="&#xc1;" horiz-adv-x="652" 
d="M27 648c-4.66699 -4.66699 -6.99707 -10.667 -6.99707 -18c0 -14.667 2.5 -28.5 7.5 -41.5s10.667 -24.667 17 -35s12.666 -19.166 18.999 -26.499s11.166 -12.333 14.499 -15c30.667 -60 63.334 -97.333 98.001 -112c4 -8.66699 7.66699 -19.834 11 -33.501
s6.16602 -28.5 8.49902 -44.5s4.16602 -32.833 5.49902 -50.5s2 -34.834 2 -51.501c0 -36.667 -3 -66 -9 -88c-7.33301 0 -15.666 1.83301 -24.999 5.5s-18.166 7.66699 -26.499 12s-15.666 8.33301 -21.999 12s-10.5 5.5 -12.5 5.5c-5.33301 0 -8 -5.66699 -8 -17
c0 -26.667 5.33301 -49.5 16 -68.5s25.334 -34.5 44.001 -46.5s40.5 -20.833 65.5 -26.5s51.833 -8.5 80.5 -8.5c31.333 0 65.833 3.33301 103.5 10s73 16.667 106 30s60.667 30 83 50s33.5 43.667 33.5 71c0 25.333 -6.33301 47.666 -19 66.999s-29 36.333 -49 51
s-42.333 26.834 -67 36.501s-49 17.5 -73 23.5s-46.333 10.333 -67 13s-37 4 -49 4s-18 5.33301 -18 16c0 9.33301 -0.333008 20.833 -1 34.5l-2 42l-2 41c-0.666992 13 -1 23.833 -1 32.5c0 22.667 0.833008 41.334 2.5 56.001s3.16699 27.334 4.5 38.001
c25.333 -1.33301 46.333 -2 63 -2c17.333 0 35.5 -1 54.5 -3s41.667 -6.16699 68 -12.5s61.833 -16.5 106.5 -30.5c0 12 -3.83301 22.5 -11.5 31.5s-16.834 17 -27.501 24s-21.334 13 -32.001 18s-19.334 9.5 -26.001 13.5c-19.333 11.333 -37 20.666 -53 27.999
s-32 13.166 -48 17.499s-33.333 7.33301 -52 9s-40.334 2.5 -65.001 2.5c-52 0 -97.167 -5.16699 -135.5 -15.5s-73.5 -26.166 -105.5 -47.499v-1zM509.003 214c-3.33301 -19.333 -12.999 -35.835 -28.999 -49.502s-34 -25 -54 -34s-40 -15.667 -60 -20
s-35.333 -6.5 -46 -6.5c-6 0 -11.667 1.33301 -17 4s-9.33301 7.33398 -12 14.001c2 21.333 3.83301 38.833 5.5 52.5s2.5 28.834 2.5 45.501v44c0 1.33301 1.16699 3 3.5 5s4.83301 3 7.5 3h19c5.33301 0 11.166 1.66699 17.499 5s10.833 5 13.5 5
c40.667 -4 72.5 -11.5 95.5 -22.5s40.833 -25.833 53.5 -44.5v-1zM224.004 611.998c0 -10.667 -8 -22.0029 -24 -34.0029c-9.33301 -9.33301 -15.333 -17.166 -18 -23.499s-4 -18.166 -4 -35.499c0 -8 -0.166992 -16.167 -0.5 -24.5s-1 -16.166 -2 -23.499
s-2 -13.5 -3 -18.5s-1.83301 -7.5 -2.5 -7.5c-1.33301 0 -4.66602 5.83301 -9.99902 17.5l-17.5 38.5l-17 39c-5 12 -7.5 18.333 -7.5 19v19c15.333 11.333 31.666 19 48.999 23s36.333 9.66699 57 17v-6z" />
    <glyph glyph-name="Acircumflex" unicode="&#xc2;" horiz-adv-x="652" 
d="M27 648c-4.66699 -4.66699 -7.00195 -10.6689 -7.00195 -18.002c0 -12 2.5 -24.333 7.5 -37s10.667 -24.5 17 -35.5s12.666 -20.667 18.999 -29s11.166 -13.833 14.499 -16.5c30.667 -60 63.334 -97.333 98.001 -112c4.66699 -14.667 8.33398 -34.834 11.001 -60.501
s4.5 -51.167 5.5 -76.5s1.66699 -47.666 2 -66.999s0.5 -30 0.5 -32c0 -16.667 -2.66699 -27.5 -8 -32.5s-9.66602 -7.5 -12.999 -7.5c-8 0 -15.667 2.16699 -23 6.5s-13.833 9.33301 -19.5 15l-14.5 15c-4 4.33301 -7 6.5 -9 6.5c-5.33301 0 -8 -5.66699 -8 -17
c0 -26.667 5.33301 -49.5 16 -68.5s25.167 -34.5 43.5 -46.5s40 -20.833 65 -26.5s52.167 -8.5 81.5 -8.5c30 0 63.833 1.33301 101.5 4s73.167 8.83398 106.5 18.501s61.333 24.167 84 43.5s34 46 34 80c0 26.667 -4 49 -12 67s-18 33.833 -30 47.5
s-25.167 25.834 -39.5 36.501s-28.166 22 -41.499 34v6c14.667 8.66699 28.667 20.334 42 35.001s25 30.5 35 47.5s17.833 34.667 23.5 53s8.5 35.5 8.5 51.5c0 17.333 -5.5 34 -16.5 50s-25.5 31 -43.5 45s-39 26.667 -63 38s-49 21.166 -75 29.499
s-52.167 14.666 -78.5 18.999s-50.833 6.5 -73.5 6.5c-52 0 -97.167 -5.16699 -135.5 -15.5s-73.5 -26.166 -105.5 -47.499v-1zM487.998 548.998c-4 -22 -14.333 -44.5 -31 -67.5s-35 -43.833 -55 -62.5s-39 -33.834 -57 -45.501s-30.333 -17.5 -37 -17.5
c-12 0 -18 5.33301 -18 16v105c0 29.333 0.166992 53.5 0.5 72.5s0.5 33.5 0.5 43.5v23c46 0 85.833 -4.66699 119.5 -14s59.5 -26.666 77.5 -51.999v-1zM508.998 213.998c-3.33301 -19.333 -13 -35.835 -29 -49.502s-34 -25 -54 -34s-40 -15.667 -60 -20
s-35.333 -6.5 -46 -6.5c-6 0 -11.667 1.33301 -17 4s-9.33301 7.33398 -12 14.001c2 21.333 3.83301 38.833 5.5 52.5s2.5 28.834 2.5 45.501v48c0 1.33301 1.16699 2.5 3.5 3.5s4.83301 1.5 7.5 1.5c16.667 0 28.5 1.5 35.5 4.5s11.833 4.5 14.5 4.5
c38 0 69.167 -6.5 93.5 -19.5s42.833 -28.833 55.5 -47.5v-1zM223.998 611.996c0 -10.667 -7.99707 -22.001 -23.9971 -34.001c-12.667 -8 -20.834 -17.833 -24.501 -29.5s-5.5 -26.167 -5.5 -43.5c0 -20 0.666992 -35.667 2 -47s2.66602 -20 3.99902 -26
c-2.66699 6 -5.83398 13.5 -9.50098 22.5s-8.16699 18.833 -13.5 29.5c-2.66699 8 -6 15.333 -10 22l-11.5 18.5c-3.66699 5.66699 -6.83398 11.334 -9.50098 17.001s-4 11.5 -4 17.5v19c5.33301 4 11.333 7.83301 18 11.5s13.334 6.5 20.001 8.5l12 4c6 2 12.5 4 19.5 6
s13.833 3.83301 20.5 5.5s12 3.16699 16 4.5v-6z" />
    <glyph glyph-name="Atilde" unicode="&#xc3;" horiz-adv-x="578" 
d="M20 568c2 -16.667 11.998 -25 29.998 -25c10 0 16.667 0.5 20 1.5s8.33301 1.5 15 1.5c13.333 0 22.166 -2 26.499 -6s6.5 -9.66699 6.5 -17c0 -20 -1.66699 -40 -5 -60s-7 -40 -11 -60s-7.66699 -39.833 -11 -59.5s-5 -39.167 -5 -58.5c0 -28 3.33301 -56.333 10 -85
s17.667 -54.667 33 -78l22 -14c7.33301 -4.66699 11.333 -10 12 -16c-2 -4 -7 -6 -15 -6c-11.333 0 -19.666 -2 -24.999 -6s-8 -8 -8 -12c0 -10 6.16699 -19.167 18.5 -27.5s26.833 -15.666 43.5 -21.999s33.334 -11.333 50.001 -15s29.667 -5.5 39 -5.5c44 0 66 24 66 72
c0 12.667 -3.66699 21.167 -11 25.5s-16.166 7 -26.499 8s-21 1.66699 -32 2s-20.167 3.16602 -27.5 8.49902c-4 2.66699 -7.5 10 -10.5 22s-5.83301 25.667 -8.5 41s-4.66699 31.333 -6 48s-2 31.334 -2 44.001c0 7.33301 0.333008 16.666 1 27.999s1.5 22.833 2.5 34.5
s2 22.334 3 32.001s1.5 16.5 1.5 20.5s-0.833008 11 -2.5 21s-2.5 16.333 -2.5 19c0 3.33301 0.833008 5.83301 2.5 7.5s2.5 4.5 2.5 8.5v32c0 25.333 3.83301 43.5 11.5 54.5s19.167 16.5 34.5 16.5c23.333 0 43.333 0.833008 60 2.5s31.667 3.66699 45 6
s25.333 4.33301 36 6s21.667 2.5 33 2.5c25.333 0 46 -8 62 -24s24 -42 24 -78c2.66699 -21.333 4.66699 -39.666 6 -54.999s2 -28.666 2 -39.999l18 -1c-1.33301 8 -2.33301 15.667 -3 23l-2 22c-0.666992 14.667 -1.16699 27.334 -1.5 38.001s-0.833008 20.167 -1.5 28.5
s-1.33398 16 -2.00098 23l-2 21.5c14.667 6.66699 22 18 22 34c0 7.33301 -1.5 14.166 -4.5 20.499s-6.16699 12.666 -9.5 18.999s-6.5 13.166 -9.5 20.499s-4.5 16 -4.5 26c0 10.667 0.333008 19.334 1 26.001l1.5 15c0.333008 3.33301 0.833008 5.83301 1.5 7.5
s1 3.5 1 5.5c0 7.33301 -1.83301 12.166 -5.5 14.499s-10.167 3.5 -19.5 3.5c-4 0 -9.66699 -0.666992 -17 -2s-17.666 -4.33301 -30.999 -9c-7.33301 -17.333 -18.833 -29.833 -34.5 -37.5s-36.834 -11.5 -63.501 -11.5c-22.667 0 -41.667 0.666992 -57 2s-27 2 -35 2
c-10 0 -19.833 2.33301 -29.5 7s-18.5 9.66699 -26.5 15s-15 10.333 -21 15s-10.333 7 -13 7c-18.667 0 -37.667 -5.16699 -57 -15.5s-36.666 -22.5 -51.999 -36.5s-28 -28.333 -38 -43s-15 -26.334 -15 -35.001z" />
    <glyph glyph-name="Adieresis" unicode="&#xc4;" horiz-adv-x="672" 
d="M20 610c0 -9.33301 2.15918 -21.166 6.49219 -35.499s9.83301 -29.333 16.5 -45s13.834 -31.5 21.501 -47.5s14.834 -30 21.501 -42c2 -4 3.66699 -8.33301 5 -13s3 -9.66699 5 -15c2.66699 -9.33301 6.33398 -19 11.001 -29s11.667 -16.333 21 -19v8
c0 5.33301 -2 14.666 -6 27.999l-13.5 43l-14 44.5c-4.33301 14.333 -7.16602 25.5 -8.49902 33.5c14.667 32 46 51 94 57c6.66699 -2.66699 10 -6.66699 10 -12c0 -4.66699 -1.66699 -9.83398 -5 -15.501s-7 -11.167 -11 -16.5s-7.83301 -10.166 -11.5 -14.499
s-5.5 -7.5 -5.5 -9.5c-1.33301 -14.667 -2.16602 -30.334 -2.49902 -47.001s-0.5 -30.667 -0.5 -42l14 -265c0 -21.333 -10 -32 -30 -32c-10.667 0 -22.167 2.33301 -34.5 7s-23.5 7 -33.5 7h-5c4 -28 13 -50.833 27 -68.5s31 -31.667 51 -42s42.333 -17.5 67 -21.5
s50.334 -6 77.001 -6c42.667 0 84.667 6.33301 126 19s78.833 30.834 112.5 54.501s61.834 52.167 84.501 85.5s36.667 71 42 113c-3.33301 26.667 -6.16602 47.5 -8.49902 62.5s-3.5 30.167 -3.5 45.5c0 3.33301 0.333008 5.5 1 6.5s1 1.83301 1 2.5v9l2 6
c0 12.667 -2 23.5 -6 32.5s-7.66699 18.167 -11 27.5c-13.333 34 -27.833 62.833 -43.5 86.5s-35.5 43.834 -59.5 60.501c-12 7.33301 -30 16.666 -54 27.999s-50.833 22.5 -80.5 33.5s-60.5 20.333 -92.5 28s-62 11.5 -90 11.5c-21.333 0 -43 -1.5 -65 -4.5
s-42 -8.33301 -60 -16s-32.833 -18 -44.5 -31s-17.5 -29.833 -17.5 -50.5zM584.992 306c-16 -28.667 -35.832 -54.001 -59.499 -76.001s-50 -40.5 -79 -55.5s-59.667 -26.5 -92 -34.5s-65.166 -12 -98.499 -12l-3 -0.5c-2 -0.333008 -3.66699 -0.5 -5 -0.5
c-0.666992 2 -1 3.66699 -1 5c0 3.33301 1.66699 9.5 5 18.5s6 15.833 8 20.5c11.333 17.333 18 34.333 20 51s3 36 3 58c0 12.667 -0.5 27.5 -1.5 44.5s-2.33301 34.5 -4 52.5s-3 35.333 -4 52s-1.5 31 -1.5 43c0 8.66699 0.5 18.834 1.5 30.501s2.16699 22.667 3.5 33
s2.66602 19 3.99902 26s2.33301 10.5 3 10.5l12 4c35.333 -12.667 69.166 -26.5 101.499 -41.5s61.5 -33 87.5 -54s47.833 -45.5 65.5 -73.5s29.167 -61.333 34.5 -100v-1z" />
    <glyph glyph-name="Aring" unicode="&#xc5;" horiz-adv-x="712" 
d="M580 710c-4 0 -8.65918 0.166992 -13.9922 0.5l-16 1c-5.33301 0.333008 -10 0.5 -14 0.5h-8c-54 0 -103.5 -0.833008 -148.5 -2.5s-84.5 -3.33398 -118.5 -5.00098s-62 -3.16699 -84 -4.5s-37.333 -2 -46 -2c-14 0 -28.5 1.5 -43.5 4.5s-30.167 5.5 -45.5 7.5
c-7.33301 -7.33301 -11 -17 -11 -29c0 -5.33301 0.666992 -12.666 2 -21.999s3.5 -18.666 6.5 -27.999s7.16699 -17.333 12.5 -24s12.333 -10 21 -10c15.333 -2.66699 26 -7.66699 32 -15l6 -128c-6 0 -12.333 -2.66699 -19 -8s-12.834 -11.666 -18.501 -18.999
s-10.5 -14.666 -14.5 -21.999s-6 -13 -6 -17c0 -7.33301 2.16699 -15.5 6.5 -24.5s11.5 -14.167 21.5 -15.5c15.333 -6.66699 24.666 -17.334 27.999 -32.001s5 -33.334 5 -56.001c0 -12 -0.666992 -22 -2 -30s-3.66602 -15 -6.99902 -21s-7.5 -11.667 -12.5 -17
s-11.167 -11.333 -18.5 -18l-36.5 -36c-11.667 -12 -17.5 -27.667 -17.5 -47c0 -20 3.83301 -35.833 11.5 -47.5s17.667 -20.834 30 -27.501s26 -11 41 -13s29.5 -3 43.5 -3c60 0 111.667 1 155 3s80.166 4.66699 110.499 8s55.166 7 74.499 11s35.5 8 48.5 12
s23.333 7.83301 31 11.5s15.167 6.5 22.5 8.5c40 12.667 68 42 84 88c1.33301 5.33301 5 11.666 11 18.999s9 14 9 20c0 7.33301 -6.33301 11 -19 11c-37.333 0 -74.833 -3.5 -112.5 -10.5s-74.334 -14.5 -110.001 -22.5l-102.5 -22.5c-32.667 -7 -62.667 -10.5 -90 -10.5
h-18c-5.33301 4 -8.83301 10.167 -10.5 18.5s-2.5 18.833 -2.5 31.5v58c10 14 20 25.167 30 33.5s19.5 14.833 28.5 19.5s16.833 8.16699 23.5 10.5s11.667 4.5 15 6.5c16 8.66699 33 15.167 51 19.5s40.333 6.5 67 6.5c18.667 0 36.667 2.16699 54 6.5
s33.166 9.66602 47.499 15.999s26.666 13 36.999 20s18.166 13.167 23.499 18.5c-2 2 -3.5 5.16699 -4.5 9.5s-2.16699 8.83301 -3.5 13.5v2c0 14.667 -7 23.834 -21 27.501s-30 5.5 -48 5.5c-24 0 -52.5 -0.5 -85.5 -1.5s-64.5 -2.33301 -94.5 -4
s-55.833 -3.16699 -77.5 -4.5s-33.834 -2.33301 -36.501 -3c-7.33301 3.33301 -11 7.33301 -11 12c0 10.667 -1 18.667 -3 24s-3 12.666 -3 21.999c1.33301 6 2.66602 11 3.99902 15s2 7.66699 2 11c0 25.333 -1.33301 43.333 -4 54s-4 16.667 -4 18
c11.333 0 27.666 0.833008 48.999 2.5s44.166 3.33398 68.499 5.00098l73.5 5c24.667 1.66699 46.334 2.5 65.001 2.5c2.66699 0 6.5 -1.33301 11.5 -4s7.5 -6 7.5 -10c-14.667 -12 -32.5 -23.167 -53.5 -33.5s-42.667 -20 -65 -29l-64.5 -26
c-20.667 -8.33301 -38 -16.833 -52 -25.5l334 117c10.667 2.66699 18.834 7.16699 24.501 13.5s9.83398 12.5 12.501 18.5s4.33398 11.333 5.00098 16l1 7c0 4 -1.33301 9.16699 -4 15.5s-6.33398 12.833 -11.001 19.5s-10 12.334 -16 17.001s-12.333 7 -19 7h-1z
M336.008 328c1.33301 -2.66699 1.99805 -5.33398 1.99805 -8.00098s-2.16699 -4.66699 -6.5 -6s-7.83301 -2 -10.5 -2c-6 -1.33301 -12.667 -3.83301 -20 -7.5s-14.666 -7.66699 -21.999 -12s-14.333 -8.16602 -21 -11.499s-12.667 -5 -18 -5
c-3.33301 0.666992 -7.16602 2.16699 -11.499 4.5s-6.5 4.83301 -6.5 7.5l-2 9c0 22.667 12.667 34 38 34c14 0 25.5 -0.833008 34.5 -2.5s17.5 -2.5 25.5 -2.5c7.33301 0 13.333 1.33301 18 4v-2zM120.006 150c0 -16.667 -8.66504 -25 -25.998 -25
c-10.667 0 -18.167 2 -22.5 6s-6.5 8.66699 -6.5 14c0 8 3.66699 16.167 11 24.5s14.666 12.5 21.999 12.5c13.333 0 20.666 -5.66699 21.999 -17v-15z" />
    <glyph glyph-name="AE" unicode="&#xc6;" horiz-adv-x="867" 
d="M389 709c-8.66699 -3.33301 -16.6592 -5.99609 -23.9922 -7.99609s-11.666 -6.33301 -12.999 -13c3.33301 -19.333 6.16602 -41.666 8.49902 -66.999s4.16602 -52.5 5.49902 -81.5s2.33301 -59.333 3 -91s1 -63.834 1 -96.501l-130 23v251
c-6.66699 8.66699 -16.167 18 -28.5 28s-25.333 19.167 -39 27.5s-26.834 15.166 -39.501 20.499s-22.667 8 -30 8c-8.66699 0 -15.334 -0.666992 -20.001 -2s-8.66699 -3.33301 -12 -6c6 -28.667 10.833 -56.334 14.5 -83.001s5.5 -53 5.5 -79
c0 -8.66699 -0.5 -19.334 -1.5 -32.001s-3 -25.5 -6 -38.5s-7.33301 -25.167 -13 -36.5s-12.834 -19.666 -21.501 -24.999c-5.33301 -2 -9.83301 -6.66699 -13.5 -14s-6.5 -15.333 -8.5 -24s-3.33301 -16.834 -4 -24.501s-1 -12.834 -1 -15.501
c0 -10 2.16699 -18.167 6.5 -24.5s9.5 -12.333 15.5 -18l19 -18c6.66699 -6.33301 12.667 -14.833 18 -25.5l10 -174c36.667 -40 77.334 -63.333 122.001 -70c16.667 14 25 35.333 25 64c0 15.333 -0.666992 28.166 -2 38.499s-2 16.833 -2 19.5
c0 24.667 2.66699 40.834 8 48.501s12 11.5 20 11.5c10.667 0 23.334 -3.83301 38.001 -11.5s28.667 -14.5 42 -20.5l15.5 -4l14.5 -4c-4 -30.667 -11.667 -59 -23 -85c4.66699 -6 12 -12.667 22 -20s21.167 -14.166 33.5 -20.499s24.833 -11.5 37.5 -15.5s24 -6 34 -6
c6 0 11.167 2.16699 15.5 6.5s7.66602 9.66602 9.99902 15.999s4.16602 12.833 5.49902 19.5s2 12.667 2 18c0 9.33301 -0.833008 16.666 -2.5 21.999s-2.83398 11.666 -3.50098 18.999c26 -8 46 -13 60 -15c-3.33301 2 -8.16602 4.16699 -14.499 6.5s-12.833 5 -19.5 8
s-12.334 6.66699 -17.001 11s-7 9.16602 -7 14.499c0 8 1 16.167 3 24.5s4.33301 16.5 7 24.5l7.5 22c2.33301 6.66699 3.83301 12.667 4.5 18c6.66699 -0.666992 14 -1.16699 22 -1.5s15.167 -0.666016 21.5 -0.999023s11.833 -0.666016 16.5 -0.999023l7 -0.5l23 -20
c-0.666992 -2.66699 -1.33398 -5.5 -2.00098 -8.5s-1 -6.16699 -1 -9.5c0 -6 1.16699 -15.5 3.5 -28.5s3.5 -23.5 3.5 -31.5c0 -20.667 -10 -35.334 -30 -44.001c10.667 -6.66699 20.167 -12.334 28.5 -17.001s15.833 -8.33398 22.5 -11.001
c13.333 -4 24.666 -8.16699 33.999 -12.5s18 -8.16602 26 -11.499s16 -6.16602 24 -8.49902s17 -3.5 27 -3.5c11.333 0 20.666 2.5 27.999 7.5s11 10.5 11 16.5c0 7.33301 -1.83301 13.833 -5.5 19.5s-5.5 11.167 -5.5 16.5c0 7.33301 -0.5 15.166 -1.5 23.499l-3 24
c-1 7.66699 -1.83301 14.667 -2.5 21s-1 11.5 -1 15.5c0 16 1 28.833 3 38.5s5.33301 17.834 10 24.501h21c26.667 0 40 10 40 30c0 8.66699 -1.5 17.167 -4.5 25.5s-6.83301 16 -11.5 23s-9.33398 13.167 -14.001 18.5s-9 10 -13 14c-12 12 -20.333 23.333 -25 34
s-7 23.667 -7 39c0 20.667 0.666992 44 2 70s3 51.167 5 75.5s3.66699 46.166 5 65.499s2 32.666 2 39.999c0 9.33301 -5.16699 17.333 -15.5 24s-24.833 12.334 -43.5 17.001l-23 5.5c-4 1 -9.33301 3.5 -16 7.5c-6 3.33301 -10.333 5.5 -13 6.5s-5.66699 1.5 -9 1.5
c-5.33301 0 -9 -0.5 -11 -1.5s-3 -1.16699 -3 -0.5c-9.33301 -58 -16.666 -108.5 -21.999 -151.5s-8 -81.5 -8 -115.5c0 -11.333 -0.333008 -23.166 -1 -35.499s-2 -23.666 -4 -33.999s-4.5 -18.833 -7.5 -25.5s-6.5 -10 -10.5 -10c-16.667 0 -33 0.833008 -49 2.5
s-32 3.16699 -48 4.5c-1.33301 60.667 -3.33301 116 -6 166s-6 95 -10 135c-8 11.333 -16.833 21.333 -26.5 30s-19 15.834 -28 21.501s-17.333 10 -25 13s-13.5 5.16699 -17.5 6.5zM275.008 226.004c0 2.66699 6.33301 4 19 4c12 0 26.333 -0.833008 43 -2.5
s29 -3.16699 37 -4.5c0 -16 -0.166992 -29 -0.5 -39s-0.833008 -17.667 -1.5 -23c-28 12.667 -51.167 24.5 -69.5 35.5s-27.5 20.833 -27.5 29.5z" />
    <glyph glyph-name="Ccedilla" unicode="&#xc7;" horiz-adv-x="811" 
d="M721 164c0 -5.33301 -1.83301 -11.3301 -5.5 -17.9971s-9.16699 -10 -16.5 -10c-17.333 0 -39.333 0.166992 -66 0.5s-55.167 0.666016 -85.5 0.999023s-61 0.833008 -92 1.5s-59.833 1.16699 -86.5 1.5s-49.667 0.666016 -69 0.999023s-32.333 0.5 -39 0.5
c-41.333 0 -73.166 -1 -95.499 -3s-38.833 -4.33301 -49.5 -7s-17.667 -5 -21 -7s-6.66602 -3.33301 -9.99902 -4c-43.333 -7.33301 -65 -23.666 -65 -48.999c0 -6 0.666992 -13.167 2 -21.5s3.33301 -16.333 6 -24s6.33398 -14 11.001 -19s10.667 -7.5 18 -7.5
c14 0 25.167 0.5 33.5 1.5s15 2.5 20 4.5s8.66699 4.5 11 7.5s4.16602 6.5 5.49902 10.5c8 0 26.5 -0.166992 55.5 -0.5s63.167 -0.5 102.5 -0.5s81.166 -0.333008 125.499 -1s85.5 -1 123.5 -1c38.667 0 71.5 -0.166992 98.5 -0.5s43.167 -0.5 48.5 -0.5
c9.33301 0 19.833 1 31.5 3s22.834 4.83301 33.501 8.5s19.5 8.16699 26.5 13.5s10.5 11.666 10.5 18.999c0 38.667 -9 73.5 -27 104.5s-40.333 58.667 -67 83s-55.5 46 -86.5 65s-59.5 35.5 -85.5 49.5c8.66699 10 18.834 20 30.501 30l37.5 31l44.5 33l59.5 43.5
l58.5 43.5c18.333 14 31.833 25 40.5 33l3 18c-11.333 24.667 -22.333 45.5 -33 62.5s-25.667 34.167 -45 51.5c-11.333 -0.666992 -28.333 -2 -51 -4l-76 -6.5c-28 -2.33301 -57.667 -4.66602 -89 -6.99902l-90 -7c-28.667 -2.33301 -55 -4.16602 -79 -5.49902
s-42.667 -2 -56 -2c-23.333 0 -43.833 1 -61.5 3s-34.167 4.33301 -49.5 7s-30.333 5 -45 7s-30.667 3 -48 3c1.33301 -22.667 4.33301 -44.334 9 -65.001s12 -34 22 -40c4.66699 -2.66699 19.5 -5.16699 44.5 -7.5s55.333 -4.66602 91 -6.99902s74.167 -4.33301 115.5 -6
s80.666 -3.33398 117.999 -5.00098s70.166 -2.83398 98.499 -3.50098s47.166 -1 56.499 -1v-12l-99.5 -92l-94.5 -80c-34 16.667 -64.5 28.834 -91.5 36.501s-54.5 11.5 -82.5 11.5c-6 0 -13 -0.5 -21 -1.5s-15.5 -2.66699 -22.5 -5s-12.833 -5.5 -17.5 -9.5s-7 -9 -7 -15
c0 -17.333 5.66699 -34.333 17 -51s25.833 -31.5 43.5 -44.5s37.334 -23.667 59.001 -32s43.167 -12.5 64.5 -12.5c38 0 75.5 -1.33301 112.5 -4s71.167 -7.33398 102.5 -14.001s58.666 -15.834 81.999 -27.501s41 -26.167 53 -43.5v-5zM397 375.003l-4.50098 -0.501953
c-3 -0.333008 -6.33301 -0.666016 -10 -0.999023l-11 -1c-3.66699 -0.333008 -6.16699 -0.5 -7.5 -0.5c-22 0 -43.167 2 -63.5 6s-36.833 11.333 -49.5 22v12c30.667 0 56.834 -2.66699 78.501 -8s44.167 -14.666 67.5 -27.999v-1z" />
    <glyph glyph-name="Egrave" unicode="&#xc8;" horiz-adv-x="699" 
d="M46 505c0 -27.333 0.65918 -56.9922 1.99219 -88.9922s3 -63.833 5 -95.5s3.66699 -61.834 5 -90.501s2 -53.334 2 -74.001v-14c0 -1.33301 -0.666992 -2 -2 -2h-10c-4 0 -7.16699 4.16699 -9.5 12.5s-3.5 13.833 -3.5 16.5c0 7.33301 0.333008 13.666 1 18.999
s1 8.66602 1 9.99902c0 10.667 -0.5 19 -1.5 25s-2.5 11 -4.5 15l-6 -2c-0.666992 -10.667 -1.66699 -22.834 -3 -36.501s-2 -29.5 -2 -47.5c0 -19.333 0.833008 -38.166 2.5 -56.499s5.33398 -34.666 11.001 -48.999s13.834 -25.833 24.501 -34.5s24.667 -13 42 -13
c44 0 83 10.5 117 31.5s65.833 46.5 95.5 76.5s58.5 61.5 86.5 94.5s58 61.167 90 84.5c0.666992 -8 1.16699 -16.333 1.5 -25s0.5 -17.667 0.5 -27v-109c-12.667 -25.333 -19 -55.333 -19 -90c0 -14.667 2.33301 -24.167 7 -28.5s11.334 -6.5 20.001 -6.5
c39.333 0 75 17.667 107 53c0 12.667 -0.166992 31.334 -0.5 56.001s-0.5 52 -0.5 82s-0.333008 60.833 -1 92.5s-1 61.167 -1 88.5s-0.166992 50.333 -0.5 69s-0.5 30 -0.5 34c26.667 28 46.167 57.333 58.5 88s18.5 56.667 18.5 78c0 6 -0.5 13 -1.5 21
s-2.66699 15.667 -5 23s-5.66602 13.666 -9.99902 18.999s-9.83301 8 -16.5 8s-11.667 -3.33301 -15 -10s-6.33301 -14.167 -9 -22.5s-5.5 -15.833 -8.5 -22.5s-7.5 -10 -13.5 -10c-7.33301 0 -15.333 3.5 -24 10.5s-17 10.5 -25 10.5c-13.333 0 -23.666 -4 -30.999 -12
s-12.666 -17.833 -15.999 -29.5s-5.5 -23.5 -6.5 -35.5s-1.5 -22 -1.5 -30c0 -15.333 -0.5 -28.333 -1.5 -39s-2.16699 -19.334 -3.5 -26.001c-10 -14.667 -21.5 -32.834 -34.5 -54.501l-42.5 -68.5c-15.333 -24 -32 -48 -50 -72s-36.833 -45.5 -56.5 -64.5
s-40.5 -34.5 -62.5 -46.5s-44.667 -18 -68 -18c-3.33301 0 -5.16602 1.66699 -5.49902 5s-2.5 5 -6.5 5c0 24.667 1.33301 55.667 4 93l8.5 122.5c3 44.333 5.83301 90.666 8.5 138.999s4 96.166 4 143.499c0 12 -2.66699 19.667 -8 23s-11.666 5 -18.999 5
c-24 0 -43.333 -5 -58 -15s-29.667 -24.667 -45 -44c-5.33301 -20.667 -9 -42.834 -11 -66.501s-3 -49.5 -3 -77.5z" />
    <glyph glyph-name="Eacute" unicode="&#xc9;" horiz-adv-x="699" 
d="M46 505c0 -56.667 2.33105 -114.497 6.99805 -173.497s7 -117.5 7 -175.5c0 -7.33301 -0.5 -11.833 -1.5 -13.5s-2.83301 -2.5 -5.5 -2.5h-5c-2 0 -3.83301 1.33301 -5.5 4s-3 5.83398 -4 9.50098s-1.66699 7 -2 10s-0.5 5.16699 -0.5 6.5
c0 8.66699 0.166992 15.167 0.5 19.5s0.5 7.16602 0.5 8.49902c0 10.667 -0.5 19 -1.5 25s-2.5 11 -4.5 15l-6 -2c-0.666992 -10.667 -1.66699 -22.834 -3 -36.501s-2 -29.5 -2 -47.5c0 -65.333 13.333 -115.333 40 -150c4.66699 -1.33301 10.834 -2.16602 18.501 -2.49902
s14.834 -0.5 21.501 -0.5c44 0 83.167 10.5 117.5 31.5s66.333 46.5 96 76.5s58.667 61.5 87 94.5s58.5 61.167 90.5 84.5v-161c-6.66699 -13.333 -11.334 -25.5 -14.001 -36.5s-4 -25.167 -4 -42.5c0 -19.333 2.16699 -31.833 6.5 -37.5s10.833 -8.5 19.5 -8.5
c19.333 0 39.166 5.33301 59.499 16s38.5 24.667 54.5 42c0 6.66699 -0.333008 20 -1 40s-1.33398 43.667 -2.00098 71s-1.5 56.5 -2.5 87.5s-1.83301 60.833 -2.5 89.5s-1.33398 54.5 -2.00098 77.5s-1 40.167 -1 51.5c26.667 28 46.167 57.333 58.5 88
s18.5 56.667 18.5 78c0 6 -0.5 13 -1.5 21s-2.66699 15.667 -5 23s-5.66602 13.666 -9.99902 18.999s-9.83301 8 -16.5 8s-11.667 -3.33301 -15 -10s-6.33301 -14.167 -9 -22.5s-5.5 -15.833 -8.5 -22.5s-7.5 -10 -13.5 -10c-7.33301 0 -15.333 3.5 -24 10.5
s-17 10.5 -25 10.5c-13.333 0 -23.666 -4 -30.999 -12s-12.666 -17.833 -15.999 -29.5s-5.5 -23.5 -6.5 -35.5s-1.5 -22 -1.5 -30c0 -15.333 -0.5 -28.333 -1.5 -39s-2.16699 -19.334 -3.5 -26.001c-6.66699 -16.667 -16.334 -36.167 -29.001 -58.5
s-27.167 -45.666 -43.5 -69.999s-34.166 -48.333 -53.499 -72s-39.333 -44.834 -60 -63.501s-41.5 -33.834 -62.5 -45.501s-41.167 -17.5 -60.5 -17.5c-4 0 -7.16699 2 -9.5 6s-4 8.66699 -5 14s-1.66699 11 -2 17s-0.5 11 -0.5 15c0 28 1.33301 59.667 4 95l8.5 113
c3 40 5.83301 81.333 8.5 124s4 85 4 127c0 9.33301 -2.33301 16 -7 20s-7.66699 6 -9 6c-24 0 -45.167 -4.66699 -63.5 -14s-35.166 -23.666 -50.499 -42.999c-5.33301 -20.667 -9 -42.834 -11 -66.501s-3 -49.5 -3 -77.5zM365.998 762.003
c-7.33301 -38.667 -15.999 -74.001 -25.999 -106.001s-19.833 -59.667 -29.5 -83s-18.167 -41.666 -25.5 -54.999s-11.666 -20.333 -12.999 -21h10c4 4.66699 12.833 13.334 26.5 26.001s27.667 27 42 43s27.166 32.333 38.499 49s17 31.334 17 44.001
c0 5.33301 0.5 9.66602 1.5 12.999s4.83301 5 11.5 5c0 9.33301 1 17.666 3 24.999s5.33301 15.333 10 24c9.33301 17.333 14 32.333 14 45c-4 6.66699 -9.66699 10 -17 10c-6 0 -12 -1 -18 -3s-12 -4.16699 -18 -6.5s-11.333 -4.5 -16 -6.5s-8.33398 -3 -11.001 -3z" />
    <glyph glyph-name="Ecircumflex" unicode="&#xca;" horiz-adv-x="588" 
d="M456 712c-6.66699 -4.66699 -10.002 -11.0068 -10.002 -19.0068c-38 -49.333 -78.333 -93.5 -121 -132.5s-89 -74.5 -139 -106.5l-16 -2c-1.33301 23.333 -4 48.833 -8 76.5s-10.333 53.5 -19 77.5s-20.167 44.167 -34.5 60.5s-31.833 24.5 -52.5 24.5
c-9.33301 0 -16.333 -3.33301 -21 -10c2.66699 -25.333 5.33398 -52.833 8.00098 -82.5l8 -88c2.66699 -29 4.83398 -56.167 6.50098 -81.5s2.5 -45.666 2.5 -60.999c0 -2 -1.66699 -5.16699 -5 -9.5l-10.5 -14l-10.5 -14c-3.33301 -4.33301 -5 -7.83301 -5 -10.5
c0 -8 1.33301 -14.333 4 -19s5.66699 -8.33398 9 -11.001s6.5 -5 9.5 -7s4.5 -4.33301 4.5 -7v-19l2 -21c0 -0.666992 0.333008 -1.16699 1 -1.5s1 -1.16602 1 -2.49902c0 -4.66699 0.333008 -8.5 1 -11.5s1 -5.83301 1 -8.5c0 -16 -2.16699 -29.667 -6.5 -41
s-9.16602 -21.166 -14.499 -29.499s-10.166 -15.5 -14.499 -21.5s-6.5 -12 -6.5 -18c0 -9.33301 4.83301 -21.333 14.5 -36s23.834 -27.334 42.501 -38.001c9.33301 -7.33301 17.333 -13.166 24 -17.499s12.667 -6.5 18 -6.5c7.33301 0 14 5.5 20 16.5
s11.167 23.5 15.5 37.5s7.66602 27.167 9.99902 39.5s3.5 19.833 3.5 22.5c0 12 1.33301 24.333 4 37s6.66699 19 12 19c32.667 -34.667 62.5 -63.334 89.5 -86.001s53.167 -40.667 78.5 -54s50.666 -22.666 75.999 -27.999s52.666 -8 81.999 -8
c11.333 0 20.666 1.66699 27.999 5s13.333 7.83301 18 13.5s7.83398 11.834 9.50098 18.501s2.5 13 2.5 19c0 8 -8.16699 18.833 -24.5 32.5s-34.5 27.334 -54.5 41.001s-38.167 25.334 -54.5 35.001l-24.5 14.5c0 -3.33301 2.33301 -10 7 -20s7 -18.667 7 -26
c0 -3.33301 -1 -6.16602 -3 -8.49902s-4.66699 -3.5 -8 -3.5c-13.333 0 -29.666 5.83301 -48.999 17.5s-39.833 25.667 -61.5 42s-42.834 33.333 -63.501 51s-39 32.5 -55 44.5v17l114 85c40.667 30.667 78.334 60.834 113.001 90.501s63.5 57 86.5 82
s34.5 44.833 34.5 59.5c0 9.33301 -2.66699 19.5 -8 30.5s-12 21.333 -20 31s-16.333 18.167 -25 25.5s-16.334 12.333 -23.001 15z" />
    <glyph glyph-name="Edieresis" unicode="&#xcb;" horiz-adv-x="641" 
d="M606 20c0 12 2.49902 22.667 7.49902 32s7.5 18 7.5 26c0 5.33301 -0.5 9.66602 -1.5 12.999s-1.5 6.33301 -1.5 9c-5.33301 10.667 -9.83301 22.334 -13.5 35.001s-7.16699 25.5 -10.5 38.5l-10.5 39.5c-3.66699 13.333 -8.16699 26 -13.5 38
c-8 18.667 -17.5 39.5 -28.5 62.5l-33 68.5l-30.5 63.5l-23 47.5l-8 8.5c-5.33301 5.66699 -11 12.167 -17 19.5s-11.5 15 -16.5 23s-7.5 14.667 -7.5 20l-28.5 42c-8.33301 12.667 -16.833 24.667 -25.5 36c3.33301 2.66699 5.66602 4.33398 6.99902 5.00098s2.33301 1 3 1
c2.66699 0 5.5 -2 8.5 -6l9.5 -13c3.33301 -4.66699 7 -9 11 -13s8.33301 -6 13 -6c3.33301 0 5.33301 0.333008 6 1s1 1.66699 1 3c0 6 -2.33301 14.333 -7 25s-11 21.334 -19 32.001s-17.167 19.834 -27.5 27.501s-21.166 11.5 -32.499 11.5c-6 0 -12.667 -1.33301 -20 -4
s-14.666 -5.5 -21.999 -8.5s-14.166 -5.66699 -20.499 -8s-11.5 -3.5 -15.5 -3.5s-8.16699 0.5 -12.5 1.5s-9.16602 3.16699 -14.499 6.5c-13.333 -6 -20 -12.667 -20 -20c0 -4 1.5 -8.33301 4.5 -13s6.33301 -9.5 10 -14.5s7 -10 10 -15s4.5 -9.83301 4.5 -14.5
c0 -24 -4.66699 -49.833 -14 -77.5s-20.833 -56.167 -34.5 -85.5l-43.5 -90.5c-15.333 -31 -29 -62.167 -41 -93.5c-14.667 -38.667 -28.334 -77.667 -41.001 -117s-24.334 -79 -35.001 -119c0 -5.33301 1.33301 -11 4 -17s5.33398 -9 8.00098 -9
c4.66699 0 7.66699 1.16699 9 3.5s2 4.16602 2 5.49902v7c32 5.33301 69 26 111 62c2 6 4.33301 13.5 7 22.5l8.5 29c3 10.333 6.16699 20.666 9.5 30.999s7 20.166 11 29.499c6.66699 17.333 10 34 10 50l16 55.5l22 73l25 76.5c8.66699 25.333 17 47 25 65l12 -6l57 -101
c17.333 -32 34 -65.5 50 -100.5s31.667 -73.5 47 -115.5s32 -91 50 -147c1.33301 -2.66699 2.66602 -5.5 3.99902 -8.5s2 -7.16699 2 -12.5c2.66699 -18.667 9.33398 -28 20.001 -28c8 0 17.667 3.16699 29 9.5s23.666 9.5 36.999 9.5z" />
    <glyph glyph-name="Igrave" unicode="&#xcc;" horiz-adv-x="772" 
d="M101 477c0 -8.66699 -1.99902 -22.4961 -5.99902 -41.4961s-9 -41.167 -15 -66.5l-19.5 -81c-7 -28.667 -13.5 -57 -19.5 -85s-11 -54.667 -15 -80s-6 -46.666 -6 -63.999c0 -9.33301 2.16699 -18.833 6.5 -28.5s8.16602 -14.5 11.499 -14.5
c17.333 0 32.833 6.33301 46.5 19s25.667 28.834 36 48.501s19 41.5 26 65.5s12.667 47.5 17 70.5s7.5 44 9.5 63s3 33.5 3 43.5c0 18.667 1 30.334 3 35.001s5 7 9 7c11.333 -18.667 24.833 -37.334 40.5 -56.001l44.5 -53.5c14 -17 26 -33 36 -48s15 -28.167 15 -39.5
c0 -7.33301 -1.5 -14.833 -4.5 -22.5s-4.5 -16.834 -4.5 -27.501c0 -6.66699 2.33301 -13.834 7 -21.501s10.5 -15 17.5 -22s14.333 -12.833 22 -17.5s14.5 -7 20.5 -7c7.33301 0 13.166 2.83301 17.499 8.5s8.83301 8.5 13.5 8.5c3.33301 0 7.5 -1.16699 12.5 -3.5l15.5 -7
c5.33301 -2.33301 10.333 -4.66602 15 -6.99902s8 -3.5 10 -3.5c7.33301 0 14.833 5.66699 22.5 17s11.5 24.666 11.5 39.999c5.33301 19.333 10.666 35.166 15.999 47.499s8 25.833 8 40.5c0 6.66699 -0.333008 12.834 -1 18.501s-1.66699 8.5 -3 8.5s-2 -0.333008 -2 -1
h-2c-2.66699 -10.667 -6.16699 -20.5 -10.5 -29.5s-8.5 -16.833 -12.5 -23.5s-7.83301 -11.834 -11.5 -15.501s-6.16699 -5.5 -7.5 -5.5c-4.66699 0 -8.16699 2.83301 -10.5 8.5s-3.5 9.5 -3.5 11.5c10.667 32.667 21.5 61.5 32.5 86.5s21.833 47.833 32.5 68.5l30 58.5
c9.33301 18.333 17.5 37.166 24.5 56.499s12.5 40.166 16.5 62.499s6 48.166 6 77.499c0 15.333 -2.5 27.833 -7.5 37.5s-13.5 14.5 -25.5 14.5c-5.33301 0 -11.666 -5.83301 -18.999 -17.5s-15.666 -27.167 -24.999 -46.5l-31 -65.5l-36 -74
c-12.667 -25 -26 -49.333 -40 -73s-28.667 -44.167 -44 -61.5c-15.333 10 -32.833 27.5 -52.5 52.5s-39.834 53 -60.501 84s-41 63.333 -61 97l-54 92.5l-40 69c-10.667 18 -16.667 27 -18 27c-7.33301 0 -15 -2.66699 -23 -8s-15.167 -11.333 -21.5 -18
s-11.666 -13.167 -15.999 -19.5s-6.5 -10.5 -6.5 -12.5c0 -13.333 4.16699 -28.833 12.5 -46.5s17.5 -35.167 27.5 -52.5l27.5 -47.5c8.33301 -14.333 12.5 -24.5 12.5 -30.5zM613.001 276.004c0 -10.667 0.163086 -25.332 0.496094 -43.999s0.833008 -38.5 1.5 -59.5
s1.5 -41.667 2.5 -62s2.16699 -37.166 3.5 -50.499c13.333 -8.66699 26.333 -16.667 39 -24s24.334 -13.5 35.001 -18.5s19.5 -8.83301 26.5 -11.5s11.5 -4 13.5 -4c4.66699 0 8.66699 1.66699 12 5s5 9.66602 5 18.999c0 34 -0.666992 71.333 -2 112
s-3.16602 82 -5.49902 124s-4.83301 83.167 -7.5 123.5l-7.5 111.5l-6 88l-3.5 52c-7.33301 8 -15.666 15.667 -24.999 23s-19 13.833 -29 19.5s-19.667 10.167 -29 13.5s-17.666 5 -24.999 5v-158v-109c0 -29.333 0.166992 -52.833 0.5 -70.5s0.5 -31.834 0.5 -42.501v-24
v-18z" />
    <glyph glyph-name="Iacute" unicode="&#xcd;" horiz-adv-x="846" 
d="M20 414c0 -10.667 1.33691 -22.998 4.00391 -36.998s4 -25 4 -33c0 -11.333 3.33301 -21.166 10 -29.499s15 -16.166 25 -23.499s20.667 -14.666 32 -21.999s21.666 -15.666 30.999 -24.999l8 -174c30.667 -40 64.334 -63.333 101.001 -70c14 14 21 35.333 21 64
c0 4 -0.166992 9 -0.5 15s-0.833008 12 -1.5 18s-1.16699 11.333 -1.5 16s-0.5 7.66699 -0.5 9c0.666992 40 8.33398 60 23.001 60c6 0 12.833 -1.66699 20.5 -5s15.5 -7.33301 23.5 -12l24 -13.5c8 -4.33301 15.667 -7.5 23 -9.5l17.5 -5c7 -2 14.167 -4.33301 21.5 -7
s14.666 -5.66699 21.999 -9s13.666 -7 18.999 -11c21.333 -9.33301 38.166 -16.166 50.499 -20.499s21.5 -7.16602 27.5 -8.49902c-18 10 -40.5 21.5 -67.5 34.5l-78.5 39.5c-25.333 13.333 -47 26.166 -65 38.499s-27 23.166 -27 32.499l2 6l75 -8l73 -7.5l64.5 -6.5
c19.667 -2 36.167 -3.33301 49.5 -4l19 -20c-0.666992 -3.33301 -1.16699 -6.5 -1.5 -9.5s-0.5 -5.83301 -0.5 -8.5c0 -6 0.833008 -15.5 2.5 -28.5s2.5 -23.5 2.5 -31.5c0 -20.667 -8 -35.334 -24 -44.001l66 -35c16 -8.66699 28.5 -15.167 37.5 -19.5s15.5 -7 19.5 -8
s7.66699 -1.5 11 -1.5c10 0 17.667 2.5 23 7.5s8 10.5 8 16.5l-11 79c-2.66699 19.333 -4 33 -4 41c0 14.667 0.666992 26.667 2 36s3.66602 17.333 6.99902 24c12.667 2.66699 23.667 4 33 4c34.667 0.666992 57.667 3.5 69 8.5s17 10.167 17 15.5
c0 8 -2.5 18.167 -7.5 30.5s-9.16699 22.166 -12.5 29.499c-4.66699 10 -11 16.833 -19 20.5s-17.667 5.5 -29 5.5c-14 0 -25 1.16699 -33 3.5s-14.333 5.5 -19 9.5s-7.66699 8.66699 -9 14s-2 11 -2 17c0 23.333 1.83301 44.166 5.5 62.499s5.5 33.166 5.5 44.499
c0 38 0.5 72.333 1.5 103s1.5 54 1.5 70c0 9.33301 -4.33301 17.166 -13 23.499s-20.667 12.166 -36 17.499c-10.667 3.33301 -21 7.66602 -31 12.999s-16.333 8 -19 8c-4 0 -7 -0.5 -9 -1.5s-3 -1.16699 -3 -0.5c0 -8.66699 -0.666992 -22.167 -2 -40.5s-3 -39 -5 -62
l-6 -72l-5.5 -68.5c-1.66699 -20.667 -3.16699 -38.167 -4.5 -52.5s-2 -22.166 -2 -23.499c0 -12 -1 -23.5 -3 -34.5s-7.33301 -17.167 -16 -18.5c-105.333 7.33301 -204 22.333 -296 45v251c-4 2.66699 -11.167 8.5 -21.5 17.5l-33 28.5c-11.667 10 -23 18.833 -34 26.5
s-19.5 11.5 -25.5 11.5c-7.33301 0 -12.833 -0.666992 -16.5 -2s-6.83398 -3.33301 -9.50098 -6c5.33301 -28.667 9.33301 -58.167 12 -88.5s4 -54.833 4 -73.5c0 -7.33301 -0.333008 -18.333 -1 -33s-2 -29.334 -4 -44.001s-5.33301 -27.5 -10 -38.5s-11 -16.5 -19 -16.5
c-10.667 0 -19.5 1.33301 -26.5 4s-13 5.5 -18 8.5l-13.5 8c-4 2.33301 -8.66699 3.5 -14 3.5c-3.33301 -5.33301 -5.5 -9.16602 -6.5 -11.499s-1.5 -4.5 -1.5 -6.5z" />
    <glyph glyph-name="Icircumflex" unicode="&#xce;" horiz-adv-x="670" 
d="M20 332c0 -49.333 8.50293 -94.334 25.5029 -135.001s39.333 -75.667 67 -105s59.167 -52 94.5 -68s71 -24 107 -24c40 0 72.167 5.83301 96.5 17.5s43.5 24.834 57.5 39.501s23.667 28.5 29 41.5s8.66602 20.5 9.99902 22.5c30.667 0 55.5 6.66699 74.5 20
s33.5 30.5 43.5 51.5s16.667 44.5 20 70.5s5 51.667 5 77c0 42 -6.5 85 -19.5 129s-31.5 84 -55.5 120s-53.333 65.5 -88 88.5s-73.667 34.5 -117 34.5c-10.667 0 -20.167 -1.66699 -28.5 -5s-16.5 -7 -24.5 -11s-16.667 -8 -26 -12s-20.333 -6.66699 -33 -8
c-2 -1.33301 -5.5 -2.5 -10.5 -3.5s-10.333 -2.16699 -16 -3.5s-11.167 -2.5 -16.5 -3.5s-9.33301 -2.16699 -12 -3.5c-28.667 -15.333 -54.334 -35.166 -77.001 -59.499s-41.834 -51.5 -57.501 -81.5s-27.667 -61.333 -36 -94s-12.5 -64.334 -12.5 -95.001z
M149.003 247.999c2 183.333 65.335 304.001 190.002 362.001c24 0 45.333 -6.5 64 -19.5s34.834 -29.667 48.501 -50s25 -42.833 34 -67.5s16.167 -48.5 21.5 -71.5s9.16602 -43.833 11.499 -62.5s3.5 -32.334 3.5 -41.001c0 -2.66699 -0.166992 -10.834 -0.5 -24.501
s-1.16602 -28.334 -2.49902 -44.001s-3.33301 -29.667 -6 -42s-6 -18.5 -10 -18.5c-2 0 -4.16699 2 -6.5 6s-4.66602 8.5 -6.99902 13.5s-4.33301 10.167 -6 15.5s-2.83398 9.33301 -3.50098 12v3c-2 2 -3.5 4.83301 -4.5 8.5s-1.83301 7.5 -2.5 11.5
s-1.33398 7.66699 -2.00098 11s-1 5.33301 -1 6c-0.666992 1.33301 -2.16699 3.33301 -4.5 6l-7 8c-2.33301 2.66699 -4.5 5 -6.5 7s-3 3.33301 -3 4c-1.33301 -5.33301 -2 -7.66602 -2 -6.99902c0 -13.333 2.33301 -27.666 7 -42.999s7 -27 7 -35c0 -11.333 -5 -21 -15 -29
s-21.833 -14.5 -35.5 -19.5s-27.834 -8.5 -42.501 -10.5s-26.334 -3 -35.001 -3c-28 0 -52.833 4.83301 -74.5 14.5s-40.167 21 -55.5 34s-27.5 25.667 -36.5 38s-14.833 21.5 -17.5 27.5z" />
    <glyph glyph-name="Idieresis" unicode="&#xcf;" horiz-adv-x="588" 
d="M473 703c-15.333 -4.66699 -25.3291 -9.33398 -29.9961 -14.001s-7.33398 -13.667 -8.00098 -27c-16 -8 -37 -12 -63 -12c-17.333 0 -34.833 0.666992 -52.5 2s-30.5 2 -38.5 2s-16.5 2.33301 -25.5 7s-17.5 9.66699 -25.5 15l-22 15
c-6.66699 4.66699 -11.334 7 -14.001 7c-19.333 0 -37.666 -5.16699 -54.999 -15.5s-33.5 -22.5 -48.5 -36.5s-28.5 -28.333 -40.5 -43s-22 -26.334 -30 -35.001c2 -16.667 11.333 -25 28 -25c2 0 4.83301 0.166992 8.5 0.5l11 1l10.5 1c3.33301 0.333008 5.33301 0.5 6 0.5
c11.333 0 19.333 -1.66699 24 -5s7 -8.33301 7 -15c0 -14 -2.83301 -34.167 -8.5 -60.5l-18.5 -82l-18.5 -79c-5.66699 -24.333 -8.5 -41.166 -8.5 -50.499c0 -22.667 2.16699 -45.667 6.5 -69s11.833 -44.333 22.5 -63c1.33301 -1.33301 2.33301 -2.16602 3 -2.49902
s1.33398 -0.833008 2.00098 -1.5c3.33301 -2 8.5 -5.66699 15.5 -11s10.5 -10 10.5 -14c0 -4.66699 -5.33301 -7 -16 -7c-20 0 -30 -4 -30 -12l1 -4c0 -12 3 -19.333 9 -22c30.667 -22 55.5 -35.833 74.5 -41.5s36.833 -8.5 53.5 -8.5
c-1.33301 6.66699 -2.83301 17.167 -4.5 31.5l-5.5 48c-2 17.667 -4 36.334 -6 56.001s-3.66699 38.5 -5 56.5l-3.5 48c-1 14 -1.5 24.667 -1.5 32c0 18.667 1.16699 38.5 3.5 59.5s4.83301 41 7.5 60s5.16699 35.833 7.5 50.5s3.5 25.334 3.5 32.001
c0 25.333 4.66699 43.333 14 54s21.666 16.334 36.999 17.001c14 0 28.833 1 44.5 3l47 6l44.5 5.5c14 1.66699 26.667 2.5 38 2.5c0 -4.66699 -0.666992 -17.334 -2 -38.001s-2.83301 -45.334 -4.5 -74.001s-3.33398 -59.334 -5.00098 -92.001
s-3.33398 -63.167 -5.00098 -91.5s-3 -52.333 -4 -72s-1.5 -30.834 -1.5 -33.501c0 -10 2 -24.333 6 -43s10.167 -37 18.5 -55s18.666 -33.667 30.999 -47s26.833 -20 43.5 -20c10 0 17 5.33301 21 16s6 23 6 37c0 8 -0.666992 16.833 -2 26.5s-2 15.834 -2 18.501
c0 6.66699 1.66699 16 5 28s7 24.167 11 36.5l11 34c3.33301 10.333 5 17.166 5 20.499c-3.33301 0 -7.5 1 -12.5 3s-7.5 3.66699 -7.5 5c0 28 1 61.333 3 100s4.16699 77.667 6.5 117l6.5 111.5c2 35 3 63.167 3 84.5c-3.33301 10 -7.16602 17.167 -11.499 21.5l-11.5 11.5
c-0.666992 16.667 -2.5 28.334 -5.5 35.001s-7.5 10 -13.5 10c-5.33301 0 -11.333 -1.16699 -18 -3.5s-17.334 -3.5 -32.001 -3.5z" />
    <glyph glyph-name="Eth" unicode="&#xd0;" horiz-adv-x="616" 
d="M58 276c0 -28.667 6.00098 -50.166 18.001 -64.499s23.333 -21.5 34 -21.5c9.33301 -3.33301 17.333 -7.16602 24 -11.499s10 -12.5 10 -24.5v-53c0 -13.333 0.333008 -24.166 1 -32.499s1.33398 -14.833 2.00098 -19.5s1.66699 -9.66699 3 -15
c30.667 -22.667 63.667 -34 99 -34c9.33301 0 17.5 0.666992 24.5 2s10.5 5.33301 10.5 12c0 12.667 -1.66699 25.834 -5 39.501s-7.16602 26.5 -11.499 38.5l-11.5 32c-3.33301 9.33301 -5 16.666 -5 21.999c0 9.33301 1.83301 16.166 5.5 20.499
s11.834 7.16602 24.501 8.49902c43.333 4.66699 84.166 13.5 122.499 26.5s71.666 30.667 99.999 53s50.833 49.333 67.5 81s25 68.5 25 110.5c0 46 -11.5 85.667 -34.5 119s-52.167 60.833 -87.5 82.5s-73.833 37.834 -115.5 48.501s-81.5 16 -119.5 16
c-37.333 0 -69.666 -3.66699 -96.999 -11s-50 -16.166 -68 -26.499s-31.5 -21 -40.5 -32s-13.5 -20.5 -13.5 -28.5c0 -20 2.16699 -39.167 6.5 -57.5s10 -35.5 17 -51.5s14.667 -30.833 23 -44.5s16.833 -26.167 25.5 -37.5l6 -1c-1.33301 13.333 -3.33301 24 -6 32
c-5.33301 20 -11.166 39.5 -17.499 58.5s-9.5 35.833 -9.5 50.5c0 14 2.5 25.167 7.5 33.5s11.167 14.666 18.5 18.999s15.333 7.16602 24 8.49902s17 2 25 2c6 0 13.5 -1 22.5 -3s14.833 -4.33301 17.5 -7c-25.333 -29.333 -38 -70.666 -38 -123.999
c0 -14.667 0.166992 -26.334 0.5 -35.001s0.5 -15.667 0.5 -21c0 -4.66699 0.166992 -8 0.5 -10s0.5 -4 0.5 -6c0 -12.667 -0.333008 -22.834 -1 -30.501s-1.33398 -14 -2.00098 -19s-1.33398 -9 -2.00098 -12s-1 -5.5 -1 -7.5c0 -6.66699 1.33301 -13 4 -19
s4 -10.667 4 -14c0 -6 -1.66699 -9.83301 -5 -11.5s-6.33301 -2.5 -9 -2.5s-6.16699 2.33301 -10.5 7l-14 15c-5 5.33301 -10 10.333 -15 15s-9.5 7 -13.5 7c-4.66699 0 -8.33398 -2.5 -11.001 -7.5s-4.83398 -11.333 -6.50098 -19s-2.66699 -15.667 -3 -24
s-0.5 -15.5 -0.5 -21.5zM494.001 398.001c-31.333 -33.333 -64 -57.335 -98 -72.002s-75.333 -22 -124 -22l-21 10c3.33301 20 5.33301 51.333 6 94c0 4.66699 0.5 16.5 1.5 35.5s2.33301 39.667 4 62s3 43.333 4 63s1.5 32.834 1.5 39.501c26 -2 52.333 -9 79 -21
s51 -27.5 73 -46.5s39.833 -40.667 53.5 -65s20.5 -50.166 20.5 -77.499z" />
    <glyph glyph-name="Ntilde" unicode="&#xd1;" 
d="M410 706l-46.498 4.00488c-15.667 1.33301 -31.5 2 -47.5 2c-56 0 -99.333 -12.333 -130 -37c9.33301 -4.66699 17.666 -7 24.999 -7c5.33301 0 10.833 -0.666992 16.5 -2s8.5 -3.33301 8.5 -6c-4.66699 -7.33301 -7.66699 -11.833 -9 -13.5
s-2.33301 -2.83398 -3 -3.50098c-31.333 -12 -59.666 -32.167 -84.999 -60.5s-46.833 -60.5 -64.5 -96.5s-31.167 -73.833 -40.5 -113.5s-14 -76.834 -14 -111.501c0 -38 4.16699 -73 12.5 -105s21.5 -59.5 39.5 -82.5s41.333 -41 70 -54s63 -19.5 103 -19.5
c40.667 0 80.167 8 118.5 24s72.5 36.333 102.5 61s54.167 51.667 72.5 81s27.5 57 27.5 83c0 3.33301 -1 6.5 -3 9.5s-5.33301 4.83301 -10 5.5c-6 -10.667 -17.667 -21 -35 -31s-37.333 -19.5 -60 -28.5s-46.667 -17.5 -72 -25.5s-49.333 -14.833 -72 -20.5
s-42.334 -10.167 -59.001 -13.5s-27.667 -5 -33 -5c-9.33301 0 -19.5 0.666992 -30.5 2s-21.333 3.5 -31 6.5s-17.667 7.16699 -24 12.5s-9.5 12.333 -9.5 21c0 44 5.5 86.167 16.5 126.5s26.833 78.166 47.5 113.499s45.667 67.666 75 96.999s62.666 54.666 99.999 75.999
c22 -16.667 37.833 -32.5 47.5 -47.5s14.5 -32.833 14.5 -53.5c0 -19.333 -1.5 -35.833 -4.5 -49.5s-7.16699 -25.834 -12.5 -36.501c16 1.33301 31.833 6 47.5 14s29.667 18.5 42 31.5s22.333 27.833 30 44.5s11.5 34.334 11.5 53.001l-12.5 43l-7 24.5l-3.5 12
c-0.666992 2.33301 -1 4.5 -1 6.5c0 46 -23.333 69 -70 69h-38z" />
    <glyph glyph-name="Ograve" unicode="&#xd2;" horiz-adv-x="573" 
d="M20 634c0 -15.333 2.49512 -27.665 7.49512 -36.998s11.833 -16.666 20.5 -21.999s18.667 -8.83301 30 -10.5s23.666 -2.5 36.999 -2.5c8.66699 0 19.667 0.333008 33 1l40.5 2c13.667 0.666992 26 1.33398 37 2.00098s18.5 1 22.5 1s6.66699 -2 8 -6s2 -6.66699 2 -8
c-6.66699 -44.667 -11 -86 -13 -124s-3.66699 -74.667 -5 -110l-29 69c-7.33301 16.667 -13 33.667 -17 51c-4.66699 5.33301 -7.66699 11.333 -9 18l-4 19.5c-1.33301 6.33301 -3.5 12.333 -6.5 18s-8.16699 10.167 -15.5 13.5l-2 -9c18.667 -53.333 33.667 -108 45 -164
s22 -118.333 32 -187c0 -6.66699 -1.5 -14 -4.5 -22s-6.5 -15.667 -10.5 -23l-10.5 -20c-3 -6 -4.5 -10 -4.5 -12c0 -12 4.83301 -22.5 14.5 -31.5s21.334 -16.5 35.001 -22.5s27.667 -10.5 42 -13.5s26.166 -4.5 35.499 -4.5c4.66699 0 9.83398 0.166992 15.501 0.5
s11 1.33301 16 3s9.16699 4.16699 12.5 7.5s5 8.33301 5 15c0 2 -1.33301 5.66699 -4 11l-9 18c-3.33301 6.66699 -6.33301 13.167 -9 19.5s-4 11.166 -4 14.499c0 5.33301 -0.166992 19.166 -0.5 41.499s-0.666016 49 -0.999023 80s-0.666016 64.333 -0.999023 100
s-0.666016 69.5 -0.999023 101.5s-0.666016 60 -0.999023 84s-0.5 40 -0.5 48c0 13.333 6.33301 20 19 20c14 0 29.833 0.833008 47.5 2.5s34.834 4.5 51.501 8.5s31.5 9.16699 44.5 15.5s22.167 14.166 27.5 23.499c4 7.33301 7.33301 18.166 10 32.499s4 24.833 4 31.5
c-0.666992 4 -1.16699 8.5 -1.5 13.5s-1.16602 8.5 -2.49902 10.5c-13.333 -2 -32.5 -3.83301 -57.5 -5.5s-52.667 -3.16699 -83 -4.5s-62 -2.33301 -95 -3s-64.167 -1.33398 -93.5 -2.00098s-55.333 -1.16699 -78 -1.5s-39.334 -0.5 -50.001 -0.5
c-6.66699 0 -12 1.33301 -16 4s-7.66699 5.83398 -11 9.50098s-6.5 6.83398 -9.5 9.50098s-6.5 4 -10.5 4c-5.33301 0 -9.66602 -3.5 -12.999 -10.5s-5.83301 -15 -7.5 -24s-2.83398 -17.833 -3.50098 -26.5s-1 -14.334 -1 -17.001z" />
    <glyph glyph-name="Oacute" unicode="&#xd3;" horiz-adv-x="725" 
d="M47 674c-2 -3.33301 -4.49805 -7.83887 -7.49805 -13.5059l-9 -17c-3 -5.66699 -5.5 -10.667 -7.5 -15s-2.66699 -6.5 -2 -6.5c4.66699 0 8.33398 0.333008 11.001 1s5 1 7 1c14.667 0 28.667 -9.16699 42 -27.5s26.5 -41.166 39.5 -68.499s25.5 -57.166 37.5 -89.499
s24.167 -62.166 36.5 -89.499s24.666 -50.166 36.999 -68.499s24.833 -27.5 37.5 -27.5c5.33301 0 9.83301 0.666992 13.5 2s10.5 2 20.5 2c15.333 0 23 -2 23 -6c0 -7.33301 -3.66699 -19 -11 -35s-15.333 -32 -24 -48s-16.5 -29.833 -23.5 -41.5
s-9.83301 -16.5 -8.5 -14.5c-8.66699 -6.66699 -18 -10 -28 -10c-18.667 0 -33 2.66699 -43 8s-18 11 -24 17s-10.833 11.667 -14.5 17s-7.83398 8 -12.501 8h-2c-4.66699 -20 -10 -38 -16 -54s-9 -30.333 -9 -43c0 -12 5.33301 -21.5 16 -28.5s23.834 -12.5 39.501 -16.5
s32 -6.66699 49 -8s31.833 -2 44.5 -2c56 0 118 3 186 9c4.66699 2 13.5 7.83301 26.5 17.5s26 20.334 39 32.001s24.667 23.5 35 35.5s15.5 21.667 15.5 29v14c-4 -4.66699 -13.667 -8.5 -29 -11.5s-32.166 -5.5 -50.499 -7.5s-36 -3.5 -53 -4.5s-29.5 -1.5 -37.5 -1.5h-2
c-6.66699 0 -10 4 -10 12c63.333 69.333 120.666 167.666 171.999 294.999c101.333 71.333 152.666 159.333 153.999 264c0 4.66699 -2.16699 8.83398 -6.5 12.501s-9.66602 6.66699 -15.999 9s-13.5 4.16602 -21.5 5.49902s-15.333 2 -22 2c-13.333 0 -26.5 -3 -39.5 -9
s-25 -13.333 -36 -22s-20.833 -18.167 -29.5 -28.5s-15.667 -19.833 -21 -28.5c-5.33301 -9.33301 -13.5 -25.5 -24.5 -48.5l-34.5 -73.5l-34 -74.5c-10.667 -23.667 -18.334 -41.167 -23.001 -52.5l-17.5 -39c-5 -10.667 -12.5 -16 -22.5 -16
c-26 14.667 -46.833 34.334 -62.5 59.001s-28.834 51.334 -39.501 80.001s-20.167 57.667 -28.5 87s-17.833 55.833 -28.5 79.5s-24 43 -40 58s-37 22.5 -63 22.5c-18.667 0 -30 -4.66699 -34 -14c-4 -8.66699 -8.66699 -14.667 -14 -18zM657.002 603.994
c0 -39.333 -21.001 -80 -63.001 -122l-11 -10l-4 4c0.666992 1.33301 2.83398 4 6.50098 8s7.5 8.83301 11.5 14.5s7.66699 11.5 11 17.5s5 12 5 18v2c14 30.667 28.667 53.667 44 69v-1z" />
    <glyph glyph-name="Ocircumflex" unicode="&#xd4;" horiz-adv-x="806" 
d="M364 710c-5.33301 0 -9.99707 -1.16504 -13.9971 -3.49805s-6 -5.16602 -6 -8.49902c1.33301 -13.333 2.5 -26.833 3.5 -40.5s1.5 -27.834 1.5 -42.501c-34 0 -70.333 -6.66699 -109 -20s-74.334 -31.666 -107.001 -54.999s-59.667 -51 -81 -83s-32 -67 -32 -105
c0 -36.667 9.83301 -70 29.5 -100s44.167 -55.667 73.5 -77s60.833 -37.833 94.5 -49.5s64.834 -17.5 93.501 -17.5l-17.5 -27c-5.66699 -8.66699 -10.167 -16.667 -13.5 -24c4.66699 -6 12.167 -12.333 22.5 -19s21.833 -12.834 34.5 -18.501s25.667 -10.167 39 -13.5
s25 -5 35 -5c15.333 0 24 4 26 12c3.33301 10.667 6.66602 20.167 9.99902 28.5s6.66602 15.166 9.99902 20.499c4 6 6.83301 13.333 8.5 22s2.5 16.667 2.5 24l53 19.5c17.333 6.33301 32.666 13 45.999 20s24.166 14.333 32.499 22s12.5 15.834 12.5 24.501
c62 0 106.5 14.333 133.5 43s40.5 69 40.5 121c0 37.333 -7.66699 71.333 -23 102s-35.666 57.5 -60.999 80.5s-54 42 -86 57s-64.667 25.167 -98 30.5c-2.66699 0.666992 -6.33398 1.33398 -11.001 2.00098s-9.16699 1.5 -13.5 2.5s-8.16602 2.16699 -11.499 3.5s-5 3 -5 5
c0 6.66699 -3.16699 13.167 -9.5 19.5s-14.333 12.166 -24 17.499s-20 10.166 -31 14.499s-21.167 8.16602 -30.5 11.499zM170.003 346.002c0 25.333 4.50195 48.501 13.502 69.501s21.333 40.333 37 58s34.334 33.5 56.001 47.5s45.5 26.333 71.5 37
c-0.666992 -20.667 -1.5 -40.834 -2.5 -60.501l-3 -59.5c-1 -20 -1.83301 -40.833 -2.5 -62.5s-1 -44.834 -1 -69.501c0 -4 0.333008 -11.167 1 -21.5s1.5 -21.166 2.5 -32.499s1.83301 -22.166 2.5 -32.499s1 -16.833 1 -19.5c0 -1.33301 -1.16699 -2.83301 -3.5 -4.5
s-4.5 -2.5 -6.5 -2.5c-28.667 0 -53.334 5.5 -74.001 16.5s-37.834 24.5 -51.501 40.5s-23.834 32.667 -30.501 50s-10 32.666 -10 45.999zM630.005 326.003c0 -2 -0.169922 -8.00293 -0.50293 -18.0029s-1.33301 -20.667 -3 -32s-4 -21.666 -7 -30.999
s-7.16699 -14.333 -12.5 -15c-8.66699 7.33301 -15.167 13.833 -19.5 19.5s-7.16602 10.834 -8.49902 15.501v2c-4.66699 2.66699 -8 6.66699 -10 12s-3.83301 10.5 -5.5 15.5s-4 9.5 -7 13.5s-8.16699 6 -15.5 6c-1.33301 0 -2 -2 -2 -6c0 -10 3 -20.667 9 -32s9 -20 9 -26
c0 -3.33301 -2.33301 -8.16602 -7 -14.499s-10.334 -12.833 -17.001 -19.5s-13.5 -12.334 -20.5 -17.001s-12.833 -7 -17.5 -7c-6.66699 0 -10 3.33301 -10 10c0 1.33301 1.33301 3.33301 4 6c-4.66699 4 -8 7.5 -10 10.5s-4 6.16699 -6 9.5c0 3.33301 0.333008 13.333 1 30
s1.33398 36.834 2.00098 60.501s1.5 49 2.5 76s1.83301 52.5 2.5 76.5s1.33398 44.833 2.00098 62.5s1 29.167 1 34.5c14 -2 27.5 -8.16699 40.5 -18.5s24.833 -23.166 35.5 -38.499s20.334 -31.833 29.001 -49.5s16 -35.167 22 -52.5s10.667 -33.333 14 -48
s5 -26.334 5 -35.001z" />
    <glyph glyph-name="Otilde" unicode="&#xd5;" horiz-adv-x="698" 
d="M642 525l-0.000976562 -14.001c4.66699 0 8.5 3.66699 11.5 11s5.33301 15.666 7 24.999s2.83398 18.333 3.50098 27s1 14 1 16c1.33301 15.333 3.83301 29.833 7.5 43.5s5.5 28.5 5.5 44.5c0 7.33301 -3.83301 14.833 -11.5 22.5s-15.167 11.5 -22.5 11.5
c-34 -4.66699 -64.833 -17 -92.5 -37s-53.834 -43.333 -78.501 -70s-48.667 -54.167 -72 -82.5s-48 -53.166 -74 -74.499l-11 -2c-14 15.333 -27.333 34.833 -40 58.5l-38.5 70.5c-13 23.333 -26.833 44.333 -41.5 63s-31.334 30.667 -50.001 36
c-10 0 -20 -2.83301 -30 -8.5s-19.333 -12.834 -28 -21.501s-16.667 -18.5 -24 -29.5s-13 -21.833 -17 -32.5c2.66699 -1.33301 5.66699 -2 9 -2c2 0 4.5 1.16699 7.5 3.5s6 4.83301 9 7.5l8.5 7.5c2.66699 2.33301 4.66699 3.5 6 3.5c8 0 17.167 -6.33301 27.5 -19
s20.666 -28.5 30.999 -47.5s20.333 -39.667 30 -62s18.167 -43.333 25.5 -63s13.333 -36.5 18 -50.5s7 -22 7 -24v-4c-26.667 -35.333 -59 -69.833 -97 -103.5l-109 -97.5c3.33301 -4.66699 5.5 -9.33398 6.5 -14.001s1.5 -10.334 1.5 -17.001
c0 -10.667 2 -21.334 6 -32.001s7.66699 -17 11 -19l27.5 -17.5c9.66699 -6.33301 20.834 -9.5 33.501 -9.5c18 0 36.667 7 56 21s38 30.833 56 50.5s35.167 40 51.5 61s31.166 38.833 44.499 53.5l16 -1c14.667 -14 30.834 -32.667 48.501 -56s36.667 -46.166 57 -68.499
s42 -41.666 65 -57.999s47.5 -24.5 73.5 -24.5c11.333 0 20 1.16699 26 3.5s10.667 5.83301 14 10.5c2.66699 25.333 5 45.5 7 60.5s3.5 26.833 4.5 35.5s1.66699 14.834 2 18.501s0.5 6.83398 0.5 9.50098c0 6.66699 -1 12.167 -3 16.5s-5.66699 6.5 -11 6.5
c-3.33301 0 -5.83301 -2.16699 -7.5 -6.5s-3.16699 -9 -4.5 -14s-3 -9.66699 -5 -14s-4.66699 -6.5 -8 -6.5c-8.66699 0 -19.167 4 -31.5 12s-25.166 18.167 -38.499 30.5s-26.5 26 -39.5 41s-24.667 29.333 -35 43s-18.666 25.667 -24.999 36s-9.5 17.5 -9.5 21.5
c0 10.667 5 23.834 15 39.501s22.5 32 37.5 49s31.667 34.167 50 51.5l52 47.5l43.5 37.5l25 21z" />
    <glyph glyph-name="Odieresis" unicode="&#xd6;" horiz-adv-x="638" 
d="M30 288c0 -37.333 3.16992 -72.166 9.50293 -104.499s16.666 -60.333 30.999 -84s33.333 -42.167 57 -55.5s52.834 -20 87.501 -20c46 0 85.667 5.16699 119 15.5s61.666 28.833 84.999 55.5c8.66699 -2 13.667 -6 15 -12s2 -12.333 2 -19
c0 -12 -6.83301 -23.333 -20.5 -34s-28.5 -20.667 -44.5 -30l-44.5 -25.5c-13.667 -7.66699 -20.5 -14.834 -20.5 -21.501c2 0 8.16699 0.833008 18.5 2.5s22.333 3.83398 36 6.50098l44.5 8.5c16 3 30.833 6.16699 44.5 9.5s25 6.33301 34 9s14.167 5 15.5 7l117 164
c0 4.66699 -1.16699 9.16699 -3.5 13.5s-5.83301 6.5 -10.5 6.5c-7.33301 0 -15 -0.833008 -23 -2.5s-16 -3.5 -24 -5.5s-15.167 -4 -21.5 -6s-11.5 -3 -15.5 -3v209c0 24 2.5 46.833 7.5 68.5s10.333 41.834 16 60.501s11 35.167 16 49.5s7.5 25.833 7.5 34.5
c0 26 -9.66699 46.667 -29 62c-16.667 10 -29.5 18 -38.5 24s-16.167 10.5 -21.5 13.5s-9.5 4.83301 -12.5 5.5s-6.5 1 -10.5 1c-12.667 0 -21 -5 -25 -15c0 -3.33301 -0.166992 -11.333 -0.5 -24s-0.833008 -28 -1.5 -46s-1.5 -37.833 -2.5 -59.5
s-1.83301 -42.834 -2.5 -63.501s-1.16699 -40 -1.5 -58s-0.5 -32.333 -0.5 -43v-199c-14.667 -22.667 -40.667 -34 -78 -34c-16 0 -28.167 -1 -36.5 -3l-12.5 -3h-46c-48.667 0 -83.334 6.33301 -104.001 19c-3.33301 31.333 -5.5 63.833 -6.5 97.5s-1.5 67.5 -1.5 101.5
c0 44.667 1.16699 86.167 3.5 124.5s6.16602 68.166 11.499 89.499c0 16 -3.16699 31.333 -9.5 46s-14.833 27.667 -25.5 39s-22.5 20.333 -35.5 27s-26.167 10 -39.5 10c-4.66699 0 -9 -0.5 -13 -1.5s-6 -3.83301 -6 -8.5s1 -8 3 -10s4 -4.66699 6 -8
c2 -4.66699 4 -13.667 6 -27s3.66699 -28.5 5 -45.5s2.33301 -34.667 3 -53s1 -34.833 1 -49.5c0 -44 -2.33301 -82.667 -7 -116s-7 -63.333 -7 -90z" />
    <glyph glyph-name="multiply" unicode="&#xd7;" horiz-adv-x="846" 
d="M134 540c0 -8 -0.337891 -19.502 -1.00488 -34.502s-2 -29.833 -4 -44.5s-5.33301 -27.167 -10 -37.5s-11 -15.5 -19 -15.5c-10.667 0 -19.5 1.33301 -26.5 4s-13 5.5 -18 8.5l-13.5 8c-4 2.33301 -8.66699 3.5 -14 3.5c-3.33301 -5.33301 -5.5 -9.16602 -6.5 -11.499
s-1.5 -4.5 -1.5 -6.5c0 -10.667 1.16699 -23 3.5 -37s3.83301 -25 4.5 -33c0.666992 -8.66699 5.66699 -18 15 -28s21.166 -20 35.499 -30s30.333 -19.667 48 -29s35 -17.666 52 -24.999s33 -13.166 48 -17.499s26.833 -6.5 35.5 -6.5c16 0 24 6 24 18l2 6
c6.66699 -1.33301 17.667 -2.83301 33 -4.5l52 -5.5l60.5 -6c21 -2 40.167 -3.66699 57.5 -5s31.5 -2.5 42.5 -3.5l16.5 -1.5l19 -20c-0.666992 -3.33301 -1.16699 -6.5 -1.5 -9.5s-0.5 -5.83301 -0.5 -8.5c0 -6 0.833008 -15.5 2.5 -28.5s2.5 -23.5 2.5 -31.5
c0 -20.667 -8 -35.334 -24 -44.001c8 -8.66699 18.833 -16.834 32.5 -24.501s27.5 -14.5 41.5 -20.5s26.667 -10.667 38 -14s18.666 -5 21.999 -5c10 0 17.667 2.5 23 7.5s8 10.5 8 16.5c0 7.33301 -1.5 13.833 -4.5 19.5s-4.5 11.167 -4.5 16.5c0 15.333 -1 31.333 -3 48
s-3 28.667 -3 36c0 15.333 1 28 3 38s4.66699 18.333 8 25c7.33301 0.666992 16.833 1.33398 28.5 2.00098s21.167 1 28.5 1c22.667 0 38.334 2.33301 47.001 7s13 9.66699 13 15c0 10.667 -1.83301 21.167 -5.5 31.5s-8.5 19.5 -14.5 27.5s-13.167 14.5 -21.5 19.5
s-17.166 7.5 -26.499 7.5c-14 0 -25 1.16699 -33 3.5s-14.333 5.5 -19 9.5s-7.66699 8.66699 -9 14s-2 11 -2 17c0 24 0.666992 49.5 2 76.5s3 53.167 5 78.5s3.66699 49 5 71s2 40 2 54c0 18 -16.333 31.667 -49 41l-19 5.5c-3.33301 1 -7.66602 3.5 -12.999 7.5
c-5.33301 3.33301 -9 5.5 -11 6.5s-4.33301 1.5 -7 1.5c-4 0 -6.83301 -0.333008 -8.5 -1s-3.16699 -1.66699 -4.5 -3c-9.33301 -56.667 -15.666 -106.5 -18.999 -149.5s-5 -81.5 -5 -115.5c0 -12.667 -0.166992 -25.167 -0.5 -37.5s-1.16602 -23.5 -2.49902 -33.5
s-3.16602 -18.167 -5.49902 -24.5s-5.83301 -9.5 -10.5 -9.5c-105.333 7.33301 -204 22.333 -296 45v251c-7.33301 8.66699 -15.666 17.667 -24.999 27s-19 18 -29 26s-20.167 14.667 -30.5 20s-20.166 8 -29.499 8c-7.33301 0 -12.833 -0.166992 -16.5 -0.5
s-6.83398 -1.83301 -9.50098 -4.5c10.667 -55.333 16 -109.333 16 -162z" />
    <glyph glyph-name="Oslash" unicode="&#xd8;" horiz-adv-x="826" 
d="M478 135c-0.666992 20.667 -1.33008 45.6631 -1.99707 74.9961s-1.5 60.5 -2.5 93.5l-3 100.5c-1 34 -2.16699 66.167 -3.5 96.5s-2.66602 57.5 -3.99902 81.5s-2.66602 42.667 -3.99902 56c-8 11.333 -17.667 21.333 -29 30s-22.666 15.834 -33.999 21.501
s-21.833 9.83398 -31.5 12.501s-16.5 4 -20.5 4c-5.33301 0 -9.5 -1.16699 -12.5 -3.5s-5.16699 -7.16602 -6.5 -14.499c1.33301 -14.667 2.66602 -34.334 3.99902 -59.001s2.66602 -52.5 3.99902 -83.5s2.66602 -63.833 3.99902 -98.5s2.5 -69.167 3.5 -103.5
s1.83301 -67.333 2.5 -99s1.33398 -59.834 2.00098 -84.501c-0.666992 -11.333 -1 -19 -1 -23c0 -3.33301 -0.333008 -6.33301 -1 -9c-10 -3.33301 -19.167 -5.66602 -27.5 -6.99902s-16.166 -2 -23.499 -2c-14.667 0 -28.667 1.16699 -42 3.5s-28.333 7.83301 -45 16.5
c-0.666992 0 -1.33398 4 -2.00098 12s-1.16699 18.167 -1.5 30.5s-0.666016 25.833 -0.999023 40.5s-0.5 28.667 -0.5 42c0 61.333 1.83301 121.666 5.5 180.999s6.16699 119.666 7.5 180.999c0 4.66699 -6.33301 11.667 -19 21s-27 18.666 -43 27.999
s-31.333 17.5 -46 24.5s-24.334 10.5 -29.001 10.5c-9.33301 0 -16.166 -0.666992 -20.499 -2s-8.16602 -3.33301 -11.499 -6l13 -92c3.33301 -24 6 -47.5 8 -70.5s3.5 -48.5 4.5 -76.5s1.5 -64.667 1.5 -110c0 -11.333 -0.5 -24.666 -1.5 -39.999s-2.66699 -31 -5 -47
s-5.16602 -31.333 -8.49902 -46s-7 -26.667 -11 -36l-15 -33c-6.66699 -14.667 -10 -30 -10 -46c0 -14 1 -23.5 3 -28.5s4.16699 -8 6.5 -9s5 -1.33301 8 -1s5.5 -1.16699 7.5 -4.5c9.33301 -14 20.166 -24.833 32.499 -32.5s25 -13.5 38 -17.5s25.667 -6.66699 38 -8
s23.166 -2.66602 32.499 -3.99902c22 0 47.167 1.5 75.5 4.5s55.166 4.5 80.499 4.5c11.333 -2 23.5 -3.66699 36.5 -5s25.5 -2.33301 37.5 -3s23.333 -1 34 -1h25c2 0 6 0.5 12 1.5s13.667 2 23 3s19.5 2 30.5 3s22.5 1.5 34.5 1.5c31.333 0 56.166 -0.5 74.499 -1.5
s32.5 -2 42.5 -3s17.167 -2 21.5 -3s8.5 -1.5 12.5 -1.5c15.333 0 26.666 3.5 33.999 10.5s13.666 15.833 18.999 26.5c4 1.33301 7.5 4.33301 10.5 9s5.83301 9.66699 8.5 15s4.66699 10.333 6 15s2 8 2 10c0 10.667 -0.666992 18.5 -2 23.5s-3.83301 8.83301 -7.5 11.5
s-8.16699 5.16699 -13.5 7.5s-12 5.83301 -20 10.5c-8.66699 14 -14.167 34.5 -16.5 61.5s-3.5 54.5 -3.5 82.5c0 26 0.833008 56.167 2.5 90.5s3.5 68.5 5.5 102.5l5.5 96c1.66699 30 2.5 53.333 2.5 70c0 9.33301 -5.16699 17.333 -15.5 24s-24.833 12.334 -43.5 17.001
l-23 5.5c-4 1 -9.33301 3.5 -16 7.5c-6 3.33301 -10.333 5.5 -13 6.5s-5.66699 1.5 -9 1.5c-5.33301 0 -9 -0.5 -11 -1.5s-3 -1.16699 -3 -0.5c-5.33301 -32.667 -10 -68.5 -14 -107.5s-7.33301 -77 -10 -114s-4.83398 -70.333 -6.50098 -100s-2.5 -51.5 -2.5 -65.5
c0 -43.333 -0.166992 -76.666 -0.5 -99.999s-1.5 -41.666 -3.5 -54.999c-0.666992 -7.33301 -2 -15 -4 -23s-4.66699 -12.333 -8 -13z" />
    <glyph glyph-name="Ugrave" unicode="&#xd9;" horiz-adv-x="859" 
d="M478 135c-0.666992 20.667 -1.33008 45.6689 -1.99707 75.002s-1.5 60.5 -2.5 93.5l-3 100.5c-1 34 -2.16699 66.167 -3.5 96.5s-2.66602 57.5 -3.99902 81.5s-2.66602 42.667 -3.99902 56c-10.667 12.667 -21.834 23.334 -33.501 32.001s-22.834 15.667 -33.501 21
s-20.334 9.16602 -29.001 11.499s-15 3.5 -19 3.5c-5.33301 0 -9.5 -1.16699 -12.5 -3.5s-5.16699 -7.16602 -6.5 -14.499c1.33301 -14.667 2.66602 -34.334 3.99902 -59.001s2.66602 -52.5 3.99902 -83.5s2.66602 -63.833 3.99902 -98.5s2.5 -69.167 3.5 -103.5
s1.83301 -67.333 2.5 -99s1.33398 -59.834 2.00098 -84.501c-0.666992 -11.333 -1 -19 -1 -23c0 -3.33301 -0.333008 -6.33301 -1 -9c-10 -3.33301 -19.167 -5.66602 -27.5 -6.99902s-16.166 -2 -23.499 -2c-14.667 0 -28.667 1.16699 -42 3.5s-28.333 7.83301 -45 16.5
c-0.666992 0 -1.33398 4 -2.00098 12s-1.16699 18.167 -1.5 30.5s-0.666016 25.833 -0.999023 40.5s-0.5 28.667 -0.5 42c0 61.333 1.83301 121.666 5.5 180.999s6.16699 119.666 7.5 180.999c0 8 -6.16699 16.833 -18.5 26.5s-26.5 18.667 -42.5 27s-31.5 15.5 -46.5 21.5
s-24.833 9 -29.5 9c-9.33301 0 -16.166 -0.666992 -20.499 -2s-8.16602 -3.33301 -11.499 -6l13 -92c3.33301 -24 6 -47.5 8 -70.5s3.5 -48.5 4.5 -76.5s1.5 -64.667 1.5 -110c0 -24.667 -2.66699 -47.334 -8 -68.001s-11.166 -40.834 -17.499 -60.501
s-12.166 -39.167 -17.499 -58.5s-8 -39.666 -8 -60.999c0 -14 1 -23.5 3 -28.5s4.16699 -8 6.5 -9s5 -1.33301 8 -1s5.5 -1.16699 7.5 -4.5c9.33301 -14 20.166 -24.833 32.499 -32.5s25 -13.5 38 -17.5s25.667 -6.66699 38 -8s23.166 -2.66602 32.499 -3.99902
c17.333 0 34.833 1 52.5 3s39.167 3 64.5 3c7.33301 0 14.166 0.166992 20.499 0.5s12.5 1.16602 18.5 2.49902c11.333 -2 23.5 -3.66699 36.5 -5s25.5 -2.33301 37.5 -3s23.333 -1 34 -1h25c2 0 6.16699 0.5 12.5 1.5s14.166 2 23.499 3s19.5 2 30.5 3s22.167 1.5 33.5 1.5
c16.667 0 33.167 -0.5 49.5 -1.5s31.5 -2 45.5 -3s25.833 -2 35.5 -3s16.5 -1.5 20.5 -1.5c8.66699 0 13.667 0.333008 15 1c0 -8 -1.33301 -16 -4 -24s-5.5 -15.5 -8.5 -22.5s-5.83301 -12.833 -8.5 -17.5s-4 -7.66699 -4 -9l2 -14l80 64l22 80
c5.33301 19.333 9.5 34 12.5 44s4.83301 16.833 5.5 20.5s1 6.83398 1 9.50098c-0.666992 1.33301 -2.33398 5.16602 -5.00098 11.499s-6.66699 13.333 -12 21s-11 11.5 -17 11.5c-2.66699 0 -4.66699 -2 -6 -6s-3 -8.5 -5 -13.5s-4.33301 -9.66699 -7 -14s-7 -6.5 -13 -6.5
s-10.833 5.5 -14.5 16.5s-6.83398 24.333 -9.50098 40s-4.5 31.834 -5.5 48.501s-1.5 30.667 -1.5 42c0 16.667 0.5 39.834 1.5 69.501s2.33301 60.667 4 93l5 94l4 73c1 18.333 1.5 28.166 1.5 29.499c0 9.33301 -5.16699 17.333 -15.5 24s-24.833 12.334 -43.5 17.001
l-23 5.5c-4 1 -9.33301 3.5 -16 7.5c-6 3.33301 -10.333 5.5 -13 6.5s-5.66699 1.5 -9 1.5c-5.33301 0 -9 -0.5 -11 -1.5s-3 -1.16699 -3 -0.5c-9.33301 -58 -16.666 -108.5 -21.999 -151.5s-8 -81.5 -8 -115.5c0 -6 -0.166992 -16.667 -0.5 -32
s-0.833008 -33.166 -1.5 -53.499s-1.5 -41.833 -2.5 -64.5s-2.16699 -44.334 -3.5 -65.001s-3 -39.334 -5 -56.001s-4.33301 -28.667 -7 -36z" />
    <glyph glyph-name="Uacute" unicode="&#xda;" horiz-adv-x="637" 
d="M76 435c0 -6 0.498047 -13.1709 1.49805 -21.5039s2.5 -16.166 4.5 -23.499s4.5 -13.5 7.5 -18.5s6.5 -7.5 10.5 -7.5c-0.666992 -1.33301 0.833008 0.333984 4.5 5.00098s8.33398 9.83398 14.001 15.501s11.667 11 18 16s11.833 7.5 16.5 7.5c6.66699 0 10 -6 10 -18
c0 -6 -0.666992 -12 -2 -18s-2 -9.66699 -2 -11c0 -4.66699 1 -9.5 3 -14.5s3 -10.167 3 -15.5c0 -16 -0.333008 -29.167 -1 -39.5s-1 -17.5 -1 -21.5c0 -26 0.833008 -48.333 2.5 -67s4 -34.667 7 -48s7 -24.666 12 -33.999s10.5 -17.666 16.5 -24.999
c-5.33301 -5.33301 -11.333 -8 -18 -8c-14.667 3.33301 -28 6.16602 -40 8.49902s-22.167 5.5 -30.5 9.5s-14.833 9.33301 -19.5 16s-7 15.667 -7 27c0 9.33301 1.5 19.666 4.5 30.999s6.5 23.166 10.5 35.499s7.66699 24.833 11 37.5s5.66602 25 6.99902 37l-6 -1
c-2.66699 -3.33301 -6.16699 -9.5 -10.5 -18.5l-14.5 -31.5l-16.5 -38.5c-5.66699 -13.667 -10.667 -27 -15 -40s-8 -25 -11 -36s-4.5 -19.833 -4.5 -26.5c0 -16.667 9 -31.167 27 -43.5s39 -22.5 63 -30.5s48.167 -14 72.5 -18s43.166 -6 56.499 -6
c36 0 75 5.16699 117 15.5s80.667 26.166 116 47.499s64.833 48.333 88.5 81s35.5 71.334 35.5 116.001c0 42.667 -8 80.334 -24 113.001s-38.167 60.334 -66.5 83.001s-61.666 40.667 -99.999 54s-79.833 22.333 -124.5 27
c-13.333 1.33301 -21.666 4.16602 -24.999 8.49902s-5 11.166 -5 20.499c0 4.66699 1.83301 11.167 5.5 19.5l11.5 27.5c4 10 7.83301 20.667 11.5 32s5.5 22.333 5.5 33s-3 19 -9 25s-9.33301 9 -10 9c-8.66699 0 -21.167 -1.33301 -37.5 -4s-34.333 -6 -54 -10
s-39.834 -8.66699 -60.501 -14s-39.5 -10.666 -56.5 -15.999s-30.833 -10.333 -41.5 -15s-16 -8.66699 -16 -12s1.83301 -6.66602 5.5 -9.99902s10.167 -5 19.5 -5c11.333 0 24.833 0.833008 40.5 2.5s29.834 2.5 42.501 2.5c10.667 0 19.334 -0.666992 26.001 -2
s10 -4.33301 10 -9v-62c0 -12 -3.33301 -21 -10 -27s-14 -9 -22 -9c-13.333 0 -24.833 -6 -34.5 -18s-15.5 -24 -17.5 -36c-1.33301 -10.667 -2.5 -18.167 -3.5 -22.5s-1.5 -7.83301 -1.5 -10.5zM277.998 254.996c0 13.333 -0.501953 27 -1.50195 41s-2.16699 27 -3.5 39
s-2.66602 22.667 -3.99902 32s-2.33301 16.666 -3 21.999c0 6.66699 2.16699 11.834 6.5 15.501s9.83301 5.5 16.5 5.5c26 0 49.5 -1.33301 70.5 -4s40.667 -7.5 59 -14.5s35.333 -16.667 51 -29s30.834 -28.5 45.501 -48.5c-2 -33.333 -10 -62 -24 -86
s-31.833 -44.167 -53.5 -60.5s-45.5 -29.5 -71.5 -39.5s-51.667 -18 -77 -24c0 4.66699 -0.166992 12 -0.5 22s-1 21.667 -2 35s-2.16699 28 -3.5 44s-3 32.667 -5 50z" />
    <glyph glyph-name="Ucircumflex" unicode="&#xdb;" horiz-adv-x="791" 
d="M20 98c0 -18 8.83496 -33.3359 26.502 -46.0029s38.5 -22.834 62.5 -30.501s48.333 -13.167 73 -16.5s43.667 -5 57 -5c36 0 75 5.16699 117 15.5s80.667 26.166 116 47.499s64.833 48.333 88.5 81s35.5 71.334 35.5 116.001c0 42.667 -8 80.334 -24 113.001
s-38.167 60.334 -66.5 83.001s-61.666 40.667 -99.999 54s-79.833 22.333 -124.5 27c-12.667 1.33301 -20.834 4.16602 -24.501 8.49902s-5.5 11.166 -5.5 20.499c0 4.66699 1.66699 11.834 5 21.501l11.5 32c4.33301 11.667 8.16602 23.667 11.499 36s5 23.833 5 34.5
s-2.83301 17 -8.5 19s-8.83398 3 -9.50098 3c-26 0 -48 -2.83301 -66 -8.5s-34.667 -14.167 -50 -25.5c0 -6.66699 -0.333008 -14.834 -1 -24.501s-1.33398 -20 -2.00098 -31l-2 -33.5c-0.666992 -11.333 -1 -21.666 -1 -30.999c0 -4.66699 -1.83301 -9.16699 -5.5 -13.5
s-8 -8.33301 -13 -12s-10.167 -6.5 -15.5 -8.5s-9.33301 -3 -12 -3c-8 0 -14.667 -4.16699 -20 -12.5s-9.5 -17.666 -12.5 -27.999s-5 -20 -6 -29s-1.5 -14.167 -1.5 -15.5c0 -6 0.333008 -13.167 1 -21.5s1.66699 -16.333 3 -24s3 -14.167 5 -19.5s4.66699 -8 8 -8
c0.666992 0 3.33398 2.33301 8.00098 7l16 15.5c6 5.66699 12 10.834 18 15.501s11 7 15 7c6.66699 0 10 -6 10 -18c0 -4.66699 -0.666992 -10 -2 -16s-2 -10.333 -2 -13c0 -4.66699 1 -9.5 3 -14.5s3 -10.167 3 -15.5c0 -10 -0.333008 -21.667 -1 -35s-1 -22 -1 -26
c0 -26 0.833008 -48.333 2.5 -67s4 -34.667 7 -48s7 -24.666 12 -33.999s10.5 -17.666 16.5 -24.999c-5.33301 -5.33301 -11.333 -8 -18 -8c-28 0 -51.167 4.5 -69.5 13.5s-27.5 24.833 -27.5 47.5c0 9.33301 1.5 19.666 4.5 30.999s6.33301 23.166 10 35.499l11 37.5
c3.66699 12.667 6.16699 25 7.5 37l-6 -1c-4.66699 -12 -11 -27 -19 -45l-24 -54.5c-8 -18.333 -14.833 -35.666 -20.5 -51.999s-8.5 -29.5 -8.5 -39.5zM632.002 711.997c-9.33301 -0.666992 -17.667 -2.66992 -25 -6.00293s-11.333 -8.33301 -12 -15
c12 -108 18 -243 18 -405c0 -11.333 0.666992 -24.666 2 -39.999s2 -31.333 2 -48c0 -56.667 -8.33301 -102.667 -25 -138c4.66699 -6 12 -12.667 22 -20s21.167 -14.166 33.5 -20.499s24.833 -11.5 37.5 -15.5s24 -6 34 -6c6 0 11.167 2.16699 15.5 6.5
s7.66602 9.5 9.99902 15.5s4.16602 12.5 5.49902 19.5s2 13.167 2 18.5c0 10.667 -1 18.667 -3 24s-3 12.666 -3 21.999c0 10 1.33301 21.167 4 33.5s5.5 24 8.5 35l8.5 30c2.66699 9 4 15.167 4 18.5c0 -0.666992 -0.666992 -1 -2 -1c-5.33301 0 -9.83301 1 -13.5 3
s-6.5 3.66699 -8.5 5c-1.33301 55.333 -2.66602 104 -3.99902 146s-2.66602 79.333 -3.99902 112s-2.83301 61.334 -4.5 86.001s-3.5 47.667 -5.5 69c0 12 -4.83301 22.333 -14.5 31s-20.5 15.834 -32.5 21.501s-23.167 10 -33.5 13s-15.833 4.83301 -16.5 5.5z
M259.001 291.994c-2 21.333 -3.50098 41.833 -4.50098 61.5s-2.16699 34.5 -3.5 44.5c0.666992 2.66699 2.16699 5 4.5 7s4.5 3 6.5 3c28 -3.33301 54.167 -6.83301 78.5 -10.5s46.5 -8.66699 66.5 -15s37.333 -14.833 52 -25.5s26.334 -25 35.001 -43
c0 -30.667 -7 -57.834 -21 -81.501s-32 -44 -54 -61s-46.333 -31 -73 -42s-52.667 -19.5 -78 -25.5c0 31.333 -1.5 61.333 -4.5 90s-4.5 61.334 -4.5 98.001z" />
    </font>
</defs>
</svg>
