<?xml version="1.0" standalone="no"?>
<!DOCTYPE svg PUBLIC "-//W3C//DTD SVG 1.1//EN" "http://www.w3.org/Graphics/SVG/1.1/DTD/svg11.dtd" >
<svg>
<metadata>
Created by FontForge 20090914 at Thu Mar 28 00:39:01 2013
 By www-data
Copyright (c) Alexandra Gophmann modification font by LPM, 2006. All rights reserved.
</metadata>
<defs>
<font id="Malahit-Bold" horiz-adv-x="474" >
  <font-face 
    font-family="Malahit"
    font-weight="700"
    font-stretch="normal"
    units-per-em="917"
    panose-1="2 0 8 0 2 0 0 2 0 4"
    ascent="733"
    descent="-184"
    x-height="435.999"
    cap-height="597.004"
    bbox="-28.999 -210 964 872.002"
    underline-thickness="50"
    underline-position="-100"
    unicode-range="U+0020-U+2116"
  />
<missing-glyph horiz-adv-x="500" 
 />
    <glyph glyph-name=".notdef" horiz-adv-x="500" 
 />
    <glyph glyph-name="space" unicode=" " horiz-adv-x="335" 
 />
    <glyph glyph-name="space" unicode="&#xa0;" horiz-adv-x="335" 
 />
    <glyph glyph-name="exclam" unicode="!" horiz-adv-x="294" 
d="M55 488c-0.666992 4.66699 -1.16895 10.5 -1.50195 17.5s-0.5 13.833 -0.5 20.5c0 12 3.5 22.333 10.5 31s15.333 16 25 22s19.834 10.333 30.501 13s20 4 28 4s17.333 -1.33301 28 -4s20.834 -7 30.501 -13s18 -13.333 25 -22s10.5 -19 10.5 -31
c0 -6.66699 -0.166992 -13.5 -0.5 -20.5s-0.833008 -12.833 -1.5 -17.5l-24 -232c-0.666992 -6.66699 -2.16699 -13.834 -4.5 -21.501s-6 -14.667 -11 -21s-11.833 -11.666 -20.5 -15.999s-19.334 -6.5 -32.001 -6.5c-13.333 0 -24.166 2.16699 -32.499 6.5
s-15 9.66602 -20 15.999s-8.66699 13.333 -11 21s-3.83301 14.834 -4.5 21.501zM60.998 78c0 12 2.33301 23.167 7 33.5s10.834 19.333 18.501 27s16.667 13.834 27 18.501s21.5 7 33.5 7s23.167 -2.33301 33.5 -7s19.333 -10.834 27 -18.501s13.834 -16.667 18.501 -27
s7 -21.5 7 -33.5s-2.33301 -23.167 -7 -33.5s-10.834 -19.333 -18.501 -27s-16.667 -13.834 -27 -18.501s-21.5 -7 -33.5 -7s-23.167 2.33301 -33.5 7s-19.333 10.834 -27 18.501s-13.834 16.667 -18.501 27s-7 21.5 -7 33.5z" />
    <glyph glyph-name="quotedbl" unicode="&#x22;" horiz-adv-x="455" 
d="M127 725c3.33301 0 6.83496 -0.5 10.502 -1.5s7.5 -1.5 11.5 -1.5c11.333 -4.66699 21.166 -11 29.499 -19s14.5 -18.333 18.5 -31c2 -8 3.66699 -16.333 5 -25s2.33301 -18.334 3 -29.001c0 -13.333 -0.833008 -25.5 -2.5 -36.5s-3.5 -20.833 -5.5 -29.5
c-6.66699 -22.667 -17 -42 -31 -58s-31.667 -27.333 -53 -34c-8.66699 -2.66699 -16.334 -4.16699 -23.001 -4.5s-12.334 1.16699 -17.001 4.5c-4 2 -7.16699 5.66699 -9.5 11s-3.5 11 -3.5 17c0 7.33301 1.83301 13.5 5.5 18.5s9.5 9.5 17.5 13.5
c19.333 8 30.333 14.333 33 19s4.33398 10.334 5.00098 17.001c-0.666992 5.33301 -1.83398 9 -3.50098 11s-5.16699 3.33301 -10.5 4c-14 0.666992 -24.667 4.5 -32 11.5s-12.666 17.167 -15.999 30.5c-2 4 -3.33301 8.66699 -4 14s-1 11 -1 17s0.666992 11.833 2 17.5
l4 17.5c6.66699 14.667 15.5 26 26.5 34s24.5 12 40.5 12zM323.002 722c2 0 5.00391 -0.167969 9.00391 -0.500977s7.66699 -0.833008 11 -1.5c12 -4.66699 22 -11 30 -19s14 -18.333 18 -31c2.66699 -8 4.83398 -16.5 6.50098 -25.5s2.5 -18.167 2.5 -27.5
c0 -14.667 -0.833008 -27.167 -2.5 -37.5s-3.83398 -20.166 -6.50098 -29.499c-6 -22.667 -16 -41.834 -30 -57.501s-31.667 -27.5 -53 -35.5c-5.33301 -1.33301 -9.83301 -2.16602 -13.5 -2.49902s-6.5 -0.5 -8.5 -0.5c-4 0 -7.5 0.166992 -10.5 0.5
s-5.16699 1.16602 -6.5 2.49902c-4.66699 2.66699 -8.33398 6.5 -11.001 11.5s-3.33398 10.833 -2.00098 17.5c0 7.33301 1.5 13.333 4.5 18s8.5 9 16.5 13c19.333 8 30.666 14.5 33.999 19.5s5 10.5 5 16.5s-0.833008 10 -2.5 12s-5.83398 3.33301 -12.501 4
c-12.667 0.666992 -23 4.33398 -31 11.001s-13.667 17 -17 31c-1.33301 4 -2.5 8.5 -3.5 13.5s-1.5 11.167 -1.5 18.5c0 4.66699 0.666992 10 2 16s3.33301 12 6 18c5.33301 14 13.833 25 25.5 33s25.5 12 41.5 12z" />
    <glyph glyph-name="numbersign" unicode="#" horiz-adv-x="577" 
d="M378 174l-10.0039 -120.998c-1.33301 -11.333 -2.66602 -17.666 -3.99902 -18.999s-3.33301 -2 -6 -2c-4 -0.666992 -8.83301 -1.16699 -14.5 -1.5s-13.834 -0.5 -24.501 -0.5c-12 0 -19.333 1 -22 3s-3.33398 6.66699 -2.00098 14l16 113
c0.666992 12.667 0 20.5 -2 23.5s-5.33301 4.5 -10 4.5h-59c-11.333 -0.666992 -18.333 -2.33398 -21 -5.00098s-4 -6.33398 -4 -11.001l-13 -125c-2 -8.66699 -4.83301 -13.667 -8.5 -15s-20.167 -2 -49.5 -2c-7.33301 0 -12.166 1.16699 -14.499 3.5
s-3.16602 6.83301 -2.49902 13.5l19 120c2 9.33301 1.33301 14.833 -2 16.5s-8.66602 2.5 -15.999 2.5l-81 -2c-4 -1.33301 -6.83301 -1.16602 -8.5 0.500977s-2.5 8.5 -2.5 20.5c0 39.333 1.16699 62.166 3.5 68.499s10.833 9.5 25.5 9.5c7.33301 0 17 -0.5 29 -1.5
s20 -1.5 24 -1.5c6 -1.33301 11 -2 15 -2s8.33301 0.666992 13 2c6.66699 0 11 1 13 3s4.33301 11 7 27l16 163c0 7.33301 -0.5 12 -1.5 14s-5.5 3 -13.5 3c-6 0 -13.333 -0.333008 -22 -1s-15 -1 -19 -1h-26.5c-9.66699 0 -16.167 0.666992 -19.5 2
c-2 0.666992 -3.5 1.5 -4.5 2.5s-1.5 6.83301 -1.5 17.5c0 37.333 1 59.5 3 66.5s8.66699 10.5 20 10.5c7.33301 0 20.666 -0.666992 39.999 -2s33.333 -2 42 -2c10 0 15.833 1.5 17.5 4.5s2.83398 9.5 3.50098 19.5l8 117c0 5.33301 1.16699 9.16602 3.5 11.499
s7.5 3.5 15.5 3.5h39c7.33301 -0.666992 12 -1.83398 14 -3.50098s2.66699 -5.5 2 -11.5l-20 -125c-2 -6 -2.33301 -10.5 -1 -13.5s10.333 -4.16699 27 -3.5h58c5.33301 0 9.33301 1 12 3s4.66699 7.33301 6 16l9 121c0 4 0.5 7.33301 1.5 10s6.83301 4 17.5 4l34 1
c12.667 0 19.667 -0.833008 21 -2.5s2 -4.5 2 -8.5l-21 -115c-2 -11.333 -2 -18.833 0 -22.5s10.667 -5.5 26 -5.5c8 0 19.333 0.5 34 1.5s26.334 1.83301 35.001 2.5c8 0 12.667 -1.66699 14 -5s2.33301 -10.666 3 -21.999c0 -5.33301 -0.666992 -11.166 -2 -17.499
s-2 -10.5 -2 -12.5c-0.666992 -2 -1.33398 -5.83301 -2.00098 -11.5s-1 -10.5 -1 -14.5c-2 -7.33301 -4.16699 -12 -6.5 -14s-6.5 -3 -12.5 -3c-7.33301 0 -18.666 0.833008 -33.999 2.5s-30 2.5 -44 2.5c-10 -0.666992 -16.167 -1.83398 -18.5 -3.50098
s-3.83301 -6.5 -4.5 -14.5l-22 -182c0 -4 0.833008 -6.83301 2.5 -8.5s8.16699 -2.5 19.5 -2.5c3.33301 0 14.333 0.333008 33 1s30.334 1 35.001 1c10.667 0 17.167 -0.5 19.5 -1.5s3.5 -2.5 3.5 -4.5c0 -40 -2.33301 -65.5 -7 -76.5s-11 -16.167 -19 -15.5l-74 2
c-6.66699 0 -12.667 -1.33301 -18 -4s-8 -5.66699 -8 -9zM246.996 470.002l-21.002 -171.001c-2 -6.66699 -1.5 -11.5 1.5 -14.5s6.5 -4.5 10.5 -4.5h64c10 -1.33301 17 -1 21 1s6.33301 4.66699 7 8l19 180c0.666992 8.66699 -0.166016 14.334 -2.49902 17.001
s-5.5 4.33398 -9.5 5.00098h-71c-5.33301 -0.666992 -9.66602 -2.33398 -12.999 -5.00098s-5.33301 -8 -6 -16z" />
    <glyph glyph-name="dollar" unicode="$" horiz-adv-x="463" 
d="M240 298l-8 -117c6 -8 12.167 -12.167 18.5 -12.5s12.833 1.83398 19.5 6.50098c4.66699 4 7.83398 10.667 9.50098 20s0.5 20.666 -3.5 33.999c-4 10.667 -9.33301 22.167 -16 34.5s-13.334 23.833 -20.001 34.5zM191 205l6.99609 133
c-45.333 56 -72.666 90.5 -81.999 103.5s-16.333 25.167 -21 36.5c-20 34.667 -30.167 71.667 -30.5 111s9.83398 74.333 30.501 105c12.667 18.667 30.167 34.834 52.5 48.501s47.5 22.834 75.5 27.501v23c0 27.333 4.16699 47.333 12.5 60s20.5 19 36.5 19
c14.667 0 25 -3.66699 31 -11s5.66699 -18 -1 -32c-2 -3.33301 -7.5 -11.166 -16.5 -23.499s-13.833 -21.5 -14.5 -27.5c-1.33301 -3.33301 -1.5 -5.83301 -0.5 -7.5s5.5 -3.16699 13.5 -4.5c17.333 -3.33301 32.333 -8.5 45 -15.5s23.334 -15.167 32.001 -24.5
c18 -20 26.333 -45.333 25 -76s-14.333 -54 -39 -70c-15.333 -10.667 -32 -16 -50 -16s-35.333 4.66699 -52 14c-15.333 8 -26 11.667 -32 11s-11 -4.66699 -15 -12s-5.16699 -15 -3.5 -23s7.5 -17 17.5 -27c88 -99.333 133 -149.333 135 -150
c20.667 -28.667 36.167 -57.834 46.5 -87.501s15.5 -60.167 15.5 -91.5c-0.666992 -44.667 -8.33398 -83 -23.001 -115s-35.334 -55.667 -62.001 -71c-12.667 -7.33301 -26.834 -13 -42.501 -17s-32.167 -6 -49.5 -6c-2.66699 0.666992 -5 1 -7 1h-8
c0.666992 -24.667 -1.16602 -45.834 -5.49902 -63.501s-11.166 -30.834 -20.499 -39.501c-14.667 -10 -28.167 -10.667 -40.5 -2s-12.833 22.667 -1.5 42c13.333 28 20.833 44.833 22.5 50.5s2.83398 11.5 3.50098 17.5c-36 8 -64.833 23.5 -86.5 46.5
s-32.5 49.833 -32.5 80.5c-0.666992 18 3 34.167 11 48.5s19.333 25.833 34 34.5c12.667 6.66699 26.834 10.167 42.501 10.5s31.5 -3.16699 47.5 -10.5z" />
    <glyph glyph-name="percent" unicode="%" horiz-adv-x="550" 
d="M172 113l169.001 542.998c11.333 35.333 18 55 20 59s4 7.66699 6 11c11.333 15.333 24.166 22 38.499 20s23.833 -10.667 28.5 -26c2.66699 -10.667 2 -21 -2 -31s-13.333 -20.333 -28 -31c-10.667 -9.33301 -18.5 -17.166 -23.5 -23.499s-8.5 -14.166 -10.5 -23.499
l-173 -568c-6.66699 -20.667 -13.5 -34.834 -20.5 -42.501s-16.167 -11.5 -27.5 -11.5c-8 0 -15.167 2.16699 -21.5 6.5s-10.833 11.166 -13.5 20.499c-0.666992 2.66699 -1 6.33398 -1 11.001s0.333008 9.33398 1 14.001c0.666992 4 2 8 4 12s11.333 11.667 28 23
c6 4 11 9 15 15s7.66699 13.333 11 22zM400.001 -11.002c-33.333 0 -58.498 16 -75.498 48s-25.5 79.333 -25.5 142c0 66 7.83301 117.333 23.5 154s40.5 55 74.5 55c32.667 0 57.5 -17.667 74.5 -53s25.5 -82.333 25.5 -141
c-0.666992 -72 -9.33398 -124.167 -26.001 -156.5s-40.334 -48.5 -71.001 -48.5zM371.003 215.998l0.00390625 -58.998c-0.666992 -24.667 1.16602 -41.667 5.49902 -51s11.5 -14 21.5 -14c9.33301 0 15.666 3.66699 18.999 11s5.66602 25.333 6.99902 54v60
c0 27.333 -2.33301 45.166 -7 53.499s-11.334 12.833 -20.001 13.5c-10 -0.666992 -16.833 -5.33398 -20.5 -14.001s-5.5 -26.667 -5.5 -54zM157.007 347c-32.667 0 -57.666 16 -74.999 48s-26 79 -26 141c-0.666992 66.667 7 118.167 23 154.5s41.333 54.5 76 54.5
c33.333 0 58.166 -17.5 74.499 -52.5s24.5 -81.833 24.5 -140.5c0 -72 -8.16699 -124.167 -24.5 -156.5s-40.5 -48.5 -72.5 -48.5zM128.008 574l-0.000976562 -59c0 -24.667 2 -41.667 6 -51s11.333 -14 22 -14c8.66699 0 14.834 3.66699 18.501 11
s5.83398 25.333 6.50098 54v60c0 28 -2.16699 46.167 -6.5 54.5s-10.833 12.5 -19.5 12.5c-10.667 0 -17.834 -4.66699 -21.501 -14s-5.5 -27.333 -5.5 -54z" />
    <glyph glyph-name="ampersand" unicode="&#x26;" horiz-adv-x="554" 
d="M264 770c44.667 0 79.499 -13.3359 104.499 -40.0029s37.5 -61.334 37.5 -104.001c0 -36 -7.83301 -70.5 -23.5 -103.5s-41.5 -67.167 -77.5 -102.5c4 -12.667 9.33301 -24.834 16 -36.501s14.334 -23.5 23.001 -35.5c4 4 7.33301 7.83301 10 11.5s7 17.167 13 40.5
c4 21.333 12.833 36.833 26.5 46.5s29.167 14.834 46.5 15.501c33.333 0 57.166 -12.5 71.499 -37.5s14.5 -50.833 0.5 -77.5c-4.66699 -10 -7.16699 -15 -7.5 -15s-20.833 -15.667 -61.5 -47c-10.667 -6.66699 -19.667 -14.834 -27 -24.501s-13 -20.167 -17 -31.5
c16.667 -28 29.834 -59.5 39.501 -94.5s14.5 -71.167 14.5 -108.5c0 -33.333 -3.83301 -64.166 -11.5 -92.499s-19.167 -51.5 -34.5 -69.5c-14.667 -16 -32.5 -25.833 -53.5 -29.5s-40.5 0.166016 -58.5 11.499c-20.667 12 -33.167 28.333 -37.5 49
s-0.166016 43.334 12.501 68.001c1.33301 3.33301 3.16602 6.83301 5.49902 10.5s20.166 24.167 53.499 61.5c10.667 12.667 16.667 25.834 18 39.501s-1.66699 21.167 -9 22.5c-4.66699 0 -8.5 -1.83301 -11.5 -5.5s-6.16699 -9.5 -9.5 -17.5
c-8 -23.333 -22 -41.5 -42 -54.5s-44 -19.5 -72 -19.5c-44 0 -79.667 15.333 -107 46s-41 71.667 -41 123c0 44 11 88.667 33 134s54 88 96 128c-32.667 63.333 -51.5 103.833 -56.5 121.5s-7.16699 35.834 -6.5 54.501c-0.666992 46.667 11.333 85.334 36 116.001
s60.334 46.334 107.001 47.001zM226.999 342.997l-24 -44c-19.333 -38 -24.5 -69.667 -15.5 -95s25.833 -38 50.5 -38c12.667 0 24.667 6 36 18s18.333 27.667 21 47zM260.999 502.997c20.667 31.333 31.999 49.666 33.999 54.999s3 10.333 3 15
c0 12.667 -3.16699 22.667 -9.5 30s-14.5 11 -24.5 11c-10.667 0 -19.167 -3.66699 -25.5 -11s-9.16602 -17.333 -8.49902 -30c0 -4.66699 1.16699 -10.167 3.5 -16.5s11.5 -24.166 27.5 -53.499z" />
    <glyph glyph-name="quotesingle" unicode="'" horiz-adv-x="259" 
d="M127 724c3.33301 -1.33301 6.83691 -1.99902 10.5039 -1.99902s7.5 -0.333008 11.5 -1c11.333 -4.66699 21.166 -11 29.499 -19s14.5 -18.333 18.5 -31c2 -8 3.66699 -16.5 5 -25.5s2.33301 -18.5 3 -28.5c0 -14 -0.833008 -26.333 -2.5 -37s-3.5 -20.334 -5.5 -29.001
c-6.66699 -22.667 -17 -41.834 -31 -57.501s-31.667 -27.5 -53 -35.5c-4.66699 -1.33301 -8.83398 -2.16602 -12.501 -2.49902s-7.16699 -0.5 -10.5 -0.5c-3.33301 -0.666992 -6.33301 -0.666992 -9 0s-5.33398 1.66699 -8.00098 3c-4 2.66699 -7.16699 6.66699 -9.5 12
s-3.5 11 -3.5 17c0 7.33301 1.83301 13.333 5.5 18s9.5 9 17.5 13c19.333 8 30.5 14.5 33.5 19.5s4.5 10.5 4.5 16.5c-0.666992 6 -1.83398 10 -3.50098 12s-5.16699 3.33301 -10.5 4c-14 0.666992 -24.667 4.5 -32 11.5s-12.666 17.167 -15.999 30.5
c-2 4 -3.33301 8.66699 -4 14s-1 11 -1 17s0.666992 12 2 18s2.66602 11.667 3.99902 17c6.66699 14.667 15.5 26 26.5 34s24.5 12 40.5 12z" />
    <glyph glyph-name="parenleft" unicode="(" horiz-adv-x="373" 
d="M245 800c4.66699 -0.666992 9.66602 -1.49805 14.999 -2.49805s10.333 -2.83301 15 -5.5c13.333 -7.33301 24 -19.333 32 -36s12 -33.334 12 -50.001c0 -16 -3 -31.667 -9 -47s-25.333 -43 -58 -83c-32 -40 -54.667 -79.167 -68 -117.5s-20 -85.5 -20 -141.5
c0 -56.667 6.66699 -104.334 20 -143.001s36 -77 68 -115c32.667 -40.667 52 -68.5 58 -83.5s9 -30.833 9 -47.5c-0.666992 -16.667 -4.83398 -33.5 -12.501 -50.5s-18.167 -28.833 -31.5 -35.5c-11.333 -5.33301 -23.666 -7.66602 -36.999 -6.99902s-26.666 5 -39.999 13
c-39.333 22.667 -73 83.5 -101 182.5s-41.667 194.5 -41 286.5c0 92 13.833 187.333 41.5 286s61.167 160 100.5 184c6.66699 3.33301 14 6.16602 22 8.49902s16.333 3.83301 25 4.5z" />
    <glyph glyph-name="parenright" unicode=")" horiz-adv-x="373" 
d="M130 800c6.66699 -0.666992 14.332 -2.16895 22.999 -4.50195s16.334 -5.16602 23.001 -8.49902c38 -24 71.167 -85.333 99.5 -184s42.5 -194 42.5 -286s-14.167 -187.5 -42.5 -286.5s-61.5 -159.833 -99.5 -182.5c-14 -8 -27.833 -12.333 -41.5 -13
s-25.167 1.66602 -34.5 6.99902c-14.667 6.66699 -25.834 18.5 -33.501 35.5s-11.5 33.833 -11.5 50.5s2.83301 32.5 8.5 47.5s25.167 42.833 58.5 83.5c31.333 38 53.833 76.333 67.5 115s20.5 86.334 20.5 143.001c0 56 -6.83301 103.167 -20.5 141.5
s-36.167 77.5 -67.5 117.5c-33.333 40 -52.833 67.667 -58.5 83s-8.5 31 -8.5 47c0 16.667 3.83301 33.334 11.5 50.001s18.834 28.667 33.501 36c4 2.66699 8.5 4.66699 13.5 6s10.5 2 16.5 2z" />
    <glyph glyph-name="asterisk" unicode="*" horiz-adv-x="335" 
d="M170 649c8 0 14.166 -2.16699 18.499 -6.5s8 -9.16602 11 -14.499s6 -11 9 -17s6.5 -10.333 10.5 -13c4.66699 -3.33301 11 -5.66602 19 -6.99902s15.833 -3.16602 23.5 -5.49902s14.167 -5.66602 19.5 -9.99902s8 -11.5 8 -21.5c0 -7.33301 -2 -13.333 -6 -18
s-8.33301 -9.33398 -13 -14.001s-9 -9.5 -13 -14.5s-6 -11.5 -6 -19.5c0 -3.33301 0.5 -8.66602 1.5 -15.999s1.5 -14.333 1.5 -21c0 -5.33301 -2.5 -11.833 -7.5 -19.5s-12.5 -11.5 -22.5 -11.5c-4.66699 0 -9 1 -13 3l-12 6c-4 2 -8.33301 4 -13 6s-10 3 -16 3
c-11.333 0 -21 -3 -29 -9s-16.333 -9 -25 -9c-10 0 -17.5 3.83301 -22.5 11.5s-7.5 14.167 -7.5 19.5c0 6.66699 0.5 13.667 1.5 21s1.5 12.666 1.5 15.999c0 8 -2 14.5 -6 19.5s-8.33301 9.83301 -13 14.5s-9 9.33398 -13 14.001s-6 10.667 -6 18
c0 10 2.66699 17.167 8 21.5s11.833 7.66602 19.5 9.99902s15.334 4.16602 23.001 5.49902s14.167 3.66602 19.5 6.99902c4 2.66699 7.5 7 10.5 13s6 11.667 9 17s6.66699 10.166 11 14.499s10.5 6.5 18.5 6.5z" />
    <glyph glyph-name="plus" unicode="+" horiz-adv-x="609" 
d="M372 330h106c18.667 0 34.334 -5.66699 47.001 -17s19 -28.333 19 -51s-6.33301 -39.667 -19 -51s-28.334 -17 -47.001 -17h-106v-106c0 -18.667 -5.66699 -34.334 -17 -47.001s-28.333 -19 -51 -19s-39.667 6.33301 -51 19s-17 28.334 -17 47.001v106h-105
c-18.667 0 -34.334 5.66699 -47.001 17s-19 28.333 -19 51s6.33301 39.667 19 51s28.334 17 47.001 17h105v105c0 18.667 5.66699 34.334 17 47.001s28.333 19 51 19s39.667 -6.33301 51 -19s17 -28.334 17 -47.001v-105z" />
    <glyph glyph-name="comma" unicode="," horiz-adv-x="282" 
d="M54 77c0 13.333 2.50293 25.333 7.50293 36s11.667 19.667 20 27s17.666 13 27.999 17s20.5 6 30.5 6c28 0 49.333 -9.66699 64 -29s22 -44.333 22 -75c0 -12 -2.16699 -27.667 -6.5 -47s-10.5 -37.333 -18.5 -54c-6 -12 -13.333 -24.167 -22 -36.5
s-17.834 -23.5 -27.501 -33.5s-19 -18.167 -28 -24.5s-16.833 -9.5 -23.5 -9.5c-7.33301 0 -11 4.33301 -11 13c0 5.33301 1.66699 10.166 5 14.499s6.83301 9.33301 10.5 15s7.16699 12.667 10.5 21s5 19.5 5 33.5c0 12 -1.33301 21.333 -4 28s-6 12 -10 16
s-8.33301 7.33301 -13 10s-9.33398 6 -14.001 10c-7.33301 6.66699 -13.333 15.334 -18 26.001s-7 22.667 -7 36z" />
    <glyph glyph-name="hyphen" unicode="-" horiz-adv-x="461" 
d="M347 291c17.333 0 32.166 -6.5 44.499 -19.5s18.5 -29.167 18.5 -48.5s-6.16699 -35.5 -18.5 -48.5s-27.166 -19.5 -44.499 -19.5h-233c-17.333 0 -32.166 6.5 -44.499 19.5s-18.5 29.167 -18.5 48.5s6.16699 35.5 18.5 48.5s27.166 19.5 44.499 19.5h233z" />
    <glyph glyph-name="period" unicode="." horiz-adv-x="282" 
d="M55 78c0 12 2.33301 23.167 7 33.5s10.834 19.333 18.501 27s16.667 13.834 27 18.501s21.5 7 33.5 7s23.167 -2.33301 33.5 -7s19.333 -10.834 27 -18.501s13.834 -16.667 18.501 -27s7 -21.5 7 -33.5s-2.33301 -23.167 -7 -33.5s-10.834 -19.333 -18.501 -27
s-16.667 -13.834 -27 -18.501s-21.5 -7 -33.5 -7s-23.167 2.33301 -33.5 7s-19.333 10.834 -27 18.501s-13.834 16.667 -18.501 27s-7 21.5 -7 33.5z" />
    <glyph glyph-name="slash" unicode="/" horiz-adv-x="512" 
d="M420 678l36 -14l-363 -869l-36 14z" />
    <glyph glyph-name="zero" unicode="0" horiz-adv-x="512" 
d="M65 319c0 44 3.5 83.5 10.5 118.5s18.333 64.833 34 89.5s35.5 43.667 59.5 57s53 20 87 20s63 -6.66699 87 -20s43.833 -32.333 59.5 -57s27 -54.5 34 -89.5s10.5 -74.5 10.5 -118.5v-44c0 -44 -3.5 -83.5 -10.5 -118.5s-18.333 -64.833 -34 -89.5
s-35.5 -43.667 -59.5 -57s-53 -20 -87 -20s-63 6.66699 -87 20s-43.833 32.333 -59.5 57s-27 54.5 -34 89.5s-10.5 74.5 -10.5 118.5v44zM222 206c0 -11.333 3.33301 -20.5 10 -27.5s14.667 -10.5 24 -10.5s17.333 3.5 24 10.5s10 16.167 10 27.5v182
c0 11.333 -3.33301 20.5 -10 27.5s-14.667 10.5 -24 10.5s-17.333 -3.5 -24 -10.5s-10 -16.167 -10 -27.5v-182z" />
    <glyph glyph-name="one" unicode="1" horiz-adv-x="410" 
d="M171 300c2 12.667 3.00098 21.335 3.00098 26.002c0 8.66699 -4.66699 13 -14 13c-4 0 -9.16699 -0.833008 -15.5 -2.5s-12.166 -2.5 -17.499 -2.5c-16 0 -28.667 5.66699 -38 17s-14 22.666 -14 33.999c0 10.667 1.5 19.167 4.5 25.5s7.5 12.666 13.5 18.999
s13.833 14 23.5 23s21.167 21.833 34.5 38.5c10 12 18.167 24.167 24.5 36.5s12.833 23.166 19.5 32.499s14.5 17 23.5 23s20.833 9 35.5 9c19.333 0 33.166 -5.16699 41.499 -15.5s13.166 -24.166 14.499 -41.499l26 -399c0 -4 0.166992 -9 0.5 -15l1 -18
c0.333008 -6 0.5 -11.5 0.5 -16.5v-8.5c0 -17.333 -2.83301 -31.666 -8.5 -42.999s-13.167 -20.333 -22.5 -27s-19.833 -11.334 -31.5 -14.001s-23.5 -4 -35.5 -4c-10.667 0 -21.5 2.16699 -32.5 6.5s-21.167 10.333 -30.5 18s-17 16.834 -23 27.501s-9 22.667 -9 36
c0 2 0.333008 6.66699 1 14s1.66699 14.666 3 21.999z" />
    <glyph glyph-name="two" unicode="2" horiz-adv-x="512" 
d="M63 474c0 22.667 6.16797 42.1689 18.501 58.502s28 29.5 47 39.5s39.5 17.333 61.5 22s42.667 7 62 7c55.333 0 99.833 -16.833 133.5 -50.5s50.5 -79.5 50.5 -137.5c0 -25.333 -3.83301 -48 -11.5 -68s-17.5 -37.667 -29.5 -53s-25.333 -29 -40 -41
s-28.667 -22.833 -42 -32.5s-25.166 -18.667 -35.499 -27s-17.5 -16.833 -21.5 -25.5c8.66699 1.33301 16.5 3.83301 23.5 7.5l21 11.5c7 4 14.5 7.5 22.5 10.5s17 4.5 27 4.5c31.333 0 55.666 -10.667 72.999 -32s26 -47 26 -77c0 -15.333 -3.83301 -29.333 -11.5 -42
s-17.167 -23.334 -28.5 -32.001s-24 -15.334 -38 -20.001s-27 -7 -39 -7c-9.33301 0 -18.5 1.16699 -27.5 3.5s-18 5 -27 8s-17.667 5.66699 -26 8s-16.166 3.5 -23.499 3.5c-8.66699 0 -16.667 -1.16699 -24 -3.5s-14.833 -5 -22.5 -8s-15.834 -5.66699 -24.501 -8
s-19 -3.5 -31 -3.5c-8 0 -15.667 2.16699 -23 6.5s-14 10.333 -20 18s-10.833 16.667 -14.5 27s-5.5 21.5 -5.5 33.5c0 19.333 5.16699 40.333 15.5 63s23.333 45.5 39 68.5s32.667 45.5 51 67.5l51 60.5c15.667 18.333 28.667 34.166 39 47.499s15.5 23 15.5 29
c0 14 -6.66699 21 -20 21c-6.66699 0 -12.834 -2.83301 -18.501 -8.5l-19 -19c-7 -7 -15.5 -13.333 -25.5 -19s-23 -8.5 -39 -8.5c-12 0 -23.333 2.66699 -34 8s-20.167 12.5 -28.5 21.5s-14.833 19.333 -19.5 31s-7 23.834 -7 36.501z" />
    <glyph glyph-name="three" unicode="3" horiz-adv-x="512" 
d="M67 476c0 20 5.49902 37.8252 16.499 53.4922s25 28.667 42 39s35.667 18.333 56 24s39.833 8.5 58.5 8.5c22.667 0 45.167 -3.33301 67.5 -10s42.5 -16.667 60.5 -30s32.5 -29.833 43.5 -49.5s16.5 -42.5 16.5 -68.5c0 -26.667 -3.16699 -47.167 -9.5 -61.5
s-13.333 -25.166 -21 -32.499s-14.667 -12.666 -21 -15.999s-9.5 -7 -9.5 -11c0 -3.33301 4.16699 -7.66602 12.5 -12.999s17.5 -13.5 27.5 -24.5s19.167 -25.833 27.5 -44.5s12.5 -43 12.5 -73c0 -29.333 -6.5 -55.166 -19.5 -77.499s-30 -40.833 -51 -55.5
s-44.333 -25.667 -70 -33s-51.5 -11 -77.5 -11c-18.667 0 -37.5 2.33301 -56.5 7s-36.333 11.834 -52 21.501s-28.5 22.334 -38.5 38.001s-15 34.5 -15 56.5c0 26 7.5 47.833 22.5 65.5s35.833 26.5 62.5 26.5c12.667 0 23.834 -1.66699 33.501 -5
s18.834 -7.16602 27.501 -11.499s16.834 -8.16602 24.501 -11.499s15.5 -5 23.5 -5c14 0 21 8.66699 21 26c0 11.333 -2.83301 19.833 -8.5 25.5s-12.834 10 -21.501 13s-18.167 5.5 -28.5 7.5s-19.833 5 -28.5 9s-15.834 10 -21.501 18s-8.5 19.333 -8.5 34
c0 17.333 4.83301 29.833 14.5 37.5s20.167 13.834 31.5 18.501s21.833 9.83398 31.5 15.501s14.5 15.167 14.5 28.5c0 3.33301 -1.33301 6.66602 -4 9.99902s-6.33398 5 -11.001 5c-6.66699 0 -12.5 -2 -17.5 -6l-16.5 -13c-6 -4.66699 -13.167 -9 -21.5 -13
s-19.166 -6 -32.499 -6s-25.5 2.66699 -36.5 8s-20.167 12.5 -27.5 21.5s-13 19.167 -17 30.5s-6 22.666 -6 33.999z" />
    <glyph glyph-name="four" unicode="4" horiz-adv-x="486" 
d="M260 353c0 17.333 6.32715 31.9971 18.9941 43.9971s28.334 18 47.001 18c20.667 0 35.334 -8.5 44.001 -25.5s13 -35.5 13 -55.5v-49h10c10 0 19.667 -2.16699 29 -6.5s17.666 -10.166 24.999 -17.499s13.333 -16.166 18 -26.499s7 -21.833 7 -34.5
c0 -13.333 -3.16699 -26 -9.5 -38s-15.166 -21.667 -26.499 -29c-4 -2.66699 -8.33301 -4.5 -13 -5.5s-9.16699 -2.33301 -13.5 -4s-8 -3.66699 -11 -6s-4.5 -6.16602 -4.5 -11.499s0.666992 -8.5 2 -9.5s2 -4.5 2 -10.5c0 -19.333 -3.16699 -35.166 -9.5 -47.499
s-14.333 -22 -24 -29s-20.167 -12 -31.5 -15s-21.666 -4.5 -30.999 -4.5c-12 0 -23.667 2 -35 6s-21.166 9.5 -29.499 16.5s-15.166 15.5 -20.499 25.5s-8 21 -8 33c0 7.33301 1.33301 15.666 4 24.999s4 18 4 26v19c0 13.333 -4 20 -12 20
c-5.33301 0 -12.166 -1.66699 -20.499 -5l-27.5 -11.5c-10 -4.33301 -20.667 -8.16602 -32 -11.499s-22.666 -5 -33.999 -5c-9.33301 0 -18.5 1.16699 -27.5 3.5s-17.167 6.16602 -24.5 11.499s-13.333 12 -18 20s-7 17.667 -7 29c0 16 5 32.167 15 48.5l33.5 54
c12.333 19.667 23.5 41.5 33.5 65.5s15 52 15 84c0 8.66699 -1 17.167 -3 25.5s-3 17.833 -3 28.5c0 13.333 2 26.333 6 39s10.167 23.834 18.5 33.501s18.666 17.5 30.999 23.5s26.833 9 43.5 9c13.333 0 26.833 -1.66699 40.5 -5s26 -8.5 37 -15.5s20 -16.5 27 -28.5
s10.5 -26.333 10.5 -43c0 -18.667 -5.83301 -39.334 -17.5 -62.001s-24.5 -44.667 -38.5 -66l-38.5 -56.5c-11.667 -16.333 -17.5 -27.5 -17.5 -33.5c0 -3.33301 3.16699 -6 9.5 -8s10.833 -3 13.5 -3h13c5.33301 0 9.5 1.83301 12.5 5.5s4.5 8.16699 4.5 13.5v52z" />
    <glyph glyph-name="five" unicode="5" horiz-adv-x="499" 
d="M88 535c0 19.333 4.83203 35.4951 14.499 48.4951s23.167 19.5 40.5 19.5c14.667 0 30.167 -3 46.5 -9s28.833 -9 37.5 -9c13.333 0 27.666 3 42.999 9s31.333 9 48 9c13.333 0 26.333 -1.5 39 -4.5s23.834 -8.16699 33.501 -15.5s17.5 -17.166 23.5 -29.499
s9 -27.833 9 -46.5c0 -14 -2.83301 -26.667 -8.5 -38s-13 -20.666 -22 -27.999s-19.167 -13 -30.5 -17s-22.666 -6 -33.999 -6c-17.333 0 -33.666 2.33301 -48.999 7s-32.333 8 -51 10v-35c0 -5.33301 3 -8 9 -8c9.33301 0 20 1.66699 32 5s23.667 5 35 5
c27.333 0 50.333 -6 69 -18s33.667 -27.333 45 -46s19.5 -39.167 24.5 -61.5s7.5 -43.5 7.5 -63.5c0 -39.333 -5.66699 -73 -17 -101s-26.833 -51 -46.5 -69s-43 -31.333 -70 -40s-56.167 -13 -87.5 -13c-19.333 0 -39.666 2.33301 -60.999 7s-40.833 12 -58.5 22
s-32.167 23.333 -43.5 40s-17 37 -17 61c0 23.333 7.16699 42.5 21.5 57.5s33.166 22.5 56.499 22.5c14 0 26.5 -2.16699 37.5 -6.5s21.167 -9.16602 30.5 -14.499l26.5 -14.5c8.33301 -4.33301 16.833 -6.5 25.5 -6.5c12 0 21.667 6 29 18s11 23.667 11 35
c0 10.667 -4 20.334 -12 29.001s-16.667 13 -26 13c-7.33301 0 -14.5 -1.66699 -21.5 -5l-22 -10.5c-7.66699 -3.66699 -15.667 -7.16699 -24 -10.5s-17.5 -5 -27.5 -5c-20.667 0 -36.834 5.33301 -48.501 16s-17.5 24.334 -17.5 41.001v256z" />
    <glyph glyph-name="six" unicode="6" horiz-adv-x="512" 
d="M285 602c16.667 0 33.6689 -1.83398 51.002 -5.50098s33.166 -9.66699 47.499 -18s26 -19 35 -32s13.5 -28.833 13.5 -47.5c0 -31.333 -9.83301 -53.666 -29.5 -66.999s-44.834 -20 -75.501 -20c-14.667 0 -26.5 1.16699 -35.5 3.5s-18.167 3.5 -27.5 3.5
c-6.66699 0 -12.334 -2.33301 -17.001 -7s-8.5 -10.167 -11.5 -16.5s-5.33301 -12.666 -7 -18.999s-2.5 -11.5 -2.5 -15.5c0 -8.66699 2 -16.334 6 -23.001c12.667 15.333 26.334 26.833 41.001 34.5s32 11.5 52 11.5c22.667 0 42 -5.66699 58 -17s29 -25.5 39 -42.5
s17.333 -35.667 22 -56s7 -39.833 7 -58.5c0 -29.333 -4.16699 -57.333 -12.5 -84s-20.5 -50 -36.5 -70s-35.667 -36 -59 -48s-50.333 -18 -81 -18c-40 0 -73 7.83301 -99 23.5s-46.667 36.334 -62 62.001s-26 54.5 -32 86.5s-9 64.333 -9 97c0 41.333 3 82.5 9 123.5
s17.333 77.667 34 110s39.667 58.666 69 78.999s67 30.5 113 30.5zM268.002 146.999c10 0 18.668 2.99902 26.001 8.99902s11 14.667 11 26c0 8.66699 -2.33301 15.5 -7 20.5s-10.667 9.66699 -18 14l-24.5 14c-9 5 -17.833 12.167 -26.5 21.5
c-2.66699 -5.33301 -4.33398 -11 -5.00098 -17s-1 -12 -1 -18c0 -7.33301 0.833008 -15.166 2.5 -23.499s4.16699 -16 7.5 -23s8 -12.667 14 -17s13 -6.5 21 -6.5z" />
    <glyph glyph-name="seven" unicode="7" horiz-adv-x="512" 
d="M64 495c0 16.667 3.83008 31.835 11.4971 45.502s17.667 25 30 34s26 16 41 21s29.5 7.5 43.5 7.5c8.66699 0 17.334 -1.5 26.001 -4.5l26.5 -9.5l26.5 -9.5c8.66699 -3 17.667 -4.5 27 -4.5c7.33301 0 15.166 1.5 23.499 4.5l25.5 9.5l25 9.5c8 3 15.333 4.5 22 4.5
c21.333 0 36 -7 44 -21s12 -30 12 -48c0 -28.667 -5.83301 -56.167 -17.5 -82.5s-24.667 -51.833 -39 -76.5s-27.333 -48.5 -39 -71.5s-17.5 -45.5 -17.5 -67.5c0 -12 1.5 -23.833 4.5 -35.5s6.33301 -23.167 10 -34.5s7 -22.666 10 -33.999s4.5 -22.333 4.5 -33
c0 -31.333 -10.167 -57.333 -30.5 -78s-46.5 -31 -78.5 -31c-16.667 0 -31.167 3.66699 -43.5 11s-22.666 17 -30.999 29s-14.666 25.667 -18.999 41s-6.5 30.666 -6.5 45.999c0 41.333 5.83301 79.166 17.5 113.499s24.5 64.833 38.5 91.5s26.833 49 38.5 67
s17.5 31.333 17.5 40s-4.33301 13 -13 13c-8 0 -16 -2 -24 -6s-16.167 -8.5 -24.5 -13.5s-17 -9.5 -26 -13.5s-18.5 -6 -28.5 -6c-10.667 0 -21.167 2.33301 -31.5 7s-19.666 11 -27.999 19s-15 17.667 -20 29s-7.5 23.666 -7.5 36.999z" />
    <glyph glyph-name="eight" unicode="8" horiz-adv-x="499" 
d="M62 451c0 23.333 5.8291 44.5 17.4961 63.5s26.5 35.333 44.5 49s38 24.334 60 32.001s43.667 11.5 65 11.5s43 -3.83301 65 -11.5s42 -18.334 60 -32.001s32.833 -30 44.5 -49s17.5 -40.167 17.5 -63.5c0 -25.333 -7 -47.666 -21 -66.999s-30.333 -36.666 -49 -51.999
c10 -6 20.333 -14.167 31 -24.5s20.334 -22 29.001 -35s15.834 -26.5 21.501 -40.5s8.5 -27.333 8.5 -40c0 -32.667 -5.66699 -61.5 -17 -86.5s-26.5 -46 -45.5 -63s-41 -30 -66 -39s-51.167 -13.5 -78.5 -13.5s-53.5 4.5 -78.5 13.5s-47 22 -66 39s-34.167 38 -45.5 63
s-17 53.833 -17 86.5c0 12.667 2.83301 26 8.5 40s12.834 27.5 21.501 40.5s18.334 24.667 29.001 35s21 18.5 31 24.5c-18.667 15.333 -35 32.666 -49 51.999s-21 41.666 -21 66.999zM215.996 432c0 -7.33301 2.66895 -14.333 8.00195 -21s13.666 -11.667 24.999 -15
c11.333 3.33301 19.666 8.33301 24.999 15s8 13.667 8 21c0 8.66699 -3.5 15.5 -10.5 20.5s-14.5 7.5 -22.5 7.5s-15.5 -2.5 -22.5 -7.5s-10.5 -11.833 -10.5 -20.5zM201.998 203c0 -13.333 5.16699 -23.166 15.5 -29.499s20.833 -9.5 31.5 -9.5s21.167 3.16699 31.5 9.5
s15.5 16.166 15.5 29.499c0 8.66699 -4.83301 17.167 -14.5 25.5s-20.5 15.833 -32.5 22.5c-12 -6.66699 -22.833 -14.167 -32.5 -22.5s-14.5 -16.833 -14.5 -25.5z" />
    <glyph glyph-name="nine" unicode="9" horiz-adv-x="512" 
d="M62 382c0 29.333 4.16504 57.335 12.498 84.002s20.5 50 36.5 70s35.667 36 59 48s50.333 18 81 18c40 0 73 -7.83301 99 -23.5s46.667 -36.334 62 -62.001s26 -54.5 32 -86.5s9 -64.333 9 -97c0 -41.333 -3 -82.5 -9 -123.5s-17.333 -77.667 -34 -110
s-39.667 -58.666 -69 -78.999s-67 -30.5 -113 -30.5c-16.667 0 -33.667 1.83301 -51 5.5s-33.166 9.66699 -47.499 18s-26 19 -35 32s-13.5 28.833 -13.5 47.5c0 31.333 9.83301 53.666 29.5 66.999s44.834 20 75.501 20c14.667 0 26.5 -1.16699 35.5 -3.5
s18.167 -3.5 27.5 -3.5c6.66699 0 12.334 2.33301 17.001 7s8.5 10.167 11.5 16.5s5.33301 12.666 7 18.999s2.5 11.5 2.5 15.5c0 8 -2 15.667 -6 23c-12.667 -15.333 -26.334 -26.833 -41.001 -34.5s-32 -11.5 -52 -11.5c-22.667 0 -42 5.66699 -58 17s-29 25.5 -39 42.5
s-17.333 35.667 -22 56s-7 39.833 -7 58.5zM207.998 410.002c0 -8.66699 2.33203 -15.499 6.99902 -20.499s10.667 -9.66699 18 -14l24.5 -14c9 -5 17.833 -12.167 26.5 -21.5c2.66699 5.33301 4.33398 11 5.00098 17s1 12 1 18c0 7.33301 -0.833008 15.166 -2.5 23.499
s-4.16699 16 -7.5 23s-8 12.667 -14 17s-13 6.5 -21 6.5c-10 0 -18.667 -3 -26 -9s-11 -14.667 -11 -26z" />
    <glyph glyph-name="colon" unicode=":" horiz-adv-x="282" 
d="M55 355c0 12 2.33301 23.167 7 33.5s10.834 19.333 18.501 27s16.667 13.834 27 18.501s21.5 7 33.5 7s23.167 -2.33301 33.5 -7s19.333 -10.834 27 -18.501s13.834 -16.667 18.501 -27s7 -21.5 7 -33.5s-2.33301 -23.167 -7 -33.5s-10.834 -19.333 -18.501 -27
s-16.667 -13.834 -27 -18.501s-21.5 -7 -33.5 -7s-23.167 2.33301 -33.5 7s-19.333 10.834 -27 18.501s-13.834 16.667 -18.501 27s-7 21.5 -7 33.5zM55 78c0 12 2.33301 23.167 7 33.5s10.834 19.333 18.501 27s16.667 13.834 27 18.501s21.5 7 33.5 7
s23.167 -2.33301 33.5 -7s19.333 -10.834 27 -18.501s13.834 -16.667 18.501 -27s7 -21.5 7 -33.5s-2.33301 -23.167 -7 -33.5s-10.834 -19.333 -18.501 -27s-16.667 -13.834 -27 -18.501s-21.5 -7 -33.5 -7s-23.167 2.33301 -33.5 7s-19.333 10.834 -27 18.501
s-13.834 16.667 -18.501 27s-7 21.5 -7 33.5z" />
    <glyph glyph-name="semicolon" unicode=";" horiz-adv-x="282" 
d="M54 355c0 12 2.33301 23.167 7 33.5s10.834 19.333 18.501 27s16.667 13.834 27 18.501s21.5 7 33.5 7s23.167 -2.33301 33.5 -7s19.333 -10.834 27 -18.501s13.834 -16.667 18.501 -27s7 -21.5 7 -33.5s-2.33301 -23.167 -7 -33.5s-10.834 -19.333 -18.501 -27
s-16.667 -13.834 -27 -18.501s-21.5 -7 -33.5 -7s-23.167 2.33301 -33.5 7s-19.333 10.834 -27 18.501s-13.834 16.667 -18.501 27s-7 21.5 -7 33.5zM54 77c0 13.333 2.50293 25.333 7.50293 36s11.667 19.667 20 27s17.666 13 27.999 17s20.5 6 30.5 6
c28 0 49.333 -9.66699 64 -29s22 -44.333 22 -75c0 -12 -2.16699 -27.667 -6.5 -47s-10.5 -37.333 -18.5 -54c-6 -12 -13.333 -24.167 -22 -36.5s-17.834 -23.5 -27.501 -33.5s-19 -18.167 -28 -24.5s-16.833 -9.5 -23.5 -9.5c-7.33301 0 -11 4.33301 -11 13
c0 5.33301 1.66699 10.166 5 14.499s6.83301 9.33301 10.5 15s7.16699 12.667 10.5 21s5 19.5 5 33.5c0 12 -1.33301 21.333 -4 28s-6 12 -10 16s-8.33301 7.33301 -13 10s-9.33398 6 -14.001 10c-7.33301 6.66699 -13.333 15.334 -18 26.001s-7 22.667 -7 36z" />
    <glyph glyph-name="equal" unicode="=" horiz-adv-x="609" 
d="M478 442c18.667 0 34.334 -5.66699 47.001 -17s19 -28.333 19 -51s-6.33301 -39.667 -19 -51s-28.334 -17 -47.001 -17h-347c-18.667 0 -34.334 5.66699 -47.001 17s-19 28.333 -19 51s6.33301 39.667 19 51s28.334 17 47.001 17h347zM478 218
c18.667 0 34.334 -5.66699 47.001 -17s19 -28.333 19 -51s-6.33301 -39.667 -19 -51s-28.334 -17 -47.001 -17h-347c-18.667 0 -34.334 5.66699 -47.001 17s-19 28.333 -19 51s6.33301 39.667 19 51s28.334 17 47.001 17h347z" />
    <glyph glyph-name="question" unicode="?" horiz-adv-x="461" 
d="M44 474c0 22 5.33203 40.999 15.999 56.999s24.834 29.167 42.501 39.5s37.5 18 59.5 23s44.333 7.5 67 7.5c28 0 53.5 -4.33301 76.5 -13s42.667 -21.167 59 -37.5s29 -36.166 38 -59.499s13.5 -50 13.5 -80c0 -22 -6.16699 -45.833 -18.5 -71.5
s-27.5 -49.667 -45.5 -72s-37 -40.833 -57 -55.5s-37.667 -22 -53 -22c-16.667 0 -32 5 -46 15s-21 25.333 -21 46c0 12.667 4.16699 27 12.5 43s17.333 31.833 27 47.5l27 42c8.33301 12.333 12.5 21.5 12.5 27.5s-2 11 -6 15s-8.33301 6 -13 6
c-6 0 -12.167 -2.83301 -18.5 -8.5l-21 -19c-7.66699 -7 -16.667 -13.333 -27 -19s-22.5 -8.5 -36.5 -8.5s-26.5 3 -37.5 9s-20.167 13.833 -27.5 23.5s-13 20.167 -17 31.5s-6 22.333 -6 33zM149.999 77.999c0 12 2.33301 23.167 7 33.5s10.834 19.333 18.501 27
s16.667 13.834 27 18.501s21.5 7 33.5 7s23.167 -2.33301 33.5 -7s19.333 -10.834 27 -18.501s13.834 -16.667 18.501 -27s7 -21.5 7 -33.5s-2.33301 -23.167 -7 -33.5s-10.834 -19.333 -18.501 -27s-16.667 -13.834 -27 -18.501s-21.5 -7 -33.5 -7s-23.167 2.33301 -33.5 7
s-19.333 10.834 -27 18.501s-13.834 16.667 -18.501 27s-7 21.5 -7 33.5z" />
    <glyph glyph-name="A" unicode="A" horiz-adv-x="614" 
d="M179 350c8.66699 0 14.999 4.32812 18.999 12.9951s7.83301 19.834 11.5 33.501s8.33398 29 14.001 46s14.5 33.833 26.5 50.5c18 24.667 41.333 45.834 70 63.501s64 26.5 106 26.5c13.333 0 27.666 -2.33301 42.999 -7s29.5 -11.5 42.5 -20.5s23.833 -20 32.5 -33
s13 -27.833 13 -44.5c0 -19.333 -3.16699 -34.5 -9.5 -45.5s-13.5 -19.667 -21.5 -26s-15.167 -11 -21.5 -14s-9.5 -5.83301 -9.5 -8.5s1.66699 -5.16699 5 -7.5s7 -5.16602 11 -8.49902s7.66699 -8 11 -14s5 -14 5 -24v-114c0 -13.333 2.33301 -24.5 7 -33.5s10 -18 16 -27
s11.333 -19 16 -30s7 -24.833 7 -41.5c0 -12.667 -2.66699 -24.667 -8 -36s-12.5 -21.333 -21.5 -30s-19.333 -15.5 -31 -20.5s-23.5 -7.5 -35.5 -7.5c-21.333 0 -38.333 4.33301 -51 13s-22.5 19.5 -29.5 32.5s-12.167 27 -15.5 42l-9 42c-2.66699 13 -6 23.833 -10 32.5
s-10 13 -18 13c-13.333 0 -20 -6.33301 -20 -19v-61c0 -18.667 -2.16699 -42.167 -6.5 -70.5s-12.833 -55.666 -25.5 -81.999s-30.667 -49 -54 -68s-53.666 -28.5 -90.999 -28.5c-13.333 0 -26.333 2.33301 -39 7s-24 11.167 -34 19.5s-18 18.5 -24 30.5s-9 25 -9 39
c0 18 3.66699 32.333 11 43s16.333 20 27 28s22.167 15.5 34.5 22.5s23.5 16.167 33.5 27.5c6 6 11 15 15 27s7.5 24.833 10.5 38.5s5.16699 27.334 6.5 41.001s2 25.834 2 36.501c0 10 -3.66699 15 -11 15c-6.66699 0 -15 -2.83301 -25 -8.5s-20.667 -8.5 -32 -8.5
c-16.667 0 -31.167 6.5 -43.5 19.5s-18.5 29.167 -18.5 48.5c0 15.333 2.83301 28.5 8.5 39.5s13.167 20.167 22.5 27.5s20 12.666 32 15.999s24.333 5 37 5h28zM376.999 305.995c0 18.667 2.66602 31.835 7.99902 39.502s11.333 13.167 18 16.5s12.667 6.16602 18 8.49902
s8 7.5 8 15.5c0 5.33301 -3 9.66602 -9 12.999s-13 5 -21 5c-11.333 0 -21.166 -3.66699 -29.499 -11s-15.166 -16.333 -20.499 -27s-9.33301 -22 -12 -34s-4 -22.667 -4 -32c0 -21.333 8.66699 -32 26 -32c5.33301 0 9.66602 2 12.999 6s5 9 5 15v17z" />
    <glyph glyph-name="B" unicode="B" horiz-adv-x="538" 
d="M241 617c34 0 65.833 -5.66211 95.5 -16.9951s55.667 -27 78 -47s40 -43.5 53 -70.5s19.5 -55.833 19.5 -86.5c0 -11.333 -1.83301 -24.833 -5.5 -40.5s-11.167 -32.834 -22.5 -51.501c-8 -12.667 -15 -22.5 -21 -29.5s-11.167 -12.333 -15.5 -16
s-7.5 -6.16699 -9.5 -7.5s-3 -3 -3 -5c0 -3.33301 4.5 -7.5 13.5 -12.5s19 -13.333 30 -25s21.167 -27.5 30.5 -47.5s14 -46.333 14 -79c0 -38.667 -6.66699 -72.667 -20 -102s-31.666 -54 -54.999 -74s-50.5 -35 -81.5 -45s-63.833 -15 -98.5 -15
c-26.667 0 -52.167 2.83301 -76.5 8.5s-45.833 14.167 -64.5 25.5s-33.5 25.5 -44.5 42.5s-16.5 36.833 -16.5 59.5c0 18.667 4.66699 33 14 43s19.666 17.167 30.999 21.5s21.666 7.33301 30.999 9s14 3.5 14 5.5c0 3.33301 -3 6.66602 -9 9.99902
s-12.833 8.33301 -20.5 15s-14.5 15.167 -20.5 25.5s-9 24.166 -9 41.499c0 13.333 3 24 9 32s12.833 15.5 20.5 22.5s14.5 14.667 20.5 23s9 19.5 9 33.5c0 15.333 -2.33301 29.166 -7 41.499s-7 23.833 -7 34.5c0 11.333 2.5 21 7.5 29s10.333 14.833 16 20.5
s11 10.334 16 14.001s7.5 6.5 7.5 8.5c0 5.33301 -4.66699 8.16602 -14 8.49902s-20.666 3.16602 -33.999 8.49902c-8.66699 3.33301 -17.167 10.166 -25.5 20.499s-12.5 24.166 -12.5 41.499c0 20.667 4.33301 38.834 13 54.501s20.5 28.834 35.5 39.501
s32.333 18.667 52 24s40.5 8 62.5 8zM249 430.005c-8 0 -17.499 -2.16797 -28.499 -6.50098s-16.5 -9.16602 -16.5 -14.499c0 -3.33301 2.16699 -5.83301 6.5 -7.5s9.5 -3.5 15.5 -5.5s12.167 -4.5 18.5 -7.5s11.5 -6.83301 15.5 -11.5
c7.33301 -8.66699 12.166 -18.167 14.499 -28.5s3.5 -20.5 3.5 -30.5c0 -4 0.5 -7.33301 1.5 -10s3.83301 -4 8.5 -4c10 0 19 5.5 27 16.5s12 25.167 12 42.5c0 19.333 -7.5 35.333 -22.5 48s-33.5 19 -55.5 19zM291.001 182.004c-5.33301 0 -9.5 -2.83301 -12.5 -8.5
s-5.83301 -12.834 -8.5 -21.501l-9 -29.5c-3.33301 -11 -8 -21.833 -14 -32.5c-4.66699 -8 -10.334 -13.833 -17.001 -17.5s-13.167 -6.5 -19.5 -8.5s-11.666 -4.16699 -15.999 -6.5s-6.5 -6.16602 -6.5 -11.499c0 -7.33301 6 -12.833 18 -16.5s24.667 -5.5 38 -5.5
c8.66699 0 18 1.83301 28 5.5s19.5 9.16699 28.5 16.5s16.5 16.5 22.5 27.5s9 23.833 9 38.5c0 18 -3.5 34.167 -10.5 48.5s-17.167 21.5 -30.5 21.5z" />
    <glyph glyph-name="C" unicode="C" 
d="M269 602c16 0 33.334 -2.33105 52.001 -6.99805s36 -11.834 52 -21.501s29.167 -22.167 39.5 -37.5s15.5 -34 15.5 -56c0 -24 -6.5 -44.667 -19.5 -62s-32.833 -26 -59.5 -26c-11.333 0 -21 1.66699 -29 5s-15.333 6.83301 -22 10.5l-20 10.5
c-6.66699 3.33301 -14 5 -22 5c-13.333 0 -23.666 -4.33301 -30.999 -13s-13 -19.334 -17 -32.001s-6.5 -26.334 -7.5 -41.001s-1.5 -28.334 -1.5 -41.001c0 -38 3.83301 -68.5 11.5 -91.5s22.834 -34.5 45.501 -34.5c8.66699 0 16.334 1.5 23.001 4.5s13.5 6.5 20.5 10.5
s14.5 7.5 22.5 10.5s17 4.5 27 4.5c25.333 0 44.833 -8.16699 58.5 -24.5s20.5 -37.166 20.5 -62.499c0 -21.333 -5 -39.666 -15 -54.999s-22.667 -28 -38 -38s-32.333 -17.5 -51 -22.5s-36.334 -7.5 -53.001 -7.5c-42.667 0 -78.334 8.5 -107.001 25.5
s-51.834 39.5 -69.501 67.5s-30.167 60.333 -37.5 97s-11 74.667 -11 114c0 44.667 4.16699 85.834 12.5 123.501s21.5 70.167 39.5 97.5s41.167 48.666 69.5 63.999s62.166 23 101.499 23z" />
    <glyph glyph-name="D" unicode="D" horiz-adv-x="589" 
d="M224 660c47.333 0 90.3359 -10.0029 129.003 -30.0029s71.834 -47 99.501 -81s49 -73.833 64 -119.5s22.5 -94.167 22.5 -145.5c0 -43.333 -5.33301 -88 -16 -134s-28 -87.833 -52 -125.5s-55.5 -68.667 -94.5 -93s-86.5 -36.5 -142.5 -36.5
c-32 0 -59.5 3.66699 -82.5 11s-42 16.833 -57 28.5s-26.167 24.834 -33.5 39.501s-11 29.334 -11 44.001c0 24 7.5 44.167 22.5 60.5s32.5 24.5 52.5 24.5c6.66699 0 14 -0.666992 22 -2s13.333 -2 16 -2s4 0.666992 4 2c0 2 -3.16699 4.83301 -9.5 8.5
s-13.333 8.83398 -21 15.501s-14.667 15.167 -21 25.5s-9.5 22.833 -9.5 37.5c0 16 1.83301 28.333 5.5 37s7.66699 16.334 12 23.001l12 18.5c3.66699 5.66699 5.5 13.5 5.5 23.5c0 6.66699 -1.16699 16.834 -3.5 30.501s-3.5 24.5 -3.5 32.5
c0 15.333 2.16699 28.666 6.5 39.999s10.166 21.166 17.499 29.499s16.166 16 26.499 23s21.166 13.5 32.499 19.5c-12.667 0 -23.334 -1 -32.001 -3s-18.667 -3 -30 -3c-30 0 -52.333 9.16699 -67 27.5s-22 39.5 -22 63.5c0 30.667 13.833 56.667 41.5 78s66.5 32 116.5 32
zM271.003 464.997c-1.33301 0 -3.00098 -0.166992 -5.00098 -0.5s-3 -0.833008 -3 -1.5c0 -2 2.33301 -4.33301 7 -7s9.83398 -6.5 15.501 -11.5s10.834 -10.833 15.501 -17.5s7 -15 7 -25c0 -13.333 -3.5 -27.333 -10.5 -42s-10.5 -28.334 -10.5 -41.001
c0 -9.33301 1.16699 -17.666 3.5 -24.999l7 -22.5c2.33301 -7.66699 4.66602 -16.5 6.99902 -26.5s3.5 -22.667 3.5 -38c0 -18 -4 -34.167 -12 -48.5s-17 -26.166 -27 -35.499c-6.66699 -6 -14 -10.5 -22 -13.5s-15.333 -5.16699 -22 -6.5s-12.334 -2.33301 -17.001 -3
s-7 -2.33398 -7 -5.00098c0 -2 4.5 -5 13.5 -9s22.167 -6 39.5 -6c20 0 37.5 5.83301 52.5 17.5s27.667 26.667 38 45s18 39.166 23 62.499s7.5 47 7.5 71c0 26.667 -2 51.667 -6 75s-10.167 43.333 -18.5 60s-19.166 29.834 -32.499 39.501s-29 14.5 -47 14.5z" />
    <glyph glyph-name="E" unicode="E" horiz-adv-x="499" 
d="M268 608c16.667 0 35.499 -2.00195 56.499 -6.00195s40.5 -11 58.5 -21s33.167 -23.333 45.5 -40s18.5 -37.334 18.5 -62.001c0 -12 -2.16699 -22.667 -6.5 -32s-9.83301 -17 -16.5 -23s-14 -10.5 -22 -13.5s-15.333 -4.5 -22 -4.5c-16 0 -28.667 1.33301 -38 4
s-17.5 5.66699 -24.5 9l-19.5 9c-6 2.66699 -13 4 -21 4c-13.333 0 -22.833 -3.16699 -28.5 -9.5s-8.5 -14.166 -8.5 -23.499c0 -10 3.33301 -17.333 10 -22s15 -8.33398 25 -11.001s20.667 -4.83398 32 -6.50098s22 -4.16699 32 -7.5s18 -8.16602 24 -14.499
s9 -17.5 9 -33.5c0 -12 -1.83301 -21.667 -5.5 -29s-8.5 -13 -14.5 -17s-13.333 -6.5 -22 -7.5s-18 -1.5 -28 -1.5c-25.333 0 -44.666 -3.16699 -57.999 -9.5s-20 -15.166 -20 -26.499c0 -15.333 5.33301 -27 16 -35s22.334 -12 35.001 -12c5.33301 0 10.666 1.5 15.999 4.5
s11.333 6.16699 18 9.5s14.334 6.5 23.001 9.5s19 4.5 31 4.5c24 0 44.667 -7.16699 62 -21.5s26 -34.166 26 -59.499c0 -22 -6.33301 -40.667 -19 -56s-28.334 -28 -47.001 -38s-38.834 -17.333 -60.501 -22s-41.167 -7 -58.5 -7c-27.333 0 -54 3.66699 -80 11
s-49.167 18.666 -69.5 33.999s-36.833 34.333 -49.5 57s-19 49.667 -19 81c0 30.667 5.5 55.834 16.5 75.501s22.167 34.5 33.5 44.5c7.33301 6.66699 15.333 11.167 24 13.5s13 5.83301 13 10.5s-3.16699 9.83398 -9.5 15.501s-13.333 13 -21 22s-14.667 20.333 -21 34
s-9.5 31.167 -9.5 52.5c0 27.333 5.16699 51.333 15.5 72s24.333 38 42 52s38.334 24.667 62.001 32s48.5 11 74.5 11z" />
    <glyph glyph-name="F" unicode="F" horiz-adv-x="499" 
d="M129 91c9.33301 3.33301 18.4971 5.49609 27.4971 6.49609s17 3.33301 24 7s12.5 9.83398 16.5 18.501s6 22.667 6 42v65c-6.66699 0 -14.167 -1.66699 -22.5 -5s-18.166 -5 -29.499 -5c-9.33301 0 -16.833 1.5 -22.5 4.5s-10 6.83301 -13 11.5s-4.83301 9.66699 -5.5 15
s-1 10.666 -1 15.999c0 10.667 2.66699 19.834 8 27.501s12.5 14.334 21.5 20.001s19 10.667 30 15s22.5 8.16602 34.5 11.499v29c0 16 4.33301 30.333 13 43s18.167 23.834 28.5 33.501s19.833 17.667 28.5 24s13 11.166 13 14.499c0 2 -2.66699 3 -8 3
s-12.333 -1.33301 -21 -4s-17.834 -5.83398 -27.501 -9.50098s-18.834 -7.66699 -27.501 -12s-16 -7.83301 -22 -10.5c-6 -3.33301 -14.333 -6.66602 -25 -9.99902s-21.667 -5 -33 -5c-16 0 -30.5 3.66699 -43.5 11s-23.167 16.333 -30.5 27
c-6 8.66699 -9.83301 18 -11.5 28s-2.5 21 -2.5 33c0 20 3.83301 37.667 11.5 53s18 28 31 38s27.833 17.667 44.5 23s34 8 52 8c10.667 0 23.667 -1.66699 39 -5s31 -7.16602 47 -11.499s31.667 -8.16602 47 -11.499s28 -5 38 -5c8 0 15 1 21 3s11.667 4 17 6l16.5 6
c5.66699 2 12.167 3 19.5 3c22 0 38.167 -7 48.5 -21s15.5 -29.667 15.5 -47c0 -8.66699 -2.16699 -18 -6.5 -28s-10.166 -19.333 -17.499 -28s-16.166 -16 -26.499 -22s-21.5 -9 -33.5 -9c-10.667 0 -19.667 0.5 -27 1.5s-14.666 1.5 -21.999 1.5
c-10.667 0 -16 -2.33301 -16 -7c0 -4 1.83301 -7 5.5 -9s7.66699 -4.5 12 -7.5s8.33301 -7.66699 12 -14s5.5 -15.833 5.5 -28.5c0 -14 -2.16699 -24.333 -6.5 -31s-6.5 -14 -6.5 -22v-20c7.33301 0.666992 15 2 23 4s14.667 3 20 3c23.333 0 40 -4.83301 50 -14.5
s15 -24.834 15 -45.501c0 -10.667 -2.33301 -20 -7 -28s-10.167 -14.667 -16.5 -20s-12.833 -9.33301 -19.5 -12s-11.667 -4 -15 -4c-8.66699 0 -16.167 0.5 -22.5 1.5s-12.166 1.5 -17.499 1.5c-2 0 -4.5 -0.166992 -7.5 -0.5s-5.16699 -0.833008 -6.5 -1.5v-49
c0 -10.667 0.666992 -24 2 -40s2 -31.333 2 -46c0 -27.333 -3.66699 -52.666 -11 -75.999s-18.333 -43.833 -33 -61.5s-33.167 -31.5 -55.5 -41.5s-48.5 -15 -78.5 -15c-15.333 0 -29.5 2.5 -42.5 7.5s-24.5 11.833 -34.5 20.5s-17.833 18.834 -23.5 30.501
s-8.5 24.167 -8.5 37.5c0 14.667 1.83301 27.167 5.5 37.5s8.5 18.833 14.5 25.5s12.667 12 20 16s14.333 7 21 9z" />
    <glyph glyph-name="G" unicode="G" 
d="M193 255c0 -24 0.665039 -43.3271 1.99805 -57.9941s3.5 -26.167 6.5 -34.5s6.83301 -13.833 11.5 -16.5s10.334 -4 17.001 -4c6 0 13.5 3.83301 22.5 11.5s13.5 21.167 13.5 40.5c0 12.667 -1.83301 22.834 -5.5 30.501s-5.5 17.167 -5.5 28.5
c0 23.333 8.83301 42.333 26.5 57s38.834 22 63.501 22s45.834 -7.33301 63.501 -22s26.5 -33.667 26.5 -57c0 -10 -1.66699 -18.833 -5 -26.5s-6.83301 -15.167 -10.5 -22.5s-7.16699 -14.833 -10.5 -22.5s-5 -16.167 -5 -25.5c0 -11.333 1.16699 -20.833 3.5 -28.5
l7.5 -23.5c2.66699 -8 5.16699 -16.833 7.5 -26.5s3.5 -21.834 3.5 -36.501c0 -12.667 -5.33301 -24.334 -16 -35.001s-23.334 -16 -38.001 -16c-10 0 -20.333 2 -31 6s-22.667 11 -36 21c-12 -8 -25.667 -13.5 -41 -16.5s-31.333 -4.5 -48 -4.5c-36 0 -65.333 8 -88 24
s-40.5 37.5 -53.5 64.5s-22 58.167 -27 93.5s-7.5 72.666 -7.5 111.999c0 44.667 4.16699 86 12.5 124s21.5 71 39.5 99s41.167 49.833 69.5 65.5s62.166 23.5 101.499 23.5c16 0 33.333 -2.33301 52 -7s36 -11.834 52 -21.501s29.167 -22.167 39.5 -37.5s15.5 -34 15.5 -56
c0 -24 -6.5 -44.667 -19.5 -62s-32.833 -26 -59.5 -26c-11.333 0 -21 1.66699 -29 5s-15.333 6.83301 -22 10.5l-20 10.5c-6.66699 3.33301 -14 5 -22 5c-13.333 0 -23.666 -4.33301 -30.999 -13s-13 -19.334 -17 -32.001s-6.5 -26.334 -7.5 -41.001
s-1.5 -28.334 -1.5 -41.001v-41z" />
    <glyph glyph-name="H" unicode="H" horiz-adv-x="678" 
d="M205 220c0 5.33301 -1.32715 12 -3.99414 20s-7 12 -13 12c-4 0 -7.5 -2.5 -10.5 -7.5s-7 -10.333 -12 -16s-11.833 -11 -20.5 -16s-21 -7.5 -37 -7.5c-23.333 0 -42.333 8.16699 -57 24.5s-22 34.5 -22 54.5c0 16 3 29.667 9 41s13.833 20.666 23.5 27.999
s20.667 12.666 33 15.999s25.166 5 38.499 5s23.5 -1 30.5 -3s13.5 -3 19.5 -3c6.66699 0 10 2.66699 10 8c0 11.333 -3.83301 21.833 -11.5 31.5s-16.334 19.667 -26.001 30s-18.334 21.5 -26.001 33.5s-11.5 26.333 -11.5 43c0 10.667 2 21.167 6 31.5
s9.66699 19.5 17 27.5s16.166 14.333 26.499 19s21.5 7 33.5 7c37.333 0 67.333 -16.5 90 -49.5s40.667 -77.5 54 -133.5c3.33301 -14.667 5.33301 -28.667 6 -42s1.66699 -25.166 3 -35.499s3.83301 -18.5 7.5 -24.5s10.5 -9 20.5 -9s16.667 4.33301 20 13
s5.83301 20.834 7.5 36.501s4.16699 34.5 7.5 56.5s10.333 46.333 21 73c16 39.333 34.667 66.166 56 80.499s43.333 21.5 66 21.5c23.333 0 44 -7.33301 62 -22s27 -36 27 -64c0 -22 -4.5 -40.167 -13.5 -54.5s-19 -29.5 -30 -45.5s-21 -35 -30 -57
s-13.5 -51.667 -13.5 -89c0 -18.667 3.16699 -35.167 9.5 -49.5s13.5 -28.166 21.5 -41.499s15.167 -26.5 21.5 -39.5s9.5 -27.5 9.5 -43.5c0 -13.333 -2.66699 -25.5 -8 -36.5s-12.166 -20.5 -20.499 -28.5s-18 -14.167 -29 -18.5s-22.167 -6.5 -33.5 -6.5
c-16 0 -31 3.66699 -45 11s-26.667 16.666 -38 27.999c-17.333 18 -28.833 37.167 -34.5 57.5s-9.5 39.333 -11.5 57s-4.5 32.334 -7.5 44.001s-10.167 17.5 -21.5 17.5c-6.66699 0 -12.334 -2.83301 -17.001 -8.5s-7 -18.834 -7 -39.501v-8c0 -31.333 -5 -65 -15 -101
s-24 -69.167 -42 -99.5s-39.333 -55.666 -64 -75.999s-51.667 -30.5 -81 -30.5c-13.333 0 -26 2.16699 -38 6.5s-22.667 10.5 -32 18.5s-16.833 17.833 -22.5 29.5s-8.5 24.834 -8.5 39.501c0 16 3.5 30 10.5 42s15.5 22.5 25.5 31.5s20.167 17.167 30.5 24.5
s19.166 14.666 26.499 21.999c11.333 11.333 21 24 29 38s14.667 27.667 20 41s9.16602 25.833 11.499 37.5s3.5 21.167 3.5 28.5v19z" />
    <glyph glyph-name="I" unicode="I" horiz-adv-x="410" 
d="M324 357c0 -44.667 2.00293 -84 6.00293 -118s6 -59.333 6 -76c0 -26 -4.66699 -49.667 -14 -71s-22 -39.5 -38 -54.5s-34.833 -26.667 -56.5 -35s-44.834 -12.5 -69.501 -12.5c-14.667 0 -29.667 2.66699 -45 8s-29.333 12.833 -42 22.5s-23 21.167 -31 34.5
s-12 28 -12 44c0 10.667 2.16699 21.167 6.5 31.5s10 19.5 17 27.5s15 14.5 24 19.5s18.167 7.5 27.5 7.5c6.66699 0 12.167 -0.666992 16.5 -2s8.16602 -2.66602 11.499 -3.99902l10 -4c3.33301 -1.33301 7.33301 -2 12 -2c10 0 18.167 3.5 24.5 10.5s9.5 15.5 9.5 25.5
c0 8 -1.33301 18.167 -4 30.5s-4 28.166 -4 47.499c0 28 1.83301 50.667 5.5 68s7.83398 31.166 12.501 41.499s8.83398 17.833 12.501 22.5s5.5 8.66699 5.5 12c0 6 -3 9 -9 9c-9.33301 0 -17.333 -2.16699 -24 -6.5s-13.667 -9.33301 -21 -15s-15.333 -10.667 -24 -15
s-19.334 -6.5 -32.001 -6.5c-11.333 0 -21.833 2.83301 -31.5 8.5s-17.834 12.834 -24.501 21.501s-11.834 18.167 -15.501 28.5s-5.5 20.166 -5.5 29.499c0 30.667 11.167 55.334 33.5 74.001s49.5 28 81.5 28c16.667 0 32.5 -3 47.5 -9s30.5 -9 46.5 -9s28.5 1 37.5 3
s16.5 4 22.5 6s11.5 4 16.5 6s11.5 3 19.5 3c13.333 0 24.833 -3.83301 34.5 -11.5s14.5 -19.167 14.5 -34.5c0 -9.33301 -3 -18.833 -9 -28.5l-20 -31.5c-7.33301 -11.333 -14 -23.833 -20 -37.5s-9 -29.167 -9 -46.5v-40z" />
    <glyph glyph-name="J" unicode="J" horiz-adv-x="435" 
d="M27 502c0 15.333 3.32715 29.665 9.99414 42.998s15.834 25 27.501 35s24.834 17.833 39.501 23.5s30 8.5 46 8.5c11.333 0 22.333 -1.33301 33 -4s20.834 -5.66699 30.501 -9s19 -6.33301 28 -9s17.5 -4 25.5 -4c12 0 21.333 1.33301 28 4s12.667 5.66699 18 9l15 9
c4.66699 2.66699 11 4 19 4c13.333 0 24.833 -3.83301 34.5 -11.5s14.5 -19.167 14.5 -34.5c0 -14 -2.83301 -28 -8.5 -42s-11.667 -28 -18 -42s-12.333 -28.167 -18 -42.5s-8.5 -29.5 -8.5 -45.5c0 -29.333 2 -57.666 6 -84.999s8.5 -54.666 13.5 -81.999
s9.66699 -54.666 14 -81.999s6.5 -55 6.5 -83c0 -33.333 -5.5 -62.666 -16.5 -87.999s-26.167 -46.666 -45.5 -63.999s-42.166 -30.5 -68.499 -39.5s-54.833 -13.5 -85.5 -13.5c-14.667 0 -29.667 2.16699 -45 6.5s-29.333 11 -42 20s-23 20.333 -31 34
s-12 29.834 -12 48.501c0 10.667 1.83301 21 5.5 31s8.83398 19 15.501 27s14.167 14.333 22.5 19s17.166 7 26.499 7c13.333 0 24 -1.5 32 -4.5s16.667 -4.5 26 -4.5c4.66699 0 10.167 1.33301 16.5 4s12 7.33398 17 14.001s9.33301 15.667 13 27s5.5 25.666 5.5 42.999
c0 16.667 -1.5 34 -4.5 52s-6.33301 35.333 -10 52l-10 46.5c-3 14.333 -4.5 26.166 -4.5 35.499c0 23.333 2.16699 42.666 6.5 57.999s9 27.833 14 37.5s9.5 17.167 13.5 22.5s6 9.66602 6 12.999c0 5.33301 -1.5 9.16602 -4.5 11.499s-6.16699 3.5 -9.5 3.5
c-5.33301 0 -10.833 -2.16699 -16.5 -6.5s-12.167 -9 -19.5 -14s-16.166 -9.66699 -26.499 -14s-22.833 -6.5 -37.5 -6.5c-15.333 0 -28.333 2.5 -39 7.5s-19.667 11.5 -27 19.5s-12.666 16.833 -15.999 26.5s-5 19.167 -5 28.5z" />
    <glyph glyph-name="K" unicode="K" horiz-adv-x="627" 
d="M167 368c0 7.33301 1.99902 14.332 5.99902 20.999s8.33301 12.834 13 18.501l13 15.5c4 4.66699 6 9 6 13c0 1.33301 -0.5 3.33301 -1.5 6s-2.83301 4 -5.5 4c-4.66699 0 -9 -2.66699 -13 -8s-9.33301 -10 -16 -14c-5.33301 -3.33301 -13 -6.5 -23 -9.5
s-20.333 -4.5 -31 -4.5c-24.667 0 -44.167 7.83301 -58.5 23.5s-21.5 34.5 -21.5 56.5c0 30 11.167 55 33.5 75s50.833 30 85.5 30c14.667 0 26.167 -1.33301 34.5 -4s15.333 -5.5 21 -8.5s10.5 -5.66699 14.5 -8s9.66699 -3.5 17 -3.5c4.66699 0 9.5 1.16699 14.5 3.5
s10 5 15 8s10.167 5.83301 15.5 8.5s11 4 17 4c14 0 25.5 -4.5 34.5 -13.5s13.5 -21.5 13.5 -37.5c0 -11.333 -2.16699 -23 -6.5 -35s-9.33301 -25 -15 -39s-10.667 -29 -15 -45s-6.5 -34 -6.5 -54v-47c13.333 2.66699 22.333 9.16699 27 19.5s8.16699 23.666 10.5 39.999
s4.83301 35.333 7.5 57s9 45.167 19 70.5c9.33301 23.333 25.333 43.166 48 59.499s48.334 24.5 77.001 24.5c14.667 0 28.334 -2.66699 41.001 -8s23.5 -12.333 32.5 -21s16 -18.834 21 -30.501s7.5 -23.834 7.5 -36.501c0 -24 -4.33301 -42 -13 -54
s-18.667 -21.167 -30 -27.5s-22.666 -11 -33.999 -14s-19.666 -7.16699 -24.999 -12.5c-6 -6 -10.5 -13.833 -13.5 -23.5l-9.5 -30.5c-3.33301 -10.667 -7.33301 -21 -12 -31s-11.334 -18 -20.001 -24c16 -16.667 27.333 -33.167 34 -49.5s11.667 -32.833 15 -49.5
s6.16602 -33.667 8.49902 -51s6.5 -35.333 12.5 -54c4 -12 10.333 -21.667 19 -29l25.5 -22c8.33301 -7.33301 15.833 -15.666 22.5 -24.999s10 -22.333 10 -39c0 -17.333 -3.33301 -32.5 -10 -45.5s-15.167 -24 -25.5 -33s-21.833 -15.667 -34.5 -20
s-25.334 -6.5 -38.001 -6.5c-23.333 0 -43.5 5 -60.5 15s-31.167 23 -42.5 39s-19.833 33.5 -25.5 52.5s-8.5 37.5 -8.5 55.5c0 16.667 1.33301 34.167 4 52.5s4 33.833 4 46.5c0 23.333 -3.83301 43 -11.5 59s-16.167 28.667 -25.5 38
c-2 -3.33301 -3.66699 -7.66602 -5 -12.999s-2 -9.66602 -2 -12.999v-47c0 -22 -3.83301 -42.5 -11.5 -61.5s-18.167 -35.167 -31.5 -48.5s-29 -23.833 -47 -31.5s-37.667 -11.5 -59 -11.5c-35.333 0 -63.833 9.33301 -85.5 28s-32.5 43.334 -32.5 74.001
c0 28.667 8 50 24 64s35.667 21 59 21c13.333 0 23.833 3.33301 31.5 10s11.5 15 11.5 25v156z" />
    <glyph glyph-name="L" unicode="L" horiz-adv-x="512" 
d="M71 435c0 24.667 5.66406 47.3301 16.9971 67.9971s26 38.334 44 53.001s38.333 26 61 34s45.667 12 69 12c28 0 54.833 -3.33301 80.5 -10s48.167 -16.167 67.5 -28.5s34.666 -27.166 45.999 -44.499s17 -36.666 17 -57.999c0 -12.667 -2.66699 -24.667 -8 -36
s-12.333 -21.333 -21 -30s-18.834 -15.5 -30.501 -20.5s-23.5 -7.5 -35.5 -7.5s-23.167 2.66699 -33.5 8s-20 11.333 -29 18s-17.5 12.667 -25.5 18s-15.667 8 -23 8s-13.333 -2.66699 -18 -8s-7 -11 -7 -17c0 -8 2.5 -17.333 7.5 -28l17 -35
c6.33301 -12.667 12 -26.334 17 -41.001s7.5 -29.334 7.5 -44.001c0 -12 -1.83301 -22.833 -5.5 -32.5s-7.83398 -18.167 -12.501 -25.5l-12.5 -19.5c-3.66699 -5.66699 -5.5 -10.167 -5.5 -13.5s2.33301 -6.16602 7 -8.49902s12.667 -3.5 24 -3.5c10.667 0 19 1.33301 25 4
s11.833 5.66699 17.5 9s12.5 6.33301 20.5 9s19.333 4 34 4c12.667 0 24 -2.83301 34 -8.5s18.333 -13.167 25 -22.5s11.834 -19.666 15.501 -30.999s5.5 -22.666 5.5 -33.999c0 -14 -2.66699 -27.167 -8 -39.5s-12.666 -23 -21.999 -32s-20 -16.167 -32 -21.5
s-25 -8 -39 -8c-13.333 0 -26.166 2.33301 -38.499 7s-24.666 9.83398 -36.999 15.501s-24.833 10.834 -37.5 15.501s-26 7 -40 7c-4.66699 0 -9.66699 -1.33301 -15 -4s-11.333 -5.83398 -18 -9.50098s-14.5 -6.83398 -23.5 -9.50098s-19.5 -4 -31.5 -4
c-23.333 0 -42.833 8.16699 -58.5 24.5s-23.5 35.5 -23.5 57.5c0 16 4.83301 31 14.5 45s20.334 27.333 32.001 40s22.334 25 32.001 37s14.5 24.333 14.5 37c0 9.33301 -3.16699 20.333 -9.5 33l-21 43.5c-7.66699 16.333 -14.667 35.166 -21 56.499s-9.5 45 -9.5 71z" />
    <glyph glyph-name="M" unicode="M" horiz-adv-x="794" 
d="M286 112c0 -31.333 -2.83496 -63.998 -8.50195 -97.998s-14.667 -65.333 -27 -94s-27.833 -52.334 -46.5 -71.001s-41 -28 -67 -28c-15.333 0 -29 3 -41 9s-22 13.833 -30 23.5s-14.167 20.334 -18.5 32.001s-6.5 23.167 -6.5 34.5c0 15.333 2.5 28.666 7.5 39.999
s11 21.833 18 31.5s14.833 19.5 23.5 29.5s16.5 20.833 23.5 32.5s13 25.167 18 40.5s7.5 33.666 7.5 54.999c0 8 -0.5 18.167 -1.5 30.5s-2 25.333 -3 39l-3 39.5c-1 12.667 -1.5 23.334 -1.5 32.001c0 18 1.5 32.167 4.5 42.5s6.33301 18.833 10 25.5s7 12 10 16
s4.5 8.66699 4.5 14c0 7.33301 -3.83301 11.333 -11.5 12s-16.834 3.33398 -27.501 8.00098c-10 4.66699 -19.667 12.167 -29 22.5s-14 26.166 -14 47.499c0 20 3.83301 37.333 11.5 52s17.834 27 30.501 37s26.5 17.5 41.5 22.5s30.167 7.5 45.5 7.5
c20 0 40.333 -3.66699 61 -11s40.167 -18.833 58.5 -34.5s34.833 -36.167 49.5 -61.5s26 -56 34 -92c8.66699 36 21.334 66.667 38.001 92s35.667 46 57 62s44 27.5 68 34.5s48 10.5 72 10.5c12 0 24.333 -2 37 -6s24.334 -10 35.001 -18s19.5 -18 26.5 -30
s10.5 -26 10.5 -42c0 -10 -2.16699 -20.833 -6.5 -32.5s-10.166 -22.5 -17.499 -32.5s-15.666 -18.333 -24.999 -25s-19 -10 -29 -10c-3.33301 0 -5.83301 -1.16699 -7.5 -3.5s-2.5 -5.16602 -2.5 -8.49902s0.833008 -6.33301 2.5 -9l5.5 -8.5
c2 -3 3.83301 -6.83301 5.5 -11.5s2.5 -10.334 2.5 -17.001v-113c0 -14 3.16699 -26.5 9.5 -37.5s13.5 -21.5 21.5 -31.5s15.167 -20.333 21.5 -31s9.5 -23 9.5 -37c0 -16 -3.16699 -30.333 -9.5 -43s-14.5 -23.5 -24.5 -32.5s-21.5 -15.833 -34.5 -20.5
s-26.167 -7 -39.5 -7c-17.333 0 -32.5 3.5 -45.5 10.5s-23.833 16.833 -32.5 29.5s-15.334 27.334 -20.001 44.001s-7 34.667 -7 54v41c0 43.333 2.66699 78.5 8 105.5s11.166 48.5 17.499 64.5s12.166 27.5 17.499 34.5s8 12.5 8 16.5c0 2.66699 -0.666992 4 -2 4
c-4 0 -9.66699 -3.5 -17 -10.5s-14.833 -15.833 -22.5 -26.5s-14.834 -22.667 -21.501 -36s-12 -26 -16 -38c-6 -18.667 -10.5 -38.667 -13.5 -60s-5.83301 -42.833 -8.5 -64.5s-5.66699 -42.5 -9 -62.5s-8.16602 -37.833 -14.499 -53.5s-14.666 -28.167 -24.999 -37.5
s-23.833 -14 -40.5 -14c-22 0 -37.5 10.333 -46.5 31s-15.667 47.167 -20 79.5s-8.16602 68 -11.499 107s-10 76.833 -20 113.5c-2.66699 10 -6.33398 19.167 -11.001 27.5s-9.66699 15.5 -15 21.5s-10.5 10.833 -15.5 14.5s-9.16699 5.5 -12.5 5.5
c-5.33301 0 -8 -3.33301 -8 -10c0 -4.66699 2.83301 -9.66699 8.5 -15s12 -13.833 19 -25.5s13.333 -27.834 19 -48.501s8.5 -48.334 8.5 -83.001v-97z" />
    <glyph glyph-name="N" unicode="N" horiz-adv-x="640" 
d="M126 292c0 10.667 0.166992 19.1748 0.5 25.5078s0.833008 11.666 1.5 15.999s1.66699 8.16602 3 11.499s3 7 5 11c2.66699 5.33301 6 9.5 10 12.5s6 7.16699 6 12.5c0 2.66699 -1.16699 5 -3.5 7s-7.83301 3 -16.5 3c-16 0 -29.333 3.16699 -40 9.5
s-19.5 14.5 -26.5 24.5s-12 21 -15 33s-4.5 23.333 -4.5 34c0 16 3.66699 30.667 11 44s17.333 24.833 30 34.5s26.834 17.167 42.501 22.5s32.167 8 49.5 8c24.667 0 48.334 -4.83301 71.001 -14.5s43.334 -24.5 62.001 -44.5s34.667 -45.167 48 -75.5
s22.666 -65.833 27.999 -106.5c0 86 9.66699 147.667 29 185s50.666 56 93.999 56c14 0 26.667 -2.83301 38 -8.5s20.833 -13 28.5 -22s13.667 -19 18 -30s6.5 -21.833 6.5 -32.5c0 -21.333 -5.33301 -42.666 -16 -63.999s-22.334 -43 -35.001 -65
s-24.334 -44.833 -35.001 -68.5s-16 -48.834 -16 -75.501c0 -22.667 2.66699 -39.834 8 -51.501s11.333 -21.834 18 -30.501s12.667 -17.667 18 -27s8 -22.666 8 -39.999c0 -16 -3.33301 -30 -10 -42s-15.167 -22 -25.5 -30s-21.833 -14 -34.5 -18s-25 -6 -37 -6
c-22 0 -40.167 5 -54.5 15s-26.333 23.5 -36 40.5s-17.167 36.333 -22.5 58s-10 44.167 -14 67.5l-12 70c-4 23.333 -8.66699 44.666 -14 63.999c-3.33301 12 -8 23.167 -14 33.5s-12 19 -18 26s-11.667 12.5 -17 16.5s-9.33301 6 -12 6c-1.33301 0 -2 -1.33301 -2 -4
c0 -4 2.83301 -10.333 8.5 -19s11.667 -21.834 18 -39.501s12.333 -41.167 18 -70.5s8.5 -66.333 8.5 -111v-77c0 -23.333 -2.5 -49 -7.5 -77s-13.333 -54.167 -25 -78.5s-27 -44.666 -46 -60.999s-42.167 -24.5 -69.5 -24.5c-13.333 0 -26 2.66699 -38 8
s-22.333 12.666 -31 21.999s-15.5 20.166 -20.5 32.499s-7.5 25.166 -7.5 38.499c0 14 2.16699 26.333 6.5 37s9.83301 20.667 16.5 30l21.5 29c7.66699 10 14.834 21.333 21.501 34s12.167 27.167 16.5 43.5s6.5 36.166 6.5 59.499v133z" />
    <glyph glyph-name="O" unicode="O" horiz-adv-x="486" 
d="M54 470c0 24 5.33105 44.834 15.998 62.501s24.334 32.167 41.001 43.5s35.167 19.833 55.5 25.5s39.833 8.5 58.5 8.5c36 0 67.667 -8 95 -24s50.166 -37.833 68.499 -65.5s32 -60.167 41 -97.5s13.5 -77.333 13.5 -120c0 -37.333 -2.83301 -74.666 -8.5 -111.999
s-16 -70.833 -31 -100.5s-35.833 -53.834 -62.5 -72.501s-61 -28 -103 -28c-32.667 0 -61.167 6.66699 -85.5 20s-44.666 30.666 -60.999 51.999s-28.5 45.833 -36.5 73.5s-12 56.167 -12 85.5c0 16.667 1.16699 33.334 3.5 50.001s6.5 32.5 12.5 47.5
s14.333 28.167 25 39.5s24.334 19.666 41.001 24.999c-12 2 -22.333 5.83301 -31 11.5s-16 12.5 -22 20.5s-10.5 16.833 -13.5 26.5s-4.5 19.167 -4.5 28.5zM288.998 298.001c0 16.667 -0.834961 33.002 -2.50195 49.002s-4.66699 30.167 -9 42.5
s-10.166 22.166 -17.499 29.499s-16.666 11 -27.999 11s-22 -5.66699 -32 -17s-17.667 -23.333 -23 -36c15.333 -10 23 -22.667 23 -38c0 -12.667 -2.16699 -25 -6.5 -37s-6.5 -25.667 -6.5 -41v-26c0 -22.667 4 -40.834 12 -54.501s19.667 -20.5 35 -20.5
c12 0 21.667 3.33301 29 10s13 15 17 25s6.5 21 7.5 33s1.5 23.333 1.5 34v36z" />
    <glyph glyph-name="P" unicode="P" horiz-adv-x="538" 
d="M140 206c0 17.333 -0.5 32.1729 -1.5 44.5059s-2 23.166 -3 32.499s-1.83301 18 -2.5 26s-1 16 -1 24c0 15.333 1.33301 29.666 4 42.999s10.334 25.666 23.001 36.999c-1.33301 -0.666992 -3.83301 -1.16699 -7.5 -1.5s-7.16699 -0.5 -10.5 -0.5
c-31.333 0 -56 9.16699 -74 27.5s-27 40.166 -27 65.499c0 22 5.66699 40.833 17 56.5s26 28.5 44 38.5s38 17.333 60 22s44 7 66 7c36 0 70.333 -5.16699 103 -15.5s61.5 -25.5 86.5 -45.5s44.833 -44.833 59.5 -74.5s22 -63.834 22 -102.501
c0 -39.333 -6.66699 -71.5 -20 -96.5s-27 -44.5 -41 -58.5c-21.333 -21.333 -40.833 -36.166 -58.5 -44.499s-32.834 -14.5 -45.501 -18.5s-22.667 -7.66699 -30 -11s-11 -10.333 -11 -21v-114c0 -20 -2 -39.667 -6 -59s-10.5 -36.833 -19.5 -52.5
s-21.167 -28.334 -36.5 -38.001s-34.333 -14.5 -57 -14.5c-30 0 -55.167 8.16699 -75.5 24.5s-30.5 40.833 -30.5 73.5c0 22 3.83301 40.167 11.5 54.5s16 28.166 25 41.499s17.333 27.833 25 43.5s11.5 35.5 11.5 59.5v47zM292 318.007
c0 -3.33301 -0.329102 -7.00195 -0.996094 -11.002s-1 -8.66699 -1 -14c0 -6.66699 2 -10 6 -10c3.33301 0 7.5 1.83301 12.5 5.5s10 8.83398 15 15.501s9.16699 14.5 12.5 23.5s5 18.5 5 28.5c0 15.333 -4.33301 29.333 -13 42s-17.667 22.334 -27 29.001
c-4.66699 3.33301 -12.334 5.66602 -23.001 6.99902s-22.334 2 -35.001 2c-7.33301 0 -11 -1 -11 -3c0 -3.33301 3.16699 -6.66602 9.5 -9.99902s13.166 -8.5 20.499 -15.5s14.166 -16.5 20.499 -28.5s9.5 -28 9.5 -48v-13z" />
    <glyph glyph-name="Q" unicode="Q" horiz-adv-x="486" 
d="M54 470c0 24 5.33301 44.832 16 62.499s24.334 32.167 41.001 43.5s35.167 19.833 55.5 25.5s39.833 8.5 58.5 8.5c36 0 67.667 -8 95 -24s50.166 -37.833 68.499 -65.5s32 -60.167 41 -97.5s13.5 -77.333 13.5 -120c0 -28 -1.5 -55.833 -4.5 -83.5s-8.33301 -54 -16 -79
s-17.834 -48 -30.501 -69s-29 -38.167 -49 -51.5c-8.66699 -6.66699 -13 -12 -13 -16c0 -2.66699 2.33301 -4 7 -4h44c18.667 0 31.667 -6.16699 39 -18.5s11 -26.166 11 -41.499c0 -13.333 -2.83301 -25.5 -8.5 -36.5s-13 -20.833 -22 -29.5s-19.333 -15.334 -31 -20.001
s-23.167 -7 -34.5 -7c-24.667 0 -46.167 5 -64.5 15s-33.833 22.667 -46.5 38s-22.667 31.833 -30 49.5s-12.333 34.167 -15 49.5c-22.667 7.33301 -42.5 18.5 -59.5 33.5s-31.167 32.333 -42.5 52s-19.833 41.334 -25.5 65.001s-8.5 47.5 -8.5 71.5
c0 16.667 1.16699 33.334 3.5 50.001s6.5 32.5 12.5 47.5s14.333 28.167 25 39.5s24.334 19.666 41.001 24.999c-12 2 -22.333 5.83301 -31 11.5s-16 12.5 -22 20.5s-10.5 16.833 -13.5 26.5s-4.5 19.167 -4.5 28.5zM289 297.999c0 16.667 -0.833984 33.002 -2.50098 49.002
s-4.66699 30.167 -9 42.5s-10.166 22.166 -17.499 29.499s-16.666 11 -27.999 11s-22 -5.66699 -32 -17s-17.667 -23.333 -23 -36c15.333 -10 23 -22.667 23 -38c0 -12.667 -2.16699 -25 -6.5 -37s-6.5 -25.667 -6.5 -41v-26c0 -24.667 4.66699 -43.667 14 -57
c8 13.333 19 20 33 20c7.33301 0 13.666 -2.5 18.999 -7.5s8 -12.5 8 -22.5c12.667 9.33301 20.5 23.166 23.5 41.499s4.5 35.833 4.5 52.5v36z" />
    <glyph glyph-name="R" unicode="R" horiz-adv-x="538" 
d="M289 86c0 4.66699 0.501953 9.82227 1.50195 15.4893s1.5 10.167 1.5 13.5c0 18 -1.16699 32 -3.5 42s-6.83301 15 -13.5 15s-10 -3.66699 -10 -11v-26c0 -18 -2.83301 -35.667 -8.5 -53s-13.5 -32.833 -23.5 -46.5s-21.833 -24.667 -35.5 -33s-28.5 -12.5 -44.5 -12.5
c-11.333 0 -22.333 1.83301 -33 5.5s-20.167 9.33398 -28.5 17.001s-15.166 17.334 -20.499 29.001s-8 25.167 -8 40.5c0 12.667 2.66699 24.834 8 36.501s11.166 23.167 17.499 34.5s12.166 22.833 17.499 34.5s8 24.167 8 37.5c0 10.667 -1.16699 20.334 -3.5 29.001
s-4.83301 16.834 -7.5 24.501l-7.5 21.5c-2.33301 6.66699 -3.5 13 -3.5 19c0 12 1.33301 21.833 4 29.5s5.83398 13.834 9.50098 18.501s6.83398 8.5 9.50098 11.5s4 6.5 4 10.5c0 3.33301 -2 5 -6 5h-10c-9.33301 0 -18.166 2.83301 -26.499 8.5
s-15.5 12.834 -21.5 21.501s-10.667 18.167 -14 28.5s-5 20.5 -5 30.5c0 22 5.33301 40.5 16 55.5s24.667 27 42 36s37 15.333 59 19s44.333 5.5 67 5.5c32 0 62.5 -4 91.5 -12s54.5 -20 76.5 -36s39.333 -36.333 52 -61s19 -53.667 19 -87
c0 -26 -4.33301 -47.167 -13 -63.5s-18.334 -29.666 -29.001 -39.999s-20.334 -18.5 -29.001 -24.5s-13 -11.333 -13 -16c0 -1.33301 0.833008 -2.66602 2.5 -3.99902s4 -3.66602 7 -6.99902s6.5 -8.16602 10.5 -14.499s8.66699 -14.833 14 -25.5
c5.33301 -12 9.16602 -22.333 11.499 -31s4 -16.334 5 -23.001s1.66699 -12.667 2 -18s1.5 -10.333 3.5 -15c6 -14.667 13.333 -26 22 -34l24.5 -23c7.66699 -7.33301 14.334 -15.666 20.001 -24.999s8.5 -22.333 8.5 -39c0 -14.667 -3 -28.334 -9 -41.001
s-13.833 -23.5 -23.5 -32.5s-20.834 -16 -33.501 -21s-25.667 -7.5 -39 -7.5c-18 0 -33.833 4.5 -47.5 13.5s-25.334 20.333 -35.001 34s-17 28.834 -22 45.501s-7.5 33 -7.5 49v46zM191.002 397.988c15.333 -8.66699 25.834 -18.001 31.501 -28.001s9.66699 -19.333 12 -28
s4.66602 -16 6.99902 -22s7.5 -9 15.5 -9c12.667 0 23.667 4.83301 33 14.5s14 20.834 14 33.501c0 11.333 -4 22.333 -12 33s-21.333 16 -40 16c-2.66699 0 -6.66699 -0.333008 -12 -1s-11 -1.5 -17 -2.5l-17.5 -3c-5.66699 -1 -10.5 -2.16699 -14.5 -3.5z" />
    <glyph glyph-name="S" unicode="S" horiz-adv-x="499" 
d="M59 429c0 30 6.16602 55.8311 18.499 77.498s28.666 39.5 48.999 53.5s43.333 24.167 69 30.5s51.834 9.5 78.501 9.5c20.667 0 41.667 -2.66699 63 -8s40.5 -13.666 57.5 -24.999s31 -25.833 42 -43.5s16.5 -38.834 16.5 -63.501c0 -22 -8.16699 -41 -24.5 -57
s-36.166 -24 -59.499 -24c-16 0 -29.5 2.5 -40.5 7.5s-20.833 10.333 -29.5 16l-24 16c-7.33301 5 -15 7.5 -23 7.5c-6 0 -10.833 -2.33301 -14.5 -7s-5.5 -9 -5.5 -13c0 -10 5.66699 -18.5 17 -25.5s25.5 -14.167 42.5 -21.5l55 -24.5c19.667 -9 38 -20.333 55 -34
s31.167 -30.5 42.5 -50.5s17 -44.333 17 -73c0 -31.333 -5.66699 -58.666 -17 -81.999s-27 -42.666 -47 -57.999s-44.167 -27 -72.5 -35s-59.5 -12 -93.5 -12c-21.333 0 -43.333 2.5 -66 7.5s-43.5 12.667 -62.5 23s-34.5 23.5 -46.5 39.5s-18 34.667 -18 56
c0 12 2.33301 23.5 7 34.5s11.334 21 20.001 30s18.5 16.167 29.5 21.5s23.167 8 36.5 8c14 0 26.167 -2.66699 36.5 -8s20.166 -11.166 29.499 -17.499s18.5 -12.166 27.5 -17.499s18.5 -8 28.5 -8c9.33301 0 17 3.66699 23 11s9 14.666 9 21.999c0 12 -5.5 22 -16.5 30
s-25 15.667 -42 23l-54.5 24.5c-19.333 9 -37.5 20.167 -54.5 33.5s-31 30.166 -42 50.499s-16.5 45.5 -16.5 75.5z" />
    <glyph glyph-name="T" unicode="T" horiz-adv-x="922" 
d="M193 322c0 19.333 3.16406 38.8379 9.49707 58.5049s20.166 35.167 41.499 46.5c-10 0 -17.667 -0.833008 -23 -2.5s-9.66602 -3.83398 -12.999 -6.50098s-6.16602 -5.83398 -8.49902 -9.50098s-5.5 -7.16699 -9.5 -10.5c-6.66699 -6 -15 -11.167 -25 -15.5
s-23.333 -6.5 -40 -6.5c-26 0 -47.333 9.16699 -64 27.5s-25 42.5 -25 72.5c0 10.667 1.83301 22.834 5.5 36.501s11.334 26.5 23.001 38.5s28.167 22.167 49.5 30.5s50 12.5 86 12.5c12 0 27 -0.666992 45 -2s37.667 -3 59 -5l66.5 -6l66.5 -6
c21.333 -2 40.833 -3.66699 58.5 -5s31.834 -2 42.501 -2c22.667 0 44 1 64 3s39.167 4.16699 57.5 6.5l53 6.5c17 2 33.5 3 49.5 3c44 0 75.667 -8.5 95 -25.5s29 -38.5 29 -64.5c0 -16 -3.33301 -30.167 -10 -42.5s-15.5 -23 -26.5 -32s-23.667 -16.167 -38 -21.5
s-29.5 -8.66602 -45.5 -9.99902c7.33301 -8.66699 13.333 -16.334 18 -23.001s8.33398 -13.5 11.001 -20.5s4.5 -14.667 5.5 -23s1.5 -18.166 1.5 -29.499c0 -17.333 -1.16699 -31.833 -3.5 -43.5s-3.5 -21.834 -3.5 -30.501c0 -12.667 4.16699 -22.334 12.5 -29.001l27 -21
c9.66699 -7.33301 18.667 -16.666 27 -27.999s12.5 -28 12.5 -50c0 -10 -2 -20.833 -6 -32.5s-10 -22.334 -18 -32.001s-18 -17.834 -30 -24.501s-26 -10 -42 -10c-24.667 0 -45.667 5.16699 -63 15.5s-31.5 24.666 -42.5 42.999s-19 39.833 -24 64.5s-7.5 51 -7.5 79v26
c0 40 4.16699 75.833 12.5 107.5s24.166 54.834 47.499 69.501c-13.333 6 -27.333 11.167 -42 15.5s-29.167 8 -43.5 11s-27.833 5.16699 -40.5 6.5s-24 2 -34 2h-28c32 -30 55.667 -66.5 71 -109.5s23 -85.5 23 -127.5c0 -17.333 -1.83301 -37.666 -5.5 -60.999
s-10 -45.5 -19 -66.5s-21.333 -38.833 -37 -53.5s-35.167 -22 -58.5 -22c-13.333 0 -26.166 2 -38.499 6s-23.333 9.83301 -33 17.5s-17.334 17.167 -23.001 28.5s-8.5 24.666 -8.5 39.999c0 22 3.33301 39.667 10 53s14 25.333 22 36s15.333 21.167 22 31.5
s10 23.166 10 38.499c0 11.333 -1.66699 22.666 -5 33.999s-7 22.5 -11 33.5l-11 31.5c-3.33301 10 -5 19.667 -5 29c0 10.667 1.16699 20.834 3.5 30.501s6.5 19.167 12.5 28.5h-109c6.66699 -4.66699 13.334 -12.334 20.001 -23.001s10 -22 10 -34
c0 -9.33301 -0.833008 -20.666 -2.5 -33.999s-2.5 -25.666 -2.5 -36.999c0 -18.667 0.833008 -36.334 2.5 -53.001s2.5 -30.667 2.5 -42v-32c0 -30 -4.83301 -56.667 -14.5 -80s-22.834 -43 -39.501 -59s-36.5 -28 -59.5 -36s-47.833 -12 -74.5 -12
c-11.333 0 -23.333 2.16699 -36 6.5s-24.334 10.666 -35.001 18.999s-19.334 19 -26.001 32s-10 28.5 -10 46.5c0 12.667 1.83301 23.834 5.5 33.501s8.33398 17.667 14.001 24s11.5 11.666 17.5 15.999s11.333 7.5 16 9.5c8.66699 4 17.834 6.5 27.501 7.5s18.5 3 26.5 6
s14.667 8.83301 20 17.5s8 22.667 8 42v72z" />
    <glyph glyph-name="U" unicode="U" horiz-adv-x="576" 
d="M480 208c0 -11.333 2.82812 -21.334 8.49512 -30.001s11.834 -17.5 18.501 -26.5s12.834 -18.667 18.501 -29s8.5 -22.5 8.5 -36.5c0 -15.333 -2.83301 -29 -8.5 -41s-13.334 -22 -23.001 -30s-20.667 -14.167 -33 -18.5s-25.5 -6.5 -39.5 -6.5
c-21.333 0 -41.5 5.33301 -60.5 16s-34.833 24 -47.5 40c-17.333 -14.667 -36.833 -27.667 -58.5 -39s-43.5 -17 -65.5 -17c-42 0 -71.5 12 -88.5 36s-25.5 56.333 -25.5 97c0 16 0.666992 33.167 2 51.5l4 57l4 59c1.33301 19.667 2 38.834 2 57.501c0 24 -3 42.5 -9 55.5
s-12.833 24.167 -20.5 33.5s-14.5 18.5 -20.5 27.5s-9 21.833 -9 38.5c0 17.333 3.16699 32.166 9.5 44.499s14.5 22.333 24.5 30s21.333 13.334 34 17.001s25.667 5.5 39 5.5c20.667 0 38 -5.5 52 -16.5s25.333 -24.667 34 -41s14.834 -33.833 18.501 -52.5
s5.5 -36 5.5 -52c0 -32.667 -2 -66.167 -6 -100.5s-6 -68.5 -6 -102.5c0 -34.667 13 -52 39 -52c15.333 0 27.666 6.83301 36.999 20.5s14 34.167 14 61.5v107c0 11.333 -1.66699 21.666 -5 30.999s-7.16602 18.833 -11.499 28.5s-8.16602 20.167 -11.499 31.5
s-5 24.666 -5 39.999c0 17.333 3.16699 32.166 9.5 44.499s14.5 22.333 24.5 30s21.333 13.334 34 17.001s25.667 5.5 39 5.5s26.333 -1.83301 39 -5.5s24 -9.33398 34 -17.001s18.167 -17.667 24.5 -30s9.5 -27.166 9.5 -44.499c0 -15.333 -1.66699 -28.666 -5 -39.999
s-7.16602 -21.833 -11.499 -31.5s-8.16602 -19.167 -11.499 -28.5s-5 -19.666 -5 -30.999v-164z" />
    <glyph glyph-name="V" unicode="V" horiz-adv-x="525" 
d="M88 348c0 24 -3.00195 42.499 -9.00195 55.499s-12.833 24.167 -20.5 33.5s-14.5 18.5 -20.5 27.5s-9 21.833 -9 38.5c0 17.333 3.16699 32.166 9.5 44.499s14.5 22.333 24.5 30s21.333 13.334 34 17.001s25.667 5.5 39 5.5c20.667 0 38 -5.5 52 -16.5
s25.333 -24.667 34 -41s14.834 -33.833 18.501 -52.5s5.5 -36 5.5 -52v-226c0 -12 2.83301 -22.333 8.5 -31s15.834 -13 30.501 -13c10 0 18.167 5 24.5 15s11.333 21.833 15 35.5s6.33398 27.834 8.00098 42.501s2.5 27 2.5 37v50c0 24 -3 42.5 -9 55.5
s-12.833 24.167 -20.5 33.5s-14.5 18.5 -20.5 27.5s-9 21.833 -9 38.5c0 17.333 3.16699 32.166 9.5 44.499s14.5 22.333 24.5 30s21.333 13.334 34 17.001s25.667 5.5 39 5.5c20.667 0 38 -5.5 52 -16.5s25.333 -24.667 34 -41s14.834 -33.833 18.501 -52.5
s5.5 -36 5.5 -52v-90c0 -40 -3 -81.167 -9 -123.5s-17.333 -80.833 -34 -115.5s-39.834 -63.167 -69.501 -85.5s-68.167 -33.5 -115.5 -33.5c-29.333 0 -55 5.5 -77 16.5s-40.333 25.833 -55 44.5s-25.834 40.5 -33.501 65.5s-11.5 51.167 -11.5 78.5v153z" />
    <glyph glyph-name="W" unicode="W" horiz-adv-x="717" 
d="M42 484c0 18 3.00586 33.8311 9.00586 47.498s14 24.834 24 33.501s21.667 15.167 35 19.5s27 6.5 41 6.5c18 0 34 -4.83301 48 -14.5s25.833 -22.834 35.5 -39.501s17 -36.334 22 -59.001s7.5 -47 7.5 -73c0 -16 -0.666992 -33.167 -2 -51.5s-2.83301 -36 -4.5 -53
l-4.5 -47.5c-1.33301 -14.667 -2 -26.334 -2 -35.001c0 -9.33301 1.16699 -15.833 3.5 -19.5s6.83301 -5.5 13.5 -5.5c11.333 0 19.333 5.33301 24 16s8.16699 23.834 10.5 39.501s4.33301 32.667 6 51s5 35.333 10 51s12.5 28.834 22.5 39.501s24.333 16 43 16
c19.333 0 34.166 -5.16699 44.499 -15.5s17.666 -23.166 21.999 -38.499s7 -32 8 -50s2.16699 -34.667 3.5 -50s3.83301 -28.166 7.5 -38.499s10.834 -15.5 21.501 -15.5c10 0 16.667 3.66699 20 11s5 17.333 5 30v101c0 20 -3 35.333 -9 46s-13.333 18.667 -22 24
s-17.834 9.5 -27.501 12.5s-17.834 6.83301 -24.501 11.5c-9.33301 6 -18.333 15.5 -27 28.5s-13 27.833 -13 44.5s3.33301 31 10 43s15 21.833 25 29.5s21.167 13.167 33.5 16.5s24.166 5 35.499 5c31.333 0 58.166 -8.66699 80.499 -26s40.666 -39.5 54.999 -66.5
s24.833 -57 31.5 -90s10 -65.167 10 -96.5c0 -38.667 -2.83301 -77.667 -8.5 -117s-15.334 -75 -29.001 -107s-31.5 -58 -53.5 -78s-49 -30 -81 -30c-23.333 0 -42 4.33301 -56 13s-25 18 -33 28s-14 19.333 -18 28s-7.33301 13 -10 13c-4 0 -9.66699 -4.33301 -17 -13
s-16.666 -18 -27.999 -28s-24.833 -19.333 -40.5 -28s-33.5 -13 -53.5 -13c-29.333 0 -53.833 6.16699 -73.5 18.5s-35.5 27.833 -47.5 46.5s-20.667 39.334 -26 62.001s-8 44 -8 64c0 16 0.5 30.333 1.5 43s2.16699 25.167 3.5 37.5s2.5 25.5 3.5 39.5s1.5 30.333 1.5 49
c0 12.667 -3 23.667 -9 33s-12.833 18.5 -20.5 27.5s-14.5 19.167 -20.5 30.5s-9 25.666 -9 42.999z" />
    <glyph glyph-name="X" unicode="X" horiz-adv-x="550" 
d="M191 321c0 16 -3.50098 28.5 -10.501 37.5s-15.833 16.167 -26.5 21.5s-21.834 10 -33.501 14s-21.834 9.33301 -30.501 16c-13.333 9.33301 -23.666 22.666 -30.999 39.999s-11 33.666 -11 48.999c0 18.667 3 34.5 9 47.5s14 23.5 24 31.5s21.667 13.833 35 17.5
s27.333 5.5 42 5.5c25.333 0 48.166 -8.5 68.499 -25.5s35.833 -38.833 46.5 -65.5c10.667 26.667 26.167 48.5 46.5 65.5s43.166 25.5 68.499 25.5c14.667 0 28.667 -1.83301 42 -5.5s25 -9.5 35 -17.5s18 -18.5 24 -31.5s9 -28.833 9 -47.5
c0 -15.333 -3.66699 -31.666 -11 -48.999s-17.666 -30.666 -30.999 -39.999c-9.33301 -6.66699 -19.666 -12 -30.999 -16s-22.333 -8.66699 -33 -14s-19.5 -12.5 -26.5 -21.5s-10.5 -21.5 -10.5 -37.5v-24c0 -24 4.5 -42.833 13.5 -56.5s19.333 -24.5 31 -32.5
s23.5 -13.833 35.5 -17.5s21 -7.16699 27 -10.5c14.667 -8 25.834 -20.333 33.501 -37s11.5 -33.667 11.5 -51c0 -16.667 -3.33301 -31.334 -10 -44.001s-15 -23.334 -25 -32.001s-20.667 -15.167 -32 -19.5s-22 -6.5 -32 -6.5c-16 0 -30.833 3.16699 -44.5 9.5
s-26.167 14.833 -37.5 25.5s-21.5 22.667 -30.5 36s-16.5 27 -22.5 41c-6 -14 -13.5 -27.667 -22.5 -41s-19.167 -25.333 -30.5 -36s-23.833 -19.167 -37.5 -25.5s-28.5 -9.5 -44.5 -9.5c-10 0 -20.667 2.16699 -32 6.5s-22 10.833 -32 19.5s-18.333 19.334 -25 32.001
s-10 27.334 -10 44.001c0 17.333 3.83301 34.333 11.5 51s18.834 29 33.501 37c6 3.33301 15 6.83301 27 10.5s23.833 9.5 35.5 17.5s22 18.833 31 32.5s13.5 32.5 13.5 56.5v24z" />
    <glyph glyph-name="Y" unicode="Y" horiz-adv-x="525" 
d="M110 421c0 18.667 -4.33301 35.5 -13 50.5s-18.167 29.167 -28.5 42.5s-19.833 26.666 -28.5 39.999s-13 28.333 -13 45c0 14 2.83301 26.833 8.5 38.5s13.167 21.667 22.5 30s20.333 14.833 33 19.5s25.667 7 39 7c27.333 0 48.5 -7.33301 63.5 -22
s26.167 -32.834 33.5 -54.501s12.166 -45.167 14.499 -70.5s4.16602 -48.833 5.49902 -70.5s3.5 -39.834 6.5 -54.501s8.83301 -22 17.5 -22s14.5 7.33301 17.5 22s5.16699 32.834 6.5 54.501s3.16602 45.167 5.49902 70.5s7.16602 48.833 14.499 70.5
s18.5 39.834 33.5 54.501s36.167 22 63.5 22c13.333 0 26.166 -2.33301 38.499 -7s23.333 -11.167 33 -19.5s17.334 -18.333 23.001 -30s8.5 -24.5 8.5 -38.5c0 -16.667 -4.33301 -31.667 -13 -45s-18.167 -26.666 -28.5 -39.999s-19.833 -27.5 -28.5 -42.5
s-13 -31.833 -13 -50.5v-30c0 -28 -4.66699 -48.833 -14 -62.5s-19.5 -24 -30.5 -31l-30 -18.5c-9 -5.33301 -13.5 -13.666 -13.5 -24.999v-97c0 -10 2 -19.5 6 -28.5s8.5 -18 13.5 -27s9.5 -18.167 13.5 -27.5s6 -19.333 6 -30c0 -15.333 -3.16699 -29.5 -9.5 -42.5
s-14.666 -24 -24.999 -33s-22.166 -16 -35.499 -21s-27.333 -7.5 -42 -7.5s-28.667 2.5 -42 7.5s-25.166 12 -35.499 21s-18.666 20 -24.999 33s-9.5 27.167 -9.5 42.5c0 10.667 2 20.667 6 30s8.5 18.5 13.5 27.5s9.5 18 13.5 27s6 18.5 6 28.5v97
c0 11.333 -4.66699 19.666 -14 24.999s-19.5 11.5 -30.5 18.5s-21 17.333 -30 31s-13.5 34.5 -13.5 62.5v30z" />
    <glyph glyph-name="Z" unicode="Z" horiz-adv-x="525" 
d="M56 486c0 19.333 4 36.166 12 50.499s18.5 26.333 31.5 36s28.167 16.834 45.5 21.501s35 7 53 7c14 0 27.167 -1.33301 39.5 -4s24 -5.66699 35 -9l30.5 -9c9.33301 -2.66699 18 -4 26 -4c7.33301 0 14.833 1.33301 22.5 4s15.5 5.66699 23.5 9s16.333 6.33301 25 9
s17.334 4 26.001 4c22.667 0 37.834 -7.83301 45.501 -23.5s11.5 -33.167 11.5 -52.5c0 -17.333 -5.16699 -36.5 -15.5 -57.5s-23.333 -42.333 -39 -64s-32.5 -43.334 -50.5 -65.001l-50.5 -60c-15.667 -18.333 -28.667 -34.833 -39 -49.5s-15.5 -25.667 -15.5 -33
c0 -5.33301 1.66699 -9.66602 5 -12.999s7.66602 -5 12.999 -5c6 0 11.333 2 16 6s10.334 8.5 17.001 13.5s15 9.5 25 13.5s23 6 39 6c14.667 0 28 -2.83301 40 -8.5s22.333 -13.334 31 -23.001s15.5 -20.834 20.5 -33.501s7.5 -26 7.5 -40c0 -18 -3.66699 -34.333 -11 -49
s-16.833 -27.167 -28.5 -37.5s-24.834 -18.333 -39.501 -24s-29.334 -8.5 -44.001 -8.5c-20 0 -37.667 1.66699 -53 5s-29.166 7 -41.499 11l-35 11c-11 3.33301 -21.833 5 -32.5 5c-10 0 -19.167 -1.83301 -27.5 -5.5s-16.333 -7.66699 -24 -12s-15.5 -8.33301 -23.5 -12
s-16.667 -5.5 -26 -5.5c-10 0 -19 2.66699 -27 8s-14.833 12.333 -20.5 21s-9.83398 18.334 -12.501 29.001s-4 21.334 -4 32.001c0 21.333 5.16699 43 15.5 65s23.5 43.5 39.5 64.5s33 41.5 51 61.5l51 55.5c16 17 29.167 32.167 39.5 45.5s15.5 24 15.5 32
c0 6.66699 -1.66699 10 -5 10c-4 0 -8 -1.83301 -12 -5.5s-9.16699 -7.5 -15.5 -11.5s-14.5 -7.83301 -24.5 -11.5s-22.667 -5.5 -38 -5.5c-30.667 0 -54.667 9.83301 -72 29.5s-26 45.167 -26 76.5z" />
    <glyph glyph-name="a" unicode="a" horiz-adv-x="448" 
d="M391 167c0 -8.66699 1.83203 -16.1611 5.49902 -22.4941l11.5 -19.5c4 -6.66699 7.83301 -13.834 11.5 -21.501s5.5 -16.834 5.5 -27.501c0 -24.667 -8.5 -45 -25.5 -61s-37.167 -24 -60.5 -24c-16 0 -32.5 3.5 -49.5 10.5s-30.833 20.167 -41.5 39.5
c-15.333 -16.667 -32.666 -29.167 -51.999 -37.5s-38 -12.5 -56 -12.5c-16.667 0 -31.834 3.16699 -45.501 9.5s-25.5 14.833 -35.5 25.5s-17.667 23.167 -23 37.5s-8 29.166 -8 44.499c0 29.333 5.5 52.666 16.5 69.999s25 30.833 42 40.5s35.167 16.5 54.5 20.5l54.5 11.5
c17 3.66699 31 8 42 13s16.5 13.167 16.5 24.5c0 6 -4.16699 10.667 -12.5 14s-15.833 5 -22.5 5c-10 0 -18.5 -2.33301 -25.5 -7s-14 -9.83398 -21 -15.501s-14.667 -10.834 -23 -15.501s-18.833 -7 -31.5 -7c-14.667 0 -29 5.66699 -43 17s-21 27.666 -21 48.999
c0 20.667 5.5 38.167 16.5 52.5s24.833 25.833 41.5 34.5s35.167 14.834 55.5 18.501s39.833 5.5 58.5 5.5c60.667 0 104.334 -9.16699 131.001 -27.5s40 -48.833 40 -91.5c0 -17.333 -1 -35 -3 -53s-3 -37.667 -3 -59v-41zM257.999 180.006
c-10 -4.66699 -19.8301 -8.16797 -29.4971 -10.501s-18.334 -4.66602 -26.001 -6.99902s-14 -5.83301 -19 -10.5s-7.5 -11.667 -7.5 -21c0 -8.66699 3.83301 -15.167 11.5 -19.5s15.167 -6.5 22.5 -6.5c10 0 18.167 2.33301 24.5 7s11.166 10.5 14.499 17.5
s5.66602 15 6.99902 24s2 17.833 2 26.5z" />
    <glyph glyph-name="b" unicode="b" horiz-adv-x="435" 
d="M55 407c0 13.333 -1.33496 24.1641 -4.00195 32.4971s-5.5 15.833 -8.5 22.5s-5.66699 13.5 -8 20.5s-3.5 15.833 -3.5 26.5c0 12.667 2.83301 24.667 8.5 36s13.167 21.166 22.5 29.499s19.666 14.833 30.999 19.5s23 7 35 7c12.667 0 24.834 -2.33301 36.501 -7
s22 -11.167 31 -19.5s16.167 -18.166 21.5 -29.499s8 -23.333 8 -36c0 -10 -1.16699 -18.5 -3.5 -25.5s-4.83301 -13.5 -7.5 -19.5s-5.16699 -12.333 -7.5 -19s-3.5 -14.667 -3.5 -24v-14c11.333 8.66699 23.833 16.167 37.5 22.5s27.834 9.5 42.501 9.5
c24.667 0 45.167 -7.66699 61.5 -23s29 -34.5 38 -57.5s15.333 -48 19 -75s5.5 -52.167 5.5 -75.5s-1.5 -47.666 -4.5 -72.999s-8.83301 -48.666 -17.5 -69.999s-20.834 -39 -36.501 -53s-35.834 -21 -60.501 -21c-18.667 0 -36 5 -52 15s-27 19.667 -33 29
c-6 -13.333 -15 -24 -27 -32s-26.667 -12 -44 -12c-13.333 0 -26.166 2.33301 -38.499 7s-23.166 11.167 -32.499 19.5s-16.666 17.833 -21.999 28.5s-8 22 -8 34c0 10 1.16699 18.333 3.5 25s5 13 8 19s5.83301 12.833 8.5 20.5s4 17.834 4 30.501v232zM202.998 185.998
c0 -8 1.66699 -15.833 5 -23.5s10 -11.5 20 -11.5s16.667 3.83301 20 11.5s5 15.5 5 23.5v77c0 8 -1.66699 15.833 -5 23.5s-10 11.5 -20 11.5s-16.667 -3.83301 -20 -11.5s-5 -15.5 -5 -23.5v-77z" />
    <glyph glyph-name="c" unicode="c" horiz-adv-x="384" 
d="M178 206c0 -15.333 2.83301 -29.5059 8.5 -42.5059s14.167 -19.5 25.5 -19.5c4.66699 0 9 1.33301 13 4s8.33301 5.83398 13 9.50098s10.167 6.83398 16.5 9.50098s14.5 4 24.5 4c8.66699 0 17.667 -1.66699 27 -5s18 -8 26 -14s14.5 -13.667 19.5 -23s7.5 -20 7.5 -32
c0 -20 -4.83301 -36.833 -14.5 -50.5s-21.667 -24.667 -36 -33s-30 -14.166 -47 -17.499s-32.833 -5 -47.5 -5c-23.333 0 -46.166 3.5 -68.499 10.5s-42.333 19 -60 36s-32 40 -43 69s-16.5 65.167 -16.5 108.5s5.5 79.5 16.5 108.5s25.333 52 43 69s37.667 29 60 36
s45.166 10.5 68.499 10.5c14.667 0 30.5 -1.66699 47.5 -5s32.667 -9.16602 47 -17.499s26.333 -19.333 36 -33s14.5 -30.5 14.5 -50.5c0 -12 -2.5 -22.667 -7.5 -32s-11.5 -17 -19.5 -23s-16.667 -10.667 -26 -14s-18.333 -5 -27 -5c-10 0 -18.167 1.33301 -24.5 4
s-11.833 5.83398 -16.5 9.50098s-9 6.83398 -13 9.50098s-8.33301 4 -13 4c-11.333 0 -19.833 -6.5 -25.5 -19.5s-8.5 -27.167 -8.5 -42.5v-18z" />
    <glyph glyph-name="d" unicode="d" horiz-adv-x="435" 
d="M383 175c0 -12.667 1.16211 -22.832 3.49512 -30.499s5 -14.5 8 -20.5s5.83301 -12.333 8.5 -19s4 -15 4 -25c0 -12 -2.66699 -23.333 -8 -34s-12.666 -20.167 -21.999 -28.5s-20.166 -14.833 -32.499 -19.5s-25.166 -7 -38.499 -7c-17.333 0 -32 4 -44 12
s-21 18.667 -27 32c-6 -9.33301 -17 -19 -33 -29s-33.333 -15 -52 -15c-25.333 0 -45.666 7 -60.999 21s-27.333 31.667 -36 53s-14.5 44.666 -17.5 69.999s-4.5 49.666 -4.5 72.999s1.83301 48.5 5.5 75.5s10 52 19 75s21.5 42.167 37.5 57.5s36.667 23 62 23
c14.667 0 28.834 -3.16699 42.501 -9.5s26.167 -13.833 37.5 -22.5v14c0 9.33301 -1.16699 17.333 -3.5 24s-4.83301 13 -7.5 19s-5.16699 12.5 -7.5 19.5s-3.5 15.5 -3.5 25.5c0 12.667 2.66699 24.667 8 36s12.5 21.166 21.5 29.499s19.333 14.833 31 19.5
s23.834 7 36.501 7c12 0 23.667 -2.33301 35 -7s21.666 -11.167 30.999 -19.5s16.833 -18.166 22.5 -29.499s8.5 -23.333 8.5 -36c0 -10.667 -1.33301 -19.5 -4 -26.5s-5.5 -13.833 -8.5 -20.5s-5.66699 -14.167 -8 -22.5s-3.5 -19.166 -3.5 -32.499v-232zM234.995 263.002
c0 8 -1.66699 15.833 -5 23.5s-10 11.5 -20 11.5s-16.667 -3.83301 -20 -11.5s-5 -15.5 -5 -23.5v-77c0 -8 1.66699 -15.833 5 -23.5s10 -11.5 20 -11.5s16.667 3.83301 20 11.5s5 15.5 5 23.5v77z" />
    <glyph glyph-name="e" unicode="e" horiz-adv-x="410" 
d="M30 207c0 34.667 5 66.3291 15 94.9961s23.833 53.167 41.5 73.5s38.5 36 62.5 47s50 16.5 78 16.5c22.667 0 43.5 -4.16699 62.5 -12.5s35.167 -19.166 48.5 -32.499s23.666 -28.5 30.999 -45.5s11 -34.5 11 -52.5c0 -23.333 -5.16699 -43 -15.5 -59
s-24 -29.667 -41 -41s-36.833 -21.166 -59.5 -29.499s-46.334 -16.166 -71.001 -23.499c1.33301 -4.66699 4 -9.5 8 -14.5s8.66699 -7.5 14 -7.5c7.33301 0 14.5 2.33301 21.5 7l21.5 15c7.33301 5.33301 15 10.333 23 15s17 7 27 7c18 0 33.167 -6.5 45.5 -19.5
s18.5 -29.167 18.5 -48.5c0 -12.667 -4.66699 -25.334 -14 -38.001s-21.666 -24 -36.999 -34s-32.666 -18.167 -51.999 -24.5s-39 -9.5 -59 -9.5c-29.333 0 -55.333 6.33301 -78 19s-41.5 29.334 -56.5 50.001s-26.333 43.834 -34 69.501s-11.5 51.5 -11.5 77.5z
M213 306.995c-15.333 0 -26.1689 -4.50098 -32.502 -13.501s-9.5 -19.167 -9.5 -30.5c0 -9.33301 1 -17 3 -23c14.667 3.33301 28.834 8.33301 42.501 15s20.5 16 20.5 28c0 6.66699 -2.16699 12.334 -6.5 17.001s-10.166 7 -17.499 7z" />
    <glyph glyph-name="f" unicode="f" horiz-adv-x="307" 
d="M233 -14c0 -47.333 -9.49414 -85.8359 -28.4941 -115.503s-50.167 -44.5 -93.5 -44.5c-22.667 0 -42.5 7.33301 -59.5 22s-25.5 33.667 -25.5 57c0 18.667 2 32.834 6 42.501s8.66699 17.667 14 24s10.666 12.333 15.999 18s9.66602 14.167 12.999 25.5
c1.33301 4.66699 2.5 13.5 3.5 26.5s2 28.333 3 46s2 36.5 3 56.5s1.66699 38.833 2 56.5s0.666016 33.334 0.999023 47.001s0.5 23.167 0.5 28.5c0 16.667 -2.33301 28.667 -7 36s-9.83398 13.166 -15.501 17.499s-10.834 8.83301 -15.501 13.5s-7 12.667 -7 24
c0 9.33301 2.16699 16.666 6.5 21.999s9 10.166 14 14.499s9.66699 8.83301 14 13.5s6.5 10.667 6.5 18c0 4 -1 7.66699 -3 11s-4 7 -6 11s-4 9.16699 -6 15.5s-3 14.5 -3 24.5c0 14.667 3.16699 28.334 9.5 41.001s14.5 23.667 24.5 33s21.5 16.666 34.5 21.999
s26.5 8 40.5 8c32 0 57.5 -9.33301 76.5 -28s28.5 -42 28.5 -70c0 -15.333 -3 -27.166 -9 -35.499s-12.667 -14.166 -20 -17.499c-8.66699 -3.33301 -16.334 -5.83301 -23.001 -7.5s-10 -7.16699 -10 -16.5c0 -5.33301 3.16699 -9.66602 9.5 -12.999l21.5 -11
c8 -4 15.167 -8.83301 21.5 -14.5s9.5 -13.5 9.5 -23.5c0 -9.33301 -2.5 -16.666 -7.5 -21.999s-10.333 -10.333 -16 -15s-11 -9.5 -16 -14.5s-7.5 -11.833 -7.5 -20.5v-306z" />
    <glyph glyph-name="g" unicode="g" horiz-adv-x="435" 
d="M384 -54c0 -25.333 -4.16113 -45.8311 -12.4941 -61.498s-21.166 -27.834 -38.499 -36.501s-39 -14.5 -65 -17.5s-56.333 -4.5 -91 -4.5c-21.333 0 -41 1.16699 -59 3.5s-33.833 6.5 -47.5 12.5s-24.334 14.167 -32.001 24.5s-11.5 23.5 -11.5 39.5
c0 21.333 7.66699 39.333 23 54s35.666 22 60.999 22c13.333 0 24.166 -1.5 32.499 -4.5s15.5 -6.5 21.5 -10.5s11.667 -7.5 17 -10.5s11.666 -4.5 18.999 -4.5c19.333 0 29 11.333 29 34v34c-10.667 -8 -22.834 -14.833 -36.501 -20.5s-27.167 -8.5 -40.5 -8.5
c-24.667 0 -44.834 7.33301 -60.501 22s-28 33.5 -37 56.5s-15.333 48.833 -19 77.5s-5.5 56.667 -5.5 84c0 22 1.66699 45.167 5 69.5s9.33301 46.833 18 67.5s20.667 37.667 36 51s35 20 59 20c34 0 62.667 -14.667 86 -44c6 14 15.167 24.833 27.5 32.5
s26.166 11.5 41.499 11.5c14 0 27.167 -2.33301 39.5 -7s23 -11.167 32 -19.5s16.167 -17.833 21.5 -28.5s8 -22 8 -34c0 -8 -1.16699 -15.167 -3.5 -21.5l-7 -18.5l-7 -17.5c-2.33301 -5.66699 -3.5 -11.834 -3.5 -18.501v-328zM185.006 167.002
c0 -8 1.66699 -15.833 5 -23.5s10 -11.5 20 -11.5s16.667 3.83301 20 11.5s5 15.5 5 23.5v77c0 8 -1.66699 15.833 -5 23.5s-10 11.5 -20 11.5s-16.667 -3.83301 -20 -11.5s-5 -15.5 -5 -23.5v-77z" />
    <glyph glyph-name="h" unicode="h" horiz-adv-x="476" 
d="M56 418c0 7.33301 -1.33301 14.8311 -4 22.498l-8.5 23.5c-3 8 -5.66699 15.833 -8 23.5s-3.5 15.5 -3.5 23.5c0 12 2.33301 23.333 7 34s11 20.167 19 28.5s17.5 15 28.5 20s22.5 7.5 34.5 7.5c26 0 47 -9 63 -27s24 -39.667 24 -65v-115
c22 16.667 42.5 28.334 61.5 35.001s35.833 10 50.5 10c28.667 0 52.167 -7.5 70.5 -22.5s27.5 -39.5 27.5 -73.5c0 -13.333 -1.33301 -31.333 -4 -54s-4 -46.667 -4 -72c0 -23.333 1.83301 -41.333 5.5 -54s7.66699 -23.5 12 -32.5l12 -25.5
c3.66699 -8 5.5 -18.333 5.5 -31c0 -23.333 -9 -43 -27 -59s-39.667 -24 -65 -24c-30 0 -52.833 9.16699 -68.5 27.5s-23.5 49.166 -23.5 92.499c0 12 0.5 22.833 1.5 32.5l3 30c1 10.333 2 21.333 3 33s1.5 25.5 1.5 41.5c0 13.333 -2.5 23.666 -7.5 30.999
s-11.167 11 -18.5 11c-16.667 0 -27.834 -5.33301 -33.501 -16s-8.5 -24 -8.5 -40v-44c0 -12 1.16699 -22.5 3.5 -31.5s5 -17.5 8 -25.5l8.5 -23.5c2.66699 -7.66699 4 -16.167 4 -25.5c0 -11.333 -2.16699 -22.5 -6.5 -33.5s-10.666 -21 -18.999 -30
s-18.5 -16.167 -30.5 -21.5s-25.333 -8 -40 -8c-14 0 -27 2.83301 -39 8.5s-22.333 12.834 -31 21.501s-15.5 18.5 -20.5 29.5s-7.5 21.833 -7.5 32.5c0 8.66699 1.16699 16.834 3.5 24.501s5 15.334 8 23.001l8.5 22c2.66699 7 4 13.833 4 20.5v245z" />
    <glyph glyph-name="i" unicode="i" horiz-adv-x="269" 
d="M56 562c0 20 7.66699 37 23 51s34 21 56 21s40.667 -7 56 -21s23 -31 23 -51s-7.66699 -37 -23 -51s-34 -21 -56 -21s-40.667 7 -56 21s-23 31 -23 51zM62 241c0 11.333 -1.33301 21.666 -4 30.999s-5.66699 18.166 -9 26.499s-6.33301 16.333 -9 24s-4 16.167 -4 25.5
c0 13.333 2.83301 25.666 8.5 36.999s13.167 21 22.5 29s19.833 14.167 31.5 18.5s23.834 6.5 36.501 6.5s24.834 -2.16699 36.501 -6.5s22.167 -10.5 31.5 -18.5s16.833 -17.667 22.5 -29s8.5 -23.666 8.5 -36.999c0 -9.33301 -1.33301 -17.833 -4 -25.5
s-5.66699 -15.667 -9 -24s-6.33301 -17.166 -9 -26.499s-4 -19.666 -4 -30.999v-52c0 -11.333 1.33301 -21.666 4 -30.999s5.66699 -18.166 9 -26.499s6.33301 -16.5 9 -24.5s4 -16.333 4 -25c0 -13.333 -2.83301 -25.666 -8.5 -36.999s-13.167 -21 -22.5 -29
s-19.833 -14.167 -31.5 -18.5s-23.834 -6.5 -36.501 -6.5s-24.834 2.16699 -36.501 6.5s-22.167 10.5 -31.5 18.5s-16.833 17.667 -22.5 29s-8.5 23.666 -8.5 36.999c0 8.66699 1.33301 17 4 25s5.66699 16.167 9 24.5s6.33301 17.166 9 26.499s4 19.666 4 30.999v52z" />
    <glyph glyph-name="j" unicode="j" horiz-adv-x="256" 
d="M43 562c0 20 7.66699 37 23 51s34 21 56 21s40.667 -7 56 -21s23 -31 23 -51s-7.66699 -37 -23 -51s-34 -21 -56 -21s-40.667 7 -56 21s-23 31 -23 51zM31 346c0 26.667 9 48.668 27 66.001s41.333 26 70 26c22 0 42 -6.5 60 -19.5s27 -32.833 27 -59.5
c0 -4.66699 -0.333008 -15.834 -1 -33.501s-1.33398 -38.667 -2.00098 -63s-1.5 -50.333 -2.5 -78s-1.83301 -53.834 -2.5 -78.501s-1.33398 -46.334 -2.00098 -65.001s-1 -30.667 -1 -36c0 -13.333 1.16699 -23 3.5 -29s5 -11.333 8 -16s5.66699 -9.83398 8 -15.501
s3.5 -14.5 3.5 -26.5c0 -26.667 -9 -48.667 -27 -66s-41.333 -26 -70 -26c-22 0 -42 6.5 -60 19.5s-27 32.167 -27 57.5c0 4.66699 0.333008 15.834 1 33.501s1.33398 38.834 2.00098 63.501s1.5 51 2.5 79s1.83301 54.333 2.5 79s1.33398 46.167 2.00098 64.5
s1 30.5 1 36.5c0 12.667 -1.16699 22.167 -3.5 28.5s-5 11.833 -8 16.5s-5.66699 9.83398 -8 15.501s-3.5 14.5 -3.5 26.5z" />
    <glyph glyph-name="k" unicode="k" 
d="M59 415c0 8 -1.49902 15.9961 -4.49902 23.9961s-6.16699 16 -9.5 24l-9.5 23.5c-3 7.66699 -4.5 15.167 -4.5 22.5c0 26.667 8.83301 49 26.5 67s39.5 27 65.5 27c12.667 0 24.5 -2.66699 35.5 -8s20.5 -12.166 28.5 -20.499s14.333 -17.666 19 -27.999s7 -20.5 7 -30.5
v-242c0 -3.33301 1.33301 -5 4 -5c4 0 7.5 4.16699 10.5 12.5s6.5 18.833 10.5 31.5s9 26.334 15 41.001s13.833 28.334 23.5 41.001s21.667 23.167 36 31.5s31.833 12.5 52.5 12.5c22.667 0 42 -8.16699 58 -24.5s24 -35.833 24 -58.5c0 -10 -1.83301 -19.833 -5.5 -29.5
s-8.83398 -18.334 -15.501 -26.001s-14.5 -13.834 -23.5 -18.501s-18.833 -7 -29.5 -7c-2 0 -4.33301 0.333008 -7 1s-5.33398 1 -8.00098 1c-6 0 -10.167 -4.66699 -12.5 -14s-3.5 -17.666 -3.5 -24.999c0 -16.667 5.5 -29.834 16.5 -39.501s23 -19.167 36 -28.5
s25 -20.333 36 -33s16.5 -30.667 16.5 -54c0 -11.333 -2.5 -22.333 -7.5 -33s-11.667 -20.5 -20 -29.5s-18.333 -16.167 -30 -21.5s-24.5 -8 -38.5 -8c-19.333 0 -35.166 4.33301 -47.499 13s-22 19.5 -29 32.5s-12.167 27.167 -15.5 42.5l-9 42.5
c-2.66699 13 -5.66699 23.833 -9 32.5s-8 13 -14 13c-2 0 -4.83301 -1 -8.5 -3s-5.5 -4.66699 -5.5 -8v-78c0 -10 -2.33301 -20.167 -7 -30.5s-11 -19.666 -19 -27.999s-17.5 -15.166 -28.5 -20.499s-22.833 -8 -35.5 -8c-26 0 -47.833 9 -65.5 27s-26.5 40.333 -26.5 67
c0 7.33301 1.5 14.833 4.5 22.5l9.5 23.5c3.33301 8 6.5 16 9.5 24s4.5 16 4.5 24v236z" />
    <glyph glyph-name="l" unicode="l" horiz-adv-x="256" 
d="M31 509c0 26.667 9 48.668 27 66.001s41.333 26 70 26c22 0 42 -6.5 60 -19.5s27 -32.167 27 -57.5c0 -4.66699 -0.333008 -15.834 -1 -33.501s-1.33398 -38.667 -2.00098 -63s-1.5 -50.333 -2.5 -78s-1.83301 -53.834 -2.5 -78.501s-1.33398 -46.334 -2.00098 -65.001
s-1 -30.667 -1 -36c0 -13.333 1.16699 -23 3.5 -29s5 -11.333 8 -16s5.66699 -9.83398 8 -15.501s3.5 -14.5 3.5 -26.5c0 -26.667 -9 -48.667 -27 -66s-41.333 -26 -70 -26c-22 0 -42 6.5 -60 19.5s-27 32.167 -27 57.5c0 4.66699 0.333008 15.834 1 33.501
s1.33398 38.667 2.00098 63s1.5 50.333 2.5 78s1.83301 53.834 2.5 78.501s1.33398 46.167 2.00098 64.5s1 30.5 1 36.5c0 12.667 -1.16699 22.167 -3.5 28.5s-5 11.833 -8 16.5s-5.66699 9.83398 -8 15.501s-3.5 14.5 -3.5 26.5z" />
    <glyph glyph-name="m" unicode="m" horiz-adv-x="704" 
d="M59 227c0 14.667 -1.33008 27.501 -3.99707 38.501s-5.5 21 -8.5 30l-8.5 26c-2.66699 8.33301 -4 16.833 -4 25.5c0 14 3.16699 26.667 9.5 38s14.5 21 24.5 29s20.667 14.167 32 18.5s22 6.5 32 6.5c22.667 0 41 -4.16699 55 -12.5s25.667 -21.5 35 -39.5
c15.333 14 33.833 26.167 55.5 36.5s42.5 15.5 62.5 15.5c18 0 36.667 -4.33301 56 -13s33 -21.667 41 -39c15.333 14 32.166 26.167 50.499 36.5s38.166 15.5 59.499 15.5c15.333 0 29 -3.33301 41 -10s22.333 -15.334 31 -26.001s15.167 -23.167 19.5 -37.5
s6.5 -28.833 6.5 -43.5c0 -18 -0.833008 -36.5 -2.5 -55.5s-2.5 -41.5 -2.5 -67.5c0 -16 1.66699 -29 5 -39s7.16602 -19 11.499 -27s8.16602 -15.833 11.499 -23.5s5 -17.5 5 -29.5s-2.5 -23.333 -7.5 -34s-11.667 -20.167 -20 -28.5s-18 -14.833 -29 -19.5
s-22.833 -7 -35.5 -7c-32.667 0 -57.167 10.5 -73.5 31.5s-24.5 48.167 -24.5 81.5c0 12.667 0.333008 26.167 1 40.5s1.5 28.333 2.5 42s2 26.667 3 39s1.5 23.5 1.5 33.5c0 9.33301 -3 16.5 -9 21.5s-11.667 7.5 -17 7.5c-11.333 0 -21.166 -6.66699 -29.499 -20
s-12.5 -35 -12.5 -65c0 -14.667 1.33301 -27.5 4 -38.5s5.5 -21 8.5 -30l8.5 -26c2.66699 -8.33301 4 -16.833 4 -25.5c0 -14 -3.16699 -26.667 -9.5 -38s-14.5 -21 -24.5 -29s-20.667 -14.167 -32 -18.5s-22 -6.5 -32 -6.5s-20.667 2.16699 -32 6.5s-22 10.5 -32 18.5
s-18.167 17.667 -24.5 29s-9.5 24 -9.5 38c0 8.66699 1.33301 17.167 4 25.5l8.5 26c3 9 5.83301 19 8.5 30s4 23.833 4 38.5v42c0 11.333 -3 21.333 -9 30s-15 13 -27 13s-21 -4.33301 -27 -13s-9 -18.667 -9 -30v-42c0 -14.667 1.33301 -27.5 4 -38.5s5.5 -21 8.5 -30
l8.5 -26c2.66699 -8.33301 4 -16.833 4 -25.5c0 -14 -3.16699 -26.667 -9.5 -38s-14.5 -21 -24.5 -29s-20.667 -14.167 -32 -18.5s-22 -6.5 -32 -6.5s-20.667 2.16699 -32 6.5s-22 10.5 -32 18.5s-18.167 17.667 -24.5 29s-9.5 24 -9.5 38c0 8.66699 1.33301 17.167 4 25.5
l8.5 26c3 9 5.83301 19 8.5 30s4 23.833 4 38.5v24z" />
    <glyph glyph-name="n" unicode="n" 
d="M56 263c0 8 -1.33301 15.3311 -4 21.998s-5.5 13.334 -8.5 20.001s-5.66699 13.5 -8 20.5s-3.5 14.833 -3.5 23.5c0 12.667 2.83301 24.5 8.5 35.5s13 20.5 22 28.5s19.333 14.333 31 19s23.5 7 35.5 7c17.333 0 32.333 -3.66699 45 -11s24.667 -18.333 36 -33
c22 16.667 42.167 28.167 60.5 34.5s34.833 9.5 49.5 9.5c28.667 0 52.167 -7.5 70.5 -22.5s27.5 -39.5 27.5 -73.5c0 -13.333 -1.33301 -31.333 -4 -54s-4 -46.667 -4 -72c0 -23.333 1.83301 -41.333 5.5 -54s7.66699 -23.5 12 -32.5l12 -25.5
c3.66699 -8 5.5 -18.333 5.5 -31c0 -23.333 -9 -43 -27 -59s-39.667 -24 -65 -24c-30 0 -52.833 9.16699 -68.5 27.5s-23.5 49.166 -23.5 92.499c0 12 0.5 22.833 1.5 32.5l3 30c1 10.333 2 21.333 3 33s1.5 25.5 1.5 41.5c0 13.333 -2.5 23.666 -7.5 30.999
s-11.167 11 -18.5 11c-16.667 0 -27.834 -5.33301 -33.501 -16s-8.5 -24 -8.5 -40v-44c0 -12 1.16699 -22.5 3.5 -31.5s5 -17.5 8 -25.5l8.5 -23.5c2.66699 -7.66699 4 -16.167 4 -25.5c0 -11.333 -2.16699 -22.5 -6.5 -33.5s-10.666 -21 -18.999 -30
s-18.5 -16.167 -30.5 -21.5s-25.333 -8 -40 -8c-14 0 -27 2.83301 -39 8.5s-22.333 12.834 -31 21.501s-15.5 18.5 -20.5 29.5s-7.5 21.833 -7.5 32.5c0 8.66699 1.16699 16.834 3.5 24.501s5 15.334 8 23.001l8.5 22c2.66699 7 4 13.833 4 20.5v90z" />
    <glyph glyph-name="o" unicode="o" horiz-adv-x="435" 
d="M29 215c0 37.333 4.83301 70 14.5 98s23 51.333 40 70s37 32.667 60 42s47.5 14 73.5 14s50.333 -4.66699 73 -14s42.5 -23.333 59.5 -42s30.5 -42 40.5 -70s15 -60.667 15 -98s-5 -70 -15 -98s-23.5 -51.333 -40.5 -70s-36.833 -32.667 -59.5 -42s-47 -14 -73 -14
s-50.5 4.66699 -73.5 14s-43 23.333 -60 42s-30.333 42 -40 70s-14.5 60.667 -14.5 98zM187 181c0 -13.333 2.16699 -24.5 6.5 -33.5s12.166 -13.5 23.499 -13.5s19.166 4.5 23.499 13.5s6.5 20.167 6.5 33.5v68c0 13.333 -2.16699 24.5 -6.5 33.5
s-12.166 13.5 -23.499 13.5s-19.166 -4.5 -23.499 -13.5s-6.5 -20.167 -6.5 -33.5v-68z" />
    <glyph glyph-name="p" unicode="p" horiz-adv-x="435" 
d="M56 255c0 12.667 -1.33008 22.832 -3.99707 30.499s-5.5 14.5 -8.5 20.5s-5.66699 12.333 -8 19s-3.5 15 -3.5 25c0 12 2.66699 23.333 8 34s12.666 20.167 21.999 28.5s20.166 14.833 32.499 19.5s25.166 7 38.499 7c17.333 0 32 -4 44 -12s21 -18.667 27 -32
c6 9.33301 17 19 33 29s33.333 15 52 15c24.667 0 44.667 -7 60 -21s27.333 -31.667 36 -53s14.334 -44.666 17.001 -69.999s4 -49.666 4 -72.999s-1.66699 -48.5 -5 -75.5s-9.5 -52 -18.5 -75s-21.5 -42.167 -37.5 -57.5s-36.333 -23 -61 -23
c-14.667 0 -28.834 3.16699 -42.501 9.5s-26.167 13.833 -37.5 22.5v-14c0 -9.33301 1.16699 -17.333 3.5 -24s4.83301 -13 7.5 -19s5.16699 -12.5 7.5 -19.5s3.5 -15.5 3.5 -25.5c0 -12.667 -2.66699 -24.667 -8 -36s-12.5 -21.166 -21.5 -29.499s-19.333 -15 -31 -20
s-23.834 -7.5 -36.501 -7.5c-12 0 -23.667 2.5 -35 7.5s-21.666 11.667 -30.999 20s-16.833 18.166 -22.5 29.499s-8.5 23.333 -8.5 36c0 10.667 1.16699 19.5 3.5 26.5s5 13.833 8 20.5s5.83301 14.167 8.5 22.5s4 19.166 4 32.499v232zM204.003 166.998
c0 -8 1.66699 -15.833 5 -23.5s10 -11.5 20 -11.5s16.667 3.83301 20 11.5s5 15.5 5 23.5v77c0 8 -1.66699 15.833 -5 23.5s-10 11.5 -20 11.5s-16.667 -3.83301 -20 -11.5s-5 -15.5 -5 -23.5v-77z" />
    <glyph glyph-name="q" unicode="q" horiz-adv-x="435" 
d="M378 23c0 -13.333 1.16992 -24.1641 3.50293 -32.4971s5 -15.833 8 -22.5s5.83301 -13.5 8.5 -20.5s4 -15.833 4 -26.5c0 -12.667 -2.83301 -24.667 -8.5 -36s-13.167 -21.166 -22.5 -29.499s-19.666 -15 -30.999 -20s-23 -7.5 -35 -7.5
c-12.667 0 -24.834 2.5 -36.501 7.5s-22 11.667 -31 20s-16.167 18.166 -21.5 29.499s-8 23.333 -8 36c0 10 1.16699 18.5 3.5 25.5s4.83301 13.5 7.5 19.5s5.16699 12.333 7.5 19s3.5 14.667 3.5 24v14c-11.333 -8.66699 -23.833 -16.167 -37.5 -22.5
s-27.834 -9.5 -42.501 -9.5c-25.333 0 -45.833 7.66699 -61.5 23s-28 34.5 -37 57.5s-15.167 48 -18.5 75s-5 52.167 -5 75.5s1.33301 47.666 4 72.999s8.33398 48.666 17.001 69.999s20.5 39 35.5 53s35.167 21 60.5 21c18.667 0 36 -5 52 -15s27 -19.667 33 -29
c6 13.333 15 24 27 32s26.667 12 44 12c13.333 0 26.166 -2.33301 38.499 -7s23.166 -11.167 32.499 -19.5s16.666 -17.833 21.999 -28.5s8 -22 8 -34c0 -10 -1.33301 -18.333 -4 -25s-5.5 -13 -8.5 -19s-5.66699 -12.833 -8 -20.5s-3.5 -17.834 -3.5 -30.501v-232z
M230.003 244.002c0 8 -1.66699 15.833 -5 23.5s-10 11.5 -20 11.5s-16.667 -3.83301 -20 -11.5s-5 -15.5 -5 -23.5v-77c0 -8 1.66699 -15.833 5 -23.5s10 -11.5 20 -11.5s16.667 3.83301 20 11.5s5 15.5 5 23.5v77z" />
    <glyph glyph-name="r" unicode="r" horiz-adv-x="384" 
d="M54 244c0 14 -1.33301 25.3359 -4 34.0029s-5.5 16.5 -8.5 23.5s-5.83301 14 -8.5 21s-4 15.5 -4 25.5c0 12 2.5 23.5 7.5 34.5s11.667 20.667 20 29s18.166 15 29.499 20s23.333 7.5 36 7.5c14 0 27.333 -3 40 -9s23.334 -15.333 32.001 -28
c10.667 10 23 17.833 37 23.5s26.667 8.5 38 8.5c25.333 0 46.666 -8.5 63.999 -25.5s26 -38.167 26 -63.5s-8 -46.166 -24 -62.499s-34 -24.5 -54 -24.5c-7.33301 0 -14 1.16699 -20 3.5s-11.5 4.83301 -16.5 7.5l-13.5 7.5c-4 2.33301 -8 3.5 -12 3.5
c-5.33301 0 -9.16602 -4.66699 -11.499 -14s-3.5 -18.333 -3.5 -27v-17c0 -28.667 1.33301 -49.834 4 -63.501s5.5 -24.334 8.5 -32.001l8.5 -21c2.66699 -6.33301 4 -15.833 4 -28.5c0 -12 -2.66699 -23.333 -8 -34s-12.333 -19.834 -21 -27.501s-18.5 -13.667 -29.5 -18
s-22.167 -6.5 -33.5 -6.5s-22.333 2.33301 -33 7s-20.167 10.834 -28.5 18.501s-15 16.667 -20 27s-7.5 21.5 -7.5 33.5c0 13.333 1 29.666 3 48.999s3 36.666 3 51.999v66z" />
    <glyph glyph-name="s" unicode="s" horiz-adv-x="410" 
d="M37 312c0 24 5.66699 44.167 17 60.5s25.5 29.5 42.5 39.5s35.833 17 56.5 21s40.334 6 59.001 6c14 0 29 -1.33301 45 -4s30.833 -7.5 44.5 -14.5s25 -16.833 34 -29.5s13.5 -28.667 13.5 -48c0 -9.33301 -2.33301 -17.5 -7 -24.5s-10.667 -12.833 -18 -17.5
s-15.5 -8.16699 -24.5 -10.5s-17.5 -3.5 -25.5 -3.5c-11.333 0 -19.833 1 -25.5 3s-10.334 4 -14.001 6l-10.5 6c-3.33301 2 -8 3 -14 3c-3.33301 0 -7.66602 -1.83301 -12.999 -5.5s-8 -8.5 -8 -14.5c0 -6.66699 4.66699 -11.667 14 -15s21 -6.33301 35 -9
s29.333 -6 46 -10s32 -9.83301 46 -17.5s25.667 -18.334 35 -32.001s14 -31.5 14 -53.5c0 -26.667 -4.83301 -49.834 -14.5 -69.501s-22.5 -36 -38.5 -49s-34.667 -22.667 -56 -29s-44 -9.5 -68 -9.5c-18 0 -37.167 2.16699 -57.5 6.5s-39 11 -56 20s-31 20.667 -42 35
s-16.5 31.166 -16.5 50.499c0 10.667 2.83301 20.334 8.5 29.001s12.5 16 20.5 22s16.667 10.5 26 13.5s17.666 4.5 24.999 4.5c17.333 0 32 -2 44 -6s22.167 -8.5 30.5 -13.5s15.333 -9.5 21 -13.5s10.5 -6 14.5 -6c2.66699 0 5.33398 1.33301 8.00098 4s4 5.66699 4 9
c0 10.667 -6 19.834 -18 27.501s-26.333 14.5 -43 20.5l-50 17.5c-16.667 5.66699 -29.334 11.834 -38.001 18.501c-12 9.33301 -22.667 20.5 -32 33.5s-14 29.167 -14 48.5z" />
    <glyph glyph-name="t" unicode="t" horiz-adv-x="307" 
d="M49 509c0 26.667 9 48.6689 27 66.002s41.333 26 70 26c16 0 29.333 -3.33301 40 -10s19.5 -15.334 26.5 -26.001s12 -22.834 15 -36.501s4.5 -27.5 4.5 -41.5c0 -17.333 -1 -33 -3 -47s-3 -23.667 -3 -29c0 -4 2.33301 -6.83301 7 -8.5l16 -6
c6 -2.33301 11.333 -5.83301 16 -10.5s7 -12 7 -22c0 -10.667 -2.66699 -18.167 -8 -22.5s-11 -8.5 -17 -12.5s-11.667 -8.66699 -17 -14s-8 -14.333 -8 -27v-118c0 -12.667 1.16699 -22.167 3.5 -28.5s5 -11.833 8 -16.5s5.66699 -9.83398 8 -15.501s3.5 -14.5 3.5 -26.5
c0 -26.667 -9 -48.667 -27 -66s-41.333 -26 -70 -26c-22 0 -42 6.5 -60 19.5s-27 32.167 -27 57.5c0 4.66699 0.333008 15.834 1 33.501s1.5 38.5 2.5 62.5s2 49.667 3 77s1.5 53.333 1.5 78c0 4 -1.83301 7 -5.5 9s-7.66699 4.33301 -12 7s-8.33301 6 -12 10
s-5.5 10.333 -5.5 19c0 10 2 16.667 6 20s8.16699 6 12.5 8l12.5 6c4 2 6 6.66699 6 14c0 4 -1.16699 8.33301 -3.5 13s-4.83301 10.5 -7.5 17.5s-5.16699 15.833 -7.5 26.5s-3.5 24 -3.5 40z" />
    <glyph glyph-name="u" unicode="u" 
d="M415 171c0 -8 1.33301 -16.1699 4 -24.5029s5.83398 -16.666 9.50098 -24.999s6.83398 -16.666 9.50098 -24.999s4 -16.833 4 -25.5c0 -20.667 -8.66699 -39.167 -26 -55.5s-40.666 -24.5 -69.999 -24.5c-17.333 0 -33.333 3.83301 -48 11.5s-27.334 20.167 -38.001 37.5
c-14.667 -13.333 -32 -24.833 -52 -34.5s-39.333 -14.5 -58 -14.5c-18 0 -33.667 3.16699 -47 9.5s-24.333 14.833 -33 25.5s-15 23 -19 37s-6 28.667 -6 44c0 12.667 0.666992 26.334 2 41.001l4 43.5c1.33301 14.333 2.66602 27.833 3.99902 40.5s2 24 2 34
c0 8 -1.33301 15.167 -4 21.5l-8.5 19.5c-3 6.66699 -5.83301 13.5 -8.5 20.5s-4 15.167 -4 24.5c0 24.667 8.66699 45.334 26 62.001s38.333 25 63 25s45.5 -8.83301 62.5 -26.5s25.5 -43.834 25.5 -78.501c0 -20.667 -1.83301 -43.667 -5.5 -69s-5.5 -50 -5.5 -74
c0 -14 2 -26 6 -36s10 -15 18 -15c19.333 0 31.666 7.66699 36.999 23s8 32.666 8 51.999v35c0 15.333 -3.66699 31.833 -11 49.5s-11 35.167 -11 52.5c0 28.667 9 50.334 27 65.001s40 22 66 22c22.667 0 42.167 -7.83301 58.5 -23.5s24.5 -36.167 24.5 -61.5
c0 -14 -1 -27.5 -3 -40.5s-3 -27.167 -3 -42.5v-100z" />
    <glyph glyph-name="v" unicode="v" horiz-adv-x="435" 
d="M24 349c0 12 2.99805 22.8291 8.99805 32.4961s13.333 17.834 22 24.501s18 11.667 28 15s19 5 27 5c22.667 0 41.167 -5.5 55.5 -16.5s25.5 -25 33.5 -42s13.833 -35.167 17.5 -54.5s6.5 -37.5 8.5 -54.5s4 -31 6 -42s5.33301 -16.5 10 -16.5
c5.33301 0 10.5 3.83301 15.5 11.5s7.5 21.834 7.5 42.501c0 10.667 -1.66699 19.834 -5 27.501s-6.83301 15 -10.5 22s-7.16699 14.333 -10.5 22s-5 17.167 -5 28.5c0 9.33301 1.83301 18.833 5.5 28.5s9 18.5 16 26.5s15.667 14.5 26 19.5s22.5 7.5 36.5 7.5
c28.667 0 51.334 -9.16699 68.001 -27.5s25 -41.833 25 -70.5c0 -20.667 -2 -43.667 -6 -69s-9.5 -50.833 -16.5 -76.5s-15.667 -50.667 -26 -75s-21.833 -46 -34.5 -65s-26.667 -34.167 -42 -45.5s-31.333 -17 -48 -17c-27.333 0 -47.666 5.83301 -60.999 17.5
s-23.333 26.667 -30 45s-11.5 38.833 -14.5 61.5s-7.16699 45 -12.5 67c-4 16 -11.167 30.333 -21.5 43l-32 38c-11 12.667 -20.667 25.834 -29 39.501s-12.5 29.5 -12.5 47.5z" />
    <glyph glyph-name="w" unicode="w" horiz-adv-x="563" 
d="M302 338c19.333 0 32.167 -5.66797 38.5 -17.001s10.333 -23.833 12 -37.5s3.5 -26.167 5.5 -37.5s8.33301 -17 19 -17c5.33301 0 9.16602 3.16699 11.499 9.5s3.5 12.833 3.5 19.5c0 9.33301 -1.33301 17 -4 23s-5.5 12 -8.5 18s-5.83301 12.833 -8.5 20.5
s-4 17.5 -4 29.5c0 25.333 7.66699 47.166 23 65.499s34.333 27.5 57 27.5c28.667 0 51.667 -9 69 -27s26 -42 26 -72c0 -12 -1.33301 -29 -4 -51s-6.83398 -46 -12.501 -72s-12.834 -52.667 -21.501 -80s-18.667 -52 -30 -74s-24 -40 -38 -54s-29.333 -21 -46 -21
c-18 0 -32.333 6 -43 18s-18.834 25.333 -24.501 40s-10 28 -13 40s-5.83301 18 -8.5 18c-4 0 -7.83301 -6 -11.5 -18s-8.5 -25.333 -14.5 -40s-14 -28 -24 -40s-23.667 -18 -41 -18c-24 0 -42.5 8.16699 -55.5 24.5s-23.167 36.166 -30.5 59.499s-13 48 -17 74
s-8.66699 48.667 -14 68c-4 14.667 -10 26.5 -18 35.5l-24 27.5c-8 9.33301 -15 20 -21 32s-9 28 -9 48c0 10.667 2.5 20.834 7.5 30.501s11.5 18.334 19.5 26.001s17 13.834 27 18.501s19.667 7 29 7c22.667 0 40.834 -5 54.501 -15s24.334 -22.667 32.001 -38
s13.167 -31.833 16.5 -49.5s5.83301 -34.167 7.5 -49.5s3.33398 -28 5.00098 -38s4.83398 -15 9.50098 -15c6 0 10 5.33301 12 16s4.5 22.167 7.5 34.5s8.16699 23.833 15.5 34.5s20 16 38 16z" />
    <glyph glyph-name="x" unicode="x" horiz-adv-x="461" 
d="M126 439c20.667 0 39.332 -4.66699 55.999 -14s32.667 -25.333 48 -48c15.333 22.667 31.333 38.667 48 48s35.334 14 56.001 14c23.333 0 43.333 -8.16699 60 -24.5s25 -36.5 25 -60.5c0 -19.333 -4.5 -35.5 -13.5 -48.5s-20.167 -22.167 -33.5 -27.5
c-8.66699 -4 -17.5 -6.5 -26.5 -7.5s-17.167 -3 -24.5 -6s-13.333 -7.83301 -18 -14.5s-7 -17 -7 -31c0 -12.667 3.5 -22 10.5 -28s15.167 -10.167 24.5 -12.5s19 -4.16602 29 -5.49902s18 -3.66602 24 -6.99902c10.667 -6 21 -15.833 31 -29.5s15 -31.167 15 -52.5
c0 -12.667 -2.33301 -24.667 -7 -36s-11 -21.166 -19 -29.499s-17.667 -15 -29 -20s-23.666 -7.5 -36.999 -7.5c-12 0 -23 2 -33 6s-19.333 9.33301 -28 16s-16.834 14.167 -24.501 22.5l-22.5 25.5l-22.5 -25.5c-7.66699 -8.33301 -15.834 -15.833 -24.501 -22.5
s-18 -12 -28 -16s-21 -6 -33 -6c-13.333 0 -25.666 2.5 -36.999 7.5s-21 11.667 -29 20s-14.333 18.166 -19 29.499s-7 23.333 -7 36c0 21.333 5 38.833 15 52.5s20.333 23.5 31 29.5c6 3.33301 14 5.66602 24 6.99902s19.667 3.16602 29 5.49902s17.5 6.5 24.5 12.5
s10.5 15.333 10.5 28c0 14 -2.33301 24.333 -7 31s-10.667 11.5 -18 14.5s-15.5 5 -24.5 6s-17.833 3.5 -26.5 7.5c-13.333 5.33301 -24.5 14.5 -33.5 27.5s-13.5 29.167 -13.5 48.5c0 24 8.33301 44.167 25 60.5s36.667 24.5 60 24.5z" />
    <glyph glyph-name="y" unicode="y" horiz-adv-x="486" 
d="M251 204l25.998 108c3.33301 14.667 8 29.5 14 44.5s13.5 28.667 22.5 41s19.333 22.333 31 30s25.167 11.5 40.5 11.5c23.333 0 42.5 -7 57.5 -21s22.5 -33.333 22.5 -58c0 -18.667 -2.66699 -32 -8 -40s-12 -16.167 -20 -24.5s-16.833 -19.166 -26.5 -32.499
s-19.167 -34.666 -28.5 -63.999c-11.333 -36 -19.666 -66.833 -24.999 -92.5s-9.5 -48.5 -12.5 -68.5s-6 -38.333 -9 -55s-7.83301 -34.334 -14.5 -53.001c-14 -38.667 -35.5 -69 -64.5 -91s-61.833 -33 -98.5 -33c-14 0 -28.333 1.66699 -43 5
s-28.167 9.16602 -40.5 17.499s-22.5 19.5 -30.5 33.5s-12 31.667 -12 53c0 16.667 4.66699 31.5 14 44.5s25 19.5 47 19.5c8.66699 0 16.167 -1.16699 22.5 -3.5s12.5 -5 18.5 -8s12.167 -5.66699 18.5 -8s14.5 -3.5 24.5 -3.5c15.333 0 27.166 5.33301 35.499 16
s12.5 21 12.5 31c0 8.66699 -2.83301 16.5 -8.5 23.5s-12.334 13.667 -20.001 20l-24 20.5c-8.33301 7.33301 -15.166 16 -20.499 26c-4 6.66699 -6.83301 13.5 -8.5 20.5s-3.5 15.167 -5.5 24.5s-4.66699 20.5 -8 33.5s-8.33301 29.167 -15 48.5
c-5.33301 15.333 -13.166 28 -23.499 38s-20.666 19.5 -30.999 28.5s-19.333 18.667 -27 29s-11.5 23.5 -11.5 39.5c0 26 7.83301 46.5 23.5 61.5s34.167 22.5 55.5 22.5c18 0 34.167 -4 48.5 -12s27 -18.833 38 -32.5s20.167 -29.167 27.5 -46.5s13 -35 17 -53z" />
    <glyph glyph-name="z" unicode="z" horiz-adv-x="448" 
d="M302 165l34.998 0.00292969c12 0 23 -2.33301 33 -7s18.667 -10.667 26 -18s13.166 -16 17.499 -26s6.5 -20.333 6.5 -31c0 -17.333 -3.16699 -32 -9.5 -44s-14.5 -21.5 -24.5 -28.5s-21.333 -12 -34 -15s-25.667 -4.5 -39 -4.5s-25.833 2 -37.5 6
s-23.167 8.5 -34.5 13.5s-22.666 9.66699 -33.999 14s-23.333 6.5 -36 6.5c-8.66699 0 -16.334 -2.16699 -23.001 -6.5s-13.167 -9 -19.5 -14s-13 -9.5 -20 -13.5s-14.833 -6 -23.5 -6c-16.667 0 -30.334 5 -41.001 15s-16 23.667 -16 41c0 29.333 8.5 55.666 25.5 78.999
s35.833 44 56.5 62s39.5 33.333 56.5 46s25.5 23.334 25.5 32.001c0 4 -2.16699 6.66699 -6.5 8s-8.83301 2 -13.5 2c-1.33301 0 -4.66602 -0.833008 -9.99902 -2.5s-9.66602 -2.5 -12.999 -2.5c-13.333 0 -26 2 -38 6s-22.667 9.66699 -32 17s-16.833 16.166 -22.5 26.499
s-8.5 22.166 -8.5 35.499c0 10 2.16699 20 6.5 30s10.5 19 18.5 27s17.5 14.333 28.5 19s23.167 7 36.5 7c16 0 30.5 -1.5 43.5 -4.5s25.167 -6.33301 36.5 -10l31.5 -10c9.66699 -3 19.167 -4.5 28.5 -4.5c8.66699 0 16.834 1.5 24.501 4.5s15.334 6.33301 23.001 10
s15.334 7 23.001 10s16.167 4.5 25.5 4.5c12 0 22 -4.5 30 -13.5s12 -18.5 12 -28.5c0 -16 -3.66699 -31.833 -11 -47.5s-16.333 -30.834 -27 -45.501s-22.334 -28.5 -35.001 -41.5l-35 -36c-10.667 -11 -19.667 -21 -27 -30s-11 -16.5 -11 -22.5s3 -9 9 -9h23z" />
    <glyph glyph-name="guillemotleft" unicode="&#xab;" horiz-adv-x="602" 
d="M188 369c15.333 15.333 31 23.002 47 23.002c8.66699 0 17 -2 25 -6s15 -9 21 -15s10.833 -13 14.5 -21s5.5 -16 5.5 -24c0 -11.333 -1.83301 -20.333 -5.5 -27s-9.16699 -13.667 -16.5 -21l-58 -58l58 -58c7.33301 -7.33301 12.833 -14.333 16.5 -21
s5.5 -15.667 5.5 -27c0 -8 -1.83301 -16 -5.5 -24s-8.5 -15 -14.5 -21s-13 -11 -21 -15s-16.333 -6 -25 -6c-16 0 -31.667 7.66699 -47 23l-101 101c-6 6 -11.333 13.167 -16 21.5s-7 17.166 -7 26.499s2.33301 18.166 7 26.499s10 15.5 16 21.5zM425 369.002
c15.333 15.333 31 23.002 47 23.002c8.66699 0 17 -2 25 -6s15 -9 21 -15s10.833 -13 14.5 -21s5.5 -16 5.5 -24c0 -11.333 -1.83301 -20.333 -5.5 -27s-9.16699 -13.667 -16.5 -21l-58 -58l58 -58c7.33301 -7.33301 12.833 -14.333 16.5 -21s5.5 -15.667 5.5 -27
c0 -8 -1.83301 -16 -5.5 -24s-8.5 -15 -14.5 -21s-13 -11 -21 -15s-16.333 -6 -25 -6c-16 0 -31.667 7.66699 -47 23l-101 101c-6 6 -11.333 13.167 -16 21.5s-7 17.166 -7 26.499s2.33301 18.166 7 26.499s10 15.5 16 21.5z" />
    <glyph glyph-name="guillemotright" unicode="&#xbb;" horiz-adv-x="602" 
d="M515 268c6 -6 11.333 -13.1689 16 -21.502s7 -17.166 7 -26.499s-2.33301 -18.166 -7 -26.499s-10 -15.5 -16 -21.5l-101 -101c-15.333 -15.333 -31 -23 -47 -23c-8.66699 0 -17 2 -25 6s-15 9 -21 15s-10.833 13 -14.5 21s-5.5 16 -5.5 24
c0 11.333 1.83301 20.333 5.5 27s9.16699 13.667 16.5 21l58 58l-58 58c-7.33301 7.33301 -12.833 14.333 -16.5 21s-5.5 15.667 -5.5 27c0 8 1.83301 16 5.5 24s8.5 15 14.5 21s13 11 21 15s16.333 6 25 6c16 0 31.667 -7.66699 47 -23zM278 267.998
c6 -6 11.333 -13.1689 16 -21.502s7 -17.166 7 -26.499s-2.33301 -18.166 -7 -26.499s-10 -15.5 -16 -21.5l-101 -101c-15.333 -15.333 -31 -23 -47 -23c-8.66699 0 -17 2 -25 6s-15 9 -21 15s-10.833 13 -14.5 21s-5.5 16 -5.5 24c0 11.333 1.83301 20.333 5.5 27
s9.16699 13.667 16.5 21l58 58l-58 58c-7.33301 7.33301 -12.833 14.333 -16.5 21s-5.5 15.667 -5.5 27c0 8 1.83301 16 5.5 24s8.5 15 14.5 21s13 11 21 15s16.333 6 25 6c16 0 31.667 -7.66699 47 -23z" />
    <glyph glyph-name="afii10023" unicode="&#x401;" horiz-adv-x="486" 
d="M154 794c12 0 23.167 -2.33301 33.5 -7s19.333 -10.834 27 -18.501s13.834 -16.667 18.501 -27s7 -21.5 7 -33.5s-2.33301 -23.167 -7 -33.5s-10.834 -19.333 -18.501 -27s-16.667 -13.834 -27 -18.501s-21.5 -7 -33.5 -7s-23.167 2.33301 -33.5 7
s-19.333 10.834 -27 18.501s-13.834 16.667 -18.501 27s-7 21.5 -7 33.5s2.33301 23.167 7 33.5s10.834 19.333 18.501 27s16.667 13.834 27 18.501s21.5 7 33.5 7zM344 794c12 0 23.167 -2.33301 33.5 -7s19.333 -10.834 27 -18.501s13.834 -16.667 18.501 -27
s7 -21.5 7 -33.5s-2.33301 -23.167 -7 -33.5s-10.834 -19.333 -18.501 -27s-16.667 -13.834 -27 -18.501s-21.5 -7 -33.5 -7s-23.167 2.33301 -33.5 7s-19.333 10.834 -27 18.501s-13.834 16.667 -18.501 27s-7 21.5 -7 33.5s2.33301 23.167 7 33.5s10.834 19.333 18.501 27
s16.667 13.834 27 18.501s21.5 7 33.5 7zM262 608c16.667 0 35.499 -2.00195 56.499 -6.00195s40.5 -11 58.5 -21s33.167 -23.333 45.5 -40s18.5 -37.334 18.5 -62.001c0 -12 -2.16699 -22.667 -6.5 -32s-9.83301 -17 -16.5 -23s-14 -10.5 -22 -13.5s-15.333 -4.5 -22 -4.5
c-16 0 -28.667 1.33301 -38 4s-17.5 5.66699 -24.5 9l-19.5 9c-6 2.66699 -13 4 -21 4c-13.333 0 -22.833 -3.16699 -28.5 -9.5s-8.5 -14.166 -8.5 -23.499c0 -10 3.33301 -17.333 10 -22s15 -8.33398 25 -11.001s20.667 -4.83398 32 -6.50098s22 -4.16699 32 -7.5
s18 -8.16602 24 -14.499s9 -17.5 9 -33.5c0 -12 -1.83301 -21.667 -5.5 -29s-8.5 -13 -14.5 -17s-13.333 -6.5 -22 -7.5s-18 -1.5 -28 -1.5c-25.333 0 -44.666 -3.16699 -57.999 -9.5s-20 -15.166 -20 -26.499c0 -15.333 5.33301 -27 16 -35s22.334 -12 35.001 -12
c5.33301 0 10.666 1.5 15.999 4.5s11.333 6.16699 18 9.5s14.334 6.5 23.001 9.5s19 4.5 31 4.5c24 0 44.667 -7.16699 62 -21.5s26 -34.166 26 -59.499c0 -22 -6.33301 -40.667 -19 -56s-28.334 -28 -47.001 -38s-38.834 -17.333 -60.501 -22s-41.167 -7 -58.5 -7
c-27.333 0 -54 3.66699 -80 11s-49.167 18.666 -69.5 33.999s-36.833 34.333 -49.5 57s-19 49.667 -19 81c0 30.667 5.5 55.834 16.5 75.501s22.167 34.5 33.5 44.5c7.33301 6.66699 15.333 11.167 24 13.5s13 5.83301 13 10.5s-3.16699 9.83398 -9.5 15.501
s-13.333 13 -21 22s-14.667 20.333 -21 34s-9.5 31.167 -9.5 52.5c0 27.333 5.16699 51.333 15.5 72s24.333 38 42 52s38.334 24.667 62.001 32s48.5 11 74.5 11z" />
    <glyph glyph-name="afii10017" unicode="&#x410;" horiz-adv-x="614" 
d="M179 350c8.66699 0 14.999 4.32812 18.999 12.9951s7.83301 19.834 11.5 33.501s8.33398 29 14.001 46s14.5 33.833 26.5 50.5c18 24.667 41.333 45.834 70 63.501s64 26.5 106 26.5c13.333 0 27.666 -2.33301 42.999 -7s29.5 -11.5 42.5 -20.5s23.833 -20 32.5 -33
s13 -27.833 13 -44.5c0 -19.333 -3.16699 -34.5 -9.5 -45.5s-13.5 -19.667 -21.5 -26s-15.167 -11 -21.5 -14s-9.5 -5.83301 -9.5 -8.5s1.66699 -5.16699 5 -7.5s7 -5.16602 11 -8.49902s7.66699 -8 11 -14s5 -14 5 -24v-114c0 -13.333 2.33301 -24.5 7 -33.5s10 -18 16 -27
s11.333 -19 16 -30s7 -24.833 7 -41.5c0 -12.667 -2.66699 -24.667 -8 -36s-12.5 -21.333 -21.5 -30s-19.333 -15.5 -31 -20.5s-23.5 -7.5 -35.5 -7.5c-21.333 0 -38.333 4.33301 -51 13s-22.5 19.5 -29.5 32.5s-12.167 27 -15.5 42l-9 42c-2.66699 13 -6 23.833 -10 32.5
s-10 13 -18 13c-13.333 0 -20 -6.33301 -20 -19v-61c0 -18.667 -2.16699 -42.167 -6.5 -70.5s-12.833 -55.666 -25.5 -81.999s-30.667 -49 -54 -68s-53.666 -28.5 -90.999 -28.5c-13.333 0 -26.333 2.33301 -39 7s-24 11.167 -34 19.5s-18 18.5 -24 30.5s-9 25 -9 39
c0 18 3.66699 32.333 11 43s16.333 20 27 28s22.167 15.5 34.5 22.5s23.5 16.167 33.5 27.5c6 6 11 15 15 27s7.5 24.833 10.5 38.5s5.16699 27.334 6.5 41.001s2 25.834 2 36.501c0 10 -3.66699 15 -11 15c-6.66699 0 -15 -2.83301 -25 -8.5s-20.667 -8.5 -32 -8.5
c-16.667 0 -31.167 6.5 -43.5 19.5s-18.5 29.167 -18.5 48.5c0 15.333 2.83301 28.5 8.5 39.5s13.167 20.167 22.5 27.5s20 12.666 32 15.999s24.333 5 37 5h28zM376.999 305.995c0 18.667 2.66602 31.835 7.99902 39.502s11.333 13.167 18 16.5s12.667 6.16602 18 8.49902
s8 7.5 8 15.5c0 5.33301 -3 9.66602 -9 12.999s-13 5 -21 5c-11.333 0 -21.166 -3.66699 -29.499 -11s-15.166 -16.333 -20.499 -27s-9.33301 -22 -12 -34s-4 -22.667 -4 -32c0 -21.333 8.66699 -32 26 -32c5.33301 0 9.66602 2 12.999 6s5 9 5 15v17z" />
    <glyph glyph-name="afii10018" unicode="&#x411;" horiz-adv-x="563" 
d="M44 504c0 16.667 3.49805 30.8271 10.498 42.4941s16.167 21.167 27.5 28.5s24 12.833 38 16.5s28.333 5.5 43 5.5c22.667 0 42 -1.5 58 -4.5s33.333 -4.5 52 -4.5c12 0 24.167 1.33301 36.5 4s24.166 5.83398 35.499 9.50098s22.5 6.83398 33.5 9.50098s21.167 4 30.5 4
c33.333 0 57.333 -10.333 72 -31s22 -45.667 22 -75c0 -13.333 -3.16699 -25.5 -9.5 -36.5s-14.166 -20.667 -23.499 -29s-19.5 -14.833 -30.5 -19.5s-21.167 -7 -30.5 -7c-14.667 0 -33.5 2.5 -56.5 7.5s-51.5 7.5 -85.5 7.5c-21.333 0 -34.666 -0.833008 -39.999 -2.5
s-8 -4.16699 -8 -7.5c0 -6.66699 3.5 -10.667 10.5 -12s12.5 -3.33301 16.5 -6c13.333 -8 20 -22.667 20 -44c0 -5.33301 -0.5 -11.666 -1.5 -18.999s-1.5 -12.666 -1.5 -15.999c0 -6.66699 0.666992 -12.667 2 -18s5 -8 11 -8c5.33301 0 10.333 1.5 15 4.5s11 6.5 19 10.5
c13.333 6.66699 26.666 10 39.999 10c30 0 55.667 -6 77 -18s38.833 -28.167 52.5 -48.5s23.5 -43.5 29.5 -69.5s9 -53 9 -81c0 -42.667 -8.16699 -80 -24.5 -112s-37.833 -58.667 -64.5 -80s-56.834 -37.333 -90.501 -48s-67.834 -16 -102.501 -16
c-20 0 -40.333 2.33301 -61 7s-39.5 11.834 -56.5 21.501s-31 22 -42 37s-16.5 32.833 -16.5 53.5c0 16 4.83301 30.667 14.5 44s20.834 23.666 33.501 30.999c7.33301 4.66699 14.833 7.33398 22.5 8.00098s11.5 2.33398 11.5 5.00098c0 2 -2.16699 3.66699 -6.5 5
s-10.166 5.33301 -17.499 12c-8 7.33301 -14.833 17 -20.5 29s-8.5 24 -8.5 36c0 14 1.83301 25.667 5.5 35s7.5 17.5 11.5 24.5l11.5 20.5c3.66699 6.66699 5.5 14.667 5.5 24c0 6.66699 -1 15.334 -3 26.001s-3 20.667 -3 30c0 17.333 2 34 6 50s9.66699 28 17 36
c8.66699 9.33301 16.834 15.5 24.501 18.5s11.5 7.5 11.5 13.5c0 2 -2 3 -6 3s-10 -0.666992 -18 -2s-15.667 -2 -23 -2c-9.33301 0 -19 2.16699 -29 6.5s-19.167 10.166 -27.5 17.499s-15.166 16.333 -20.499 27s-8 22.667 -8 36zM302.998 193.993
c-6 0 -11.6689 -1.99805 -17.002 -5.99805s-8 -9.33301 -8 -16c0 -6 1.16699 -10.833 3.5 -14.5s3.5 -10.834 3.5 -21.501c0 -13.333 -3.83301 -26 -11.5 -38s-17.167 -20.667 -28.5 -26c-6 -3.33301 -12.333 -5.5 -19 -6.5s-12.5 -2 -17.5 -3s-9.16699 -2.66699 -12.5 -5
s-5 -5.83301 -5 -10.5c0 -7.33301 5 -12.5 15 -15.5s20.667 -4.5 32 -4.5c18.667 0 35 3.16699 49 9.5s25.833 14.666 35.5 24.999s16.834 22 21.501 35s7 25.833 7 38.5c0 15.333 -4.16699 29 -12.5 41s-20.166 18 -35.499 18z" />
    <glyph glyph-name="afii10019" unicode="&#x412;" horiz-adv-x="538" 
d="M241 617c34 0 65.833 -5.66211 95.5 -16.9951s55.667 -27 78 -47s40 -43.5 53 -70.5s19.5 -55.833 19.5 -86.5c0 -11.333 -1.83301 -24.833 -5.5 -40.5s-11.167 -32.834 -22.5 -51.501c-8 -12.667 -15 -22.5 -21 -29.5s-11.167 -12.333 -15.5 -16
s-7.5 -6.16699 -9.5 -7.5s-3 -3 -3 -5c0 -3.33301 4.5 -7.5 13.5 -12.5s19 -13.333 30 -25s21.167 -27.5 30.5 -47.5s14 -46.333 14 -79c0 -38.667 -6.66699 -72.667 -20 -102s-31.666 -54 -54.999 -74s-50.5 -35 -81.5 -45s-63.833 -15 -98.5 -15
c-26.667 0 -52.167 2.83301 -76.5 8.5s-45.833 14.167 -64.5 25.5s-33.5 25.5 -44.5 42.5s-16.5 36.833 -16.5 59.5c0 18.667 4.66699 33 14 43s19.666 17.167 30.999 21.5s21.666 7.33301 30.999 9s14 3.5 14 5.5c0 3.33301 -3 6.66602 -9 9.99902
s-12.833 8.33301 -20.5 15s-14.5 15.167 -20.5 25.5s-9 24.166 -9 41.499c0 13.333 3 24 9 32s12.833 15.5 20.5 22.5s14.5 14.667 20.5 23s9 19.5 9 33.5c0 15.333 -2.33301 29.166 -7 41.499s-7 23.833 -7 34.5c0 11.333 2.5 21 7.5 29s10.333 14.833 16 20.5
s11 10.334 16 14.001s7.5 6.5 7.5 8.5c0 5.33301 -4.66699 8.16602 -14 8.49902s-20.666 3.16602 -33.999 8.49902c-8.66699 3.33301 -17.167 10.166 -25.5 20.499s-12.5 24.166 -12.5 41.499c0 20.667 4.33301 38.834 13 54.501s20.5 28.834 35.5 39.501
s32.333 18.667 52 24s40.5 8 62.5 8zM249 430.005c-8 0 -17.499 -2.16797 -28.499 -6.50098s-16.5 -9.16602 -16.5 -14.499c0 -3.33301 2.16699 -5.83301 6.5 -7.5s9.5 -3.5 15.5 -5.5s12.167 -4.5 18.5 -7.5s11.5 -6.83301 15.5 -11.5
c7.33301 -8.66699 12.166 -18.167 14.499 -28.5s3.5 -20.5 3.5 -30.5c0 -4 0.5 -7.33301 1.5 -10s3.83301 -4 8.5 -4c10 0 19 5.5 27 16.5s12 25.167 12 42.5c0 19.333 -7.5 35.333 -22.5 48s-33.5 19 -55.5 19zM291.001 182.004c-5.33301 0 -9.5 -2.83301 -12.5 -8.5
s-5.83301 -12.834 -8.5 -21.501l-9 -29.5c-3.33301 -11 -8 -21.833 -14 -32.5c-4.66699 -8 -10.334 -13.833 -17.001 -17.5s-13.167 -6.5 -19.5 -8.5s-11.666 -4.16699 -15.999 -6.5s-6.5 -6.16602 -6.5 -11.499c0 -7.33301 6 -12.833 18 -16.5s24.667 -5.5 38 -5.5
c8.66699 0 18 1.83301 28 5.5s19.5 9.16699 28.5 16.5s16.5 16.5 22.5 27.5s9 23.833 9 38.5c0 18 -3.5 34.167 -10.5 48.5s-17.167 21.5 -30.5 21.5z" />
    <glyph glyph-name="afii10020" unicode="&#x413;" horiz-adv-x="461" 
d="M192 328c0 25.333 4.83398 45.9941 14.501 61.9941s22.167 28.667 37.5 38c-8 0 -14.833 -1.16699 -20.5 -3.5s-10.834 -5.16602 -15.501 -8.49902s-9.5 -7.16602 -14.5 -11.499s-10.833 -8.83301 -17.5 -13.5c-5.33301 -3.33301 -12 -6.66602 -20 -9.99902
s-17.667 -5 -29 -5c-16 0 -30.5 3.66699 -43.5 11s-23.167 16.333 -30.5 27c-6 8.66699 -9.83301 18 -11.5 28s-2.5 21 -2.5 33c0 20 3.83301 37.667 11.5 53s18 28 31 38s27.833 17.667 44.5 23s34 8 52 8c10.667 0 21 -1.5 31 -4.5s19.833 -6.33301 29.5 -10
s19.5 -7 29.5 -10s20 -4.5 30 -4.5c15.333 0 29.5 2.33301 42.5 7s26.5 7 40.5 7c22 0 38.833 -7 50.5 -21s17.5 -29.667 17.5 -47c0 -34 -12 -56.833 -36 -68.5s-56.667 -17.5 -98 -17.5c19.333 -13.333 29 -32 29 -56c0 -10.667 -0.666992 -21 -2 -31s-2 -18.667 -2 -26
v-45c0 -10.667 0.666992 -24 2 -40s2 -31.333 2 -46c0 -27.333 -3.66699 -52.666 -11 -75.999s-18.333 -43.833 -33 -61.5s-33.167 -31.5 -55.5 -41.5s-48.5 -15 -78.5 -15c-15.333 0 -29.5 2.5 -42.5 7.5s-24.5 11.833 -34.5 20.5s-17.833 18.834 -23.5 30.501
s-8.5 24.167 -8.5 37.5c0 14.667 1.83301 27.167 5.5 37.5s8.5 18.833 14.5 25.5s12.667 12 20 16s14.333 7 21 9c9.33301 3.33301 18.5 5.5 27.5 6.5s17 3.33301 24 7s12.5 9.83398 16.5 18.501s6 22.667 6 42v80z" />
    <glyph glyph-name="afii10021" unicode="&#x414;" horiz-adv-x="589" 
d="M224 660c47.333 0 90.3359 -10.0029 129.003 -30.0029s71.834 -47 99.501 -81s49 -73.833 64 -119.5s22.5 -94.167 22.5 -145.5c0 -43.333 -5.33301 -88 -16 -134s-28 -87.833 -52 -125.5s-55.5 -68.667 -94.5 -93s-86.5 -36.5 -142.5 -36.5
c-32 0 -59.5 3.66699 -82.5 11s-42 16.833 -57 28.5s-26.167 24.834 -33.5 39.501s-11 29.334 -11 44.001c0 24 7.5 44.167 22.5 60.5s32.5 24.5 52.5 24.5c6.66699 0 14 -0.666992 22 -2s13.333 -2 16 -2s4 0.666992 4 2c0 2 -3.16699 4.83301 -9.5 8.5
s-13.333 8.83398 -21 15.501s-14.667 15.167 -21 25.5s-9.5 22.833 -9.5 37.5c0 16 1.83301 28.333 5.5 37s7.66699 16.334 12 23.001l12 18.5c3.66699 5.66699 5.5 13.5 5.5 23.5c0 6.66699 -1.16699 16.834 -3.5 30.501s-3.5 24.5 -3.5 32.5
c0 15.333 2.16699 28.666 6.5 39.999s10.166 21.166 17.499 29.499s16.166 16 26.499 23s21.166 13.5 32.499 19.5c-12.667 0 -23.334 -1 -32.001 -3s-18.667 -3 -30 -3c-30 0 -52.333 9.16699 -67 27.5s-22 39.5 -22 63.5c0 30.667 13.833 56.667 41.5 78s66.5 32 116.5 32
zM271.003 464.997c-1.33301 0 -3.00098 -0.166992 -5.00098 -0.5s-3 -0.833008 -3 -1.5c0 -2 2.33301 -4.33301 7 -7s9.83398 -6.5 15.501 -11.5s10.834 -10.833 15.501 -17.5s7 -15 7 -25c0 -13.333 -3.5 -27.333 -10.5 -42s-10.5 -28.334 -10.5 -41.001
c0 -9.33301 1.16699 -17.666 3.5 -24.999l7 -22.5c2.33301 -7.66699 4.66602 -16.5 6.99902 -26.5s3.5 -22.667 3.5 -38c0 -18 -4 -34.167 -12 -48.5s-17 -26.166 -27 -35.499c-6.66699 -6 -14 -10.5 -22 -13.5s-15.333 -5.16699 -22 -6.5s-12.334 -2.33301 -17.001 -3
s-7 -2.33398 -7 -5.00098c0 -2 4.5 -5 13.5 -9s22.167 -6 39.5 -6c20 0 37.5 5.83301 52.5 17.5s27.667 26.667 38 45s18 39.166 23 62.499s7.5 47 7.5 71c0 26.667 -2 51.667 -6 75s-10.167 43.333 -18.5 60s-19.166 29.834 -32.499 39.501s-29 14.5 -47 14.5z" />
    <glyph glyph-name="afii10022" unicode="&#x415;" horiz-adv-x="499" 
d="M268 608c16.667 0 35.499 -2.00195 56.499 -6.00195s40.5 -11 58.5 -21s33.167 -23.333 45.5 -40s18.5 -37.334 18.5 -62.001c0 -12 -2.16699 -22.667 -6.5 -32s-9.83301 -17 -16.5 -23s-14 -10.5 -22 -13.5s-15.333 -4.5 -22 -4.5c-16 0 -28.667 1.33301 -38 4
s-17.5 5.66699 -24.5 9l-19.5 9c-6 2.66699 -13 4 -21 4c-13.333 0 -22.833 -3.16699 -28.5 -9.5s-8.5 -14.166 -8.5 -23.499c0 -10 3.33301 -17.333 10 -22s15 -8.33398 25 -11.001s20.667 -4.83398 32 -6.50098s22 -4.16699 32 -7.5s18 -8.16602 24 -14.499
s9 -17.5 9 -33.5c0 -12 -1.83301 -21.667 -5.5 -29s-8.5 -13 -14.5 -17s-13.333 -6.5 -22 -7.5s-18 -1.5 -28 -1.5c-25.333 0 -44.666 -3.16699 -57.999 -9.5s-20 -15.166 -20 -26.499c0 -15.333 5.33301 -27 16 -35s22.334 -12 35.001 -12c5.33301 0 10.666 1.5 15.999 4.5
s11.333 6.16699 18 9.5s14.334 6.5 23.001 9.5s19 4.5 31 4.5c24 0 44.667 -7.16699 62 -21.5s26 -34.166 26 -59.499c0 -22 -6.33301 -40.667 -19 -56s-28.334 -28 -47.001 -38s-38.834 -17.333 -60.501 -22s-41.167 -7 -58.5 -7c-27.333 0 -54 3.66699 -80 11
s-49.167 18.666 -69.5 33.999s-36.833 34.333 -49.5 57s-19 49.667 -19 81c0 30.667 5.5 55.834 16.5 75.501s22.167 34.5 33.5 44.5c7.33301 6.66699 15.333 11.167 24 13.5s13 5.83301 13 10.5s-3.16699 9.83398 -9.5 15.501s-13.333 13 -21 22s-14.667 20.333 -21 34
s-9.5 31.167 -9.5 52.5c0 27.333 5.16699 51.333 15.5 72s24.333 38 42 52s38.334 24.667 62.001 32s48.5 11 74.5 11z" />
    <glyph glyph-name="afii10024" unicode="&#x416;" horiz-adv-x="883" 
d="M216 594c28.667 0 50.998 -5.99805 66.998 -17.998s28.167 -27.167 36.5 -45.5s14 -38 17 -59l8.5 -59c2.66699 -18.333 6.33398 -33.5 11.001 -45.5s13 -18 25 -18h19v36c0 6 -2.16699 12.5 -6.5 19.5l-15 23.5c-5.66699 8.66699 -10.667 18.5 -15 29.5
s-6.5 23.833 -6.5 38.5c0 14 2.83301 27.167 8.5 39.5s13.334 23.333 23.001 33s21 17.334 34 23.001s26.833 8.5 41.5 8.5s28.5 -2.83301 41.5 -8.5s24.333 -13.334 34 -23.001s17.334 -20.667 23.001 -33s8.5 -25.5 8.5 -39.5c0 -14.667 -2.16699 -27.5 -6.5 -38.5
s-9.33301 -20.833 -15 -29.5l-15 -23.5c-4.33301 -7 -6.5 -13.5 -6.5 -19.5v-36h19c11.333 0 19.5 6 24.5 18s8.83301 27.167 11.5 45.5l8.5 59c3 21 8.66699 40.667 17 59s20.5 33.5 36.5 45.5s38.333 18 67 18c36.667 0 65.334 -9.83301 86.001 -29.5s31 -43.167 31 -70.5
c0 -17.333 -3 -31.333 -9 -42s-11 -17.667 -15 -21c-9.33301 -8 -19.5 -13 -30.5 -15s-19.167 -5.66699 -24.5 -11c-3.33301 -3.33301 -6.66602 -8.33301 -9.99902 -15l-10.5 -22c-3.66699 -8 -7.5 -15.833 -11.5 -23.5s-7.66699 -13.834 -11 -18.501
c-5.33301 -7.33301 -10.5 -12.833 -15.5 -16.5s-9.5 -6.66699 -13.5 -9s-7.16699 -4.33301 -9.5 -6s-3.5 -3.5 -3.5 -5.5s2.16699 -3.66699 6.5 -5s9.66602 -2.83301 15.999 -4.5s13 -3.66699 20 -6s12.833 -5.83301 17.5 -10.5c7.33301 -6.66699 13 -16 17 -28
s11 -23.667 21 -35c4.66699 -5.33301 11.334 -10.666 20.001 -15.999s17.167 -12 25.5 -20s15.5 -17.833 21.5 -29.5s9 -25.834 9 -42.501c0 -14.667 -3 -28.334 -9 -41.001s-14 -23.5 -24 -32.5s-21.667 -16 -35 -21s-27 -7.5 -41 -7.5c-17.333 0 -32.333 2.5 -45 7.5
s-23.5 11.833 -32.5 20.5s-16.167 18.667 -21.5 30s-9.66602 23.333 -12.999 36c-4 15.333 -6.83301 30.833 -8.5 46.5s-4.83398 30.167 -9.50098 43.5s-12.334 25.5 -23.001 36.5s-27 19.5 -49 25.5v-31c0 -6 2.16699 -12.5 6.5 -19.5l15 -23.5
c5.66699 -8.66699 10.667 -18.5 15 -29.5s6.5 -23.833 6.5 -38.5c0 -14 -2.83301 -27.167 -8.5 -39.5s-13.334 -23.333 -23.001 -33s-21 -17.334 -34 -23.001s-26.833 -8.5 -41.5 -8.5s-28.5 2.83301 -41.5 8.5s-24.333 13.334 -34 23.001s-17.334 20.667 -23.001 33
s-8.5 25.5 -8.5 39.5c0 14.667 2.16699 27.5 6.5 38.5s9.33301 20.833 15 29.5l15 23.5c4.33301 7 6.5 13.5 6.5 19.5v31c-20 -3.33301 -36 -11.5 -48 -24.5s-21.333 -28.333 -28 -46s-11.167 -36.667 -13.5 -57s-3.5 -39.5 -3.5 -57.5c0 -28.667 -4.5 -55.167 -13.5 -79.5
s-21.167 -45.333 -36.5 -63s-32.833 -31.5 -52.5 -41.5s-40.167 -15 -61.5 -15c-16.667 0 -31.167 3 -43.5 9s-22.666 13.833 -30.999 23.5s-14.666 20.834 -18.999 33.501s-6.5 25.667 -6.5 39c0 18 3.33301 32.667 10 44s15 21.5 25 30.5s20.667 17.667 32 26
s21.666 18.5 30.999 30.5c8.66699 11.333 14.834 25.666 18.501 42.999s7.16699 35 10.5 53s7.66602 34.667 12.999 50s14 26.666 26 33.999c4 2 9 4 15 6s11.833 3.66699 17.5 5s10.667 2.83301 15 4.5s6.5 3.5 6.5 5.5s-1.16699 3.83301 -3.5 5.5s-5.5 3.66699 -9.5 6
s-8.5 5.33301 -13.5 9s-10.167 9.16699 -15.5 16.5c-3.33301 4.66699 -7 10.834 -11 18.501s-7.83301 15.5 -11.5 23.5s-7.33398 15.333 -11.001 22s-6.83398 11.667 -9.50098 15c-5.33301 5.33301 -13.5 9 -24.5 11s-21.167 7 -30.5 15c-4 3.33301 -9 10.333 -15 21
s-9 24.667 -9 42c0 27.333 10.333 50.833 31 70.5s49.334 29.5 86.001 29.5z" />
    <glyph glyph-name="afii10025" unicode="&#x417;" horiz-adv-x="486" 
d="M225 608c26 0 50.8311 -3.66504 74.498 -10.998s44.334 -18 62.001 -32s31.667 -31.333 42 -52s15.5 -44.667 15.5 -72c0 -21.333 -3.16699 -38.833 -9.5 -52.5s-13.333 -25 -21 -34s-14.667 -16.333 -21 -22s-9.5 -10.834 -9.5 -15.501s4.33301 -8.16699 13 -10.5
s16.667 -6.83301 24 -13.5c11.333 -10 22.5 -24.833 33.5 -44.5s16.5 -44.834 16.5 -75.501c0 -31.333 -6.33301 -58.333 -19 -81s-29.167 -41.667 -49.5 -57s-43.666 -26.666 -69.999 -33.999s-52.833 -11 -79.5 -11c-17.333 0 -36.833 2.33301 -58.5 7
s-41.834 12 -60.501 22s-34.334 22.667 -47.001 38s-19 34 -19 56c0 25.333 8.66699 45.166 26 59.499s38 21.5 62 21.5c12 0 22.333 -1.5 31 -4.5s16.334 -6.16699 23.001 -9.5s12.667 -6.5 18 -9.5s10.666 -4.5 15.999 -4.5c12.667 0 24.334 4 35.001 12s16 19.667 16 35
c0 11.333 -6.66699 20.166 -20 26.499s-32.666 9.5 -57.999 9.5c-10 0 -19.333 0.5 -28 1.5s-16 3.5 -22 7.5s-10.833 9.66699 -14.5 17s-5.5 17 -5.5 29c0 16 3 27.167 9 33.5s14 11.166 24 14.499s20.667 5.83301 32 7.5s22 3.83398 32 6.50098s18.333 6.33398 25 11.001
s10 12 10 22c0 9.33301 -2.83301 17.166 -8.5 23.499s-15.167 9.5 -28.5 9.5c-8 0 -15 -1.33301 -21 -4l-19.5 -9c-7 -3.33301 -15.167 -6.33301 -24.5 -9s-22 -4 -38 -4c-6.66699 0 -14 1.5 -22 4.5s-15.333 7.5 -22 13.5s-12.167 13.667 -16.5 23s-6.5 20 -6.5 32
c0 24.667 6.16699 45.334 18.5 62.001s27.5 30 45.5 40s37.333 17 58 21s39.667 6 57 6z" />
    <glyph glyph-name="afii10026" unicode="&#x418;" horiz-adv-x="614" 
d="M150 600c20 0 36.8311 -3.83398 50.498 -11.501s24.834 -18 33.501 -31s15 -28.167 19 -45.5s6 -35.333 6 -54v-86l29 73c17.333 44.667 40.833 81.667 70.5 111s63.834 44 102.501 44c16 0 30.833 -2.66699 44.5 -8s25.667 -12.5 36 -21.5s18.5 -19.5 24.5 -31.5
s9 -24.667 9 -38c0 -8.66699 -1.66699 -18 -5 -28s-7.83301 -19.5 -13.5 -28.5s-12 -17 -19 -24s-14.167 -12.167 -21.5 -15.5c-9.33301 -4 -16.333 -5.66699 -21 -5s-7 -3 -7 -11s2.66699 -14.667 8 -20s8 -11.666 8 -18.999v-123c0 -17.333 3.16699 -31.166 9.5 -41.499
s13.333 -19.833 21 -28.5s14.667 -17.667 21 -27s9.5 -22 9.5 -38s-3 -30.333 -9 -43s-14 -23.334 -24 -32.001s-21.5 -15.334 -34.5 -20.001s-26.5 -7 -40.5 -7c-18 0 -33.667 4 -47 12s-24.333 19 -33 33s-15.167 30.167 -19.5 48.5s-6.5 37.833 -6.5 58.5
c0 49.333 4.5 94.333 13.5 135s24.833 80 47.5 118c-6.66699 -0.666992 -13.667 -5.16699 -21 -13.5s-14.333 -17.666 -21 -27.999s-12.5 -20.833 -17.5 -31.5s-8.5 -19 -10.5 -25l-69 -198c-4 -12 -9.33301 -24.333 -16 -37s-15.167 -24.334 -25.5 -35.001
s-22.5 -19.5 -36.5 -26.5s-30.333 -10.5 -49 -10.5c-14 0 -27 2.83301 -39 8.5s-22.333 12.834 -31 21.501s-15.5 18.5 -20.5 29.5s-7.5 22.167 -7.5 33.5c0 16.667 3.16699 31 9.5 43l20.5 40.5c7.33301 15 14.166 33 20.499 54s9.5 48.5 9.5 82.5
c0 24.667 -3.66699 45.167 -11 61.5s-15.166 30.833 -23.499 43.5s-16.166 25.167 -23.499 37.5s-11 27.5 -11 45.5c0 16.667 3 31.667 9 45s14.167 24.833 24.5 34.5s22.166 17 35.499 22s27.333 7.5 42 7.5z" />
    <glyph glyph-name="afii10027" unicode="&#x419;" horiz-adv-x="614" 
d="M255 787c15.333 0 29.667 -4.66992 43 -14.0029s20 -21.666 20 -36.999c0 -3.33301 -0.666992 -6.83301 -2 -10.5s-2 -7.16699 -2 -10.5c0 -4 2 -8 6 -12s10 -6 18 -6c10.667 0 20.167 2.83301 28.5 8.5s16.166 11.834 23.499 18.501s14.5 12.834 21.5 18.501
s14.833 8.5 23.5 8.5c7.33301 0 13 -2.16699 17 -6.5s6 -8.83301 6 -13.5c0 -12 -5.16699 -24.5 -15.5 -37.5s-23.666 -25 -39.999 -36s-34.5 -20.167 -54.5 -27.5s-39.333 -11 -58 -11c-17.333 0 -33 2.83301 -47 8.5s-25.833 13 -35.5 22s-17.167 19.5 -22.5 31.5
s-8 24 -8 36c0 19.333 7.5 35.833 22.5 49.5s33.5 20.5 55.5 20.5zM150.001 599.997c20 0 36.8311 -3.83398 50.498 -11.501s24.834 -18 33.501 -31s15 -28.167 19 -45.5s6 -35.333 6 -54v-86l29 73c17.333 44.667 40.833 81.667 70.5 111s63.834 44 102.501 44
c16 0 30.833 -2.66699 44.5 -8s25.667 -12.5 36 -21.5s18.5 -19.5 24.5 -31.5s9 -24.667 9 -38c0 -8.66699 -1.66699 -18 -5 -28s-7.83301 -19.5 -13.5 -28.5s-12 -17 -19 -24s-14.167 -12.167 -21.5 -15.5c-9.33301 -4 -16.333 -5.66699 -21 -5s-7 -3 -7 -11
s2.66699 -14.667 8 -20s8 -11.666 8 -18.999v-123c0 -17.333 3.16699 -31.166 9.5 -41.499s13.333 -19.833 21 -28.5s14.667 -17.667 21 -27s9.5 -22 9.5 -38s-3 -30.333 -9 -43s-14 -23.334 -24 -32.001s-21.5 -15.334 -34.5 -20.001s-26.5 -7 -40.5 -7
c-18 0 -33.667 4 -47 12s-24.333 19 -33 33s-15.167 30.167 -19.5 48.5s-6.5 37.833 -6.5 58.5c0 49.333 4.5 94.333 13.5 135s24.833 80 47.5 118c-6.66699 -0.666992 -13.667 -5.16699 -21 -13.5s-14.333 -17.666 -21 -27.999s-12.5 -20.833 -17.5 -31.5
s-8.5 -19 -10.5 -25l-69 -198c-4 -12 -9.33301 -24.333 -16 -37s-15.167 -24.334 -25.5 -35.001s-22.5 -19.5 -36.5 -26.5s-30.333 -10.5 -49 -10.5c-14 0 -27 2.83301 -39 8.5s-22.333 12.834 -31 21.501s-15.5 18.5 -20.5 29.5s-7.5 22.167 -7.5 33.5
c0 16.667 3.16699 31 9.5 43l20.5 40.5c7.33301 15 14.166 33 20.499 54s9.5 48.5 9.5 82.5c0 24.667 -3.66699 45.167 -11 61.5s-15.166 30.833 -23.499 43.5s-16.166 25.167 -23.499 37.5s-11 27.5 -11 45.5c0 16.667 3 31.667 9 45s14.167 24.833 24.5 34.5
s22.166 17 35.499 22s27.333 7.5 42 7.5z" />
    <glyph glyph-name="afii10028" unicode="&#x41a;" horiz-adv-x="627" 
d="M167 368c0 7.33301 1.99902 14.332 5.99902 20.999s8.33301 12.834 13 18.501l13 15.5c4 4.66699 6 9 6 13c0 1.33301 -0.5 3.33301 -1.5 6s-2.83301 4 -5.5 4c-4.66699 0 -9 -2.66699 -13 -8s-9.33301 -10 -16 -14c-5.33301 -3.33301 -13 -6.5 -23 -9.5
s-20.333 -4.5 -31 -4.5c-24.667 0 -44.167 7.83301 -58.5 23.5s-21.5 34.5 -21.5 56.5c0 30 11.167 55 33.5 75s50.833 30 85.5 30c14.667 0 26.167 -1.33301 34.5 -4s15.333 -5.5 21 -8.5s10.5 -5.66699 14.5 -8s9.66699 -3.5 17 -3.5c4.66699 0 9.5 1.16699 14.5 3.5
s10 5 15 8s10.167 5.83301 15.5 8.5s11 4 17 4c14 0 25.5 -4.5 34.5 -13.5s13.5 -21.5 13.5 -37.5c0 -11.333 -2.16699 -23 -6.5 -35s-9.33301 -25 -15 -39s-10.667 -29 -15 -45s-6.5 -34 -6.5 -54v-47c13.333 2.66699 22.333 9.16699 27 19.5s8.16699 23.666 10.5 39.999
s4.83301 35.333 7.5 57s9 45.167 19 70.5c9.33301 23.333 25.333 43.166 48 59.499s48.334 24.5 77.001 24.5c14.667 0 28.334 -2.66699 41.001 -8s23.5 -12.333 32.5 -21s16 -18.834 21 -30.501s7.5 -23.834 7.5 -36.501c0 -24 -4.33301 -42 -13 -54
s-18.667 -21.167 -30 -27.5s-22.666 -11 -33.999 -14s-19.666 -7.16699 -24.999 -12.5c-6 -6 -10.5 -13.833 -13.5 -23.5l-9.5 -30.5c-3.33301 -10.667 -7.33301 -21 -12 -31s-11.334 -18 -20.001 -24c16 -16.667 27.333 -33.167 34 -49.5s11.667 -32.833 15 -49.5
s6.16602 -33.667 8.49902 -51s6.5 -35.333 12.5 -54c4 -12 10.333 -21.667 19 -29l25.5 -22c8.33301 -7.33301 15.833 -15.666 22.5 -24.999s10 -22.333 10 -39c0 -17.333 -3.33301 -32.5 -10 -45.5s-15.167 -24 -25.5 -33s-21.833 -15.667 -34.5 -20
s-25.334 -6.5 -38.001 -6.5c-23.333 0 -43.5 5 -60.5 15s-31.167 23 -42.5 39s-19.833 33.5 -25.5 52.5s-8.5 37.5 -8.5 55.5c0 16.667 1.33301 34.167 4 52.5s4 33.833 4 46.5c0 23.333 -3.83301 43 -11.5 59s-16.167 28.667 -25.5 38
c-2 -3.33301 -3.66699 -7.66602 -5 -12.999s-2 -9.66602 -2 -12.999v-47c0 -22 -3.83301 -42.5 -11.5 -61.5s-18.167 -35.167 -31.5 -48.5s-29 -23.833 -47 -31.5s-37.667 -11.5 -59 -11.5c-35.333 0 -63.833 9.33301 -85.5 28s-32.5 43.334 -32.5 74.001
c0 28.667 8 50 24 64s35.667 21 59 21c13.333 0 23.833 3.33301 31.5 10s11.5 15 11.5 25v156z" />
    <glyph glyph-name="afii10029" unicode="&#x41b;" horiz-adv-x="614" 
d="M426 583c13.333 0 27.6689 -2.33398 43.002 -7.00098s29.5 -11.5 42.5 -20.5s23.833 -20 32.5 -33s13 -27.833 13 -44.5c0 -19.333 -3.16699 -34.5 -9.5 -45.5s-13.5 -19.667 -21.5 -26s-15.167 -11 -21.5 -14s-9.5 -5.83301 -9.5 -8.5s1.66699 -5.16699 5 -7.5
s7 -5.16602 11 -8.49902s7.66699 -8 11 -14s5 -14 5 -24v-114c0 -14 2.33301 -25.5 7 -34.5s10 -18 16 -27s11.333 -18.833 16 -29.5s7 -24.334 7 -41.001c0 -12.667 -2.5 -24.667 -7.5 -36s-11.833 -21.333 -20.5 -30s-18.834 -15.5 -30.501 -20.5s-24.167 -7.5 -37.5 -7.5
c-40.667 0 -68.834 18.5 -84.501 55.5s-23.5 89.5 -23.5 157.5c0 31.333 1.33301 60.5 4 87.5s7.66699 47.167 15 60.5c2 3.33301 5.16699 6 9.5 8l13.5 6.5c4.66699 2.33301 8.83398 4.83301 12.501 7.5s5.5 6.66699 5.5 12c0 6.66699 -3.16699 11.167 -9.5 13.5
s-12.166 3.5 -17.499 3.5c-13.333 0 -26 -5.66699 -38 -17s-19.333 -23 -22 -35c-8 -36.667 -13 -74.834 -15 -114.501s-4.16699 -78.5 -6.5 -116.5s-5.66602 -74.167 -9.99902 -108.5s-12.333 -64.333 -24 -90s-28.5 -46.167 -50.5 -61.5s-51.667 -23 -89 -23
c-13.333 0 -26.333 2.16699 -39 6.5s-23.834 10.5 -33.501 18.5s-17.5 18 -23.5 30s-9 25.667 -9 41c0 20 4.33301 35.667 13 47s19.167 21.333 31.5 30l38.5 26.5c13.333 9 24.666 20.5 33.999 34.5c7.33301 11.333 12.666 26.333 15.999 45s6 39.667 8 63s4 48.333 6 75
s5 53.334 9 80.001s9.66699 52.834 17 78.501s17.333 49.5 30 71.5c16 27.333 39.667 50.833 71 70.5s68 29.5 110 29.5z" />
    <glyph glyph-name="afii10030" unicode="&#x41c;" horiz-adv-x="794" 
d="M286 112c0 -31.333 -2.83496 -63.998 -8.50195 -97.998s-14.667 -65.333 -27 -94s-27.833 -52.334 -46.5 -71.001s-41 -28 -67 -28c-15.333 0 -29 3 -41 9s-22 13.833 -30 23.5s-14.167 20.334 -18.5 32.001s-6.5 23.167 -6.5 34.5c0 15.333 2.5 28.666 7.5 39.999
s11 21.833 18 31.5s14.833 19.5 23.5 29.5s16.5 20.833 23.5 32.5s13 25.167 18 40.5s7.5 33.666 7.5 54.999c0 8 -0.5 18.167 -1.5 30.5s-2 25.333 -3 39l-3 39.5c-1 12.667 -1.5 23.334 -1.5 32.001c0 18 1.5 32.167 4.5 42.5s6.33301 18.833 10 25.5s7 12 10 16
s4.5 8.66699 4.5 14c0 7.33301 -3.83301 11.333 -11.5 12s-16.834 3.33398 -27.501 8.00098c-10 4.66699 -19.667 12.167 -29 22.5s-14 26.166 -14 47.499c0 20 3.83301 37.333 11.5 52s17.834 27 30.501 37s26.5 17.5 41.5 22.5s30.167 7.5 45.5 7.5
c20 0 40.333 -3.66699 61 -11s40.167 -18.833 58.5 -34.5s34.833 -36.167 49.5 -61.5s26 -56 34 -92c8.66699 36 21.334 66.667 38.001 92s35.667 46 57 62s44 27.5 68 34.5s48 10.5 72 10.5c12 0 24.333 -2 37 -6s24.334 -10 35.001 -18s19.5 -18 26.5 -30
s10.5 -26 10.5 -42c0 -10 -2.16699 -20.833 -6.5 -32.5s-10.166 -22.5 -17.499 -32.5s-15.666 -18.333 -24.999 -25s-19 -10 -29 -10c-3.33301 0 -5.83301 -1.16699 -7.5 -3.5s-2.5 -5.16602 -2.5 -8.49902s0.833008 -6.33301 2.5 -9l5.5 -8.5
c2 -3 3.83301 -6.83301 5.5 -11.5s2.5 -10.334 2.5 -17.001v-113c0 -14 3.16699 -26.5 9.5 -37.5s13.5 -21.5 21.5 -31.5s15.167 -20.333 21.5 -31s9.5 -23 9.5 -37c0 -16 -3.16699 -30.333 -9.5 -43s-14.5 -23.5 -24.5 -32.5s-21.5 -15.833 -34.5 -20.5
s-26.167 -7 -39.5 -7c-17.333 0 -32.5 3.5 -45.5 10.5s-23.833 16.833 -32.5 29.5s-15.334 27.334 -20.001 44.001s-7 34.667 -7 54v41c0 43.333 2.66699 78.5 8 105.5s11.166 48.5 17.499 64.5s12.166 27.5 17.499 34.5s8 12.5 8 16.5c0 2.66699 -0.666992 4 -2 4
c-4 0 -9.66699 -3.5 -17 -10.5s-14.833 -15.833 -22.5 -26.5s-14.834 -22.667 -21.501 -36s-12 -26 -16 -38c-6 -18.667 -10.5 -38.667 -13.5 -60s-5.83301 -42.833 -8.5 -64.5s-5.66699 -42.5 -9 -62.5s-8.16602 -37.833 -14.499 -53.5s-14.666 -28.167 -24.999 -37.5
s-23.833 -14 -40.5 -14c-22 0 -37.5 10.333 -46.5 31s-15.667 47.167 -20 79.5s-8.16602 68 -11.499 107s-10 76.833 -20 113.5c-2.66699 10 -6.33398 19.167 -11.001 27.5s-9.66699 15.5 -15 21.5s-10.5 10.833 -15.5 14.5s-9.16699 5.5 -12.5 5.5
c-5.33301 0 -8 -3.33301 -8 -10c0 -4.66699 2.83301 -9.66699 8.5 -15s12 -13.833 19 -25.5s13.333 -27.834 19 -48.501s8.5 -48.334 8.5 -83.001v-97z" />
    <glyph glyph-name="afii10031" unicode="&#x41d;" horiz-adv-x="678" 
d="M205 220c0 5.33301 -1.32715 12 -3.99414 20s-7 12 -13 12c-4 0 -7.5 -2.5 -10.5 -7.5s-7 -10.333 -12 -16s-11.833 -11 -20.5 -16s-21 -7.5 -37 -7.5c-23.333 0 -42.333 8.16699 -57 24.5s-22 34.5 -22 54.5c0 16 3 29.667 9 41s13.833 20.666 23.5 27.999
s20.667 12.666 33 15.999s25.166 5 38.499 5s23.5 -1 30.5 -3s13.5 -3 19.5 -3c6.66699 0 10 2.66699 10 8c0 11.333 -3.83301 21.833 -11.5 31.5s-16.334 19.667 -26.001 30s-18.334 21.5 -26.001 33.5s-11.5 26.333 -11.5 43c0 10.667 2 21.167 6 31.5
s9.66699 19.5 17 27.5s16.166 14.333 26.499 19s21.5 7 33.5 7c37.333 0 67.333 -16.5 90 -49.5s40.667 -77.5 54 -133.5c3.33301 -14.667 5.33301 -28.667 6 -42s1.66699 -25.166 3 -35.499s3.83301 -18.5 7.5 -24.5s10.5 -9 20.5 -9s16.667 4.33301 20 13
s5.83301 20.834 7.5 36.501s4.16699 34.5 7.5 56.5s10.333 46.333 21 73c16 39.333 34.667 66.166 56 80.499s43.333 21.5 66 21.5c23.333 0 44 -7.33301 62 -22s27 -36 27 -64c0 -22 -4.5 -40.167 -13.5 -54.5s-19 -29.5 -30 -45.5s-21 -35 -30 -57
s-13.5 -51.667 -13.5 -89c0 -18.667 3.16699 -35.167 9.5 -49.5s13.5 -28.166 21.5 -41.499s15.167 -26.5 21.5 -39.5s9.5 -27.5 9.5 -43.5c0 -13.333 -2.66699 -25.5 -8 -36.5s-12.166 -20.5 -20.499 -28.5s-18 -14.167 -29 -18.5s-22.167 -6.5 -33.5 -6.5
c-16 0 -31 3.66699 -45 11s-26.667 16.666 -38 27.999c-17.333 18 -28.833 37.167 -34.5 57.5s-9.5 39.333 -11.5 57s-4.5 32.334 -7.5 44.001s-10.167 17.5 -21.5 17.5c-6.66699 0 -12.334 -2.83301 -17.001 -8.5s-7 -18.834 -7 -39.501v-8c0 -31.333 -5 -65 -15 -101
s-24 -69.167 -42 -99.5s-39.333 -55.666 -64 -75.999s-51.667 -30.5 -81 -30.5c-13.333 0 -26 2.16699 -38 6.5s-22.667 10.5 -32 18.5s-16.833 17.833 -22.5 29.5s-8.5 24.834 -8.5 39.501c0 16 3.5 30 10.5 42s15.5 22.5 25.5 31.5s20.167 17.167 30.5 24.5
s19.166 14.666 26.499 21.999c11.333 11.333 21 24 29 38s14.667 27.667 20 41s9.16602 25.833 11.499 37.5s3.5 21.167 3.5 28.5v19z" />
    <glyph glyph-name="afii10032" unicode="&#x41e;" horiz-adv-x="486" 
d="M54 470c0 24 5.33105 44.834 15.998 62.501s24.334 32.167 41.001 43.5s35.167 19.833 55.5 25.5s39.833 8.5 58.5 8.5c36 0 67.667 -8 95 -24s50.166 -37.833 68.499 -65.5s32 -60.167 41 -97.5s13.5 -77.333 13.5 -120c0 -37.333 -2.83301 -74.666 -8.5 -111.999
s-16 -70.833 -31 -100.5s-35.833 -53.834 -62.5 -72.501s-61 -28 -103 -28c-32.667 0 -61.167 6.66699 -85.5 20s-44.666 30.666 -60.999 51.999s-28.5 45.833 -36.5 73.5s-12 56.167 -12 85.5c0 16.667 1.16699 33.334 3.5 50.001s6.5 32.5 12.5 47.5
s14.333 28.167 25 39.5s24.334 19.666 41.001 24.999c-12 2 -22.333 5.83301 -31 11.5s-16 12.5 -22 20.5s-10.5 16.833 -13.5 26.5s-4.5 19.167 -4.5 28.5zM288.998 298.001c0 16.667 -0.834961 33.002 -2.50195 49.002s-4.66699 30.167 -9 42.5
s-10.166 22.166 -17.499 29.499s-16.666 11 -27.999 11s-22 -5.66699 -32 -17s-17.667 -23.333 -23 -36c15.333 -10 23 -22.667 23 -38c0 -12.667 -2.16699 -25 -6.5 -37s-6.5 -25.667 -6.5 -41v-26c0 -22.667 4 -40.834 12 -54.501s19.667 -20.5 35 -20.5
c12 0 21.667 3.33301 29 10s13 15 17 25s6.5 21 7.5 33s1.5 23.333 1.5 34v36z" />
    <glyph glyph-name="afii10033" unicode="&#x41f;" horiz-adv-x="678" 
d="M191 318c0 16.667 3.00195 34.6699 9.00195 54.0029s21.333 37.666 46 54.999c-10 0 -17.667 -0.666992 -23 -2s-9.83301 -3.16602 -13.5 -5.49902s-7 -5 -10 -8l-10.5 -10.5c-11.333 -9.33301 -21.5 -15.833 -30.5 -19.5s-20.167 -5.5 -33.5 -5.5
c-25.333 0 -46.166 8.5 -62.499 25.5s-24.5 38.5 -24.5 64.5c0 22 3.66699 41.333 11 58s17 30.334 29 41.001s25.833 18.667 41.5 24s31.834 8 48.501 8c14 0 30.667 -2.5 50 -7.5l60 -16c20.667 -5.66699 41.167 -11 61.5 -16s38.5 -7.5 54.5 -7.5
c14 0 28.167 1.33301 42.5 4s28.166 5.66699 41.499 9l37 9c11.333 2.66699 21 4 29 4c11.333 0 22.833 -1.5 34.5 -4.5s22 -7.83301 31 -14.5s16.333 -15.334 22 -26.001s8.5 -23.334 8.5 -38.001c0 -18 -3.5 -33.167 -10.5 -45.5s-16.333 -22.666 -28 -30.999
s-24.667 -15 -39 -20s-28.833 -8.5 -43.5 -10.5c12.667 -14 21.667 -28.333 27 -43s8 -30.334 8 -47.001c0 -12.667 -1 -25.834 -3 -39.501s-3 -25.167 -3 -34.5c0 -15.333 4.16699 -26.833 12.5 -34.5s17.333 -15.167 27 -22.5s18.667 -16.166 27 -26.499
s12.5 -25.166 12.5 -44.499c0 -12 -2 -23.833 -6 -35.5s-10 -22.334 -18 -32.001s-18 -17.334 -30 -23.001s-26 -8.5 -42 -8.5c-24.667 0 -45.334 6 -62.001 18s-30 27.5 -40 46.5s-17.167 40.5 -21.5 64.5s-6.5 47.667 -6.5 71v35c0 40 4.33301 74.833 13 104.5
s26.334 49.834 53.001 60.501c-13.333 6 -25.666 11.167 -36.999 15.5s-22.833 7.66602 -34.5 9.99902s-24.334 4 -38.001 5s-29.167 1.5 -46.5 1.5c11.333 -7.33301 19.666 -14.833 24.999 -22.5s8 -18.5 8 -32.5c0 -10.667 -0.833008 -21.167 -2.5 -31.5
s-2.5 -23.5 -2.5 -39.5c0 -18.667 0.833008 -36.334 2.5 -53.001s2.5 -30.667 2.5 -42v-36c0 -26.667 -4.5 -51 -13.5 -73s-21.333 -41 -37 -57s-34.334 -28.333 -56.001 -37s-45.167 -13 -70.5 -13c-32.667 0 -59.334 9.66699 -80.001 29s-31 43 -31 71
c0 20.667 5.83301 38 17.5 52s25.167 24 40.5 30c9.33301 3.33301 18.5 5.83301 27.5 7.5s17.167 4.5 24.5 8.5s13.333 10.333 18 19s7 21.667 7 39v72z" />
    <glyph glyph-name="afii10034" unicode="&#x420;" horiz-adv-x="538" 
d="M140 206c0 17.333 -0.5 32.1729 -1.5 44.5059s-2 23.166 -3 32.499s-1.83301 18 -2.5 26s-1 16 -1 24c0 15.333 1.33301 29.666 4 42.999s10.334 25.666 23.001 36.999c-1.33301 -0.666992 -3.83301 -1.16699 -7.5 -1.5s-7.16699 -0.5 -10.5 -0.5
c-31.333 0 -56 9.16699 -74 27.5s-27 40.166 -27 65.499c0 22 5.66699 40.833 17 56.5s26 28.5 44 38.5s38 17.333 60 22s44 7 66 7c36 0 70.333 -5.16699 103 -15.5s61.5 -25.5 86.5 -45.5s44.833 -44.833 59.5 -74.5s22 -63.834 22 -102.501
c0 -39.333 -6.66699 -71.5 -20 -96.5s-27 -44.5 -41 -58.5c-21.333 -21.333 -40.833 -36.166 -58.5 -44.499s-32.834 -14.5 -45.501 -18.5s-22.667 -7.66699 -30 -11s-11 -10.333 -11 -21v-114c0 -20 -2 -39.667 -6 -59s-10.5 -36.833 -19.5 -52.5
s-21.167 -28.334 -36.5 -38.001s-34.333 -14.5 -57 -14.5c-30 0 -55.167 8.16699 -75.5 24.5s-30.5 40.833 -30.5 73.5c0 22 3.83301 40.167 11.5 54.5s16 28.166 25 41.499s17.333 27.833 25 43.5s11.5 35.5 11.5 59.5v47zM292 318.007
c0 -3.33301 -0.329102 -7.00195 -0.996094 -11.002s-1 -8.66699 -1 -14c0 -6.66699 2 -10 6 -10c3.33301 0 7.5 1.83301 12.5 5.5s10 8.83398 15 15.501s9.16699 14.5 12.5 23.5s5 18.5 5 28.5c0 15.333 -4.33301 29.333 -13 42s-17.667 22.334 -27 29.001
c-4.66699 3.33301 -12.334 5.66602 -23.001 6.99902s-22.334 2 -35.001 2c-7.33301 0 -11 -1 -11 -3c0 -3.33301 3.16699 -6.66602 9.5 -9.99902s13.166 -8.5 20.499 -15.5s14.166 -16.5 20.499 -28.5s9.5 -28 9.5 -48v-13z" />
    <glyph glyph-name="afii10035" unicode="&#x421;" 
d="M269 602c16 0 33.334 -2.33105 52.001 -6.99805s36 -11.834 52 -21.501s29.167 -22.167 39.5 -37.5s15.5 -34 15.5 -56c0 -24 -6.5 -44.667 -19.5 -62s-32.833 -26 -59.5 -26c-11.333 0 -21 1.66699 -29 5s-15.333 6.83301 -22 10.5l-20 10.5
c-6.66699 3.33301 -14 5 -22 5c-13.333 0 -23.666 -4.33301 -30.999 -13s-13 -19.334 -17 -32.001s-6.5 -26.334 -7.5 -41.001s-1.5 -28.334 -1.5 -41.001c0 -38 3.83301 -68.5 11.5 -91.5s22.834 -34.5 45.501 -34.5c8.66699 0 16.334 1.5 23.001 4.5s13.5 6.5 20.5 10.5
s14.5 7.5 22.5 10.5s17 4.5 27 4.5c25.333 0 44.833 -8.16699 58.5 -24.5s20.5 -37.166 20.5 -62.499c0 -21.333 -5 -39.666 -15 -54.999s-22.667 -28 -38 -38s-32.333 -17.5 -51 -22.5s-36.334 -7.5 -53.001 -7.5c-42.667 0 -78.334 8.5 -107.001 25.5
s-51.834 39.5 -69.501 67.5s-30.167 60.333 -37.5 97s-11 74.667 -11 114c0 44.667 4.16699 85.834 12.5 123.501s21.5 70.167 39.5 97.5s41.167 48.666 69.5 63.999s62.166 23 101.499 23z" />
    <glyph glyph-name="afii10036" unicode="&#x422;" horiz-adv-x="922" 
d="M193 322c0 19.333 3.16406 38.8379 9.49707 58.5049s20.166 35.167 41.499 46.5c-10 0 -17.667 -0.833008 -23 -2.5s-9.66602 -3.83398 -12.999 -6.50098s-6.16602 -5.83398 -8.49902 -9.50098s-5.5 -7.16699 -9.5 -10.5c-6.66699 -6 -15 -11.167 -25 -15.5
s-23.333 -6.5 -40 -6.5c-26 0 -47.333 9.16699 -64 27.5s-25 42.5 -25 72.5c0 10.667 1.83301 22.834 5.5 36.501s11.334 26.5 23.001 38.5s28.167 22.167 49.5 30.5s50 12.5 86 12.5c12 0 27 -0.666992 45 -2s37.667 -3 59 -5l66.5 -6l66.5 -6
c21.333 -2 40.833 -3.66699 58.5 -5s31.834 -2 42.501 -2c22.667 0 44 1 64 3s39.167 4.16699 57.5 6.5l53 6.5c17 2 33.5 3 49.5 3c44 0 75.667 -8.5 95 -25.5s29 -38.5 29 -64.5c0 -16 -3.33301 -30.167 -10 -42.5s-15.5 -23 -26.5 -32s-23.667 -16.167 -38 -21.5
s-29.5 -8.66602 -45.5 -9.99902c7.33301 -8.66699 13.333 -16.334 18 -23.001s8.33398 -13.5 11.001 -20.5s4.5 -14.667 5.5 -23s1.5 -18.166 1.5 -29.499c0 -17.333 -1.16699 -31.833 -3.5 -43.5s-3.5 -21.834 -3.5 -30.501c0 -12.667 4.16699 -22.334 12.5 -29.001l27 -21
c9.66699 -7.33301 18.667 -16.666 27 -27.999s12.5 -28 12.5 -50c0 -10 -2 -20.833 -6 -32.5s-10 -22.334 -18 -32.001s-18 -17.834 -30 -24.501s-26 -10 -42 -10c-24.667 0 -45.667 5.16699 -63 15.5s-31.5 24.666 -42.5 42.999s-19 39.833 -24 64.5s-7.5 51 -7.5 79v26
c0 40 4.16699 75.833 12.5 107.5s24.166 54.834 47.499 69.501c-13.333 6 -27.333 11.167 -42 15.5s-29.167 8 -43.5 11s-27.833 5.16699 -40.5 6.5s-24 2 -34 2h-28c32 -30 55.667 -66.5 71 -109.5s23 -85.5 23 -127.5c0 -17.333 -1.83301 -37.666 -5.5 -60.999
s-10 -45.5 -19 -66.5s-21.333 -38.833 -37 -53.5s-35.167 -22 -58.5 -22c-13.333 0 -26.166 2 -38.499 6s-23.333 9.83301 -33 17.5s-17.334 17.167 -23.001 28.5s-8.5 24.666 -8.5 39.999c0 22 3.33301 39.667 10 53s14 25.333 22 36s15.333 21.167 22 31.5
s10 23.166 10 38.499c0 11.333 -1.66699 22.666 -5 33.999s-7 22.5 -11 33.5l-11 31.5c-3.33301 10 -5 19.667 -5 29c0 10.667 1.16699 20.834 3.5 30.501s6.5 19.167 12.5 28.5h-109c6.66699 -4.66699 13.334 -12.334 20.001 -23.001s10 -22 10 -34
c0 -9.33301 -0.833008 -20.666 -2.5 -33.999s-2.5 -25.666 -2.5 -36.999c0 -18.667 0.833008 -36.334 2.5 -53.001s2.5 -30.667 2.5 -42v-32c0 -30 -4.83301 -56.667 -14.5 -80s-22.834 -43 -39.501 -59s-36.5 -28 -59.5 -36s-47.833 -12 -74.5 -12
c-11.333 0 -23.333 2.16699 -36 6.5s-24.334 10.666 -35.001 18.999s-19.334 19 -26.001 32s-10 28.5 -10 46.5c0 12.667 1.83301 23.834 5.5 33.501s8.33398 17.667 14.001 24s11.5 11.666 17.5 15.999s11.333 7.5 16 9.5c8.66699 4 17.834 6.5 27.501 7.5s18.5 3 26.5 6
s14.667 8.83301 20 17.5s8 22.667 8 42v72z" />
    <glyph glyph-name="afii10037" unicode="&#x423;" horiz-adv-x="512" 
d="M411 206c-5.33301 -38 -12.1709 -73.668 -20.5039 -107.001s-20 -62.166 -35 -86.499s-34.667 -43.666 -59 -57.999s-54.833 -21.5 -91.5 -21.5c-16.667 0 -33.5 2.33301 -50.5 7s-32.333 11.667 -46 21s-24.834 20.833 -33.501 34.5s-13 29.5 -13 47.5
c0 14.667 2.33301 27.667 7 39s11 20.833 19 28.5s16.833 13.5 26.5 17.5s19.5 6 29.5 6c7.33301 0 13.5 -0.833008 18.5 -2.5s9.66699 -3.33398 14 -5.00098l13.5 -5c4.66699 -1.66699 10.334 -2.5 17.001 -2.5c16.667 0 28.667 7.66699 36 23s11 36 11 62
c0 8.66699 -3.16699 14.167 -9.5 16.5s-14 4.5 -23 6.5s-19 5 -30 9s-20.833 11.667 -29.5 23c-9.33301 12 -16.666 26.833 -21.999 44.5s-9.66602 36 -12.999 55l-9.5 56.5c-3 18.667 -6.83301 35.334 -11.5 50.001c-5.33301 15.333 -12.166 28.333 -20.499 39l-24.5 30.5
c-8 9.66699 -14.833 19.334 -20.5 29.001s-8.5 21.5 -8.5 35.5c0 15.333 3 29 9 41s14 22 24 30s21.333 14.167 34 18.5s25.334 6.5 38.001 6.5c26 0 46.5 -7.33301 61.5 -22s26.167 -32.834 33.5 -54.501s12 -45.334 14 -71.001s3.66699 -49.334 5 -71.001
s3.33301 -39.834 6 -54.501s8.33398 -22 17.001 -22c5.33301 0 9.16602 7.33301 11.499 22s4.5 32.834 6.5 54.501s5 45.334 9 71.001s10.5 49.334 19.5 71.001s21.5 39.834 37.5 54.501s37 22 63 22c31.333 0 56.833 -7.33301 76.5 -22s29.5 -35.334 29.5 -62.001
c0 -18 -3.83301 -33.833 -11.5 -47.5s-16.5 -27.334 -26.5 -41.001s-19.833 -29 -29.5 -46s-16.167 -38.167 -19.5 -63.5z" />
    <glyph glyph-name="afii10038" unicode="&#x424;" horiz-adv-x="742" 
d="M295 100c-15.333 -18.667 -31 -31.3359 -47 -38.0029s-28 -10 -36 -10c-25.333 0 -48.5 6.16699 -69.5 18.5s-39 29.666 -54 51.999s-26.667 48.833 -35 79.5s-12.5 64 -12.5 100s4.16699 69.333 12.5 100s20 57.167 35 79.5s33 39.666 54 51.999s44.167 18.5 69.5 18.5
c8 0 20 -3.33301 36 -10s31.667 -19.334 47 -38.001v126c0 51.333 10.5 90.833 31.5 118.5s50.833 41.5 89.5 41.5c10.667 0 21 -2 31 -6s19 -9.33301 27 -16s14.5 -14.334 19.5 -23.001s7.5 -17.667 7.5 -27c0 -23.333 -3 -40.166 -9 -50.499s-12.5 -19 -19.5 -26
s-13.333 -14.833 -19 -23.5s-8.5 -22.667 -8.5 -42v-72c15.333 18.667 31 31.334 47 38.001s28 10 36 10c25.333 0 48.5 -6.16699 69.5 -18.5s39 -29.666 54 -51.999s26.667 -48.833 35 -79.5s12.5 -64 12.5 -100s-4.16699 -69.333 -12.5 -100s-20 -57.167 -35 -79.5
s-33 -39.666 -54 -51.999s-44.167 -18.5 -69.5 -18.5c-8 0 -20 3.33301 -36 10s-31.667 19.334 -47 38.001v-141c0 -51.333 -10.5 -90.833 -31.5 -118.5s-50.833 -41.5 -89.5 -41.5c-10.667 0 -21 2 -31 6s-19 9.33301 -27 16s-14.5 14.334 -19.5 23.001
s-7.5 17.667 -7.5 27c0 22.667 2.83301 39.334 8.5 50.001s12 19.5 19 26.5s13.5 14.833 19.5 23.5s9 22.667 9 42v87zM295 376.998c-5.33301 11.333 -11 20 -17 26s-15.333 9 -28 9c-17.333 0 -30.833 -7.16699 -40.5 -21.5s-14.5 -34.5 -14.5 -60.5v-56
c0 -26 4.83301 -46.167 14.5 -60.5s23.167 -21.5 40.5 -21.5c12.667 0 22 3 28 9s11.667 14.667 17 26v150zM445 226.998c5.33301 -11.333 11 -20 17 -26s15.333 -9 28 -9c17.333 0 30.833 7.16699 40.5 21.5s14.5 34.5 14.5 60.5v56c0 26 -4.83301 46.167 -14.5 60.5
s-23.167 21.5 -40.5 21.5c-12.667 0 -22 -3 -28 -9s-11.667 -14.667 -17 -26v-150z" />
    <glyph glyph-name="afii10039" unicode="&#x425;" horiz-adv-x="550" 
d="M191 321c0 16 -3.50098 28.5 -10.501 37.5s-15.833 16.167 -26.5 21.5s-21.834 10 -33.501 14s-21.834 9.33301 -30.501 16c-13.333 9.33301 -23.666 22.666 -30.999 39.999s-11 33.666 -11 48.999c0 18.667 3 34.5 9 47.5s14 23.5 24 31.5s21.667 13.833 35 17.5
s27.333 5.5 42 5.5c25.333 0 48.166 -8.5 68.499 -25.5s35.833 -38.833 46.5 -65.5c10.667 26.667 26.167 48.5 46.5 65.5s43.166 25.5 68.499 25.5c14.667 0 28.667 -1.83301 42 -5.5s25 -9.5 35 -17.5s18 -18.5 24 -31.5s9 -28.833 9 -47.5
c0 -15.333 -3.66699 -31.666 -11 -48.999s-17.666 -30.666 -30.999 -39.999c-9.33301 -6.66699 -19.666 -12 -30.999 -16s-22.333 -8.66699 -33 -14s-19.5 -12.5 -26.5 -21.5s-10.5 -21.5 -10.5 -37.5v-24c0 -24 4.5 -42.833 13.5 -56.5s19.333 -24.5 31 -32.5
s23.5 -13.833 35.5 -17.5s21 -7.16699 27 -10.5c14.667 -8 25.834 -20.333 33.501 -37s11.5 -33.667 11.5 -51c0 -16.667 -3.33301 -31.334 -10 -44.001s-15 -23.334 -25 -32.001s-20.667 -15.167 -32 -19.5s-22 -6.5 -32 -6.5c-16 0 -30.833 3.16699 -44.5 9.5
s-26.167 14.833 -37.5 25.5s-21.5 22.667 -30.5 36s-16.5 27 -22.5 41c-6 -14 -13.5 -27.667 -22.5 -41s-19.167 -25.333 -30.5 -36s-23.833 -19.167 -37.5 -25.5s-28.5 -9.5 -44.5 -9.5c-10 0 -20.667 2.16699 -32 6.5s-22 10.833 -32 19.5s-18.333 19.334 -25 32.001
s-10 27.334 -10 44.001c0 17.333 3.83301 34.333 11.5 51s18.834 29 33.501 37c6 3.33301 15 6.83301 27 10.5s23.833 9.5 35.5 17.5s22 18.833 31 32.5s13.5 32.5 13.5 56.5v24z" />
    <glyph glyph-name="afii10040" unicode="&#x426;" horiz-adv-x="563" 
d="M481 224c0 -11.333 2.00098 -20.9951 6.00098 -28.9951s8.5 -16 13.5 -24s9.66699 -17.167 14 -27.5s6.5 -23.5 6.5 -39.5s-1.33301 -29 -4 -39s-5.66699 -18.5 -9 -25.5l-9 -19.5c-2.66699 -6 -4 -13.333 -4 -22c0 -6.66699 1 -14.334 3 -23.001l6.5 -27
c2.33301 -9.33301 4.5 -18.833 6.5 -28.5s3 -18.834 3 -27.501c0 -15.333 -2.83301 -29.333 -8.5 -42s-13.167 -23.5 -22.5 -32.5s-19.833 -15.833 -31.5 -20.5s-23.834 -7 -36.501 -7c-11.333 0 -22.333 2 -33 6s-20.5 9.66699 -29.5 17s-16.167 16.5 -21.5 27.5
s-8 23.167 -8 36.5c0 16 3.66699 28.5 11 37.5s15.166 16.833 23.499 23.5s16.166 12.667 23.499 18s11 12.666 11 21.999c0 6.66699 -2.5 11.167 -7.5 13.5s-11.167 5 -18.5 8s-15 7.66699 -23 14s-15 17.166 -21 32.499c-19.333 -16.667 -40 -30.167 -62 -40.5
s-42.667 -15.5 -62 -15.5c-38.667 0 -67.334 10.667 -86.001 32s-28 52 -28 92c0 12.667 0.666992 27.667 2 45s2.83301 35 4.5 53s3.16699 35.833 4.5 53.5s2 33.167 2 46.5v46c0 22.667 -3 39.834 -9 51.501s-12.5 21.667 -19.5 30s-13.333 16.833 -19 25.5
s-8.5 22 -8.5 40c0 14 2.66699 26.833 8 38.5s12.333 21.667 21 30s18.667 14.833 30 19.5s23.333 7 36 7c18.667 0 35.334 -4.16699 50.001 -12.5s27 -19.333 37 -33s17.667 -29 23 -46s8 -34.5 8 -52.5v-39c0 -8 -0.666992 -20.5 -2 -37.5s-2.66602 -35 -3.99902 -54
l-4 -55c-1.33301 -17.667 -2 -31.5 -2 -41.5c0 -30.667 13 -46 39 -46c18 0 31.833 7.83301 41.5 23.5s14.5 35.5 14.5 59.5v120c0 10 -1.66699 20.167 -5 30.5s-7.16602 20.5 -11.499 30.5s-8.16602 19.833 -11.499 29.5s-5 18.5 -5 26.5c0 15.333 3 29 9 41
s13.833 22.167 23.5 30.5s20.667 14.666 33 18.999s25.166 6.5 38.499 6.5s26.166 -2 38.499 -6s23.333 -9.83301 33 -17.5s17.334 -17.334 23.001 -29.001s8.5 -25.167 8.5 -40.5c0 -13.333 -1.5 -25 -4.5 -35s-6.5 -19.333 -10.5 -28s-7.5 -17.667 -10.5 -27
s-4.5 -20 -4.5 -32v-161z" />
    <glyph glyph-name="afii10041" unicode="&#x427;" horiz-adv-x="525" 
d="M449 219c0 -10.667 1.6709 -20.999 5.00391 -30.999s7.16602 -20.333 11.499 -31s8.16602 -21.334 11.499 -32.001s5 -22 5 -34c0 -28.667 -9 -52.667 -27 -72s-41 -29 -69 -29s-51.167 9.5 -69.5 28.5s-27.5 42.833 -27.5 71.5c0 14 1.66699 25.667 5 35
s6.83301 18 10.5 26l10.5 23.5c3.33301 7.66699 5 16.834 5 27.501v24c-4 -4 -11 -10 -21 -18s-21.333 -16 -34 -24s-26.167 -15 -40.5 -21s-28.5 -9 -42.5 -9c-30.667 0 -54.5 9.83301 -71.5 29.5s-25.5 47.167 -25.5 82.5c0 12 1 23.833 3 35.5s3 24.834 3 39.501
c0 17.333 -2.5 32.666 -7.5 45.999s-10.5 26 -16.5 38s-11.5 24 -16.5 36s-7.5 26 -7.5 42c0 12 2.66699 23.5 8 34.5s12.333 20.5 21 28.5s18.5 14.333 29.5 19s22.5 7 34.5 7c11.333 0 22.666 -2 33.999 -6s21.5 -9.83301 30.5 -17.5s16.333 -17.167 22 -28.5
s8.5 -24.333 8.5 -39c0 -17.333 -1.83301 -33.833 -5.5 -49.5s-5.5 -32.834 -5.5 -51.501v-40c0 -15.333 3.5 -28 10.5 -38s15.833 -15 26.5 -15c10 0 18.667 3.83301 26 11.5s13.166 16.834 17.499 27.501s7.5 21.667 9.5 33s3 20.333 3 27c0 8 -1.16699 15.833 -3.5 23.5
s-5 15.334 -8 23.001s-5.66699 15.334 -8 23.001s-3.5 15.5 -3.5 23.5c0 13.333 2.66699 25.666 8 36.999s12.5 21.166 21.5 29.499s19.167 14.833 30.5 19.5s23.333 7 36 7c30 0 53.333 -9.83301 70 -29.5s25 -44.5 25 -74.5c0 -13.333 -1.66699 -24.833 -5 -34.5
s-7 -19.167 -11 -28.5s-7.66699 -19.333 -11 -30s-5 -23.334 -5 -38.001v-138z" />
    <glyph glyph-name="afii10042" unicode="&#x428;" horiz-adv-x="794" 
d="M137 590c16 0 31.166 -3.83887 45.499 -11.5059s26.833 -18.167 37.5 -31.5s19.167 -29.5 25.5 -48.5s9.5 -39.5 9.5 -61.5c0 -18 -1.16699 -36.667 -3.5 -56s-4.83301 -38.5 -7.5 -57.5s-5.16699 -37.667 -7.5 -56s-3.5 -35.833 -3.5 -52.5c0 -34 13.667 -51 41 -51
c11.333 0 21 4.16699 29 12.5s14.667 19.833 20 34.5s9.16602 32.334 11.499 53.001s3.5 43.334 3.5 68.001c0 28.667 -3 50.167 -9 64.5s-12.5 26 -19.5 35s-13.333 17.5 -19 25.5s-8.5 20.667 -8.5 38c0 14.667 2.66699 27.834 8 39.501s12.5 21.667 21.5 30
s19.333 14.666 31 18.999s23.5 6.5 35.5 6.5c16 0 31.167 -3.83301 45.5 -11.5s26.833 -18.167 37.5 -31.5s19.167 -29.5 25.5 -48.5s9.5 -39.5 9.5 -61.5c0 -18 -1.16699 -36.667 -3.5 -56s-4.83301 -38.5 -7.5 -57.5s-5.16699 -37.667 -7.5 -56s-3.5 -35.833 -3.5 -52.5
c0 -34 13.667 -51 41 -51c11.333 0 21 4.16699 29 12.5s14.667 19.833 20 34.5s9.16602 32.334 11.499 53.001s3.5 43.334 3.5 68.001c0 28.667 -3 50.167 -9 64.5s-12.5 26 -19.5 35s-13.333 17.5 -19 25.5s-8.5 20.667 -8.5 38c0 14.667 2.66699 27.834 8 39.501
s12.5 21.667 21.5 30s19.333 14.666 31 18.999s23.5 6.5 35.5 6.5c16 0 31.167 -3.83301 45.5 -11.5s26.833 -18.167 37.5 -31.5s19.167 -29.5 25.5 -48.5s9.5 -39.5 9.5 -61.5c0 -21.333 -1.16699 -42.166 -3.5 -62.499s-4.66602 -39.666 -6.99902 -57.999
s-4.66602 -35.333 -6.99902 -51s-3.5 -29.167 -3.5 -40.5c0 -14 2 -26.333 6 -37s8.16699 -21 12.5 -31s8.5 -20.167 12.5 -30.5s6 -21.833 6 -34.5c0 -14 -2.83301 -27.167 -8.5 -39.5s-13.334 -23.166 -23.001 -32.499s-20.834 -16.666 -33.501 -21.999
s-26.334 -8 -41.001 -8c-36.667 0 -72 15 -106 45c-18 -16 -36.167 -27.5 -54.5 -34.5s-36.833 -10.5 -55.5 -10.5c-25.333 0 -46.166 4.16699 -62.499 12.5s-30.166 19.5 -41.499 33.5c-10 -5.33301 -21 -10.833 -33 -16.5s-24.167 -10.667 -36.5 -15
s-24.666 -7.83301 -36.999 -10.5s-23.5 -4 -33.5 -4c-18 0 -34.333 3.5 -49 10.5s-27.167 16.167 -37.5 27.5s-18.166 24.666 -23.499 39.999s-8 31.666 -8 48.999c0 18 1.5 36.167 4.5 54.5s6.16699 36.666 9.5 54.999l9.5 54c3 17.667 4.5 34.834 4.5 51.501
c0 28.667 -3 50.167 -9 64.5s-12.5 26 -19.5 35s-13.333 17.5 -19 25.5s-8.5 20.667 -8.5 38c0 14.667 2.66699 27.834 8 39.501s12.5 21.667 21.5 30s19.333 14.666 31 18.999s23.5 6.5 35.5 6.5z" />
    <glyph glyph-name="afii10043" unicode="&#x429;" horiz-adv-x="794" 
d="M137 590c16 0 31.1631 -3.83789 45.4961 -11.5049s26.833 -18.167 37.5 -31.5s19.167 -29.5 25.5 -48.5s9.5 -39.5 9.5 -61.5c0 -18 -1.16699 -36.667 -3.5 -56s-4.83301 -38.5 -7.5 -57.5s-5.16699 -37.667 -7.5 -56s-3.5 -35.833 -3.5 -52.5c0 -34 13.667 -51 41 -51
c11.333 0 21 4.16699 29 12.5s14.667 19.833 20 34.5s9.16602 32.334 11.499 53.001s3.5 43.334 3.5 68.001c0 28.667 -3 50.167 -9 64.5s-12.5 26 -19.5 35s-13.333 17.5 -19 25.5s-8.5 20.667 -8.5 38c0 14.667 2.66699 27.834 8 39.501s12.5 21.667 21.5 30
s19.333 14.666 31 18.999s23.5 6.5 35.5 6.5c16 0 31.167 -3.83301 45.5 -11.5s26.833 -18.167 37.5 -31.5s19.167 -29.5 25.5 -48.5s9.5 -39.5 9.5 -61.5c0 -18 -1.16699 -36.667 -3.5 -56s-4.83301 -38.5 -7.5 -57.5s-5.16699 -37.667 -7.5 -56s-3.5 -35.833 -3.5 -52.5
c0 -34 13.667 -51 41 -51c11.333 0 21 4.16699 29 12.5s14.667 19.833 20 34.5s9.16602 32.334 11.499 53.001s3.5 43.334 3.5 68.001c0 28.667 -3 50.167 -9 64.5s-12.5 26 -19.5 35s-13.333 17.5 -19 25.5s-8.5 20.667 -8.5 38c0 14.667 2.66699 27.834 8 39.501
s12.5 21.667 21.5 30s19.333 14.666 31 18.999s23.5 6.5 35.5 6.5c16 0 31.167 -3.83301 45.5 -11.5s26.833 -18.167 37.5 -31.5s19.167 -29.5 25.5 -48.5s9.5 -39.5 9.5 -61.5c0 -21.333 -1.16699 -42.166 -3.5 -62.499s-4.66602 -39.666 -6.99902 -57.999
s-4.66602 -35.333 -6.99902 -51s-3.5 -29.167 -3.5 -40.5c0 -12.667 2 -24.834 6 -36.501s8.16699 -23 12.5 -34l12.5 -32.5c4 -10.667 6 -22 6 -34c0 -8 -1.5 -16.5 -4.5 -25.5s-6.16699 -17.833 -9.5 -26.5l-9.5 -24.5c-3 -7.66699 -4.5 -14.167 -4.5 -19.5
c0 -10 3.16699 -22.833 9.5 -38.5s9.5 -34.5 9.5 -56.5c0 -14 -2.33301 -27.333 -7 -40s-11.334 -24 -20.001 -34s-19.167 -18 -31.5 -24s-26.166 -9 -41.499 -9c-25.333 0 -46.666 8.16699 -63.999 24.5s-26 37.5 -26 63.5c0 14.667 3.66699 26.834 11 36.501
s15.166 18 23.499 25s16.166 13.167 23.499 18.5s11 11.333 11 18s-2.66699 11.334 -8 14.001s-12.166 5.33398 -20.499 8.00098s-17.333 6.66699 -27 12s-18.5 13.666 -26.5 24.999c-18 -16 -36.167 -27.5 -54.5 -34.5s-36.833 -10.5 -55.5 -10.5
c-25.333 0 -46.166 4.16699 -62.499 12.5s-30.166 19.5 -41.499 33.5c-10 -5.33301 -21 -10.833 -33 -16.5s-24.167 -10.667 -36.5 -15s-24.666 -7.83301 -36.999 -10.5s-23.5 -4 -33.5 -4c-18 0 -34.333 3.5 -49 10.5s-27.167 16.167 -37.5 27.5
s-18.166 24.666 -23.499 39.999s-8 31.666 -8 48.999c0 18 1.5 36.167 4.5 54.5s6.16699 36.666 9.5 54.999l9.5 54c3 17.667 4.5 34.834 4.5 51.501c0 28.667 -3 50.167 -9 64.5s-12.5 26 -19.5 35s-13.333 17.5 -19 25.5s-8.5 20.667 -8.5 38
c0 14.667 2.66699 27.834 8 39.501s12.5 21.667 21.5 30s19.333 14.666 31 18.999s23.5 6.5 35.5 6.5z" />
    <glyph glyph-name="afii10044" unicode="&#x42a;" horiz-adv-x="614" 
d="M295 569c30.667 0 59.999 2.49902 87.999 7.49902s52 7.5 72 7.5c15.333 0 27.166 -3.16699 35.499 -9.5s12.5 -17.166 12.5 -32.499c0 -10.667 -3.83301 -20.334 -11.5 -29.001s-17.334 -17.167 -29.001 -25.5s-24.334 -16.833 -38.001 -25.5s-26.667 -18.167 -39 -28.5
s-23 -21.666 -32 -33.999s-14.167 -26.5 -15.5 -42.5c13.333 14 26.833 24.667 40.5 32s30.167 11 49.5 11c22.667 0 43.167 -5.33301 61.5 -16s34.166 -24.834 47.499 -42.501s23.666 -37.5 30.999 -59.5s11 -44 11 -66c0 -27.333 -5.5 -54.5 -16.5 -81.5
s-26 -51.167 -45 -72.5s-41 -38.666 -66 -51.999s-51.5 -20 -79.5 -20c-31.333 0 -58.666 6.66699 -81.999 20s-42.666 30.666 -57.999 51.999s-26.833 45.5 -34.5 72.5s-11.5 54.167 -11.5 81.5c0 25.333 2.83301 51 8.5 77s14.334 51 26.001 75s25.834 46.333 42.501 67
s36 38.334 58 53.001c-18 0 -33.167 -2.66699 -45.5 -8s-22.833 -11.833 -31.5 -19.5s-16.667 -16.167 -24 -25.5s-15.166 -17.833 -23.499 -25.5s-18.166 -14.167 -29.499 -19.5s-25.666 -8 -42.999 -8c-24 0 -45.667 7.66699 -65 23s-29 37 -29 65
c0 18.667 3.66699 34.5 11 47.5s17.166 23.5 29.499 31.5s26.333 13.833 42 17.5s31.5 5.5 47.5 5.5c18.667 0 33.167 -0.5 43.5 -1.5s22.833 -1.5 37.5 -1.5h54zM328.999 272.999c-0.666992 -4.66699 -1.33301 -11.168 -2 -19.501s-1 -14.833 -1 -19.5
c0 -8 1.16699 -16.667 3.5 -26s6 -17.833 11 -25.5s11.5 -14 19.5 -19s17.667 -7.5 29 -7.5c9.33301 0 18.333 3.5 27 10.5s13 15.167 13 24.5c0 12 -3.66699 20.167 -11 24.5s-16.333 8.33301 -27 12s-21.667 8.33398 -33 14.001s-21 16.167 -29 31.5z" />
    <glyph glyph-name="afii10045" unicode="&#x42b;" horiz-adv-x="730" 
d="M659 218c0 -11.333 1.66699 -21.666 5 -30.999s7.16602 -18.833 11.499 -28.5s8.16602 -20.167 11.499 -31.5s5 -24.666 5 -39.999c0 -17.333 -3.16699 -32.166 -9.5 -44.499s-14.5 -22.333 -24.5 -30s-21.333 -13.334 -34 -17.001s-25.667 -5.5 -39 -5.5
s-26.333 1.83301 -39 5.5s-24 9.33398 -34 17.001s-18.167 17.667 -24.5 30s-9.5 27.166 -9.5 44.499c0 15.333 1.66699 28.666 5 39.999s7.16602 21.833 11.499 31.5s8.16602 19.167 11.499 28.5s5 19.666 5 30.999v146c0 11.333 -1.66699 21.666 -5 30.999
s-7.16602 18.833 -11.499 28.5s-8.16602 20.167 -11.499 31.5s-5 24.666 -5 39.999c0 17.333 3.16699 32.166 9.5 44.499s14.5 22.333 24.5 30s21.333 13.334 34 17.001s25.667 5.5 39 5.5s26.333 -1.83301 39 -5.5s24 -9.33398 34 -17.001s18.167 -17.667 24.5 -30
s9.5 -27.166 9.5 -44.499c0 -15.333 -1.66699 -28.666 -5 -39.999s-7.16602 -21.833 -11.499 -31.5s-8.16602 -19.167 -11.499 -28.5s-5 -19.666 -5 -30.999v-146zM72 356c0 11.333 -1.66797 21.6689 -5.00098 31.002s-7.16602 18.666 -11.499 27.999
s-8.16602 19.5 -11.499 30.5s-5 23.833 -5 38.5c0 34.667 9.66699 61.334 29 80.001s47 28 83 28c32 0 56.833 -9.5 74.5 -28.5s26.5 -42.833 26.5 -71.5c0 -13.333 -1.66699 -24.5 -5 -33.5l-10.5 -28.5c-3.66699 -10 -7.16699 -21.5 -10.5 -34.5s-5 -29.833 -5 -50.5v-22
c12.667 29.333 28 48.666 46 57.999s37.333 14 58 14c46 0 80 -16.5 102 -49.5s33 -75.5 33 -127.5c0 -72.667 -17.333 -128.834 -52 -168.501s-87.334 -59.5 -158.001 -59.5c-60.667 0 -105.5 17.5 -134.5 52.5s-43.5 84.833 -43.5 149.5v164zM220.999 222.003
c0 -10.667 1.66602 -20.998 4.99902 -30.998s7.83301 -18.833 13.5 -26.5s12.334 -13.834 20.001 -18.501s16.167 -7 25.5 -7c12 0 20.167 4.16699 24.5 12.5s6.5 15.166 6.5 20.499c0 14 -3.66699 24 -11 30s-16.166 11.167 -26.499 15.5s-20.833 9.83301 -31.5 16.5
s-19.334 18 -26.001 34v-46z" />
    <glyph glyph-name="afii10046" unicode="&#x42c;" horiz-adv-x="499" 
d="M74 367c0 11.333 -1.66992 21.6689 -5.00293 31.002s-7.16602 18.666 -11.499 27.999s-8.16602 19.5 -11.499 30.5s-5 23.833 -5 38.5c0 34.667 9.66699 61.334 29 80.001s47 28 83 28c16.667 0 31.5 -3 44.5 -9s23.833 -14 32.5 -24s15.167 -21.5 19.5 -34.5
s6.5 -26.167 6.5 -39.5c0 -14.667 -1.66699 -27.167 -5 -37.5s-7.16602 -20.5 -11.499 -30.5s-8.16602 -20.5 -11.499 -31.5s-5 -24.5 -5 -40.5v-33c12.667 29.333 28 48.666 46 57.999s37.333 14 58 14c46 0 80 -16.5 102 -49.5s33 -75.5 33 -127.5
c0 -72.667 -17.333 -128.834 -52 -168.501s-87.334 -59.5 -158.001 -59.5c-60.667 0 -105.5 17.5 -134.5 52.5s-43.5 84.833 -43.5 149.5v175zM222.997 222.003c0 -10.667 1.66602 -20.998 4.99902 -30.998s7.83301 -18.833 13.5 -26.5s12.334 -13.834 20.001 -18.501
s16.167 -7 25.5 -7c12 0 20.167 4.16699 24.5 12.5s6.5 15.166 6.5 20.499c0 14 -3.66699 24 -11 30s-16.166 11.167 -26.499 15.5s-20.833 9.83301 -31.5 16.5s-19.334 18 -26.001 34v-46z" />
    <glyph glyph-name="afii10047" unicode="&#x42d;" horiz-adv-x="461" 
d="M198 602c39.333 0 73.1689 -7.66309 101.502 -22.9961s51.5 -36.666 69.5 -63.999s31.167 -59.833 39.5 -97.5s12.5 -78.834 12.5 -123.501c0 -39.333 -3.83301 -77.333 -11.5 -114s-20.167 -69 -37.5 -97s-40.333 -50.5 -69 -67.5s-64.334 -25.5 -107.001 -25.5
c-17.333 0 -35.166 2.5 -53.499 7.5s-35.166 12.5 -50.499 22.5s-28 22.667 -38 38s-15 33.666 -15 54.999c0 25.333 6.83301 46.166 20.5 62.499s33.167 24.5 58.5 24.5c10 0 19 -1.5 27 -4.5s15.5 -6.5 22.5 -10.5s13.833 -7.5 20.5 -10.5s14.334 -4.5 23.001 -4.5
c8 0 15.167 2.16699 21.5 6.5s11.666 9.5 15.999 15.5s7.5 12.5 9.5 19.5s3 13.167 3 18.5c0 7.33301 -2.83301 12.333 -8.5 15s-12.834 4.16699 -21.501 4.5s-17.834 0.666016 -27.501 0.999023s-18.834 1.83301 -27.501 4.5s-15.834 7.33398 -21.501 14.001
s-8.5 17 -8.5 31c0 17.333 6 29.333 18 36s25.167 11.167 39.5 13.5s27.5 4.16602 39.5 5.49902s18 6 18 14c0 5.33301 -1.16699 11.166 -3.5 17.499s-5.66602 12.166 -9.99902 17.499s-9.5 9.83301 -15.5 13.5s-13 5.5 -21 5.5s-15.333 -1.66699 -22 -5l-20 -10.5
c-6.66699 -3.66699 -14 -7.16699 -22 -10.5s-17.667 -5 -29 -5c-26.667 0 -46.5 8.66699 -59.5 26s-19.5 38 -19.5 62c0 22 5.16699 40.667 15.5 56s23.5 27.833 39.5 37.5s33.333 16.834 52 21.501s36 7 52 7z" />
    <glyph glyph-name="afii10048" unicode="&#x42e;" horiz-adv-x="845" 
d="M219 231c0 5.33301 -1.32715 11.998 -3.99414 19.998s-7 12 -13 12c-4 0 -7.5 -2.5 -10.5 -7.5s-7 -10.333 -12 -16s-11.833 -11 -20.5 -16s-21 -7.5 -37 -7.5c-23.333 0 -42.333 8.16699 -57 24.5s-22 34.5 -22 54.5c0 16 3 29.667 9 41s13.833 20.666 23.5 27.999
s20.667 12.666 33 15.999s25.166 5 38.499 5s23.5 -1 30.5 -3s13.5 -3 19.5 -3c6.66699 0 10 2.66699 10 8c0 11.333 -3.83301 21.833 -11.5 31.5s-16.334 19.667 -26.001 30s-18.334 21.5 -26.001 33.5s-11.5 26.333 -11.5 43c0 10.667 2 21.167 6 31.5
s9.66699 19.5 17 27.5s16.166 14.333 26.499 19s21.5 7 33.5 7c37.333 0 67.333 -16.5 90 -49.5s40.667 -77.5 54 -133.5c3.33301 -14.667 5.33301 -28.667 6 -42s1.66699 -25.166 3 -35.499s3.83301 -18.5 7.5 -24.5s10.5 -9 20.5 -9c5.33301 0 10.5 1 15.5 3
s9.16699 5.66699 12.5 11c6.66699 12 14.667 22.667 24 32s21.333 16.333 36 21c-12 2 -22.333 5.83301 -31 11.5s-16 12.5 -22 20.5s-10.5 16.833 -13.5 26.5s-4.5 19.167 -4.5 28.5c0 24 5.33301 44.833 16 62.5s24.334 32.167 41.001 43.5s35.167 19.833 55.5 25.5
s39.833 8.5 58.5 8.5c36 0 67.667 -8 95 -24s50.166 -37.833 68.499 -65.5s32 -60.167 41 -97.5s13.5 -77.333 13.5 -120c0 -37.333 -2.83301 -74.666 -8.5 -111.999s-16 -70.833 -31 -100.5s-35.833 -53.834 -62.5 -72.501s-61 -28 -103 -28
c-30.667 0 -57.667 5.83301 -81 17.5s-43.166 27.334 -59.499 47.001s-28.833 42 -37.5 67s-14 51.167 -16 78.5c-0.666992 4 -2.33398 7.66699 -5.00098 11s-7 5 -13 5s-10.833 -3.66699 -14.5 -11s-5.5 -19.666 -5.5 -36.999v-8c0 -31.333 -5 -65 -15 -101
s-24 -69.167 -42 -99.5s-39.333 -55.666 -64 -75.999s-51.667 -30.5 -81 -30.5c-13.333 0 -26 2.16699 -38 6.5s-22.667 10.5 -32 18.5s-16.833 17.833 -22.5 29.5s-8.5 24.834 -8.5 39.501c0 16 3.5 30 10.5 42s15.5 22.5 25.5 31.5s20.167 17.167 30.5 24.5
s19.166 14.666 26.499 21.999c11.333 11.333 21 24 29 38s14.667 27.667 20 41s9.16602 25.833 11.499 37.5s3.5 21.167 3.5 28.5v19zM648.006 297.998c0 16.667 -0.834961 33.002 -2.50195 49.002s-4.66699 30.167 -9 42.5s-10.166 22.166 -17.499 29.499
s-16.666 11 -27.999 11s-22 -5.66699 -32 -17s-17.667 -23.333 -23 -36c15.333 -10 23 -22.667 23 -38c0 -12.667 -2.16699 -25 -6.5 -37s-6.5 -25.667 -6.5 -41v-26c0 -22.667 4 -40.834 12 -54.501s19.667 -20.5 35 -20.5c12 0 21.667 3.33301 29 10s13 15 17 25
s6.5 21 7.5 33s1.5 23.333 1.5 34v36z" />
    <glyph glyph-name="afii10049" unicode="&#x42f;" horiz-adv-x="538" 
d="M249 40c0 -16 -2.49805 -32.3213 -7.49805 -48.9883s-12.333 -31.834 -22 -45.501s-21.334 -25 -35.001 -34s-29.5 -13.5 -47.5 -13.5c-13.333 0 -26.333 2.5 -39 7.5s-23.834 12 -33.501 21s-17.5 19.833 -23.5 32.5s-9 26.334 -9 41.001
c0 16.667 2.83301 29.667 8.5 39s12.334 17.666 20.001 24.999l24.5 23c8.66699 8 16 19.333 22 34c2 4.66699 3.16699 9.66699 3.5 15s1 11.333 2 18s2.66699 14.334 5 23.001s6.16602 19 11.499 31c4.66699 10.667 9.16699 19.167 13.5 25.5s8 11.166 11 14.499
s5.33301 5.66602 7 6.99902s2.5 2.66602 2.5 3.99902c0 4.66699 -4.33301 10 -13 16s-18.334 14.167 -29.001 24.5s-20.334 23.666 -29.001 39.999s-13 37.5 -13 63.5c0 33.333 6.33301 62.333 19 87s30 45 52 61s47.5 28 76.5 36s59.5 12 91.5 12
c22.667 0 45 -1.83301 67 -5.5s41.667 -10 59 -19s31.333 -21 42 -36s16 -33.5 16 -55.5c0 -10 -1.66699 -20.167 -5 -30.5s-8 -19.833 -14 -28.5s-13.167 -15.834 -21.5 -21.501s-17.166 -8.5 -26.499 -8.5h-10c-4 0 -6 -1.66699 -6 -5c0 -4 1.33301 -7.5 4 -10.5
s5.83398 -6.83301 9.50098 -11.5s6.83398 -10.834 9.50098 -18.501s4 -17.5 4 -29.5c0 -6 -1.16699 -12.333 -3.5 -19l-7.5 -21.5c-2.66699 -7.66699 -5.16699 -15.834 -7.5 -24.501s-3.5 -18.334 -3.5 -29.001c0 -13.333 2.66699 -25.833 8 -37.5
s11.166 -23.167 17.499 -34.5s12.166 -22.833 17.499 -34.5s8 -23.834 8 -36.501c0 -15.333 -2.66699 -28.833 -8 -40.5s-12.166 -21.334 -20.499 -29.001s-18 -13.334 -29 -17.001s-21.833 -5.5 -32.5 -5.5c-16 0 -30.833 4.16699 -44.5 12.5s-25.5 19.333 -35.5 33
s-17.833 29.167 -23.5 46.5s-8.5 35 -8.5 53v26c0 7.33301 -3.33301 11 -10 11s-11.167 -5 -13.5 -15s-3.5 -24 -3.5 -42c0 -3.33301 0.5 -7.83301 1.5 -13.5s1.5 -10.834 1.5 -15.501v-46zM234.002 359.012c0 -12.667 4.66797 -23.833 14.001 -33.5s20.333 -14.5 33 -14.5
c8 0 13.167 3 15.5 9s4.66602 13.333 6.99902 22s6.33301 18 12 28s16.167 19.333 31.5 28c-4 1.33301 -8.83301 2.5 -14.5 3.5l-17.5 3c-6 1 -11.667 1.83301 -17 2.5s-9.33301 1 -12 1c-18.667 0 -32 -5.33301 -40 -16s-12 -21.667 -12 -33z" />
    <glyph glyph-name="afii10065" unicode="&#x430;" horiz-adv-x="448" 
d="M391 167c0 -8.66699 1.83203 -16.1611 5.49902 -22.4941l11.5 -19.5c4 -6.66699 7.83301 -13.834 11.5 -21.501s5.5 -16.834 5.5 -27.501c0 -24.667 -8.5 -45 -25.5 -61s-37.167 -24 -60.5 -24c-16 0 -32.5 3.5 -49.5 10.5s-30.833 20.167 -41.5 39.5
c-15.333 -16.667 -32.666 -29.167 -51.999 -37.5s-38 -12.5 -56 -12.5c-16.667 0 -31.834 3.16699 -45.501 9.5s-25.5 14.833 -35.5 25.5s-17.667 23.167 -23 37.5s-8 29.166 -8 44.499c0 29.333 5.5 52.666 16.5 69.999s25 30.833 42 40.5s35.167 16.5 54.5 20.5l54.5 11.5
c17 3.66699 31 8 42 13s16.5 13.167 16.5 24.5c0 6 -4.16699 10.667 -12.5 14s-15.833 5 -22.5 5c-10 0 -18.5 -2.33301 -25.5 -7s-14 -9.83398 -21 -15.501s-14.667 -10.834 -23 -15.501s-18.833 -7 -31.5 -7c-14.667 0 -29 5.66699 -43 17s-21 27.666 -21 48.999
c0 20.667 5.5 38.167 16.5 52.5s24.833 25.833 41.5 34.5s35.167 14.834 55.5 18.501s39.833 5.5 58.5 5.5c60.667 0 104.334 -9.16699 131.001 -27.5s40 -48.833 40 -91.5c0 -17.333 -1 -35 -3 -53s-3 -37.667 -3 -59v-41zM257.999 180.006
c-10 -4.66699 -19.8301 -8.16797 -29.4971 -10.501s-18.334 -4.66602 -26.001 -6.99902s-14 -5.83301 -19 -10.5s-7.5 -11.667 -7.5 -21c0 -8.66699 3.83301 -15.167 11.5 -19.5s15.167 -6.5 22.5 -6.5c10 0 18.167 2.33301 24.5 7s11.166 10.5 14.499 17.5
s5.66602 15 6.99902 24s2 17.833 2 26.5z" />
    <glyph glyph-name="afii10066" unicode="&#x431;" horiz-adv-x="422" 
d="M29 203c0 17.333 2 36.1631 6 56.4961s11.167 39 21.5 56s24.166 31.167 41.499 42.5s39 17 65 17c14 0 26.333 -2.66699 37 -8s20.667 -15.666 30 -30.999c-0.666992 16 -6 28.833 -16 38.5s-22 17.834 -36 24.501s-29.167 12.834 -45.5 18.501s-31.333 12.667 -45 21
s-25.167 18.666 -34.5 30.999s-14 28.5 -14 48.5c0 24.667 8.33301 43 25 55c4.66699 3.33301 9.66699 5.83301 15 7.5l24 7.5c10.667 3.33301 24.834 8.66602 42.501 15.999s41.167 18.333 70.5 33c12.667 6.66699 23.5 12.667 32.5 18l24 14c7 4 13.333 7 19 9
s11.834 3 18.501 3c20 0 35.833 -7.16699 47.5 -21.5s17.5 -32.5 17.5 -54.5c0 -17.333 -4.5 -30.833 -13.5 -40.5s-20.333 -16.667 -34 -21s-28.334 -7.16602 -44.001 -8.49902s-30.334 -2.66602 -44.001 -3.99902s-25 -3.33301 -34 -6s-13.5 -8 -13.5 -16
s5 -15.167 15 -21.5s22.333 -13.666 37 -21.999s30.834 -18.5 48.501 -30.5s33.834 -27.333 48.501 -46s27 -41.5 37 -68.5s15 -59.833 15 -98.5c0 -30 -3.33301 -58.833 -10 -86.5s-17.334 -52.167 -32.001 -73.5s-33.5 -38.5 -56.5 -51.5s-50.833 -19.5 -83.5 -19.5
c-30 0 -56.333 5.5 -79 16.5s-41.667 26 -57 45s-26.833 41.333 -34.5 67s-11.5 53.5 -11.5 83.5zM182 177.997c0 -11.333 2 -21.5 6 -30.5s11.667 -13.5 23 -13.5s19 4.5 23 13.5s6 19.167 6 30.5v36c0 11.333 -2 21.5 -6 30.5s-11.667 13.5 -23 13.5s-19 -4.5 -23 -13.5
s-6 -19.167 -6 -30.5v-36z" />
    <glyph glyph-name="afii10067" unicode="&#x432;" horiz-adv-x="422" 
d="M229 577c16.667 0 33.8311 -2.5 51.498 -7.5s33.834 -12.333 48.501 -22s26.5 -22 35.5 -37s13.5 -32.5 13.5 -52.5c0 -27.333 -6.5 -50 -19.5 -68s-27.833 -32.667 -44.5 -44c18 -8 32.333 -17.833 43 -29.5s18.834 -23.834 24.501 -36.501s9.33398 -25 11.001 -37
s2.5 -23 2.5 -33c0 -32 -4.16699 -61.333 -12.5 -88s-20.5 -49.667 -36.5 -69s-35.333 -34.5 -58 -45.5s-48.334 -16.5 -77.001 -16.5c-31.333 0 -58.5 5.83301 -81.5 17.5s-42 27.834 -57 48.501s-26 45.5 -33 74.5s-10.5 60.833 -10.5 95.5
c0 114.667 15.5 201.667 46.5 261s82.167 89 153.5 89zM182.997 363l37 27.001c17.333 13.333 29.166 23.5 35.499 30.5s9.5 14.167 9.5 21.5c0 8.66699 -3.33301 15.5 -10 20.5s-14 7.5 -22 7.5c-9.33301 0 -17.166 -2.5 -23.499 -7.5s-11.5 -11.333 -15.5 -19
s-6.83301 -15.834 -8.5 -24.501s-2.5 -16.667 -2.5 -24v-32zM182.997 174.001c0 -11.333 2 -21.5 6 -30.5s11.667 -13.5 23 -13.5s19 4.5 23 13.5s6 19.167 6 30.5v65c0 11.333 -2 21.5 -6 30.5s-11.667 13.5 -23 13.5s-19 -4.5 -23 -13.5s-6 -19.167 -6 -30.5v-65z" />
    <glyph glyph-name="afii10068" unicode="&#x433;" horiz-adv-x="410" 
d="M61 347c0 16.667 4.00781 30.833 12.0078 42.5s18.5 21.167 31.5 28.5s27.667 12.666 44 15.999s32.5 5 48.5 5c23.333 0 45.666 -2.66699 66.999 -8s40 -13.333 56 -24s28.833 -24 38.5 -40s14.5 -34.333 14.5 -55c0 -20 -4.83301 -36.667 -14.5 -50
s-21.667 -24.5 -36 -33.5s-30 -16.5 -47 -22.5l-47 -17c-14.333 -5.33301 -26.333 -11.333 -36 -18s-14.5 -15 -14.5 -25c0 -3.33301 1 -6.16602 3 -8.49902s4.66699 -3.5 8 -3.5c4 0 8.66699 2 14 6s12.166 8.16699 20.499 12.5s18.166 8.5 29.499 12.5s24.666 6 39.999 6
c26 0 46.833 -6.83301 62.5 -20.5s23.5 -31.167 23.5 -52.5c0 -17.333 -5.66699 -32.666 -17 -45.999s-25.5 -24.5 -42.5 -33.5s-35.667 -15.833 -56 -20.5s-39.5 -7 -57.5 -7c-24 0 -46.667 3.5 -68 10.5s-40 17 -56 30s-28.667 29 -38 48s-14 40.5 -14 64.5
c0 23.333 4.66699 42 14 56s21.166 25 35.499 33s29.666 14 45.999 18s31.666 7.33301 45.999 10s26.166 5.5 35.499 8.5s14 8.16699 14 15.5c0 12.667 -7.33301 19 -22 19c-6.66699 0 -12 -0.833008 -16 -2.5s-8 -3.66699 -12 -6s-8.66699 -4.33301 -14 -6
s-12.333 -2.5 -21 -2.5c-24 0 -42.5 5.66699 -55.5 17s-19.5 25.666 -19.5 42.999z" />
    <glyph glyph-name="afii10069" unicode="&#x434;" horiz-adv-x="435" 
d="M384 -54c0 -25.333 -4.16113 -45.8311 -12.4941 -61.498s-21.166 -27.834 -38.499 -36.501s-39 -14.5 -65 -17.5s-56.333 -4.5 -91 -4.5c-21.333 0 -41 1.16699 -59 3.5s-33.833 6.5 -47.5 12.5s-24.334 14.167 -32.001 24.5s-11.5 23.5 -11.5 39.5
c0 21.333 7.66699 39.333 23 54s35.666 22 60.999 22c13.333 0 24.166 -1.5 32.499 -4.5s15.5 -6.5 21.5 -10.5s11.667 -7.5 17 -10.5s11.666 -4.5 18.999 -4.5c19.333 0 29 11.333 29 34v34c-10.667 -8 -22.834 -14.833 -36.501 -20.5s-27.167 -8.5 -40.5 -8.5
c-24.667 0 -44.834 7.33301 -60.501 22s-28 33.5 -37 56.5s-15.333 48.833 -19 77.5s-5.5 56.667 -5.5 84c0 22 1.66699 45.167 5 69.5s9.33301 46.833 18 67.5s20.667 37.667 36 51s35 20 59 20c34 0 62.667 -14.667 86 -44c6 14 15.167 24.833 27.5 32.5
s26.166 11.5 41.499 11.5c14 0 27.167 -2.33301 39.5 -7s23 -11.167 32 -19.5s16.167 -17.833 21.5 -28.5s8 -22 8 -34c0 -8 -1.16699 -15.167 -3.5 -21.5l-7 -18.5l-7 -17.5c-2.33301 -5.66699 -3.5 -11.834 -3.5 -18.501v-328zM185.006 167.002
c0 -8 1.66699 -15.833 5 -23.5s10 -11.5 20 -11.5s16.667 3.83301 20 11.5s5 15.5 5 23.5v77c0 8 -1.66699 15.833 -5 23.5s-10 11.5 -20 11.5s-16.667 -3.83301 -20 -11.5s-5 -15.5 -5 -23.5v-77z" />
    <glyph glyph-name="afii10070" unicode="&#x435;" horiz-adv-x="410" 
d="M30 207c0 34.667 5 66.3291 15 94.9961s23.833 53.167 41.5 73.5s38.5 36 62.5 47s50 16.5 78 16.5c22.667 0 43.5 -4.16699 62.5 -12.5s35.167 -19.166 48.5 -32.499s23.666 -28.5 30.999 -45.5s11 -34.5 11 -52.5c0 -23.333 -5.16699 -43 -15.5 -59
s-24 -29.667 -41 -41s-36.833 -21.166 -59.5 -29.499s-46.334 -16.166 -71.001 -23.499c1.33301 -4.66699 4 -9.5 8 -14.5s8.66699 -7.5 14 -7.5c7.33301 0 14.5 2.33301 21.5 7l21.5 15c7.33301 5.33301 15 10.333 23 15s17 7 27 7c18 0 33.167 -6.5 45.5 -19.5
s18.5 -29.167 18.5 -48.5c0 -12.667 -4.66699 -25.334 -14 -38.001s-21.666 -24 -36.999 -34s-32.666 -18.167 -51.999 -24.5s-39 -9.5 -59 -9.5c-29.333 0 -55.333 6.33301 -78 19s-41.5 29.334 -56.5 50.001s-26.333 43.834 -34 69.501s-11.5 51.5 -11.5 77.5z
M213 306.995c-15.333 0 -26.1689 -4.50098 -32.502 -13.501s-9.5 -19.167 -9.5 -30.5c0 -9.33301 1 -17 3 -23c14.667 3.33301 28.834 8.33301 42.501 15s20.5 16 20.5 28c0 6.66699 -2.16699 12.334 -6.5 17.001s-10.166 7 -17.499 7z" />
    <glyph glyph-name="afii10072" unicode="&#x436;" horiz-adv-x="704" 
d="M99 275c-9.33301 0 -18.1611 2.66699 -26.4941 8s-15.833 12 -22.5 20s-11.834 17 -15.501 27s-5.5 19.667 -5.5 29c0 10 2.33301 19.833 7 29.5s10.834 18.334 18.501 26.001s16.667 13.667 27 18s21.166 6.5 32.499 6.5c29.333 0 57 -11 83 -33
c7.33301 -6 14.333 -17 21 -33l20 -49c6.66699 -16.667 13.167 -31.5 19.5 -44.5s13.166 -19.5 20.499 -19.5c2 0 3 1.33301 3 4c0 6 -1.16699 12.667 -3.5 20s-4.83301 14.666 -7.5 21.999s-5.16699 14.833 -7.5 22.5s-3.5 14.834 -3.5 21.501
c0 12.667 2.66699 24.334 8 35.001s12.5 20 21.5 28s19 14.333 30 19s22.167 7 33.5 7s22.5 -2.33301 33.5 -7s21 -11 30 -19s16.167 -17.333 21.5 -28s8 -22.334 8 -35.001c0 -6.66699 -1.16699 -13.834 -3.5 -21.501s-4.83301 -15.167 -7.5 -22.5
s-5.16699 -14.666 -7.5 -21.999s-3.5 -14 -3.5 -20c0 -2.66699 1 -4 3 -4c7.33301 0 14.166 6.5 20.499 19.5s12.833 27.833 19.5 44.5l20 49c6.66699 16 13.667 27 21 33c26 22 53.667 33 83 33c11.333 0 22.166 -2.16699 32.499 -6.5s19.333 -10.333 27 -18
s13.834 -16.334 18.501 -26.001s7 -19.5 7 -29.5c0 -9.33301 -1.83301 -19 -5.5 -29s-8.83398 -19 -15.501 -27s-14.167 -14.667 -22.5 -20s-17.166 -8 -26.499 -8h-20c-6.66699 0 -13.167 -1.83301 -19.5 -5.5s-9.5 -14.167 -9.5 -31.5c0 -18 5.5 -31.167 16.5 -39.5
s23.333 -16.5 37 -24.5s26 -18 37 -30s16.5 -30.333 16.5 -55c0 -28 -9.16699 -51.333 -27.5 -70s-40.833 -28 -67.5 -28c-15.333 0 -28.5 3.33301 -39.5 10s-20.333 15.834 -28 27.501s-13.334 25.334 -17.001 41.001s-5.5 32.5 -5.5 50.5v10
c0 13.333 -3.83301 26.333 -11.5 39s-17.5 19 -29.5 19c-3.33301 0 -6.5 -1.33301 -9.5 -4s-4.5 -6.66699 -4.5 -12s1.16699 -11.166 3.5 -17.499l8 -21c3 -7.66699 5.66699 -15.834 8 -24.501s3.5 -17.334 3.5 -26.001c0 -10 -2.16699 -20.5 -6.5 -31.5
s-10.5 -21 -18.5 -30s-17.833 -16.333 -29.5 -22s-24.834 -8.5 -39.501 -8.5c-15.333 0 -28.833 2.83301 -40.5 8.5s-21.5 13 -29.5 22s-14 19 -18 30s-6 21.5 -6 31.5c0 8.66699 1.16699 17.334 3.5 26.001s5 16.834 8 24.501l8 21c2.33301 6.33301 3.5 12.166 3.5 17.499
s-1.5 9.33301 -4.5 12s-6.16699 4 -9.5 4c-12 0 -21.833 -6.33301 -29.5 -19s-11.5 -25.667 -11.5 -39v-10c0 -18 -1.83301 -34.833 -5.5 -50.5s-9.33398 -29.334 -17.001 -41.001s-17.167 -20.834 -28.5 -27.501s-24.333 -10 -39 -10c-26.667 0 -49.167 9.33301 -67.5 28
s-27.5 42 -27.5 70c0 24.667 5.5 43 16.5 55s23.333 22 37 30s26 16.167 37 24.5s16.5 21.5 16.5 39.5c0 17.333 -3.16699 27.833 -9.5 31.5s-12.833 5.5 -19.5 5.5h-20z" />
    <glyph glyph-name="afii10073" unicode="&#x437;" horiz-adv-x="410" 
d="M37 333c0 16 5.6709 30.668 17.0039 44.001s25.5 24.5 42.5 33.5s35.5 16 55.5 21s38.667 7.5 56 7.5c20 0 39.667 -3.33301 59 -10s36.666 -15.667 51.999 -27s27.666 -24.833 36.999 -40.5s14 -32.5 14 -50.5c0 -19.333 -6 -36.5 -18 -51.5s-25.333 -28.167 -40 -39.5
c24 -10.667 42 -24.334 54 -41.001s18 -35.334 18 -56.001c0 -20 -5 -38.167 -15 -54.5s-23.167 -30.333 -39.5 -42s-35.333 -20.5 -57 -26.5s-44.167 -9 -67.5 -9c-18 0 -37.5 2.16699 -58.5 6.5s-40.5 11 -58.5 20s-32.833 20.5 -44.5 34.5s-17.5 31 -17.5 51
c0 8.66699 1.83301 17 5.5 25s8.5 15.167 14.5 21.5s13 11.333 21 15s16 5.5 24 5.5c12.667 0 23 -2.5 31 -7.5s15.167 -10.667 21.5 -17s12.833 -12 19.5 -17s15.334 -7.5 26.001 -7.5c8 0 16.5 3.66699 25.5 11s13.5 14.666 13.5 21.999c0 10 -4 16.667 -12 20
s-17 6.33301 -27 9s-19 5.83398 -27 9.50098s-12 11.167 -12 22.5c0 10 3.66699 16.667 11 20s15.166 6.33301 23.499 9s16.166 6.33398 23.499 11.001s11 13 11 25c0 9.33301 -4.16699 16.333 -12.5 21s-15.5 7 -21.5 7c-8 0 -14.833 -2.16699 -20.5 -6.5l-17.5 -14
c-6 -5 -12.833 -9.5 -20.5 -13.5s-17.834 -6 -30.501 -6c-18 0 -32.333 6.16699 -43 18.5s-16 27.833 -16 46.5z" />
    <glyph glyph-name="afii10074" unicode="&#x438;" 
d="M415 171c0 -8 1.33301 -16.1699 4 -24.5029s5.83398 -16.666 9.50098 -24.999s6.83398 -16.666 9.50098 -24.999s4 -16.833 4 -25.5c0 -20.667 -8.66699 -39.167 -26 -55.5s-40.666 -24.5 -69.999 -24.5c-17.333 0 -33.333 3.83301 -48 11.5s-27.334 20.167 -38.001 37.5
c-14.667 -13.333 -32 -24.833 -52 -34.5s-39.333 -14.5 -58 -14.5c-18 0 -33.667 3.16699 -47 9.5s-24.333 14.833 -33 25.5s-15 23 -19 37s-6 28.667 -6 44c0 12.667 0.666992 26.334 2 41.001l4 43.5c1.33301 14.333 2.66602 27.833 3.99902 40.5s2 24 2 34
c0 8 -1.33301 15.167 -4 21.5l-8.5 19.5c-3 6.66699 -5.83301 13.5 -8.5 20.5s-4 15.167 -4 24.5c0 24.667 8.66699 45.334 26 62.001s38.333 25 63 25s45.5 -8.83301 62.5 -26.5s25.5 -43.834 25.5 -78.501c0 -20.667 -1.83301 -43.667 -5.5 -69s-5.5 -50 -5.5 -74
c0 -14 2 -26 6 -36s10 -15 18 -15c19.333 0 31.666 7.66699 36.999 23s8 32.666 8 51.999v35c0 15.333 -3.66699 31.833 -11 49.5s-11 35.167 -11 52.5c0 28.667 9 50.334 27 65.001s40 22 66 22c22.667 0 42.167 -7.83301 58.5 -23.5s24.5 -36.167 24.5 -61.5
c0 -14 -1 -27.5 -3 -40.5s-3 -27.167 -3 -42.5v-100z" />
    <glyph glyph-name="afii10075" unicode="&#x439;" 
d="M182 632c6.66699 0 13.835 -0.999023 21.502 -2.99902s14.834 -5.16699 21.501 -9.5s12 -9.66602 16 -15.999s6 -13.833 6 -22.5c0 -3.33301 -0.833008 -6.5 -2.5 -9.5s-2.5 -5.83301 -2.5 -8.5c0 -4 1.66699 -7.83301 5 -11.5s8.66602 -5.5 15.999 -5.5
s14.5 2.66699 21.5 8s13.833 11.166 20.5 17.499s13.5 12.166 20.5 17.499s14.5 8 22.5 8c6 0 11.333 -2 16 -6s7 -9 7 -15c0 -8 -4.33301 -18 -13 -30s-20.167 -23.5 -34.5 -34.5s-30.333 -20.333 -48 -28s-35.5 -11.5 -53.5 -11.5c-12 0 -24.333 1.83301 -37 5.5
s-24.334 9.16699 -35.001 16.5s-19.5 16.833 -26.5 28.5s-10.5 25.5 -10.5 41.5c0 19.333 6.66699 35.5 20 48.5s29.666 19.5 48.999 19.5zM415.001 171.001c0 -8 1.33301 -16.1699 4 -24.5029s5.83398 -16.666 9.50098 -24.999s6.83398 -16.666 9.50098 -24.999
s4 -16.833 4 -25.5c0 -20.667 -8.66699 -39.167 -26 -55.5s-40.666 -24.5 -69.999 -24.5c-17.333 0 -33.333 3.83301 -48 11.5s-27.334 20.167 -38.001 37.5c-14.667 -13.333 -32 -24.833 -52 -34.5s-39.333 -14.5 -58 -14.5c-18 0 -33.667 3.16699 -47 9.5
s-24.333 14.833 -33 25.5s-15 23 -19 37s-6 28.667 -6 44c0 12.667 0.666992 26.334 2 41.001l4 43.5c1.33301 14.333 2.66602 27.833 3.99902 40.5s2 24 2 34c0 8 -1.33301 15.167 -4 21.5l-8.5 19.5c-3 6.66699 -5.83301 13.5 -8.5 20.5s-4 15.167 -4 24.5
c0 24.667 8.66699 45.334 26 62.001s38.333 25 63 25s45.5 -8.83301 62.5 -26.5s25.5 -43.834 25.5 -78.501c0 -20.667 -1.83301 -43.667 -5.5 -69s-5.5 -50 -5.5 -74c0 -14 2 -26 6 -36s10 -15 18 -15c19.333 0 31.666 7.66699 36.999 23s8 32.666 8 51.999v35
c0 15.333 -3.66699 31.833 -11 49.5s-11 35.167 -11 52.5c0 28.667 9 50.334 27 65.001s40 22 66 22c22.667 0 42.167 -7.83301 58.5 -23.5s24.5 -36.167 24.5 -61.5c0 -14 -1 -27.5 -3 -40.5s-3 -27.167 -3 -42.5v-100z" />
    <glyph glyph-name="afii10076" unicode="&#x43a;" 
d="M59 258c0 8 -1.33398 15.6611 -4.00098 22.9941s-5.66699 14.5 -9 21.5s-6.33301 14.333 -9 22s-4 15.834 -4 24.501c0 12 2.16699 23.333 6.5 34s10.5 20.167 18.5 28.5s17.333 15 28 20s22 7.5 34 7.5c24.667 0 46.334 -7.66699 65.001 -23s28 -38.666 28 -69.999v-72
c0 -3.33301 1.33301 -5 4 -5c4 0 7.5 4.16699 10.5 12.5s6.5 18.833 10.5 31.5s9 26.334 15 41.001s13.833 28.334 23.5 41.001s21.667 23.167 36 31.5s31.833 12.5 52.5 12.5c22.667 0 42.167 -8 58.5 -24s24.5 -35.333 24.5 -58c0 -10 -2 -19.833 -6 -29.5
s-9.33301 -18.5 -16 -26.5s-14.5 -14.333 -23.5 -19s-18.833 -7 -29.5 -7c-2 0 -4.33301 0.333008 -7 1s-5.33398 1 -8.00098 1c-6 0 -10.167 -4.66699 -12.5 -14s-3.5 -17.666 -3.5 -24.999c0 -16.667 5.5 -29.834 16.5 -39.501s23 -19.167 36 -28.5s25 -20.333 36 -33
s16.5 -30.667 16.5 -54c0 -11.333 -2.5 -22.333 -7.5 -33s-11.667 -20.5 -20 -29.5s-18.333 -16.167 -30 -21.5s-24.5 -8 -38.5 -8c-19.333 0 -35.166 4.33301 -47.499 13s-22 19.5 -29 32.5s-12.167 27.167 -15.5 42.5l-9 42.5c-2.66699 13 -5.66699 23.833 -9 32.5
s-8 13 -14 13c-2 0 -4.83301 -1 -8.5 -3s-5.5 -4.66699 -5.5 -8v-78c0 -10 -2.33301 -20.167 -7 -30.5s-11 -19.666 -19 -27.999s-17.5 -15.166 -28.5 -20.499s-22.833 -8 -35.5 -8c-26 0 -47.833 9 -65.5 27s-26.5 40.333 -26.5 67c0 7.33301 1.5 14.833 4.5 22.5l9.5 23.5
c3.33301 8 6.5 16 9.5 24s4.5 16 4.5 24v79z" />
    <glyph glyph-name="afii10077" unicode="&#x43b;" horiz-adv-x="499" 
d="M29 83c0 14.667 3.49707 27.8311 10.4971 39.498s15.333 22.834 25 33.501s19 21.5 28 32.5s15.5 23.5 19.5 37.5l7.5 31c3 12.667 6.5 26.334 10.5 41.001s8.83301 29.167 14.5 43.5s12.167 26.5 19.5 36.5c8.66699 12 17 22 25 30s16.333 14.333 25 19
s18.167 7.83398 28.5 9.50098s22.5 2.5 36.5 2.5c20.667 0 38.834 -4.16699 54.501 -12.5s31.167 -23.166 46.5 -44.499c4.66699 -7.33301 12 -22.833 22 -46.5s20 -50.334 30 -80.001s18.833 -59.5 26.5 -89.5s11.5 -55 11.5 -75c0 -32 -8.66699 -56.667 -26 -74
s-41 -26 -71 -26c-28 0 -50.667 7.66699 -68 23s-26 36.666 -26 63.999c0 10.667 1.33301 20.334 4 29.001s5.5 17 8.5 25l8.5 23c2.66699 7.33301 4 15.666 4 24.999c0 12 -0.833008 24 -2.5 36s-4 23 -7 33s-6.66699 18.167 -11 24.5s-9.16602 9.5 -14.499 9.5
c-6.66699 0 -11.167 -7.16699 -13.5 -21.5s-4.66602 -32.333 -6.99902 -54s-5.5 -45.167 -9.5 -70.5s-10.667 -48.833 -20 -70.5s-22.333 -39.667 -39 -54s-38.667 -21.5 -66 -21.5c-28 0 -49.167 9.33301 -63.5 28s-21.5 40 -21.5 64z" />
    <glyph glyph-name="afii10078" unicode="&#x43c;" horiz-adv-x="627" 
d="M141 439c15.333 0 31.001 -4.16699 47.001 -12.5s31.5 -19.333 46.5 -33s29.167 -29.5 42.5 -47.5s25.333 -37 36 -57c10.667 20 22.667 39 36 57s27.5 33.833 42.5 47.5s30.5 24.667 46.5 33s31.667 12.5 47 12.5c26.667 0 48.834 -8.33301 66.501 -25
s26.5 -39 26.5 -67c0 -26.667 -2.16699 -50.834 -6.5 -72.501s-6.5 -44.5 -6.5 -68.5c0 -17.333 2 -31.166 6 -41.499s8.16699 -19.333 12.5 -27s8.5 -15.667 12.5 -24s6 -19.166 6 -32.499c0 -26.667 -8.33301 -48.334 -25 -65.001s-36.667 -25 -60 -25
c-20 0 -36.833 3.33301 -50.5 10s-24.5 15.667 -32.5 27s-13.667 24.666 -17 39.999s-5 32 -5 50c0 13.333 1 25.5 3 36.5s4.33301 21.333 7 31s5 19.334 7 29.001s3 19.5 3 29.5c0 3.33301 -1 5 -3 5c-1.33301 0 -4.33301 -2.66699 -9 -8s-9.83398 -13 -15.501 -23
s-11.334 -22 -17.001 -36s-10.5 -29.667 -14.5 -47c-3.33301 -13.333 -5.66602 -28 -6.99902 -44s-3.66602 -30.667 -6.99902 -44s-8.5 -24.5 -15.5 -33.5s-17.167 -13.5 -30.5 -13.5s-23.5 4.5 -30.5 13.5s-12.167 20.167 -15.5 33.5s-5.83301 28 -7.5 44
s-3.83398 30.667 -6.50098 44c-4 17.333 -8.83301 33 -14.5 47s-11.334 26 -17.001 36s-10.834 17.667 -15.501 23s-7.66699 8 -9 8c-2 0 -3 -1.66699 -3 -5c0 -10 1 -19.833 3 -29.5s4.33301 -19.334 7 -29.001s5 -20 7 -31s3 -23.167 3 -36.5
c0 -18 -1.66699 -34.667 -5 -50s-9 -28.666 -17 -39.999s-18.833 -20.333 -32.5 -27s-30.5 -10 -50.5 -10c-23.333 0 -43.333 8.33301 -60 25s-25 38.334 -25 65.001c0 13.333 2 24.166 6 32.499s8.16699 16.333 12.5 24s8.5 16.667 12.5 27s6 24.166 6 41.499
c0 24 -2.16699 46.833 -6.5 68.5s-6.5 45.834 -6.5 72.501c0 28 8.83301 50.333 26.5 67s39.834 25 66.501 25z" />
    <glyph glyph-name="afii10079" unicode="&#x43d;" 
d="M56 256c0 7.33301 -1.33496 14.833 -4.00195 22.5l-8.5 23.5c-3 8 -5.66699 15.833 -8 23.5s-3.5 15.5 -3.5 23.5c0 12 2.33301 23.333 7 34s11 20.167 19 28.5s17.5 15 28.5 20s22.5 7.5 34.5 7.5c26 0 47 -9 63 -27s24 -39.667 24 -65v-72
c0 -2.66699 2 -5.16699 6 -7.5s8.66699 -3.5 14 -3.5h16c5.33301 0 10 1.16699 14 3.5s6 4.83301 6 7.5v72c0 25.333 8 47 24 65s37 27 63 27c12 0 23.5 -2.5 34.5 -7.5s20.5 -11.667 28.5 -20s14.333 -17.833 19 -28.5s7 -22 7 -34c0 -8 -1.33301 -15.833 -4 -23.5
l-8.5 -23.5c-3 -8 -5.66699 -15.833 -8 -23.5s-3.5 -15.167 -3.5 -22.5v-82c0 -7.33301 1.16699 -14.833 3.5 -22.5s5 -15.5 8 -23.5l8.5 -23.5c2.66699 -7.66699 4 -15.5 4 -23.5c0 -12 -2.33301 -23.333 -7 -34s-11 -20.167 -19 -28.5s-17.5 -15 -28.5 -20
s-22.5 -7.5 -34.5 -7.5c-26 0 -47 9 -63 27s-24 39.667 -24 65v72c-2.66699 4.66699 -6.66699 7.66699 -12 9s-10.666 2 -15.999 2s-10.666 -0.666992 -15.999 -2s-9.33301 -4.33301 -12 -9v-72c0 -25.333 -8 -47 -24 -65s-37 -27 -63 -27c-12 0 -23.5 2.5 -34.5 7.5
s-20.5 11.667 -28.5 20s-14.333 17.833 -19 28.5s-7 22 -7 34c0 8 1.16699 15.833 3.5 23.5s5 15.5 8 23.5l8.5 23.5c2.66699 7.66699 4 15.167 4 22.5v82z" />
    <glyph glyph-name="afii10080" unicode="&#x43e;" horiz-adv-x="435" 
d="M29 215c0 37.333 4.83301 70 14.5 98s23 51.333 40 70s37 32.667 60 42s47.5 14 73.5 14s50.333 -4.66699 73 -14s42.5 -23.333 59.5 -42s30.5 -42 40.5 -70s15 -60.667 15 -98s-5 -70 -15 -98s-23.5 -51.333 -40.5 -70s-36.833 -32.667 -59.5 -42s-47 -14 -73 -14
s-50.5 4.66699 -73.5 14s-43 23.333 -60 42s-30.333 42 -40 70s-14.5 60.667 -14.5 98zM187 181c0 -13.333 2.16699 -24.5 6.5 -33.5s12.166 -13.5 23.499 -13.5s19.166 4.5 23.499 13.5s6.5 20.167 6.5 33.5v68c0 13.333 -2.16699 24.5 -6.5 33.5
s-12.166 13.5 -23.499 13.5s-19.166 -4.5 -23.499 -13.5s-6.5 -20.167 -6.5 -33.5v-68z" />
    <glyph glyph-name="afii10081" unicode="&#x43f;" 
d="M56 263c0 8 -1.33301 15.3311 -4 21.998s-5.5 13.334 -8.5 20.001s-5.66699 13.5 -8 20.5s-3.5 14.833 -3.5 23.5c0 12.667 2.83301 24.5 8.5 35.5s13 20.5 22 28.5s19.333 14.333 31 19s23.5 7 35.5 7c17.333 0 32.333 -3.66699 45 -11s24.667 -18.333 36 -33
c22 16.667 42.167 28.167 60.5 34.5s34.833 9.5 49.5 9.5c28.667 0 52.167 -7.5 70.5 -22.5s27.5 -39.5 27.5 -73.5c0 -13.333 -1.33301 -31.333 -4 -54s-4 -46.667 -4 -72c0 -23.333 1.83301 -41.333 5.5 -54s7.66699 -23.5 12 -32.5l12 -25.5
c3.66699 -8 5.5 -18.333 5.5 -31c0 -23.333 -9 -43 -27 -59s-39.667 -24 -65 -24c-30 0 -52.833 9.16699 -68.5 27.5s-23.5 49.166 -23.5 92.499c0 12 0.5 22.833 1.5 32.5l3 30c1 10.333 2 21.333 3 33s1.5 25.5 1.5 41.5c0 13.333 -2.5 23.666 -7.5 30.999
s-11.167 11 -18.5 11c-16.667 0 -27.834 -5.33301 -33.501 -16s-8.5 -24 -8.5 -40v-44c0 -12 1.16699 -22.5 3.5 -31.5s5 -17.5 8 -25.5l8.5 -23.5c2.66699 -7.66699 4 -16.167 4 -25.5c0 -11.333 -2.16699 -22.5 -6.5 -33.5s-10.666 -21 -18.999 -30
s-18.5 -16.167 -30.5 -21.5s-25.333 -8 -40 -8c-14 0 -27 2.83301 -39 8.5s-22.333 12.834 -31 21.501s-15.5 18.5 -20.5 29.5s-7.5 21.833 -7.5 32.5c0 8.66699 1.16699 16.834 3.5 24.501s5 15.334 8 23.001l8.5 22c2.66699 7 4 13.833 4 20.5v90z" />
    <glyph glyph-name="afii10082" unicode="&#x440;" horiz-adv-x="435" 
d="M56 255c0 12.667 -1.33008 22.832 -3.99707 30.499s-5.5 14.5 -8.5 20.5s-5.66699 12.333 -8 19s-3.5 15 -3.5 25c0 12 2.66699 23.333 8 34s12.666 20.167 21.999 28.5s20.166 14.833 32.499 19.5s25.166 7 38.499 7c17.333 0 32 -4 44 -12s21 -18.667 27 -32
c6 9.33301 17 19 33 29s33.333 15 52 15c24.667 0 44.667 -7 60 -21s27.333 -31.667 36 -53s14.334 -44.666 17.001 -69.999s4 -49.666 4 -72.999s-1.66699 -48.5 -5 -75.5s-9.5 -52 -18.5 -75s-21.5 -42.167 -37.5 -57.5s-36.333 -23 -61 -23
c-14.667 0 -28.834 3.16699 -42.501 9.5s-26.167 13.833 -37.5 22.5v-14c0 -9.33301 1.16699 -17.333 3.5 -24s4.83301 -13 7.5 -19s5.16699 -12.5 7.5 -19.5s3.5 -15.5 3.5 -25.5c0 -12.667 -2.66699 -24.667 -8 -36s-12.5 -21.166 -21.5 -29.499s-19.333 -15 -31 -20
s-23.834 -7.5 -36.501 -7.5c-12 0 -23.667 2.5 -35 7.5s-21.666 11.667 -30.999 20s-16.833 18.166 -22.5 29.499s-8.5 23.333 -8.5 36c0 10.667 1.16699 19.5 3.5 26.5s5 13.833 8 20.5s5.83301 14.167 8.5 22.5s4 19.166 4 32.499v232zM204.003 166.998
c0 -8 1.66699 -15.833 5 -23.5s10 -11.5 20 -11.5s16.667 3.83301 20 11.5s5 15.5 5 23.5v77c0 8 -1.66699 15.833 -5 23.5s-10 11.5 -20 11.5s-16.667 -3.83301 -20 -11.5s-5 -15.5 -5 -23.5v-77z" />
    <glyph glyph-name="afii10083" unicode="&#x441;" horiz-adv-x="384" 
d="M178 206c0 -15.333 2.83301 -29.5059 8.5 -42.5059s14.167 -19.5 25.5 -19.5c4.66699 0 9 1.33301 13 4s8.33301 5.83398 13 9.50098s10.167 6.83398 16.5 9.50098s14.5 4 24.5 4c8.66699 0 17.667 -1.66699 27 -5s18 -8 26 -14s14.5 -13.667 19.5 -23s7.5 -20 7.5 -32
c0 -20 -4.83301 -36.833 -14.5 -50.5s-21.667 -24.667 -36 -33s-30 -14.166 -47 -17.499s-32.833 -5 -47.5 -5c-23.333 0 -46.166 3.5 -68.499 10.5s-42.333 19 -60 36s-32 40 -43 69s-16.5 65.167 -16.5 108.5s5.5 79.5 16.5 108.5s25.333 52 43 69s37.667 29 60 36
s45.166 10.5 68.499 10.5c14.667 0 30.5 -1.66699 47.5 -5s32.667 -9.16602 47 -17.499s26.333 -19.333 36 -33s14.5 -30.5 14.5 -50.5c0 -12 -2.5 -22.667 -7.5 -32s-11.5 -17 -19.5 -23s-16.667 -10.667 -26 -14s-18.333 -5 -27 -5c-10 0 -18.167 1.33301 -24.5 4
s-11.833 5.83398 -16.5 9.50098s-9 6.83398 -13 9.50098s-8.33301 4 -13 4c-11.333 0 -19.833 -6.5 -25.5 -19.5s-8.5 -27.167 -8.5 -42.5v-18z" />
    <glyph glyph-name="afii10084" unicode="&#x442;" horiz-adv-x="704" 
d="M59 227c0 14.667 -1.33008 27.501 -3.99707 38.501s-5.5 21 -8.5 30l-8.5 26c-2.66699 8.33301 -4 16.833 -4 25.5c0 14 3.16699 26.667 9.5 38s14.5 21 24.5 29s20.667 14.167 32 18.5s22 6.5 32 6.5c22.667 0 41 -4.16699 55 -12.5s25.667 -21.5 35 -39.5
c15.333 14 33.833 26.167 55.5 36.5s42.5 15.5 62.5 15.5c18 0 36.667 -4.33301 56 -13s33 -21.667 41 -39c15.333 14 32.166 26.167 50.499 36.5s38.166 15.5 59.499 15.5c15.333 0 29 -3.33301 41 -10s22.333 -15.334 31 -26.001s15.167 -23.167 19.5 -37.5
s6.5 -28.833 6.5 -43.5c0 -18 -0.833008 -36.5 -2.5 -55.5s-2.5 -41.5 -2.5 -67.5c0 -16 1.66699 -29 5 -39s7.16602 -19 11.499 -27s8.16602 -15.833 11.499 -23.5s5 -17.5 5 -29.5s-2.5 -23.333 -7.5 -34s-11.667 -20.167 -20 -28.5s-18 -14.833 -29 -19.5
s-22.833 -7 -35.5 -7c-32.667 0 -57.167 10.5 -73.5 31.5s-24.5 48.167 -24.5 81.5c0 12.667 0.333008 26.167 1 40.5s1.5 28.333 2.5 42s2 26.667 3 39s1.5 23.5 1.5 33.5c0 9.33301 -3 16.5 -9 21.5s-11.667 7.5 -17 7.5c-11.333 0 -21.166 -6.66699 -29.499 -20
s-12.5 -35 -12.5 -65c0 -14.667 1.33301 -27.5 4 -38.5s5.5 -21 8.5 -30l8.5 -26c2.66699 -8.33301 4 -16.833 4 -25.5c0 -14 -3.16699 -26.667 -9.5 -38s-14.5 -21 -24.5 -29s-20.667 -14.167 -32 -18.5s-22 -6.5 -32 -6.5s-20.667 2.16699 -32 6.5s-22 10.5 -32 18.5
s-18.167 17.667 -24.5 29s-9.5 24 -9.5 38c0 8.66699 1.33301 17.167 4 25.5l8.5 26c3 9 5.83301 19 8.5 30s4 23.833 4 38.5v42c0 11.333 -3 21.333 -9 30s-15 13 -27 13s-21 -4.33301 -27 -13s-9 -18.667 -9 -30v-42c0 -14.667 1.33301 -27.5 4 -38.5s5.5 -21 8.5 -30
l8.5 -26c2.66699 -8.33301 4 -16.833 4 -25.5c0 -14 -3.16699 -26.667 -9.5 -38s-14.5 -21 -24.5 -29s-20.667 -14.167 -32 -18.5s-22 -6.5 -32 -6.5s-20.667 2.16699 -32 6.5s-22 10.5 -32 18.5s-18.167 17.667 -24.5 29s-9.5 24 -9.5 38c0 8.66699 1.33301 17.167 4 25.5
l8.5 26c3 9 5.83301 19 8.5 30s4 23.833 4 38.5v24z" />
    <glyph glyph-name="afii10085" unicode="&#x443;" horiz-adv-x="486" 
d="M251 204l25.998 108c3.33301 14.667 8 29.5 14 44.5s13.5 28.667 22.5 41s19.333 22.333 31 30s25.167 11.5 40.5 11.5c23.333 0 42.5 -7 57.5 -21s22.5 -33.333 22.5 -58c0 -18.667 -2.66699 -32 -8 -40s-12 -16.167 -20 -24.5s-16.833 -19.166 -26.5 -32.499
s-19.167 -34.666 -28.5 -63.999c-11.333 -36 -19.666 -66.833 -24.999 -92.5s-9.5 -48.5 -12.5 -68.5s-6 -38.333 -9 -55s-7.83301 -34.334 -14.5 -53.001c-14 -38.667 -35.5 -69 -64.5 -91s-61.833 -33 -98.5 -33c-14 0 -28.333 1.66699 -43 5
s-28.167 9.16602 -40.5 17.499s-22.5 19.5 -30.5 33.5s-12 31.667 -12 53c0 16.667 4.66699 31.5 14 44.5s25 19.5 47 19.5c8.66699 0 16.167 -1.16699 22.5 -3.5s12.5 -5 18.5 -8s12.167 -5.66699 18.5 -8s14.5 -3.5 24.5 -3.5c15.333 0 27.166 5.33301 35.499 16
s12.5 21 12.5 31c0 8.66699 -2.83301 16.5 -8.5 23.5s-12.334 13.667 -20.001 20l-24 20.5c-8.33301 7.33301 -15.166 16 -20.499 26c-4 6.66699 -6.83301 13.5 -8.5 20.5s-3.5 15.167 -5.5 24.5s-4.66699 20.5 -8 33.5s-8.33301 29.167 -15 48.5
c-5.33301 15.333 -13.166 28 -23.499 38s-20.666 19.5 -30.999 28.5s-19.333 18.667 -27 29s-11.5 23.5 -11.5 39.5c0 26 7.83301 46.5 23.5 61.5s34.167 22.5 55.5 22.5c18 0 34.167 -4 48.5 -12s27 -18.833 38 -32.5s20.167 -29.167 27.5 -46.5s13 -35 17 -53z" />
    <glyph glyph-name="afii10086" unicode="&#x444;" horiz-adv-x="602" 
d="M377 366c10.667 27.333 24.334 46.334 41.001 57.001s31.334 16 44.001 16c20 0 37.167 -7 51.5 -21s25.833 -31.333 34.5 -52s15 -42.834 19 -66.501s6 -45.5 6 -65.5v-38c0 -20 -2 -41.833 -6 -65.5s-10.333 -45.834 -19 -66.501s-20.167 -38 -34.5 -52
s-31.5 -21 -51.5 -21c-12.667 0 -27.334 5.33301 -44.001 16s-30.334 29.667 -41.001 57v-106c0 -47.333 -9.5 -85.833 -28.5 -115.5s-50.167 -44.5 -93.5 -44.5c-22.667 0 -42.5 7.33301 -59.5 22s-25.5 33.667 -25.5 57c0 14.667 2.83301 27 8.5 37s12 19.333 19 28
s13.333 17.334 19 26.001s8.5 19 8.5 31v65c-10.667 -27.333 -24.334 -46.333 -41.001 -57s-31.334 -16 -44.001 -16c-20 0 -37.167 7 -51.5 21s-25.833 31.333 -34.5 52s-15 42.834 -19 66.501s-6 45.5 -6 65.5v38c0 20 2 41.833 6 65.5s10.333 45.834 19 66.501
s20.167 38 34.5 52s31.5 21 51.5 21c12.667 0 27.334 -5.33301 44.001 -16s30.334 -29.667 41.001 -57v89c0 47.333 9.5 85.833 28.5 115.5s50.167 44.5 93.5 44.5c22.667 0 42.5 -7.33301 59.5 -22s25.5 -33.667 25.5 -57c0 -15.333 -2.83301 -27.833 -8.5 -37.5
s-12 -18.834 -19 -27.501s-13.333 -17.334 -19 -26.001s-8.5 -19 -8.5 -31v-48zM167 197.001c0 -11.333 2 -21.5 6 -30.5s11.667 -13.5 23 -13.5s19 4.5 23 13.5s6 19.167 6 30.5v36c0 11.333 -2 21.5 -6 30.5s-11.667 13.5 -23 13.5s-19 -4.5 -23 -13.5
s-6 -19.167 -6 -30.5v-36zM377 197.001c0 -11.333 2 -21.5 6 -30.5s11.667 -13.5 23 -13.5s19 4.5 23 13.5s6 19.167 6 30.5v36c0 11.333 -2 21.5 -6 30.5s-11.667 13.5 -23 13.5s-19 -4.5 -23 -13.5s-6 -19.167 -6 -30.5v-36z" />
    <glyph glyph-name="afii10087" unicode="&#x445;" horiz-adv-x="461" 
d="M126 439c20.667 0 39.332 -4.66699 55.999 -14s32.667 -25.333 48 -48c15.333 22.667 31.333 38.667 48 48s35.334 14 56.001 14c23.333 0 43.333 -8.16699 60 -24.5s25 -36.5 25 -60.5c0 -19.333 -4.5 -35.5 -13.5 -48.5s-20.167 -22.167 -33.5 -27.5
c-8.66699 -4 -17.5 -6.5 -26.5 -7.5s-17.167 -3 -24.5 -6s-13.333 -7.83301 -18 -14.5s-7 -17 -7 -31c0 -12.667 3.5 -22 10.5 -28s15.167 -10.167 24.5 -12.5s19 -4.16602 29 -5.49902s18 -3.66602 24 -6.99902c10.667 -6 21 -15.833 31 -29.5s15 -31.167 15 -52.5
c0 -12.667 -2.33301 -24.667 -7 -36s-11 -21.166 -19 -29.499s-17.667 -15 -29 -20s-23.666 -7.5 -36.999 -7.5c-12 0 -23 2 -33 6s-19.333 9.33301 -28 16s-16.834 14.167 -24.501 22.5l-22.5 25.5l-22.5 -25.5c-7.66699 -8.33301 -15.834 -15.833 -24.501 -22.5
s-18 -12 -28 -16s-21 -6 -33 -6c-13.333 0 -25.666 2.5 -36.999 7.5s-21 11.667 -29 20s-14.333 18.166 -19 29.499s-7 23.333 -7 36c0 21.333 5 38.833 15 52.5s20.333 23.5 31 29.5c6 3.33301 14 5.66602 24 6.99902s19.667 3.16602 29 5.49902s17.5 6.5 24.5 12.5
s10.5 15.333 10.5 28c0 14 -2.33301 24.333 -7 31s-10.667 11.5 -18 14.5s-15.5 5 -24.5 6s-17.833 3.5 -26.5 7.5c-13.333 5.33301 -24.5 14.5 -33.5 27.5s-13.5 29.167 -13.5 48.5c0 24 8.33301 44.167 25 60.5s36.667 24.5 60 24.5z" />
    <glyph glyph-name="afii10088" unicode="&#x446;" 
d="M415 166c0 -8 1.1709 -15.001 3.50391 -21.001s5 -12.167 8 -18.5s5.83301 -13.333 8.5 -21s4 -17.167 4 -28.5c0 -10 -1.16699 -18.167 -3.5 -24.5s-4.83301 -12.166 -7.5 -17.499s-5.16699 -11 -7.5 -17s-3.5 -14 -3.5 -24c0 -9.33301 1.16699 -17.333 3.5 -24
s4.83301 -13 7.5 -19s5.16699 -12.333 7.5 -19s3.5 -15 3.5 -25c0 -12.667 -2 -24.834 -6 -36.501s-10 -22 -18 -31s-17.833 -16.167 -29.5 -21.5s-24.834 -8 -39.501 -8c-27.333 0 -48.833 7.5 -64.5 22.5s-23.5 33.833 -23.5 56.5c0 15.333 2.83301 27.333 8.5 36
s12 16.167 19 22.5l19.5 18c6 5.66699 9 13.167 9 22.5c0 4 -1.83301 7.33301 -5.5 10s-8.33398 5.66699 -14.001 9s-11.667 7.5 -18 12.5s-11.833 11.833 -16.5 20.5c-14.667 -13.333 -32 -24.833 -52 -34.5s-39.333 -14.5 -58 -14.5c-18 0 -33.667 3.16699 -47 9.5
s-24.333 14.833 -33 25.5s-15 23 -19 37s-6 28.667 -6 44c0 12.667 0.666992 26.334 2 41.001l4 43.5c1.33301 14.333 2.66602 27.833 3.99902 40.5s2 24 2 34c0 8 -1.33301 15.167 -4 21.5l-8.5 19.5c-3 6.66699 -5.83301 13.5 -8.5 20.5s-4 15.167 -4 24.5
c0 24.667 8.66699 45.334 26 62.001s38.333 25 63 25s45.5 -8.83301 62.5 -26.5s25.5 -43.834 25.5 -78.501c0 -20.667 -1.83301 -43.667 -5.5 -69s-5.5 -50 -5.5 -74c0 -14 2 -26 6 -36s10 -15 18 -15c19.333 0 31.666 7.66699 36.999 23s8 32.666 8 51.999v35
c0 15.333 -3.66699 31.833 -11 49.5s-11 35.167 -11 52.5c0 28.667 9 50.334 27 65.001s40 22 66 22c22.667 0 42.167 -7.83301 58.5 -23.5s24.5 -36.167 24.5 -61.5c0 -14 -1 -27.5 -3 -40.5s-3 -27.167 -3 -42.5v-105z" />
    <glyph glyph-name="afii10089" unicode="&#x447;" horiz-adv-x="448" 
d="M186 249c0 -2.66699 0.833984 -5.16602 2.50098 -7.49902s3.83398 -3.5 6.50098 -3.5c4 0 8.83301 1 14.5 3s10.834 5 15.501 9s8.66699 9.16699 12 15.5s5 13.5 5 21.5c0 6.66699 -0.833008 12.167 -2.5 16.5l-5 12.5c-1.66699 4 -3.33398 8.33301 -5.00098 13
s-2.5 10.667 -2.5 18c0 14.667 3.16699 27.834 9.5 39.501s14.333 21.334 24 29.001s20.5 13.5 32.5 17.5s24 6 36 6s23.5 -2.5 34.5 -7.5s20.5 -11.667 28.5 -20s14.333 -17.833 19 -28.5s7 -22 7 -34c0 -8 -1.33301 -15.833 -4 -23.5l-8.5 -23.5
c-3 -8 -5.66699 -15.833 -8 -23.5s-3.5 -15.167 -3.5 -22.5v-82c0 -7.33301 1.16699 -14.833 3.5 -22.5s5 -15.5 8 -23.5l8.5 -23.5c2.66699 -7.66699 4 -15.5 4 -23.5c0 -12 -2.33301 -23.333 -7 -34s-11 -20.167 -19 -28.5s-17.5 -15 -28.5 -20s-22.5 -7.5 -34.5 -7.5
c-14 0 -27.333 2.5 -40 7.5s-23.5 11.667 -32.5 20s-16.167 18.166 -21.5 29.499s-8 23 -8 35c0 8.66699 1.16699 16.5 3.5 23.5s4.66602 13.5 6.99902 19.5l7 18.5c2.33301 6.33301 3.5 13.5 3.5 21.5c0 7.33301 -1.33301 11 -4 11c-3.33301 0 -5.83301 -2.16699 -7.5 -6.5
s-7.83398 -10.166 -18.501 -17.499c-4 -2.66699 -9.16699 -5.66699 -15.5 -9s-13.666 -6.5 -21.999 -9.5s-17 -5.5 -26 -7.5s-17.833 -3 -26.5 -3c-13.333 0 -25 2.33301 -35 7s-18.667 11 -26 19s-12.833 17 -16.5 27s-5.5 20.333 -5.5 31s0.666992 20.834 2 30.501
s2 19.167 2 28.5c0 7.33301 -1.16699 14.166 -3.5 20.499s-5 12.666 -8 18.999s-5.66699 13 -8 20s-3.5 15.167 -3.5 24.5c0 23.333 7.5 43.833 22.5 61.5s36.833 26.5 65.5 26.5c23.333 0 42.666 -7.33301 57.999 -22s23 -33.667 23 -57
c0 -18.667 -1.5 -35.334 -4.5 -50.001s-4.5 -28.334 -4.5 -41.001v-20z" />
    <glyph glyph-name="afii10090" unicode="&#x448;" horiz-adv-x="691" 
d="M630 171c0 -8 1.33398 -16.1709 4.00098 -24.5039s5.83398 -16.666 9.50098 -24.999s6.83398 -16.666 9.50098 -24.999s4 -16.833 4 -25.5c0 -20.667 -8.66699 -39.167 -26 -55.5s-40.666 -24.5 -69.999 -24.5c-17.333 0 -33.333 3.83301 -48 11.5
s-27.334 20.167 -38.001 37.5c-14.667 -13.333 -32 -24.833 -52 -34.5s-39.333 -14.5 -58 -14.5c-14.667 0 -27.334 1 -38.001 3s-20 5 -28 9s-15.167 9 -21.5 15s-12.5 13.333 -18.5 22c-14.667 -13.333 -32 -24.833 -52 -34.5s-39.333 -14.5 -58 -14.5
c-18 0 -33.667 3.16699 -47 9.5s-24.333 14.833 -33 25.5s-15 23 -19 37s-6 28.667 -6 44c0 12.667 0.666992 26.334 2 41.001l4 43.5c1.33301 14.333 2.66602 27.833 3.99902 40.5s2 24 2 34c0 8 -1.33301 15.167 -4 21.5l-8.5 19.5c-3 6.66699 -5.83301 13.5 -8.5 20.5
s-4 15.167 -4 24.5c0 24.667 8.66699 45.334 26 62.001s38.333 25 63 25s45.5 -8.83301 62.5 -26.5s25.5 -43.834 25.5 -78.501c0 -20.667 -1.83301 -43.667 -5.5 -69s-5.5 -50 -5.5 -74c0 -14 2 -26 6 -36s10 -15 18 -15c19.333 0 31.666 7.66699 36.999 23
s8 32.666 8 51.999v35c0 15.333 -3.66699 31.833 -11 49.5s-11 35.167 -11 52.5c0 28.667 9 50.334 27 65.001s40 22 66 22c22.667 0 42.834 -8.66699 60.501 -26s26.5 -43.666 26.5 -78.999c0 -20.667 -1.83301 -43.667 -5.5 -69s-5.5 -50 -5.5 -74c0 -14 2 -26 6 -36
s10 -15 18 -15c19.333 0 31.666 7.66699 36.999 23s8 32.666 8 51.999v35c0 15.333 -3.66699 31.833 -11 49.5s-11 35.167 -11 52.5c0 28.667 9 50.334 27 65.001s40 22 66 22c22.667 0 42.167 -7.83301 58.5 -23.5s24.5 -36.167 24.5 -61.5c0 -14 -1 -27.5 -3 -40.5
s-3 -27.167 -3 -42.5v-100z" />
    <glyph glyph-name="afii10091" unicode="&#x449;" horiz-adv-x="678" 
d="M629 166c0 -8 1.17188 -15.002 3.50488 -21.002s5 -12.167 8 -18.5s5.83301 -13.333 8.5 -21s4 -17.167 4 -28.5c0 -10 -1.16699 -18.167 -3.5 -24.5s-4.83301 -12.166 -7.5 -17.499s-5.16699 -11 -7.5 -17s-3.5 -14 -3.5 -24c0 -9.33301 1.16699 -17.333 3.5 -24
s4.83301 -13 7.5 -19s5.16699 -12.333 7.5 -19s3.5 -15 3.5 -25c0 -12.667 -2 -24.834 -6 -36.501s-10 -22 -18 -31s-17.833 -16.167 -29.5 -21.5s-24.834 -8 -39.501 -8c-27.333 0 -48.833 7.5 -64.5 22.5s-23.5 33.833 -23.5 56.5c0 15.333 2.83301 27.333 8.5 36
s12 16.167 19 22.5l19.5 18c6 5.66699 9 13.167 9 22.5c0 4 -1.83301 7.33301 -5.5 10s-8.33398 5.66699 -14.001 9s-11.667 7.5 -18 12.5s-11.833 11.833 -16.5 20.5c-14.667 -13.333 -32 -24.833 -52 -34.5s-39.333 -14.5 -58 -14.5c-14.667 0 -27.334 1 -38.001 3
s-20 5 -28 9s-15.167 9 -21.5 15s-12.5 13.333 -18.5 22c-14.667 -13.333 -32 -24.833 -52 -34.5s-39.333 -14.5 -58 -14.5c-18 0 -33.667 3.16699 -47 9.5s-24.333 14.833 -33 25.5s-15 23 -19 37s-6 28.667 -6 44c0 12.667 0.666992 26.334 2 41.001l4 43.5
c1.33301 14.333 2.66602 27.833 3.99902 40.5s2 24 2 34c0 8 -1.33301 15.167 -4 21.5l-8.5 19.5c-3 6.66699 -5.83301 13.5 -8.5 20.5s-4 15.167 -4 24.5c0 24.667 8.66699 45.334 26 62.001s38.333 25 63 25s45.5 -8.83301 62.5 -26.5s25.5 -43.834 25.5 -78.501
c0 -20.667 -1.83301 -43.667 -5.5 -69s-5.5 -50 -5.5 -74c0 -14 2 -26 6 -36s10 -15 18 -15c19.333 0 31.666 7.66699 36.999 23s8 32.666 8 51.999v35c0 15.333 -3.66699 31.833 -11 49.5s-11 35.167 -11 52.5c0 28.667 9 50.334 27 65.001s40 22 66 22
c22.667 0 42.834 -8.66699 60.501 -26s26.5 -43.666 26.5 -78.999c0 -20.667 -1.83301 -43.667 -5.5 -69s-5.5 -50 -5.5 -74c0 -14 2 -26 6 -36s10 -15 18 -15c19.333 0 31.666 7.66699 36.999 23s8 32.666 8 51.999v35c0 15.333 -3.66699 31.833 -11 49.5
s-11 35.167 -11 52.5c0 28.667 9 50.334 27 65.001s40 22 66 22c22.667 0 42.167 -7.83301 58.5 -23.5s24.5 -36.167 24.5 -61.5c0 -14 -1 -27.5 -3 -40.5s-3 -27.167 -3 -42.5v-105z" />
    <glyph glyph-name="afii10092" unicode="&#x44a;" 
d="M111 457c17.333 0 34.668 -2.33398 52.001 -7.00098s35 -7 53 -7c17.333 0 32.666 2.5 45.999 7.5s25.333 7.5 36 7.5c11.333 0 20.333 -2.5 27 -7.5s10 -12.167 10 -21.5c0 -13.333 -5.33301 -26.666 -16 -39.999s-22.167 -26.5 -34.5 -39.5
s-23.833 -25.833 -34.5 -38.5s-16 -25.334 -16 -38.001c0 -1.33301 0.666992 -2 2 -2c2 0 5 3 9 9s9.66699 12.5 17 19.5s17 13.5 29 19.5s26.667 9 44 9c23.333 0 42.333 -5.66699 57 -17s26 -25.5 34 -42.5s13.333 -35.5 16 -55.5s4 -38.667 4 -56
c0 -50 -15.167 -90.167 -45.5 -120.5s-72.166 -45.5 -125.499 -45.5c-24 0 -46.833 4.16699 -68.5 12.5s-40.834 20.333 -57.501 36s-30 34.334 -40 56.001s-15 46.167 -15 73.5c0 36 9.83301 71.833 29.5 107.5s45.5 68.5 77.5 98.5c-19.333 -3.33301 -34.5 -9 -45.5 -17
s-20.667 -16 -29 -24s-16.333 -15 -24 -21s-17.834 -9 -30.501 -9c-15.333 0 -29.166 4.5 -41.499 13.5s-18.5 23.833 -18.5 44.5c0 14 2.83301 26.833 8.5 38.5s13.167 21.667 22.5 30s20 14.833 32 19.5s24 7 36 7zM243.002 139.999
c0 -7.33301 3.00098 -14.167 9.00098 -20.5s12.667 -9.5 20 -9.5c11.333 0 19.166 5.16699 23.499 15.5s6.5 20.5 6.5 30.5c0 8 -1.83301 16.5 -5.5 25.5s-10.5 13.5 -20.5 13.5c-6 0 -13 -3.66699 -21 -11s-12 -14 -12 -20v-24z" />
    </font>
</defs>
</svg>
