<?xml version="1.0" standalone="no"?>
<!DOCTYPE svg PUBLIC "-//W3C//DTD SVG 1.1//EN" "http://www.w3.org/Graphics/SVG/1.1/DTD/svg11.dtd" >
<svg>
<metadata>
Created by FontForge 20090914 at Thu Mar 28 00:42:50 2013
 By www-data
(c)Copyright ParaGraph International, 1992.
</metadata>
<defs>
<font id="KarollaCTT-Regular" horiz-adv-x="395" >
  <font-face 
    font-family="KarollaCTT"
    font-weight="400"
    font-stretch="normal"
    units-per-em="1000"
    panose-1="4 8 7 6 0 0 0 2 0 3"
    ascent="800"
    descent="-200"
    x-height="489.998"
    cap-height="700.004"
    bbox="-44.001 -206.519 754.001 877.001"
    underline-thickness="40"
    underline-position="-60"
    unicode-range="U+0020-U+2219"
  />
<missing-glyph horiz-adv-x="450" 
d="M50 0v512h350v-512h-350zM58 8h334v496h-334v-496z" />
    <glyph glyph-name=".notdef" horiz-adv-x="450" 
d="M50 0v512h350v-512h-350zM58 8h334v496h-334v-496z" />
    <glyph glyph-name="space" unicode=" " horiz-adv-x="238" 
 />
    <glyph glyph-name="space" unicode="&#x45d;" horiz-adv-x="238" 
 />
    <glyph glyph-name="space" unicode="&#x40d;" horiz-adv-x="238" 
 />
    <glyph glyph-name="space" unicode="&#xa0;" horiz-adv-x="238" 
 />
    <glyph glyph-name="exclam" unicode="!" horiz-adv-x="238" 
d="M73 229l-23.001 381c-2 26 0.166992 44.5 6.5 55.5s16.166 19.833 29.499 26.5c4.66699 2 9.83398 3.83301 15.501 5.5s11.5 2.5 17.5 2.5c8.66699 0 16.5 -1 23.5 -3s13.167 -4.66699 18.5 -8c10.667 -8 18.167 -17.833 22.5 -29.5s5.83301 -28.167 4.5 -49.5l-32 -380
c-1.33301 -14.667 -5.66602 -26 -12.999 -34s-17 -11.667 -29 -11c-10.667 0 -20 3.5 -28 10.5s-12.333 18.167 -13 33.5zM116.999 143c20 0 35.5 -7 46.5 -21s16.5 -32 16.5 -54c0 -24.667 -5.5 -43.834 -16.5 -57.501s-26.5 -20.5 -46.5 -20.5
c-20.667 0 -37.167 6.83301 -49.5 20.5s-18.5 32.834 -18.5 57.501c0 22 5.83301 40 17.5 54s28.5 21 50.5 21z" />
    <glyph glyph-name="quotedbl" unicode="&#x22;" horiz-adv-x="413" 
d="M116 659c2.66699 0 5.66602 -0.329102 8.99902 -0.996094l10 -2c10.667 -4 19.667 -9.66699 27 -17s13 -16.666 17 -27.999c2 -7.33301 3.5 -15 4.5 -23s1.83301 -16.667 2.5 -26c0 -12.667 -0.666992 -23.834 -2 -33.501s-3 -18.5 -5 -26.5
c-6 -20.667 -15.333 -38.167 -28 -52.5s-28.667 -24.833 -48 -31.5c-8 -2.66699 -15 -4.16699 -21 -4.5s-11 1.16699 -15 4.5c-4 2 -7 5.33301 -9 10s-3 10 -3 16c0 6.66699 1.5 12.167 4.5 16.5s8.16699 8.16602 15.5 11.499c17.333 7.33301 27.333 13.166 30 17.499
s4.33398 9.5 5.00098 15.5c-0.666992 4.66699 -1.66699 8 -3 10s-4.66602 3.33301 -9.99902 4c-12 0.666992 -21.5 4.16699 -28.5 10.5s-12.167 15.5 -15.5 27.5c-1.33301 4 -2.33301 8.33301 -3 13s-1 10 -1 16c0 4.66699 0.5 9.66699 1.5 15s2.5 10.666 4.5 15.999
c5.33301 13.333 13.166 23.666 23.499 30.999s22.833 11 37.5 11zM292.999 657.004c2.66699 0 5.66602 -0.329102 8.99902 -0.996094l10 -2c10.667 -4 19.667 -9.66699 27 -17s13 -16.666 17 -27.999c2 -7.33301 3.66699 -15 5 -23s2 -16.667 2 -26
c0 -12.667 -0.666992 -23.834 -2 -33.501s-3 -18.5 -5 -26.5c-6 -20.667 -15.333 -38.167 -28 -52.5s-28.667 -24.833 -48 -31.5c-4.66699 -2 -8.66699 -3.16699 -12 -3.5s-6.33301 -0.5 -9 -0.5c-3.33301 0 -6.16602 0.166992 -8.49902 0.5s-4.5 1.5 -6.5 3.5
c-4 2 -7.16699 5.33301 -9.5 10s-3.16602 10 -2.49902 16c0 6.66699 1.5 12.167 4.5 16.5s8.16699 8.16602 15.5 11.499c17.333 7.33301 27.5 13.166 30.5 17.499s4.5 9.5 4.5 15.5c0 4.66699 -0.833008 8 -2.5 10s-5.16699 3.33301 -10.5 4
c-12 0.666992 -21.5 4.16699 -28.5 10.5s-12.167 15.5 -15.5 27.5c-1.33301 4 -2.33301 8.33301 -3 13s-1 10 -1 16c0 4.66699 0.5 9.66699 1.5 15s2.5 10.666 4.5 15.999c5.33301 13.333 13.166 23.666 23.499 30.999s22.833 11 37.5 11z" />
    <glyph glyph-name="numbersign" unicode="#" horiz-adv-x="524" 
d="M344 158l-9 -110c-1.33301 -10 -2.66602 -15.667 -3.99902 -17s-3.33301 -2 -6 -2c-3.33301 -0.666992 -7.66602 -1.16699 -12.999 -1.5s-12.666 -0.5 -21.999 -0.5c-10.667 0 -17.334 1 -20.001 3s-3.33398 6 -2.00098 12l14 103c1.33301 11.333 1 18.5 -1 21.5
s-5.33301 4.5 -10 4.5h-53c-10 -0.666992 -16.333 -2.16699 -19 -4.5s-4 -5.83301 -4 -10.5l-12 -113c-1.33301 -8 -3.66602 -12.667 -6.99902 -14s-18.333 -2 -45 -2c-6.66699 0 -11.167 1.16699 -13.5 3.5s-2.83301 6.5 -1.5 12.5l17 109
c1.33301 8.66699 0.666016 13.667 -2.00098 15s-7.33398 2 -14.001 2l-75 -2c-3.33301 -0.666992 -5.66602 -0.333984 -6.99902 0.999023s-2 7.66602 -2 18.999c0 35.333 1 55.833 3 61.5s9.66699 8.5 23 8.5c6.66699 0 15.334 -0.5 26.001 -1.5s18 -1.5 22 -1.5
c6 -0.666992 10.833 -1 14.5 -1s7.5 0.333008 11.5 1c6 0 9.83301 1 11.5 3s3.5 10 5.5 24l16 149c0 6 -0.666992 10 -2 12s-5.33301 3 -12 3c-5.33301 0 -12 -0.166992 -20 -0.5s-13.667 -0.5 -17 -0.5h-24.5c-9 0 -14.833 0.333008 -17.5 1
c-2 0.666992 -3.33301 1.5 -4 2.5s-1 6.16699 -1 15.5c0 34.667 0.833008 55 2.5 61s7.5 9 17.5 9c6.66699 0 18.834 -0.5 36.501 -1.5s30.167 -1.5 37.5 -1.5c10 0 15.667 1.33301 17 4s2.33301 8.66699 3 18l7 106c0 4.66699 1 8.16699 3 10.5s6.66699 3.5 14 3.5h36
c6.66699 -0.666992 10.834 -1.83398 12.501 -3.50098s2.16699 -5.16699 1.5 -10.5l-18 -114c-1.33301 -5.33301 -1.5 -9.33301 -0.5 -12s9.16699 -3.66699 24.5 -3h52c5.33301 0 9.16602 0.833008 11.499 2.5s3.83301 6.5 4.5 14.5l9 110c0 4 0.333008 7 1 9
s6.33398 3.33301 17.001 4l30 1c12 0 18.5 -0.833008 19.5 -2.5s1.5 -4.16699 1.5 -7.5l-19 -105c-2 -10 -2.16699 -16.667 -0.5 -20s9.5 -5 23.5 -5c7.33301 0 17.666 0.333008 30.999 1s24 1.33398 32 2.00098c7.33301 0 11.666 -1.5 12.999 -4.5s2.33301 -9.5 3 -19.5
c0 -4.66699 -0.666992 -10 -2 -16s-2 -9.66699 -2 -11c-0.666992 -2 -1.33398 -5.66699 -2.00098 -11s-1 -9.66602 -1 -12.999c-1.33301 -6.66699 -3 -10.834 -5 -12.501s-6 -2.5 -12 -2.5c-6.66699 0 -16.834 0.666992 -30.501 2s-27.167 2 -40.5 2
c-8.66699 -0.666992 -14.167 -1.66699 -16.5 -3s-3.83301 -5.66602 -4.5 -12.999l-19 -166c-0.666992 -3.33301 -0.166992 -5.83301 1.5 -7.5s7.5 -2.5 17.5 -2.5c3.33301 0 13.5 0.333008 30.5 1s27.5 1 31.5 1c9.33301 0 15.166 -0.5 17.499 -1.5s3.5 -2.16699 3.5 -3.5
c0 -36.667 -2.16699 -60 -6.5 -70s-10.166 -14.667 -17.499 -14l-67 2c-6 0 -11.333 -1.16699 -16 -3.5s-7 -5.16602 -7 -8.49902zM225 427l-20.001 -156.001c-1.33301 -5.33301 -0.833008 -9.5 1.5 -12.5s5.5 -4.5 9.5 -4.5h59
c8.66699 -0.666992 14.834 -0.166992 18.501 1.5s5.83398 4.16699 6.50098 7.5l17 163c0.666992 8 0 13.167 -2 15.5s-5 3.83301 -9 4.5h-64c-5.33301 -0.666992 -9.33301 -2.16699 -12 -4.5s-4.33398 -7.16602 -5.00098 -14.499z" />
    <glyph glyph-name="dollar" unicode="$" horiz-adv-x="421" 
d="M217 270l-7 -105.001c5.33301 -7.33301 11 -11.166 17 -11.499s11.667 1.5 17 5.5c4.66699 4 7.66699 10.167 9 18.5s0.333008 18.5 -3 30.5c-4 10 -9 20.5 -15 31.5s-12 21.167 -18 30.5zM172 185.999l7.00293 122c-41.333 50.667 -66.166 81.834 -74.499 93.501
s-14.833 22.5 -19.5 32.5c-18 32 -27.167 65.833 -27.5 101.5s8.83398 67.167 27.501 94.5c12 17.333 28.167 32.333 48.5 45s43.166 21 68.499 25v21c0 24.667 3.83301 42.834 11.5 54.501s18.834 17.5 33.501 17.5c12.667 0 21.834 -3.5 27.501 -10.5
s5.5 -16.5 -0.5 -28.5c-2 -3.33301 -7 -10.666 -15 -21.999s-12.667 -19.666 -14 -24.999c-1.33301 -3.33301 -1.33301 -5.66602 0 -6.99902s5.33301 -2.66602 12 -3.99902c15.333 -3.33301 28.833 -8 40.5 -14s21.5 -13.333 29.5 -22c16 -18.667 23.5 -41.834 22.5 -69.501
s-12.833 -48.834 -35.5 -63.501c-14 -9.33301 -29.167 -14 -45.5 -14s-31.833 4.33301 -46.5 13c-14 7.33301 -23.833 10.5 -29.5 9.5s-10.167 -4.5 -13.5 -10.5c-4 -6.66699 -5.16699 -13.667 -3.5 -21s7.16699 -15.666 16.5 -24.999l120 -135l2 -2
c19.333 -26 33.666 -52.333 42.999 -79s14 -54.334 14 -83.001c-0.666992 -40.667 -7.83398 -75.5 -21.501 -104.5s-32.5 -50.5 -56.5 -64.5c-11.333 -6.66699 -24 -11.834 -38 -15.501s-29.333 -5.5 -46 -5.5c-2 0.666992 -3.83301 1 -5.5 1h-7.5
c0.666992 -22.667 -1 -41.834 -5 -57.501s-10.333 -27.5 -19 -35.5c-12.667 -10 -24.667 -11 -36 -3s-12 21 -2 39c12.667 25.333 19.667 40.5 21 45.5s2.33301 10.5 3 16.5c-32.667 7.33301 -58.834 21.333 -78.501 42s-29.5 45 -29.5 73
c-0.666992 16 2.66602 30.667 9.99902 44s17.666 23.666 30.999 30.999c11.333 6 24.166 9.16699 38.499 9.5s28.5 -2.83398 42.5 -9.50098z" />
    <glyph glyph-name="percent" unicode="%" horiz-adv-x="500" 
d="M155 103l153.998 493.002c10 32.667 15.833 50.667 17.5 54s3.83398 6.66602 6.50098 9.99902c10 13.333 21.5 19.166 34.5 17.499s21.833 -9.5 26.5 -23.5c2 -9.33301 1.16699 -18.5 -2.5 -27.5s-11.834 -18.5 -24.501 -28.5c-10.667 -8 -18.167 -15 -22.5 -21
s-7.5 -13.333 -9.5 -22l-157 -516c-6 -18.667 -12.333 -31.5 -19 -38.5s-15 -10.5 -25 -10.5c-7.33301 0 -13.833 2 -19.5 6s-9.5 10 -11.5 18c-1.33301 3.33301 -2 7 -2 11s0.666992 8 2 12c0.666992 4 1.83398 7.66699 3.50098 11s10.167 10.333 25.5 21
c5.33301 3.33301 9.83301 7.83301 13.5 13.5s6.83398 12.5 9.50098 20.5zM361.998 -9.99805c-30 0 -52.8301 14.5 -68.4971 43.5s-23.5 72.167 -23.5 129.5c0 60 7.16699 106.5 21.5 139.5s37.166 49.5 68.499 49.5c30 0 52.5 -16 67.5 -48s22.5 -74.333 22.5 -127
c-0.666992 -65.333 -8.33398 -112.833 -23.001 -142.5s-36.334 -44.5 -65.001 -44.5zM336.001 196.002l-0.000976562 -52.999c-0.666992 -22.667 1 -38.167 5 -46.5s10.667 -12.5 20 -12.5c8 0 13.667 3.33301 17 10s5.33301 23 6 49v54c0 25.333 -2 41.666 -6 48.999
s-10 11.333 -18 12c-9.33301 -0.666992 -15.666 -5 -18.999 -13s-5 -24.333 -5 -49zM142 315.003c-30 0 -52.833 14.5 -68.5 43.5s-23.5 72.167 -23.5 129.5c-0.666992 60 6.33301 106.5 21 139.5s37.667 49.5 69 49.5c30 0 52.5 -16 67.5 -48s22.5 -74.333 22.5 -127
c0 -65.333 -7.5 -112.833 -22.5 -142.5s-36.833 -44.5 -65.5 -44.5zM116 521.003l-0.000976562 -53c0 -22.667 1.83301 -38.167 5.5 -46.5s10.167 -12.5 19.5 -12.5c8 0 13.667 3.33301 17 10s5.33301 23 6 49v54c0 25.333 -2 41.833 -6 49.5s-10 11.5 -18 11.5
c-9.33301 0 -15.666 -4.16699 -18.999 -12.5s-5 -24.833 -5 -49.5z" />
    <glyph glyph-name="ampersand" unicode="&#x26;" horiz-adv-x="477" 
d="M219 700c36 0 64.1641 -12.3291 84.4971 -36.9961s30.5 -56.667 30.5 -96c0 -33.333 -6.33301 -65.166 -19 -95.499s-33.667 -61.833 -63 -94.5c3.33301 -11.333 7.66602 -22.5 12.999 -33.5s11.666 -21.833 18.999 -32.5c2.66699 3.33301 5 6.66602 7 9.99902
s5.66699 16 11 38c4 19.333 11.333 33.666 22 42.999s23 14.333 37 15c26.667 0 45.834 -11.667 57.501 -35s11.834 -47.333 0.500977 -72c-4 -8.66699 -6.16699 -13 -6.5 -13s-16.833 -14.667 -49.5 -44c-8 -6.66699 -15 -14.334 -21 -23.001s-10.667 -18 -14 -28
c13.333 -26 24 -55.333 32 -88s12 -66 12 -100c0 -30.667 -3.33301 -59 -10 -85s-15.667 -47 -27 -63c-12.667 -15.333 -27.5 -24.666 -44.5 -27.999s-32.833 0 -47.5 10c-16 11.333 -25.833 26.5 -29.5 45.5s-0.166992 39.833 10.5 62.5
c1.33301 3.33301 2.83301 6.66602 4.5 9.99902s16.167 22.333 43.5 57c8.66699 11.333 13.334 23.5 14.001 36.5s-1.66602 19.833 -6.99902 20.5c-4 0 -7.33301 -1.66699 -10 -5s-5 -9 -7 -17c-6.66699 -21.333 -18 -38 -34 -50s-35.333 -18 -58 -18
c-35.333 0 -64.166 14.167 -86.499 42.5s-33.5 66.166 -33.5 113.499c0 40.667 9 81.667 27 123s44 80.666 78 117.999c-27.333 58.667 -42.833 96 -46.5 112s-5.16699 33 -4.5 51c-0.666992 42.667 9 78.167 29 106.5s48.667 42.833 86 43.5zM188.997 306.004l-19 -41
c-16 -34 -20.333 -62.667 -13 -86s21.333 -35 42 -35c10 0 19.5 5.5 28.5 16.5s14.167 25.5 15.5 43.5zM215.997 454.004c17.333 28.667 26.666 45.334 27.999 50.001s2 9.33398 2 14.001c0 12 -2.5 21.333 -7.5 28s-11.5 10 -19.5 10c-8.66699 0 -15.5 -3.33301 -20.5 -10
s-7.16699 -16 -6.5 -28c0 -4.66699 0.833008 -9.83398 2.5 -15.501s8.83398 -21.834 21.501 -48.501z" />
    <glyph glyph-name="quotesingle" unicode="'" horiz-adv-x="236" 
d="M116 658c2.66699 -0.666992 5.66699 -1.16309 9 -1.49609s6.66602 -0.833008 9.99902 -1.5c10.667 -4 19.667 -9.66699 27 -17s13 -16.666 17 -27.999c2 -7.33301 3.5 -15 4.5 -23s1.83301 -16.667 2.5 -26c0 -12.667 -0.666992 -23.834 -2 -33.501s-3 -18.5 -5 -26.5
c-6 -20.667 -15.333 -38.167 -28 -52.5s-28.667 -24.833 -48 -31.5c-4.66699 -2 -8.66699 -3.16699 -12 -3.5s-6.33301 -0.5 -9 -0.5c-3.33301 -0.666992 -6.16602 -0.666992 -8.49902 0s-4.5 2 -6.5 4c-4 2 -7 5.33301 -9 10s-3 10 -3 16c0 6.66699 1.5 12.167 4.5 16.5
s8.16699 8.16602 15.5 11.499c17.333 7.33301 27.5 13.166 30.5 17.499s4.5 9.5 4.5 15.5c-0.666992 4.66699 -1.66699 8 -3 10s-4.66602 3.33301 -9.99902 4c-12 0.666992 -21.5 4.16699 -28.5 10.5s-12.167 15.5 -15.5 27.5c-1.33301 4 -2.33301 8.33301 -3 13
s-1 10 -1 16c0 4.66699 0.5 9.66699 1.5 15s2.5 10.666 4.5 15.999c5.33301 13.333 13.166 23.666 23.499 30.999s22.833 11 37.5 11z" />
    <glyph glyph-name="parenleft" unicode="(" horiz-adv-x="339" 
d="M221 727c4.66699 -0.666992 9.33398 -1.49902 14.001 -2.49902s9.33398 -2.5 14.001 -4.5c12 -6.66699 21.667 -17.667 29 -33s11 -30.666 11 -45.999c0 -14.667 -2.66699 -28.834 -8 -42.501s-23 -38.834 -53 -75.501c-29.333 -36 -50 -71.5 -62 -106.5
s-18 -77.833 -18 -128.5c0 -51.333 6 -94.5 18 -129.5s32.667 -70.167 62 -105.5c30 -36.667 47.667 -61.834 53 -75.501s8 -27.834 8 -42.501c-0.666992 -15.333 -4.5 -30.666 -11.5 -45.999s-16.5 -26.333 -28.5 -33c-10 -4.66699 -21.167 -6.66699 -33.5 -6
s-24.5 4.33398 -36.5 11.001c-35.333 21.333 -65.833 76.833 -91.5 166.5s-38.167 176.5 -37.5 260.5c0 83.333 12.667 170 38 260s55.666 145.667 90.999 167c6 3.33301 12.667 6 20 8s14.666 3.33301 21.999 4z" />
    <glyph glyph-name="parenright" unicode=")" horiz-adv-x="339" 
d="M118 727c6.66699 -0.666992 13.666 -2.00098 20.999 -4.00098s14.333 -4.66699 21 -8c34.667 -21.333 64.834 -77 90.501 -167s38.5 -176.667 38.5 -260c0 -84 -12.833 -170.833 -38.5 -260.5s-55.834 -145.167 -90.501 -166.5
c-12.667 -6.66699 -25.167 -10.334 -37.5 -11.001s-23.166 1.33301 -32.499 6c-12.667 6.66699 -22.5 17.667 -29.5 33s-10.5 30.666 -10.5 45.999c0 14.667 2.5 28.834 7.5 42.501s22.833 38.834 53.5 75.501c28.667 35.333 49.167 70.5 61.5 105.5s18.5 78.167 18.5 129.5
c0 50.667 -6.16699 93.5 -18.5 128.5s-32.833 70.5 -61.5 106.5c-30.667 36.667 -48.5 61.834 -53.5 75.501s-7.5 27.834 -7.5 42.501c0 15.333 3.5 30.666 10.5 45.999s16.833 26.333 29.5 33c4 2 8.33301 3.66699 13 5s9.66699 2 15 2z" />
    <glyph glyph-name="asterisk" unicode="*" horiz-adv-x="467" 
d="M226 721c10 0 18.4971 -3.00586 25.4971 -9.00586s12.5 -15.333 16.5 -28c3.33301 -12.667 4.16602 -27 2.49902 -43s-6.16699 -35.333 -13.5 -58c-2 -4.66699 -2.66699 -8.33398 -2 -11.001s2.66699 -4 6 -4c2.66699 -0.666992 5.33398 0.333008 8.00098 3
s5.33398 7.33398 8.00098 14.001c4.66699 13.333 9.83398 23.333 15.501 30s13.5 12 23.5 16c9.33301 3.33301 20.166 4.83301 32.499 4.5s24.166 -3.16602 35.499 -8.49902c10.667 -6 18.834 -13.333 24.501 -22s8.5 -17.667 8.5 -27c0 -10.667 -4 -20.667 -12 -30
s-19 -16.333 -33 -21c-1.33301 -0.666992 -2.83301 -1.33398 -4.5 -2.00098s-21.834 -3 -60.501 -7c-5.33301 -0.666992 -9.33301 -2 -12 -4s-4 -4.66699 -4 -8s1.66699 -6.33301 5 -9s8.33301 -4.66699 15 -6c26 -7.33301 41.833 -16.5 47.5 -27.5s7.5 -25.833 5.5 -44.5
c-2.66699 -20.667 -8.5 -36.667 -17.5 -48s-18.833 -17 -29.5 -17c-5.33301 0 -11.666 1.66699 -18.999 5s-14 8 -20 14c-10.667 8.66699 -18.834 19 -24.501 31s-9.5 30 -11.5 54c-0.666992 4.66699 -2 8.5 -4 11.5s-4 4.5 -6 4.5c-4.66699 -0.666992 -8 -3.5 -10 -8.5
s-3 -12.5 -3 -22.5c-1.33301 -20.667 -3.66602 -35.167 -6.99902 -43.5s-8 -15.166 -14 -20.499c-10 -8.66699 -23.667 -13.5 -41 -14.5s-31.666 1.5 -42.999 7.5c-15.333 6.66699 -24.333 16.334 -27 29.001s2.33301 27.667 15 45c6 8.66699 13.667 16.667 23 24
s19 13.333 29 18c8 3.33301 13 6 15 8s3 4.33301 3 7c0 4 -1.83301 6.66699 -5.5 8s-12.167 -0.333984 -25.5 -5.00098c-9.33301 -3.33301 -18.833 -4.66602 -28.5 -3.99902s-18.5 3.33398 -26.5 8.00098c-12 6 -21 14.5 -27 25.5s-9 23.5 -9 37.5
c-0.666992 16.667 2 28.834 8 36.501s16.333 11.834 31 12.501c10.667 0 21.5 -2 32.5 -6s21.167 -9.33301 30.5 -16c15.333 -12.667 23.833 -19.167 25.5 -19.5s3.5 -0.166016 5.5 0.500977c3.33301 1.33301 4.83301 3.5 4.5 6.5s-2.16602 6.83301 -5.49902 11.5
c-16.667 18 -25.5 35.167 -26.5 51.5s5.16699 31.5 18.5 45.5c6 6.66699 13.833 12.5 23.5 17.5s19.167 7.5 28.5 7.5z" />
    <glyph glyph-name="plus" unicode="+" horiz-adv-x="485" 
d="M217 150c-12.667 0 -22.501 1.83691 -29.501 5.50391s-11.833 10.167 -14.5 19.5c-1.33301 3.33301 -2.33301 7 -3 11s0.333008 22.667 3 56c0 7.33301 0.166992 17.666 0.5 30.999s0.5 25.666 0.5 36.999c-6 0 -12.833 0.166992 -20.5 0.5s-19.5 0.5 -35.5 0.5
s-29 -1 -39 -3s-17.667 -3 -23 -3c-12.667 -0.666992 -22.667 3.16602 -30 11.499s-11 20.166 -11 35.499c-0.666992 18.667 2.5 32.334 9.5 41.001s17.5 13 31.5 13c3.33301 -0.666992 9.33301 -1.16699 18 -1.5s16.334 -0.5 23.001 -0.5c8 0 21.167 -0.166992 39.5 -0.5
s30.833 -0.5 37.5 -0.5c0 22 -0.5 40.333 -1.5 55s-1.5 31 -1.5 49c0 18.667 4.16699 32.5 12.5 41.5s21.166 13.5 38.499 13.5c10 -0.666992 18.333 -1.66699 25 -3s12 -3.33301 16 -6c5.33301 -4.66699 8.83301 -10.667 10.5 -18s1.16699 -19 -1.5 -35
c-2 -11.333 -3.5 -26 -4.5 -44s-1.16699 -35.667 -0.5 -53c21.333 -0.666992 42.666 -0.5 63.999 0.5s37 1.5 47 1.5c20.667 -0.666992 35.334 -5 44.001 -13s13 -20.333 13 -37s-4 -29 -12 -37s-19.333 -12 -34 -12c-13.333 0 -28.666 1 -45.999 3
s-42.666 2.33301 -75.999 1c-0.666992 -13.333 -0.833984 -26.333 -0.500977 -39s1.5 -26.334 3.5 -41.001c1.33301 -20.667 1.5 -35.167 0.5 -43.5s-3.16699 -14.833 -6.5 -19.5c-4.66699 -6 -10.667 -10.333 -18 -13s-17 -4 -29 -4z" />
    <glyph glyph-name="comma" unicode="," horiz-adv-x="236" 
d="M116 143c2.66699 -0.666992 5.66895 -1.16699 9.00195 -1.5s6.66602 -0.833008 9.99902 -1.5c10.667 -4 19.667 -9.66699 27 -17s13 -16.666 17 -27.999c2 -7.33301 3.66699 -15 5 -23s2 -16.667 2 -26c0 -12.667 -0.666992 -23.667 -2 -33s-3 -18.333 -5 -27
c-6 -20 -15.333 -37.167 -28 -51.5s-28.667 -25.166 -48 -32.499c-4.66699 -1.33301 -8.66699 -2.33301 -12 -3s-6.33301 -1 -9 -1c-3.33301 0 -6.16602 0.333008 -8.49902 1s-4.5 1.66699 -6.5 3c-4 2.66699 -7 6.33398 -9 11.001s-3 9.66699 -3 15
c-0.666992 7.33301 0.666016 13.166 3.99902 17.499s8.66602 7.83301 15.999 10.5c17.333 8 27.333 14.167 30 18.5s4.33398 9.16602 5.00098 14.499c0 5.33301 -0.833008 8.83301 -2.5 10.5s-5.16699 2.83398 -10.5 3.50098c-12 0.666992 -21.5 4.16699 -28.5 10.5
s-12.167 15.5 -15.5 27.5c-1.33301 4 -2.5 8.33301 -3.5 13s-1.16699 10 -0.5 16c0 4.66699 0.5 9.66699 1.5 15s2.5 10.666 4.5 15.999c5.33301 13.333 13.166 23.666 23.499 30.999s22.833 11 37.5 11z" />
    <glyph glyph-name="hyphen" unicode="-" horiz-adv-x="320" 
d="M110 331c5.33301 0 17.668 -4.50098 37.001 -13.501s41.333 -9.83301 66 -2.5c14.667 4 22.667 6.16699 24 6.5s3 0.5 5 0.5c7.33301 0 13.833 -3 19.5 -9s8.5 -14.667 8.5 -26c0 -31.333 -12.5 -55.333 -37.5 -72s-59.833 -25 -104.5 -25
c-30.667 -0.666992 -51.334 3 -62.001 11s-16 20.333 -16 37c0 22.667 6.5 43.834 19.5 63.501s26.5 29.5 40.5 29.5z" />
    <glyph glyph-name="hyphen" unicode="&#xad;" horiz-adv-x="320" 
d="M110 331c5.33301 0 17.668 -4.50098 37.001 -13.501s41.333 -9.83301 66 -2.5c14.667 4 22.667 6.16699 24 6.5s3 0.5 5 0.5c7.33301 0 13.833 -3 19.5 -9s8.5 -14.667 8.5 -26c0 -31.333 -12.5 -55.333 -37.5 -72s-59.833 -25 -104.5 -25
c-30.667 -0.666992 -51.334 3 -62.001 11s-16 20.333 -16 37c0 22.667 6.5 43.834 19.5 63.501s26.5 29.5 40.5 29.5z" />
    <glyph glyph-name="period" unicode="." horiz-adv-x="231" 
d="M118 143c14 0 25.835 -3.49902 35.502 -10.499s17.167 -17.5 22.5 -31.5c1.33301 -4.66699 2.5 -9.83398 3.5 -15.501s1.5 -11.5 1.5 -17.5c0 -8 -0.666992 -15.333 -2 -22s-3 -12.667 -5 -18c-5.33301 -12.667 -12.5 -22.167 -21.5 -28.5s-20.833 -9.5 -35.5 -9.5
s-26.834 3.16699 -36.501 9.5s-17.167 15.833 -22.5 28.5c-3.33301 6 -5.5 12.333 -6.5 19s-1.5 13.667 -1.5 21c-0.666992 6 -0.333984 12 0.999023 18s3.33301 12 6 18c5.33301 12 12.833 21.5 22.5 28.5s22.5 10.5 38.5 10.5z" />
    <glyph glyph-name="slash" unicode="/" horiz-adv-x="494" 
d="M176 134l94 438c14.667 70 30.834 116.5 48.501 139.5s40.167 34.5 67.5 34.5c16.667 0 30.5 -5.83301 41.5 -17.5s16.5 -28.5 16.5 -50.5c0 -16 -3.5 -30.167 -10.5 -42.5s-17.5 -21.833 -31.5 -28.5c-21.333 -10.667 -33.833 -18.834 -37.5 -24.501
s-6.16699 -12.167 -7.5 -19.5l-105 -499c-12.667 -59.333 -29.667 -101.833 -51 -127.5s-47 -38.5 -77 -38.5c-22.667 0 -40.667 6.5 -54 19.5s-20 27.833 -20 44.5c0 16 2.66699 29.167 8 39.5s13.666 19.5 24.999 27.5c9.33301 6 21.833 12.333 37.5 19
s26.5 13.667 32.5 21c4 4.66699 7.83301 12.334 11.5 23.001s7.5 24.667 11.5 42z" />
    <glyph glyph-name="zero" unicode="0" horiz-adv-x="384" 
d="M196 -10c-12.667 0 -25.168 1.99805 -37.501 5.99805s-23.166 10 -32.499 18c-26 20 -46 58.833 -60 116.5s-21 129.5 -21 215.5c0 90.667 7 163.667 21 219s34.333 93.333 61 114c8.66699 6.66699 18.667 11.834 30 15.501s23 5.5 35 5.5
c10.667 -0.666992 21.167 -2.66699 31.5 -6s20.166 -8 29.499 -14c28.667 -21.333 50.167 -60 64.5 -116s21.5 -124.667 21.5 -206c0 -97.333 -6.66699 -174.166 -20 -230.499s-34.333 -95.166 -63 -116.499c-9.33301 -6.66699 -19.166 -11.834 -29.499 -15.501
s-20.5 -5.5 -30.5 -5.5zM144.999 395.998l-0.000976562 -105c0 -42.667 3.66699 -72.834 11 -90.501s19.666 -26.5 36.999 -26.5c15.333 -0.666992 26.833 6.5 34.5 21.5s11.5 46.833 11.5 95.5v106c-0.666992 48 -4.5 79.833 -11.5 95.5s-18.833 23.5 -35.5 23.5
c-17.333 0 -29.666 -8.16699 -36.999 -24.5s-10.666 -48.166 -9.99902 -95.499z" />
    <glyph glyph-name="one" unicode="1" horiz-adv-x="387" 
d="M164 219l0.00195312 283.001c-2.66699 0 -4.66699 -0.166992 -6 -0.5s-5.66602 -2.83301 -12.999 -7.5c-9.33301 -6.66699 -20.5 -9 -33.5 -7s-23.5 7.33301 -31.5 16c-17.333 16 -24 38.333 -20 67s17.667 50.667 41 66c8 5.33301 19.167 11 33.5 17
s27.166 14.333 38.499 25c12 11.333 20.167 17.833 24.5 19.5s10.166 2.5 17.499 2.5c4.66699 0 8.16699 -0.166992 10.5 -0.5s4.83301 -0.833008 7.5 -1.5c8.66699 -3.33301 15.167 -9 19.5 -17s6.5 -20.333 6.5 -37v-425c-0.666992 -35.333 -1 -52.833 -1 -52.5
s6.66699 -16.834 20 -51.501c6.66699 -18.667 9.5 -35.5 8.5 -50.5s-5.5 -28.833 -13.5 -41.5c-7.33301 -10 -16.333 -18 -27 -24s-22 -9 -34 -9s-23.667 2.66699 -35 8s-20.333 13 -27 23c-8.66699 10.667 -13.5 23.667 -14.5 39s1.5 32 7.5 50
c11.333 36 17.666 59.333 18.999 70s2 23.667 2 39z" />
    <glyph glyph-name="two" unicode="2" horiz-adv-x="399" 
d="M193 700c12.667 0 25.1592 -1.66895 37.4922 -5.00195s24.166 -8 35.499 -14c22.667 -13.333 40.334 -32.166 53.001 -56.499s19 -53.833 19 -88.5c-0.666992 -24 -3.66699 -47.5 -9 -70.5s-13.666 -46.167 -24.999 -69.5c-10 -20 -26.667 -47 -50 -81
s-40.666 -60.333 -51.999 -79c-15.333 -24.667 -26.833 -46 -34.5 -64s-11.5 -32.333 -11.5 -43c0 -4.66699 0.833008 -8.16699 2.5 -10.5s3.83398 -3.5 6.50098 -3.5c4.66699 0 12.667 3 24 9l25 13c15.333 6 31.833 8.83301 49.5 8.5s33.5 -4.16602 47.5 -11.499
c22.667 -13.333 36.5 -33.5 41.5 -60.5s-0.166992 -48.5 -15.5 -64.5c-6 -6 -13.5 -10.667 -22.5 -14s-17.833 -5 -26.5 -5c-3.33301 0 -6.5 0.333008 -9.5 1s-14.5 3 -34.5 7c-19.333 4 -39.833 6.16699 -61.5 6.5s-41.167 -1.16699 -58.5 -4.5
c-36 -6.66699 -58.5 -6 -67.5 2s-12.833 23.333 -11.5 46c1.33301 31.333 7.5 65.333 18.5 102s26.167 72.667 45.5 108l17.5 30c6.33301 10.667 18.833 29.667 37.5 57l28.5 44l19.5 32c14.667 26 22.834 48.833 24.501 68.5s-3.16602 35.5 -14.499 47.5
c-7.33301 6 -15.166 9.33301 -23.499 10s-15.5 -1 -21.5 -5c-3.33301 -2.66699 -8.16602 -8 -14.499 -16s-14.5 -13.333 -24.5 -16c-12 -4 -24.667 -4.5 -38 -1.5s-24 8.5 -32 16.5c-23.333 20.667 -30.166 48.667 -20.499 84s32.5 61 68.5 77c10 4 21.333 7.16699 34 9.5
s27 3.83301 43 4.5z" />
    <glyph glyph-name="three" unicode="3" horiz-adv-x="385" 
d="M172 700c8.66699 0 17.6719 -1.16797 27.0049 -3.50098s18.666 -5.5 27.999 -9.5c45.333 -21.333 73.833 -57 85.5 -107s4.16699 -94.667 -22.5 -134c-7.33301 -10.667 -15.833 -20.334 -25.5 -29.001s-19.834 -16 -30.501 -22c32 -14.667 57.667 -38.167 77 -70.5
s29 -73.166 29 -122.499c0 -70 -18.5 -122.833 -55.5 -158.5s-82.5 -53.5 -136.5 -53.5c-18.667 0 -34.834 2.66699 -48.501 8s-24.834 13.333 -33.501 24c-12.667 14 -19.834 32.5 -21.501 55.5s3.83301 42.833 16.5 59.5c10.667 14 25 23 43 27s37.667 1.66699 59 -7
c16 -7.33301 27.5 -10.666 34.5 -9.99902s14.167 4 21.5 10s13 14.667 17 26s6 26.666 6 45.999c0 16.667 -1.16699 30.334 -3.5 41.001s-5.5 20 -9.5 28c-6.66699 10.667 -15.5 19 -26.5 25s-21.833 9 -32.5 9c-4 0 -9.16699 -0.666992 -15.5 -2s-11.166 -2 -14.499 -2
c-10.667 0 -20 4.16699 -28 12.5s-12 19.166 -12 32.499c-0.666992 10.667 1.83301 20 7.5 28s29.167 21.333 70.5 40c26.667 11.333 43 28.5 49 51.5s2.33301 40.5 -11 52.5c-6.66699 5.33301 -13.834 7.83301 -21.501 7.5s-15.5 -3.16602 -23.5 -8.49902
c-18 -12.667 -29.833 -19.667 -35.5 -21s-11.834 -2 -18.501 -2c-20.667 0 -37.334 7.33301 -50.001 22s-19 32 -19 52c-0.666992 23.333 5.83301 43.5 19.5 60.5s32.834 29.5 57.501 37.5c7.33301 2 14.833 3.66699 22.5 5s15.834 2 24.501 2z" />
    <glyph glyph-name="four" unicode="4" horiz-adv-x="452" 
d="M209 291l48.9951 165.004c4 15.333 9 25.333 15 30s14 7 24 7c12 -0.666992 20.667 -6 26 -16s6.66602 -23.333 3.99902 -40l-24 -146c2 -0.666992 4.16699 -0.833984 6.5 -0.500977s8.5 2.16602 18.5 5.49902c24.667 7.33301 44.834 4.83301 60.501 -7.5
s23.5 -31.833 23.5 -58.5c0 -30.667 -7.5 -52.834 -22.5 -66.501s-34.5 -15.5 -58.5 -5.5c-10.667 4 -17.334 6.16699 -20.001 6.5s-5.66699 0.5 -9 0.5c-2 -8 -2.33301 -15.167 -1 -21.5s4.66602 -15.166 9.99902 -26.499c8 -18.667 13 -31.5 15 -38.5s3 -13.167 3 -18.5
c0 -12.667 -2.66699 -24.5 -8 -35.5s-11.666 -19.167 -18.999 -24.5c-4.66699 -2.66699 -10.167 -4.83398 -16.5 -6.50098s-13.166 -2.83398 -20.499 -3.50098c-10 0 -19.5 1.5 -28.5 4.5s-16.833 7.16699 -23.5 12.5c-12.667 9.33301 -22 21.833 -28 37.5
s-9 34.167 -9 55.5c0 12 1 25.5 3 40.5s5 29.833 9 44.5c-8.66699 0 -16.667 -0.333008 -24 -1s-18 -2.66699 -32 -6c-26 -6.66699 -44.667 -9.5 -56 -8.5s-20 4.83301 -26 11.5c-6.66699 6.66699 -10.167 15.167 -10.5 25.5s4.5 26.833 14.5 49.5
c13.333 30.667 24.833 61.667 34.5 93s20.5 75.666 32.5 132.999c16 77.333 30.833 129.5 44.5 156.5s30.834 45.5 51.501 55.5l12.5 4c4.33301 1.33301 8.83301 2 13.5 2c2 0 4.33301 -0.5 7 -1.5s5.33398 -1.83301 8.00098 -2.5c6 -4 11 -10.5 15 -19.5s6 -21.167 6 -36.5
c0 -21.333 -2.5 -42.666 -7.5 -63.999s-13.5 -47 -25.5 -77c-13.333 -34 -28.666 -69.5 -45.999 -106.5s-32.666 -67.5 -45.999 -91.5c-2 -3.33301 -3.5 -6.33301 -4.5 -9s-1.16699 -5 -0.5 -7c0 -1.33301 1 -2.33301 3 -3s6.33301 -1 13 -1
c4.66699 0 10.834 0.666992 18.501 2s16.167 4 25.5 8z" />
    <glyph glyph-name="five" unicode="5" 
d="M96 402l18.998 249.001c1.33301 18.667 2.66602 30 3.99902 34s3.33301 7 6 9s7.33398 3.16699 14.001 3.5s17.667 -1.16699 33 -4.5c18.667 -4.66699 35.834 -6.83398 51.501 -6.50098s32.834 2.83301 51.501 7.5c8 2 15.5 3.5 22.5 4.5s13.833 1.5 20.5 1.5
c3.33301 0 6.66602 -1 9.99902 -3s6.33301 -4 9 -6c7.33301 -9.33301 8.33301 -30.333 3 -63s-14.333 -54.334 -27 -65.001c-8.66699 -7.33301 -19.334 -12 -32.001 -14s-25 -0.666992 -37 4l-56 18l-2 1l-11 -118c6.66699 0.666992 13.834 1.5 21.501 2.5
s14.5 1.5 20.5 1.5c20 0 37.667 -4.16699 53 -12.5s29 -20.5 41 -36.5c12.667 -18 22.334 -38.833 29.001 -62.5s10 -55.167 10 -94.5c-0.666992 -37.333 -3.66699 -70.833 -9 -100.5s-14 -55.167 -26 -76.5c-16 -28.667 -37.5 -50 -64.5 -64s-57.833 -21 -92.5 -21
c-20.667 0 -38.834 3 -54.501 9s-27.834 14.333 -36.501 25c-14.667 15.333 -22.167 34.333 -22.5 57s5.16699 41.334 16.5 56.001c10 12.667 23.5 21.5 40.5 26.5s34.833 3.83301 53.5 -3.5c26.667 -11.333 46 -14.166 58 -8.49902s21.333 18.5 28 38.5
c6 19.333 8.83301 42.5 8.5 69.5s-4.16602 48.5 -11.499 64.5c-8.66699 16 -19.667 26 -33 30s-27.666 1.33301 -42.999 -8c-22 -14 -33.833 -21.167 -35.5 -21.5s-3.16699 -0.166016 -4.5 0.500977c-10.667 -0.666992 -18.5 3.16602 -23.5 11.499
s-5.83301 30.166 -2.5 65.499z" />
    <glyph glyph-name="six" unicode="6" 
d="M234 207l-0.000976562 40.9961c-0.666992 16 -2 28.5 -4 37.5s-12.333 18.5 -31 28.5c-21.333 10.667 -34.166 27 -38.499 49s-0.166016 42.667 12.501 62c6 10 14.5 18.167 25.5 24.5s22.833 9.83301 35.5 10.5c18 0 33.333 -5 46 -15s23 -23.333 31 -40
c6.66699 -16 11.834 -36.5 15.501 -61.5s5.5 -52.833 5.5 -83.5c0 -63.333 -7 -117.166 -21 -161.499s-34.333 -74.833 -61 -91.5c-9.33301 -5.33301 -19.333 -9.5 -30 -12.5s-21.667 -4.5 -33 -4.5c-18 0 -33.667 3 -47 9s-25.333 16 -36 30
c-20.667 24.667 -35.667 61.5 -45 110.5s-14 110.833 -14 185.5c0 116.667 11.333 203 34 259s58.667 92 108 108c8 2 16.167 3.83301 24.5 5.5s16.833 2.5 25.5 2.5c18.667 0 35.667 -2.83301 51 -8.5s28 -13.167 38 -22.5c7.33301 -8.66699 13.166 -18.5 17.499 -29.5
s6.5 -22.167 6.5 -33.5c0 -14 -3.5 -26.333 -10.5 -37s-16.167 -19 -27.5 -25c-9.33301 -5.33301 -18.833 -8.16602 -28.5 -8.49902s-21.167 1.83398 -34.5 6.50098c-22 7.33301 -38.667 8.66602 -50 3.99902s-21 -14 -29 -28
c-8.66699 -15.333 -15.334 -38.166 -20.001 -68.499s-7 -64.166 -7 -101.499c0 -45.333 1 -81.5 3 -108.5s5.33301 -45.833 10 -56.5c4 -10 9.16699 -17.333 15.5 -22s13.5 -7 21.5 -7c12.667 0 22.667 4.5 30 13.5s11 22.167 11 39.5z" />
    <glyph glyph-name="seven" unicode="7" horiz-adv-x="389" 
d="M315 699c2 0 4.00195 -0.335938 6.00195 -1.00293l6 -2c9.33301 -5.33301 14.666 -14.333 15.999 -27s-1 -29.667 -7 -51c-25.333 -86 -41.333 -139 -48 -159s-14 -40.667 -22 -62c-32 -86 -49.5 -133.833 -52.5 -143.5s-5.16699 -19.167 -6.5 -28.5
c-3.33301 -17.333 -4.66602 -31.833 -3.99902 -43.5s11 -33.167 31 -64.5c11.333 -19.333 17.5 -37.833 18.5 -55.5s-3.5 -32.834 -13.5 -45.501c-6.66699 -8.66699 -15.334 -15.167 -26.001 -19.5s-21.334 -6.5 -32.001 -6.5
c-9.33301 0.666992 -18.5 2.33398 -27.5 5.00098s-16.833 6.66699 -23.5 12c-15.333 10.667 -26.333 25.167 -33 43.5s-10 41.833 -10 70.5c-0.666992 20.667 0.833008 41.334 4.5 62.001s10.167 45.667 19.5 75c3.33301 12 7.66602 25.167 12.999 39.5s30 69.5 74 165.5
c10 22 17.667 40.833 23 56.5s10.333 32.167 15 49.5l-18 -3l-59 -17c-34 -10.667 -61.5 -9.5 -82.5 3.5s-31.5 35.833 -31.5 68.5c0 13.333 2.33301 25.5 7 36.5s11.334 20.167 20.001 27.5c6 4.66699 13 8.33398 21 11.001s16.333 4 25 4h1l72 -12
c16 -3.33301 31.333 -4.5 46 -3.5s29.667 3.83301 45 8.5c10 2.66699 17 4.33398 21 5.00098s8 1 12 1z" />
    <glyph glyph-name="eight" unicode="8" horiz-adv-x="380" 
d="M190 700c8.66699 0 17.333 -0.832031 26 -2.49902s17 -4.16699 25 -7.5c24 -11.333 43.333 -30.333 58 -57s22 -57.667 22 -93c0 -32.667 -5.5 -64.5 -16.5 -95.5s-26.167 -57.5 -45.5 -79.5c26.667 -32.667 46 -63.834 58 -93.501s18 -60.167 18 -91.5
c0 -37.333 -6.5 -71.166 -19.5 -101.499s-29.833 -52.5 -50.5 -66.5c-10.667 -7.33301 -22.5 -12.833 -35.5 -16.5s-26.167 -5.5 -39.5 -5.5c-14 0 -27.5 1.83301 -40.5 5.5s-24.5 9.16699 -34.5 16.5c-21.333 14 -38.333 36.167 -51 66.5s-19 64.166 -19 101.499
c0 31.333 5.83301 61.833 17.5 91.5s31.167 60.834 58.5 93.501c-20 22 -35.333 48.5 -46 79.5s-16 62.833 -16 95.5c0 35.333 7.16699 66.333 21.5 93s33.833 45.667 58.5 57c7.33301 3.33301 15.333 5.66602 24 6.99902s17.667 2.33301 27 3zM189.999 419.001
c12 10 20.999 21.833 26.999 35.5s9 28.167 9 43.5c0 14 -3.5 25.5 -10.5 34.5s-15.167 13.5 -24.5 13.5c-11.333 0 -20.333 -4.5 -27 -13.5s-10 -20.5 -10 -34.5c0 -15.333 2.83301 -29.833 8.5 -43.5s14.834 -25.5 27.501 -35.5zM189.998 294.001
c-14 -12.667 -25.1699 -27.667 -33.5029 -45s-12.166 -34.333 -11.499 -51c-0.666992 -17.333 3.5 -30.666 12.5 -39.999s19.833 -14 32.5 -14c12 0 22.333 4.66699 31 14s13.334 22.666 14.001 39.999c0 16.667 -4.16699 33.667 -12.5 51s-19.166 32.333 -32.499 45z" />
    <glyph glyph-name="nine" unicode="9" 
d="M161 483l-0.000976562 -51.002c0 -13.333 1.33301 -23.833 4 -31.5s13 -15.834 31 -24.501c20 -10.667 32.333 -27.167 37 -49.5s1 -42.833 -11 -61.5c-7.33301 -11.333 -16.833 -20.166 -28.5 -26.499s-23.834 -9.16602 -36.501 -8.49902c-16 0 -30.333 4.66699 -43 14
s-22.667 23 -30 41c-7.33301 15.333 -12.666 35.5 -15.999 60.5s-5 53.167 -5 84.5c0 62.667 6.83301 116.167 20.5 160.5s34.167 75.166 61.5 92.499c8.66699 5.33301 18.334 9.5 29.001 12.5s22 4.5 34 4.5c17.333 0 32.666 -3.16699 45.999 -9.5
s25.666 -16.166 36.999 -29.499c20 -25.333 34.833 -62.5 44.5 -111.5s14.5 -110.5 14.5 -184.5c-0.666992 -80 -4.33398 -140.167 -11.001 -180.5s-16.667 -73.833 -30 -100.5c-12 -23.333 -26.167 -41.833 -42.5 -55.5s-35.833 -23.834 -58.5 -30.501
c-9.33301 -2 -18.666 -3.83301 -27.999 -5.5s-18.333 -2.5 -27 -2.5c-16.667 0 -32.5 2.5 -47.5 7.5s-27.167 12.833 -36.5 23.5c-8 8 -14 17.5 -18 28.5s-6 22.5 -6 34.5c0 13.333 3.33301 25.333 10 36s16 19.334 28 26.001c8.66699 4.66699 17.834 7.16699 27.501 7.5
s21.5 -1.5 35.5 -5.5c21.333 -8 37.666 -9.66699 48.999 -5s21.333 14.334 30 29.001c8 14.667 14.333 37.167 19 67.5s7.33398 64.5 8.00098 102.5c0 44.667 -1.16699 80.5 -3.5 107.5s-5.5 46.167 -9.5 57.5c-4.66699 9.33301 -10.167 16.5 -16.5 21.5
s-13.166 7.5 -20.499 7.5c-13.333 0 -23.5 -4.66699 -30.5 -14s-10.5 -22.333 -10.5 -39z" />
    <glyph glyph-name="colon" unicode=":" horiz-adv-x="224" 
d="M113 466c20 0 35.167 -6.33398 45.5 -19.001s15.5 -31 15.5 -55c0 -27.333 -5 -47.166 -15 -59.499s-25.333 -18.5 -46 -18.5c-21.333 0 -37.333 7 -48 21s-15.667 33 -15 57c0 24 5.5 42.333 16.5 55s26.5 19 46.5 19zM113 141.999c20 0 35.166 -6.33398 45.499 -19.001
s15.5 -31 15.5 -55c0 -27.333 -5 -47.166 -15 -59.499s-25.333 -18.5 -46 -18.5c-21.333 0 -37.166 7 -47.499 21s-15.5 33 -15.5 57s5.5 42.333 16.5 55s26.5 19 46.5 19z" />
    <glyph glyph-name="semicolon" unicode=";" horiz-adv-x="221" 
d="M112 466c20 0 35.166 -6.33301 45.499 -19s15.5 -31 15.5 -55c0 -27.333 -5 -47.166 -15 -59.499s-25.333 -18.5 -46 -18.5c-21.333 -0.666992 -37.166 6.16602 -47.499 20.499s-15.5 33.5 -15.5 57.5s5.5 42.333 16.5 55s26.5 19 46.5 19zM111.999 133
c22 0 39.8359 -8.66797 53.5029 -26.001s20.5 -43 20.5 -77c0 -44 -10.333 -78.667 -31 -104s-46.334 -38 -77.001 -38c-7.33301 0 -12.833 2.16699 -16.5 6.5s-5.16699 9.83301 -4.5 16.5c0 10.667 1.66699 19 5 25s9.66602 10.333 18.999 13
c10 3.33301 17.333 7.66602 22 12.999s7 12 7 20c0 3.33301 -0.166992 5 -0.5 5s-9.5 3 -27.5 9c-10 2.66699 -18 9.83398 -24 21.501s-9 25.834 -9 42.501c0 22 6.16699 39.5 18.5 52.5s27.166 19.833 44.499 20.5z" />
    <glyph glyph-name="equal" unicode="=" horiz-adv-x="472" 
d="M108 393c-17.333 0 -30.833 1.66699 -40.5 5s-17.5 8.66602 -23.5 15.999c-11.333 12 -16.5 26.833 -15.5 44.5s6.5 31.167 16.5 40.5c5.33301 5.33301 13.333 9.33301 24 12s24.334 4 41.001 4c92 0 157.333 -1.66699 196 -5s64.334 -8 77.001 -14
c12 -6.66699 21.5 -14.834 28.5 -24.501s10.5 -20.167 10.5 -31.5c-0.666992 -10 -3.33398 -18.5 -8.00098 -25.5s-11.667 -11.5 -21 -13.5c-3.33301 -1.33301 -6.33301 -2.16602 -9 -2.49902s-17.334 1.5 -44.001 5.5c-7.33301 0.666992 -16.5 0.833984 -27.5 0.500977
s-30.833 -1.16602 -59.5 -2.49902c-98 -6.66699 -146.5 -9.83398 -145.5 -9.50098s1.16699 0.5 0.5 0.5zM108 238c-17.333 0 -30.835 1.66699 -40.502 5s-17.5 8.66602 -23.5 15.999c-11.333 12 -16.5 26.833 -15.5 44.5s6.5 31.167 16.5 40.5
c5.33301 5.33301 13.333 9.33301 24 12s24.334 4 41.001 4c92 0 157.333 -1.66699 196 -5s64.334 -8 77.001 -14c12 -6.66699 21.333 -14.834 28 -24.501s10.334 -20.167 11.001 -31.5c0 -10 -2.5 -18.5 -7.5 -25.5s-12.167 -11.5 -21.5 -13.5
c-3.33301 -1.33301 -6.33301 -2.16602 -9 -2.49902s-17.334 1.5 -44.001 5.5c-7.33301 0.666992 -16.5 0.833984 -27.5 0.500977s-30.833 -1.16602 -59.5 -2.49902c-98 -6.66699 -146.5 -9.83398 -145.5 -9.50098s1.16699 0.5 0.5 0.5z" />
    <glyph glyph-name="question" unicode="?" horiz-adv-x="375" 
d="M174 700c9.33301 0 18.499 -0.666992 27.499 -2s18.167 -3 27.5 -5c32 -9.33301 56 -25.333 72 -48s24 -50 24 -82c0 -22.667 -4.66699 -47.167 -14 -73.5s-22 -50.5 -38 -72.5l-52 -71c-15.333 -21.333 -24.166 -37 -26.499 -47s-1.16602 -20.333 3.50098 -31
c9.33301 -26.667 14.166 -40.667 14.499 -42s0.5 -2.66602 0.5 -3.99902c0 -10.667 -4.33301 -19.834 -13 -27.501s-19.667 -11.167 -33 -10.5c-11.333 0 -21.5 2.66699 -30.5 8s-16.167 13.333 -21.5 24c-10 17.333 -13.5 38.666 -10.5 63.999s10.833 50 23.5 74
c8 16 20.167 35.333 36.5 58s27.5 41.334 33.5 56.001c12 30 14.833 53.167 8.5 69.5s-17.5 20.166 -33.5 11.499c-26.667 -14.667 -41.5 -22.167 -44.5 -22.5s-6.5 -0.5 -10.5 -0.5c-20 0 -36.333 7.16699 -49 21.5s-19 32.5 -19 54.5c-0.666992 20.667 4.5 38.667 15.5 54
s26.833 27 47.5 35c8 2.66699 16.833 4.83398 26.5 6.50098s21.167 2.5 34.5 2.5zM174.999 143c20 0 35.332 -7 45.999 -21s16.334 -32 17.001 -54c0 -24.667 -5.5 -43.834 -16.5 -57.501s-26.5 -20.5 -46.5 -20.5c-20.667 0 -37.167 6.83301 -49.5 20.5
s-18.5 32.834 -18.5 57.501c0 22 5.83301 40 17.5 54s28.5 21 50.5 21z" />
    <glyph glyph-name="A" unicode="A" horiz-adv-x="536" 
d="M349 71l-0.00585938 78.999c-10.667 20.667 -21.5 38.834 -32.5 54.501s-21.833 28.834 -32.5 39.501c-4 -110 -12.167 -197.333 -24.5 -262s-29.166 -109.667 -50.499 -135c-12 -12.667 -26.333 -23.334 -43 -32.001s-31.667 -13 -45 -13
c-22 0 -39.833 6.83301 -53.5 20.5s-20.5 32.167 -20.5 55.5c-0.666992 20.667 3.33301 39.167 12 55.5s24.334 33.833 47.001 52.5c28 24 45.833 48.167 53.5 72.5s19.834 98.5 36.501 222.5c-4 1.33301 -7.5 1.66602 -10.5 0.999023s-6.83301 -3.33398 -11.5 -8.00098
c-13.333 -14 -24.666 -23.167 -33.999 -27.5s-19.333 -6.5 -30 -6.5c-19.333 0 -35.166 6.83301 -47.499 20.5s-18.166 31.167 -17.499 52.5c0 24 10.5 45.167 31.5 63.5s46.833 27.5 77.5 27.5c10 0 19.333 -1.16699 28 -3.5s17.667 -5.83301 27 -10.5
c12 92 24.333 153.667 37 185s30 58.333 52 81c13.333 14 28 24.833 44 32.5s33.667 11.5 53 11.5c28 0 51 -8.66699 69 -26s27 -38.666 27 -63.999c0 -13.333 -3.5 -26 -10.5 -38s-16.167 -21 -27.5 -27l-9 -5l-72 1c-10 0 -18 -2.16699 -24 -6.5s-11.333 -11.5 -16 -21.5
c-8 -15.333 -15.333 -41.666 -22 -78.999s-10.667 -72.666 -12 -105.999c10.667 -11.333 20.167 -23.5 28.5 -36.5s17.833 -30.5 28.5 -52.5h3l5 240c0 14.667 2.66699 25.5 8 32.5s13.333 10.5 24 10.5c11.333 0 20.166 -3.33301 26.499 -10s10.5 -18 12.5 -34l29 -307
c8 -91.333 7.33301 -144.333 -2 -159s-25.666 -22 -48.999 -22c-22 0 -38 6.66699 -48 20s-15 33.666 -15 60.999z" />
    <glyph glyph-name="B" unicode="B" horiz-adv-x="444" 
d="M187 468l7.00195 -105.998c23.333 23.333 42.166 46 56.499 68s21.5 41 21.5 57c-0.666992 18.667 -6.16699 33.334 -16.5 44.001s-24.5 16 -42.5 16c-10.667 0 -25.667 -1.83301 -45 -5.5s-33.666 -5.5 -42.999 -5.5c-26 0 -46.833 6.83301 -62.5 20.5
s-23.5 32.5 -23.5 56.5c-0.666992 27.333 9.33301 48.666 30 63.999s57 23 109 23c18 0 33.5 -0.666992 46.5 -2s25.5 -3 37.5 -5c36.667 -8.66699 66 -25.5 88 -50.5s33 -57.833 33 -98.5c0 -34 -6.66699 -67.333 -20 -100s-33.333 -61 -60 -85
c28.667 -24.667 51 -56.334 67 -95.001s24 -83.667 24 -135c0 -70 -18.667 -133.333 -56 -190s-83.666 -97 -138.999 -121c-50 -20.667 -90.667 -22.834 -122 -6.50098s-47 41.5 -47 75.5c-0.666992 22 5.66602 39.667 18.999 53s44 22 92 26c42 4 76.667 22.667 104 56
s41.333 77 42 131c0 29.333 -3.5 55.166 -10.5 77.499s-18.833 43.5 -35.5 63.5l-42 -40l15 -196c1.33301 -20.667 -4 -37.167 -16 -49.5s-28.667 -18.5 -50 -18.5c-18 0.666992 -32.667 7.5 -44 20.5s-16.333 29.167 -15 48.5l28 406
c1.33301 24.667 4.66602 40.167 9.99902 46.5s13.666 9.83301 24.999 10.5c10 0 17.833 -3.16699 23.5 -9.5s9.5 -21.166 11.5 -44.499z" />
    <glyph glyph-name="C" unicode="C" horiz-adv-x="431" 
d="M246 700c16.667 0 31.6611 -1.66699 44.9941 -5s25.333 -8 36 -14c18.667 -12 34 -29.667 46 -53s18 -51 18 -83c0 -39.333 -9.5 -70.666 -28.5 -93.999s-45.167 -35 -78.5 -35c-24 0 -44.167 6.83301 -60.5 20.5s-24.166 33.167 -23.499 58.5c0 16 3.66699 29.667 11 41
s17.333 18.666 30 21.999c16.667 3.33301 25.834 6.16602 27.501 8.49902s2.83398 5.16602 3.50098 8.49902c0 4 -2 7.83301 -6 11.5s-10 5.5 -18 5.5c-12 0 -23.5 -3.5 -34.5 -10.5s-20.5 -15.5 -28.5 -25.5c-15.333 -19.333 -26.333 -48.333 -33 -87s-10 -88 -10 -148
c0 -38.667 2.16699 -69.5 6.5 -92.5s11.5 -40.833 21.5 -53.5c9.33301 -13.333 19 -21.5 29 -24.5s24 -0.5 42 7.5c57.333 24.667 97.833 17.334 121.5 -21.999s18.5 -76 -15.5 -110c-11.333 -11.333 -26.166 -20.166 -44.499 -26.499s-38.166 -9.5 -59.499 -9.5
c-60.667 0 -109.667 27 -147 81s-56 133 -56 237c0 74.667 7.33301 142.5 22 203.5s37.334 107.167 68.001 138.5c16 16.667 33.833 29.167 53.5 37.5s40.5 12.5 62.5 12.5z" />
    <glyph glyph-name="D" unicode="D" horiz-adv-x="450" 
d="M162 700c31.333 0 59.3311 -4.83008 83.998 -14.4971s47 -23.5 67 -41.5c29.333 -28.667 51.166 -65.334 65.499 -110.001s21.5 -98.334 21.5 -161.001c0 -70 -4.66699 -127.5 -14 -172.5s-23.333 -83.167 -42 -114.5c-19.333 -32 -42.5 -56 -69.5 -72
s-59.167 -24 -96.5 -24c-39.333 0 -70.666 8.83301 -93.999 26.5s-34.666 41.167 -33.999 70.5c0 30.667 10.5 52.667 31.5 66s49.5 14.666 85.5 3.99902c19.333 -6.66699 35 -8.66699 47 -6s23.667 9 35 19c14.667 12.667 25.834 31 33.501 55s11.5 62 11.5 114
c-0.666992 57.333 -5 102.5 -13 135.5s-20.667 55.5 -38 67.5c-7.33301 4 -14.5 6.83301 -21.5 8.5s-24.5 -1.5 -52.5 -9.5c-34 -10 -63.333 -7.5 -88 7.5s-36.667 37.167 -36 66.5c0 18.667 6 35.167 18 49.5s29 24.5 51 30.5c6 1.33301 13 2.5 21 3.5s17 1.5 27 1.5z
M192.998 534.003c3.33301 0 6.49902 -0.667969 9.49902 -2.00098s6.16699 -2.66602 9.5 -3.99902c6.66699 -5.33301 11 -12 13 -20s1.33301 -18.333 -2 -31c-2.66699 -9.33301 -5.83398 -18.333 -9.50098 -27s1.83301 -44.334 16.5 -107.001
c11.333 -52 11.166 -93.333 -0.500977 -124s-34.167 -45.667 -67.5 -45c-26 0 -44.667 10.5 -56 31.5s-9.66602 48.167 5.00098 81.5c9.33301 22 15.333 37.167 18 45.5s2.66699 23.5 0 45.5c-3.33301 22 -4.16602 42.833 -2.49902 62.5s5.83398 37.167 12.501 52.5
c5.33301 13.333 12.5 23.333 21.5 30s19.833 10.334 32.5 11.001z" />
    <glyph glyph-name="E" unicode="E" 
d="M223 700c8.66699 0 17.1621 -0.664062 25.4951 -1.99707s16.833 -3 25.5 -5c25.333 -8 44.5 -20.667 57.5 -38s19.833 -37.333 20.5 -60c0 -21.333 -7 -39.166 -21 -53.499s-30.333 -21.5 -49 -21.5c-6 0 -11.833 0.666992 -17.5 2s-17.5 8.66602 -35.5 21.999
c-14.667 9.33301 -28 11 -40 5s-18 -17.667 -18 -35c0 -18.667 5.66699 -35 17 -49s29 -24.667 53 -32c20.667 -7.33301 35.667 -15.666 45 -24.999s14 -21 14 -35c0 -12.667 -4.16699 -23.334 -12.5 -32.001s-17.5 -13 -27.5 -13
c-41.333 -2.66699 -61.666 -3.83398 -60.999 -3.50098s0.333984 0.166016 -0.999023 -0.500977c-14.667 -8 -25 -18.5 -31 -31.5s-9 -34.5 -9 -64.5c0 -26 4.16699 -46.167 12.5 -60.5s21.5 -21.166 39.5 -20.499h3c1.33301 0 12 4.33301 32 13
c4.66699 2 9.83398 3.5 15.501 4.5s11.167 1.83301 16.5 2.5c22 0 40.5 -8 55.5 -24s22.5 -35.667 22.5 -59c0 -29.333 -11 -52.333 -33 -69s-52 -25 -90 -25c-20 0 -39.833 2.66699 -59.5 8s-36.834 13.333 -51.501 24c-39.333 26 -64.5 65 -75.5 117
s-8.16699 101.667 8.5 149c8.66699 25.333 20.5 46.666 35.5 63.999s33.833 31.666 56.5 42.999c-26.667 15.333 -47.167 35 -61.5 59s-21.5 53 -21.5 87c0 32.667 7.83301 62.334 23.5 89.001s37.834 46 66.501 58c8.66699 3.33301 18.834 6.16602 30.501 8.49902
s24.834 3.5 39.501 3.5z" />
    <glyph glyph-name="F" unicode="F" horiz-adv-x="432" 
d="M310 700c21.333 -0.666992 39.5 -7.49902 54.5 -20.499s22.5 -30.167 22.5 -51.5c0 -26.667 -8.33301 -48.5 -25 -65.5s-39 -25.5 -67 -25.5c-10 0 -19.333 1 -28 3s-32.334 12.667 -71.001 32c-11.333 5.33301 -20.333 8.16602 -27 8.49902s-17 -2.5 -31 -8.5
c-20.667 -9.33301 -38.667 -9.83301 -54 -1.5s-23 21.833 -23 40.5c-0.666992 20.667 6.33301 37 21 49s33.667 18 57 18c6 0 15.667 -1 29 -3s23.333 -3 30 -3h3.5c1.66699 0 24.167 7 67.5 21c6.66699 2 13.334 3.66699 20.001 5s13.667 2 21 2zM200 338.001
l-0.00195312 -19.0029c6.66699 18.667 13.5 34.667 20.5 48s14.167 23.333 21.5 30c14 12.667 29.333 19.334 46 20.001s31.334 -3.66602 44.001 -12.999c12.667 -10.667 20.5 -24.667 23.5 -42s1.16699 -33 -5.5 -47c-4.66699 -8.66699 -11 -17.167 -19 -25.5
s-24.667 -19.833 -50 -34.5c-27.333 -16.667 -43.666 -33.167 -48.999 -49.5s-9 -77.5 -11 -183.5c-2 -85.333 -13.5 -143.333 -34.5 -174s-50.167 -46 -87.5 -46c-20.667 0 -37.5 7.33301 -50.5 22s-19.167 32.334 -18.5 53.001c0 7.33301 0.5 14.666 1.5 21.999
s17.5 49 49.5 125c10.667 26 18.5 53.167 23.5 81.5s7.5 67.5 7.5 117.5c0 36.667 -2 68.834 -6 96.501s-6 61.5 -6 101.5c0 47.333 6 83 18 107s27 36 45 36c10.667 0 19.667 -3.66699 27 -11s11 -16 11 -26c0 -4.66699 -1 -11.167 -3 -19.5s-3 -20.5 -3 -36.5
c0 -27.333 0.833008 -51 2.5 -71s2.5 -40.667 2.5 -62z" />
    <glyph glyph-name="G" unicode="G" horiz-adv-x="431" 
d="M295 43l-0.00292969 35.9951c-7.33301 -17.333 -16.5 -33.166 -27.5 -47.499s-21.833 -24.5 -32.5 -30.5c-6.66699 -3.33301 -14.167 -6 -22.5 -8s-17.833 -3 -28.5 -3c-9.33301 0 -18.666 1.66699 -27.999 5s-17.666 7.66602 -24.999 12.999
c-26.667 18 -47.667 54.333 -63 109s-23 121.334 -23 200.001c0 104 12.167 186.333 36.5 247s59.5 101.334 105.5 122.001c10 4 20.333 7.33301 31 10s21.667 4 33 4c16 0 30.167 -1.33301 42.5 -4s23.5 -6.33398 33.5 -11.001c27.333 -14 44.833 -33.667 52.5 -59
s5.83398 -48.333 -5.49902 -69c-6.66699 -11.333 -15 -20.166 -25 -26.499s-21.667 -9.5 -35 -9.5c-10 0 -19.333 1.66699 -28 5s-17.334 9.33301 -26.001 18c-19.333 16.667 -34 25.167 -44 25.5s-19.667 -4.16699 -29 -13.5c-13.333 -13.333 -23.333 -38 -30 -74
s-10 -83.667 -10 -143c0 -44.667 1.83301 -85.667 5.5 -123s9.16699 -63.333 16.5 -78c7.33301 -16 17.666 -25.5 30.999 -28.5s25.666 0.5 36.999 10.5c8.66699 7.33301 14.834 19.166 18.501 35.499s5.5 40.833 5.5 73.5c0 12 -1.16699 21.167 -3.5 27.5
s-9.5 14.5 -21.5 24.5c-13.333 9.33301 -22.166 18 -26.499 26s-6.16602 17.667 -5.49902 29c0 14.667 3.16699 27.834 9.5 39.501s14.833 20.834 25.5 27.501c18 10.667 37 13 57 7s35.333 -19.333 46 -40c11.333 -23.333 21.5 -66.333 30.5 -129
s13.5 -121.334 13.5 -176.001c0 -29.333 -1.33301 -55.666 -4 -78.999s-6 -45.666 -10 -66.999c-8 -36.667 -20.833 -65.167 -38.5 -85.5s-39.5 -30.833 -65.5 -31.5c-12 0 -23.167 3.66699 -33.5 11s-17.5 16.333 -21.5 27c-6 14.667 -7 29.667 -3 45s16.667 35 38 59
c18.667 22.667 31.167 40.834 37.5 54.501s9.5 28.5 9.5 44.5z" />
    <glyph glyph-name="H" unicode="H" horiz-adv-x="595" 
d="M190 430l0.000976562 29.0029c-0.666992 16 -5 30.5 -13 43.5s-23.333 26.167 -46 39.5c-16 10 -28.667 22.333 -38 37s-14 29.334 -14 44.001c0 23.333 7.16699 42 21.5 56s34.5 21 60.5 21c14 -0.666992 27 -3.83398 39 -9.50098s23.333 -13.834 34 -24.501
c18 -20 31.667 -46.167 41 -78.5s14.333 -80.166 15 -143.499v-48c10 -4.66699 19.833 -10.834 29.5 -18.501s20.167 -17.5 31.5 -29.5c4 135.333 16.5 227.833 37.5 277.5s50.833 74.5 89.5 74.5c20.667 0 37.834 -7.16699 51.501 -21.5s20.5 -32.166 20.5 -53.499
c0 -10.667 -1.16699 -20.334 -3.5 -29.001s-19.166 -33 -50.499 -73c-15.333 -19.333 -27 -44 -35 -74s-12 -64.333 -12 -103c0 -35.333 1.66699 -63.333 5 -84s9.33301 -37 18 -49l43 -65c27.333 -42 35 -78.667 23 -110s-33.333 -47.333 -64 -48
c-38.667 0 -67.334 17 -86.001 51s-31.667 98.667 -39 194c-7.33301 12 -15.833 23.5 -25.5 34.5s-20.834 20.5 -33.501 28.5v-45c0 -84.667 -5.66699 -158.5 -17 -221.5s-27.333 -114.5 -48 -154.5c-13.333 -24 -28.833 -42.333 -46.5 -55s-37.834 -19.334 -60.501 -20.001
c-36.667 0 -60 17.5 -70 52.5s-0.666992 69.5 28 103.5l66 80c14.667 17.333 26.5 50.5 35.5 99.5s13.833 102.5 14.5 160.5v29c-4 -1.33301 -7.16699 -3 -9.5 -5s-5.83301 -7.66699 -10.5 -17c-6 -10.667 -13 -18.5 -21 -23.5s-17.667 -7.5 -29 -7.5
c-18.667 0 -35.167 6.66699 -49.5 20s-21.5 31 -21.5 53c0 17.333 5 33.166 15 47.499s24 25.166 42 32.499c11.333 4 24.833 6.33301 40.5 7s29.5 -0.666016 41.5 -3.99902z" />
    <glyph glyph-name="I" unicode="I" horiz-adv-x="339" 
d="M232 569c4.66699 0 9.16699 -0.664062 13.5 -1.99707s8.16602 -3.33301 11.499 -6c6 -6 9.83301 -12.667 11.5 -20s-1.5 -22 -9.5 -44c-4.66699 -12 -7.66699 -25.833 -9 -41.5s8.66699 -83.834 30 -204.501c2.66699 -18.667 4.83398 -35.5 6.50098 -50.5
s2.5 -28.833 2.5 -41.5c0 -50 -11.333 -90.667 -34 -122s-53 -47 -91 -47c-26 0 -46.667 7.66699 -62 23s-23 34.333 -23 57c0 15.333 3.5 29.666 10.5 42.999s23.5 30 49.5 50c13.333 10 21.833 19.333 25.5 28s5.5 24 5.5 46c0 19.333 -2 51.333 -6 96s-6 76.667 -6 96
c-0.666992 30 2.33301 55.667 9 77s16.667 37.666 30 48.999c4.66699 4 10 7.33301 16 10s12.333 4 19 4zM244 700.003c8 0 15.498 -3.66699 22.498 -11s10.5 -16.333 10.5 -27s-3.5 -21.5 -10.5 -32.5s-16.833 -21.5 -29.5 -31.5
c-17.333 -13.333 -37.166 -24.166 -59.499 -32.499s-42.5 -12.5 -60.5 -12.5c-27.333 0 -50.333 7 -69 21s-28 32.667 -28 56c0 18.667 6.66699 35 20 49s31.333 21 54 21c8.66699 0 17.834 -1.16699 27.501 -3.5s20.167 -5.83301 31.5 -10.5
c10 -4.66699 16.333 -7.33398 19 -8.00098s5.66699 -1 9 -1c2.66699 -0.666992 5.66699 -0.5 9 0.5s13.333 6.16699 30 15.5c4 2 8 3.66699 12 5s8 2 12 2z" />
    <glyph glyph-name="J" unicode="J" horiz-adv-x="327" 
d="M140 -198c-37.333 0 -60.998 16.501 -70.998 49.501s-3 68.5 21 106.5l36 58c10 16.667 18 42.667 24 78s9 80.333 9 135c0 20 -0.333008 50.167 -1 90.5s-1 70.833 -1 91.5c0 44.667 3.33301 77.5 10 98.5s17 36.833 31 47.5c10 7.33301 20.5 11.166 31.5 11.499
s20.167 -2.16699 27.5 -7.5c6 -6 10 -12.667 12 -20s-1.33301 -22 -10 -44c-6.66699 -16.667 -10.167 -39.167 -10.5 -67.5s1.5 -68.833 5.5 -121.5c9.33301 -138.667 14.166 -208 14.499 -208s0.5 -8.66699 0.5 -26c0 -90.667 -6.5 -153.5 -19.5 -188.5
s-31.833 -59.167 -56.5 -72.5c-7.33301 -3.33301 -15.333 -6 -24 -8s-18.334 -3 -29.001 -3zM244.002 700.001c8 0 15.498 -3.66699 22.498 -11s10.5 -16.333 10.5 -27s-3.5 -21.5 -10.5 -32.5s-16.833 -21.5 -29.5 -31.5c-18 -14 -37.667 -25.167 -59 -33.5
s-41 -12.166 -59 -11.499c-29.333 0 -53.166 6.83301 -71.499 20.5s-27.5 31.5 -27.5 53.5c0 20 6.66699 37.167 20 51.5s31 21.5 53 21.5c8.66699 0 17.834 -1.16699 27.501 -3.5s20.5 -5.83301 32.5 -10.5c16 -7.33301 27 -10.333 33 -9s17.333 6.66602 34 15.999
c4 2 8 3.66699 12 5s8 2 12 2z" />
    <glyph glyph-name="K" unicode="K" horiz-adv-x="550" 
d="M276 323l0.00195312 -126.004c0 -74.667 -11.167 -127.834 -33.5 -159.501s-55.833 -47.5 -100.5 -47.5c-30 0.666992 -53.667 8.66699 -71 24s-26 35.666 -26 60.999c-0.666992 22.667 6.5 41.334 21.5 56.001s34.167 18 57.5 10
c11.333 -4.66699 20.166 -6.16699 26.499 -4.5s12.166 6.16699 17.499 13.5c0.666992 0.666992 1.33398 1.5 2.00098 2.5s1.33398 79.833 2.00098 236.5c0 44 4.16699 79 12.5 105s22.166 46.333 41.499 61c11.333 8.66699 22.833 13.167 34.5 13.5s21.167 -2.5 28.5 -8.5
c6 -6 9.5 -13.167 10.5 -21.5s-2.16699 -19.166 -9.5 -32.499c-8 -14 -13.333 -25.667 -16 -35s-4 -28.333 -4 -57v-17c15.333 2.66699 26.833 11 34.5 25s13.5 44.667 17.5 92c2.66699 36 7.16699 66 13.5 90s15.166 43.667 26.499 59c9.33301 12 19.833 21.167 31.5 27.5
s23.5 9.5 35.5 9.5c20.667 0 38.334 -6 53.001 -18s22.334 -27.667 23.001 -47c0 -10.667 -1.66699 -20.667 -5 -30s-17.333 -25.333 -42 -48c-15.333 -14 -23 -21.167 -23 -21.5s-13.667 -36.166 -41 -107.499c-6.66699 -16.667 -13.667 -28.667 -21 -36
s-16.333 -12.666 -27 -15.999c15.333 -6 28.166 -15 38.499 -27s19.166 -28.667 26.499 -50c5.33301 -18.667 9 -39.5 11 -62.5s4 -38.833 6 -47.5c1.33301 -7.33301 3.5 -13.333 6.5 -18s10.167 -11.334 21.5 -20.001c14 -12 24.667 -24.167 32 -36.5
s11 -26.166 11 -41.499c0 -36.667 -14.167 -62.167 -42.5 -76.5s-56.5 -12.166 -84.5 6.50098c-16 10 -27.667 24.333 -35 43s-11 49.334 -11 92.001v68c-0.666992 23.333 -2 42 -4 56s-5.33301 25.667 -10 35c-4.66699 6.66699 -10 12.167 -16 16.5s-12.667 7.5 -20 9.5z
M288.002 700.996c9.33301 -0.666992 17.168 -4.5 23.501 -11.5s9.5 -15.833 9.5 -26.5s-3.5 -21.5 -10.5 -32.5s-16.833 -21.5 -29.5 -31.5c-18 -14 -37.833 -25 -59.5 -33s-41.834 -12 -60.501 -12c-28 0 -51.167 6.83301 -69.5 20.5s-27.5 31.5 -27.5 53.5
c0 20.667 7.5 37.834 22.5 51.501s34.5 20.5 58.5 20.5c7.33301 0 15 -1.16699 23 -3.5s17.667 -5.83301 29 -10.5c10.667 -5.33301 19.667 -8.33301 27 -9s20.666 4.66602 39.999 15.999c4.66699 2.66699 8.83398 4.66699 12.501 6s7.5 2 11.5 2z" />
    <glyph glyph-name="L" unicode="L" horiz-adv-x="362" 
d="M274 -9c-7.33301 0 -15.667 0.666992 -25 2l-34 5c-35.333 6 -52.833 9 -52.5 9s0.166016 0 -0.500977 0c-6.66699 -0.666992 -13.334 -1.5 -20.001 -2.5s-14.667 -2.83301 -24 -5.5c-12 -4 -20 -6.5 -24 -7.5s-7.33301 -1.5 -10 -1.5
c-12.667 0 -23.167 4.16699 -31.5 12.5s-12.5 20.5 -12.5 36.5c0 20 8 36.5 24 49.5s40.333 19.833 73 20.5c4.66699 0 12 -0.333008 22 -1s17.667 -1 23 -1c11.333 0 20.833 0.833008 28.5 2.5s15.834 5.5 24.501 11.5c20 12 34.333 19.5 43 22.5s17.334 4.5 26.001 4.5
c20 0 36.333 -6.83301 49 -20.5s19 -30.5 19 -50.5c0 -26.667 -8.83301 -47.667 -26.5 -63s-41.5 -23 -71.5 -23zM108.999 123c-5.33301 -0.666992 -10.1689 -0.329102 -14.502 1.00391s-7.83301 3.66602 -10.5 6.99902c-6.66699 5.33301 -10.834 11.666 -12.501 18.999
s1.83301 22.333 10.5 45c4.66699 12 7.5 26.167 8.5 42.5s-8.83301 83.5 -29.5 201.5c-11.333 60 -12.666 110.667 -3.99902 152s28 71.666 58 90.999c8.66699 6 18.667 10.5 30 13.5s23 4.5 35 4.5c6.66699 0 13.334 -0.833008 20.001 -2.5
s13.334 -3.83398 20.001 -6.50098c12.667 -6.66699 22.834 -15.5 30.501 -26.5s11.5 -24.5 11.5 -40.5c0 -16.667 -3.66699 -32.167 -11 -46.5s-23.666 -31.166 -48.999 -50.499c-14 -10.667 -22.667 -20.334 -26 -29.001s-5 -23.667 -5 -45
c-0.666992 -20 1.16602 -52 5.49902 -96s6.5 -75.333 6.5 -94c0 -30.667 -3.33301 -56.667 -10 -78s-16.334 -37.333 -29.001 -48c-5.33301 -4.66699 -11 -8.16699 -17 -10.5s-12 -3.5 -18 -3.5z" />
    <glyph glyph-name="M" unicode="M" horiz-adv-x="611" 
d="M282 49l-14.999 187.999c-4 49.333 -9.16699 91.666 -15.5 126.999s-13.166 63.333 -20.499 84c-6 16 -12.5 27.833 -19.5 35.5s-18.167 15.5 -33.5 23.5c-38.667 18 -65.167 35.667 -79.5 53s-21.5 38 -21.5 62c0 20.667 7 38.834 21 54.501s33.333 23.5 58 23.5
c22 0 42.667 -7.66699 62 -23s37 -38 53 -68c12 -25.333 21.5 -52.166 28.5 -80.499s13.5 -95.166 19.5 -200.499c5.33301 104 11.166 169.333 17.499 196s16.5 55 30.5 85c14 30.667 30.333 53.5 49 68.5s40.667 22.5 66 22.5c23.333 -0.666992 42.333 -8.5 57 -23.5
s22 -33.167 22 -54.5c0 -24 -7.16699 -44.667 -21.5 -62s-40.5 -35 -78.5 -53c-16.667 -8 -28.334 -15.833 -35.001 -23.5s-12.667 -19.5 -18 -35.5c-8 -21.333 -15.667 -53.333 -23 -96s-12 -81 -14 -115l-12 -187c-2 -26.667 -6 -43.334 -12 -50.001s-15.333 -10 -28 -10
c-11.333 0 -19.833 3.16699 -25.5 9.5s-9.5 22.833 -11.5 49.5zM157.001 496.999c24.667 -0.666992 44.001 -29.667 58.001 -87s21 -155 21 -293c-0.666992 -120.667 -10.334 -203 -29.001 -247s-48.667 -66.333 -90 -67c-35.333 0 -57.833 16.833 -67.5 50.5
s-2.5 74.5 21.5 122.5c27.333 56.667 44.5 102.167 51.5 136.5s11.5 79.5 13.5 135.5v40.5v48.5c-0.666992 18.667 -1.5 33.667 -2.5 45s-2.16699 21.666 -3.5 30.999c-3.33301 18 -5 28 -5 30v6c0 14.667 3 26.334 9 35.001s13.667 13 23 13zM491.002 496.999
c12.667 -0.666992 21.002 -7.16602 25.002 -19.499s2.66699 -34.166 -4 -65.499c-9.33301 -42.667 -13.333 -85 -12 -127s9 -77.333 23 -106c-1.33301 1.33301 5.5 -11.834 20.5 -39.501s22.5 -51.834 22.5 -72.501c0 -22.667 -6.83301 -41.167 -20.5 -55.5
s-30.5 -21.5 -50.5 -21.5c-19.333 0 -35.833 5.16699 -49.5 15.5s-24.5 25.5 -32.5 45.5c-18.667 40.667 -23.5 107.167 -14.5 199.5s25.167 162.833 48.5 211.5c5.33301 11.333 11.666 20 18.999 26s15.666 9 24.999 9z" />
    <glyph glyph-name="N" unicode="N" horiz-adv-x="544" 
d="M453 700c3.33301 0 6.83301 -0.504883 10.5 -1.50488s7.5 -1.83301 11.5 -2.5c24 -9.33301 36.667 -28.166 38 -56.499s-8.33398 -60.166 -29.001 -95.499c-39.333 -65.333 -62.333 -115.166 -69 -149.499s-9.33398 -74.5 -8.00098 -120.5c0 -30 1.5 -56.5 4.5 -79.5
s11.5 -64.167 25.5 -123.5c4.66699 -22.667 5.83398 -39.167 3.50098 -49.5s-7.5 -18.166 -15.5 -23.499c-4 -2 -8.16699 -3.83301 -12.5 -5.5s-8.5 -2.5 -12.5 -2.5c-6.66699 0 -13.167 1 -19.5 3s-12.166 4.66699 -17.499 8c-9.33301 5.33301 -18.5 14.166 -27.5 26.499
s-18.167 29.166 -27.5 50.499c-11.333 24 -21.666 50.333 -30.999 79s-18 62.667 -26 102c-28.667 128 -47.167 199.5 -55.5 214.5s-18.833 26.167 -31.5 33.5l-58 32c-21.333 11.333 -34.833 30.5 -40.5 57.5s-1.83398 50.5 11.499 70.5
c6.66699 10.667 15.5 18.834 26.5 24.501s23.833 8.5 38.5 8.5c22.667 0 42.834 -6.66699 60.501 -20s33.167 -34 46.5 -62c2.66699 -7.33301 4 -10.833 4 -10.5s26.333 -106.167 79 -319.5c-2 20.667 -3.5 41 -4.5 61s-1.5 43 -1.5 69
c-1.33301 70.667 5.66699 130.334 21 179.001s38.666 80.334 69.999 95.001c5.33301 2 11 3.83301 17 5.5s12.333 2.5 19 2.5zM142 496.995c9.33301 0 18.332 -4.50293 26.999 -13.5029s16 -21.167 22 -36.5c9.33301 -27.333 16.666 -68.666 21.999 -123.999s8 -124 8 -206
c-0.666992 -91.333 -7 -161.666 -19 -210.999s-32 -81 -60 -95c-11.333 -5.33301 -24.166 -7.83301 -38.499 -7.5s-26.833 3.5 -37.5 9.5c-22 13.333 -34 34 -36 62s6.66699 61.667 26 101c31.333 64.667 49.833 114.334 55.5 149.001s8.83398 75.667 9.50098 123
c0 47.333 -0.5 83.5 -1.5 108.5s-2.5 43.833 -4.5 56.5c-4.66699 25.333 -6.16699 42.833 -4.5 52.5s5.83398 17.5 12.501 23.5c2.66699 2 5.66699 3.83301 9 5.5s6.66602 2.5 9.99902 2.5z" />
    <glyph glyph-name="O" unicode="O" horiz-adv-x="423" 
d="M181 700c16.667 0 33.999 -2.83984 51.999 -8.50684s34 -13.5 48 -23.5c31.333 -23.333 55.333 -61 72 -113s25 -121.667 25 -209c0 -74 -4.66699 -135 -14 -183s-23 -85.667 -41 -113c-14 -21.333 -29.833 -36.666 -47.5 -45.999s-37.5 -14 -59.5 -14
c-26.667 0 -50 5.66699 -70 17s-37.667 29.333 -53 54c-16 24.667 -28 54.834 -36 90.501s-12 76.834 -12 123.501c0 50.667 5.5 96.334 16.5 137.001s26.5 70.334 46.5 89.001c19.333 18.667 38.5 24.834 57.5 18.501s28.5 -19.833 28.5 -40.5
c0 -2.66699 -0.166992 -5 -0.5 -7s-8.83301 -19.333 -25.5 -52c-7.33301 -14.667 -12.666 -32.5 -15.999 -53.5s-5 -46.833 -5 -77.5c0 -16.667 0.5 -31.334 1.5 -44.001s2.83301 -24.667 5.5 -36c4 -22.667 11 -39.167 21 -49.5s22.667 -15.5 38 -15.5
c16.667 0 30 5.5 40 16.5s17 28.5 21 52.5c2 14 3.33301 29 4 45s1.33398 39.333 2.00098 70c0 61.333 -3.83301 108.5 -11.5 141.5s-19.167 55.833 -34.5 68.5c-8.66699 6 -16.5 9.66699 -23.5 11s-19.167 -1 -36.5 -7c-18.667 -6.66699 -36.667 -7.66699 -54 -3
s-31 14.667 -41 30c-9.33301 12.667 -13.5 27.834 -12.5 45.501s7.83301 33.834 20.5 48.501c9.33301 12 22.166 21.167 38.499 27.5s34.833 9.5 55.5 9.5z" />
    <glyph glyph-name="P" unicode="P" horiz-adv-x="465" 
d="M231 282l4.00195 0.00390625c3.33301 21.333 13.833 48.333 31.5 81s22.167 40.667 13.5 24c10 18.667 17.833 35.5 23.5 50.5s8.5 28.5 8.5 40.5c0 10 -2.16699 20 -6.5 30s-9.5 17.667 -15.5 23c-6.66699 4.66699 -15.167 8 -25.5 10s-29.833 1.33301 -58.5 -2
c-46 -6 -79 -2.83301 -99 9.5s-30 32.5 -30 60.5c0 15.333 3.5 29.333 10.5 42s16.167 22.667 27.5 30c8.66699 5.33301 21.5 9.83301 38.5 13.5s34.833 5.5 53.5 5.5c19.333 -0.666992 36.666 -2 51.999 -4s30 -4.66699 44 -8c39.333 -12 69.5 -31.333 90.5 -58
s31.5 -59.334 31.5 -98.001c0 -21.333 -3.66699 -43.5 -11 -66.5s-18.333 -45.833 -33 -68.5l-43 -67l-2 -5c-0.666992 -3.33301 -1.16699 -6.5 -1.5 -9.5s3.83398 -11.833 12.501 -26.5c10.667 -20.667 11.167 -42.334 1.5 -65.001s-27.167 -33.667 -52.5 -33
c-14 0 -26.167 4 -36.5 12s-17.5 19.333 -21.5 34h-2c4 -92 6.16699 -141.167 6.5 -147.5s0.5 -12.5 0.5 -18.5c0 -64.667 -3.66699 -113.834 -11 -147.501s-18.333 -60.167 -33 -79.5c-11.333 -14 -24.333 -24.5 -39 -31.5s-30.334 -10.5 -47.001 -10.5
c-22 0 -39.667 7.16699 -53 21.5s-20 33.166 -20 56.499c0 10 1.33301 20.167 4 30.5s16.334 37.166 41.001 80.499c20 36 33.667 76.333 41 121s9.33301 127.334 6 248.001c-2.66699 73.333 -3 115.333 -1 126s6.33301 19 13 25c7.33301 7.33301 16.166 10.833 26.499 10.5
s19.166 -3.5 26.499 -9.5c8.66699 -8 16 -30.833 22 -68.5s10 -91.5 12 -161.5z" />
    <glyph glyph-name="Q" unicode="Q" horiz-adv-x="417" 
d="M176 700c17.333 0 34.668 -2.66602 52.001 -7.99902s33.333 -13.333 48 -24c32.667 -24.667 57 -63.834 73 -117.501s24 -126.834 24 -219.501l-2 -58c-0.666992 -19.333 -2 -38.333 -4 -57c-4 -33.333 -9.16699 -62 -15.5 -86s-15.166 -47.667 -26.499 -71
c16.667 6.66699 27.167 4.16699 31.5 -7.5s2.16602 -24.5 -6.50098 -38.5c-8.66699 -12 -11.834 -20.167 -9.50098 -24.5s9.16602 -10.166 20.499 -17.499c14.667 -8.66699 24.334 -17 29.001 -25s7 -18 7 -30c0 -18.667 -6 -34 -18 -46s-26.667 -18 -44 -18
c-24.667 0 -44.334 9 -59.001 27s-21.667 40.667 -21 68c-0.666992 10.667 0.333008 20.834 3 30.501s6.66699 19.167 12 28.5c-10 -4.66699 -20.167 -8.5 -30.5 -11.5s-19.833 -4.5 -28.5 -4.5c-27.333 0 -51 6 -71 18s-37.333 29.667 -52 53
c-16 24.667 -28 54.834 -36 90.501s-12 76.834 -12 123.501c0 72 10.167 131.167 30.5 177.5s45.5 69.5 75.5 69.5c12 0 22 -4.16699 30 -12.5s12.333 -18.5 13 -30.5c-0.666992 -2.66699 -1 -5 -1 -7s-8.33301 -19.333 -25 -52c-8 -14.667 -13.5 -32.167 -16.5 -52.5
s-4.5 -43.833 -4.5 -70.5c0 -38.667 2.33301 -68.834 7 -90.501s11.667 -36.834 21 -45.501c11.333 -12.667 24.833 -18.5 40.5 -17.5s28.834 7.16699 39.501 18.5c8.66699 9.33301 15 26.833 19 52.5s6 63.5 6 113.5c0 53.333 -2.5 93.666 -7.5 120.999
s-11.833 49 -20.5 65c-8.66699 16.667 -19 27.167 -31 31.5s-27.667 3.16602 -47 -3.50098c-19.333 -7.33301 -38 -8.16602 -56 -2.49902s-31.333 16.167 -40 31.5c-8.66699 12.667 -12.167 27.667 -10.5 45s8.16699 33 19.5 47c9.33301 11.333 21.333 20.333 36 27
s34 10 58 10z" />
    <glyph glyph-name="R" unicode="R" horiz-adv-x="469" 
d="M193 255l16 -189c2 -24.667 -2.83301 -43.5 -14.5 -56.5s-27.5 -19.5 -47.5 -19.5c-20.667 0 -36.667 6.66699 -48 20s-16 32 -14 56l24 399c1.33301 26 4.5 42 9.5 48s13.5 9 25.5 9c10.667 0 18.667 -2.83301 24 -8.5s9 -20.834 11 -45.501l8 -111
c11.333 10.667 22 22.5 32 35.5s18.667 26.167 26 39.5c12 23.333 17.333 44.833 16 64.5s-7.66602 34.5 -18.999 44.5c-8 6 -18 9.33301 -30 10s-26.667 -1 -44 -5c-29.333 -8 -50.666 -11.5 -63.999 -10.5s-25 5.16699 -35 12.5
c-9.33301 5.33301 -16.5 13.166 -21.5 23.499s-7.5 22.166 -7.5 35.499c0 17.333 4.66699 32.666 14 45.999s22.333 24 39 32c10 4.66699 21.667 8.16699 35 10.5s28.666 3.83301 45.999 4.5c13.333 0 25.5 -0.666992 36.5 -2s21.5 -3 31.5 -5
c39.333 -10 70.833 -29.167 94.5 -57.5s35.5 -64.5 35.5 -108.5c0 -27.333 -6.83301 -55.666 -20.5 -84.999s-32.834 -57.666 -57.501 -84.999c14 -90.667 30.833 -164.334 50.5 -221.001s43.167 -100.667 70.5 -132c40 -47.333 62.167 -76.666 66.5 -87.999
s6.83301 -23.666 7.5 -36.999c0 -31.333 -15.167 -54.666 -45.5 -69.999s-62.5 -8 -96.5 22c-32 28 -58 77.167 -78 147.5s-34.667 170.833 -44 301.5z" />
    <glyph glyph-name="S" unicode="S" horiz-adv-x="401" 
d="M216 700c7.33301 0 14.8311 -0.666016 22.498 -1.99902s15.5 -3 23.5 -5c24.667 -8 43.834 -20.5 57.501 -37.5s20.5 -37.167 20.5 -60.5c-0.666992 -22 -8.66699 -41 -24 -57s-36.333 -24 -63 -24c-8 -0.666992 -15 -0.166992 -21 1.5s-12.667 5.16699 -20 10.5
c-9.33301 5.33301 -16 8.5 -20 9.5s-7.66699 1.16699 -11 0.5c-7.33301 -2 -12.5 -6.33301 -15.5 -13s-2.5 -14 1.5 -22c2 -6 8.5 -15.667 19.5 -29s26.5 -30.333 46.5 -51c61.333 -66.667 98 -115 110 -145s18 -61 18 -93c-0.666992 -42 -7.83398 -77.333 -21.501 -106
s-32.5 -50.334 -56.5 -65.001c-12.667 -8 -26.5 -13.667 -41.5 -17s-30.5 -5 -46.5 -5c-10.667 0 -21.167 0.833008 -31.5 2.5s-20.166 4.16699 -29.499 7.5c-28.667 9.33301 -51.5 24 -68.5 44s-25.5 43.333 -25.5 70c0 22.667 7.66699 42 23 58s35.333 24 60 24
c11.333 -0.666992 22.5 -3 33.5 -7s21.833 -10 32.5 -18c13.333 -11.333 23.333 -17.166 30 -17.499s13 3.16699 19 10.5s8.16699 17 6.5 29s-7.16699 25.667 -16.5 41l-26.5 35.5c-11 14.333 -33.5 42.166 -67.5 83.499c-35.333 42 -58.5 75.667 -69.5 101
s-16.5 51 -16.5 77c-0.666992 32.667 6.83301 62.667 22.5 90s37.5 48 65.5 62c11.333 5.33301 23.833 9.5 37.5 12.5s27.834 4.5 42.501 4.5z" />
    <glyph glyph-name="T" unicode="T" horiz-adv-x="392" 
d="M128 699c4.66699 0 10.166 -0.334961 16.499 -1.00195s14.5 -1.66699 24.5 -3c11.333 -2 24.333 -4.5 39 -7.5s25.334 -4.5 32.001 -4.5c5.33301 -0.666992 10.5 -0.5 15.5 0.5s18.833 5.16699 41.5 12.5c4.66699 1.33301 8.5 2.33301 11.5 3s5.83301 1 8.5 1
c12.667 0 23.334 -4.66699 32.001 -14s13 -20.666 13 -33.999c0 -21.333 -8 -38.666 -24 -51.999s-38 -19.666 -66 -18.999c-6 0 -14.833 0.333008 -26.5 1s-20.167 1 -25.5 1c-12 -0.666992 -21.833 -1.83398 -29.5 -3.50098s-15.834 -5.5 -24.501 -11.5
c-20 -12 -34.333 -19.333 -43 -22s-17 -4 -25 -4c-18.667 -0.666992 -34.667 5.33301 -48 18s-20 30 -20 52c0 24 8.83301 44.5 26.5 61.5s41.5 25.5 71.5 25.5zM213.999 568.998c3.33301 0 6.33008 -0.333008 8.99707 -1l8 -2c10.667 -5.33301 17 -12.5 19 -21.5
s-1 -24.833 -9 -47.5c-6 -16 -9.16699 -35.333 -9.5 -58s2.5 -49.334 8.5 -80.001c20.667 -114.667 30.834 -172 30.501 -172s-0.166016 -10 0.500977 -30c0 -49.333 -11.167 -89.5 -33.5 -120.5s-52.833 -46.5 -91.5 -46.5c-26 0 -46.667 7.66699 -62 23s-23 33.333 -23 54
c0 18 4 33.833 12 47.5s24 29.834 48 48.501c18 13.333 28 27.833 30 43.5s0 59.167 -6 130.5c-8 86.667 -5.66699 147 7 181s33.334 51 62.001 51z" />
    <glyph glyph-name="U" unicode="U" horiz-adv-x="469" 
d="M99 105l0.000976562 366.001c-0.666992 15.333 -1.83398 27.166 -3.50098 35.499s-9.5 23.166 -23.5 44.499c-10.667 14.667 -17.834 27.334 -21.501 38.001s-5.5 21.334 -5.5 32.001c-0.666992 15.333 2.33301 29 9 41s15.667 21.333 27 28c5.33301 2.66699 11 5 17 7
s12.333 3 19 3c9.33301 0 17.333 -0.833008 24 -2.5s12.667 -3.83398 18 -6.50098c12.667 -8 22.167 -20 28.5 -36s9.5 -42.333 9.5 -79v-374c-0.666992 -13.333 -0.166992 -23.166 1.5 -29.499s4.16699 -10.833 7.5 -13.5c4 -4.66699 9.5 -6.66699 16.5 -6
s13.5 3.66699 19.5 9c7.33301 6.66699 12.666 16.334 15.999 29.001s5 28 5 46v310c0 26.667 1.5 48.667 4.5 66s8.16699 32 15.5 44c8 14.667 18.167 25.334 30.5 32.001s26.5 10.334 42.5 11.001c12.667 -0.666992 24.167 -4 34.5 -10s18.5 -14 24.5 -24
c8 -14.667 10.667 -32.5 8 -53.5s-10.667 -40.833 -24 -59.5c-21.333 -30.667 -33 -49.5 -35 -56.5s-3 -14.833 -3 -23.5v-255c0 -15.333 0.833008 -26.833 2.5 -34.5s7.5 -18.834 17.5 -33.501c12 -19.333 20.333 -34.833 25 -46.5s7 -23.834 7 -36.501
c0 -22.667 -6.33301 -41.167 -19 -55.5s-29 -21.5 -49 -21.5c-26.667 0 -47.5 9 -62.5 27s-22.5 42 -22.5 72h-1c-4.66699 -24.667 -11.667 -44.667 -21 -60s-20.666 -26 -33.999 -32c-5.33301 -2 -10.666 -3.66699 -15.999 -5s-10.666 -2 -15.999 -2
c-6 0 -11.833 0.666992 -17.5 2s-10.834 3.33301 -15.501 6c-14 7.33301 -24.167 18.166 -30.5 32.499s-9.5 39.166 -9.5 74.499z" />
    <glyph glyph-name="V" unicode="V" horiz-adv-x="421" 
d="M172 560l57.9971 -364.001c10 56 19.667 118 29 186s14 112.667 14 134c0 10 -0.166992 15 -0.5 15s-10.166 17.333 -29.499 52c-12.667 20.667 -15.5 42.5 -8.5 65.5s21.167 38.5 42.5 46.5c9.33301 3.33301 20.333 4.83301 33 4.5s23.667 -2.5 33 -6.5
c16.667 -8 28.667 -20.667 36 -38s11.333 -40 12 -68c0 -20.667 -2 -47.167 -6 -79.5s-10 -68.5 -18 -108.5c-7.33301 -36 -19.166 -87.5 -35.499 -154.5s-30.5 -129.167 -42.5 -186.5c-6.66699 -28.667 -14.667 -47.167 -24 -55.5s-21 -12.5 -35 -12.5
c-16.667 0 -29.5 4.5 -38.5 13.5s-16.167 26.833 -21.5 53.5l-89 400c-6 25.333 -10.833 42.166 -14.5 50.499s-14.167 19.5 -31.5 33.5c-17.333 13.333 -29.166 26 -35.499 38s-9.5 25.333 -9.5 40c0 16 3.66699 30.333 11 43s17.333 22.334 30 29.001
c5.33301 2.66699 11 4.83398 17 6.50098s12 2.5 18 2.5c6.66699 0 12.5 -0.333008 17.5 -1s9.83301 -1.66699 14.5 -3c18.667 -6.66699 33.667 -19.5 45 -38.5s21 -51.5 29 -97.5z" />
    <glyph glyph-name="W" unicode="W" horiz-adv-x="592" 
d="M297 321l-53.0029 -280.998c-4 -20 -9.66699 -33.333 -17 -40s-17.333 -10 -30 -10c-14.667 0 -25.667 4 -33 12s-12.333 20.333 -15 37l-62 361c-4.66699 25.333 -10.667 46.166 -18 62.499s-17.666 32.833 -30.999 49.5c-24 27.333 -38 46.5 -42 57.5
s-6 23.167 -6 36.5c0 18.667 4.33301 35.667 13 51s21.667 27 39 35c5.33301 2 11.5 3.83301 18.5 5.5s14.833 2.5 23.5 2.5c6.66699 -0.666992 13.334 -1.83398 20.001 -3.50098s13 -3.83398 19 -6.50098c13.333 -8 24.166 -20.667 32.499 -38s15.5 -51.333 21.5 -102
l24 -213l3 -32h1c1.33301 0 3.16602 2.66699 5.49902 8s5.83301 14.333 10.5 27l50 151c5.33301 17.333 10.666 28 15.999 32s13 6 23 6c9.33301 0 16.833 -2.66699 22.5 -8s10.5 -14.666 14.5 -27.999l41 -153c3.33301 -14.667 6 -24.167 8 -28.5s3.66699 -6.5 5 -6.5
c0.666992 -0.666992 1.33398 0.5 2.00098 3.5s2.33398 12.167 5.00098 27.5l20 132c2 15.333 2.66699 27.833 2 37.5s-9.66699 30.167 -27 61.5c-14 24 -17.333 48.667 -10 74s23.666 43 48.999 53c16.667 6 33.834 7.16699 51.501 3.5s32.167 -11.5 43.5 -23.5
c7.33301 -8.66699 13.333 -19.667 18 -33s7 -28.333 7 -45s-2.5 -39.5 -7.5 -68.5s-13.167 -71.167 -24.5 -126.5l-75 -362c-4 -18.667 -10 -31.5 -18 -38.5s-18 -10.5 -30 -10.5c-13.333 0 -23.666 3.33301 -30.999 10s-12.666 20 -15.999 40l-53 281
c-3.33301 16 -5 24.167 -5 24.5v0.5c-0.666992 0 -1 -0.166992 -1 -0.5s-1.33301 -8.5 -4 -24.5z" />
    <glyph glyph-name="X" unicode="X" horiz-adv-x="446" 
d="M223 512l1.00098 -0.00390625c0 20 1 40.833 3 62.5s5 38.5 9 50.5c6.66699 24 17.834 42.5 33.501 55.5s32.834 19.5 51.501 19.5c20.667 0 37.5 -7.5 50.5 -22.5s19.5 -31.833 19.5 -50.5c0 -16.667 -3.83301 -32 -11.5 -46s-20.5 -29.667 -38.5 -47
c-23.333 -22 -38.5 -40 -45.5 -54s-12.5 -30.333 -16.5 -49c-2.66699 -11.333 -4.5 -22.833 -5.5 -34.5s-1.5 -23.167 -1.5 -34.5c0 -40.667 4.5 -75 13.5 -103s24.5 -54 46.5 -78c42.667 -48.667 65.667 -77.167 69 -85.5s5 -17.166 5 -26.499
c0 -23.333 -6.16699 -42.333 -18.5 -57s-29.833 -22 -52.5 -22c-20.667 0 -38 5.5 -52 16.5s-25.333 28.5 -34 52.5c-6.66699 16 -12.167 36.167 -16.5 60.5s-6.83301 47.166 -7.5 68.499h-2c-2 -21.333 -5.5 -44.666 -10.5 -69.999s-10.167 -45 -15.5 -59
c-9.33301 -23.333 -21 -40.666 -35 -51.999s-31 -17 -51 -17c-23.333 0.666992 -41 8 -53 22s-18 32.667 -18 56c0 10.667 1.83301 21.334 5.5 32.001s26.5 37.667 68.5 81c19.333 20 34.166 44.167 44.499 72.5s15.5 64.5 15.5 108.5c0 11.333 -0.666992 22.833 -2 34.5
s-3 23.167 -5 34.5c-4.66699 18.667 -10.5 35 -17.5 49s-21.833 32 -44.5 54c-18.667 17.333 -31.834 33 -39.501 47s-11.167 29.333 -10.5 46c-0.666992 18.667 5.5 35.5 18.5 50.5s30.167 22.5 51.5 22.5c18 -0.666992 34.833 -7.33398 50.5 -20.001s27.167 -31 34.5 -55
c3.33301 -13.333 6.16602 -30.666 8.49902 -51.999s3.83301 -41.666 4.5 -60.999z" />
    <glyph glyph-name="Y" unicode="Y" horiz-adv-x="406" 
d="M154 126v204.996c0 38 -5.83301 71.833 -17.5 101.5s-28.834 55.5 -51.501 77.5c-41.333 38 -64.166 61.833 -68.499 71.5s-6.5 21.167 -6.5 34.5c-1.33301 22.667 5.33398 42.334 20.001 59.001s33 25 55 25s40.167 -7.16699 54.5 -21.5s26.166 -37.166 35.499 -68.499
c6 -21.333 11.333 -44.833 16 -70.5s8.66699 -50.834 12 -75.501l1 1c-0.666992 23.333 1 46.5 5 69.5s10.667 48.167 20 75.5c10.667 30.667 23.5 53.334 38.5 68.001s32.833 22 53.5 22c21.333 0 39.333 -8.33301 54 -25s21.667 -36.334 21 -59.001
c-0.666992 -13.333 -3.16699 -24.833 -7.5 -34.5s-26.833 -33.5 -67.5 -71.5c-23.333 -22 -40.666 -47.833 -51.999 -77.5s-17 -63.5 -17 -101.5v-119c0 -16 1.16699 -27.333 3.5 -34s7.5 -15.334 15.5 -26.001c12 -18.667 20.333 -34 25 -46s7 -24.333 7 -37
c0 -17.333 -4 -32.666 -12 -45.999s-18.333 -22.666 -31 -27.999c-4 -1.33301 -8.33301 -2.5 -13 -3.5s-9 -1.5 -13 -1.5c-6.66699 0.666992 -12.667 1.5 -18 2.5s-10 2.16699 -14 3.5c-16.667 6.66699 -28.834 18.834 -36.501 36.501s-11.5 48.834 -11.5 93.501z" />
    <glyph glyph-name="Z" unicode="Z" horiz-adv-x="383" 
d="M310 696c6.66699 0 13.1631 -1.66895 19.4961 -5.00195s11.833 -7.66602 16.5 -12.999c8 -10.667 11.5 -25.167 10.5 -43.5s-6.16699 -39.833 -15.5 -64.5c-3.33301 -8.66699 -6.5 -16.5 -9.5 -23.5s-34.167 -70.833 -93.5 -191.5
c-23.333 -46.667 -41.5 -86.167 -54.5 -118.5s-21.167 -59.5 -24.5 -81.5c-3.33301 -18.667 0 -29.5 10 -32.5s23.333 0.833008 40 11.5c22.667 14.667 46.667 22.167 72 22.5s45.666 -6.83398 60.999 -21.501c10 -10.667 16.5 -25 19.5 -43s1.5 -35 -4.5 -51
c-6.66699 -18 -17.167 -31 -31.5 -39s-32.166 -12 -53.499 -12c-5.33301 0 -10.666 0.333008 -15.999 1s-25.666 6.66699 -60.999 18c-14 4 -28.833 6.5 -44.5 7.5s-29.5 -0.5 -41.5 -4.5c-28.667 -8.66699 -46 -12.5 -52 -11.5s-12 4.16699 -18 9.5
c-11.333 9.33301 -17.666 22.333 -18.999 39s2.33398 38 11.001 64l21 64l179 374c4.66699 9.33301 6.66699 17.333 6 24s-4 11.667 -10 15c-3.33301 1.33301 -7.5 1.33301 -12.5 0s-23.167 -9 -54.5 -23c-34 -16 -61.333 -21.5 -82 -16.5s-35.334 18.5 -44.001 40.5
c-5.33301 12 -7.33301 24.167 -6 36.5s5.33301 23.833 12 34.5c7.33301 12 17.666 21.333 30.999 28s28 10 44 10c5.33301 0 11.333 -0.5 18 -1.5s24.334 -4.16699 53.001 -9.5c14.667 -3.33301 27.834 -5.16602 39.501 -5.49902s31.5 2.83398 59.5 9.50098
c4.66699 0.666992 9 1.16699 13 1.5s8 0.833008 12 1.5z" />
    <glyph glyph-name="bracketleft" unicode="[" horiz-adv-x="263" 
d="M40 67l-0.000976562 509.002c-0.666992 34.667 3 60.167 11 76.5s20.333 28.166 37 35.499c7.33301 3.33301 16 5.5 26 6.5s33 0.5 69 -1.5c4 -0.666992 8.16699 -1.16699 12.5 -1.5s13.5 -0.166016 27.5 0.500977c11.333 0 19 -1.5 23 -4.5s6.33301 -7.5 7 -13.5v-19
c0 -9.33301 -2.83301 -15.333 -8.5 -18s-13.834 -3.66699 -24.501 -3h-18h-16c-25.333 -0.666992 -41.333 -8.33398 -48 -23.001s-10 -39 -10 -73v-433c0 -34.667 3.33301 -59.334 10 -74.001s22.667 -22 48 -22c2.66699 -0.666992 8 -1 16 -1s14 0.333008 18 1
c10.667 0 18.834 -1.33301 24.501 -4s8.5 -8.33398 8.5 -17.001v-19c-0.666992 -6 -3 -10.5 -7 -13.5s-11.667 -4.5 -23 -4.5c-14 0.666992 -23.167 0.833984 -27.5 0.500977s-8.5 -0.833008 -12.5 -1.5c-35.333 -2 -58.166 -2.5 -68.499 -1.5s-19.166 3.16699 -26.499 6.5
c-16.667 7.33301 -28.834 19 -36.501 35s-11.5 41.667 -11.5 77z" />
    <glyph glyph-name="backslash" unicode="\" horiz-adv-x="494" 
d="M242 64l-105.001 499c-2 7.33301 -4.83301 13.833 -8.5 19.5s-15.834 13.834 -36.501 24.501c-14.667 6.66699 -25.334 16.167 -32.001 28.5s-10 26.5 -10 42.5c0 22 5.33301 38.833 16 50.5s24.667 17.5 42 17.5c26.667 0 48.834 -11.5 66.501 -34.5
s34.167 -69.5 49.5 -139.5l94 -438c3.33301 -17.333 6.83301 -31.333 10.5 -42s7.83398 -18.334 12.501 -23.001c5.33301 -7.33301 15.833 -14.333 31.5 -21s28.5 -13 38.5 -19c10.667 -8 18.834 -17.167 24.501 -27.5s8.5 -23.5 8.5 -39.5
c0 -16.667 -6.83301 -31.5 -20.5 -44.5s-31.5 -19.5 -53.5 -19.5c-30.667 0 -56.667 12.833 -78 38.5s-38 68.167 -50 127.5z" />
    <glyph glyph-name="bracketright" unicode="]" horiz-adv-x="263" 
d="M10 655v18.998c0 6 2 10.5 6 13.5s12 4.5 24 4.5c13.333 -0.666992 22.166 -0.833984 26.499 -0.500977s8.83301 0.833008 13.5 1.5c34 2 56.167 2.5 66.5 1.5s19.833 -3.16699 28.5 -6.5c16 -7.33301 28 -19.166 36 -35.499s12 -41.833 12 -76.5v-509
c0 -35.333 -4 -61 -12 -77s-20 -27.667 -36 -35c-8 -3.33301 -17.167 -5.5 -27.5 -6.5s-32.833 -0.5 -67.5 1.5c-4.66699 0.666992 -9.16699 1.16699 -13.5 1.5s-13.166 0.166016 -26.499 -0.500977c-12 0 -20 1.5 -24 4.5s-6 7.5 -6 13.5v19
c0 8.66699 2.66699 14.334 8 17.001s13.666 4 24.999 4c3.33301 -0.666992 9 -1 17 -1s13.667 0.333008 17 1c24.667 0 40.5 7.33301 47.5 22s10.5 39.334 10.5 74.001v433c0 34 -3.5 58.333 -10.5 73s-22.833 22.334 -47.5 23.001h-17h-17
c-11.333 -0.666992 -19.666 0.333008 -24.999 3s-8 8.66699 -8 18z" />
    <glyph glyph-name="asciicircum" unicode="^" horiz-adv-x="364" 
d="M70 502l59.002 158.997c6.66699 18 17.5 30.333 32.5 37s31.167 6.66699 48.5 0c6.66699 -3.33301 12.667 -8.5 18 -15.5s10.333 -16.167 15 -27.5l52 -149c0.666992 -2.66699 1.33398 -5 2.00098 -7s2.66699 -5.66699 6 -11c2 -5.33301 3.66699 -9.5 5 -12.5
s2.66602 -5.83301 3.99902 -8.5c2 -7.33301 2.33301 -13 1 -17s-4.33301 -6.66699 -9 -8c-8.66699 -3.33301 -21.334 -3.66602 -38.001 -0.999023s-29 7 -37 13c-7.33301 4.66699 -12.833 10.167 -16.5 16.5s-6.83398 20.166 -9.50098 41.499l-13 100
c-1.33301 6.66699 -3 11.5 -5 14.5s-4.66699 4.5 -8 4.5c-4 0 -7.16699 -1.66699 -9.5 -5s-3.83301 -8.66602 -4.5 -15.999l-15 -99c-2.66699 -18 -6.16699 -30.667 -10.5 -38s-10.5 -13.666 -18.5 -18.999c-9.33301 -6.66699 -20.833 -11.167 -34.5 -13.5
s-23.167 -1.16602 -28.5 3.50098c-3.33301 2 -5.33301 4.66699 -6 8s0.333008 8 3 14c10 20.667 15.167 31.5 15.5 32.5s0.833008 2.16699 1.5 3.5z" />
    <glyph glyph-name="grave" unicode="`" horiz-adv-x="296" 
d="M108 658c14 0 26.333 -3.50195 37 -10.502s21 -20.5 31 -40.5c5.33301 -12 10.666 -20.5 15.999 -25.5s12.333 -8.83301 21 -11.5c14.667 -6 23.834 -11.167 27.501 -15.5s5.5 -9.83301 5.5 -16.5c-0.666992 -9.33301 -3.5 -16.166 -8.5 -20.499s-12.5 -6.5 -22.5 -6.5
c-16.667 -0.666992 -37.5 1.83301 -62.5 7.5s-45.5 13.167 -61.5 22.5c-14.667 7.33301 -25.167 15.833 -31.5 25.5s-9.5 20.834 -9.5 33.501c0 16 5.5 29.667 16.5 41s24.833 17 41.5 17z" />
    <glyph glyph-name="a" unicode="a" horiz-adv-x="292" 
d="M161 54l-1.99805 0.00292969c-3.33301 -11.333 -8.5 -22.5 -15.5 -33.5s-14.833 -18.833 -23.5 -23.5c-4.66699 -2 -9.33398 -3.5 -14.001 -4.5s-9.33398 -1.83301 -14.001 -2.5c-12.667 0 -23.834 3.16699 -33.501 9.5s-17.5 16.5 -23.5 30.5
c-8.66699 16.667 -13.834 40.834 -15.501 72.501s0.833008 59.167 7.5 82.5c4.66699 18 11.667 33.5 21 46.5s25.333 27.5 48 43.5c0.666992 0 0.666992 -0.166992 0 -0.5s22.666 16.167 69.999 49.5c2.66699 14.667 1.33398 25.167 -3.99902 31.5
s-15 6.16602 -29 -0.500977s-28 -8.83398 -42 -6.50098s-25.333 8.5 -34 18.5c-11.333 12 -16.166 27.333 -14.499 46s9.5 34.667 23.5 48c9.33301 8.66699 21.5 15.667 36.5 21s30.5 8 46.5 8c10.667 0 20.5 -1 29.5 -3s17.167 -4.66699 24.5 -8
c18 -9.33301 31.5 -23.333 40.5 -42s13.5 -44.334 13.5 -77.001c0 -10 -0.666992 -22.5 -2 -37.5s-2 -33.5 -2 -55.5l-2 -102c-0.666992 -6.66699 -0.666992 -12.834 0 -18.501s6.33398 -16.834 17.001 -33.501c14.667 -25.333 18.167 -52.166 10.5 -80.499
s-25.834 -42.5 -54.501 -42.5c-17.333 0 -31.166 5.33301 -41.499 16s-17.5 26.667 -21.5 48zM165.002 242.003c-19.333 -14 -33.333 -28.168 -42 -42.501s-13 -30.166 -13 -47.499c0 -10 2 -17.833 6 -23.5s9.33301 -8.5 16 -8.5c11.333 0 19.833 8.5 25.5 25.5
s8.16699 49.167 7.5 96.5z" />
    <glyph glyph-name="b" unicode="b" horiz-adv-x="310" 
d="M46 200l-0.00488281 301.002c-0.666992 24.667 -1.83398 39.667 -3.50098 45s-5.5 12.333 -11.5 21c-8.66699 11.333 -14.334 20.833 -17.001 28.5s-4 16.834 -4 27.501c0 18.667 5.66699 34.167 17 46.5s26 18.5 44 18.5c22 0 37.833 -8.66699 47.5 -26
s14.834 -44.333 15.501 -81v-358c0 -42 3 -69.667 9 -83s15.333 -20 28 -20c10.667 0 18.334 4.33301 23.001 13s7.33398 28.667 8.00098 60v87c-0.666992 14 -1.66699 25.833 -3 35.5s-3.33301 18.167 -6 25.5c-2.66699 4.66699 -9.66699 13.167 -21 25.5
s-18 23.833 -20 34.5c-3.33301 12 -3.66602 25.167 -0.999023 39.5s7.66699 25.5 15 33.5c4 4.66699 8.83301 8.5 14.5 11.5s11.834 4.5 18.501 4.5s12.834 -0.833008 18.501 -2.5s10.834 -3.5 15.501 -5.5c11.333 -7.33301 21.166 -19.333 29.499 -36
s14.5 -37.334 18.5 -62.001c2.66699 -18 4.83398 -41.833 6.50098 -71.5s2.5 -60.5 2.5 -92.5c0 -58.667 -4.83301 -104 -14.5 -136s-23.5 -55.667 -41.5 -71c-8.66699 -7.33301 -18.5 -13 -29.5 -17s-21.833 -6 -32.5 -6c-9.33301 0 -18.5 1.16699 -27.5 3.5
s-17.167 5.5 -24.5 9.5c-24.667 13.333 -43.167 35.666 -55.5 66.999s-18.5 74.666 -18.5 129.999z" />
    <glyph glyph-name="c" unicode="c" horiz-adv-x="264" 
d="M162 490c6.66699 0 13.5 -0.831055 20.5 -2.49805s13.833 -3.83398 20.5 -6.50098c12.667 -6.66699 22.667 -15.167 30 -25.5s11 -22.5 11 -36.5c0 -12 -2.66699 -22.667 -8 -32s-11.666 -16.333 -18.999 -21c-6.66699 -4.66699 -13.667 -7.33398 -21 -8.00098
s-16.333 0.333008 -27 3c-22 5.33301 -37.333 -2.5 -46 -23.5s-13 -57.833 -13 -110.5c0 -37.333 2.5 -64.5 7.5 -81.5s13.833 -25.5 26.5 -25.5h5c2 0 7.33301 1.66699 16 5c4 1.33301 7.83301 2.33301 11.5 3s7.16699 1 10.5 1c16 0 29.333 -6 40 -18
s16.334 -26.333 17.001 -43c0 -14 -3.83301 -27.167 -11.5 -39.5s-18.167 -21.833 -31.5 -28.5c-6.66699 -2.66699 -14.167 -5 -22.5 -7s-17.5 -3 -27.5 -3c-8 0 -15.667 0.666992 -23 2s-14.333 3.33301 -21 6c-28.667 10.667 -50.334 32.334 -65.001 65.001
s-22 83 -22 151c-0.666992 46.667 1.66602 86.667 6.99902 120s14 61 26 83c12 23.333 27 41.166 45 53.499s39.333 18.833 64 19.5z" />
    <glyph glyph-name="d" unicode="d" horiz-adv-x="310" 
d="M176 223v358c0 36.667 4.83301 63.667 14.5 81s25.834 26 48.501 26c17.333 0 31.833 -6.16699 43.5 -18.5s17.5 -27.833 17.5 -46.5c-0.666992 -10.667 -2.33398 -19.834 -5.00098 -27.501s-8.33398 -17.167 -17.001 -28.5c-6 -8.66699 -10 -15.667 -12 -21
s-2.66699 -20.333 -2 -45v-301c-0.666992 -55.333 -7.16699 -98.666 -19.5 -129.999s-30.5 -53.666 -54.5 -66.999c-8 -4 -16.5 -7.16699 -25.5 -9.5s-17.833 -3.5 -26.5 -3.5c-11.333 0 -22.5 2 -33.5 6s-20.5 9.66699 -28.5 17c-18.667 15.333 -32.667 39 -42 71
s-14 77 -14 135c0 108 7.5 180.167 22.5 216.5s36.5 54.5 64.5 54.5c16 -0.666992 28.833 -6.66699 38.5 -18s14.834 -27 15.501 -47c0 -9.33301 -1 -17.5 -3 -24.5s-11.667 -20.167 -29 -39.5c-7.33301 -8 -12.833 -18.833 -16.5 -32.5s-5.16699 -29.834 -4.5 -48.501v-87
c-0.666992 -31.333 1.5 -51.333 6.5 -60s13.167 -13 24.5 -13c12 -0.666992 21 5.83301 27 19.5s9.33301 41.5 10 83.5z" />
    <glyph glyph-name="e" unicode="e" horiz-adv-x="282" 
d="M161 490c8 0 15.832 -0.998047 23.499 -2.99805s15.167 -4.66699 22.5 -8c17.333 -9.33301 30.833 -22.833 40.5 -40.5s14.5 -39.167 14.5 -64.5c0 -36 -8.5 -67.333 -25.5 -94s-58.167 -65 -123.5 -115c0 -8.66699 1.83301 -17 5.5 -25s8.5 -13.333 14.5 -16
c4 -2.66699 8.16699 -4.16699 12.5 -4.5s14.166 2.5 29.499 8.5c12 4 23.5 5.16699 34.5 3.5s20.833 -6.5 29.5 -14.5c14.667 -14.667 20.667 -34.334 18 -59.001s-15.667 -43.334 -39 -56.001c-7.33301 -4 -15.666 -7 -24.999 -9s-20 -3 -32 -3
c-25.333 0 -47.166 5 -65.499 15s-33.166 25 -44.499 45c-10.667 17.333 -18.5 41 -23.5 71s-7.5 64.333 -7.5 103c0 67.333 7.16699 122.5 21.5 165.5s37.166 72.5 68.499 88.5c7.33301 3.33301 15.333 6 24 8s17.667 3.33301 27 4zM110.999 239.002l-1 -0.00195312
c16 10.667 30.5 25.334 43.5 44.001s21.5 36.334 25.5 53.001c0.666992 3.33301 1 6.5 1 9.5s-0.333008 5.83301 -1 8.5c-2 4.66699 -5.16699 8.5 -9.5 11.5s-9.16602 4.5 -14.499 4.5c-14.667 0 -25.834 -8.16699 -33.501 -24.5s-11.167 -51.833 -10.5 -106.5z" />
    <glyph glyph-name="f" unicode="f" horiz-adv-x="259" 
d="M188 688c18 -2 32.6719 -8.5 44.0049 -19.5s17 -26.5 17 -46.5c-0.666992 -14.667 -4.33398 -27.667 -11.001 -39s-18.334 -22.333 -35.001 -33c-16 -10 -25.667 -18.667 -29 -26s-5 -16.333 -5 -27v-10c6 0.666992 13 1.16699 21 1.5s15 0.833008 21 1.5
c10 -0.666992 17.833 -4.5 23.5 -11.5s8.5 -18.5 8.5 -34.5c0 -14 -3.33301 -24.333 -10 -31s-16.667 -10 -30 -10c-5.33301 0 -11.333 0.333008 -18 1s-12 1.66699 -16 3v-416c-0.666992 -60.667 -9.66699 -108.167 -27 -142.5s-44 -51.5 -80 -51.5
c-35.333 0 -57.833 14.333 -67.5 43s-4.83398 53.667 14.499 75c4.66699 6 14.667 14.333 30 25s26 21.334 32 32.001c3.33301 7.33301 5.83301 15.166 7.5 23.499s2.5 23.166 2.5 44.499v368c-15.333 -4.66699 -27.333 -4.33398 -36 0.999023s-13 15 -13 29
c0 16 4.16699 27.667 12.5 35s20.5 9 36.5 5v10c-0.666992 47.333 2.16602 82.333 8.49902 105s16.166 42.334 29.499 59.001c9.33301 12 19.5 20.833 30.5 26.5s23.833 8.83398 38.5 9.50098z" />
    <glyph glyph-name="g" unicode="g" horiz-adv-x="307" 
d="M108 297v-106.999c0 -10.667 1.33301 -20.667 4 -30s11.334 -25 26.001 -47c8 -13.333 13.667 -24.833 17 -34.5s5 -19.167 5 -28.5c0 -17.333 -4.83301 -31.666 -14.5 -42.999s-21.834 -17 -36.501 -17c-31.333 0 -54 21.833 -68 65.5s-21 120.834 -21 231.501
c0 72.667 6 124.667 18 156s31.667 47 59 47c16.667 0 31.5 -7.83301 44.5 -23.5s21.5 -37.167 25.5 -64.5c-1.33301 26.667 3.83398 48 15.501 64s28.167 24 49.5 24c18 0 33.333 -6 46 -18s19 -29 19 -51c0 -2 -0.166992 -3.33301 -0.5 -4s-8.5 -21.334 -24.5 -62.001
c-3.33301 -7.33301 -5.5 -15.5 -6.5 -24.5s-1.5 -25.833 -1.5 -50.5v-255c-0.666992 -60 -7.5 -106 -20.5 -138s-32.833 -56.333 -59.5 -73c-19.333 -11.333 -41 -16.833 -65 -16.5s-43 6.16602 -57 17.499c-26 21.333 -33.5 47.5 -22.5 78.5s36.5 46.5 76.5 46.5
c22.667 0.666992 38.167 7.16699 46.5 19.5s12.833 32.833 13.5 61.5v250c-0.666992 27.333 -4.16699 49 -10.5 65s-15.5 24 -27.5 24c-10.667 -0.666992 -18.334 -5.83398 -23.001 -15.501s-7 -25.5 -7 -47.5z" />
    <glyph glyph-name="h" unicode="h" horiz-adv-x="338" 
d="M134 281l-0.00195312 -111.994c-0.666992 -14 -0.5 -23.833 0.5 -29.5s2.83301 -12.5 5.5 -20.5c8.66699 -22.667 13.667 -37 15 -43s2 -11.667 2 -17c-0.666992 -20.667 -7.16699 -37.334 -19.5 -50.001s-28.166 -19 -47.499 -19c-18.667 0 -34.667 6.33301 -48 19
s-20 29.667 -20 51c0 5.33301 0.666992 11.166 2 17.499s4.66602 16.166 9.99902 29.499c4.66699 12.667 7.83398 23.167 9.50098 31.5s2.5 16.5 2.5 24.5v338c0 24.667 -1 39.667 -3 45s-6 12.333 -12 21c-9.33301 12.667 -15.166 22.834 -17.499 30.501
s-3.5 16.167 -3.5 25.5c0 19.333 5.5 35 16.5 47s25.833 18 44.5 18c22 -0.666992 38 -9.33398 48 -26.001s15 -43.667 15 -81v-195c7.33301 28.667 19.333 53.167 36 73.5s36 30.5 58 30.5c17.333 0 31 -6.33301 41 -19s15 -32.334 15 -59.001v-226
c0 -20.667 0.666992 -33.834 2 -39.501s4.33301 -12.834 9 -21.501c10.667 -20 17.167 -33.833 19.5 -41.5s3.5 -15.5 3.5 -23.5c0 -13.333 -2.33301 -25.333 -7 -36s-11 -18.667 -19 -24c-9.33301 -6 -20.5 -9.16699 -33.5 -9.5s-23.833 2.16699 -32.5 7.5
c-10.667 6 -18.5 14.5 -23.5 25.5s-7.16699 29.833 -6.5 56.5v219c0 28 -1.83301 45.167 -5.5 51.5s-9.16699 9.5 -16.5 9.5c-12 0 -21.667 -7.66699 -29 -23s-11 -34 -11 -56z" />
    <glyph glyph-name="i" unicode="i" horiz-adv-x="208" 
d="M90 686c18.667 0 33.167 -6.16504 43.5 -18.498s15.5 -28.833 15.5 -49.5c-0.666992 -24.667 -6 -42.834 -16 -54.501s-24.333 -17.5 -43 -17.5c-20.667 0 -36 6.66699 -46 20s-15 30.666 -15 51.999c0 20.667 5.33301 37.167 16 49.5s25.667 18.5 45 18.5zM56 109.002
l-0.00292969 205c0 15.333 -0.833008 26.166 -2.5 32.499s-5.83398 13.833 -12.501 22.5c-9.33301 13.333 -15.166 23.833 -17.499 31.5s-3.5 15.834 -3.5 24.501c0 18 5.5 33.333 16.5 46s25.833 19 44.5 19c21.333 -0.666992 37 -9.66699 47 -27s15.333 -44 16 -80v-150
c0 -20 0.666992 -36.167 2 -48.5s12 -34.5 32 -66.5c6.66699 -12 11.667 -23.167 15 -33.5s5 -19.833 5 -28.5c-0.666992 -14 -4 -26.167 -10 -36.5s-13.667 -17.833 -23 -22.5c-4.66699 -2 -9.66699 -3.66699 -15 -5s-10.666 -2 -15.999 -2
c-7.33301 0 -14.166 0.833008 -20.499 2.5s-12.166 4.16699 -17.499 7.5c-14 8 -24.167 20.667 -30.5 38s-9.5 41 -9.5 71z" />
    <glyph glyph-name="j" unicode="j" horiz-adv-x="203" 
d="M61 41l0.000976562 348.002c0 38.667 5 65.167 15 79.5s25.333 21.5 46 21.5c17.333 0 31.666 -6 42.999 -18s17.333 -27.667 18 -47c0 -6.66699 -1 -13.167 -3 -19.5s-7.66699 -18.5 -17 -36.5c-6.66699 -12.667 -10.667 -23.834 -12 -33.501s-2 -24.834 -2 -45.501
v-299c-0.666992 -49.333 -5.83398 -88 -15.501 -116s-23.5 -48.667 -41.5 -62c-14.667 -10 -31.667 -15.167 -51 -15.5s-35.333 4.5 -48 14.5c-14.667 12.667 -22.167 29.5 -22.5 50.5s5.83398 38.5 18.501 52.5c5.33301 6 15.5 14.333 30.5 25s25.5 21.334 31.5 32.001
c3.33301 7.33301 5.83301 15.166 7.5 23.499s2.5 23.5 2.5 45.5zM123.001 686.002c18.667 0 33.167 -6.16504 43.5 -18.498s15.5 -28.833 15.5 -49.5c0 -24.667 -5.16699 -42.834 -15.5 -54.501s-24.833 -17.5 -43.5 -17.5c-20.667 0 -36 6.66699 -46 20
s-15 30.666 -15 51.999c0 20.667 5.33301 37.167 16 49.5s25.667 18.5 45 18.5z" />
    <glyph glyph-name="k" unicode="k" horiz-adv-x="330" 
d="M46 163l-0.00488281 337.994c-0.666992 24 -1.83398 38.833 -3.50098 44.5s-5.5 12.834 -11.5 21.501c-9.33301 13.333 -15.166 23.833 -17.499 31.5s-3.5 15.834 -3.5 24.501c0 18.667 5.66699 34.167 17 46.5s26 18.5 44 18.5c22 0 37.833 -8.66699 47.5 -26
s14.834 -44.333 15.501 -81v-276c6.66699 1.33301 12.667 8.5 18 21.5s11 35.167 17 66.5c6 32.667 15.5 56.834 28.5 72.501s29.5 23.834 49.5 24.501c16.667 0 30.667 -5.66699 42 -17s17 -25 17 -41c0 -12.667 -2.83301 -24 -8.5 -34s-13.167 -19.333 -22.5 -28
c-20 -17.333 -29.833 -26 -29.5 -26s-5.16699 -9.66699 -16.5 -29c-5.33301 -9.33301 -10.166 -16.5 -14.499 -21.5s-9.16602 -9.5 -14.499 -13.5c22 -12.667 37.333 -37.667 46 -75s17.667 -63 27 -77l37 -62v-12c0 -18.667 -6 -34 -18 -46s-27.333 -18 -46 -18
c-20.667 0 -37.167 7.33301 -49.5 22s-18.5 34.334 -18.5 59.001c0 4.66699 0.333008 11.834 1 21.501s1 17.167 1 22.5c0 44 -4 75 -12 93s-19.333 26.667 -34 26v-65c0 -14 0.333008 -23.833 1 -29.5s2.33398 -12.5 5.00098 -20.5c8.66699 -22.667 13.667 -37 15 -43
s2 -11.667 2 -17c-0.666992 -20.667 -7.16699 -37.334 -19.5 -50.001s-28.166 -19 -47.499 -19c-18.667 0 -34.5 5.83301 -47.5 17.5s-19.5 28.167 -19.5 49.5c0 8.66699 0.666992 16.834 2 24.501s4 16.167 8 25.5c4.66699 12 8 21.833 10 29.5s3 16.5 3 26.5z" />
    <glyph glyph-name="l" unicode="l" horiz-adv-x="198" 
d="M134 581l-0.00292969 -347.999c0 -20 0.666992 -36.167 2 -48.5s12 -34.5 32 -66.5c10.667 -18 17 -34.333 19 -49s0.333008 -28 -5 -40c-5.33301 -12.667 -13 -22.334 -23 -29.001s-21.667 -10 -35 -10c-7.33301 0 -14.166 0.833008 -20.499 2.5
s-12.166 4.16699 -17.499 7.5c-14 8 -24.333 20.667 -31 38s-9.66699 41 -9 71v392c0 34.667 -3.83301 56.5 -11.5 65.5s-12.167 15.167 -13.5 18.5c-7.33301 12 -11.166 24.667 -11.499 38s2.83398 25.333 9.50098 36c5.33301 8.66699 12.333 15.667 21 21s19 8 31 8
c21.333 0 37.166 -8.66699 47.499 -26s15.5 -44.333 15.5 -81z" />
    <glyph glyph-name="m" unicode="m" horiz-adv-x="491" 
d="M51 170l-0.00195312 136.999c0 13.333 -0.833008 23.166 -2.5 29.499s-4.16699 13.833 -7.5 22.5c-11.333 24.667 -17.666 40 -18.999 46s-2 12 -2 18c0 31.333 13.5 51.833 40.5 61.5s49.167 6.16699 66.5 -10.5c6 -6.66699 10.5 -15 13.5 -25s4.83301 -28.333 5.5 -55
c8 24 13.333 38.833 16 44.5s6.33398 11.5 11.001 17.5c8 11.333 17.333 19.833 28 25.5s22 8.5 34 8.5c4.66699 0 9.33398 -0.666992 14.001 -2s9.33398 -3 14.001 -5c10.667 -6.66699 18.5 -17.334 23.5 -32.001s6.83301 -33.667 5.5 -57c3.33301 16 9 31.667 17 47
s16.667 26.666 26 33.999c12.667 10 26.5 14.833 41.5 14.5s27.167 -4.16602 36.5 -11.499c7.33301 -7.33301 12.666 -17 15.999 -29s5.33301 -29.333 6 -52v-219c0 -15.333 0.666992 -26 2 -32s4.33301 -13 9 -21c11.333 -19.333 18.333 -33.5 21 -42.5s4 -17.5 4 -25.5
c-0.666992 -20 -6.16699 -36.167 -16.5 -48.5s-24.166 -18.5 -41.499 -18.5c-22 0.666992 -38.5 7.66699 -49.5 21s-16.5 33 -16.5 59v243c0 20.667 -1.66699 33.667 -5 39s-8.33301 8 -15 8c-13.333 0 -23.333 -6.33301 -30 -19s-10 -33 -10 -61v-101
c0 -11.333 0.833008 -22.666 2.5 -33.999s4.5 -22.666 8.5 -33.999c6.66699 -23.333 10.5 -37.333 11.5 -42s1.5 -9 1.5 -13c0 -19.333 -6.16699 -35.166 -18.5 -47.499s-28.5 -18.5 -48.5 -18.5c-20.667 0 -37 6 -49 18s-18 27.333 -18 46
c0 6.66699 0.666992 13.834 2 21.501s5 20.167 11 37.5c3.33301 12 5.66602 22.167 6.99902 30.5s2 20.166 2 35.499v134c-0.666992 18.667 -2.83398 31.167 -6.50098 37.5s-8.83398 9.5 -15.501 9.5c-13.333 0 -23 -7 -29 -21s-9 -33.333 -9 -58v-111
c-0.666992 -10.667 -0.5 -19.667 0.5 -27s2.5 -15 4.5 -23c10.667 -40.667 16.167 -61 16.5 -61s0.5 -1 0.5 -3c0 -11.333 -2.66699 -22 -8 -32s-12.666 -18 -21.999 -24c-23.333 -14 -46.5 -14.5 -69.5 -1.5s-34.5 33.167 -34.5 60.5c0 6.66699 0.833008 13.167 2.5 19.5
s5.16699 15.5 10.5 27.5c4.66699 9.33301 7.66699 17.333 9 24s2 20 2 40z" />
    <glyph glyph-name="n" unicode="n" horiz-adv-x="344" 
d="M52 163l0.00195312 163.998c0 6 -7.16699 24 -21.5 54s-14.833 56.333 -1.5 79c5.33301 9.33301 12.833 16.666 22.5 21.999s21.167 8 34.5 8c9.33301 0 17.666 -1.83301 24.999 -5.5s13.666 -8.5 18.999 -14.5c6 -8 10.167 -19.167 12.5 -33.5
s2.16602 -31.166 -0.500977 -50.499h2c6 25.333 13.5 45.5 22.5 60.5s19.5 26.167 31.5 33.5c4.66699 2.66699 10 4.83398 16 6.50098s12 2.83398 18 3.50098c5.33301 0 10.666 -1 15.999 -3s10.333 -4.66699 15 -8c7.33301 -6.66699 13.333 -16.167 18 -28.5
s7 -29.166 7 -50.499v-222c0 -15.333 0.666992 -26 2 -32s4.33301 -13 9 -21c11.333 -19.333 18.333 -33.5 21 -42.5s4 -17.5 4 -25.5c0 -11.333 -2.33301 -22.5 -7 -33.5s-11 -19.167 -19 -24.5c-4.66699 -2.66699 -9.83398 -4.83398 -15.501 -6.50098
s-11.5 -2.5 -17.5 -2.5c-5.33301 0.666992 -10.666 1.5 -15.999 2.5s-10 2.5 -14 4.5c-12.667 6 -21.667 14.333 -27 25s-8 26.667 -8 48v242c-0.666992 20 -2.66699 33 -6 39s-8.66602 9 -15.999 9c-10.667 0 -19.667 -6.66699 -27 -20s-11 -32.666 -11 -57.999v-113
c-0.666992 -13.333 -0.5 -23 0.5 -29s2.83301 -13 5.5 -21c10 -31.333 15.333 -48.5 16 -51.5s1 -5.83301 1 -8.5c-0.666992 -21.333 -7.16699 -38.166 -19.5 -50.499s-28.166 -18.5 -47.499 -18.5c-20 0 -36.333 6.5 -49 19.5s-19 29.833 -19 50.5
c0 5.33301 0.666992 11.166 2 17.499s4.66602 15.833 9.99902 28.5c4 11.333 6.83301 21.166 8.5 29.499s2.83398 17.5 3.50098 27.5z" />
    <glyph glyph-name="o" unicode="o" horiz-adv-x="270" 
d="M133 -10c-10 0 -19.667 1.5 -29 4.5s-17.666 7.16699 -24.999 12.5c-22 14.667 -38.667 42 -50 82s-17 86.667 -17 140c0 50 3.16699 92.667 9.5 128s15.166 62.333 26.499 81c10.667 18 23 31.167 37 39.5s30 12.5 48 12.5s34 -3.83301 48 -11.5
s26.333 -19.167 37 -34.5c12 -18 21.667 -43.667 29 -77s11 -72.666 11 -117.999c0 -71.333 -5.83301 -126 -17.5 -164s-29.167 -64.667 -52.5 -80c-8 -4.66699 -16.667 -8.33398 -26 -11.001s-19 -4 -29 -4zM102 275v-73c0 -30 2.66699 -51.333 8 -64s14 -18.667 26 -18
c10.667 0 18.5 5.16699 23.5 15.5s7.83301 32.5 8.5 66.5v74c0 34 -2.66699 56.5 -8 67.5s-13.666 16.5 -24.999 16.5c-12.667 0 -21.334 -5.83301 -26.001 -17.5s-7 -34.167 -7 -67.5z" />
    <glyph glyph-name="p" unicode="p" horiz-adv-x="324" 
d="M150 274l-0.000976562 -342.997c0 -34 -2.5 -59.667 -7.5 -77s-12.833 -31 -23.5 -41c-10 -8 -22.167 -13 -36.5 -15s-26.833 -0.333008 -37.5 5c-20.667 10 -32.334 26.5 -35.001 49.5s4 48.167 20 75.5c16.667 31.333 26.167 50.5 28.5 57.5s3.5 14.167 3.5 21.5v286
c0 12.667 -0.5 23.5 -1.5 32.5s-8.16699 29.833 -21.5 62.5c-6 14 -9.16699 26.833 -9.5 38.5s2.5 22.5 8.5 32.5c8 14.667 20.167 24.167 36.5 28.5s31.833 3.5 46.5 -2.5c12 -6 20.833 -14 26.5 -24s9.83398 -29.667 12.501 -59c1.33301 7.33301 3 14.333 5 21
s4.66699 13.667 8 21c6.66699 16 14.5 27.667 23.5 35s19.167 11 30.5 11c26 0 45.333 -15.167 58 -45.5s19 -82.833 19 -157.5c0 -88.667 -4.66699 -156.834 -14 -204.501s-23.666 -76.5 -42.999 -86.5c-4 -1.33301 -8.33301 -2.5 -13 -3.5s-9.66699 -1.83301 -15 -2.5
c-15.333 0 -28 5.66699 -38 17s-15 27 -15 47c0 10 1.83301 20 5.5 30s10.167 21 19.5 33c13.333 17.333 20.833 29.666 22.5 36.999s2.5 17.666 2.5 30.999v116c0 20.667 -2 35.667 -6 45s-10.333 14 -19 14c-13.333 0 -23.5 -7.16699 -30.5 -21.5
s-10.5 -35.833 -10.5 -64.5z" />
    <glyph glyph-name="q" unicode="q" horiz-adv-x="324" 
d="M174 -69l-0.000976562 343c0 28.667 -3.66699 50.167 -11 64.5s-17.333 21.5 -30 21.5c-8.66699 0 -15.167 -4.16699 -19.5 -12.5s-6.16602 -23.833 -5.49902 -46.5v-116c0 -13.333 0.666992 -23.666 2 -30.999s9 -19.666 23 -36.999c8.66699 -12 15 -23.167 19 -33.5
s6 -20.833 6 -31.5c-0.666992 -18.667 -5.83398 -33.667 -15.501 -45s-22.167 -17 -37.5 -17c-10.667 0 -19.834 1.83301 -27.501 5.5s-14.167 9.5 -19.5 17.5c-12 15.333 -21.333 45.666 -28 90.999s-10 106.333 -10 183c0 62 3.16699 106 9.5 132s16.833 45 31.5 57
c4.66699 4 10.167 7.33301 16.5 10s12.833 4 19.5 4c6 -0.666992 12 -2.33398 18 -5.00098s11.667 -6 17 -10c7.33301 -7.33301 13.5 -16.833 18.5 -28.5s9.5 -26.5 13.5 -44.5c2 28 5.83301 47.333 11.5 58s14.834 19 27.501 25c8 3.33301 17.5 4.83301 28.5 4.5
s20.833 -2.5 29.5 -6.5c15.333 -8 25.333 -20.5 30 -37.5s2.66699 -36.167 -6 -57.5c-14 -32.667 -21.333 -53.5 -22 -62.5s-1 -19.833 -1 -32.5v-286c0 -7.33301 1 -14.833 3 -22.5s11.667 -26.5 29 -56.5c20.667 -36 25.334 -66.833 14.001 -92.5s-30.333 -38.5 -57 -38.5
s-46.167 10.5 -58.5 31.5s-18.5 55.167 -18.5 102.5z" />
    <glyph glyph-name="r" unicode="r" horiz-adv-x="299" 
d="M52 163l0.000976562 155.002c-0.666992 12 -4.83398 26 -12.501 42s-11.5 24.333 -11.5 25c-6 12.667 -8.83301 25.5 -8.5 38.5s3.5 24.833 9.5 35.5c5.33301 10 12.666 17.667 21.999 23s21 8 35 8c8.66699 0 16.667 -1.83301 24 -5.5s13.666 -8.16699 18.999 -13.5
c6.66699 -8.66699 11.167 -20.334 13.5 -35.001s2.16602 -31.334 -0.500977 -50.001c4 15.333 10 31.333 18 48s16.333 29.334 25 38.001c5.33301 5.33301 11.833 9.66602 19.5 12.999s16.167 5 25.5 5c20 0 35.667 -7.83301 47 -23.5s17 -37.834 17 -66.501
c-0.666992 -29.333 -6.66699 -51.166 -18 -65.499s-26 -21.5 -44 -21.5c-7.33301 0 -14 1.16699 -20 3.5s-11.333 6.16602 -16 11.499c-8 7.33301 -13.167 11.5 -15.5 12.5s-4.5 1.83301 -6.5 2.5c-8.66699 0 -16.667 -7.66699 -24 -23s-10.666 -32.333 -9.99902 -51v-100
c-0.666992 -11.333 -0.333984 -21.166 0.999023 -29.499s4.33301 -18.5 9 -30.5c5.33301 -14.667 8.83301 -25.667 10.5 -33s2.5 -14.333 2.5 -21c0 -19.333 -6.16699 -35 -18.5 -47s-28.166 -18 -47.499 -18c-20.667 0 -37.167 6.83301 -49.5 20.5
s-18.5 30.834 -18.5 51.501c-0.666992 6 -0.166992 12.167 1.5 18.5s4.83398 15.166 9.50098 26.499c4.66699 12 7.83398 22.167 9.50098 30.5s2.5 16.833 2.5 25.5z" />
    <glyph glyph-name="s" unicode="s" horiz-adv-x="288" 
d="M150 490c28.667 0 52.834 -8.16309 72.501 -24.4961s29.5 -36.5 29.5 -60.5c-0.666992 -24.667 -10.334 -42.334 -29.001 -53.001s-38 -10.667 -58 0c-11.333 5.33301 -19 7.83301 -23 7.5s-7 -1.5 -9 -3.5c-5.33301 -5.33301 -5.83301 -12.833 -1.5 -22.5
s28.833 -36.834 73.5 -81.501c20.667 -21.333 36.334 -43.5 47.001 -66.5s16 -45.833 16 -68.5c0 -34.667 -12 -64.334 -36 -89.001s-55.667 -37.334 -95 -38.001c-37.333 0 -66.166 8.83301 -86.499 26.5s-30.5 39.834 -30.5 66.501c0 19.333 6 34.666 18 45.999
s27.667 17 47 17c6 0 11.5 -0.833008 16.5 -2.5s13.833 -6.5 26.5 -14.5c11.333 -8 21.166 -10.667 29.499 -8s12.5 9.66699 12.5 21c0 7.33301 -3.66699 16 -11 26s-33 40 -77 90c-21.333 23.333 -35.666 44 -42.999 62s-11 36.333 -11 55
c-0.666992 34 10.666 61.667 33.999 83s52.666 32 87.999 32z" />
    <glyph glyph-name="t" unicode="t" horiz-adv-x="252" 
d="M159 581l-0.00292969 -90.9971c2 -0.666992 3.83301 -1 5.5 -1s3.16699 0.333008 4.5 1c2.66699 0 7.5 0.833008 14.5 2.5s12.5 2.5 16.5 2.5c10 0 17.833 -3.83301 23.5 -11.5s8.5 -18.834 8.5 -33.501c0 -16.667 -3 -28.834 -9 -36.501s-15 -11.167 -27 -10.5
c-5.33301 0 -11.166 0.166992 -17.499 0.5s-12.833 1.16602 -19.5 2.49902v-173c0 -27.333 1 -46.333 3 -57s7.33301 -22.667 16 -36c16 -25.333 25.833 -42.833 29.5 -52.5s5.5 -19.167 5.5 -28.5c0 -19.333 -6.16699 -35.666 -18.5 -48.999s-28.166 -20 -47.499 -20
c-25.333 0 -44.5 10 -57.5 30s-19.167 49.667 -18.5 89v304c-7.33301 0 -12.5 -0.166992 -15.5 -0.5s-6.5 -0.5 -10.5 -0.5c-9.33301 0 -15.833 2.83301 -19.5 8.5s-5.5 15.167 -5.5 28.5c0 16 3.83301 26.5 11.5 31.5s20.834 6.16699 39.501 3.5v17c0 16 -1 28.167 -3 36.5
s-6.33301 18.166 -13 29.499c-8.66699 14 -14.167 24.833 -16.5 32.5s-3.5 15.5 -3.5 23.5c0 19.333 5.66699 35 17 47s26 18 44 18c21.333 0 37 -8.66699 47 -26s15.333 -44.333 16 -81z" />
    <glyph glyph-name="u" unicode="u" horiz-adv-x="328" 
d="M284 317l-0.00390625 -164.004c-0.666992 -4 -0.5 -7.66699 0.5 -11s6.5 -14.333 16.5 -33c5.33301 -10 9.16602 -19.667 11.499 -29s3.5 -18 3.5 -26c0 -19.333 -6.16699 -34.833 -18.5 -46.5s-28.166 -17.5 -47.499 -17.5c-24 0 -40.667 9 -50 27s-11.333 43.667 -6 77
h-2c-6.66699 -26 -14.5 -46.5 -23.5 -61.5s-19.167 -25.833 -30.5 -32.5c-5.33301 -2.66699 -11 -5 -17 -7s-11.667 -3 -17 -3c-6 0.666992 -11.667 1.83398 -17 3.50098s-10 4.16699 -14 7.5c-8 6 -14.167 15.167 -18.5 27.5s-6.5 29.5 -6.5 51.5v222
c0 8.66699 -0.5 16.334 -1.5 23.001s-7.83301 22.334 -20.5 47.001c-8.66699 14.667 -13.5 29.667 -14.5 45s1.5 28.666 7.5 39.999c4.66699 10 11.834 18 21.501 24s20.5 9 32.5 9c5.33301 0 10.333 -0.666992 15 -2s9 -2.66602 13 -3.99902c11.333 -6 20 -15 26 -27
s9 -27.667 9 -47v-242c0 -20.667 1.66699 -33.834 5 -39.501s9 -8.5 17 -8.5c10 0 18.833 6.5 26.5 19.5s11.5 32.5 11.5 58.5v113c-0.666992 15.333 -1.66699 26.333 -3 33s-4.33301 17.334 -9 32.001c-9.33301 24 -12.666 44.5 -9.99902 61.5s11.334 30.833 26.001 41.5
c11.333 8 25.833 11.5 43.5 10.5s32.5 -7.5 44.5 -19.5c8.66699 -10 14.334 -22.167 17.001 -36.5s1.66699 -29.166 -3 -44.499l-19 -56z" />
    <glyph glyph-name="v" unicode="v" horiz-adv-x="318" 
d="M274 328l-54 -290.001c-3.33301 -18 -8.83301 -30.5 -16.5 -37.5s-17.834 -10.5 -30.501 -10.5c-16.667 0 -29.334 4.66699 -38.001 14s-15.667 28 -21 56l-41 214c-5.33301 24 -10 39.667 -14 47s-10.333 15 -19 23c-25.333 21.333 -40 36.666 -44 45.999
s-6 20.333 -6 33c0 20 5.83301 36.167 17.5 48.5s26.834 18.5 45.501 18.5c8 -0.666992 16.333 -2.66699 25 -6s16.334 -7.66602 23.001 -12.999c10.667 -10 19.667 -24.667 27 -44s15.333 -53.666 24 -102.999l21 -127h2l21 140c1.33301 12.667 2.83301 29.167 4.5 49.5
s2.83398 36.166 3.50098 47.499c-0.666992 14 -2 26 -4 36s-11 28.667 -27 56c-12 19.333 -19 36.333 -21 51s0.666992 29 8 43c10.667 21.333 26.667 33.333 48 36s40 -2.66602 56 -15.999c11.333 -10 19.833 -23.5 25.5 -40.5s8.5 -39.5 8.5 -67.5
c0 -29.333 -1.83301 -59 -5.5 -89s-9.83398 -68.333 -18.501 -115z" />
    <glyph glyph-name="w" unicode="w" horiz-adv-x="463" 
d="M94 64l-27.999 215.002c-2 12.667 -5.33301 24 -10 34s-16 24.667 -34 44c-20 20.667 -30.5 41 -31.5 61s5.16699 37.333 18.5 52c11.333 11.333 25.666 17.666 42.999 18.999s32.333 -2.33398 45 -11.001c8.66699 -7.33301 15.667 -17 21 -29s9.33301 -32 12 -60
l10 -112c2.66699 -35.333 4.5 -53.5 5.5 -54.5s1.83301 -1.16699 2.5 -0.5c1.33301 0 3.33301 4.66699 6 14s6 23.666 10 42.999l36 185c1.33301 8 4.5 14.333 9.5 19s12.167 7 21.5 7s16.333 -2.16699 21 -6.5s8 -10.833 10 -19.5l36 -185
c4.66699 -24.667 8 -40.334 10 -47.001s4 -10 6 -10c0.666992 0 1.5 2.83301 2.5 8.5s2.83301 21.167 5.5 46.5l10 112c2 28 5.66699 48 11 60s12.666 21.667 21.999 29c12 8.66699 26.667 12.334 44 11.001s32 -7.66602 44 -18.999c13.333 -14.667 19.5 -32 18.5 -52
s-11.5 -40.333 -31.5 -61c-18.667 -19.333 -30.334 -34 -35.001 -44s-7.66699 -21.333 -9 -34l-28 -215c-4 -29.333 -9.83301 -49 -17.5 -59s-18.167 -15 -31.5 -15c-14 0 -25 4.66699 -33 14s-14.333 28.666 -19 57.999l-29 161
c-1.33301 5.33301 -2.66602 9.5 -3.99902 12.5s-2.33301 4.83301 -3 5.5c-1.33301 0 -2.66602 -1.66699 -3.99902 -5s-2.33301 -7.66602 -3 -12.999l-29 -159c-6 -30.667 -12.667 -50.667 -20 -60s-18 -14 -32 -14c-13.333 0 -23.833 4.5 -31.5 13.5
s-13.5 29.167 -17.5 60.5z" />
    <glyph glyph-name="x" unicode="x" horiz-adv-x="307" 
d="M152 375l1.99902 0.00292969c0.666992 19.333 2.5 36 5.5 50s7.83301 26 14.5 36c6 9.33301 13.333 16.5 22 21.5s19 7.5 31 7.5c16.667 0 30.834 -5.5 42.501 -16.5s17.5 -25.167 17.5 -42.5c0 -10 -2.16699 -19.667 -6.5 -29s-10.833 -18 -19.5 -26
c-30.667 -29.333 -47.167 -45.833 -49.5 -49.5s-4.16602 -7.83398 -5.49902 -12.501c-3.33301 -8.66699 -5.66602 -17.834 -6.99902 -27.501s-2 -21.5 -2 -35.5c0 -15.333 0.833008 -28.5 2.5 -39.5s4.83398 -20.5 9.50098 -28.5c6 -12.667 18.167 -28.167 36.5 -46.5
s29.166 -29.5 32.499 -33.5c12 -18 17.5 -35.833 16.5 -53.5s-7.16699 -31.834 -18.5 -42.501c-10 -9.33301 -21.5 -14.833 -34.5 -16.5s-25.833 1.5 -38.5 9.5c-14.667 8.66699 -25.834 22 -33.501 40s-12.834 45.333 -15.501 82h-1
c-3.33301 -36.667 -8.83301 -64 -16.5 -82s-18.5 -31.333 -32.5 -40c-5.33301 -2.66699 -10.666 -5 -15.999 -7s-10.666 -3 -15.999 -3c-8 0 -15.5 1.66699 -22.5 5s-13.167 7.33301 -18.5 12c-12 10.667 -18.5 24.834 -19.5 42.501s4.83301 35.5 17.5 53.5
c5.33301 7.33301 16.333 19 33 35s28.334 31 35.001 45c4 8.66699 7 18.667 9 30s3 25 3 41c0 23.333 -2.66699 42.333 -8 57s-13.333 27 -24 37c-28.667 24.667 -43.834 38.5 -45.501 41.5s-3.16699 6.16699 -4.5 9.5c-10.667 21.333 -11 41.833 -1 61.5
s27.667 29.5 53 29.5c11.333 0 21.666 -2.5 30.999 -7.5s17 -12.167 23 -21.5c4.66699 -8.66699 8.66699 -20.334 12 -35.001s5.66602 -31.667 6.99902 -51z" />
    <glyph glyph-name="y" unicode="y" horiz-adv-x="334" 
d="M104 156l-27.9971 137.999c-1.33301 6 -3.33301 11.833 -6 17.5s-14.334 19.167 -35.001 40.5c-10.667 10 -18.834 21.333 -24.501 34s-8.5 25.334 -8.5 38.001c0 18 5.33301 33.5 16 46.5s25.667 19.5 45 19.5c13.333 0 25.5 -3 36.5 -9s20.5 -15.333 28.5 -28
c4 -7.33301 7.83301 -16.333 11.5 -27s9.83398 -55.334 18.501 -134.001l7 -64c0.666992 24 2.5 50.333 5.5 79s6.83301 53 11.5 73c6 28.667 14.167 51.167 24.5 67.5s22.833 28.166 37.5 35.499c20 10 38.833 9.66699 56.5 -1s26.834 -28.334 27.501 -53.001
c0 -8.66699 -1.16699 -16.667 -3.5 -24s-16.833 -26.666 -43.5 -57.999c-8 -9.33301 -14.333 -19.333 -19 -30s-17.334 -88.667 -38.001 -234c-13.333 -91.333 -26.5 -154.666 -39.5 -189.999s-29.5 -60.666 -49.5 -75.999c-13.333 -9.33301 -29.166 -15.333 -47.499 -18
s-35.166 -2 -50.499 2c-16 4.66699 -28.333 13 -37 25s-13.334 27 -14.001 45c0 20.667 7.16699 37.167 21.5 49.5s32.166 18.166 53.499 17.499c21.333 0 34.666 2.83301 39.999 8.5s10 13.834 14 24.501c4.66699 16 6.16699 39.833 4.5 71.5s-6.83398 69.5 -15.501 113.5z
" />
    <glyph glyph-name="z" unicode="z" horiz-adv-x="298" 
d="M230 486c21.333 0 36.165 -4.00684 44.498 -12.0068s12.833 -19.333 13.5 -34c0 -13.333 -3.33301 -28.5 -10 -45.5s-16.667 -38.5 -30 -64.5l-84 -159.5c-11.333 -22.333 -20.666 -43.833 -27.999 -64.5c6.66699 -0.666992 13 -0.5 19 0.5s12.667 3.16699 20 6.5
c25.333 11.333 43 16.5 53 15.5s20 -4.5 30 -10.5c8 -6 14.667 -14 20 -24s8 -21.667 8 -35s-2.5 -25.166 -7.5 -35.499s-11.5 -18.166 -19.5 -23.499c-4.66699 -2.66699 -10.167 -5 -16.5 -7s-13.166 -3 -20.499 -3c-4.66699 0 -9.16699 0.5 -13.5 1.5
s-16.5 4.5 -36.5 10.5c-16.667 4.66699 -31 7.33398 -43 8.00098s-25.667 -0.666016 -41 -3.99902c-22.667 -5.33301 -37.667 -7.66602 -45 -6.99902s-14 3.33398 -20 8.00098c-8 6 -12.5 14.833 -13.5 26.5s2.16699 25.834 9.5 42.501c4 10 9.16699 21.833 15.5 35.5
s29.833 58.834 70.5 135.501c14 26.667 25.333 49.167 34 67.5l27 58.5c-7.33301 1.33301 -14 1.83301 -20 1.5s-16.667 -2.5 -32 -6.5c-18.667 -5.33301 -34.5 -6.16602 -47.5 -2.49902s-23.167 12.167 -30.5 25.5c-5.33301 8.66699 -8.16602 19.334 -8.49902 32.001
s2.16699 24 7.5 34s13.166 18 23.499 24s23.833 9 40.5 9c4 0 8.5 -0.333008 13.5 -1s12.167 -1.33398 21.5 -2.00098c2.66699 -0.666992 6 -1.33398 10 -2.00098s32.667 -0.333984 86 0.999023z" />
    <glyph glyph-name="bar" unicode="|" horiz-adv-x="254" 
d="M78 123l0.00585938 377.004c0 17.333 -0.666992 30.166 -2 38.499s-4.33301 18.5 -9 30.5c-6 15.333 -9.83301 26.666 -11.5 33.999s-2.16699 15.333 -1.5 24c-0.666992 24.667 5.66602 44.667 18.999 60s31.333 23 54 23c23.333 0 41.666 -7.5 54.999 -22.5
s20 -34.167 20 -57.5c0 -8 -0.833008 -16 -2.5 -24s-4.83398 -18.333 -9.50098 -31c-6 -14.667 -10 -27.334 -12 -38.001s-2.66699 -22.334 -2 -35.001v-379c-0.666992 -12.667 0.166016 -24.5 2.49902 -35.5s6.16602 -24.167 11.499 -39.5c5.33301 -14.667 9 -26 11 -34
s3 -15.667 3 -23c0 -21.333 -7 -40.166 -21 -56.499s-32.667 -24.5 -56 -24.5c-24 0 -43 8.16699 -57 24.5s-20.667 35.166 -20 56.499c0 7.33301 0.833008 15 2.5 23s5.16699 19.333 10.5 34c5.33301 15.333 9.16602 28.5 11.499 39.5s3.5 22.833 3.5 35.5z" />
    <glyph glyph-name="afii10051" horiz-adv-x="436" 
d="M306 700c22.667 0 41.833 -7.16602 57.5 -21.499s23.5 -33.5 23.5 -57.5s-8.5 -44.167 -25.5 -60.5s-38.5 -24.5 -64.5 -24.5c-12.667 0 -26 2 -40 6s-30.667 11 -50 21c-30 14 -54 16.167 -72 6.5s-31.333 -14.5 -40 -14.5c-13.333 0 -24.166 4.33301 -32.499 13
s-12.5 19.667 -12.5 33c0 25.333 15 45.333 45 60s66.667 17.334 110 8.00098c12.667 -3.33301 19.5 -4.83301 20.5 -4.5s12.833 8.16602 35.5 23.499c5.33301 3.33301 11.666 6.16602 18.999 8.49902s16 3.5 26 3.5zM102.999 116.001l20.9971 405
c0.666992 14.667 3.83398 25.334 9.50098 32.001s14.167 10 25.5 10s19.833 -4.33301 25.5 -13s8.83398 -20.334 9.50098 -35.001v-154c5.33301 32.667 15.666 57.5 30.999 74.5s33.333 25.5 54 25.5c15.333 0 29.5 -4.33301 42.5 -13s24.5 -21 34.5 -37
c12.667 -22 21.667 -49.333 27 -82s8 -87.667 8 -165c0 -89.333 -8 -159.5 -24 -210.5s-40.333 -89.833 -73 -116.5c-22.667 -17.333 -49.5 -28.333 -80.5 -33s-55.5 -0.333984 -73.5 12.999c-27.333 20.667 -36.833 47.5 -28.5 80.5s37.833 55.167 88.5 66.5
c36 9.33301 60.5 25.166 73.5 47.499s19.5 57.5 19.5 105.5v85c-0.666992 34.667 -4 59.334 -10 74.001s-16 22 -30 22c-16.667 -0.666992 -28.667 -8 -36 -22s-10.666 -35.667 -9.99902 -65c0 -18 0.833008 -31.5 2.5 -40.5s9.5 -21.833 23.5 -38.5
c10 -14 17.167 -26.333 21.5 -37s6.5 -21.667 6.5 -33c0 -22 -6.5 -39.5 -19.5 -52.5s-29.167 -19.5 -48.5 -19.5c-29.333 0 -52.166 11.333 -68.499 34s-23.5 53.334 -21.5 92.001z" />
    <glyph glyph-name="afii10051" unicode="&#x402;" horiz-adv-x="436" 
d="M306 700c22.667 0 41.833 -7.16602 57.5 -21.499s23.5 -33.5 23.5 -57.5s-8.5 -44.167 -25.5 -60.5s-38.5 -24.5 -64.5 -24.5c-12.667 0 -26 2 -40 6s-30.667 11 -50 21c-30 14 -54 16.167 -72 6.5s-31.333 -14.5 -40 -14.5c-13.333 0 -24.166 4.33301 -32.499 13
s-12.5 19.667 -12.5 33c0 25.333 15 45.333 45 60s66.667 17.334 110 8.00098c12.667 -3.33301 19.5 -4.83301 20.5 -4.5s12.833 8.16602 35.5 23.499c5.33301 3.33301 11.666 6.16602 18.999 8.49902s16 3.5 26 3.5zM102.999 116.001l20.9971 405
c0.666992 14.667 3.83398 25.334 9.50098 32.001s14.167 10 25.5 10s19.833 -4.33301 25.5 -13s8.83398 -20.334 9.50098 -35.001v-154c5.33301 32.667 15.666 57.5 30.999 74.5s33.333 25.5 54 25.5c15.333 0 29.5 -4.33301 42.5 -13s24.5 -21 34.5 -37
c12.667 -22 21.667 -49.333 27 -82s8 -87.667 8 -165c0 -89.333 -8 -159.5 -24 -210.5s-40.333 -89.833 -73 -116.5c-22.667 -17.333 -49.5 -28.333 -80.5 -33s-55.5 -0.333984 -73.5 12.999c-27.333 20.667 -36.833 47.5 -28.5 80.5s37.833 55.167 88.5 66.5
c36 9.33301 60.5 25.166 73.5 47.499s19.5 57.5 19.5 105.5v85c-0.666992 34.667 -4 59.334 -10 74.001s-16 22 -30 22c-16.667 -0.666992 -28.667 -8 -36 -22s-10.666 -35.667 -9.99902 -65c0 -18 0.833008 -31.5 2.5 -40.5s9.5 -21.833 23.5 -38.5
c10 -14 17.167 -26.333 21.5 -37s6.5 -21.667 6.5 -33c0 -22 -6.5 -39.5 -19.5 -52.5s-29.167 -19.5 -48.5 -19.5c-29.333 0 -52.166 11.333 -68.499 34s-23.5 53.334 -21.5 92.001z" />
    <glyph glyph-name="afii10052" horiz-adv-x="392" 
d="M128 699c4.66699 0 10.166 -0.334961 16.499 -1.00195s14.5 -1.66699 24.5 -3c11.333 -2 24.333 -4.5 39 -7.5s25.334 -4.5 32.001 -4.5c5.33301 -0.666992 10.5 -0.5 15.5 0.5s18.833 5.16699 41.5 12.5c4.66699 1.33301 8.5 2.33301 11.5 3s5.83301 1 8.5 1
c12.667 0 23.334 -4.66699 32.001 -14s13 -20.666 13 -33.999c0 -21.333 -8 -38.666 -24 -51.999s-38 -19.666 -66 -18.999c-6 0 -14.833 0.333008 -26.5 1s-20.167 1 -25.5 1c-12 -0.666992 -21.833 -1.83398 -29.5 -3.50098s-15.834 -5.5 -24.501 -11.5
c-20 -12 -34.333 -19.333 -43 -22s-17 -4 -25 -4c-18.667 -0.666992 -34.667 5.33301 -48 18s-20 30 -20 52c0 24 8.83301 44.5 26.5 61.5s41.5 25.5 71.5 25.5zM213.999 568.998c3.33301 0 6.33105 -0.330078 8.99805 -0.99707l8 -2c10.667 -5.33301 17 -12.5 19 -21.5
s-1 -24.833 -9 -47.5c-6 -16 -9.16699 -35.333 -9.5 -58s2.5 -49.334 8.5 -80.001c20.667 -114.667 30.834 -172 30.501 -172s-0.166016 -10 0.500977 -30c0 -49.333 -11.167 -89.5 -33.5 -120.5s-52.833 -46.5 -91.5 -46.5c-26 0 -46.667 7.66699 -62 23s-23 33.333 -23 54
c0 18 4 33.833 12 47.5s24 29.834 48 48.501c13.333 10.667 21.833 20 25.5 28s5.5 20.333 5.5 37c0 8.66699 -0.333008 18.167 -1 28.5s-2.66699 37.166 -6 80.499c-2 22.667 -3.5 40.167 -4.5 52.5s-1.16699 24.166 -0.5 35.499c0 43.333 6.33301 78.166 19 104.499
s31 39.5 55 39.5zM255.997 877.001c17.333 0 31.333 -6.16797 42 -18.501s16 -26.833 16 -43.5c-0.666992 -18.667 -9.66699 -34.5 -27 -47.5s-46 -23.5 -86 -31.5c-32 -6.66699 -54 -8.5 -66 -5.5s-17.667 11.167 -17 24.5c-0.666992 7.33301 1 13.333 5 18
s13.333 10 28 16c8 3.33301 14.667 7.33301 20 12s11.333 14 18 28c8 16.667 17.5 28.834 28.5 36.501s23.833 11.5 38.5 11.5z" />
    <glyph glyph-name="afii10052" unicode="&#x403;" horiz-adv-x="392" 
d="M128 699c4.66699 0 10.166 -0.334961 16.499 -1.00195s14.5 -1.66699 24.5 -3c11.333 -2 24.333 -4.5 39 -7.5s25.334 -4.5 32.001 -4.5c5.33301 -0.666992 10.5 -0.5 15.5 0.5s18.833 5.16699 41.5 12.5c4.66699 1.33301 8.5 2.33301 11.5 3s5.83301 1 8.5 1
c12.667 0 23.334 -4.66699 32.001 -14s13 -20.666 13 -33.999c0 -21.333 -8 -38.666 -24 -51.999s-38 -19.666 -66 -18.999c-6 0 -14.833 0.333008 -26.5 1s-20.167 1 -25.5 1c-12 -0.666992 -21.833 -1.83398 -29.5 -3.50098s-15.834 -5.5 -24.501 -11.5
c-20 -12 -34.333 -19.333 -43 -22s-17 -4 -25 -4c-18.667 -0.666992 -34.667 5.33301 -48 18s-20 30 -20 52c0 24 8.83301 44.5 26.5 61.5s41.5 25.5 71.5 25.5zM213.999 568.998c3.33301 0 6.33105 -0.330078 8.99805 -0.99707l8 -2c10.667 -5.33301 17 -12.5 19 -21.5
s-1 -24.833 -9 -47.5c-6 -16 -9.16699 -35.333 -9.5 -58s2.5 -49.334 8.5 -80.001c20.667 -114.667 30.834 -172 30.501 -172s-0.166016 -10 0.500977 -30c0 -49.333 -11.167 -89.5 -33.5 -120.5s-52.833 -46.5 -91.5 -46.5c-26 0 -46.667 7.66699 -62 23s-23 33.333 -23 54
c0 18 4 33.833 12 47.5s24 29.834 48 48.501c13.333 10.667 21.833 20 25.5 28s5.5 20.333 5.5 37c0 8.66699 -0.333008 18.167 -1 28.5s-2.66699 37.166 -6 80.499c-2 22.667 -3.5 40.167 -4.5 52.5s-1.16699 24.166 -0.5 35.499c0 43.333 6.33301 78.166 19 104.499
s31 39.5 55 39.5zM255.997 877.001c17.333 0 31.333 -6.16797 42 -18.501s16 -26.833 16 -43.5c-0.666992 -18.667 -9.66699 -34.5 -27 -47.5s-46 -23.5 -86 -31.5c-32 -6.66699 -54 -8.5 -66 -5.5s-17.667 11.167 -17 24.5c-0.666992 7.33301 1 13.333 5 18
s13.333 10 28 16c8 3.33301 14.667 7.33301 20 12s11.333 14 18 28c8 16.667 17.5 28.834 28.5 36.501s23.833 11.5 38.5 11.5z" />
    <glyph glyph-name="afii10061" horiz-adv-x="551" 
d="M276 323l0.00390625 -126.004c0 -74.667 -11.167 -127.834 -33.5 -159.501s-55.833 -47.5 -100.5 -47.5c-30 0.666992 -53.667 8.66699 -71 24s-26 35.666 -26 60.999c-0.666992 22.667 6.5 41.334 21.5 56.001s34.167 18 57.5 10
c11.333 -4.66699 20.166 -6.16699 26.499 -4.5s12.166 6.16699 17.499 13.5c4 6 6.66699 14.5 8 25.5s1 42.833 -1 95.5c-4.66699 112 -2.33398 183.667 6.99902 215s24 54.333 44 69c11.333 8.66699 22.833 13.167 34.5 13.5s21.167 -2.5 28.5 -8.5
c6 -6 9.5 -13.167 10.5 -21.5s-2.16699 -19.166 -9.5 -32.499c-8 -14 -13.333 -25.667 -16 -35s-4 -28.333 -4 -57v-17c15.333 2.66699 26.833 11 34.5 25s13.5 44.667 17.5 92c2.66699 36 7.16699 66 13.5 90s15.166 43.667 26.499 59c9.33301 12 19.833 21.167 31.5 27.5
s23.5 9.5 35.5 9.5c20.667 0 38.334 -6 53.001 -18s22.334 -27.667 23.001 -47c0 -10.667 -1.66699 -20.667 -5 -30s-17.333 -25.333 -42 -48c-15.333 -14 -23 -21.167 -23 -21.5s-13.667 -36.166 -41 -107.499c-6.66699 -16.667 -13.667 -28.667 -21 -36
s-16.333 -12.666 -27 -15.999c15.333 -6 28.166 -15 38.499 -27s19.166 -28.667 26.499 -50c5.33301 -18.667 9 -39.5 11 -62.5s4 -38.833 6 -47.5c1.33301 -7.33301 3.5 -13.333 6.5 -18s10.167 -11.334 21.5 -20.001c14 -12 24.667 -24.167 32 -36.5
s11 -26.166 11 -41.499c0 -36.667 -14.167 -62.167 -42.5 -76.5s-56.5 -12.166 -84.5 6.50098c-16 10 -27.667 24.333 -35 43s-11 49.334 -11 92.001v68c-0.666992 23.333 -2 42 -4 56s-5.33301 25.667 -10 35c-4.66699 6.66699 -10 12.167 -16 16.5s-12.667 7.5 -20 9.5z
M288.004 699.996c9.33301 0 17.166 -3.66699 23.499 -11s9.5 -16 9.5 -26c-0.666992 -10.667 -4.16699 -21.5 -10.5 -32.5s-16.166 -21.5 -29.499 -31.5c-17.333 -14 -37 -25 -59 -33s-42.333 -12 -61 -12c-28 0 -51.167 6.83301 -69.5 20.5s-27.5 31.5 -27.5 53.5
c0 20.667 7.5 37.834 22.5 51.501s34.5 20.5 58.5 20.5c7.33301 0 15 -1.16699 23 -3.5s17.667 -5.83301 29 -10.5c10.667 -5.33301 19.5 -8.33301 26.5 -9s20.5 4.66602 40.5 15.999c4 2 8 3.66699 12 5s8 2 12 2zM320.004 876.996c17.333 0 31.333 -6.16797 42 -18.501
s16 -26.833 16 -43.5c-0.666992 -18.667 -9.66699 -34.5 -27 -47.5s-46 -23.5 -86 -31.5c-32 -6.66699 -54 -8.5 -66 -5.5s-17.667 11.167 -17 24.5c-0.666992 7.33301 1 13.333 5 18s13.333 10 28 16c8 3.33301 14.667 7.33301 20 12s11.333 14 18 28
c8 16.667 17.5 28.834 28.5 36.501s23.833 11.5 38.5 11.5z" />
    <glyph glyph-name="afii10061" unicode="&#x40c;" horiz-adv-x="551" 
d="M276 323l0.00390625 -126.004c0 -74.667 -11.167 -127.834 -33.5 -159.501s-55.833 -47.5 -100.5 -47.5c-30 0.666992 -53.667 8.66699 -71 24s-26 35.666 -26 60.999c-0.666992 22.667 6.5 41.334 21.5 56.001s34.167 18 57.5 10
c11.333 -4.66699 20.166 -6.16699 26.499 -4.5s12.166 6.16699 17.499 13.5c4 6 6.66699 14.5 8 25.5s1 42.833 -1 95.5c-4.66699 112 -2.33398 183.667 6.99902 215s24 54.333 44 69c11.333 8.66699 22.833 13.167 34.5 13.5s21.167 -2.5 28.5 -8.5
c6 -6 9.5 -13.167 10.5 -21.5s-2.16699 -19.166 -9.5 -32.499c-8 -14 -13.333 -25.667 -16 -35s-4 -28.333 -4 -57v-17c15.333 2.66699 26.833 11 34.5 25s13.5 44.667 17.5 92c2.66699 36 7.16699 66 13.5 90s15.166 43.667 26.499 59c9.33301 12 19.833 21.167 31.5 27.5
s23.5 9.5 35.5 9.5c20.667 0 38.334 -6 53.001 -18s22.334 -27.667 23.001 -47c0 -10.667 -1.66699 -20.667 -5 -30s-17.333 -25.333 -42 -48c-15.333 -14 -23 -21.167 -23 -21.5s-13.667 -36.166 -41 -107.499c-6.66699 -16.667 -13.667 -28.667 -21 -36
s-16.333 -12.666 -27 -15.999c15.333 -6 28.166 -15 38.499 -27s19.166 -28.667 26.499 -50c5.33301 -18.667 9 -39.5 11 -62.5s4 -38.833 6 -47.5c1.33301 -7.33301 3.5 -13.333 6.5 -18s10.167 -11.334 21.5 -20.001c14 -12 24.667 -24.167 32 -36.5
s11 -26.166 11 -41.499c0 -36.667 -14.167 -62.167 -42.5 -76.5s-56.5 -12.166 -84.5 6.50098c-16 10 -27.667 24.333 -35 43s-11 49.334 -11 92.001v68c-0.666992 23.333 -2 42 -4 56s-5.33301 25.667 -10 35c-4.66699 6.66699 -10 12.167 -16 16.5s-12.667 7.5 -20 9.5z
M288.004 699.996c9.33301 0 17.166 -3.66699 23.499 -11s9.5 -16 9.5 -26c-0.666992 -10.667 -4.16699 -21.5 -10.5 -32.5s-16.166 -21.5 -29.499 -31.5c-17.333 -14 -37 -25 -59 -33s-42.333 -12 -61 -12c-28 0 -51.167 6.83301 -69.5 20.5s-27.5 31.5 -27.5 53.5
c0 20.667 7.5 37.834 22.5 51.501s34.5 20.5 58.5 20.5c7.33301 0 15 -1.16699 23 -3.5s17.667 -5.83301 29 -10.5c10.667 -5.33301 19.5 -8.33301 26.5 -9s20.5 4.66602 40.5 15.999c4 2 8 3.66699 12 5s8 2 12 2zM320.004 876.996c17.333 0 31.333 -6.16797 42 -18.501
s16 -26.833 16 -43.5c-0.666992 -18.667 -9.66699 -34.5 -27 -47.5s-46 -23.5 -86 -31.5c-32 -6.66699 -54 -8.5 -66 -5.5s-17.667 11.167 -17 24.5c-0.666992 7.33301 1 13.333 5 18s13.333 10 28 16c8 3.33301 14.667 7.33301 20 12s11.333 14 18 28
c8 16.667 17.5 28.834 28.5 36.501s23.833 11.5 38.5 11.5z" />
    <glyph glyph-name="afii10060" horiz-adv-x="521" 
d="M390 700c8 0 16 -1.16504 24 -3.49805s15.667 -5.5 23 -9.5c10.667 -7.33301 19 -16.5 25 -27.5s9 -23.833 9 -38.5c0 -24 -8.5 -44.167 -25.5 -60.5s-38.5 -24.5 -64.5 -24.5c-12.667 0 -26 2 -40 6s-30.667 11 -50 21c-30 14 -54 16.167 -72 6.5
s-31.333 -14.5 -40 -14.5c-13.333 0 -24.166 4.33301 -32.499 13s-12.5 19.667 -12.5 33c-0.666992 16 5.33301 30 18 42s29.667 20.667 51 26c14 3.33301 28.167 4.83301 42.5 4.5s28.833 -1.83301 43.5 -4.5c12.667 -3.33301 19.5 -4.83301 20.5 -4.5
s12.833 8.16602 35.5 23.499c5.33301 3.33301 11.666 6.16602 18.999 8.49902s16 3.5 26 3.5zM282 515.002l0.00195312 -153.996c5.33301 28.667 17.5 52.667 36.5 72s39.833 29 62.5 29c28 -0.666992 48.333 -15.667 61 -45s19 -81.333 19 -156
c0 -94.667 -11.833 -163.834 -35.5 -207.501s-55.5 -65.5 -95.5 -65.5c-20 0 -36.167 7.16699 -48.5 21.5s-18.5 31.166 -18.5 50.499c0 16 4 30.667 12 44s24.667 28.666 50 45.999c15.333 10 25.5 19.667 30.5 29s7.5 22 7.5 38v23c0 30.667 -8.66699 49.167 -26 55.5
s-30.666 2.5 -39.999 -11.5c-2.66699 -4 -5 -10.167 -7 -18.5s-4.33301 -20.166 -7 -35.499c-6.66699 -39.333 -11.334 -64.333 -14.001 -75s-5.66699 -21.667 -9 -33c-14 -44.667 -31.167 -77.667 -51.5 -99s-46.166 -32.333 -77.499 -33c-36 0 -60.833 16.5 -74.5 49.5
s-9.16699 63.5 13.5 91.5c3.33301 4 7.16602 7.83301 11.499 11.5s19.166 13.167 44.499 28.5c16 9.33301 28 19.5 36 30.5s15 25.833 21 44.5c3.33301 11.333 6.16602 24.666 8.49902 39.999s5.83301 51 10.5 107l10 128c0.666992 16 4 27 10 33s14.333 9 25 9
c11.333 0 20 -4.33301 26 -13s9 -20.334 9 -35.001z" />
    <glyph glyph-name="afii10060" unicode="&#x40b;" horiz-adv-x="521" 
d="M390 700c8 0 16 -1.16504 24 -3.49805s15.667 -5.5 23 -9.5c10.667 -7.33301 19 -16.5 25 -27.5s9 -23.833 9 -38.5c0 -24 -8.5 -44.167 -25.5 -60.5s-38.5 -24.5 -64.5 -24.5c-12.667 0 -26 2 -40 6s-30.667 11 -50 21c-30 14 -54 16.167 -72 6.5
s-31.333 -14.5 -40 -14.5c-13.333 0 -24.166 4.33301 -32.499 13s-12.5 19.667 -12.5 33c-0.666992 16 5.33301 30 18 42s29.667 20.667 51 26c14 3.33301 28.167 4.83301 42.5 4.5s28.833 -1.83301 43.5 -4.5c12.667 -3.33301 19.5 -4.83301 20.5 -4.5
s12.833 8.16602 35.5 23.499c5.33301 3.33301 11.666 6.16602 18.999 8.49902s16 3.5 26 3.5zM282 515.002l0.00195312 -153.996c5.33301 28.667 17.5 52.667 36.5 72s39.833 29 62.5 29c28 -0.666992 48.333 -15.667 61 -45s19 -81.333 19 -156
c0 -94.667 -11.833 -163.834 -35.5 -207.501s-55.5 -65.5 -95.5 -65.5c-20 0 -36.167 7.16699 -48.5 21.5s-18.5 31.166 -18.5 50.499c0 16 4 30.667 12 44s24.667 28.666 50 45.999c15.333 10 25.5 19.667 30.5 29s7.5 22 7.5 38v23c0 30.667 -8.66699 49.167 -26 55.5
s-30.666 2.5 -39.999 -11.5c-2.66699 -4 -5 -10.167 -7 -18.5s-4.33301 -20.166 -7 -35.499c-6.66699 -39.333 -11.334 -64.333 -14.001 -75s-5.66699 -21.667 -9 -33c-14 -44.667 -31.167 -77.667 -51.5 -99s-46.166 -32.333 -77.499 -33c-36 0 -60.833 16.5 -74.5 49.5
s-9.16699 63.5 13.5 91.5c3.33301 4 7.16602 7.83301 11.499 11.5s19.166 13.167 44.499 28.5c16 9.33301 28 19.5 36 30.5s15 25.833 21 44.5c3.33301 11.333 6.16602 24.666 8.49902 39.999s5.83301 51 10.5 107l10 128c0.666992 16 4 27 10 33s14.333 9 25 9
c11.333 0 20 -4.33301 26 -13s9 -20.334 9 -35.001z" />
    <glyph glyph-name="afii10145" horiz-adv-x="469" 
d="M99 105l0.00292969 366.005c-0.666992 15.333 -1.83398 27.166 -3.50098 35.499s-9.5 23.166 -23.5 44.499c-10.667 14.667 -17.834 27.334 -21.501 38.001s-5.5 21.334 -5.5 32.001c-0.666992 15.333 2.33301 29 9 41s15.667 21.333 27 28s24.666 10 39.999 10
s28 -3 38 -9c12.667 -8 22.167 -20 28.5 -36s9.5 -42.333 9.5 -79v-374c-0.666992 -13.333 -0.166992 -23.166 1.5 -29.499s4.16699 -10.833 7.5 -13.5c4 -4.66699 9.5 -6.66699 16.5 -6s13.5 3.66699 19.5 9c7.33301 6.66699 12.666 16.334 15.999 29.001s5 28 5 46v310
c0 26.667 1.5 48.667 4.5 66s8.16699 32 15.5 44c8 14.667 18.167 25.5 30.5 32.5s26.5 10.5 42.5 10.5c12.667 -0.666992 24.167 -4 34.5 -10s18.5 -14 24.5 -24c7.33301 -14 10.166 -30.833 8.49902 -50.5s-7.16699 -36.834 -16.5 -51.501
c-30 -46.667 -45.333 -72.334 -46 -77.001s-0.666992 -9.33398 0 -14.001v-255c-0.666992 -15.333 0 -26.833 2 -34.5s8 -18.834 18 -33.501c12 -19.333 20.167 -34.833 24.5 -46.5s6.83301 -23.834 7.5 -36.501c0 -23.333 -6.33301 -42.333 -19 -57s-29 -22 -49 -22
c-26.667 0 -47.5 9.16699 -62.5 27.5s-22.5 42.833 -22.5 73.5h-1c-4.66699 -24.667 -11.667 -44.667 -21 -60s-20.666 -26 -33.999 -32c-5.33301 -2 -10.666 -3.66699 -15.999 -5s-10.666 -2 -15.999 -2c-6 0 -11.833 0.666992 -17.5 2s-10.834 3.33301 -15.501 6
c-14 7.33301 -24.167 18.166 -30.5 32.499s-9.5 39.166 -9.5 74.499zM223.003 -17.9951c4.66699 2.66699 9.5 4.5 14.5 5.5s10.5 1.5 16.5 1.5c9.33301 0 16.833 -2.16699 22.5 -6.5s8.5 -10.5 8.5 -18.5c0 -2.66699 -0.5 -5.16699 -1.5 -7.5s-6.83301 -7.5 -17.5 -15.5
c-7.33301 -4.66699 -11.333 -10.167 -12 -16.5s4 -16.166 14 -29.499c11.333 -16.667 16.833 -31.834 16.5 -45.501s-5.83301 -25.834 -16.5 -36.501c-11.333 -10.667 -25.5 -15.834 -42.5 -15.501s-31.167 5.5 -42.5 15.5c-22.667 20.667 -29.5 50.334 -20.5 89.001
s29.167 65.334 60.5 80.001z" />
    <glyph glyph-name="afii10145" unicode="&#x40f;" horiz-adv-x="469" 
d="M99 105l0.00292969 366.005c-0.666992 15.333 -1.83398 27.166 -3.50098 35.499s-9.5 23.166 -23.5 44.499c-10.667 14.667 -17.834 27.334 -21.501 38.001s-5.5 21.334 -5.5 32.001c-0.666992 15.333 2.33301 29 9 41s15.667 21.333 27 28s24.666 10 39.999 10
s28 -3 38 -9c12.667 -8 22.167 -20 28.5 -36s9.5 -42.333 9.5 -79v-374c-0.666992 -13.333 -0.166992 -23.166 1.5 -29.499s4.16699 -10.833 7.5 -13.5c4 -4.66699 9.5 -6.66699 16.5 -6s13.5 3.66699 19.5 9c7.33301 6.66699 12.666 16.334 15.999 29.001s5 28 5 46v310
c0 26.667 1.5 48.667 4.5 66s8.16699 32 15.5 44c8 14.667 18.167 25.5 30.5 32.5s26.5 10.5 42.5 10.5c12.667 -0.666992 24.167 -4 34.5 -10s18.5 -14 24.5 -24c7.33301 -14 10.166 -30.833 8.49902 -50.5s-7.16699 -36.834 -16.5 -51.501
c-30 -46.667 -45.333 -72.334 -46 -77.001s-0.666992 -9.33398 0 -14.001v-255c-0.666992 -15.333 0 -26.833 2 -34.5s8 -18.834 18 -33.501c12 -19.333 20.167 -34.833 24.5 -46.5s6.83301 -23.834 7.5 -36.501c0 -23.333 -6.33301 -42.333 -19 -57s-29 -22 -49 -22
c-26.667 0 -47.5 9.16699 -62.5 27.5s-22.5 42.833 -22.5 73.5h-1c-4.66699 -24.667 -11.667 -44.667 -21 -60s-20.666 -26 -33.999 -32c-5.33301 -2 -10.666 -3.66699 -15.999 -5s-10.666 -2 -15.999 -2c-6 0 -11.833 0.666992 -17.5 2s-10.834 3.33301 -15.501 6
c-14 7.33301 -24.167 18.166 -30.5 32.499s-9.5 39.166 -9.5 74.499zM223.003 -17.9951c4.66699 2.66699 9.5 4.5 14.5 5.5s10.5 1.5 16.5 1.5c9.33301 0 16.833 -2.16699 22.5 -6.5s8.5 -10.5 8.5 -18.5c0 -2.66699 -0.5 -5.16699 -1.5 -7.5s-6.83301 -7.5 -17.5 -15.5
c-7.33301 -4.66699 -11.333 -10.167 -12 -16.5s4 -16.166 14 -29.499c11.333 -16.667 16.833 -31.834 16.5 -45.501s-5.83301 -25.834 -16.5 -36.501c-11.333 -10.667 -25.5 -15.834 -42.5 -15.501s-31.167 5.5 -42.5 15.5c-22.667 20.667 -29.5 50.334 -20.5 89.001
s29.167 65.334 60.5 80.001z" />
    <glyph glyph-name="afii10099" horiz-adv-x="389" 
d="M189 346c7.33301 28.667 19.3281 53.1641 35.9951 73.4971s36 30.5 58 30.5c19.333 0 33.5 -7.5 42.5 -22.5s13.5 -40.167 13.5 -75.5v-361c0 -49.333 -5 -88 -15 -116s-24 -48.667 -42 -62c-14.667 -10 -31.667 -15.167 -51 -15.5s-35.333 4.83398 -48 15.501
c-14.667 12.667 -22.5 29 -23.5 49s5.5 37.667 19.5 53c4.66699 6 14.667 14.333 30 25s26 21.334 32 32.001c3.33301 7.33301 5.83301 15.166 7.5 23.499s2.5 23.166 2.5 44.499v219c-0.666992 28 -2.66699 45.167 -6 51.5s-8.66602 9.5 -15.999 9.5
c-12.667 0 -22.667 -7.16699 -30 -21.5s-10.666 -34.833 -9.99902 -61.5v-68c-0.666992 -14 -0.5 -23.833 0.5 -29.5s2.83301 -12.5 5.5 -20.5c8.66699 -22.667 13.667 -37 15 -43s2 -11.667 2 -17c-0.666992 -20 -7.16699 -36.5 -19.5 -49.5s-29.166 -19.5 -50.499 -19.5
c-19.333 0.666992 -35 7 -47 19s-17.667 28 -17 48c0 9.33301 0.666992 17.833 2 25.5s4 15.834 8 24.501c4.66699 12 7.83398 21.833 9.50098 29.5s2.83398 16.5 3.50098 26.5v296c-7.33301 0 -12.5 -0.166992 -15.5 -0.5s-6.5 -0.5 -10.5 -0.5
c-9.33301 -0.666992 -15.833 2 -19.5 8s-5.5 15.667 -5.5 29c-0.666992 16 3 26.5 11 31.5s21.333 6.16699 40 3.5c-2.66699 20.667 -8.83398 37.334 -18.501 50.001s-14.5 27 -14.5 43c0 17.333 5 32.5 15 45.5s24 19.5 42 19.5c20 0 35.667 -8.33301 47 -25s17 -42 17 -76
v-44c2 -0.666992 3.83301 -1 5.5 -1s3.16699 0.333008 4.5 1c2.66699 0 7.5 0.833008 14.5 2.5s12.5 2.5 16.5 2.5c10 0 17.833 -3.66699 23.5 -11s8.5 -18.666 8.5 -33.999c0 -16 -3 -27.833 -9 -35.5s-14.667 -11.5 -26 -11.5h-1l-19 2h-6.5
c-2.33301 0 -6.16602 0.333008 -11.499 1v-113z" />
    <glyph glyph-name="afii10099" unicode="&#x452;" horiz-adv-x="389" 
d="M189 346c7.33301 28.667 19.3281 53.1641 35.9951 73.4971s36 30.5 58 30.5c19.333 0 33.5 -7.5 42.5 -22.5s13.5 -40.167 13.5 -75.5v-361c0 -49.333 -5 -88 -15 -116s-24 -48.667 -42 -62c-14.667 -10 -31.667 -15.167 -51 -15.5s-35.333 4.83398 -48 15.501
c-14.667 12.667 -22.5 29 -23.5 49s5.5 37.667 19.5 53c4.66699 6 14.667 14.333 30 25s26 21.334 32 32.001c3.33301 7.33301 5.83301 15.166 7.5 23.499s2.5 23.166 2.5 44.499v219c-0.666992 28 -2.66699 45.167 -6 51.5s-8.66602 9.5 -15.999 9.5
c-12.667 0 -22.667 -7.16699 -30 -21.5s-10.666 -34.833 -9.99902 -61.5v-68c-0.666992 -14 -0.5 -23.833 0.5 -29.5s2.83301 -12.5 5.5 -20.5c8.66699 -22.667 13.667 -37 15 -43s2 -11.667 2 -17c-0.666992 -20 -7.16699 -36.5 -19.5 -49.5s-29.166 -19.5 -50.499 -19.5
c-19.333 0.666992 -35 7 -47 19s-17.667 28 -17 48c0 9.33301 0.666992 17.833 2 25.5s4 15.834 8 24.501c4.66699 12 7.83398 21.833 9.50098 29.5s2.83398 16.5 3.50098 26.5v296c-7.33301 0 -12.5 -0.166992 -15.5 -0.5s-6.5 -0.5 -10.5 -0.5
c-9.33301 -0.666992 -15.833 2 -19.5 8s-5.5 15.667 -5.5 29c-0.666992 16 3 26.5 11 31.5s21.333 6.16699 40 3.5c-2.66699 20.667 -8.83398 37.334 -18.501 50.001s-14.5 27 -14.5 43c0 17.333 5 32.5 15 45.5s24 19.5 42 19.5c20 0 35.667 -8.33301 47 -25s17 -42 17 -76
v-44c2 -0.666992 3.83301 -1 5.5 -1s3.16699 0.333008 4.5 1c2.66699 0 7.5 0.833008 14.5 2.5s12.5 2.5 16.5 2.5c10 0 17.833 -3.66699 23.5 -11s8.5 -18.666 8.5 -33.999c0 -16 -3 -27.833 -9 -35.5s-14.667 -11.5 -26 -11.5h-1l-19 2h-6.5
c-2.33301 0 -6.16602 0.333008 -11.499 1v-113z" />
    <glyph glyph-name="afii10109" horiz-adv-x="331" 
d="M46 163l-0.00488281 337.994c-0.666992 24 -1.83398 38.833 -3.50098 44.5s-5.5 12.834 -11.5 21.501c-9.33301 13.333 -15.166 23.833 -17.499 31.5s-3.5 15.834 -3.5 24.501c0 18.667 5.66699 34.167 17 46.5s26 18.5 44 18.5c22 0 37.833 -8.66699 47.5 -26
s14.834 -44.333 15.501 -81v-276c6.66699 1.33301 12.667 8.5 18 21.5s11 35.167 17 66.5c6 32.667 15.5 56.834 28.5 72.501s29.5 23.834 49.5 24.501c16.667 0 30.667 -5.66699 42 -17s17 -25 17 -41c0 -12.667 -2.83301 -24 -8.5 -34s-13.167 -19.333 -22.5 -28
c-20 -17.333 -29.833 -26 -29.5 -26s-5.16699 -9.66699 -16.5 -29c-5.33301 -9.33301 -10.166 -16.5 -14.499 -21.5s-9.16602 -9.5 -14.499 -13.5c22 -12.667 37.333 -37.667 46 -75s17.667 -63 27 -77l37 -62v-12c0 -18.667 -6 -34 -18 -46s-27.333 -18 -46 -18
c-20.667 0 -37.167 7.33301 -49.5 22s-18.5 34.334 -18.5 59.001c0 4.66699 0.333008 11.834 1 21.501s1 17.167 1 22.5c0 44 -4 75 -12 93s-19.333 26.667 -34 26v-65c0 -14 0.333008 -23.833 1 -29.5s2.33398 -12.5 5.00098 -20.5c8.66699 -22.667 13.667 -37 15 -43
s2 -11.667 2 -17c-0.666992 -20.667 -7.16699 -37.334 -19.5 -50.001s-28.166 -19 -47.499 -19c-18.667 0 -34.5 5.83301 -47.5 17.5s-19.5 28.167 -19.5 49.5c0 8.66699 0.666992 16.834 2 24.501s4 16.167 8 25.5c4.66699 12 8 21.833 10 29.5s3 16.5 3 26.5z
M292.995 702.994c10.667 0 20.1699 -2.33301 28.5029 -7s15.166 -11 20.499 -19c6.66699 -10.667 9.5 -22.5 8.5 -35.5s-5.16699 -24.167 -12.5 -33.5c-8 -10 -20.5 -19 -37.5 -27s-37.833 -14.333 -62.5 -19c-17.333 -4 -32.333 -6.16699 -45 -6.5
s-21.334 1.16699 -26.001 4.5c-4 2 -7 5 -9 9s-3 8.66699 -3 14c0 6.66699 1.66699 12.167 5 16.5s12.666 9.5 27.999 15.5c8.66699 3.33301 15.5 7.5 20.5 12.5s10.167 12.5 15.5 22.5c10.667 21.333 21.167 35.5 31.5 42.5s22.833 10.5 37.5 10.5z" />
    <glyph glyph-name="afii10109" unicode="&#x45c;" horiz-adv-x="331" 
d="M46 163l-0.00488281 337.994c-0.666992 24 -1.83398 38.833 -3.50098 44.5s-5.5 12.834 -11.5 21.501c-9.33301 13.333 -15.166 23.833 -17.499 31.5s-3.5 15.834 -3.5 24.501c0 18.667 5.66699 34.167 17 46.5s26 18.5 44 18.5c22 0 37.833 -8.66699 47.5 -26
s14.834 -44.333 15.501 -81v-276c6.66699 1.33301 12.667 8.5 18 21.5s11 35.167 17 66.5c6 32.667 15.5 56.834 28.5 72.501s29.5 23.834 49.5 24.501c16.667 0 30.667 -5.66699 42 -17s17 -25 17 -41c0 -12.667 -2.83301 -24 -8.5 -34s-13.167 -19.333 -22.5 -28
c-20 -17.333 -29.833 -26 -29.5 -26s-5.16699 -9.66699 -16.5 -29c-5.33301 -9.33301 -10.166 -16.5 -14.499 -21.5s-9.16602 -9.5 -14.499 -13.5c22 -12.667 37.333 -37.667 46 -75s17.667 -63 27 -77l37 -62v-12c0 -18.667 -6 -34 -18 -46s-27.333 -18 -46 -18
c-20.667 0 -37.167 7.33301 -49.5 22s-18.5 34.334 -18.5 59.001c0 4.66699 0.333008 11.834 1 21.501s1 17.167 1 22.5c0 44 -4 75 -12 93s-19.333 26.667 -34 26v-65c0 -14 0.333008 -23.833 1 -29.5s2.33398 -12.5 5.00098 -20.5c8.66699 -22.667 13.667 -37 15 -43
s2 -11.667 2 -17c-0.666992 -20.667 -7.16699 -37.334 -19.5 -50.001s-28.166 -19 -47.499 -19c-18.667 0 -34.5 5.83301 -47.5 17.5s-19.5 28.167 -19.5 49.5c0 8.66699 0.666992 16.834 2 24.501s4 16.167 8 25.5c4.66699 12 8 21.833 10 29.5s3 16.5 3 26.5z
M292.995 702.994c10.667 0 20.1699 -2.33301 28.5029 -7s15.166 -11 20.499 -19c6.66699 -10.667 9.5 -22.5 8.5 -35.5s-5.16699 -24.167 -12.5 -33.5c-8 -10 -20.5 -19 -37.5 -27s-37.833 -14.333 -62.5 -19c-17.333 -4 -32.333 -6.16699 -45 -6.5
s-21.334 1.16699 -26.001 4.5c-4 2 -7 5 -9 9s-3 8.66699 -3 14c0 6.66699 1.66699 12.167 5 16.5s12.666 9.5 27.999 15.5c8.66699 3.33301 15.5 7.5 20.5 12.5s10.167 12.5 15.5 22.5c10.667 21.333 21.167 35.5 31.5 42.5s22.833 10.5 37.5 10.5z" />
    <glyph glyph-name="afii10108" horiz-adv-x="392" 
d="M189 237v-67.9971c0 -14 0.333008 -23.833 1 -29.5s2.33398 -12.5 5.00098 -20.5c8.66699 -22.667 13.5 -37 14.5 -43s1.83301 -11.667 2.5 -17c-0.666992 -20.667 -7.16699 -37.334 -19.5 -50.001s-28.166 -19 -47.499 -19c-18.667 0 -34.5 5.83301 -47.5 17.5
s-19.5 28.167 -19.5 49.5c0 8.66699 0.666992 16.834 2 24.501s4 16.167 8 25.5c4.66699 12 7.83398 21.833 9.50098 29.5s2.83398 16.5 3.50098 26.5v296c-7.33301 0 -12.5 -0.166992 -15.5 -0.5s-6.5 -0.5 -10.5 -0.5c-9.33301 -0.666992 -15.833 2 -19.5 8
s-5.5 15.667 -5.5 29c-0.666992 16 3 26.5 11 31.5s21.333 6.16699 40 3.5c-2.66699 20.667 -8.83398 37.334 -18.501 50.001s-14.5 27 -14.5 43c0 17.333 5 32.5 15 45.5s24 19.5 42 19.5c20 0 35.667 -8.33301 47 -25s17 -42 17 -76v-44c2 -0.666992 3.83301 -1 5.5 -1
s3.16699 0.333008 4.5 1c2.66699 0 7.5 0.833008 14.5 2.5s12.5 2.5 16.5 2.5c10 -0.666992 17.833 -4.66699 23.5 -12s8.5 -18.333 8.5 -33c0 -16.667 -3 -28.667 -9 -36s-15 -11 -27 -11c-5.33301 0 -11.166 0.166992 -17.499 0.5s-12.833 1.16602 -19.5 2.49902v-113
c7.33301 28.667 19.333 53.167 36 73.5s36 30.5 58 30.5c19.333 0 33.5 -7.5 42.5 -22.5s13.5 -40.167 13.5 -75.5v-166c0 -20.667 0.666992 -33.834 2 -39.501s4.33301 -12.834 9 -21.501c9.33301 -17.333 15.166 -30.333 17.499 -39s3.83301 -17.334 4.5 -26.001
c-0.666992 -21.333 -6.83398 -38.166 -18.501 -50.499s-26.834 -18.833 -45.501 -19.5c-20 0.666992 -35.333 8.66699 -46 24s-16 37 -16 65v30.5c0 10.333 0.666992 20.5 2 30.5c1.33301 27.333 2.16602 42.166 2.49902 44.499s0.5 4.5 0.5 6.5v68
c0 28 -1.83301 45.167 -5.5 51.5s-9.16699 9.5 -16.5 9.5c-12 0 -21.667 -7.5 -29 -22.5s-11 -35.167 -11 -60.5z" />
    <glyph glyph-name="afii10108" unicode="&#x45b;" horiz-adv-x="392" 
d="M189 237v-67.9971c0 -14 0.333008 -23.833 1 -29.5s2.33398 -12.5 5.00098 -20.5c8.66699 -22.667 13.5 -37 14.5 -43s1.83301 -11.667 2.5 -17c-0.666992 -20.667 -7.16699 -37.334 -19.5 -50.001s-28.166 -19 -47.499 -19c-18.667 0 -34.5 5.83301 -47.5 17.5
s-19.5 28.167 -19.5 49.5c0 8.66699 0.666992 16.834 2 24.501s4 16.167 8 25.5c4.66699 12 7.83398 21.833 9.50098 29.5s2.83398 16.5 3.50098 26.5v296c-7.33301 0 -12.5 -0.166992 -15.5 -0.5s-6.5 -0.5 -10.5 -0.5c-9.33301 -0.666992 -15.833 2 -19.5 8
s-5.5 15.667 -5.5 29c-0.666992 16 3 26.5 11 31.5s21.333 6.16699 40 3.5c-2.66699 20.667 -8.83398 37.334 -18.501 50.001s-14.5 27 -14.5 43c0 17.333 5 32.5 15 45.5s24 19.5 42 19.5c20 0 35.667 -8.33301 47 -25s17 -42 17 -76v-44c2 -0.666992 3.83301 -1 5.5 -1
s3.16699 0.333008 4.5 1c2.66699 0 7.5 0.833008 14.5 2.5s12.5 2.5 16.5 2.5c10 -0.666992 17.833 -4.66699 23.5 -12s8.5 -18.333 8.5 -33c0 -16.667 -3 -28.667 -9 -36s-15 -11 -27 -11c-5.33301 0 -11.166 0.166992 -17.499 0.5s-12.833 1.16602 -19.5 2.49902v-113
c7.33301 28.667 19.333 53.167 36 73.5s36 30.5 58 30.5c19.333 0 33.5 -7.5 42.5 -22.5s13.5 -40.167 13.5 -75.5v-166c0 -20.667 0.666992 -33.834 2 -39.501s4.33301 -12.834 9 -21.501c9.33301 -17.333 15.166 -30.333 17.499 -39s3.83301 -17.334 4.5 -26.001
c-0.666992 -21.333 -6.83398 -38.166 -18.501 -50.499s-26.834 -18.833 -45.501 -19.5c-20 0.666992 -35.333 8.66699 -46 24s-16 37 -16 65v30.5c0 10.333 0.666992 20.5 2 30.5c1.33301 27.333 2.16602 42.166 2.49902 44.499s0.5 4.5 0.5 6.5v68
c0 28 -1.83301 45.167 -5.5 51.5s-9.16699 9.5 -16.5 9.5c-12 0 -21.667 -7.5 -29 -22.5s-11 -35.167 -11 -60.5z" />
    <glyph glyph-name="afii10062" unicode="&#xa1;" horiz-adv-x="479" 
d="M246 234l1.99512 1.00488c6 178.667 9.33301 274.334 10 287.001s1.33398 23.667 2.00098 33c2 37.333 7.33301 66.166 16 86.499s21.334 35.833 38.001 46.5c6 4 12.833 7 20.5 9s15.834 3 24.501 3c7.33301 0 14.666 -1.33301 21.999 -4s14 -6.33398 20 -11.001
c16.667 -14.667 25.334 -35.167 26.001 -61.5s-5.66602 -57.833 -18.999 -94.5c-21.333 -56.667 -33.833 -92.834 -37.5 -108.501s-6.83398 -35.167 -9.50098 -58.5c-10 -79.333 -15.833 -156.666 -17.5 -231.999s-5.5 -131.333 -11.5 -168
c-10 -56.667 -29.333 -97.334 -58 -122.001s-66.334 -37 -113.001 -37c-31.333 0 -56.333 8 -75 24s-28 38 -28 66c0 24.667 7.5 45.167 22.5 61.5s32.5 24.166 52.5 23.499c2.66699 0 5.66699 -0.166992 9 -0.5s8.66602 -1.83301 15.999 -4.5
c6.66699 -2 10.834 -3.16699 12.501 -3.5s3.5 -0.5 5.5 -0.5c15.333 0.666992 27.5 9.33398 36.5 26.001s17.167 59.334 24.5 128.001c-30 10.667 -53.167 30.667 -69.5 60s-27.5 67.666 -33.5 114.999c-13.333 95.333 -20 142.666 -20 141.999s-0.333008 0 -1 2
c-1.33301 7.33301 -3.16602 14 -5.49902 20s-17.166 34.667 -44.499 86c-22.667 40 -29 75.333 -19 106s33.333 46 70 46c23.333 -0.666992 42.5 -9.33398 57.5 -26.001s25.833 -40 32.5 -70c2.66699 -14 5 -31.833 7 -53.5s5 -64.5 9 -128.5
c5.33301 -100.667 9.33301 -155.334 12 -164.001s7.33398 -16.667 14.001 -24zM206.995 856.005c2.66699 0 5.50488 -0.5 8.50488 -1.5s6.16699 -1.83301 9.5 -2.5c5.33301 -3.33301 9.66602 -7 12.999 -11s6 -10.333 8 -19
c1.33301 -8.66699 3.16602 -13.834 5.49902 -15.501s5.83301 -2.5 10.5 -2.5c5.33301 0 9.83301 1.33301 13.5 4s6.5 6.66699 8.5 12c5.33301 16 8.66602 24.5 9.99902 25.5s3 2.16699 5 3.5c4.66699 2.66699 10.834 3.33398 18.501 2.00098s13.5 -4 17.5 -8
c2.66699 -4.66699 4.16699 -11.5 4.5 -20.5s-0.833984 -17.833 -3.50098 -26.5c-5.33301 -16 -14.333 -29.5 -27 -40.5s-27 -18.5 -43 -22.5c-12.667 -3.33301 -26.334 -4.83301 -41.001 -4.5s-27.334 3.16602 -38.001 8.49902c-23.333 10 -36.5 25.833 -39.5 47.5
s2.5 39.834 16.5 54.501c5.33301 5.33301 11.833 9.5 19.5 12.5s15.5 4.5 23.5 4.5z" />
    <glyph glyph-name="afii10062" unicode="&#x40e;" horiz-adv-x="479" 
d="M246 234l1.99512 1.00488c6 178.667 9.33301 274.334 10 287.001s1.33398 23.667 2.00098 33c2 37.333 7.33301 66.166 16 86.499s21.334 35.833 38.001 46.5c6 4 12.833 7 20.5 9s15.834 3 24.501 3c7.33301 0 14.666 -1.33301 21.999 -4s14 -6.33398 20 -11.001
c16.667 -14.667 25.334 -35.167 26.001 -61.5s-5.66602 -57.833 -18.999 -94.5c-21.333 -56.667 -33.833 -92.834 -37.5 -108.501s-6.83398 -35.167 -9.50098 -58.5c-10 -79.333 -15.833 -156.666 -17.5 -231.999s-5.5 -131.333 -11.5 -168
c-10 -56.667 -29.333 -97.334 -58 -122.001s-66.334 -37 -113.001 -37c-31.333 0 -56.333 8 -75 24s-28 38 -28 66c0 24.667 7.5 45.167 22.5 61.5s32.5 24.166 52.5 23.499c2.66699 0 5.66699 -0.166992 9 -0.5s8.66602 -1.83301 15.999 -4.5
c6.66699 -2 10.834 -3.16699 12.501 -3.5s3.5 -0.5 5.5 -0.5c15.333 0.666992 27.5 9.33398 36.5 26.001s17.167 59.334 24.5 128.001c-30 10.667 -53.167 30.667 -69.5 60s-27.5 67.666 -33.5 114.999c-13.333 95.333 -20 142.666 -20 141.999s-0.333008 0 -1 2
c-1.33301 7.33301 -3.16602 14 -5.49902 20s-17.166 34.667 -44.499 86c-22.667 40 -29 75.333 -19 106s33.333 46 70 46c23.333 -0.666992 42.5 -9.33398 57.5 -26.001s25.833 -40 32.5 -70c2.66699 -14 5 -31.833 7 -53.5s5 -64.5 9 -128.5
c5.33301 -100.667 9.33301 -155.334 12 -164.001s7.33398 -16.667 14.001 -24zM206.995 856.005c2.66699 0 5.50488 -0.5 8.50488 -1.5s6.16699 -1.83301 9.5 -2.5c5.33301 -3.33301 9.66602 -7 12.999 -11s6 -10.333 8 -19
c1.33301 -8.66699 3.16602 -13.834 5.49902 -15.501s5.83301 -2.5 10.5 -2.5c5.33301 0 9.83301 1.33301 13.5 4s6.5 6.66699 8.5 12c5.33301 16 8.66602 24.5 9.99902 25.5s3 2.16699 5 3.5c4.66699 2.66699 10.834 3.33398 18.501 2.00098s13.5 -4 17.5 -8
c2.66699 -4.66699 4.16699 -11.5 4.5 -20.5s-0.833984 -17.833 -3.50098 -26.5c-5.33301 -16 -14.333 -29.5 -27 -40.5s-27 -18.5 -43 -22.5c-12.667 -3.33301 -26.334 -4.83301 -41.001 -4.5s-27.334 3.16602 -38.001 8.49902c-23.333 10 -36.5 25.833 -39.5 47.5
s2.5 39.834 16.5 54.501c5.33301 5.33301 11.833 9.5 19.5 12.5s15.5 4.5 23.5 4.5z" />
    <glyph glyph-name="afii10110" unicode="&#xa2;" horiz-adv-x="334" 
d="M104 156l-27.9971 137.999c-1.33301 6 -3.33301 11.833 -6 17.5s-14.334 19.167 -35.001 40.5c-10.667 10 -18.834 21.333 -24.501 34s-8.5 25.334 -8.5 38.001c0 18 5.33301 33.5 16 46.5s25.667 19.5 45 19.5c13.333 0 25.5 -3 36.5 -9s20.5 -15.333 28.5 -28
c4 -7.33301 7.83301 -16.333 11.5 -27s9.83398 -55.334 18.501 -134.001l7 -64c0.666992 24 2.5 50.333 5.5 79s6.83301 53 11.5 73c6 28.667 14.167 51.167 24.5 67.5s22.833 28.166 37.5 35.499c20 10 38.833 9.66699 56.5 -1s26.834 -28.334 27.501 -53.001
c0 -8.66699 -1.16699 -16.667 -3.5 -24s-16.833 -26.666 -43.5 -57.999c-8 -9.33301 -14.333 -19.333 -19 -30s-17.334 -88.667 -38.001 -234c-13.333 -91.333 -26.5 -154.666 -39.5 -189.999s-29.5 -60.666 -49.5 -75.999c-13.333 -9.33301 -29.166 -15.333 -47.499 -18
s-35.166 -2 -50.499 2c-16 4.66699 -28.333 13 -37 25s-13.334 27 -14.001 45c0 20.667 7.16699 37.167 21.5 49.5s32.166 18.166 53.499 17.499c21.333 0 34.666 2.83301 39.999 8.5s10 13.834 14 24.501c4.66699 16 6.16699 39.833 4.5 71.5s-6.83398 69.5 -15.501 113.5z
M149.003 636.999c2.66699 0 5.50488 -0.5 8.50488 -1.5s6.16699 -1.83301 9.5 -2.5c5.33301 -3.33301 9.66602 -7 12.999 -11s6 -10.333 8 -19c1.33301 -8.66699 3.16602 -13.834 5.49902 -15.501s5.83301 -2.5 10.5 -2.5c5.33301 0 9.83301 1.33301 13.5 4
s6.5 6.66699 8.5 12c5.33301 16 8.66602 24.5 9.99902 25.5s3 2.16699 5 3.5c4.66699 2.66699 10.834 3.33398 18.501 2.00098s13.5 -4 17.5 -8c2.66699 -4.66699 4.16699 -11.5 4.5 -20.5s-0.833984 -17.833 -3.50098 -26.5c-5.33301 -16 -14.333 -29.5 -27 -40.5
s-27 -18.5 -43 -22.5c-12.667 -3.33301 -26.334 -4.83301 -41.001 -4.5s-27.334 3.16602 -38.001 8.49902c-23.333 10 -36.5 25.833 -39.5 47.5s2.5 39.834 16.5 54.501c5.33301 5.33301 11.833 9.5 19.5 12.5s15.5 4.5 23.5 4.5z" />
    <glyph glyph-name="afii10110" unicode="&#x45e;" horiz-adv-x="334" 
d="M104 156l-27.9971 137.999c-1.33301 6 -3.33301 11.833 -6 17.5s-14.334 19.167 -35.001 40.5c-10.667 10 -18.834 21.333 -24.501 34s-8.5 25.334 -8.5 38.001c0 18 5.33301 33.5 16 46.5s25.667 19.5 45 19.5c13.333 0 25.5 -3 36.5 -9s20.5 -15.333 28.5 -28
c4 -7.33301 7.83301 -16.333 11.5 -27s9.83398 -55.334 18.501 -134.001l7 -64c0.666992 24 2.5 50.333 5.5 79s6.83301 53 11.5 73c6 28.667 14.167 51.167 24.5 67.5s22.833 28.166 37.5 35.499c20 10 38.833 9.66699 56.5 -1s26.834 -28.334 27.501 -53.001
c0 -8.66699 -1.16699 -16.667 -3.5 -24s-16.833 -26.666 -43.5 -57.999c-8 -9.33301 -14.333 -19.333 -19 -30s-17.334 -88.667 -38.001 -234c-13.333 -91.333 -26.5 -154.666 -39.5 -189.999s-29.5 -60.666 -49.5 -75.999c-13.333 -9.33301 -29.166 -15.333 -47.499 -18
s-35.166 -2 -50.499 2c-16 4.66699 -28.333 13 -37 25s-13.334 27 -14.001 45c0 20.667 7.16699 37.167 21.5 49.5s32.166 18.166 53.499 17.499c21.333 0 34.666 2.83301 39.999 8.5s10 13.834 14 24.501c4.66699 16 6.16699 39.833 4.5 71.5s-6.83398 69.5 -15.501 113.5z
M149.003 636.999c2.66699 0 5.50488 -0.5 8.50488 -1.5s6.16699 -1.83301 9.5 -2.5c5.33301 -3.33301 9.66602 -7 12.999 -11s6 -10.333 8 -19c1.33301 -8.66699 3.16602 -13.834 5.49902 -15.501s5.83301 -2.5 10.5 -2.5c5.33301 0 9.83301 1.33301 13.5 4
s6.5 6.66699 8.5 12c5.33301 16 8.66602 24.5 9.99902 25.5s3 2.16699 5 3.5c4.66699 2.66699 10.834 3.33398 18.501 2.00098s13.5 -4 17.5 -8c2.66699 -4.66699 4.16699 -11.5 4.5 -20.5s-0.833984 -17.833 -3.50098 -26.5c-5.33301 -16 -14.333 -29.5 -27 -40.5
s-27 -18.5 -43 -22.5c-12.667 -3.33301 -26.334 -4.83301 -41.001 -4.5s-27.334 3.16602 -38.001 8.49902c-23.333 10 -36.5 25.833 -39.5 47.5s2.5 39.834 16.5 54.501c5.33301 5.33301 11.833 9.5 19.5 12.5s15.5 4.5 23.5 4.5z" />
    <glyph glyph-name="afii10057" unicode="&#xa3;" horiz-adv-x="327" 
d="M140 -198c-23.333 0 -41.666 7.66895 -54.999 23.002s-20 33.666 -20 54.999v10.5c0 3.66699 20.333 45.5 61 125.5c10.667 21.333 18.834 48.333 24.501 81s8.5 76.667 8.5 132c0 20 -0.333008 50.167 -1 90.5s-1 70.833 -1 91.5c0 44.667 3.33301 77.5 10 98.5
s17 36.833 31 47.5c10 7.33301 20.5 11.166 31.5 11.499s20.167 -2.16699 27.5 -7.5c6 -6 10 -12.667 12 -20s-1.33301 -22 -10 -44c-6.66699 -16.667 -10.167 -39.167 -10.5 -67.5s1.5 -68.833 5.5 -121.5c9.33301 -138.667 14.166 -208 14.499 -208s0.5 -8.66699 0.5 -26
c0 -90.667 -6.5 -153.5 -19.5 -188.5s-31.833 -59.167 -56.5 -72.5c-7.33301 -3.33301 -15.333 -6 -24 -8s-18.334 -3 -29.001 -3zM244 701.002c8 -0.666992 15.4971 -4.49902 22.4971 -11.499s10.5 -16.167 10.5 -27.5c0 -10.667 -3.5 -21.5 -10.5 -32.5
s-16.833 -21.5 -29.5 -31.5c-18 -14 -37.667 -25 -59 -33s-41 -12 -59 -12c-29.333 0 -53.166 6.83301 -71.499 20.5s-27.5 31.5 -27.5 53.5c0 20 6.66699 37.167 20 51.5s31 21.5 53 21.5c8.66699 -0.666992 17.834 -2 27.501 -4s20.5 -5.33301 32.5 -10
c10.667 -5.33301 19.5 -8.33301 26.5 -9s20.5 4.66602 40.5 15.999c4.66699 2.66699 8.83398 4.66699 12.501 6s7.5 2 11.5 2z" />
    <glyph glyph-name="afii10057" unicode="&#x408;" horiz-adv-x="327" 
d="M140 -198c-23.333 0 -41.666 7.66895 -54.999 23.002s-20 33.666 -20 54.999v10.5c0 3.66699 20.333 45.5 61 125.5c10.667 21.333 18.834 48.333 24.501 81s8.5 76.667 8.5 132c0 20 -0.333008 50.167 -1 90.5s-1 70.833 -1 91.5c0 44.667 3.33301 77.5 10 98.5
s17 36.833 31 47.5c10 7.33301 20.5 11.166 31.5 11.499s20.167 -2.16699 27.5 -7.5c6 -6 10 -12.667 12 -20s-1.33301 -22 -10 -44c-6.66699 -16.667 -10.167 -39.167 -10.5 -67.5s1.5 -68.833 5.5 -121.5c9.33301 -138.667 14.166 -208 14.499 -208s0.5 -8.66699 0.5 -26
c0 -90.667 -6.5 -153.5 -19.5 -188.5s-31.833 -59.167 -56.5 -72.5c-7.33301 -3.33301 -15.333 -6 -24 -8s-18.334 -3 -29.001 -3zM244 701.002c8 -0.666992 15.4971 -4.49902 22.4971 -11.499s10.5 -16.167 10.5 -27.5c0 -10.667 -3.5 -21.5 -10.5 -32.5
s-16.833 -21.5 -29.5 -31.5c-18 -14 -37.667 -25 -59 -33s-41 -12 -59 -12c-29.333 0 -53.166 6.83301 -71.499 20.5s-27.5 31.5 -27.5 53.5c0 20 6.66699 37.167 20 51.5s31 21.5 53 21.5c8.66699 -0.666992 17.834 -2 27.501 -4s20.5 -5.33301 32.5 -10
c10.667 -5.33301 19.5 -8.33301 26.5 -9s20.5 4.66602 40.5 15.999c4.66699 2.66699 8.83398 4.66699 12.501 6s7.5 2 11.5 2z" />
    <glyph glyph-name="CyrHardG" unicode="&#xa5;" 
d="M128 700c4.66699 0 10.002 -0.332031 16.002 -0.999023s14.333 -1.66699 25 -3c12 -2 25.333 -4.66699 40 -8s25 -5 31 -5c9.33301 -0.666992 20.333 0.5 33 3.5s20.667 6.16699 24 9.5c2.66699 2 6 9.83301 10 23.5s12.667 20.5 26 20.5c10 0 17.833 -3.5 23.5 -10.5
s8.5 -17.167 8.5 -30.5c0 -43.333 -6.83301 -73.833 -20.5 -91.5s-37.834 -26.5 -72.501 -26.5c-6 0 -14.833 0.333008 -26.5 1s-20.167 1 -25.5 1c-12 -0.666992 -21.833 -1.83398 -29.5 -3.50098s-15.834 -5.5 -24.501 -11.5c-20 -12 -34.333 -19.5 -43 -22.5
s-17 -4.16699 -25 -3.5c-18.667 0 -34.667 6.16699 -48 18.5s-20 29.5 -20 51.5c0 23.333 8.83301 43.833 26.5 61.5s41.5 26.5 71.5 26.5zM214.002 569.001c3.33301 0 6.33301 -0.330078 9 -0.99707l8 -2c10.667 -5.33301 17 -12.5 19 -21.5s-1 -24.833 -9 -47.5
c-12 -31.333 -11.667 -79.5 1 -144.5s19.334 -98.833 20.001 -101.5c13.333 -82.667 9.5 -146.834 -11.5 -192.501s-55.833 -68.5 -104.5 -68.5c-26 0 -46.667 7.66699 -62 23s-23 33.333 -23 54c-0.666992 18 3.16602 33.833 11.499 47.5s24.5 29.834 48.5 48.501
c13.333 10.667 21.833 20 25.5 28s5.5 20.333 5.5 37c0 8.66699 -0.333008 18.167 -1 28.5s-2.66699 37.166 -6 80.499c-2 22.667 -3.5 40.167 -4.5 52.5s-1.16699 24.166 -0.5 35.499c0 43.333 6.33301 78.166 19 104.499s31 39.5 55 39.5z" />
    <glyph glyph-name="CyrHardG" unicode="&#x490;" 
d="M128 700c4.66699 0 10.002 -0.332031 16.002 -0.999023s14.333 -1.66699 25 -3c12 -2 25.333 -4.66699 40 -8s25 -5 31 -5c9.33301 -0.666992 20.333 0.5 33 3.5s20.667 6.16699 24 9.5c2.66699 2 6 9.83301 10 23.5s12.667 20.5 26 20.5c10 0 17.833 -3.5 23.5 -10.5
s8.5 -17.167 8.5 -30.5c0 -43.333 -6.83301 -73.833 -20.5 -91.5s-37.834 -26.5 -72.501 -26.5c-6 0 -14.833 0.333008 -26.5 1s-20.167 1 -25.5 1c-12 -0.666992 -21.833 -1.83398 -29.5 -3.50098s-15.834 -5.5 -24.501 -11.5c-20 -12 -34.333 -19.5 -43 -22.5
s-17 -4.16699 -25 -3.5c-18.667 0 -34.667 6.16699 -48 18.5s-20 29.5 -20 51.5c0 23.333 8.83301 43.833 26.5 61.5s41.5 26.5 71.5 26.5zM214.002 569.001c3.33301 0 6.33301 -0.330078 9 -0.99707l8 -2c10.667 -5.33301 17 -12.5 19 -21.5s-1 -24.833 -9 -47.5
c-12 -31.333 -11.667 -79.5 1 -144.5s19.334 -98.833 20.001 -101.5c13.333 -82.667 9.5 -146.834 -11.5 -192.501s-55.833 -68.5 -104.5 -68.5c-26 0 -46.667 7.66699 -62 23s-23 33.333 -23 54c-0.666992 18 3.16602 33.833 11.499 47.5s24.5 29.834 48.5 48.501
c13.333 10.667 21.833 20 25.5 28s5.5 20.333 5.5 37c0 8.66699 -0.333008 18.167 -1 28.5s-2.66699 37.166 -6 80.499c-2 22.667 -3.5 40.167 -4.5 52.5s-1.16699 24.166 -0.5 35.499c0 43.333 6.33301 78.166 19 104.499s31 39.5 55 39.5z" />
    <glyph glyph-name="section" unicode="&#xa7;" horiz-adv-x="414" 
d="M203 700c21.333 0 41.499 -3.49609 60.499 -10.4961s33.833 -16.167 44.5 -27.5c16.667 -20 23.334 -43.167 20.001 -69.5s-15 -45.833 -35 -58.5c-13.333 -8.66699 -28.5 -13.167 -45.5 -13.5s-32.5 3.16699 -46.5 10.5c-16 7.33301 -26.667 10.666 -32 9.99902
s-9 -3.33398 -11 -8.00098c-4 -7.33301 -2.5 -15 4.5 -23s26.167 -19 57.5 -33c59.333 -27.333 93.333 -43.5 102 -48.5s16.667 -9.83301 24 -14.5c15.333 -12 27.166 -24.833 35.499 -38.5s12.5 -28.5 12.5 -44.5c-0.666992 -19.333 -4.83398 -36.166 -12.501 -50.499
s-18.167 -24.833 -31.5 -31.5c-8 -4.66699 -12.833 -8 -14.5 -10s-0.166992 -6.33301 4.5 -13c6.66699 -11.333 12 -24.333 16 -39s6 -29 6 -43c0 -41.333 -14 -77.333 -42 -108s-68.333 -46 -121 -46c-47.333 0 -85.666 10.667 -114.999 32s-44 49 -44 83
c0 31.333 12.5 54.166 37.5 68.499s52.833 15.833 83.5 4.5c9.33301 -4 19.666 -10.667 30.999 -20s20 -14 26 -14c6.66699 0 12.667 2.16699 18 6.5s8.66602 10.166 9.99902 17.499c1.33301 10.667 -1.16699 20.167 -7.5 28.5s-18.5 16.166 -36.5 23.499
c-60.667 24 -98.334 40.5 -113.001 49.5s-26 19.167 -34 30.5c-18 22 -26.333 48.667 -25 80s15 58 41 80c6.66699 5.33301 9.83398 9.5 9.50098 12.5s-3.16602 7.83301 -8.49902 14.5c-9.33301 10 -16.666 22.5 -21.999 37.5s-7.66602 29.833 -6.99902 44.5
c0 38.667 15 70 45 94s68.333 36.333 115 37zM143.999 388.004c-2 -2.66699 -3.33105 -5.5 -3.99805 -8.5s-1 -6.5 -1 -10.5c0 -16 15 -31.833 45 -47.5s55 -23.5 75 -23.5c6 0 11.5 2.33301 16.5 7s7.5 11 7.5 19s-1.83301 14.667 -5.5 20s-10.5 10.333 -20.5 15
c-24 10 -38.833 16.5 -44.5 19.5s-11.834 6.5 -18.501 10.5c-13.333 7.33301 -23.833 10.5 -31.5 9.5s-13.834 -4.5 -18.501 -10.5z" />
    <glyph glyph-name="afii10023" unicode="&#xa8;" 
d="M283 870c19.333 0 34 -6.33398 44 -19.001s15 -29 15 -49c0 -23.333 -5 -41.166 -15 -53.499s-25.333 -18.5 -46 -18.5c-19.333 0 -34 6.5 -44 19.5s-15 30.5 -15 52.5c-0.666992 20.667 4.5 37 15.5 49s26.167 18.333 45.5 19zM141 869.999
c18.667 0 33.167 -6.16504 43.5 -18.498s15.5 -28.833 15.5 -49.5c0 -24.667 -5.16699 -42.834 -15.5 -54.501s-24.833 -17.5 -43.5 -17.5c-20.667 0 -36 6.66699 -46 20s-15 30.666 -15 51.999c0 20.667 5.33301 37 16 49s25.667 18.333 45 19zM223 700.001
c8.66699 0 17.1621 -0.664062 25.4951 -1.99707s16.833 -3 25.5 -5c25.333 -8 44.5 -20.667 57.5 -38s19.833 -37.333 20.5 -60c0 -21.333 -7 -39.166 -21 -53.499s-30.333 -21.5 -49 -21.5c-6 0 -11.833 0.666992 -17.5 2s-17.5 8.66602 -35.5 21.999
c-14.667 9.33301 -28 11 -40 5s-18 -17.667 -18 -35c0 -18.667 5.66699 -35 17 -49s29 -24.667 53 -32c20.667 -7.33301 35.667 -15.666 45 -24.999s14 -21 14 -35c0 -12.667 -4.16699 -23.334 -12.5 -32.001s-17.5 -13 -27.5 -13
c-41.333 -2.66699 -61.666 -3.83398 -60.999 -3.50098s0.333984 0.166016 -0.999023 -0.500977c-14.667 -8 -25 -18.5 -31 -31.5s-9 -34.5 -9 -64.5c0 -26 4.16699 -46.167 12.5 -60.5s21.5 -21.166 39.5 -20.499h3c1.33301 0 12 4.33301 32 13
c4.66699 2 9.83398 3.5 15.501 4.5s11.167 1.83301 16.5 2.5c22 0 40.5 -8 55.5 -24s22.5 -35.667 22.5 -59c0 -29.333 -11 -52.333 -33 -69s-52 -25 -90 -25c-20 0 -39.833 2.66699 -59.5 8s-36.834 13.333 -51.501 24c-39.333 26 -64.5 65 -75.5 117
s-8.16699 101.667 8.5 149c8.66699 25.333 20.5 46.666 35.5 63.999s33.833 31.666 56.5 42.999c-26.667 15.333 -47.167 35 -61.5 59s-21.5 53 -21.5 87c0 32.667 7.83301 62.334 23.5 89.001s37.834 46 66.501 58c8.66699 3.33301 18.834 6.16602 30.501 8.49902
s24.834 3.5 39.501 3.5z" />
    <glyph glyph-name="afii10023" unicode="&#x401;" 
d="M283 870c19.333 0 34 -6.33398 44 -19.001s15 -29 15 -49c0 -23.333 -5 -41.166 -15 -53.499s-25.333 -18.5 -46 -18.5c-19.333 0 -34 6.5 -44 19.5s-15 30.5 -15 52.5c-0.666992 20.667 4.5 37 15.5 49s26.167 18.333 45.5 19zM141 869.999
c18.667 0 33.167 -6.16504 43.5 -18.498s15.5 -28.833 15.5 -49.5c0 -24.667 -5.16699 -42.834 -15.5 -54.501s-24.833 -17.5 -43.5 -17.5c-20.667 0 -36 6.66699 -46 20s-15 30.666 -15 51.999c0 20.667 5.33301 37 16 49s25.667 18.333 45 19zM223 700.001
c8.66699 0 17.1621 -0.664062 25.4951 -1.99707s16.833 -3 25.5 -5c25.333 -8 44.5 -20.667 57.5 -38s19.833 -37.333 20.5 -60c0 -21.333 -7 -39.166 -21 -53.499s-30.333 -21.5 -49 -21.5c-6 0 -11.833 0.666992 -17.5 2s-17.5 8.66602 -35.5 21.999
c-14.667 9.33301 -28 11 -40 5s-18 -17.667 -18 -35c0 -18.667 5.66699 -35 17 -49s29 -24.667 53 -32c20.667 -7.33301 35.667 -15.666 45 -24.999s14 -21 14 -35c0 -12.667 -4.16699 -23.334 -12.5 -32.001s-17.5 -13 -27.5 -13
c-41.333 -2.66699 -61.666 -3.83398 -60.999 -3.50098s0.333984 0.166016 -0.999023 -0.500977c-14.667 -8 -25 -18.5 -31 -31.5s-9 -34.5 -9 -64.5c0 -26 4.16699 -46.167 12.5 -60.5s21.5 -21.166 39.5 -20.499h3c1.33301 0 12 4.33301 32 13
c4.66699 2 9.83398 3.5 15.501 4.5s11.167 1.83301 16.5 2.5c22 0 40.5 -8 55.5 -24s22.5 -35.667 22.5 -59c0 -29.333 -11 -52.333 -33 -69s-52 -25 -90 -25c-20 0 -39.833 2.66699 -59.5 8s-36.834 13.333 -51.501 24c-39.333 26 -64.5 65 -75.5 117
s-8.16699 101.667 8.5 149c8.66699 25.333 20.5 46.666 35.5 63.999s33.833 31.666 56.5 42.999c-26.667 15.333 -47.167 35 -61.5 59s-21.5 53 -21.5 87c0 32.667 7.83301 62.334 23.5 89.001s37.834 46 66.501 58c8.66699 3.33301 18.834 6.16602 30.501 8.49902
s24.834 3.5 39.501 3.5z" />
    <glyph glyph-name="copyright" unicode="&#xa9;" horiz-adv-x="794" 
d="M397 625c-75.333 0 -139 -27.5 -191 -82.5s-78 -121.167 -78 -198.5s26 -143.166 78 -197.499s115.667 -81.5 191 -81.5s139 27.167 191 81.5s78 120.166 78 197.499c-0.666992 77.333 -27 143.5 -79 198.5s-115.333 82.5 -190 82.5zM397 700
c96 0 177.833 -34.667 245.5 -104s101.5 -153 101.5 -251s-33.833 -181.667 -101.5 -251s-149.5 -104 -245.5 -104c-96.667 0 -178.667 34.5 -246 103.5s-101 152.833 -101 251.5c0 98 33.833 181.667 101.5 251s149.5 104 245.5 104zM412 545c6 0 12 -0.666016 18 -1.99902
s12.333 -3 19 -5c14.667 -5.33301 25.5 -12.666 32.5 -21.999s10.5 -19.333 10.5 -30c0 -8.66699 -2.66699 -16.667 -8 -24s-12 -13 -20 -17c-6.66699 -3.33301 -13 -5.33301 -19 -6s-14.333 0 -25 2c-28.667 4 -48.167 -1.16699 -58.5 -15.5s-15.5 -39.833 -15.5 -76.5
c0 -44.667 3.16699 -72.334 9.5 -83.001s16.5 -16 30.5 -16c7.33301 0 14.5 1 21.5 3s16.167 3 27.5 3c16.667 0 30.5 -4.16699 41.5 -12.5s16.5 -19.166 16.5 -32.499s-4 -25 -12 -35s-20 -17.667 -36 -23c-15.333 -6 -31 -8.83301 -47 -8.5s-31.333 2.83301 -46 7.5
c-32 9.33301 -55.667 27.666 -71 54.999s-23 70.333 -23 129c0 40.667 2.66699 72 8 94s14.333 41.333 27 58c12.667 17.333 29.5 31.166 50.5 41.499s43.833 15.5 68.5 15.5z" />
    <glyph glyph-name="afii10053" unicode="&#xaa;" horiz-adv-x="478" 
d="M207 382l41.998 0.000976562c4.66699 0 8.66699 0.333008 12 1s10.666 7 21.999 19c8 8 17.167 14 27.5 18s20.166 6.33301 29.499 7c20 0 36 -6.5 48 -19.5s18 -30.167 18 -51.5c0 -22 -8.16699 -40 -24.5 -54s-38.5 -20.667 -66.5 -20c-10.667 0 -27.667 2 -51 6
s-42.333 7 -57 9c-2.66699 -23.333 -1.5 -49.333 3.5 -78s12.833 -49 23.5 -61c8.66699 -10.667 18.834 -17.167 30.501 -19.5s25.834 0.5 42.501 8.5c31.333 14 53.5 20 66.5 18s25.167 -8 36.5 -18c15.333 -14 23.833 -32 25.5 -54s-4.16602 -41.333 -17.499 -58
c-11.333 -14 -27.5 -25 -48.5 -33s-42.167 -12 -63.5 -12c-13.333 0 -26.166 1.33301 -38.499 4s-23.833 6.66699 -34.5 12c-39.333 18.667 -70.666 54.167 -93.999 106.5s-33.333 113.833 -30 184.5c-10.667 -2.66699 -18 -7.16699 -22 -13.5s-10.333 -9.5 -19 -9.5
c-11.333 0 -20 5.66699 -26 17s-5.66699 24.666 1 39.999c4.66699 11.333 13.334 21.5 26.001 30.5s26 15.5 40 19.5c2 77.333 14.5 141.666 37.5 192.999s54.833 87.333 95.5 108c12 6 24.667 10.5 38 13.5s27.333 4.5 42 4.5c33.333 0 61 -9.16699 83 -27.5
s33 -42.166 33 -71.499c-0.666992 -31.333 -13.834 -53.333 -39.501 -66s-51.834 -13 -78.501 -1c-32 13.333 -50.833 18.833 -56.5 16.5s-11.167 -5.83301 -16.5 -10.5c-12 -10.667 -21.5 -29 -28.5 -55s-10.833 -60.333 -11.5 -103z" />
    <glyph glyph-name="afii10053" unicode="&#x404;" horiz-adv-x="478" 
d="M207 382l41.998 0.000976562c4.66699 0 8.66699 0.333008 12 1s10.666 7 21.999 19c8 8 17.167 14 27.5 18s20.166 6.33301 29.499 7c20 0 36 -6.5 48 -19.5s18 -30.167 18 -51.5c0 -22 -8.16699 -40 -24.5 -54s-38.5 -20.667 -66.5 -20c-10.667 0 -27.667 2 -51 6
s-42.333 7 -57 9c-2.66699 -23.333 -1.5 -49.333 3.5 -78s12.833 -49 23.5 -61c8.66699 -10.667 18.834 -17.167 30.501 -19.5s25.834 0.5 42.501 8.5c31.333 14 53.5 20 66.5 18s25.167 -8 36.5 -18c15.333 -14 23.833 -32 25.5 -54s-4.16602 -41.333 -17.499 -58
c-11.333 -14 -27.5 -25 -48.5 -33s-42.167 -12 -63.5 -12c-13.333 0 -26.166 1.33301 -38.499 4s-23.833 6.66699 -34.5 12c-39.333 18.667 -70.666 54.167 -93.999 106.5s-33.333 113.833 -30 184.5c-10.667 -2.66699 -18 -7.16699 -22 -13.5s-10.333 -9.5 -19 -9.5
c-11.333 0 -20 5.66699 -26 17s-5.66699 24.666 1 39.999c4.66699 11.333 13.334 21.5 26.001 30.5s26 15.5 40 19.5c2 77.333 14.5 141.666 37.5 192.999s54.833 87.333 95.5 108c12 6 24.667 10.5 38 13.5s27.333 4.5 42 4.5c33.333 0 61 -9.16699 83 -27.5
s33 -42.166 33 -71.499c-0.666992 -31.333 -13.834 -53.333 -39.501 -66s-51.834 -13 -78.501 -1c-32 13.333 -50.833 18.833 -56.5 16.5s-11.167 -5.83301 -16.5 -10.5c-12 -10.667 -21.5 -29 -28.5 -55s-10.833 -60.333 -11.5 -103z" />
    <glyph glyph-name="guillemotleft" unicode="&#xab;" horiz-adv-x="461" 
d="M169 511c2.66699 0 5.66797 -1.00684 9.00098 -3.00684s6.66602 -4.33301 9.99902 -7c8 -8.66699 16.167 -24 24.5 -46s12.5 -38.667 12.5 -50s-2.66699 -22.166 -8 -32.499s-15 -23.166 -29 -38.499c-14 -16 -23.5 -28 -28.5 -36s-7.5 -14.667 -7.5 -20
s2 -11.666 6 -18.999s12.667 -18.333 26 -33c14.667 -18 25.334 -32.667 32.001 -44s10 -21.666 10 -30.999c-0.666992 -11.333 -5.33398 -28.333 -14.001 -51s-16.667 -37.667 -24 -45c-6 -6.66699 -11.667 -10.167 -17 -10.5s-11 1.83398 -17 6.50098
c-10 6.66699 -23.667 25.834 -41 57.501s-32.666 64.834 -45.999 99.501c-6 14 -10.333 26.667 -13 38s-4 22 -4 32c0 9.33301 1.33301 19.666 4 30.999s7 24.333 13 39c13.333 34 28.666 66.833 45.999 98.5s31 51.167 41 58.5c2.66699 2 5.16699 3.33301 7.5 4
s4.83301 1.33398 7.5 2.00098zM354.001 510.993c2.66699 0 5.66406 -1.00781 8.99707 -3.00781s6.66602 -4.33301 9.99902 -7c8 -8.66699 16.167 -24 24.5 -46s12.5 -38.667 12.5 -50s-2.66699 -22.166 -8 -32.499s-15 -23.166 -29 -38.499c-14 -16 -23.667 -28 -29 -36
s-7.66602 -14.667 -6.99902 -20c0 -5.33301 2 -11.666 6 -18.999s12.667 -18.333 26 -33c14.667 -18 25.334 -32.667 32.001 -44s10 -21.666 10 -30.999c0 -11.333 -4.5 -28.333 -13.5 -51s-17.167 -37.667 -24.5 -45c-3.33301 -3.33301 -6.66602 -5.83301 -9.99902 -7.5
s-6.33301 -2.5 -9 -2.5s-5.16699 0.333008 -7.5 1s-4.83301 2.33398 -7.5 5.00098c-10 6.66699 -23.667 25.834 -41 57.501s-32.666 64.834 -45.999 99.501c-11.333 27.333 -17.166 50.5 -17.499 69.5s5.5 42.5 17.5 70.5c13.333 34 28.666 66.833 45.999 98.5
s31 51.167 41 58.5c2.66699 2 5.16699 3.33301 7.5 4s4.83301 1.33398 7.5 2.00098z" />
    <glyph glyph-name="registered" unicode="&#xae;" horiz-adv-x="794" 
d="M397 625c-75.333 0 -139 -27.5 -191 -82.5s-78 -121.167 -78 -198.5s26 -143.166 78 -197.499s115.667 -81.5 191 -81.5s139 27.167 191 81.5s78 120.166 78 197.499c-0.666992 77.333 -27 143.5 -79 198.5s-115.333 82.5 -190 82.5zM397 700
c96 0 177.833 -34.667 245.5 -104s101.5 -153 101.5 -251s-33.833 -181.667 -101.5 -251s-149.5 -104 -245.5 -104c-96.667 0 -178.667 34.5 -246 103.5s-101 152.833 -101 251.5c0 98 33.833 181.667 101.5 251s149.5 104 245.5 104zM342 359
c28.667 12 50.668 24.167 66.001 36.5s23.333 24.5 24 36.5c0 12.667 -4.33301 22.167 -13 28.5s-20.334 9.5 -35.001 9.5c-20.667 -0.666992 -33.667 -3.66699 -39 -9s-7.33301 -17 -6 -35zM348.001 554c56 0 98.998 -8.5 128.998 -25.5s45 -41.167 45 -72.5
c-0.666992 -16.667 -6.66699 -33.5 -18 -50.5s-27 -32.5 -47 -46.5c9.33301 -34.667 19 -62.667 29 -84s19.667 -35.666 29 -42.999c18 -16 28 -26.5 30 -31.5s3 -9.83301 3 -14.5c0 -10.667 -4 -19 -12 -25s-19.333 -9 -34 -9c-20 0 -37 4.16699 -51 12.5
s-24.667 21.166 -32 38.499c-6 12 -11.167 28.167 -15.5 48.5s-7.16602 41.5 -8.49902 63.5l-48 -27l8 -85c1.33301 -16 -3.16699 -28.5 -13.5 -37.5s-23.833 -13.5 -40.5 -13.5c-14 0 -24.833 4.66699 -32.5 14s-11.167 21.333 -10.5 36l8 226
c1.33301 54.667 5.33301 87.5 12 98.5s17 18.833 31 23.5c4 1.33301 8.33301 2.33301 13 3s13.334 1 26.001 1z" />
    <glyph glyph-name="afii10056	" unicode="&#xaf;" horiz-adv-x="339" 
d="M232 569c4.66699 0 9.16699 -0.664062 13.5 -1.99707s8.16602 -3.33301 11.499 -6c6 -6 9.83301 -12.667 11.5 -20s-1.5 -22 -9.5 -44c-4.66699 -12 -7.66699 -25.833 -9 -41.5s8.66699 -83.834 30 -204.501c2.66699 -18.667 4.83398 -35.5 6.50098 -50.5
s2.5 -28.833 2.5 -41.5c0 -50 -11.333 -90.667 -34 -122s-53 -47 -91 -47c-26 0 -46.667 7.66699 -62 23s-23 34.333 -23 57c0 15.333 3.5 29.666 10.5 42.999s23.5 30 49.5 50c13.333 10 21.833 19.333 25.5 28s5.5 24 5.5 46c0 19.333 -2 51.333 -6 96s-6 76.667 -6 96
c-0.666992 30 2.33301 55.667 9 77s16.667 37.666 30 48.999c4.66699 4 10 7.33301 16 10s12.333 4 19 4zM244 700.003c8 0 15.498 -3.66699 22.498 -11s10.5 -16.333 10.5 -27s-3.5 -21.5 -10.5 -32.5s-16.833 -21.5 -29.5 -31.5
c-17.333 -13.333 -37.166 -24.166 -59.499 -32.499s-42.5 -12.5 -60.5 -12.5c-27.333 0 -50.333 7 -69 21s-28 32.667 -28 56c0 18.667 6.66699 35 20 49s31.333 21 54 21c8.66699 0 17.834 -1.16699 27.501 -3.5s20.167 -5.83301 31.5 -10.5
c10 -4.66699 16.333 -7.33398 19 -8.00098s5.66699 -1 9 -1c2.66699 -0.666992 5.66699 -0.5 9 0.5s13.333 6.16699 30 15.5c4 2 8 3.66699 12 5s8 2 12 2zM234.998 870.003c19.333 0 34 -6.33105 44 -18.998s15 -29 15 -49c0 -24.667 -5.16699 -42.834 -15.5 -54.501
s-24.833 -17.5 -43.5 -17.5c-20.667 0 -36 6.66699 -46 20s-15 30.666 -15 51.999c0 20.667 5.33301 37.167 16 49.5s25.667 18.5 45 18.5zM92.998 870.005c18 -0.666992 32 -7.33398 42 -20.001s15 -28.667 15 -48c0 -24.667 -5.16699 -43 -15.5 -55
s-24.833 -17.667 -43.5 -17c-20 0 -35.167 6.33301 -45.5 19s-15.5 30.334 -15.5 53.001c0 20 5.5 36.5 16.5 49.5s26.5 19.167 46.5 18.5z" />
    <glyph glyph-name="afii10056	" unicode="&#x407;" horiz-adv-x="339" 
d="M232 569c4.66699 0 9.16699 -0.664062 13.5 -1.99707s8.16602 -3.33301 11.499 -6c6 -6 9.83301 -12.667 11.5 -20s-1.5 -22 -9.5 -44c-4.66699 -12 -7.66699 -25.833 -9 -41.5s8.66699 -83.834 30 -204.501c2.66699 -18.667 4.83398 -35.5 6.50098 -50.5
s2.5 -28.833 2.5 -41.5c0 -50 -11.333 -90.667 -34 -122s-53 -47 -91 -47c-26 0 -46.667 7.66699 -62 23s-23 34.333 -23 57c0 15.333 3.5 29.666 10.5 42.999s23.5 30 49.5 50c13.333 10 21.833 19.333 25.5 28s5.5 24 5.5 46c0 19.333 -2 51.333 -6 96s-6 76.667 -6 96
c-0.666992 30 2.33301 55.667 9 77s16.667 37.666 30 48.999c4.66699 4 10 7.33301 16 10s12.333 4 19 4zM244 700.003c8 0 15.498 -3.66699 22.498 -11s10.5 -16.333 10.5 -27s-3.5 -21.5 -10.5 -32.5s-16.833 -21.5 -29.5 -31.5
c-17.333 -13.333 -37.166 -24.166 -59.499 -32.499s-42.5 -12.5 -60.5 -12.5c-27.333 0 -50.333 7 -69 21s-28 32.667 -28 56c0 18.667 6.66699 35 20 49s31.333 21 54 21c8.66699 0 17.834 -1.16699 27.501 -3.5s20.167 -5.83301 31.5 -10.5
c10 -4.66699 16.333 -7.33398 19 -8.00098s5.66699 -1 9 -1c2.66699 -0.666992 5.66699 -0.5 9 0.5s13.333 6.16699 30 15.5c4 2 8 3.66699 12 5s8 2 12 2zM234.998 870.003c19.333 0 34 -6.33105 44 -18.998s15 -29 15 -49c0 -24.667 -5.16699 -42.834 -15.5 -54.501
s-24.833 -17.5 -43.5 -17.5c-20.667 0 -36 6.66699 -46 20s-15 30.666 -15 51.999c0 20.667 5.33301 37.167 16 49.5s25.667 18.5 45 18.5zM92.998 870.005c18 -0.666992 32 -7.33398 42 -20.001s15 -28.667 15 -48c0 -24.667 -5.16699 -43 -15.5 -55
s-24.833 -17.667 -43.5 -17c-20 0 -35.167 6.33301 -45.5 19s-15.5 30.334 -15.5 53.001c0 20 5.5 36.5 16.5 49.5s26.5 19.167 46.5 18.5z" />
    <glyph glyph-name="degree" unicode="&#xb0;" horiz-adv-x="272" 
d="M136 272c-16.667 0 -31 4.99707 -43 14.9971s-21.667 26.333 -29 49c-10.667 31.333 -15.334 74.166 -14.001 128.499s9.66602 94.833 24.999 121.5c7.33301 12.667 16 21.834 26 27.501s21.667 8.5 35 8.5c12 0 22.833 -2.66699 32.5 -8s18.167 -13.333 25.5 -24
c8.66699 -13.333 15.334 -31.666 20.001 -54.999s7.33398 -50.666 8.00098 -81.999c0 -30 -1.5 -56 -4.5 -78s-7.16699 -39.333 -12.5 -52c-8 -17.333 -18 -30.166 -30 -38.499s-25 -12.5 -39 -12.5zM113 471.997l0.00195312 -51.998c0 -20 1.66699 -34.5 5 -43.5
s9.66602 -13.5 18.999 -13.5c7.33301 0 12.666 3.66699 15.999 11s5.33301 22.666 6 45.999v52c0 24.667 -1.83301 40.667 -5.5 48s-9.5 11 -17.5 11c-8 -0.666992 -13.833 -4.33398 -17.5 -11.001s-5.5 -22.667 -5.5 -48z" />
    <glyph glyph-name="afii10055" unicode="&#xb2;" horiz-adv-x="339" 
d="M232 569c4.66699 0 9.16699 -0.664062 13.5 -1.99707s8.16602 -3.33301 11.499 -6c6 -6 9.83301 -12.667 11.5 -20s-1.5 -22 -9.5 -44c-4.66699 -12 -7.66699 -25.833 -9 -41.5s8.66699 -83.834 30 -204.501c2.66699 -18.667 4.83398 -35.5 6.50098 -50.5
s2.5 -28.833 2.5 -41.5c0 -50 -11.333 -90.667 -34 -122s-53 -47 -91 -47c-26 0 -46.667 7.66699 -62 23s-23 34.333 -23 57c0 15.333 3.5 29.666 10.5 42.999s23.5 30 49.5 50c13.333 10 21.833 19.333 25.5 28s5.5 24 5.5 46c0 19.333 -2 51.333 -6 96s-6 76.667 -6 96
c-0.666992 30 2.33301 55.667 9 77s16.667 37.666 30 48.999c4.66699 4 10 7.33301 16 10s12.333 4 19 4zM244 701.003c8 0 15.4971 -3.66992 22.4971 -11.0029s10.5 -16.666 10.5 -27.999c0 -10.667 -3.5 -21.5 -10.5 -32.5s-16.833 -21.5 -29.5 -31.5
c-17.333 -13.333 -37.166 -24.166 -59.499 -32.499s-42.5 -12.5 -60.5 -12.5c-27.333 0 -50.333 7 -69 21s-28 32.667 -28 56c0 18.667 6.66699 34.834 20 48.501s31.333 20.834 54 21.501c8.66699 0 17.834 -1.16699 27.501 -3.5s20.167 -5.83301 31.5 -10.5
c10 -4.66699 16.333 -7.33398 19 -8.00098s5.66699 -1 9 -1c4 -0.666992 8 -0.166992 12 1.5s13 6.5 27 14.5c4.66699 2.66699 8.83398 4.66699 12.501 6s7.5 2 11.5 2z" />
    <glyph glyph-name="afii10055" unicode="&#x406;" horiz-adv-x="339" 
d="M232 569c4.66699 0 9.16699 -0.664062 13.5 -1.99707s8.16602 -3.33301 11.499 -6c6 -6 9.83301 -12.667 11.5 -20s-1.5 -22 -9.5 -44c-4.66699 -12 -7.66699 -25.833 -9 -41.5s8.66699 -83.834 30 -204.501c2.66699 -18.667 4.83398 -35.5 6.50098 -50.5
s2.5 -28.833 2.5 -41.5c0 -50 -11.333 -90.667 -34 -122s-53 -47 -91 -47c-26 0 -46.667 7.66699 -62 23s-23 34.333 -23 57c0 15.333 3.5 29.666 10.5 42.999s23.5 30 49.5 50c13.333 10 21.833 19.333 25.5 28s5.5 24 5.5 46c0 19.333 -2 51.333 -6 96s-6 76.667 -6 96
c-0.666992 30 2.33301 55.667 9 77s16.667 37.666 30 48.999c4.66699 4 10 7.33301 16 10s12.333 4 19 4zM244 701.003c8 0 15.4971 -3.66992 22.4971 -11.0029s10.5 -16.666 10.5 -27.999c0 -10.667 -3.5 -21.5 -10.5 -32.5s-16.833 -21.5 -29.5 -31.5
c-17.333 -13.333 -37.166 -24.166 -59.499 -32.499s-42.5 -12.5 -60.5 -12.5c-27.333 0 -50.333 7 -69 21s-28 32.667 -28 56c0 18.667 6.66699 34.834 20 48.501s31.333 20.834 54 21.501c8.66699 0 17.834 -1.16699 27.501 -3.5s20.167 -5.83301 31.5 -10.5
c10 -4.66699 16.333 -7.33398 19 -8.00098s5.66699 -1 9 -1c4 -0.666992 8 -0.166992 12 1.5s13 6.5 27 14.5c4.66699 2.66699 8.83398 4.66699 12.501 6s7.5 2 11.5 2z" />
    <glyph glyph-name="afii10103" unicode="&#xb3;" horiz-adv-x="182" 
d="M87 686c18.667 0 33.167 -6.16504 43.5 -18.498s15.5 -28.833 15.5 -49.5c-0.666992 -24.667 -6 -42.834 -16 -54.501s-24.333 -17.5 -43 -17.5c-20.667 0 -36 6.66699 -46 20s-15 30.666 -15 51.999c0 20.667 5.33301 37.167 16 49.5s25.667 18.5 45 18.5zM53 80.002
l-0.000976562 234c0 21.333 -5.5 38.833 -16.5 52.5s-16.5 30.167 -16.5 49.5c0 22 6.33301 39.667 19 53s29 20.333 49 21c18 0 31.333 -6.5 40 -19.5s13 -38.167 13 -75.5v-228c0 -11.333 0.5 -19.5 1.5 -24.5s3.16699 -10.833 6.5 -17.5
c10.667 -21.333 17.167 -36 19.5 -44s3.5 -16 3.5 -24c0 -20 -5.33301 -36.167 -16 -48.5s-24 -18.5 -40 -18.5c-21.333 0 -37.166 7.5 -47.499 22.5s-15.5 37.5 -15.5 67.5z" />
    <glyph glyph-name="afii10103" unicode="&#x456;" horiz-adv-x="182" 
d="M87 686c18.667 0 33.167 -6.16504 43.5 -18.498s15.5 -28.833 15.5 -49.5c-0.666992 -24.667 -6 -42.834 -16 -54.501s-24.333 -17.5 -43 -17.5c-20.667 0 -36 6.66699 -46 20s-15 30.666 -15 51.999c0 20.667 5.33301 37.167 16 49.5s25.667 18.5 45 18.5zM53 80.002
l-0.000976562 234c0 21.333 -5.5 38.833 -16.5 52.5s-16.5 30.167 -16.5 49.5c0 22 6.33301 39.667 19 53s29 20.333 49 21c18 0 31.333 -6.5 40 -19.5s13 -38.167 13 -75.5v-228c0 -11.333 0.5 -19.5 1.5 -24.5s3.16699 -10.833 6.5 -17.5
c10.667 -21.333 17.167 -36 19.5 -44s3.5 -16 3.5 -24c0 -20 -5.33301 -36.167 -16 -48.5s-24 -18.5 -40 -18.5c-21.333 0 -37.166 7.5 -47.499 22.5s-15.5 37.5 -15.5 67.5z" />
    <glyph glyph-name="cyrhardg" unicode="&#xb4;" horiz-adv-x="322" 
d="M52 163l0.00390625 155.001c-0.666992 12 -4.83398 26 -12.501 42s-11.5 24.333 -11.5 25c-6 12.667 -8.83301 25.5 -8.5 38.5s3.5 24.833 9.5 35.5c5.33301 9.33301 12.666 16.833 21.999 22.5s21 8.5 35 8.5c8 0 15.5 -1.33301 22.5 -4s13.833 -6.33398 20.5 -11.001
c10 -8 17.167 -12.333 21.5 -13s9.83301 -1 16.5 -1c17.333 0 29.666 2.5 36.999 7.5s12.333 20.833 15 47.5c1.33301 15.333 7 27.166 17 35.499s22.333 12.5 37 12.5c12.667 0 23 -5 31 -15s12.333 -23.667 13 -41c0 -20.667 -2.66699 -34.667 -8 -42s-8 -14 -8 -20
c0 -4.66699 0.833008 -11.5 2.5 -20.5s2.5 -15.833 2.5 -20.5c0 -16 -4.66699 -29 -14 -39s-21.333 -14.667 -36 -14c-12.667 0 -26.334 5.16699 -41.001 15.5s-26.334 15.5 -35.001 15.5c-12.667 0 -22.667 -6.66699 -30 -20s-10.666 -31.333 -9.99902 -54v-140
c0 -11.333 0.5 -21.166 1.5 -29.499s3.83301 -18.5 8.5 -30.5c5.33301 -14.667 8.83301 -25.667 10.5 -33s2.5 -14.333 2.5 -21c0 -18.667 -6.16699 -34.167 -18.5 -46.5s-28.166 -18.5 -47.499 -18.5c-20.667 0 -37.334 6.83301 -50.001 20.5s-18.667 30.834 -18 51.501
c0 6 0.666992 12.167 2 18.5s4.33301 15.166 9 26.499c4.66699 12 7.66699 22.167 9 30.5s2.33301 16.833 3 25.5z" />
    <glyph glyph-name="cyrhardg" unicode="&#x491;" horiz-adv-x="322" 
d="M52 163l0.00390625 155.001c-0.666992 12 -4.83398 26 -12.501 42s-11.5 24.333 -11.5 25c-6 12.667 -8.83301 25.5 -8.5 38.5s3.5 24.833 9.5 35.5c5.33301 9.33301 12.666 16.833 21.999 22.5s21 8.5 35 8.5c8 0 15.5 -1.33301 22.5 -4s13.833 -6.33398 20.5 -11.001
c10 -8 17.167 -12.333 21.5 -13s9.83301 -1 16.5 -1c17.333 0 29.666 2.5 36.999 7.5s12.333 20.833 15 47.5c1.33301 15.333 7 27.166 17 35.499s22.333 12.5 37 12.5c12.667 0 23 -5 31 -15s12.333 -23.667 13 -41c0 -20.667 -2.66699 -34.667 -8 -42s-8 -14 -8 -20
c0 -4.66699 0.833008 -11.5 2.5 -20.5s2.5 -15.833 2.5 -20.5c0 -16 -4.66699 -29 -14 -39s-21.333 -14.667 -36 -14c-12.667 0 -26.334 5.16699 -41.001 15.5s-26.334 15.5 -35.001 15.5c-12.667 0 -22.667 -6.66699 -30 -20s-10.666 -31.333 -9.99902 -54v-140
c0 -11.333 0.5 -21.166 1.5 -29.499s3.83301 -18.5 8.5 -30.5c5.33301 -14.667 8.83301 -25.667 10.5 -33s2.5 -14.333 2.5 -21c0 -18.667 -6.16699 -34.167 -18.5 -46.5s-28.166 -18.5 -47.499 -18.5c-20.667 0 -37.334 6.83301 -50.001 20.5s-18.667 30.834 -18 51.501
c0 6 0.666992 12.167 2 18.5s4.33301 15.166 9 26.499c4.66699 12 7.66699 22.167 9 30.5s2.33301 16.833 3 25.5z" />
    <glyph glyph-name="paragraph" unicode="&#xb6;" horiz-adv-x="448" 
d="M332 481l13.9951 -387.998c2.66699 -78.667 -1.16602 -139 -11.499 -181s-27.166 -72.333 -50.499 -91c-27.333 -20.667 -57.333 -25.334 -90 -14.001s-48.667 34.666 -48 69.999c0 22 11.5 54 34.5 96s38.5 79 46.5 111c5.33301 24.667 9.5 53.5 12.5 86.5
s3.5 60.167 1.5 81.5c-2 16 -5.66699 27.5 -11 34.5s-16.666 14.833 -33.999 23.5c-49.333 22 -86 49.833 -110 83.5s-36 75.167 -36 124.5c0 44 11.167 80.333 33.5 109s51.833 49 88.5 61c12 4 25.667 7 41 9s33 3 53 3c42 0 74.5 -7.5 97.5 -22.5s34.5 -38.5 34.5 -70.5
c0 -15.333 -4 -28.833 -12 -40.5s-18.333 -20.167 -31 -25.5c-13.333 -6 -20.666 -13 -21.999 -21s-1.66602 -21 -0.999023 -39z" />
    <glyph glyph-name="afii10071" unicode="&#xb8;" horiz-adv-x="304" 
d="M165 490c28 -0.666992 51.502 -11.332 70.502 -31.999s28.5 -49.334 28.5 -86.001c0 -35.333 -8.5 -66 -25.5 -92s-58.167 -64 -123.5 -114c-0.666992 -13.333 2.66602 -24.333 9.99902 -33s15.666 -13 24.999 -13c4 0 6 -0.166992 6 -0.5s7 2.5 21 8.5
c4 1.33301 8 2.5 12 3.5s8 1.5 12 1.5c15.333 -0.666992 29 -6.66699 41 -18s18 -26 18 -44c0 -23.333 -8.83301 -42.666 -26.5 -57.999s-41.167 -23 -70.5 -23c-47.333 0.666992 -82.5 19 -105.5 55s-34.167 97.333 -33.5 184c0 87.333 12.5 152.666 37.5 195.999
s59.5 65 103.5 65zM113.002 239.002h-1.00098c20 13.333 36.5 29 49.5 47s19.5 34.667 19.5 50c0 10 -2.33301 18 -7 24s-10.334 9 -17.001 9c-15.333 0 -26.666 -9.83301 -33.999 -29.5s-10.666 -53.167 -9.99902 -100.5zM225.001 686.002c18.667 0 33 -6.16504 43 -18.498
s15.333 -28.833 16 -49.5c0 -24.667 -5.16699 -42.834 -15.5 -54.501s-24.833 -17.5 -43.5 -17.5c-20.667 0 -36 6.66699 -46 20s-15 30.666 -15 51.999c0 20.667 5.33301 37.167 16 49.5s25.667 18.5 45 18.5zM81.001 686.004c18.667 0 33.167 -6.16504 43.5 -18.498
s15.5 -28.833 15.5 -49.5c0 -24.667 -5.16699 -42.834 -15.5 -54.501s-24.833 -17.5 -43.5 -17.5c-20.667 0 -36 6.66699 -46 20s-15 30.666 -15 51.999c0 20.667 5.33301 37.167 16 49.5s25.667 18.5 45 18.5z" />
    <glyph glyph-name="afii10071" unicode="&#x451;" horiz-adv-x="304" 
d="M165 490c28 -0.666992 51.502 -11.332 70.502 -31.999s28.5 -49.334 28.5 -86.001c0 -35.333 -8.5 -66 -25.5 -92s-58.167 -64 -123.5 -114c-0.666992 -13.333 2.66602 -24.333 9.99902 -33s15.666 -13 24.999 -13c4 0 6 -0.166992 6 -0.5s7 2.5 21 8.5
c4 1.33301 8 2.5 12 3.5s8 1.5 12 1.5c15.333 -0.666992 29 -6.66699 41 -18s18 -26 18 -44c0 -23.333 -8.83301 -42.666 -26.5 -57.999s-41.167 -23 -70.5 -23c-47.333 0.666992 -82.5 19 -105.5 55s-34.167 97.333 -33.5 184c0 87.333 12.5 152.666 37.5 195.999
s59.5 65 103.5 65zM113.002 239.002h-1.00098c20 13.333 36.5 29 49.5 47s19.5 34.667 19.5 50c0 10 -2.33301 18 -7 24s-10.334 9 -17.001 9c-15.333 0 -26.666 -9.83301 -33.999 -29.5s-10.666 -53.167 -9.99902 -100.5zM225.001 686.002c18.667 0 33 -6.16504 43 -18.498
s15.333 -28.833 16 -49.5c0 -24.667 -5.16699 -42.834 -15.5 -54.501s-24.833 -17.5 -43.5 -17.5c-20.667 0 -36 6.66699 -46 20s-15 30.666 -15 51.999c0 20.667 5.33301 37.167 16 49.5s25.667 18.5 45 18.5zM81.001 686.004c18.667 0 33.167 -6.16504 43.5 -18.498
s15.5 -28.833 15.5 -49.5c0 -24.667 -5.16699 -42.834 -15.5 -54.501s-24.833 -17.5 -43.5 -17.5c-20.667 0 -36 6.66699 -46 20s-15 30.666 -15 51.999c0 20.667 5.33301 37.167 16 49.5s25.667 18.5 45 18.5z" />
    <glyph glyph-name="afii61352" unicode="&#xb9;" horiz-adv-x="784" 
d="M651 272c-30 0 -52.334 14.168 -67.001 42.501s-21.667 69.833 -21 124.5c0 61.333 6.83301 107.166 20.5 137.499s35.5 45.5 65.5 45.5c27.333 0 48.333 -13.667 63 -41s22.334 -70 23.001 -128c-0.666992 -67.333 -8 -114.5 -22 -141.5s-34.667 -40.167 -62 -39.5z
M625.999 477.001l0.00195312 -57.001c0 -22 2 -37 6 -45s10 -12 18 -12c7.33301 -0.666992 12.666 2.83301 15.999 10.5s5.33301 23.167 6 46.5v52c-0.666992 24.667 -2.66699 40.667 -6 48s-9 11 -17 11c-8.66699 0 -14.834 -3.66699 -18.501 -11
s-5.16699 -21.666 -4.5 -42.999zM593.001 254c6.66699 0 16.168 -2.83203 28.501 -8.49902s20.166 -8.83398 23.499 -9.50098c16.667 -5.33301 32.5 -5.16602 47.5 0.500977s26.833 8.5 35.5 8.5c7.33301 0 13.5 -2.33301 18.5 -7s7.5 -10 7.5 -16
c0 -30 -12.667 -54 -38 -72s-59.333 -27 -102 -27c-26 0 -45.667 4.16699 -59 12.5s-20 20.166 -20 35.499c0 19.333 6.16699 38 18.5 56s25.5 27 39.5 27zM473.002 700.001c3.33301 0 6.83496 -0.500977 10.502 -1.50098s7.5 -1.83301 11.5 -2.5
c11.333 -4.66699 20.666 -12.5 27.999 -23.5s11 -25.167 11 -42.5c0 -9.33301 -1.33301 -19.5 -4 -30.5s-21.667 -49.167 -57 -114.5c-17.333 -32 -29.666 -62.5 -36.999 -91.5s-10.333 -68.833 -9 -119.5c0.666992 -33.333 2.5 -60.833 5.5 -82.5
s11.167 -61.834 24.5 -120.501c4.66699 -22.667 5.83398 -39.167 3.50098 -49.5s-7.5 -18.166 -15.5 -23.499c-4 -2 -8.16699 -3.83301 -12.5 -5.5s-8.5 -2.5 -12.5 -2.5c-6.66699 0 -13.167 1 -19.5 3s-12.166 4.66699 -17.499 8
c-9.33301 5.33301 -18.5 14.166 -27.5 26.499s-18.167 29.166 -27.5 50.499c-12 25.333 -22.833 53.5 -32.5 84.5s-17.834 63.167 -24.501 96.5c-23.333 112 -39.833 179.167 -49.5 201.5s-22.167 37.833 -37.5 46.5l-58 32c-21.333 11.333 -34.833 30.5 -40.5 57.5
s-1.83398 50.5 11.499 70.5c6.66699 10.667 15.5 18.834 26.5 24.501s23.833 8.5 38.5 8.5c9.33301 0 18.666 -1.5 27.999 -4.5s18.333 -6.83301 27 -11.5c19.333 -12.667 36 -33.5 50 -62.5s27 -71.5 39 -127.5c15.333 -74.667 25.333 -122.167 30 -142.5
s10 -41.5 16 -63.5c-2 20.667 -3.5 41 -4.5 61s-1.5 43 -1.5 69c-1.33301 70.667 5.66699 130.334 21 179.001s38.666 80.334 69.999 95.001c5.33301 2 11 3.66699 17 5s12.333 2.33301 19 3zM162.004 497c9.33301 0 18.333 -4.50293 27 -13.5029s16 -21.167 22 -36.5
c9.33301 -27.333 16.666 -68.666 21.999 -123.999s8 -124 8 -206c0 -91.333 -6.16699 -161.666 -18.5 -210.999s-32.5 -81 -60.5 -95c-11.333 -5.33301 -24.166 -7.83301 -38.499 -7.5s-26.833 3.5 -37.5 9.5c-22 13.333 -34 34 -36 62s6.66699 61.667 26 101
c31.333 64.667 50 114.334 56 149.001s9 75.667 9 123s-0.5 83.5 -1.5 108.5s-2.5 43.833 -4.5 56.5c-4.66699 25.333 -6.16699 42.833 -4.5 52.5s5.83398 17.5 12.501 23.5c2.66699 2 5.66699 3.83301 9 5.5s6.66602 2.5 9.99902 2.5z" />
    <glyph glyph-name="afii61352" unicode="&#x2116;" horiz-adv-x="784" 
d="M651 272c-30 0 -52.334 14.168 -67.001 42.501s-21.667 69.833 -21 124.5c0 61.333 6.83301 107.166 20.5 137.499s35.5 45.5 65.5 45.5c27.333 0 48.333 -13.667 63 -41s22.334 -70 23.001 -128c-0.666992 -67.333 -8 -114.5 -22 -141.5s-34.667 -40.167 -62 -39.5z
M625.999 477.001l0.00195312 -57.001c0 -22 2 -37 6 -45s10 -12 18 -12c7.33301 -0.666992 12.666 2.83301 15.999 10.5s5.33301 23.167 6 46.5v52c-0.666992 24.667 -2.66699 40.667 -6 48s-9 11 -17 11c-8.66699 0 -14.834 -3.66699 -18.501 -11
s-5.16699 -21.666 -4.5 -42.999zM593.001 254c6.66699 0 16.168 -2.83203 28.501 -8.49902s20.166 -8.83398 23.499 -9.50098c16.667 -5.33301 32.5 -5.16602 47.5 0.500977s26.833 8.5 35.5 8.5c7.33301 0 13.5 -2.33301 18.5 -7s7.5 -10 7.5 -16
c0 -30 -12.667 -54 -38 -72s-59.333 -27 -102 -27c-26 0 -45.667 4.16699 -59 12.5s-20 20.166 -20 35.499c0 19.333 6.16699 38 18.5 56s25.5 27 39.5 27zM473.002 700.001c3.33301 0 6.83496 -0.500977 10.502 -1.50098s7.5 -1.83301 11.5 -2.5
c11.333 -4.66699 20.666 -12.5 27.999 -23.5s11 -25.167 11 -42.5c0 -9.33301 -1.33301 -19.5 -4 -30.5s-21.667 -49.167 -57 -114.5c-17.333 -32 -29.666 -62.5 -36.999 -91.5s-10.333 -68.833 -9 -119.5c0.666992 -33.333 2.5 -60.833 5.5 -82.5
s11.167 -61.834 24.5 -120.501c4.66699 -22.667 5.83398 -39.167 3.50098 -49.5s-7.5 -18.166 -15.5 -23.499c-4 -2 -8.16699 -3.83301 -12.5 -5.5s-8.5 -2.5 -12.5 -2.5c-6.66699 0 -13.167 1 -19.5 3s-12.166 4.66699 -17.499 8
c-9.33301 5.33301 -18.5 14.166 -27.5 26.499s-18.167 29.166 -27.5 50.499c-12 25.333 -22.833 53.5 -32.5 84.5s-17.834 63.167 -24.501 96.5c-23.333 112 -39.833 179.167 -49.5 201.5s-22.167 37.833 -37.5 46.5l-58 32c-21.333 11.333 -34.833 30.5 -40.5 57.5
s-1.83398 50.5 11.499 70.5c6.66699 10.667 15.5 18.834 26.5 24.501s23.833 8.5 38.5 8.5c9.33301 0 18.666 -1.5 27.999 -4.5s18.333 -6.83301 27 -11.5c19.333 -12.667 36 -33.5 50 -62.5s27 -71.5 39 -127.5c15.333 -74.667 25.333 -122.167 30 -142.5
s10 -41.5 16 -63.5c-2 20.667 -3.5 41 -4.5 61s-1.5 43 -1.5 69c-1.33301 70.667 5.66699 130.334 21 179.001s38.666 80.334 69.999 95.001c5.33301 2 11 3.66699 17 5s12.333 2.33301 19 3zM162.004 497c9.33301 0 18.333 -4.50293 27 -13.5029s16 -21.167 22 -36.5
c9.33301 -27.333 16.666 -68.666 21.999 -123.999s8 -124 8 -206c0 -91.333 -6.16699 -161.666 -18.5 -210.999s-32.5 -81 -60.5 -95c-11.333 -5.33301 -24.166 -7.83301 -38.499 -7.5s-26.833 3.5 -37.5 9.5c-22 13.333 -34 34 -36 62s6.66699 61.667 26 101
c31.333 64.667 50 114.334 56 149.001s9 75.667 9 123s-0.5 83.5 -1.5 108.5s-2.5 43.833 -4.5 56.5c-4.66699 25.333 -6.16699 42.833 -4.5 52.5s5.83398 17.5 12.501 23.5c2.66699 2 5.66699 3.83301 9 5.5s6.66602 2.5 9.99902 2.5z" />
    <glyph glyph-name="afii10101" unicode="&#xba;" horiz-adv-x="293" 
d="M184 490c7.33301 0 14.5029 -0.667969 21.5029 -2.00098s13.833 -3.33301 20.5 -6c14.667 -7.33301 26 -17.333 34 -30s12.333 -26.334 13 -41.001c-0.666992 -19.333 -6.66699 -35 -18 -47s-26 -18 -44 -18c-7.33301 0 -13.833 0.833008 -19.5 2.5
s-12.167 4.83398 -19.5 9.50098c-10 6 -17.667 8.5 -23 7.5s-10.333 -4.16699 -15 -9.5c-6 -6.66699 -11.167 -18.167 -15.5 -34.5s-6.16602 -33.166 -5.49902 -50.499c7.33301 -1.33301 14 -1 20 1s10.667 5.33301 14 10c10.667 13.333 19.5 21.666 26.5 24.999
s15.167 5 24.5 5c14.667 0 27.5 -4.83301 38.5 -14.5s16.5 -22.5 16.5 -38.5c-0.666992 -23.333 -9.83398 -40.5 -27.501 -51.5s-43.834 -13.5 -78.501 -7.5l-29 3.5c-2.66699 0.333008 -5.33398 0.833008 -8.00098 1.5c-1.33301 -31.333 1 -54.666 7 -69.999s15 -23 27 -23
c2.66699 0 5.5 0.5 8.5 1.5s6.83301 3.5 11.5 7.5c9.33301 6.66699 17.166 11.167 23.499 13.5s13.166 3.5 20.499 3.5c18 0 33.167 -6.16699 45.5 -18.5s18.5 -27.833 18.5 -46.5c0 -24 -8.66699 -43.667 -26 -59s-39.666 -23.333 -66.999 -24c-18 0 -34.167 2 -48.5 6
s-26.5 9.66699 -36.5 17c-24 16 -42.333 41.667 -55 77s-19 81 -19 137c0 64 7.5 115.833 22.5 155.5s39.167 69.167 72.5 88.5c10 6 21 10.667 33 14s24 5 36 5z" />
    <glyph glyph-name="afii10101" unicode="&#x454;" horiz-adv-x="293" 
d="M184 490c7.33301 0 14.5029 -0.667969 21.5029 -2.00098s13.833 -3.33301 20.5 -6c14.667 -7.33301 26 -17.333 34 -30s12.333 -26.334 13 -41.001c-0.666992 -19.333 -6.66699 -35 -18 -47s-26 -18 -44 -18c-7.33301 0 -13.833 0.833008 -19.5 2.5
s-12.167 4.83398 -19.5 9.50098c-10 6 -17.667 8.5 -23 7.5s-10.333 -4.16699 -15 -9.5c-6 -6.66699 -11.167 -18.167 -15.5 -34.5s-6.16602 -33.166 -5.49902 -50.499c7.33301 -1.33301 14 -1 20 1s10.667 5.33301 14 10c10.667 13.333 19.5 21.666 26.5 24.999
s15.167 5 24.5 5c14.667 0 27.5 -4.83301 38.5 -14.5s16.5 -22.5 16.5 -38.5c-0.666992 -23.333 -9.83398 -40.5 -27.501 -51.5s-43.834 -13.5 -78.501 -7.5l-29 3.5c-2.66699 0.333008 -5.33398 0.833008 -8.00098 1.5c-1.33301 -31.333 1 -54.666 7 -69.999s15 -23 27 -23
c2.66699 0 5.5 0.5 8.5 1.5s6.83301 3.5 11.5 7.5c9.33301 6.66699 17.166 11.167 23.499 13.5s13.166 3.5 20.499 3.5c18 0 33.167 -6.16699 45.5 -18.5s18.5 -27.833 18.5 -46.5c0 -24 -8.66699 -43.667 -26 -59s-39.666 -23.333 -66.999 -24c-18 0 -34.167 2 -48.5 6
s-26.5 9.66699 -36.5 17c-24 16 -42.333 41.667 -55 77s-19 81 -19 137c0 64 7.5 115.833 22.5 155.5s39.167 69.167 72.5 88.5c10 6 21 10.667 33 14s24 5 36 5z" />
    <glyph glyph-name="guillemotright" unicode="&#xbb;" horiz-adv-x="461" 
d="M292 511c2 -0.666992 4.16699 -1.32715 6.5 -1.99414s5.16602 -2 8.49902 -4c9.33301 -7.33301 22.666 -26.833 39.999 -58.5s33 -64.5 47 -98.5c5.33301 -14.667 9.5 -27.667 12.5 -39s4.5 -21.666 4.5 -30.999c0 -10 -1.5 -20.667 -4.5 -32s-7.16699 -24 -12.5 -38
c-14 -34.667 -29.667 -67.834 -47 -99.501s-30.666 -50.834 -39.999 -57.501c-3.33301 -2.66699 -6.16602 -4.33398 -8.49902 -5.00098s-4.5 -1 -6.5 -1c-3.33301 0 -6.66602 0.833008 -9.99902 2.5s-6.33301 4.16699 -9 7.5c-8 7.33301 -16.5 22.333 -25.5 45
s-13.167 39.667 -12.5 51c-0.666992 9.33301 2.33301 19.666 9 30.999s17.667 26 33 44c12.667 14.667 21.167 25.667 25.5 33s6.5 13.666 6.5 18.999s-2.66699 12 -8 20s-14.666 20 -27.999 36c-14.667 15.333 -24.5 28.166 -29.5 38.499s-7.5 21.166 -7.5 32.499
c-0.666992 11.333 3.16602 28 11.499 50s16.833 37.333 25.5 46c2.66699 2.66699 5.66699 5 9 7s6.66602 3 9.99902 3zM107 511.007c2 -0.666992 4.16699 -1.32617 6.5 -1.99316s5.16602 -2 8.49902 -4c9.33301 -7.33301 22.666 -26.833 39.999 -58.5s33 -64.5 47 -98.5
c11.333 -28 17 -51.5 17 -70.5s-5.66699 -42.167 -17 -69.5c-14 -34.667 -29.667 -67.834 -47 -99.501s-30.666 -50.834 -39.999 -57.501c-6.66699 -4.66699 -12.667 -6.83398 -18 -6.50098s-10.666 3.83301 -15.999 10.5c-8 7.33301 -16.5 22.333 -25.5 45
s-13.167 39.667 -12.5 51c0 9.33301 3.16699 19.666 9.5 30.999s17.166 26 32.499 44c12.667 14.667 21.167 25.667 25.5 33s6.5 13.666 6.5 18.999s-2.66699 12 -8 20s-14.666 20 -27.999 36c-14.667 15.333 -24.667 28.166 -30 38.499s-7.66602 21.166 -6.99902 32.499
c0 11.333 4 28 12 50s16.333 37.333 25 46c2.66699 2.66699 5.66699 5 9 7s6.66602 3 9.99902 3z" />
    <glyph glyph-name="afii10105" unicode="&#xbc;" horiz-adv-x="203" 
d="M61 41l0.000976562 348.002c0 38.667 5 65.167 15 79.5s25.333 21.5 46 21.5c17.333 0 31.666 -6 42.999 -18s17.333 -27.667 18 -47c0 -6.66699 -1 -13.167 -3 -19.5s-7.66699 -18.5 -17 -36.5c-6.66699 -12.667 -10.667 -23.834 -12 -33.501s-2 -24.834 -2 -45.501
v-299c-0.666992 -49.333 -5.83398 -88 -15.501 -116s-23.5 -48.667 -41.5 -62c-14.667 -10 -31.667 -15.167 -51 -15.5s-35.333 4.5 -48 14.5c-14.667 12.667 -22.167 29.5 -22.5 50.5s5.83398 38.5 18.501 52.5c5.33301 6 15.5 14.333 30.5 25s25.5 21.334 31.5 32.001
c3.33301 7.33301 5.83301 15.166 7.5 23.499s2.5 23.5 2.5 45.5zM123.001 686.002c18.667 0 33.167 -6.16504 43.5 -18.498s15.5 -28.833 15.5 -49.5c0 -24.667 -5.16699 -42.834 -15.5 -54.501s-24.833 -17.5 -43.5 -17.5c-20.667 0 -36 6.66699 -46 20
s-15 30.666 -15 51.999c0 20.667 5.33301 37.167 16 49.5s25.667 18.5 45 18.5z" />
    <glyph glyph-name="afii10105" unicode="&#x458;" horiz-adv-x="203" 
d="M61 41l0.000976562 348.002c0 38.667 5 65.167 15 79.5s25.333 21.5 46 21.5c17.333 0 31.666 -6 42.999 -18s17.333 -27.667 18 -47c0 -6.66699 -1 -13.167 -3 -19.5s-7.66699 -18.5 -17 -36.5c-6.66699 -12.667 -10.667 -23.834 -12 -33.501s-2 -24.834 -2 -45.501
v-299c-0.666992 -49.333 -5.83398 -88 -15.501 -116s-23.5 -48.667 -41.5 -62c-14.667 -10 -31.667 -15.167 -51 -15.5s-35.333 4.5 -48 14.5c-14.667 12.667 -22.167 29.5 -22.5 50.5s5.83398 38.5 18.501 52.5c5.33301 6 15.5 14.333 30.5 25s25.5 21.334 31.5 32.001
c3.33301 7.33301 5.83301 15.166 7.5 23.499s2.5 23.5 2.5 45.5zM123.001 686.002c18.667 0 33.167 -6.16504 43.5 -18.498s15.5 -28.833 15.5 -49.5c0 -24.667 -5.16699 -42.834 -15.5 -54.501s-24.833 -17.5 -43.5 -17.5c-20.667 0 -36 6.66699 -46 20
s-15 30.666 -15 51.999c0 20.667 5.33301 37.167 16 49.5s25.667 18.5 45 18.5z" />
    <glyph glyph-name="afii10054" unicode="&#xbd;" horiz-adv-x="401" 
d="M216 700c7.33301 0 14.8311 -0.666016 22.498 -1.99902s15.5 -3 23.5 -5c24.667 -8 43.834 -20.5 57.501 -37.5s20.5 -37.167 20.5 -60.5c-0.666992 -22 -8.66699 -41 -24 -57s-36.333 -24 -63 -24c-8 -0.666992 -15 -0.166992 -21 1.5s-12.667 5.16699 -20 10.5
c-9.33301 5.33301 -16 8.5 -20 9.5s-7.66699 1.16699 -11 0.5c-7.33301 -2 -12.5 -6.33301 -15.5 -13s-2.5 -14 1.5 -22c2 -6 8.5 -15.667 19.5 -29s26.5 -30.333 46.5 -51c61.333 -66.667 98 -115 110 -145s18 -61 18 -93c-0.666992 -42 -7.83398 -77.333 -21.501 -106
s-32.5 -50.334 -56.5 -65.001c-12.667 -8 -26.5 -13.667 -41.5 -17s-30.5 -5 -46.5 -5c-10.667 0 -21.167 0.833008 -31.5 2.5s-20.166 4.16699 -29.499 7.5c-28.667 9.33301 -51.5 24 -68.5 44s-25.5 43.333 -25.5 70c0 22.667 7.66699 42 23 58s35.333 24 60 24
c11.333 -0.666992 22.5 -3 33.5 -7s21.833 -10 32.5 -18c13.333 -11.333 23.333 -17.166 30 -17.499s13 3.16699 19 10.5s8.16699 17 6.5 29s-7.16699 25.667 -16.5 41l-26.5 35.5c-11 14.333 -33.5 42.166 -67.5 83.499c-35.333 42 -58.5 75.667 -69.5 101
s-16.5 51 -16.5 77c-0.666992 32.667 6.83301 62.667 22.5 90s37.5 48 65.5 62c11.333 5.33301 23.833 9.5 37.5 12.5s27.834 4.5 42.501 4.5z" />
    <glyph glyph-name="afii10054" unicode="&#x405;" horiz-adv-x="401" 
d="M216 700c7.33301 0 14.8311 -0.666016 22.498 -1.99902s15.5 -3 23.5 -5c24.667 -8 43.834 -20.5 57.501 -37.5s20.5 -37.167 20.5 -60.5c-0.666992 -22 -8.66699 -41 -24 -57s-36.333 -24 -63 -24c-8 -0.666992 -15 -0.166992 -21 1.5s-12.667 5.16699 -20 10.5
c-9.33301 5.33301 -16 8.5 -20 9.5s-7.66699 1.16699 -11 0.5c-7.33301 -2 -12.5 -6.33301 -15.5 -13s-2.5 -14 1.5 -22c2 -6 8.5 -15.667 19.5 -29s26.5 -30.333 46.5 -51c61.333 -66.667 98 -115 110 -145s18 -61 18 -93c-0.666992 -42 -7.83398 -77.333 -21.501 -106
s-32.5 -50.334 -56.5 -65.001c-12.667 -8 -26.5 -13.667 -41.5 -17s-30.5 -5 -46.5 -5c-10.667 0 -21.167 0.833008 -31.5 2.5s-20.166 4.16699 -29.499 7.5c-28.667 9.33301 -51.5 24 -68.5 44s-25.5 43.333 -25.5 70c0 22.667 7.66699 42 23 58s35.333 24 60 24
c11.333 -0.666992 22.5 -3 33.5 -7s21.833 -10 32.5 -18c13.333 -11.333 23.333 -17.166 30 -17.499s13 3.16699 19 10.5s8.16699 17 6.5 29s-7.16699 25.667 -16.5 41l-26.5 35.5c-11 14.333 -33.5 42.166 -67.5 83.499c-35.333 42 -58.5 75.667 -69.5 101
s-16.5 51 -16.5 77c-0.666992 32.667 6.83301 62.667 22.5 90s37.5 48 65.5 62c11.333 5.33301 23.833 9.5 37.5 12.5s27.834 4.5 42.501 4.5z" />
    <glyph glyph-name="afii10102" unicode="&#xbe;" horiz-adv-x="288" 
d="M150 490c28.667 0 52.834 -8.16309 72.501 -24.4961s29.5 -36.5 29.5 -60.5c-0.666992 -24.667 -10.334 -42.334 -29.001 -53.001s-38 -10.667 -58 0c-11.333 5.33301 -19 7.83301 -23 7.5s-7 -1.5 -9 -3.5c-5.33301 -5.33301 -5.83301 -12.833 -1.5 -22.5
s28.833 -36.834 73.5 -81.501c20.667 -21.333 36.334 -43.5 47.001 -66.5s16 -45.833 16 -68.5c0 -34.667 -12 -64.334 -36 -89.001s-55.667 -37.334 -95 -38.001c-37.333 0 -66.166 8.83301 -86.499 26.5s-30.5 39.834 -30.5 66.501c0 19.333 6 34.666 18 45.999
s27.667 17 47 17c6 0 11.5 -0.833008 16.5 -2.5s13.833 -6.5 26.5 -14.5c11.333 -8 21.166 -10.667 29.499 -8s12.5 9.66699 12.5 21c0 7.33301 -3.66699 16 -11 26s-33 40 -77 90c-21.333 23.333 -35.666 44 -42.999 62s-11 36.333 -11 55
c-0.666992 34 10.666 61.667 33.999 83s52.666 32 87.999 32z" />
    <glyph glyph-name="afii10102" unicode="&#x455;" horiz-adv-x="288" 
d="M150 490c28.667 0 52.834 -8.16309 72.501 -24.4961s29.5 -36.5 29.5 -60.5c-0.666992 -24.667 -10.334 -42.334 -29.001 -53.001s-38 -10.667 -58 0c-11.333 5.33301 -19 7.83301 -23 7.5s-7 -1.5 -9 -3.5c-5.33301 -5.33301 -5.83301 -12.833 -1.5 -22.5
s28.833 -36.834 73.5 -81.501c20.667 -21.333 36.334 -43.5 47.001 -66.5s16 -45.833 16 -68.5c0 -34.667 -12 -64.334 -36 -89.001s-55.667 -37.334 -95 -38.001c-37.333 0 -66.166 8.83301 -86.499 26.5s-30.5 39.834 -30.5 66.501c0 19.333 6 34.666 18 45.999
s27.667 17 47 17c6 0 11.5 -0.833008 16.5 -2.5s13.833 -6.5 26.5 -14.5c11.333 -8 21.166 -10.667 29.499 -8s12.5 9.66699 12.5 21c0 7.33301 -3.66699 16 -11 26s-33 40 -77 90c-21.333 23.333 -35.666 44 -42.999 62s-11 36.333 -11 55
c-0.666992 34 10.666 61.667 33.999 83s52.666 32 87.999 32z" />
    <glyph glyph-name="afii10104" unicode="&#xbf;" horiz-adv-x="188" 
d="M53 80l-0.000976562 233.999c0 8.66699 -0.666992 15.834 -2 21.501s-7.66602 18.834 -18.999 39.501c-12 19.333 -15.833 39.5 -11.5 60.5s15.166 36.5 32.499 46.5c4 2 9 3.83301 15 5.5s12.667 2.5 20 2.5c4.66699 0 9.16699 -0.833008 13.5 -2.5
s8.83301 -3.83398 13.5 -6.50098c9.33301 -6.66699 16 -15 20 -25s6 -30.333 6 -61v-228c0 -11.333 0.5 -19.5 1.5 -24.5s3.16699 -10.833 6.5 -17.5c10.667 -21.333 17.167 -36 19.5 -44s3.5 -16 3.5 -24c0 -20 -5.33301 -36.167 -16 -48.5s-24 -18.5 -40 -18.5
c-21.333 0 -37.166 7.5 -47.499 22.5s-15.5 37.5 -15.5 67.5zM160.999 685.999c19.333 0 34 -6.33105 44 -18.998s15 -29 15 -49c0 -24.667 -5.16699 -42.834 -15.5 -54.501s-24.833 -17.5 -43.5 -17.5c-20.667 0 -36 6.66699 -46 20s-15 30.666 -15 51.999
c0 20.667 5.33301 37.167 16 49.5s25.667 18.5 45 18.5zM18.999 686.001c18 -0.666992 32 -7.33301 42 -20s15 -28.667 15 -48c0 -24.667 -5.16699 -42.834 -15.5 -54.501s-24.833 -17.5 -43.5 -17.5c-20 0 -35.167 6.33301 -45.5 19s-15.5 30.334 -15.5 53.001
c0 20 5.5 36.5 16.5 49.5s26.5 19.167 46.5 18.5z" />
    <glyph glyph-name="afii10104" unicode="&#x457;" horiz-adv-x="188" 
d="M53 80l-0.000976562 233.999c0 8.66699 -0.666992 15.834 -2 21.501s-7.66602 18.834 -18.999 39.501c-12 19.333 -15.833 39.5 -11.5 60.5s15.166 36.5 32.499 46.5c4 2 9 3.83301 15 5.5s12.667 2.5 20 2.5c4.66699 0 9.16699 -0.833008 13.5 -2.5
s8.83301 -3.83398 13.5 -6.50098c9.33301 -6.66699 16 -15 20 -25s6 -30.333 6 -61v-228c0 -11.333 0.5 -19.5 1.5 -24.5s3.16699 -10.833 6.5 -17.5c10.667 -21.333 17.167 -36 19.5 -44s3.5 -16 3.5 -24c0 -20 -5.33301 -36.167 -16 -48.5s-24 -18.5 -40 -18.5
c-21.333 0 -37.166 7.5 -47.499 22.5s-15.5 37.5 -15.5 67.5zM160.999 685.999c19.333 0 34 -6.33105 44 -18.998s15 -29 15 -49c0 -24.667 -5.16699 -42.834 -15.5 -54.501s-24.833 -17.5 -43.5 -17.5c-20.667 0 -36 6.66699 -46 20s-15 30.666 -15 51.999
c0 20.667 5.33301 37.167 16 49.5s25.667 18.5 45 18.5zM18.999 686.001c18 -0.666992 32 -7.33301 42 -20s15 -28.667 15 -48c0 -24.667 -5.16699 -42.834 -15.5 -54.501s-24.833 -17.5 -43.5 -17.5c-20 0 -35.167 6.33301 -45.5 19s-15.5 30.334 -15.5 53.001
c0 20 5.5 36.5 16.5 49.5s26.5 19.167 46.5 18.5z" />
    <glyph glyph-name="afii10017" unicode="&#xc0;" horiz-adv-x="536" 
d="M349 71l-0.00585938 78.999c-10.667 20.667 -21.5 38.834 -32.5 54.501s-21.833 28.834 -32.5 39.501c-4 -110 -12.167 -197.333 -24.5 -262s-29.166 -109.667 -50.499 -135c-12 -12.667 -26.333 -23.334 -43 -32.001s-31.667 -13 -45 -13
c-22 0 -39.833 6.83301 -53.5 20.5s-20.5 32.167 -20.5 55.5c-0.666992 20.667 3.33301 39.167 12 55.5s24.334 33.833 47.001 52.5c28 24 45.833 48.167 53.5 72.5s19.834 98.5 36.501 222.5c-4 1.33301 -7.5 1.66602 -10.5 0.999023s-6.83301 -3.33398 -11.5 -8.00098
c-13.333 -14 -24.666 -23.167 -33.999 -27.5s-19.333 -6.5 -30 -6.5c-19.333 0 -35.166 6.83301 -47.499 20.5s-18.166 31.167 -17.499 52.5c0 24 10.5 45.167 31.5 63.5s46.833 27.5 77.5 27.5c10 0 19.333 -1.16699 28 -3.5s17.667 -5.83301 27 -10.5
c12 92 24.333 153.667 37 185s30 58.333 52 81c13.333 14 28 24.833 44 32.5s33.667 11.5 53 11.5c28 0 51 -8.66699 69 -26s27 -38.666 27 -63.999c0 -13.333 -3.5 -26 -10.5 -38s-16.167 -21 -27.5 -27l-9 -5l-72 1c-10 0 -18 -2.16699 -24 -6.5s-11.333 -11.5 -16 -21.5
c-8 -15.333 -15.333 -41.666 -22 -78.999s-10.667 -72.666 -12 -105.999c10.667 -11.333 20.167 -23.5 28.5 -36.5s17.833 -30.5 28.5 -52.5h3l5 240c0 14.667 2.66699 25.5 8 32.5s13.333 10.5 24 10.5c11.333 0 20.166 -3.33301 26.499 -10s10.5 -18 12.5 -34l29 -307
c8 -91.333 7.33301 -144.333 -2 -159s-25.666 -22 -48.999 -22c-22 0 -38 6.66699 -48 20s-15 33.666 -15 60.999z" />
    <glyph glyph-name="afii10017" unicode="&#x410;" horiz-adv-x="536" 
d="M349 71l-0.00585938 78.999c-10.667 20.667 -21.5 38.834 -32.5 54.501s-21.833 28.834 -32.5 39.501c-4 -110 -12.167 -197.333 -24.5 -262s-29.166 -109.667 -50.499 -135c-12 -12.667 -26.333 -23.334 -43 -32.001s-31.667 -13 -45 -13
c-22 0 -39.833 6.83301 -53.5 20.5s-20.5 32.167 -20.5 55.5c-0.666992 20.667 3.33301 39.167 12 55.5s24.334 33.833 47.001 52.5c28 24 45.833 48.167 53.5 72.5s19.834 98.5 36.501 222.5c-4 1.33301 -7.5 1.66602 -10.5 0.999023s-6.83301 -3.33398 -11.5 -8.00098
c-13.333 -14 -24.666 -23.167 -33.999 -27.5s-19.333 -6.5 -30 -6.5c-19.333 0 -35.166 6.83301 -47.499 20.5s-18.166 31.167 -17.499 52.5c0 24 10.5 45.167 31.5 63.5s46.833 27.5 77.5 27.5c10 0 19.333 -1.16699 28 -3.5s17.667 -5.83301 27 -10.5
c12 92 24.333 153.667 37 185s30 58.333 52 81c13.333 14 28 24.833 44 32.5s33.667 11.5 53 11.5c28 0 51 -8.66699 69 -26s27 -38.666 27 -63.999c0 -13.333 -3.5 -26 -10.5 -38s-16.167 -21 -27.5 -27l-9 -5l-72 1c-10 0 -18 -2.16699 -24 -6.5s-11.333 -11.5 -16 -21.5
c-8 -15.333 -15.333 -41.666 -22 -78.999s-10.667 -72.666 -12 -105.999c10.667 -11.333 20.167 -23.5 28.5 -36.5s17.833 -30.5 28.5 -52.5h3l5 240c0 14.667 2.66699 25.5 8 32.5s13.333 10.5 24 10.5c11.333 0 20.166 -3.33301 26.499 -10s10.5 -18 12.5 -34l29 -307
c8 -91.333 7.33301 -144.333 -2 -159s-25.666 -22 -48.999 -22c-22 0 -38 6.66699 -48 20s-15 33.666 -15 60.999z" />
    <glyph glyph-name="afii10018" unicode="&#xc1;" horiz-adv-x="426" 
d="M296 700c22.667 0 41.833 -7.16602 57.5 -21.499s23.5 -33.5 23.5 -57.5s-8.5 -44.167 -25.5 -60.5s-38.5 -24.5 -64.5 -24.5c-12.667 0 -26 2 -40 6s-30.667 11 -50 21c-30 14 -54 16.167 -72 6.5s-31.333 -14.5 -40 -14.5c-13.333 0 -24.166 4.33301 -32.499 13
s-12.5 19.667 -12.5 33c0 25.333 15 45.333 45 60s66.667 17.334 110 8.00098c12.667 -3.33301 19.5 -4.83301 20.5 -4.5s12.833 8.16602 35.5 23.499c5.33301 3.33301 11.666 6.16602 18.999 8.49902s16 3.5 26 3.5zM92.999 116.001l21 404.997
c0.666992 14.667 3.83398 25.167 9.50098 31.5s14.167 9.83301 25.5 10.5c11.333 0 19.833 -4.33301 25.5 -13s8.83398 -20.334 9.50098 -35.001v-154c5.33301 32.667 15.666 57.334 30.999 74.001s33.333 25.334 54 26.001c15.333 0 29.5 -4.33301 42.5 -13
s24.5 -21 34.5 -37c12.667 -22 21.667 -49.333 27 -82s8 -87.667 8 -165c0 -89.333 -8 -159.5 -24 -210.5s-40.333 -89.833 -73 -116.5c-22.667 -18 -49.334 -29.167 -80.001 -33.5s-55.334 0.166992 -74.001 13.5c-29.333 21.333 -39 48.5 -29 81.5s40 55.5 90 67.5
c36 9.33301 60.333 24.833 73 46.5s19 56.5 19 104.5v85c-0.666992 34.667 -4 59.334 -10 74.001s-16 22 -30 22c-16.667 -0.666992 -28.667 -8 -36 -22s-10.666 -35.667 -9.99902 -65c0 -18 0.833008 -31.5 2.5 -40.5s9.5 -21.833 23.5 -38.5
c10 -14 17.167 -26.333 21.5 -37s6.5 -21.667 6.5 -33c-0.666992 -22 -7.33398 -39.5 -20.001 -52.5s-28.667 -19.5 -48 -19.5c-29.333 0 -52.166 11.333 -68.499 34s-23.5 53.334 -21.5 92.001z" />
    <glyph glyph-name="afii10018" unicode="&#x411;" horiz-adv-x="426" 
d="M296 700c22.667 0 41.833 -7.16602 57.5 -21.499s23.5 -33.5 23.5 -57.5s-8.5 -44.167 -25.5 -60.5s-38.5 -24.5 -64.5 -24.5c-12.667 0 -26 2 -40 6s-30.667 11 -50 21c-30 14 -54 16.167 -72 6.5s-31.333 -14.5 -40 -14.5c-13.333 0 -24.166 4.33301 -32.499 13
s-12.5 19.667 -12.5 33c0 25.333 15 45.333 45 60s66.667 17.334 110 8.00098c12.667 -3.33301 19.5 -4.83301 20.5 -4.5s12.833 8.16602 35.5 23.499c5.33301 3.33301 11.666 6.16602 18.999 8.49902s16 3.5 26 3.5zM92.999 116.001l21 404.997
c0.666992 14.667 3.83398 25.167 9.50098 31.5s14.167 9.83301 25.5 10.5c11.333 0 19.833 -4.33301 25.5 -13s8.83398 -20.334 9.50098 -35.001v-154c5.33301 32.667 15.666 57.334 30.999 74.001s33.333 25.334 54 26.001c15.333 0 29.5 -4.33301 42.5 -13
s24.5 -21 34.5 -37c12.667 -22 21.667 -49.333 27 -82s8 -87.667 8 -165c0 -89.333 -8 -159.5 -24 -210.5s-40.333 -89.833 -73 -116.5c-22.667 -18 -49.334 -29.167 -80.001 -33.5s-55.334 0.166992 -74.001 13.5c-29.333 21.333 -39 48.5 -29 81.5s40 55.5 90 67.5
c36 9.33301 60.333 24.833 73 46.5s19 56.5 19 104.5v85c-0.666992 34.667 -4 59.334 -10 74.001s-16 22 -30 22c-16.667 -0.666992 -28.667 -8 -36 -22s-10.666 -35.667 -9.99902 -65c0 -18 0.833008 -31.5 2.5 -40.5s9.5 -21.833 23.5 -38.5
c10 -14 17.167 -26.333 21.5 -37s6.5 -21.667 6.5 -33c-0.666992 -22 -7.33398 -39.5 -20.001 -52.5s-28.667 -19.5 -48 -19.5c-29.333 0 -52.166 11.333 -68.499 34s-23.5 53.334 -21.5 92.001z" />
    <glyph glyph-name="afii10019" unicode="&#xc2;" horiz-adv-x="444" 
d="M187 468l7.00195 -105.998c23.333 23.333 42.166 46 56.499 68s21.5 41 21.5 57c-0.666992 18.667 -6.16699 33.334 -16.5 44.001s-24.5 16 -42.5 16c-10.667 0 -25.667 -1.83301 -45 -5.5s-33.666 -5.5 -42.999 -5.5c-26 0 -46.833 6.83301 -62.5 20.5
s-23.5 32.5 -23.5 56.5c-0.666992 27.333 9.33301 48.666 30 63.999s57 23 109 23c18 0 33.5 -0.666992 46.5 -2s25.5 -3 37.5 -5c36.667 -8.66699 66 -25.5 88 -50.5s33 -57.833 33 -98.5c0 -34 -6.66699 -67.333 -20 -100s-33.333 -61 -60 -85
c28.667 -24.667 51 -56.334 67 -95.001s24 -83.667 24 -135c0 -70 -18.667 -133.333 -56 -190s-83.666 -97 -138.999 -121c-50 -20.667 -90.667 -22.834 -122 -6.50098s-47 41.5 -47 75.5c-0.666992 22 5.66602 39.667 18.999 53s44 22 92 26c42 4 76.667 22.667 104 56
s41.333 77 42 131c0 29.333 -3.5 55.166 -10.5 77.499s-18.833 43.5 -35.5 63.5l-42 -40l15 -196c1.33301 -20.667 -4 -37.167 -16 -49.5s-28.667 -18.5 -50 -18.5c-18 0.666992 -32.667 7.5 -44 20.5s-16.333 29.167 -15 48.5l28 406
c1.33301 24.667 4.66602 40.167 9.99902 46.5s13.666 9.83301 24.999 10.5c10 0 17.833 -3.16699 23.5 -9.5s9.5 -21.166 11.5 -44.499z" />
    <glyph glyph-name="afii10019" unicode="&#x412;" horiz-adv-x="444" 
d="M187 468l7.00195 -105.998c23.333 23.333 42.166 46 56.499 68s21.5 41 21.5 57c-0.666992 18.667 -6.16699 33.334 -16.5 44.001s-24.5 16 -42.5 16c-10.667 0 -25.667 -1.83301 -45 -5.5s-33.666 -5.5 -42.999 -5.5c-26 0 -46.833 6.83301 -62.5 20.5
s-23.5 32.5 -23.5 56.5c-0.666992 27.333 9.33301 48.666 30 63.999s57 23 109 23c18 0 33.5 -0.666992 46.5 -2s25.5 -3 37.5 -5c36.667 -8.66699 66 -25.5 88 -50.5s33 -57.833 33 -98.5c0 -34 -6.66699 -67.333 -20 -100s-33.333 -61 -60 -85
c28.667 -24.667 51 -56.334 67 -95.001s24 -83.667 24 -135c0 -70 -18.667 -133.333 -56 -190s-83.666 -97 -138.999 -121c-50 -20.667 -90.667 -22.834 -122 -6.50098s-47 41.5 -47 75.5c-0.666992 22 5.66602 39.667 18.999 53s44 22 92 26c42 4 76.667 22.667 104 56
s41.333 77 42 131c0 29.333 -3.5 55.166 -10.5 77.499s-18.833 43.5 -35.5 63.5l-42 -40l15 -196c1.33301 -20.667 -4 -37.167 -16 -49.5s-28.667 -18.5 -50 -18.5c-18 0.666992 -32.667 7.5 -44 20.5s-16.333 29.167 -15 48.5l28 406
c1.33301 24.667 4.66602 40.167 9.99902 46.5s13.666 9.83301 24.999 10.5c10 0 17.833 -3.16699 23.5 -9.5s9.5 -21.166 11.5 -44.499z" />
    <glyph glyph-name="afii10020" unicode="&#xc3;" horiz-adv-x="392" 
d="M128 699c4.66699 0 10.166 -0.334961 16.499 -1.00195s14.5 -1.66699 24.5 -3c11.333 -2 24.333 -4.5 39 -7.5s25.334 -4.5 32.001 -4.5c5.33301 -0.666992 10.5 -0.5 15.5 0.5s18.833 5.16699 41.5 12.5c4.66699 1.33301 8.5 2.33301 11.5 3s5.83301 1 8.5 1
c12.667 0 23.334 -4.66699 32.001 -14s13 -20.666 13 -33.999c0 -21.333 -8 -38.666 -24 -51.999s-38 -19.666 -66 -18.999c-6 0 -14.833 0.333008 -26.5 1s-20.167 1 -25.5 1c-12 -0.666992 -21.833 -1.83398 -29.5 -3.50098s-15.834 -5.5 -24.501 -11.5
c-20 -12 -34.333 -19.333 -43 -22s-17 -4 -25 -4c-18.667 -0.666992 -34.667 5.33301 -48 18s-20 30 -20 52c0 24 8.83301 44.5 26.5 61.5s41.5 25.5 71.5 25.5zM213.999 568.998c3.33301 0 6.33105 -0.330078 8.99805 -0.99707l8 -2c10.667 -5.33301 17 -12.5 19 -21.5
s-1 -24.833 -9 -47.5c-6 -16 -9.16699 -35.333 -9.5 -58s2.5 -49.334 8.5 -80.001c20.667 -114.667 30.834 -172 30.501 -172s-0.166016 -10 0.500977 -30c0 -49.333 -11.167 -89.5 -33.5 -120.5s-52.833 -46.5 -91.5 -46.5c-26 0 -46.667 7.66699 -62 23s-23 33.333 -23 54
c0 18 4 33.833 12 47.5s24 29.834 48 48.501c13.333 10.667 21.833 20 25.5 28s5.5 20.333 5.5 37c0 8.66699 -0.333008 18.167 -1 28.5s-2.66699 37.166 -6 80.499c-2 22.667 -3.5 40.167 -4.5 52.5s-1.16699 24.166 -0.5 35.499c0 43.333 6.33301 78.166 19 104.499
s31 39.5 55 39.5z" />
    <glyph glyph-name="afii10020" unicode="&#x413;" horiz-adv-x="392" 
d="M128 699c4.66699 0 10.166 -0.334961 16.499 -1.00195s14.5 -1.66699 24.5 -3c11.333 -2 24.333 -4.5 39 -7.5s25.334 -4.5 32.001 -4.5c5.33301 -0.666992 10.5 -0.5 15.5 0.5s18.833 5.16699 41.5 12.5c4.66699 1.33301 8.5 2.33301 11.5 3s5.83301 1 8.5 1
c12.667 0 23.334 -4.66699 32.001 -14s13 -20.666 13 -33.999c0 -21.333 -8 -38.666 -24 -51.999s-38 -19.666 -66 -18.999c-6 0 -14.833 0.333008 -26.5 1s-20.167 1 -25.5 1c-12 -0.666992 -21.833 -1.83398 -29.5 -3.50098s-15.834 -5.5 -24.501 -11.5
c-20 -12 -34.333 -19.333 -43 -22s-17 -4 -25 -4c-18.667 -0.666992 -34.667 5.33301 -48 18s-20 30 -20 52c0 24 8.83301 44.5 26.5 61.5s41.5 25.5 71.5 25.5zM213.999 568.998c3.33301 0 6.33105 -0.330078 8.99805 -0.99707l8 -2c10.667 -5.33301 17 -12.5 19 -21.5
s-1 -24.833 -9 -47.5c-6 -16 -9.16699 -35.333 -9.5 -58s2.5 -49.334 8.5 -80.001c20.667 -114.667 30.834 -172 30.501 -172s-0.166016 -10 0.500977 -30c0 -49.333 -11.167 -89.5 -33.5 -120.5s-52.833 -46.5 -91.5 -46.5c-26 0 -46.667 7.66699 -62 23s-23 33.333 -23 54
c0 18 4 33.833 12 47.5s24 29.834 48 48.501c13.333 10.667 21.833 20 25.5 28s5.5 20.333 5.5 37c0 8.66699 -0.333008 18.167 -1 28.5s-2.66699 37.166 -6 80.499c-2 22.667 -3.5 40.167 -4.5 52.5s-1.16699 24.166 -0.5 35.499c0 43.333 6.33301 78.166 19 104.499
s31 39.5 55 39.5z" />
    <glyph glyph-name="afii10021" unicode="&#xc4;" horiz-adv-x="450" 
d="M162 700c31.333 0 59.3311 -4.83008 83.998 -14.4971s47 -23.5 67 -41.5c29.333 -28.667 51.166 -65.334 65.499 -110.001s21.5 -98.334 21.5 -161.001c0 -70 -4.66699 -127.5 -14 -172.5s-23.333 -83.167 -42 -114.5c-19.333 -32 -42.5 -56 -69.5 -72
s-59.167 -24 -96.5 -24c-39.333 0 -70.666 8.83301 -93.999 26.5s-34.666 41.167 -33.999 70.5c0 30.667 10.5 52.667 31.5 66s49.5 14.666 85.5 3.99902c19.333 -6.66699 35 -8.66699 47 -6s23.667 9 35 19c14.667 12.667 25.834 31 33.501 55s11.5 62 11.5 114
c-0.666992 57.333 -5 102.5 -13 135.5s-20.667 55.5 -38 67.5c-7.33301 4 -14.5 6.83301 -21.5 8.5s-24.5 -1.5 -52.5 -9.5c-34 -10 -63.333 -7.5 -88 7.5s-36.667 37.167 -36 66.5c0 18.667 6 35.167 18 49.5s29 24.5 51 30.5c6 1.33301 13 2.5 21 3.5s17 1.5 27 1.5z
M192.998 534.003c3.33301 0 6.49902 -0.667969 9.49902 -2.00098s6.16699 -2.66602 9.5 -3.99902c6.66699 -5.33301 11 -12 13 -20s1.33301 -18.333 -2 -31c-2.66699 -9.33301 -5.83398 -18.333 -9.50098 -27s1.83301 -44.334 16.5 -107.001
c11.333 -52 11.166 -93.333 -0.500977 -124s-34.167 -45.667 -67.5 -45c-26 0 -44.667 10.5 -56 31.5s-9.66602 48.167 5.00098 81.5c9.33301 22 15.333 37.167 18 45.5s2.66699 23.5 0 45.5c-3.33301 22 -4.16602 42.833 -2.49902 62.5s5.83398 37.167 12.501 52.5
c5.33301 13.333 12.5 23.333 21.5 30s19.833 10.334 32.5 11.001z" />
    <glyph glyph-name="afii10021" unicode="&#x414;" horiz-adv-x="450" 
d="M162 700c31.333 0 59.3311 -4.83008 83.998 -14.4971s47 -23.5 67 -41.5c29.333 -28.667 51.166 -65.334 65.499 -110.001s21.5 -98.334 21.5 -161.001c0 -70 -4.66699 -127.5 -14 -172.5s-23.333 -83.167 -42 -114.5c-19.333 -32 -42.5 -56 -69.5 -72
s-59.167 -24 -96.5 -24c-39.333 0 -70.666 8.83301 -93.999 26.5s-34.666 41.167 -33.999 70.5c0 30.667 10.5 52.667 31.5 66s49.5 14.666 85.5 3.99902c19.333 -6.66699 35 -8.66699 47 -6s23.667 9 35 19c14.667 12.667 25.834 31 33.501 55s11.5 62 11.5 114
c-0.666992 57.333 -5 102.5 -13 135.5s-20.667 55.5 -38 67.5c-7.33301 4 -14.5 6.83301 -21.5 8.5s-24.5 -1.5 -52.5 -9.5c-34 -10 -63.333 -7.5 -88 7.5s-36.667 37.167 -36 66.5c0 18.667 6 35.167 18 49.5s29 24.5 51 30.5c6 1.33301 13 2.5 21 3.5s17 1.5 27 1.5z
M192.998 534.003c3.33301 0 6.49902 -0.667969 9.49902 -2.00098s6.16699 -2.66602 9.5 -3.99902c6.66699 -5.33301 11 -12 13 -20s1.33301 -18.333 -2 -31c-2.66699 -9.33301 -5.83398 -18.333 -9.50098 -27s1.83301 -44.334 16.5 -107.001
c11.333 -52 11.166 -93.333 -0.500977 -124s-34.167 -45.667 -67.5 -45c-26 0 -44.667 10.5 -56 31.5s-9.66602 48.167 5.00098 81.5c9.33301 22 15.333 37.167 18 45.5s2.66699 23.5 0 45.5c-3.33301 22 -4.16602 42.833 -2.49902 62.5s5.83398 37.167 12.501 52.5
c5.33301 13.333 12.5 23.333 21.5 30s19.833 10.334 32.5 11.001z" />
    <glyph glyph-name="afii10022" unicode="&#xc5;" 
d="M223 700c8.66699 0 17.1631 -0.663086 25.4961 -1.99609s16.833 -3 25.5 -5c25.333 -8 44.5 -20.667 57.5 -38s19.833 -37.333 20.5 -60c0 -21.333 -7 -39.166 -21 -53.499s-30.333 -21.5 -49 -21.5c-6 0 -11.833 0.666992 -17.5 2s-17.5 8.66602 -35.5 21.999
c-14.667 9.33301 -28.167 11 -40.5 5s-18.166 -17.667 -17.499 -35c0 -17.333 4.5 -32.333 13.5 -45s21.5 -22.334 37.5 -29.001c41.333 -18.667 64.666 -31.834 69.999 -39.501s8 -16.834 8 -27.501c-0.666992 -13.333 -5 -24 -13 -32s-17 -12.333 -27 -13
c-44 -4 -65 -5.5 -63 -4.5s2.33301 1.16699 1 0.5c-14 -7.33301 -24.167 -17.666 -30.5 -30.999s-9.5 -35 -9.5 -65c0 -26 4.33301 -46 13 -60s21.667 -21 39 -21h3c1.33301 0 12 4.33301 32 13c4.66699 2 9.83398 3.5 15.501 4.5s11.167 1.83301 16.5 2.5
c22 0 40.333 -8 55 -24s22.334 -35.667 23.001 -59c0 -29.333 -11 -52.333 -33 -69s-52 -25 -90 -25c-20 0 -39.833 2.66699 -59.5 8s-36.834 13.333 -51.501 24c-39.333 26 -64.5 65 -75.5 117s-8.16699 101.667 8.5 149c8.66699 25.333 20.5 46.666 35.5 63.999
s33.833 31.666 56.5 42.999c-26.667 15.333 -47.167 35 -61.5 59s-21.5 53 -21.5 87c0 32.667 7.83301 62.334 23.5 89.001s37.834 46 66.501 58c8.66699 3.33301 18.834 6.16602 30.501 8.49902s24.834 3.5 39.501 3.5z" />
    </font>
</defs>
</svg>
