<?xml version="1.0" standalone="no"?>
<!DOCTYPE svg PUBLIC "-//W3C//DTD SVG 1.1//EN" "http://www.w3.org/Graphics/SVG/1.1/DTD/svg11.dtd" >
<svg>
<metadata>
Created by FontForge 20090914 at Thu Mar 28 00:22:05 2013
 By www-data
(C) Copyright SoftUnion, 1993. Created by N.Vsesvetskii
</metadata>
<defs>
<font id="DynarShadow-Bold" horiz-adv-x="612" >
  <font-face 
    font-family="DynarShadow"
    font-weight="700"
    font-stretch="normal"
    units-per-em="1000"
    panose-1="0 0 0 0 0 0 0 0 0 0"
    ascent="800"
    descent="-200"
    x-height="525.999"
    cap-height="712"
    bbox="-63.999 -305.997 1229 930"
    underline-thickness="50"
    underline-position="-75"
    unicode-range="U+0020-U+2122"
  />
<missing-glyph horiz-adv-x="732" 
d="M45 0v732h642v-732h-642zM642 45v642h-552v-642h552z" />
    <glyph glyph-name=".notdef" horiz-adv-x="732" 
d="M45 0v732h642v-732h-642zM642 45v642h-552v-642h552z" />
    <glyph glyph-name="space" unicode=" " horiz-adv-x="364" 
 />
    <glyph glyph-name="exclam" unicode="!" horiz-adv-x="406" 
d="M129 265h168l28 431h-214l-55 -198h55zM217 7c29.333 0 54.333 10.333 75 31s31 46 31 76c0 29.333 -10.333 54.333 -31 75s-45.667 31 -75 31s-54.333 -10.333 -75 -31s-31 -45.667 -31 -75s10.167 -54.5 30.5 -75.5s45.5 -31.5 75.5 -31.5zM167 -47l-3.00098 3.99902
l-2 4l-45 83c-14.667 20.667 -22 44 -22 70c0 22 6 42.833 18 62.5s27.667 34.834 47 45.501l-46 27l-10 133h-14l-55 100l64 230h243l55 -100l-30 -463h-26l38 -74c10 -19.333 15 -39.666 15 -60.999c0 -32.667 -12 -61.334 -36 -86.001s-52.667 -37 -86 -37
c-22 0 -42.167 5.5 -60.5 16.5s-33.166 26.167 -44.499 45.5z" />
    <glyph glyph-name="quotedbl" unicode="&#x22;" horiz-adv-x="554" 
d="M132 510c-3.33301 -14.667 -7.5 -27.501 -12.5 -38.501s-12.833 -23.167 -23.5 -36.5c43.333 0 82.833 17.5 118.5 52.5s53.5 75.5 53.5 121.5c0 29.333 -10.167 54.5 -30.5 75.5s-45.833 31.5 -76.5 31.5c-30 0 -55 -10.333 -75 -31s-30 -46 -30 -76
c0 -27.333 7.66699 -50 23 -68c13.333 -15.333 31 -25.666 53 -30.999zM63 418.999c3.33301 4 11.001 14.0029 23.001 30.0029c8 10.667 13 17.667 15 21l-35 61l-6 10c-6 8.66699 -10.833 19 -14.5 31s-5.5 24.333 -5.5 37c0 33.333 11.833 62.166 35.5 86.499
s52.167 36.5 85.5 36.5c23.333 0 45 -6.66699 65 -20s35 -30.333 45 -51l30 -56v4c0 33.333 11.833 62.166 35.5 86.499s52.167 36.5 85.5 36.5c25.333 0 48.166 -6.83301 68.499 -20.5s35.5 -32.167 45.5 -55.5l43 -82c14 -22.667 21 -44.334 21 -65.001
c0 -54 -18.667 -98.333 -56 -133c-40.667 -38 -95.667 -57 -165 -57l-55 100c19.333 24.667 32 42 38 52l-23 39c0 -54 -18.667 -98.667 -56 -134c-40.667 -38 -95.667 -57 -165 -57zM393.001 510.002c-3.33301 -14.667 -7.5 -27.501 -12.5 -38.501
s-12.833 -23.167 -23.5 -36.5c43.333 0 82.833 17.5 118.5 52.5s53.5 75.5 53.5 121.5c0 29.333 -10.167 54.5 -30.5 75.5s-45.833 31.5 -76.5 31.5c-30 0 -55 -10.333 -75 -31s-30 -46 -30 -76c0 -27.333 7.66699 -50 23 -68c13.333 -15.333 31 -25.666 53 -30.999z" />
    <glyph glyph-name="numbersign" unicode="#" horiz-adv-x="686" 
d="M235 526h-107l-31 -109h107l-30 -104h-106l-32 -109h107l-55 -188h109l55 188h91l-54 -188h108l55 188h106l32 109h-107l30 104h106l31 109h-107l49 170h-109l-48 -170h-92l49 170h-109zM283 313l30 104h91l-29 -104h-92zM668 612l-20 -70h23l55 -100l-40 -141h-59
l39 -72l-41 -141h-106l-55 -188h-141l-38 70l-21 -70h-142l-55 100l26 88h-23l-55 100l41 141h59l-39 72l40 141h107l48 170h142l30 -100l28 100h142z" />
    <glyph glyph-name="dollar" unicode="$" horiz-adv-x="626" 
d="M401 748l-176 -0.000976562v-45c-56 -18 -97.333 -43.833 -124 -77.5s-40 -78.5 -40 -134.5c0 -52 24.667 -97 74 -135c24 -18.667 70 -43.667 138 -75c49.333 -22.667 74 -41.667 74 -57c0 -14 -7.16699 -24.667 -21.5 -32s-30.833 -11 -49.5 -11
c-30 0 -62.667 10.333 -98 31l-57 34l-36 -194c17.333 -9.33301 38 -18.166 62 -26.499s50 -15.166 78 -20.499v-53h176v57c109.333 34 164 105.333 164 214c0 54.667 -25 100 -75 136c-18 13.333 -64.333 36.333 -139 69c-50 22 -75 43.667 -75 65c0 12 2.5 21 7.5 27
s14.833 9.66699 29.5 11c27.333 0 58.333 -3.83301 93 -11.5s60.667 -17.5 78 -29.5l36 170c-15.333 8 -32.333 15.667 -51 23c-24 9.33301 -46.667 16.666 -68 21.999v43zM209 763.999l207.999 -0.00292969l32 -56c17.333 -6 32.166 -11.833 44.499 -17.5l44.5 -21.5
l55 -100l-43 -206c-12 8 -24.5 14.5 -37.5 19.5s-29.833 10.167 -50.5 15.5c25.333 -13.333 46.333 -28 63 -44c20 -18.667 34.667 -40 44 -64l35 -64c21.333 -32.667 32 -67 32 -103c0 -56 -14.333 -103.667 -43 -143s-69 -67 -121 -83v-61h-208l-35 64
c-16.667 4.66699 -34.334 10.834 -53.001 18.501s-36.667 15.834 -54 24.501l-55 100l42 227l55 -31c-3.33301 4 -10.166 12.833 -20.499 26.5s-17.166 23.834 -20.499 30.501l-51 100c-9.33301 18 -15.666 32.667 -18.999 44c-5.33301 16.667 -8 33.667 -8 51
c0 58 14 105.5 42 142.5s68.667 64.167 122 81.5v49z" />
    <glyph glyph-name="percent" unicode="%" horiz-adv-x="827" 
d="M148 16l99 -60l425 740l-98 57zM767 280l51.999 -90.999c12 -26 20.5 -46.833 25.5 -62.5s7.5 -32.167 7.5 -49.5c0 -50.667 -17.667 -94.334 -53 -131.001s-78 -55 -128 -55c-29.333 0 -58 9.33301 -86 28s-51 42.667 -69 72l-59 103l-149 -260l-127 76l-55 100l140 242
l-2 2c-30 0 -58.667 7.16699 -86 21.5s-48 34.166 -62 59.499l-64 115c-5.33301 10 -10.333 24.5 -15 43.5s-7 34.5 -7 46.5c0 52 17.667 97 53 135s77.333 57 126 57c30 0 57.833 -7.66699 83.5 -23s47.167 -36 64.5 -62l68 -120l143 248l126 -73l55 -100l-134 -232
c31.333 0 60.333 -8.16699 87 -24.5s48.334 -38.166 65.001 -65.499zM208.999 478.001c-13.333 0 -25 6.66699 -35 20s-15 28 -15 44c0 18 4.83301 33.5 14.5 46.5s21.5 19.5 35.5 19.5c14.667 0 27 -6.33301 37 -19s15 -28.667 15 -48c0 -16 -5.16699 -30.5 -15.5 -43.5
s-22.5 -19.5 -36.5 -19.5zM208.999 370.001c46 0 85 16.333 117 49s48 73 48 121c0 48.667 -16 90.167 -48 124.5s-71 51.5 -117 51.5c-45.333 0 -83.833 -17.167 -115.5 -51.5s-47.5 -75.833 -47.5 -124.5c0 -47.333 15.833 -87.5 47.5 -120.5s70.167 -49.5 115.5 -49.5z
M615.999 115.001c-13.333 0 -25 6.66699 -35 20s-15 28 -15 44c0 18 4.83301 33.5 14.5 46.5s21.5 19.5 35.5 19.5c14.667 0 27 -6.33301 37 -19s15 -28.667 15 -48c0 -16 -5.16699 -30.5 -15.5 -43.5s-22.5 -19.5 -36.5 -19.5zM615.999 7.00098c46 0 85 16.333 117 49
s48 73 48 121c0 48.667 -16 90.167 -48 124.5s-71 51.5 -117 51.5c-45.333 0 -83.833 -17.167 -115.5 -51.5s-47.5 -75.833 -47.5 -124.5c0 -47.333 15.833 -87.5 47.5 -120.5s70.167 -49.5 115.5 -49.5z" />
    <glyph glyph-name="ampersand" unicode="&#x26;" horiz-adv-x="665" 
d="M561 16l-0.000976562 280h31l37 155h-68v68l-185 -39v-29h-64c-12.667 0 -22.834 4.5 -30.501 13.5s-11.5 20.167 -11.5 33.5c0 12 4.33301 22.333 13 31s19 13 31 13c8.66699 0 16.334 -1.16699 23.001 -3.5s13.667 -6.5 21 -12.5l78 140
c-20.667 17.333 -42.5 30 -65.5 38s-47.5 12 -73.5 12c-62 0 -115 -19 -159 -57s-66 -84.333 -66 -139c0 -31.333 8.33301 -61.333 25 -90s36 -47 58 -55c-27.333 -8 -50.666 -27.333 -69.999 -58s-29 -63.667 -29 -99c0 -56 17.333 -103.667 52 -143s76.667 -59 126 -59
h327zM375.999 296v-117h-56c-15.333 0 -28.666 5.33301 -39.999 16s-17 24 -17 40c0 16.667 5.66699 31 17 43s24.666 18 39.999 18h56zM296.999 732c28 0 54.833 -4.83301 80.5 -14.5s51.834 -25.5 78.501 -47.5l55 -100l-25 -51l91 20l39 -72h33l55 -100l-44 -187h-28
v-280h-343c-28.667 0 -59.167 8.5 -91.5 25.5s-54.5 36.833 -66.5 59.5l-66 126c-6 12 -11.667 29.167 -17 51.5s-8 40.833 -8 55.5c0 36 8.66699 69 26 99c14.667 25.333 33.667 45.333 57 60c-20.667 18 -36.334 36.667 -47.001 56c-13.333 24.667 -20 53.667 -20 87
c0 58 23.833 107.833 71.5 149.5s104.167 62.5 169.5 62.5z" />
    <glyph glyph-name="quotesingle" unicode="'" horiz-adv-x="314" 
d="M127 510c-3.33301 -14.667 -7.5 -27.501 -12.5 -38.501s-12.833 -23.167 -23.5 -36.5c43.333 0 82.833 17.5 118.5 52.5s53.5 75.5 53.5 121.5c0 29.333 -10.167 54.5 -30.5 75.5s-45.833 31.5 -76.5 31.5c-30 0 -55 -10.333 -75 -31s-30 -46 -30 -76
c0 -27.333 7.66699 -50 23 -68c13.333 -15.333 31 -25.666 53 -30.999zM113 318.999l-55 100c3.33301 4 11 14 23 30c8 10.667 13 17.667 15 21l-45 77c-10.667 18.667 -16 39.334 -16 62.001c0 33.333 11.833 62.166 35.5 86.499s52.167 36.5 85.5 36.5
c26 0 49.667 -8.33301 71 -25c18.667 -14.667 34.667 -34.334 48 -59.001l45 -84c9.33301 -17.333 14 -35.666 14 -54.999c0 -54 -18.667 -98.333 -56 -133c-40.667 -38 -95.667 -57 -165 -57z" />
    <glyph glyph-name="parenleft" unicode="(" horiz-adv-x="377" 
d="M331 716l-190 0.000976562c-28.667 -60 -50.834 -121.5 -66.501 -184.5s-23.5 -125.833 -23.5 -188.5c0 -68 7.33301 -133.667 22 -197s37.334 -124 68.001 -182h190c-26 55.333 -45.667 115.666 -59 180.999s-20 131 -20 197c0 62.667 6.83301 125.667 20.5 189
s33.167 125 58.5 185zM131 732.001l224.001 0.00195312l55 -100c-28.667 -68.667 -50.334 -135.334 -65.001 -200.001s-22 -128 -22 -190c0 -66.667 6.83301 -132.334 20.5 -197.001s36.167 -130.334 67.5 -197.001h-225l-55 100c-31.333 60.667 -55.166 125 -71.499 193
s-24.5 135.333 -24.5 202c0 64.667 8.16699 129.334 24.5 194.001s40.166 129.667 71.499 195z" />
    <glyph glyph-name="parenright" unicode=")" horiz-adv-x="377" 
d="M226 716l-189.998 -0.000976562c25.333 -60.667 44.833 -122.167 58.5 -184.5s20.5 -125.5 20.5 -189.5c0 -67.333 -6.33301 -132.666 -19 -195.999s-32.667 -124 -60 -182h190c29.333 56 51.666 116.833 66.999 182.5s23 131.167 23 196.5
c0 62.667 -7.83301 125.5 -23.5 188.5s-37.834 124.5 -66.501 184.5zM12.002 731.999l224.002 -0.000976562l55 -100c31.333 -64.667 55.166 -129.334 71.499 -194.001s24.5 -129.667 24.5 -195c0 -69.333 -7.83301 -136.666 -23.5 -201.999
s-39.834 -129.666 -72.501 -192.999h-225l-55 100c30 64 52.167 129.333 66.5 196s21.5 132.667 21.5 198c0 122 -29 252 -87 390z" />
    <glyph glyph-name="asterisk" unicode="*" horiz-adv-x="380" 
d="M235 696h-90l2 -65l-55 35l-46 -80l58 -29l-58 -29l46 -80l55 35l-2 -65h90l-2 65l55 -35l46 80l-58 28l58 30l-46 80l-55 -35zM129 712h122l15 -41l28 17l62 -109l55 -100l-44 -23l44 -21l-62 -109l-44 27l1 -51h-122l1 51l-44 -27l-62 109l-55 100l18 9l-18 35l62 109
l44 -27z" />
    <glyph glyph-name="plus" unicode="+" horiz-adv-x="464" 
d="M287 530h-109v-138h-122v-109h122v-138h109v138h121v109h-121v138zM358 446v-38h66l55 -100v-141h-121v-138h-141l-55 100v38h-67l-55 100v141h122v138h141z" />
    <glyph glyph-name="comma" unicode="," horiz-adv-x="344" 
d="M142 16c-3.33301 -14.667 -7.5 -27.501 -12.5 -38.501s-12.833 -23.167 -23.5 -36.5c43.333 0 82.833 17.5 118.5 52.5s53.5 75.5 53.5 121.5c0 29.333 -10.167 54.5 -30.5 75.5s-45.833 31.5 -76.5 31.5c-30 0 -55 -10.333 -75 -31s-30 -46 -30 -76
c0 -27.333 7.66699 -50 23 -68c13.333 -15.333 31 -25.666 53 -30.999zM128 -175.001l-55 100c3.33301 4 11 14 23 30c8 10.667 13 17.667 15 21l-45 77c-10.667 18.667 -16 39.334 -16 62.001c0 33.333 11.833 62.166 35.5 86.499s52.167 36.5 85.5 36.5
c26 0 49.667 -8.33301 71 -25c18.667 -14.667 34.667 -34.334 48 -59.001l45 -84c9.33301 -17.333 14 -35.666 14 -54.999c0 -54 -18.667 -98.333 -56 -133c-40.667 -38 -95.667 -57 -165 -57z" />
    <glyph glyph-name="hyphen" unicode="-" horiz-adv-x="323" 
d="M282 340h-241v-108h241v108zM25 216v140h273l55 -100v-140h-273z" />
    <glyph glyph-name="period" unicode="." horiz-adv-x="344" 
d="M172 7c29.333 0 54.333 10.333 75 31s31 46 31 76c0 29.333 -10.333 54.333 -31 75s-45.667 31 -75 31s-54.333 -10.333 -75 -31s-31 -45.667 -31 -75s10.167 -54.5 30.5 -75.5s45.5 -31.5 75.5 -31.5zM227 -109c-22 0 -41.668 4.83203 -59.001 14.499
s-31.333 23.834 -42 42.501l-66 119c-6.66699 16.667 -10 32.334 -10 47.001c0 33.333 12 62 36 86s52.667 36 86 36c22.667 0 43.834 -6.16699 63.501 -18.5s34.5 -28.5 44.5 -48.5l57 -102c8 -16 12 -33.667 12 -53c0 -32.667 -12 -61.334 -36 -86.001
s-52.667 -37 -86 -37z" />
    <glyph glyph-name="slash" unicode="/" horiz-adv-x="556" 
d="M6 16l99 -60l425 740l-98 57zM166 -166l-127 76l-55 100l442 765l126 -73l55 -100z" />
    <glyph glyph-name="zero" unicode="0" 
d="M306 -4c84 0 151 38.666 201 115.999c44 68 66 148.667 66 242c0 96 -20 177 -60 243c-48 79.333 -117 119 -207 119c-85.333 0 -153 -40.333 -203 -121c-42.667 -69.333 -64 -149.666 -64 -240.999c0 -94 21 -174.333 63 -241c49.333 -78 117.333 -117 204 -117z
M306 193.999c-24.667 0 -43 14.5 -55 43.5s-18 67.833 -18 116.5s6 88.167 18 118.5s30.333 45.5 55 45.5s43 -15.167 55 -45.5s18 -69.833 18 -118.5c0 -49.333 -5.66699 -88.333 -17 -117s-30 -43 -56 -43zM361 -120.001c-50 0 -93.999 12.667 -131.999 38
c-34.667 22.667 -64 55.334 -88 98.001l-68 121c-16.667 33.333 -29.167 68.166 -37.5 104.499s-12.5 73.833 -12.5 112.5c0 94.667 22.333 178 67 250c52.667 85.333 124.667 128 216 128c51.333 0 96.666 -12.667 135.999 -38c35.333 -22.667 65 -55 89 -97l64 -123
c16 -32 28.167 -67.5 36.5 -106.5s12.5 -76.833 12.5 -113.5c0 -95.333 -23.333 -179 -70 -251c-53.333 -82 -124.333 -123 -213 -123zM304.001 253.999l2.00098 -44.001c20 0 34.5 12.333 43.5 37s13.5 60.334 13.5 107.001l-2 49c-18.667 0 -32.834 -13.333 -42.501 -40
s-14.5 -63 -14.5 -109z" />
    <glyph glyph-name="one" unicode="1" 
d="M460 696h-301l-53 -198h154v-482h200v680zM299 -100l-55 100v382h-104l-55 100l62 230h329l55 -100v-712h-232z" />
    <glyph glyph-name="two" unicode="2" 
d="M510 16l52 198h-142l106 197c4.66699 8.66699 8.66699 23 12 43s5 41.333 5 64c0 57.333 -23.5 104.666 -70.5 141.999s-102.833 56 -167.5 56c-63.333 0 -117.333 -22.333 -162 -67s-67 -99 -67 -163c0 -31.333 5.33301 -60.666 16 -87.999l173 58
c-2.66699 4.66699 -4 11 -4 19c0 11.333 4 21.333 12 30s18.333 13 31 13c11.333 0 21 -4.33301 29 -13s12 -18.667 12 -30c0 -14 -4 -28.333 -12 -43l-228 -414zM577 -100h-433l-55 100v22l162 294l-113 -38l-55 100c-6.66699 17.333 -12.167 36.333 -16.5 57
s-6.5 37.667 -6.5 51c0 66.667 24 124.334 72 173.001s105.667 73 173 73c48 0 92.667 -10.333 134 -31s72 -49.334 92 -86.001l61 -113c14.667 -27.333 22 -55.333 22 -84c0 -24 -1.66699 -46.333 -5 -67s-8 -36.667 -14 -48l-39 -73h27l55 -100z" />
    <glyph glyph-name="three" unicode="3" 
d="M170 438l-44.002 -141.001h124c15.333 0 28.5 -6.16699 39.5 -18.5s16.5 -24.833 16.5 -37.5c0 -12 -5.16699 -22.833 -15.5 -32.5s-23.166 -14.5 -38.499 -14.5c-24.667 0 -45.667 3.33301 -63 10s-37.666 17.667 -60.999 33l-52 -185
c34.667 -18 68.667 -31.833 102 -41.5s68.666 -14.5 105.999 -14.5c64 0 118.833 18.833 164.5 56.5s68.5 82.834 68.5 135.501c0 39.333 -11.667 77 -35 113s-50.666 59.667 -81.999 71c26 11.333 47.667 31.5 65 60.5s26 59.167 26 90.5c0 58.667 -24 106.334 -72 143.001
c-43.333 33.333 -93.333 50 -150 50c-28 0 -46.5 -0.5 -55.5 -1.5s-25.167 -4.16699 -48.5 -9.5l-51 -207c13.333 5.33301 31.333 10 54 14s44.667 6 66 6c13.333 0 25 -4.33301 35 -13s15 -18.334 15 -29.001s-4.33301 -19.667 -13 -27s-19.667 -11 -33 -11h-68z
M338.998 -120.001c-39.333 0 -76.501 5.16699 -111.501 15.5s-73.5 26.5 -115.5 48.5l-55 100l62 219l-14 18l33 107l-47 84l61 246c26 6.66699 46 10.667 60 12s33 2 57 2c42 0 83.167 -10.5 123.5 -31.5s70.833 -49.833 91.5 -86.5l57 -103c14.667 -26 22 -55.333 22 -88
c0 -25.333 -5 -49.5 -15 -72.5s-23 -42.833 -39 -59.5l53 -97c8.66699 -16 15.167 -32.5 19.5 -49.5s6.5 -35.833 6.5 -56.5c0 -56 -24.667 -104.667 -74 -146s-107.666 -62 -174.999 -62z" />
    <glyph glyph-name="four" unicode="4" 
d="M316 120v-104h204v104h12l52 185h-64v126l-204 -45v-81h-70l216 391h-221l-203 -348v-228h278zM591 351v-30h14l55 -100l-61 -217h-8v-104h-236l-55 100v4h-223l-55 100v248l210 360h257l55 -100l-100 -181l92 20z" />
    <glyph glyph-name="five" unicode="5" 
d="M507 696h-386v-390h147c18.667 0 34.667 -6.33301 48 -19s20 -28.334 20 -47.001c0 -14 -5.83301 -25.833 -17.5 -35.5s-26.167 -14.5 -43.5 -14.5c-16 0 -32.667 4.33301 -50 13s-35 20.334 -53 35.001l-104 -163c55.333 -34.667 98.5 -56.5 129.5 -65.5
s67.167 -13.5 108.5 -13.5c71.333 0 128.166 23.167 170.499 69.5s63.5 104.5 63.5 174.5c0 60.667 -23.167 111 -69.5 151s-101.166 60 -164.499 60v63h148zM485 398c6 -6 12.833 -13.501 20.5 -22.501s14.167 -17.833 19.5 -26.5l68 -126c12 -27.333 18 -55 18 -83
c0 -72.667 -22.833 -134.167 -68.5 -184.5s-106.167 -75.5 -181.5 -75.5c-52.667 0 -100 8.33301 -142 25c-26.667 10.667 -66 32.334 -118 65.001l-55 100l97 152l-38 68v422h423l55 -100l-62 -214h-36z" />
    <glyph glyph-name="six" unicode="6" 
d="M480 696h-237l-172 -341c-8 -16.667 -14.667 -34.667 -20 -54s-8 -36.333 -8 -51c0 -70 25.5 -129.833 76.5 -179.5s112.833 -74.5 185.5 -74.5s134.667 24.667 186 74s77 109 77 179c0 64 -19.5 118.833 -58.5 164.5s-86.167 68.5 -141.5 68.5zM305 310
c18 0 32.999 -6 44.999 -18s18 -27 18 -45c0 -16 -6.16699 -29.5 -18.5 -40.5s-27.166 -16.5 -44.499 -16.5s-32 5.33301 -44 16s-18 24.334 -18 41.001c0 17.333 5.83301 32.166 17.5 44.499s26.5 18.5 44.5 18.5zM482.999 464c11.333 -9.33301 22.8311 -20.667 34.498 -34
s21.834 -27.666 30.501 -42.999l69 -127c8.66699 -15.333 14.5 -32 17.5 -50s4.5 -38.333 4.5 -61c0 -73.333 -27.5 -136.5 -82.5 -189.5s-120.5 -79.5 -196.5 -79.5c-43.333 0 -81.666 6.33301 -114.999 19c-38 14.667 -66.667 36.667 -86 66l-94 144
c-10.667 15.333 -19.667 36.666 -27 63.999s-11 53 -11 77c0 14.667 3 33 9 55s13 41 21 57l176 350h273l55 -100z" />
    <glyph glyph-name="seven" unicode="7" 
d="M542 696h-394l-50 -198h188l-135 -482h198zM185 -100l-55 100l107 382h-105l-55 100l59 230h427l55 -100l-202 -712h-231z" />
    <glyph glyph-name="eight" unicode="8" 
d="M306 -4c72.667 0 134.167 22.1641 184.5 66.4971s75.5 97.833 75.5 160.5c0 33.333 -10.333 65.5 -31 96.5s-45.667 51.833 -75 62.5c19.333 10.667 36.333 28.834 51 54.501s22 50.5 22 74.5c0 56.667 -22 105 -66 145s-97.667 60 -161 60
c-62.667 0 -116.167 -19.833 -160.5 -59.5s-66.5 -88.167 -66.5 -145.5c0 -23.333 7.83301 -48.666 23.5 -75.999s31.5 -45 47.5 -53c-28 -9.33301 -52.333 -29.666 -73 -60.999s-31 -64 -31 -98c0 -62 25.333 -115.333 76 -160s112 -67 184 -67zM306 180.997
c-16 0 -30 6 -42 18s-18 26.667 -18 44c0 16.667 5.66699 31 17 43s25.666 18 42.999 18c16 0 30 -6 42 -18s18 -26.333 18 -43c0 -17.333 -5.66699 -32 -17 -44s-25.666 -18 -42.999 -18zM306 429.997c-15.333 0 -28.333 5.66699 -39 17s-16 25 -16 41
c0 15.333 5.16699 28.5 15.5 39.5s23.5 16.5 39.5 16.5c15.333 0 28.333 -5.66699 39 -17s16 -24.333 16 -39c0 -15.333 -5.16699 -28.833 -15.5 -40.5s-23.5 -17.5 -39.5 -17.5zM361 -120.003c-40.667 0 -82.333 9.66699 -125 29s-72 41.666 -88 66.999l-92 146
c-9.33301 14.667 -16 31 -20 49s-6 35.333 -6 52c0 35.333 9.33301 69 28 101s39.334 51.333 62.001 58c-17.333 14.667 -31.166 33.334 -41.499 56.001s-15.5 47 -15.5 73c0 60.667 24 112.667 72 156s105 65 171 65c43.333 0 85.166 -10.833 125.499 -32.5
s69.166 -49.5 86.499 -83.5l73 -143c8.66699 -16 13 -36.667 13 -62c0 -21.333 -3.5 -41.333 -10.5 -60s-16.833 -35.667 -29.5 -51l52 -91c14 -25.333 21 -54 21 -86c0 -66 -27 -123 -81 -171s-119 -72 -195 -72z" />
    <glyph glyph-name="nine" unicode="9" 
d="M142 16l229 0.000976562l151 290c11.333 20.667 21.333 45.667 30 75s13 52.333 13 69c0 73.333 -25.667 136 -77 188s-114 78 -188 78c-70.667 0 -130.667 -25.833 -180 -77.5s-74 -114.5 -74 -188.5c0 -64.667 17.833 -119.334 53.5 -164.001s84.5 -69.667 146.5 -75z
M300 385.001c-16.667 0 -31.332 6.33301 -43.999 19s-19 28 -19 46s6.16699 33.833 18.5 47.5s27.166 20.5 44.499 20.5c16.667 0 31.334 -6.66699 44.001 -20s19 -29.333 19 -48c0 -18 -6.33301 -33.333 -19 -46s-27.334 -19 -44.001 -19zM436.002 -99.999
l-266 -0.000976562l-55 100l72 134c-11.333 8.66699 -20.333 16.334 -27 23.001c-9.33301 10 -16.666 19.333 -21.999 28l-73 126c-23.333 40.667 -35 87 -35 139c0 76.667 26.5 142.834 79.5 198.501s116.5 83.5 190.5 83.5c49.333 0 97.166 -12.833 143.499 -38.5
s79.833 -58.834 100.5 -99.501l69 -137c6 -12 11.333 -28.333 16 -49s7 -40 7 -58s-4.5 -42.167 -13.5 -72.5s-19.5 -56.5 -31.5 -78.5z" />
    <glyph glyph-name="colon" unicode=":" horiz-adv-x="344" 
d="M172 309c29.333 0 54.333 10.333 75 31s31 46 31 76c0 29.333 -10.333 54.333 -31 75s-45.667 31 -75 31s-54.333 -10.333 -75 -31s-31 -45.667 -31 -75s10.167 -54.5 30.5 -75.5s45.5 -31.5 75.5 -31.5zM227 -109c-22 0 -41.667 4.83008 -59 14.4971
s-31.333 23.834 -42 42.501l-66 119c-6.66699 16.667 -10 32.334 -10 47.001c0 27.333 8.5 51.833 25.5 73.5s38.5 36.167 64.5 43.5l-14 19l-66 119c-6.66699 16.667 -10 32.334 -10 47.001c0 33.333 12 62 36 86s52.667 36 86 36c22.667 0 43.834 -6.16699 63.501 -18.5
s34.5 -28.5 44.5 -48.5l57 -102c8 -16 12 -33.667 12 -53c0 -26.667 -8.5 -51.167 -25.5 -73.5s-38.5 -37.166 -64.5 -44.499l11 -12.5c3.33301 -3.66699 6.66602 -9.16699 9.99902 -16.5l57 -102c8 -16 12 -33.667 12 -53c0 -32.667 -12 -61.334 -36 -86.001
s-52.667 -37 -86 -37zM172 6.99707c29.333 0 54.333 10.333 75 31s31 46 31 76c0 29.333 -10.333 54.333 -31 75s-45.667 31 -75 31s-54.333 -10.333 -75 -31s-31 -45.667 -31 -75s10.167 -54.5 30.5 -75.5s45.5 -31.5 75.5 -31.5z" />
    <glyph glyph-name="semicolon" unicode=";" horiz-adv-x="344" 
d="M172 309c29.333 0 54.333 10.333 75 31s31 46 31 76c0 29.333 -10.333 54.333 -31 75s-45.667 31 -75 31s-54.333 -10.333 -75 -31s-31 -45.667 -31 -75s10.167 -54.5 30.5 -75.5s45.5 -31.5 75.5 -31.5zM128 -175l-55.001 99.9961c3.33301 4 11 14 23 30
c8 10.667 13 17.667 15 21l-45 77c-10.667 18.667 -16 39.334 -16 62.001c0 26.667 8.16699 51 24.5 73s37.5 37 63.5 45l-12 17l-66 119c-6.66699 16.667 -10 32.334 -10 47.001c0 33.333 12 62 36 86s52.667 36 86 36c22.667 0 43.834 -6.16699 63.501 -18.5
s34.5 -28.5 44.5 -48.5l57 -102c8 -16 12 -33.667 12 -53c0 -26.667 -8.5 -51.167 -25.5 -73.5s-38.5 -37.166 -64.5 -44.499c3.33301 -4 8.5 -11 15.5 -21s12.167 -17.667 15.5 -23l45 -84c9.33301 -17.333 14 -35.666 14 -54.999c0 -54 -18.667 -98.333 -56 -133
c-40.667 -38 -95.667 -57 -165 -57zM141.999 15.9961c-3.33301 -14.667 -7.5 -27.501 -12.5 -38.501s-12.833 -23.167 -23.5 -36.5c43.333 0 82.833 17.5 118.5 52.5s53.5 75.5 53.5 121.5c0 29.333 -10.167 54.5 -30.5 75.5s-45.833 31.5 -76.5 31.5
c-30 0 -55 -10.333 -75 -31s-30 -46 -30 -76c0 -27.333 7.66699 -50 23 -68c13.333 -15.333 31 -25.666 53 -30.999z" />
    <glyph glyph-name="less" unicode="&#x3c;" horiz-adv-x="537" 
d="M416 622l-360 -240v-94l360 -241l65 110l-266 177l261 175zM95 179l-55 100v112l382 254l55 -100l75 -141l-206 -138l156 -104l55 -100l-81 -138z" />
    <glyph glyph-name="equal" unicode="=" horiz-adv-x="464" 
d="M408 494h-352v-109h352v109zM408 300h-352v-109h352v109zM40 316h28l-28 53v141h384l55 -100v-141h-29l29 -53v-141h-384l-55 100v141z" />
    <glyph glyph-name="greater" unicode="&#x3e;" horiz-adv-x="537" 
d="M121 46l360 240v94l-360 241l-65 -110l266 -177l-261 -175zM552 177l-382 -254l-55 100l-75 141l206 138l-156 104l-55 100l81 138l381 -255l55 -100v-112z" />
    <glyph glyph-name="question" unicode="?" horiz-adv-x="535" 
d="M36 632l110.998 -155.002c12.667 16.667 25.667 28.334 39 35.001s29.666 10 48.999 10c18.667 0 34 -4.83301 46 -14.5s18 -24.167 18 -43.5c0 -16.667 -6.16699 -30.834 -18.5 -42.501s-27.166 -17.5 -44.499 -17.5h-62v-126c5.33301 -4 14.5 -7 27.5 -9
s24.833 -3 35.5 -3c68 0 126.167 20.5 174.5 61.5s72.5 90.5 72.5 148.5c0 68.667 -23.833 125.834 -71.5 171.501s-106.5 68.5 -176.5 68.5c-35.333 0 -70.166 -7.66699 -104.499 -23s-66.166 -35.666 -95.499 -60.999zM236.998 6.99805c29.333 0 54.333 10.333 75 31
s31 46 31 76c0 29.333 -10.333 54.333 -31 75s-45.667 31 -75 31s-54.333 -10.333 -75 -31s-31 -45.667 -31 -75s10.167 -54.5 30.5 -75.5s45.5 -31.5 75.5 -31.5zM291.998 -109.002c-22 0 -41.6689 4.83398 -59.002 14.501s-31.333 23.834 -42 42.501l-66 119
c-6.66699 16.667 -10 32.334 -10 47.001c0 24 6.66699 46 20 66s30.666 35 51.999 45l-29 41v145l-88 123l-55 100c34.667 30.667 70.667 54.667 108 72s75 26 113 26c46.667 0 91.834 -12.333 135.501 -37s74.834 -54.334 93.501 -89.001l75 -141
c4.66699 -8.66699 8.33398 -22 11.001 -40s4 -34.333 4 -49c0 -52.667 -19.167 -99.334 -57.5 -140.001s-86.833 -67 -145.5 -79l50 -90c8 -16 12 -33.667 12 -53c0 -32.667 -12 -61.334 -36 -86.001s-52.667 -37 -86 -37z" />
    <glyph glyph-name="at" unicode="@" horiz-adv-x="925" 
d="M666 511l-141.003 -0.000976562v-27c-12 10 -25.167 18.5 -39.5 25.5s-28.166 10.5 -41.499 10.5c-51.333 0 -95.333 -22 -132 -66s-55 -97 -55 -159c0 -59.333 17.667 -109.666 53 -150.999s79 -62 131 -62h46l38 99c22 -38.667 44 -64.834 66 -78.501
s56.333 -20.5 103 -20.5c61.333 0 109.333 26 144 78c30.667 46 46 101.667 46 167c0 108 -39.167 199.833 -117.5 275.5s-173.166 113.5 -284.499 113.5c-122 0 -226 -40.333 -312 -121s-129 -178.667 -129 -294c0 -116.667 42.5 -215.5 127.5 -296.5
s189.167 -121.5 312.5 -121.5c44.667 0 80.667 1.83301 108 5.5s53 9.83398 77 18.501v100c-24.667 -6 -54.667 -10.833 -90 -14.5s-66.666 -5.5 -93.999 -5.5c-87.333 0 -161.833 30.5 -223.5 91.5s-92.5 135.167 -92.5 222.5c0 86 30.667 159.333 92 220s136 91 224 91
c37.333 0 73 -7.33301 107 -22s64 -35.667 90 -63l3 -3c24 -25.333 42.833 -55.333 56.5 -90s20.5 -70.667 20.5 -108c0 -42.667 -3 -76 -9 -100c-8 -32 -21.667 -48 -41 -48c-12.667 0 -23 4 -31 12s-12 20.667 -12 38v283zM524.997 294.999v-67h-59
c-17.333 0 -31.833 6.5 -43.5 19.5s-17.5 28.833 -17.5 47.5c0 17.333 6 32.666 18 45.999s26.333 20 43 20c15.333 0 29 -6.66699 41 -20s18 -28.666 18 -45.999zM360.997 27.999c-5.33301 5.33301 -10 10.332 -14 14.999s-8.66699 11.667 -14 21l-61 108
c-8 14 -14.5 29.333 -19.5 46s-8.16699 31.334 -9.5 44.001c-4 -20 -6 -40.333 -6 -61c0 -33.333 4.33301 -63.333 13 -90c28.667 -36 65.667 -63.667 111 -83zM481.997 731.998c74.667 0 147.336 -19.833 218.003 -59.5s121 -90.167 151 -151.5l81 -164
c8 -17.333 13.833 -37.5 17.5 -60.5s5.5 -46.167 5.5 -69.5c0 -68 -16.667 -126.667 -50 -176c-38.667 -56.667 -90.667 -85 -156 -85h-19h-16c-6.66699 1.33301 -11.334 2 -14.001 2l37 -41v-131c-28 -10 -57.333 -17.333 -88 -22s-68.334 -7 -113.001 -7
c-90 0 -171.333 22 -244 66c-66.667 40 -118.334 93 -155.001 159l-60 108c-16.667 30 -29.5 62 -38.5 96s-13.5 69 -13.5 105c0 118.667 44.833 220.167 134.5 304.5s197.167 126.5 322.5 126.5zM564.999 6.99805l41 5c-8 9.33301 -15.667 20 -23 32l-14 -36z" />
    <glyph glyph-name="A" unicode="A" horiz-adv-x="697" 
d="M481 696h-331l-54 -198h54l-134 -482h214l22 90h184l24 -90h221zM285 282l55 216l58 -216h-113zM138 712h355l55 -100l209 -712h-254l-49 90h-134l-22 -90h-248l-55 100l116 416l-36 66z" />
    <glyph glyph-name="B" unicode="B" horiz-adv-x="648" 
d="M78 498v-482.001h310c61.333 0 111.5 17.5 150.5 52.5s58.5 79.167 58.5 132.5c0 40.667 -9 76.334 -27 107.001s-46 53 -84 67c30 11.333 53.333 30 70 56s25 55.333 25 88c0 48 -17.333 89 -52 123c-36.667 36 -83.667 54 -141 54h-310l-52 -198h52zM278 417.999
l0.000976562 80h55c32.667 0 49 -13.333 49 -40c0 -12 -3.33301 -21.667 -10 -29s-17.334 -11 -32.001 -11h-62zM278.001 200.999l0.000976562 96.999h53c20 0 34.5 -4.16699 43.5 -12.5s13.5 -20.166 13.5 -35.499s-4.33301 -27.333 -13 -36s-23.334 -13 -44.001 -13h-53z
M5.00195 481.998l61.001 230.002h322c42 0 80 -10.333 114 -31c30.667 -18.667 54.667 -43.667 72 -75l62 -113c5.33301 -9.33301 9.33301 -20.833 12 -34.5s4 -26.834 4 -39.501c0 -26.667 -5.16699 -52 -15.5 -76s-23.5 -42.667 -39.5 -56l52 -92
c7.33301 -12 12.333 -25.833 15 -41.5s4 -33.167 4 -52.5c0 -56.667 -21.333 -104.334 -64 -143.001s-96.334 -58 -161.001 -58h-326l-55 100v382z" />
    <glyph glyph-name="C" unicode="C" horiz-adv-x="685" 
d="M643 653l-168 71l-12 -16c-24 5.33301 -44.333 8 -61 8c-99.333 0 -184.333 -35 -255 -105s-106 -154.667 -106 -254s35 -184.333 105 -255s155 -106 255 -106c54.667 0 103.667 8.83301 147 26.5s80.333 41.5 111 71.5l-114 158c-37.333 -38.667 -85 -58 -143 -58
c-41.333 0 -77 16.333 -107 49s-45 70.667 -45 114s14.833 81 44.5 113s65.5 48 107.5 48c31.333 0 60 -6 86 -18c18.667 -8.66699 37.667 -21.667 57 -39zM470 744l194.996 -83.002l55 -100l-115 -226c-26.667 24 -48.667 40.333 -66 49c-23.333 12 -50.666 18 -81.999 18
c-38 0 -70.167 -14.167 -96.5 -42.5s-39.5 -62.5 -39.5 -102.5l2 -20c23.333 -18 49.666 -27 78.999 -27c30.667 0 56.334 4.83301 77.001 14.5s43.334 27.167 68.001 52.5l133 -185l55 -100c-35.333 -34 -76.5 -61.167 -123.5 -81.5s-98.833 -30.5 -155.5 -30.5
c-62.667 0 -121.667 13.5 -177 40.5s-96 63.167 -122 108.5l-93 162c-13.333 23.333 -23.166 49 -29.499 77s-9.5 57.667 -9.5 89c0 102.667 37.167 190.834 111.5 264.501s162.833 110.5 265.5 110.5c8 0 17.333 -0.666992 28 -2s19.334 -2.66602 26.001 -3.99902z" />
    <glyph glyph-name="D" unicode="D" horiz-adv-x="671" 
d="M78 498l0.000976562 -482.001h258c81.333 0 150.666 33.333 207.999 100s86 147.334 86 242.001c0 94 -28.5 173.833 -85.5 239.5s-125.833 98.5 -206.5 98.5h-260l-52 -198h52zM278.001 213.999v283.999h31c30.667 0 57 -13.667 79 -41s33 -60.666 33 -99.999
c0 -37.333 -10.5 -70.5 -31.5 -99.5s-46.167 -43.5 -75.5 -43.5h-36zM5.00098 481.998l61.001 230h272c52.667 0 102 -14.833 148 -44.5s83 -69.5 111 -119.5l74 -142c9.33301 -17.333 16.666 -39.5 21.999 -66.5s8 -54.167 8 -81.5c0 -97.333 -30.333 -181.333 -91 -252
s-133.667 -106 -219 -106h-274l-55 100v382zM349.002 381.998l0.000976562 -142.001c16 10 29.333 25.833 40 47.5s16 44.834 16 69.501v14c-12.667 7.33301 -26.334 11 -41.001 11h-15z" />
    <glyph glyph-name="E" unicode="E" horiz-adv-x="557" 
d="M78 498v-482h386l50 198h-236v64h195l37 162h-232v58h195l53 226h-188l-14 -28h-246l-52 -198h52zM62 382l-57 100l61 230h248l14 28h218l55 -100l-51 -220l35 -64l-35 -154l40 -72l-59 -230h-414l-55 100v382z" />
    <glyph glyph-name="F" unicode="F" horiz-adv-x="551" 
d="M79 498v-482h200v230h169l44 185h-213v67h194l62 226h-189l-14 -28h-253l-53 -198h53zM5 482l62 230h255l14 28h220l55 -100l-68 -249l24 -44l-51 -217h-166v-230h-232l-55 100v382z" />
    <glyph glyph-name="G" unicode="G" horiz-adv-x="790" 
d="M750 414h-301.999l-45 -137h112c-7.33301 -25.333 -22.166 -45.5 -44.499 -60.5s-46.833 -22.5 -73.5 -22.5c-40 0 -74.5 15.833 -103.5 47.5s-43.5 69.5 -43.5 113.5c0 44.667 14.333 83 43 115s63.334 48 104.001 48c25.333 0 46.166 -3.66699 62.499 -11
s33.166 -20.333 50.499 -39l143 157l-138 98l-19 -18c-14.667 4 -30.834 6.83301 -48.501 8.5s-34.5 2.5 -50.5 2.5c-97.333 0 -181 -35.333 -251 -106s-105 -155.667 -105 -255s34.333 -184 103 -254s151.667 -105 249 -105c99.333 0 184.333 35 255 105
s106 154.667 106 254v18c0 20 -1.33301 33.667 -4 41zM397.001 210l13 2l-28 49l44 138c-30.667 -6.66699 -55.834 -23.167 -75.501 -49.5s-29.5 -57.833 -29.5 -94.5l2 -21c22.667 -16 47.334 -24 74.001 -24zM677.001 628l55.001 -99.999l-88 -98h118l55 -100
c2.66699 -10 4.66699 -21.5 6 -34.5s2 -26.5 2 -40.5c0 -102.667 -37.167 -190.834 -111.5 -264.501s-162.833 -110.5 -265.5 -110.5c-67.333 0 -129.333 16.833 -186 50.5s-100.667 79.5 -132 137.5l-52 95c-17.333 29.333 -30.5 59.833 -39.5 91.5
s-13.5 65.167 -13.5 100.5c0 103.333 36.667 192 110 266s160.666 111 261.999 111c21.333 0 39 -0.5 53 -1.5s28 -3.5 42 -7.5l22 21z" />
    <glyph glyph-name="H" unicode="H" horiz-adv-x="704" 
d="M279 696h-200l-53 -198h53v-482h200v251h159v-251h200v680h-200v-230h-159v230zM5 482l62 230h228l55 -100v-130h72v230h232l55 -100v-712h-232l-55 100v151h-72v-251h-232l-55 100v382z" />
    <glyph glyph-name="I" unicode="I" horiz-adv-x="346" 
d="M280 696h-200l-54 -198h54v-482h200v680zM60 382l-55 100l63 230h228l55 -100v-712h-232l-55 100v382h-4z" />
    <glyph glyph-name="J" unicode="J" horiz-adv-x="446" 
d="M380 696h-301.001l-53 -198h154v-251c0 -13.333 -5.5 -25.5 -16.5 -36.5s-23.833 -16.5 -38.5 -16.5c-16 0 -31.333 5.33301 -46 16l-53 -182c17.333 -10 37.333 -17.833 60 -23.5s45.334 -8.5 68.001 -8.5c72 0 128.333 19.333 169 58c38 36 57 82.667 57 140v502z
M66.999 712h328.998l55 -100v-518c0 -60 -20.667 -110 -62 -150c-44 -42.667 -104 -64 -180 -64c-25.333 0 -50.166 3.16699 -74.499 9.5s-48.5 16.833 -72.5 31.5l-55 100l63 215c12.667 -9.33301 23.5 -16 32.5 -20s16.5 -6 22.5 -6c10.667 0 19.834 3.5 27.501 10.5
s11.5 15.833 11.5 26.5v135h-104l-55 100z" />
    <glyph glyph-name="K" unicode="K" horiz-adv-x="667" 
d="M278 696h-200l-52 -198h52v-482h200v253l141 -253h237l-201 359l171 321h-222l-124 -244zM5 482l61 230h228l52 -94l48 94h259l55 -100l-180 -336l155 -276l55 -100h-273l-116 211v-211h-232l-55 100v382zM528 275l155 -275z" />
    <glyph glyph-name="L" unicode="L" horiz-adv-x="437" 
d="M278 696h-200l-52 -198h52v-482h283l60 198h-143v482zM5 482l61 230h228l55 -100v-382h94l55 -100l-70 -230h-311l-55 100v382z" />
    <glyph glyph-name="M" unicode="M" horiz-adv-x="799" 
d="M290 696h-211l-53 -198h53v-482h200v393l121 -163h15l116 163l2 -393h200v680h-215l-114 -146zM5 482l62 230h231l106 -136l106 136h239l55 -100v-712h-232l-55 100v185l-39 -55h-31l-97 133v-363h-232l-55 100v382z" />
    <glyph glyph-name="N" unicode="N" horiz-adv-x="720" 
d="M291 696h-213l-52 -198h52v-482h200v326l192 -326h184v680h-200v-280zM5 482l61 230h234l138 -240v240h232l55 -100v-712h-209l-167 287v-287h-232l-55 100v382z" />
    <glyph glyph-name="O" unicode="O" horiz-adv-x="804" 
d="M402 -4c99.333 0 184.333 35.333 255 106s106 155.667 106 255s-35.333 184 -106 254s-155.667 105 -255 105s-184.333 -35 -255 -105s-106 -154.667 -106 -254s35.333 -184.333 106 -255s155.667 -106 255 -106zM402 194c-42 0 -77.833 15.833 -107.5 47.5
s-44.5 70.167 -44.5 115.5c0 44.667 14.667 82.667 44 114s65.333 47 108 47c42 0 77.833 -15.833 107.5 -47.5s44.5 -69.5 44.5 -113.5c0 -45.333 -14.833 -83.833 -44.5 -115.5s-65.5 -47.5 -107.5 -47.5zM457 -120c-70.667 0 -135.169 17.999 -193.502 53.999
s-104.166 84.667 -137.499 146l-52 93c-32.667 56.667 -49 118 -49 184c0 102.667 37.167 190.834 111.5 264.501s162.833 110.5 265.5 110.5c74 0 141.833 -20 203.5 -60s107.834 -93 138.501 -159l46 -81c12 -20.667 22.333 -47.5 31 -80.5s13 -64.5 13 -94.5
c0 -103.333 -37 -192 -111 -266s-162.667 -111 -266 -111zM401.998 209.999c38.667 0 71 14 97 42s39 63 39 105l-2 24v-5c-24 17.333 -50.333 26 -79 26c-38.667 0 -71 -13.667 -97 -41s-39 -62 -39 -104l2 -21l-3 2c24 -18.667 51.333 -28 82 -28z" />
    <glyph glyph-name="P" unicode="P" horiz-adv-x="618" 
d="M78 498v-482h200v149h48c78 0 140.167 24.5 186.5 73.5s69.5 110.167 69.5 183.5c0 76 -20.667 139 -62 189c-46.667 56.667 -112 85 -196 85h-246l-52 -198h52zM278 350l0.000976562 148h38c19.333 0 34.333 -7.83301 45 -23.5s16 -33.167 16 -52.5
c0 -21.333 -4.33301 -38 -13 -50c-10.667 -14.667 -27.334 -22 -50.001 -22h-36zM5.00098 482l61 230h258c60 0 111.667 -15.667 155 -47c36 -26 67.333 -63.333 94 -112l34 -62c14 -25.333 25.167 -53 33.5 -83s12.5 -58.667 12.5 -86c0 -76 -24.833 -140.5 -74.5 -193.5
s-115.5 -79.5 -197.5 -79.5h-32v-149h-232l-55 100v382z" />
    <glyph glyph-name="Q" unicode="Q" horiz-adv-x="804" 
d="M642 16l98.999 103l-39 38c20 30 35.167 61.5 45.5 94.5s15.5 68.167 15.5 105.5c0 99.333 -35.333 184 -106 254s-155.667 105 -255 105s-184.333 -35 -255 -105s-106 -154.667 -106 -254s35 -184.333 105 -255s155 -106 255 -106c36.667 0 71.834 5.16699 105.501 15.5
s65.5 25.5 95.5 45.5zM513.999 344l-99 -98.999l36 -36c-14 -10 -30.333 -15 -49 -15c-41.333 0 -77 16.333 -107 49s-45 70.667 -45 114s14.833 81 44.5 113s65.5 48 107.5 48c41.333 0 77 -16 107 -48s45 -69.667 45 -113c0 -6.66699 -0.5 -13.834 -1.5 -21.501
s-2.83301 -16.167 -5.5 -25.5zM818.999 19.001l-122.001 -126.003l-42 43c-25.333 -16.667 -55.5 -30.167 -90.5 -40.5s-71.167 -15.5 -108.5 -15.5c-69.333 0 -133 17.333 -191 52s-103.333 81.667 -136 141l-57 102c-31.333 56.667 -47 117.334 -47 182.001
c0 102.667 37.167 190.834 111.5 264.501s162.833 110.5 265.5 110.5c72.667 0 139.5 -19.167 200.5 -57.5s107.167 -89.5 138.5 -153.5l35 -66c18.667 -35.333 32.334 -66.666 41.001 -93.999c11.333 -35.333 17 -70 17 -104c0 -33.333 -4.16699 -66 -12.5 -98
s-19.5 -60 -33.5 -84zM391.998 244.998l122.001 122l23 -24l1 14l-1 18c-23.333 18 -50 27 -80 27c-38 0 -70.167 -14.167 -96.5 -42.5s-39.5 -62.5 -39.5 -102.5l2 -20c23.333 -18 49.666 -27 78.999 -27h9z" />
    <glyph glyph-name="R" unicode="R" horiz-adv-x="652" 
d="M60 382l-55 100.001l63 230h300c48.667 0 94.667 -15 138 -45c40 -28 72.667 -65 98 -111l40 -73c14 -26 24.5 -50.333 31.5 -73s10.5 -47.334 10.5 -74.001c0 -40 -11.5 -81.667 -34.5 -125s-48.5 -73 -76.5 -89l73 -122l55 -100h-273l-55 100l-23 43v-143h-233l-55 100
v382h-4zM80 498.001v-481.999h201v186h4l100 -186h235l-125 210c32 17.333 60 46.666 84 87.999s36 82 36 122c0 72 -24 133.333 -72 184s-106.333 76 -175 76h-288l-54 -198h54zM281 378.002v120h63c16 0 30.333 -6 43 -18s19 -26.667 19 -44c0 -16 -6 -29.667 -18 -41
s-26.667 -17 -44 -17h-63z" />
    <glyph glyph-name="S" unicode="S" horiz-adv-x="581" 
d="M511 684l-163.999 38.999l-8 -18c-9.33301 2.66699 -22 5.16699 -38 7.5s-29.667 3.5 -41 3.5c-58.667 0 -109.834 -19.833 -153.501 -59.5s-65.5 -86.5 -65.5 -140.5c0 -61.333 25 -109 75 -143c16.667 -11.333 63 -32 139 -62c50.667 -20 76 -43 76 -69
c0 -16 -7.16699 -28 -21.5 -36s-30.833 -12 -49.5 -12c-29.333 0 -56.666 4.83301 -81.999 14.5s-51 24.167 -77 43.5l-45 -191c75.333 -43.333 152.333 -65 231 -65c67.333 0 125.666 22 174.999 66c52 46 78 103.667 78 173c0 50.667 -24 93 -72 127
c-18 12.667 -63 35.334 -135 68.001c-48.667 22 -73 43 -73 63c0 10 4.5 18.5 13.5 25.5s19.833 10.5 32.5 10.5c54.667 0 104.667 -10.333 150 -31zM426.001 407.999c23.333 -8.66699 44.8301 -21.667 64.4971 -39s36.167 -38 49.5 -62l51 -92
c6 -10.667 10.833 -23.167 14.5 -37.5s5.5 -28.5 5.5 -42.5c0 -73.333 -27.667 -134.666 -83 -183.999c-52.667 -47.333 -114.667 -71 -186 -71c-81.333 0 -164.333 24.333 -249 73l-55 100l53 227c34.667 -26 64.334 -44.167 89.001 -54.5s51.334 -15.5 80.001 -15.5
c-35.333 8.66699 -65.333 21 -90 37c-28.667 18.667 -51 42.667 -67 72l-50 92c-9.33301 16 -15.666 29.333 -18.999 40c-6 18 -9 39.667 -9 65c0 57.333 23.667 107.666 71 150.999s102 65 164 65c14.667 0 33 -1.66699 55 -5c4 0 9 -1 15 -3l8 18l193 -46l55 -100
l-65 -221c-36 17.333 -67.667 28.333 -95 33z" />
    <glyph glyph-name="T" unicode="T" horiz-adv-x="501" 
d="M127 498v-482h200v482h102l61 226h-188l-14 -28h-220l-52 -198h111zM111 0v382h-61l-55 100l61 230h222l14 28h219l55 -100l-70 -258h-98v-482h-232z" />
    <glyph glyph-name="U" unicode="U" horiz-adv-x="688" 
d="M280 696h-199.999l-54 -198h54v-246c0 -70.667 26.167 -131 78.5 -181s115.833 -75 190.5 -75c75.333 0 139.666 25 192.999 75s80 110.333 80 181v444h-200v-422c0 -21.333 -7 -40 -21 -56s-30.667 -24 -50 -24s-36 7.66699 -50 23s-21 34.333 -21 57v422zM60.001 382
l-54.999 100l63 230h228l55 -100v-402c16 0 29.167 5.83301 39.5 17.5s15.5 27.167 15.5 46.5v438h232l55 -100v-460c0 -74 -28.5 -137.833 -85.5 -191.5s-124.833 -80.5 -203.5 -80.5c-56 0 -105.333 12.667 -148 38s-76.334 60 -101.001 104l-60 108
c-20.667 38 -31 78.667 -31 122v130h-4z" />
    <glyph glyph-name="V" unicode="V" horiz-adv-x="657" 
d="M219 696h-208l220 -680h194l220 680h-208l-108 -354zM274 -100l-55 100l-230 712h242l55 -100l54 -179l-12 -40l97 319h242l55 -100l-230 -712h-218z" />
    <glyph glyph-name="W" unicode="W" horiz-adv-x="891" 
d="M232 696h-216l164 -680h200l65 281l67 -281h200l164 680h-216l-54 -310l-86 310h-148l-84 -310zM554 -100l-55 100l-14 61l-37 -161h-226l-55 100l-171 712h249l55 -100l13 -74l47 174h172l55 -100l26 -96l34 196h249l55 -100l-171 -712h-226z" />
    <glyph glyph-name="X" unicode="X" horiz-adv-x="670" 
d="M254 696h-220l177 -318l-195 -362h230l88 194l90 -194h230l-195 362l177 318h-220l-80 -162zM7 712h257l55 -100l19 -38l68 138h257l55 -100l-186 -334l204 -378h-267l-55 100l-29 63l-74 -163h-267l-55 100l204 377l-131 235z" />
    <glyph glyph-name="Y" unicode="Y" horiz-adv-x="600" 
d="M222 696h-216l194 -368v-312h200v312l194 368h-216l-69 -152l-8 -17l-10 16zM-21 712h253l55 -100l18 -39l63 139h253l55 -100l-205 -388v-324h-232l-55 100v324z" />
    <glyph glyph-name="Z" unicode="Z" horiz-adv-x="514" 
d="M430 16l53 198h-162l162 482h-392l-53 -198h164l-171 -482h399zM63 -100l-55 100l136 382h-72l-55 100l62 230h426l55 -100l-128 -382h72l55 -100l-62 -230h-434z" />
    <glyph glyph-name="bracketleft" unicode="[" horiz-adv-x="354" 
d="M318 716h-252v-752h252v70h-74v612h74v70zM105 -152l-55 100v784h284l55 -100v-102h-74v-480h19l55 -100v-102h-284z" />
    <glyph glyph-name="backslash" unicode="\" horiz-adv-x="555" 
d="M530 16l-426 737l-98 -57l425 -740zM-16 702l126 73l442 -765l55 -100l-127 -76l-441 768z" />
    <glyph glyph-name="bracketright" unicode="]" horiz-adv-x="354" 
d="M288 716h-252v-70h74v-612h-74v-70h252v752zM75 -152l-55 100v102h74v480h-19l-55 100v102h284l55 -100v-784h-284z" />
    <glyph glyph-name="asciicircum" unicode="^" horiz-adv-x="647" 
d="M611 150l-240 360h-94l-241 -360l110 -65l176 266l176 -261zM380 526l254 -382l55 -100l-141 -75l-170 254l-172 -260l-138 82l-55 100l255 381h112z" />
    <glyph glyph-name="underscore" unicode="_" horiz-adv-x="712" 
d="M696 -33h-680v-108h680v108zM55 -257l-55 100v140h712l55 -100v-140h-712z" />
    <glyph glyph-name="grave" unicode="`" horiz-adv-x="324" 
d="M192 641c3.33301 14.667 7.5 27.5 12.5 38.5s12.833 23.167 23.5 36.5c-43.333 0 -82.833 -17.5 -118.5 -52.5s-53.5 -75.5 -53.5 -121.5c0 -29.333 10.167 -54.5 30.5 -75.5s45.833 -31.5 76.5 -31.5c30 0 55 10.333 75 31s30 46 30 76
c0 27.333 -7.16699 49.333 -21.5 66s-32.5 27.667 -54.5 33zM278 581l37.001 -64.001c8 -13.333 14 -25.5 18 -36.5s6 -23.833 6 -38.5c0 -33.333 -11.833 -62.166 -35.5 -86.499s-52.167 -36.5 -85.5 -36.5c-46.667 0 -79.334 16.667 -98.001 50l-61 109
c-12.667 20 -19 41.333 -19 64c0 54 18.667 98.333 56 133c40.667 38 95.667 57 165 57l55 -100c-3.33301 -4 -11 -14 -23 -30c-8 -10.667 -13 -17.667 -15 -21z" />
    <glyph glyph-name="a" unicode="a" horiz-adv-x="628" 
d="M551 510l-176 0.000976562v-28c-13.333 10.667 -29.166 19.5 -47.499 26.5s-35.833 10.5 -52.5 10.5c-64.667 0 -119.834 -24.833 -165.501 -74.5s-68.5 -109.834 -68.5 -180.501c0 -70 22.5 -128.833 67.5 -176.5s99.5 -71.5 163.5 -71.5h51l52 130v-130h176l50 170h-50
v324zM375 264.001v-78h-74c-21.333 0 -39.166 7.5 -53.499 22.5s-21.5 33.5 -21.5 55.5c0 21.333 7.16699 39.5 21.5 54.5s31.833 22.5 52.5 22.5c21.333 0 39.166 -7.5 53.499 -22.5s21.5 -33.167 21.5 -54.5zM359 526.001l207.998 -0.000976562l55 -100v-224l55 -100
l-59 -202h-204l-15 26l-10 -26h-62c-42.667 0 -83.667 11.167 -123 33.5s-68.666 51.833 -87.999 88.5l-65 123c-17.333 32.667 -26 72.334 -26 119.001c0 74 24.667 137.667 74 191s108 80 176 80c18.667 0 34.334 -2.16699 47.001 -6.5s25 -10.5 37 -18.5v16z" />
    <glyph glyph-name="b" unicode="b" horiz-adv-x="628" 
d="M76 562l-0.000976562 -546h176v27c28.667 -24 62.334 -36 101.001 -36c64 0 119 25 165 75s69 110.333 69 181c0 70 -22 128.667 -66 176s-98.333 71 -163 71h-54l-52 -130v336h-176l-50 -154h50zM251.999 263l0.000976562 77h75c20.667 0 38.334 -7.33301 53.001 -22
s22 -33 22 -55c0 -21.333 -7.33301 -39.666 -22 -54.999s-32.334 -23 -53.001 -23s-38.334 7.66699 -53.001 23s-22 33.666 -22 54.999zM60 0l-0.000976562 446l-55 100l59 186h204l55 -100v-106h35c42.667 0 83.334 -11.667 122.001 -35s67 -52 85 -86l71 -133
c6.66699 -12 12 -28.5 16 -49.5s6 -40.833 6 -59.5c0 -74 -24.667 -137.833 -74 -191.5s-108 -80.5 -176 -80.5c-16.667 0 -34.5 2.5 -53.5 7.5s-29.5 8.5 -31.5 10.5v-9h-208z" />
    <glyph glyph-name="c" unicode="c" horiz-adv-x="445" 
d="M419 36l-66 161c-19.333 -8 -38 -12 -56 -12c-20 0 -37.167 7.83301 -51.5 23.5s-21.5 34.167 -21.5 55.5c0 20.667 7.33301 38.667 22 54s31.667 23 51 23c10 0 20.167 -1.66699 30.5 -5s18.833 -7.66602 25.5 -12.999l65 165c-34.667 20.667 -75.667 31 -123 31
c-70 0 -129.833 -24.833 -179.5 -74.5s-74.5 -109.834 -74.5 -180.501s24.833 -131.167 74.5 -181.5s109.5 -75.5 179.5 -75.5c16 0 37.333 3.16699 64 9.5s46.667 12.833 60 19.5zM417 118l78 -190c-21.333 -10 -45.833 -18.667 -73.5 -26s-51.5 -11 -71.5 -11
c-46.667 0 -91 11.667 -133 35s-73.667 54.333 -95 93l-68 123c-19.333 35.333 -29 76 -29 122c0 74 26.667 137.667 80 191s116.666 80 189.999 80c22.667 0 46.667 -3.33301 72 -10s49 -16.667 71 -30l55 -100l-78 -198c-12 10 -23.167 17.167 -33.5 21.5
s-20.166 6.5 -29.499 6.5c-20 0 -35.333 -8 -46 -24c7.33301 0 13.5 0.833008 18.5 2.5s17.5 6.5 37.5 14.5z" />
    <glyph glyph-name="d" unicode="d" horiz-adv-x="627" 
d="M551 716l-176.001 0.000976562l-50 -154h50v-77c-28 22.667 -61 34 -99 34c-65.333 0 -120.833 -24.833 -166.5 -74.5s-68.5 -109.834 -68.5 -180.501s22.333 -129.667 67 -177s99.334 -71 164.001 -71h51l52 130v-130h176l50 170h-50v530zM374.999 264.001
l-0.000976562 -78h-74c-21.333 0 -39.166 7.5 -53.499 22.5s-21.5 33.5 -21.5 55.5c0 21.333 7.5 39.5 22.5 54.5s32.833 22.5 53.5 22.5c20 0 37.167 -7.5 51.5 -22.5s21.5 -33.167 21.5 -54.5zM312.998 531.001l-12 15l62 186h204l55 -100v-429l55 -101l-59 -202h-204
l-15 26l-10 -26h-62c-44 0 -84.667 11 -122 33s-66.333 52 -87 90l-64 117c-19.333 34.667 -29 76 -29 124c0 74 24.667 137.667 74 191s108.333 80 177 80h14.5c4.33301 0 11.833 -1.33301 22.5 -4z" />
    <glyph glyph-name="e" unicode="e" horiz-adv-x="587" 
d="M245 240h305.998c0 84.667 -24.167 152.334 -72.5 203.001s-109.166 76 -182.499 76c-70.667 0 -130.834 -24.833 -180.501 -74.5s-74.5 -109.834 -74.5 -180.501c0 -70 25 -130.333 75 -181s110 -76 180 -76c40 0 70.333 1.66699 91 5c30.667 5.33301 59 15.333 85 30
l43 144c-36.667 -12.667 -81 -19 -133 -19c-27.333 0 -52.666 6.5 -75.999 19.5s-43.666 30.833 -60.999 53.5zM363.998 334l-141.001 -0.000976562c3.33301 16.667 11.333 30.334 24 41.001s27.667 16 45 16c18 0 33.333 -5 46 -15s21.334 -24 26.001 -42zM295.997 534.999
c48.667 0 92.665 -10 131.998 -30s71 -51 95 -93l53 -94c14.667 -24.667 26 -52.834 34 -84.501s12 -68.167 12 -109.5h-38l9 -17l-52 -176c-27.333 -16 -56.666 -26.667 -87.999 -32s-65.333 -8 -102 -8c-50 0 -96.667 13.5 -140 40.5s-76.666 62.5 -99.999 106.5l-56 104
c-20 38.667 -30 79.334 -30 122.001c0 74 26.667 137.667 80 191s117 80 191 80z" />
    <glyph glyph-name="f" unicode="f" horiz-adv-x="371" 
d="M85 340v-324h176v324h45l44 170h-89c0 14.667 3.66699 27 11 37s16.333 15 27 15h9l40 154h-117c-40.667 0 -75.167 -11 -103.5 -33s-42.5 -52 -42.5 -90v-83h-28l-31 -170h59zM62 224l-54.999 100l37 202h25v67c0 41.333 16.167 74.833 48.5 100.5
s70.166 38.5 113.499 38.5h137l55 -100l-35 -137l38 -69l-53 -202h-41v-324h-208l-55 100v224h-7z" />
    <glyph glyph-name="g" unicode="g" horiz-adv-x="622" 
d="M551 510h-176v-30c-15.333 11.333 -32.5 20.666 -51.5 27.999s-36.833 11 -53.5 11c-64.667 0 -119 -23 -163 -69s-66 -101.667 -66 -167c0 -63.333 22 -117.666 66 -162.999s97 -68 159 -68h57l52 130v-130c0 -18.667 -8.83301 -31.667 -26.5 -39
s-40.834 -11 -69.501 -11c-33.333 0 -85.333 12 -156 36l-29 -147c30.667 -14.667 62.834 -25.5 96.501 -32.5s68.5 -10.5 104.5 -10.5c68 0 124.667 14 170 42c57.333 35.333 86 89.333 86 162v458zM375 280v-68h-71c-22 0 -40.5 6.5 -55.5 19.5s-22.5 29.167 -22.5 48.5
s7 36 21 50s31 21 51 21c21.333 0 39.5 -6.83301 54.5 -20.5s22.5 -30.5 22.5 -50.5zM359 526l207.999 -0.00292969l55 -100v-474c0 -77.333 -31 -135.333 -93 -174c-49.333 -30.667 -109 -46 -179 -46c-39.333 0 -75.5 3.5 -108.5 10.5s-69.833 20.167 -110.5 39.5l-55 100
l35 177l4 -1l-56 101c-10.667 18.667 -19 38.334 -25 59.001s-9 42.334 -9 65.001c0 68.667 23.833 127.834 71.5 177.501s105.5 74.5 173.5 74.5c17.333 0 32.833 -2.16699 46.5 -6.5s27.834 -10.5 42.501 -18.5v16z" />
    <glyph glyph-name="h" unicode="h" horiz-adv-x="608" 
d="M252 380v336h-176l-50 -154h50v-546h176v324h31c20 0 37 -7.33301 51 -22s21 -32.667 21 -54v-248h176l50 170h-50v154c0 47.333 -17.167 87.5 -51.5 120.5s-75.833 49.5 -124.5 49.5h-51zM60 0v445.999l-55 100l59 186h204l55 -100v-106h32c38 0 72.167 -10 102.5 -30
s54.833 -47 73.5 -81l44 -81c8 -14.667 14.5 -30.167 19.5 -46.5s7.5 -32.166 7.5 -47.499v-38l55 -100l-59 -202h-204l-55 100v224h-16v-324h-208z" />
    <glyph glyph-name="i" unicode="i" horiz-adv-x="328" 
d="M252 510h-176l-50 -170h50v-324h176l50 170h-50v324zM57 501l-33 45l61 186h225l55 -100l-58 -177l16 -29v-226l55 -98l-59 -202h-204l-55 100v224l-55 100zM289 716h-191l-51 -154h191z" />
    <glyph glyph-name="j" unicode="j" horiz-adv-x="328" 
d="M252 510h-175.999l-50 -170h50v-306c0 -10 -3.16699 -18.833 -9.5 -26.5s-13.5 -11.5 -21.5 -11.5h-21l-31 -148h139c33.333 0 61.666 12.333 84.999 37s35 54 35 88v537zM55.001 496l-30 49.999l61 186h225l55 -100l-58 -178l15 -28v-553
c0 -37.333 -13.5 -70.166 -40.5 -98.499s-58.833 -42.5 -95.5 -42.5h-159l-55 100l38 180h34c10 0 15 7.33301 15 22v190l-55 100zM290.001 715.999h-191l-51 -154h191z" />
    <glyph glyph-name="k" unicode="k" horiz-adv-x="562" 
d="M252 716h-176l-50 -154h50v-546h176v194l89 -194h205l-133 269l113 225h-200l-72 -169zM64 732h204l55 -100v-106h229l55 -100l-121 -241l141 -285h-241l-55 100l-8 18v-118h-208l-55 100v446l-55 100z" />
    <glyph glyph-name="l" unicode="l" horiz-adv-x="327" 
d="M251 716h-175l-50 -154h50v-546h175l50 170h-50v530zM64 732h203l55 -100v-430l55 -100l-59 -202h-203l-55 100v446l-55 100z" />
    <glyph glyph-name="m" unicode="m" horiz-adv-x="876" 
d="M252 510h-176.001l-50 -170h50v-324h176v324h26c20 0 37 -7.33301 51 -22s21 -32.667 21 -54v-248h176v324h26c20 0 37 -7.33301 51 -22s21 -32.667 21 -54v-248h176l50 170h-50v154c0 47.333 -17.167 87.5 -51.5 120.5s-75.833 49.5 -124.5 49.5h-59l-42 -105
c-17.333 34 -37.666 59 -60.999 75c-28.667 20 -66 30 -112 30h-46l-52 -130v130zM63.999 526l203.999 0.000976562l13 -30l12 30h57c46.667 0 86.334 -10 119.001 -30c24 -14.667 41.333 -32.334 52 -53.001l33 83h70c34 0 66.167 -9 96.5 -27s53.833 -41.333 70.5 -70
l52 -93c18.667 -29.333 28 -61.333 28 -96v-38l55 -100l-59 -202h-204l-55 100v224h-11v-324h-208l-55 100v224h-11v-324h-208l-55 100v224l-55 100z" />
    <glyph glyph-name="n" unicode="n" horiz-adv-x="608" 
d="M252 510h-176l-50 -170h50v-324h176v324h31c20 0 37 -7.33301 51 -22s21 -32.667 21 -54v-248h176l50 170h-50v154c0 47.333 -17.167 87.5 -51.5 120.5s-75.833 49.5 -124.5 49.5h-51l-52 -130v130zM64 526h204.001l10 -37l15 37h62c36 0 68.667 -8.66699 98 -26
s52.666 -41 69.999 -71l55 -99c16 -27.333 24 -57.333 24 -90v-38l55 -100l-59 -202h-204l-55 100v224h-16v-324h-208l-55 100v224l-55 100z" />
    <glyph glyph-name="o" unicode="o" horiz-adv-x="597" 
d="M298 185c-20 0 -37 7.66699 -51 23s-21 34 -21 56c0 20.667 7 38.667 21 54s30.667 23 50 23c20.667 0 38.167 -7.5 52.5 -22.5s21.5 -33.167 21.5 -54.5c0 -20.667 -7.33301 -39 -22 -55s-31.667 -24 -51 -24zM298 7c70.667 0 131.332 24.998 181.999 74.998
s76 110.667 76 182c0 70.667 -25.167 130.834 -75.5 180.501s-111.166 74.5 -182.499 74.5s-132 -24.667 -182 -74s-75 -109.666 -75 -180.999s25 -132 75 -182s110.667 -75 182 -75zM352.998 -109.002c-51.333 0 -98.6699 13.3311 -142.003 39.998
s-76.666 62.334 -99.999 107.001l-52 97c-11.333 20.667 -19.833 41.334 -25.5 62.001s-8.5 43 -8.5 67c0 74.667 26.833 138.5 80.5 191.5s117.834 79.5 192.501 79.5c48 0 92.333 -11.5 133 -34.5s73.334 -54.167 98.001 -93.5l63 -112c23.333 -41.333 35 -85 35 -131
c0 -74 -27 -138 -81 -192s-118.333 -81 -193 -81zM277.994 -8.00391l5 -1z" />
    <glyph glyph-name="p" unicode="p" horiz-adv-x="628" 
d="M252 510h-176l-50 -170h50v-483h176v185c28.667 -23.333 62.667 -35 102 -35c63.333 0 118 25.167 164 75.5s69 110.5 69 180.5c0 70.667 -21.833 129.5 -65.5 176.5s-98.167 70.5 -163.5 70.5h-54l-52 -130v130zM252 263l0.000976562 77h75
c20.667 0 38.334 -7.33301 53.001 -22s22 -33 22 -55c0 -21.333 -7.33301 -39.666 -22 -54.999s-32.334 -23 -53.001 -23s-38.334 7.66699 -53.001 23s-22 33.666 -22 54.999zM64.001 526h203.999l13 -29l12 29h65c42 0 80.5 -9.83301 115.5 -29.5
s63.833 -47.167 86.5 -82.5l60 -110c25.333 -42 38 -89 38 -141c0 -73.333 -24.667 -137 -74 -191s-107.666 -81 -174.999 -81c-16 0 -33.833 2.5 -53.5 7.5s-30.5 8.5 -32.5 10.5v-168h-208l-55 100v383l-55 100z" />
    <glyph glyph-name="q" unicode="q" horiz-adv-x="628" 
d="M551 510l-176.002 0.000976562v-32c-13.333 11.333 -29.666 21 -48.999 29s-36.666 12 -51.999 12c-64 0 -118.833 -24.833 -164.5 -74.5s-68.5 -109.834 -68.5 -180.501c0 -70 22.5 -128.833 67.5 -176.5s99.5 -71.5 163.5 -71.5h51l52 130v-289h176l50 170h-50v483z
M374.998 264.001l0.000976562 -78.001h-74c-20.667 0 -38.334 7.66699 -53.001 23s-22 34.333 -22 57c0 20.667 7 38.334 21 53.001s31 22 51 22c22 0 40.333 -7.33301 55 -22s22 -33 22 -55zM358.999 526l208 0.000976562l55 -100v-383l55 -100l-59 -202h-204l-55 100v59
h-32c-44.667 0 -86.167 12 -124.5 36s-68.5 56.333 -90.5 97l-49 90c-12.667 21.333 -22.167 43.666 -28.5 66.999s-9.5 48 -9.5 74c0 73.333 24.5 136.833 73.5 190.5s107.5 80.5 175.5 80.5c16 0 30.667 -2.16699 44 -6.5s27 -10.5 41 -18.5v16z" />
    <glyph glyph-name="r" unicode="r" horiz-adv-x="417" 
d="M76 340l0.000976562 -324h176v248c0 22.667 5.33301 41.667 16 57c13.333 18.667 32.333 28 57 28h34l42 170h-36c-22.667 0 -45.334 -5.33301 -68.001 -16s-37.667 -25.667 -45 -45v52h-176l-50 -170h50zM60.001 0l-0.000976562 223.999l-55 100l59 202h204v-25
c9.33301 9.33301 23.333 17.333 42 24s37 10 55 10h56l55 -100l-49 -202h-47c-19.333 0 -33.666 -6.66699 -42.999 -20s-14 -29.666 -14 -48.999v-264h-208z" />
    <glyph glyph-name="s" unicode="s" horiz-adv-x="448" 
d="M345 330l36.999 145c-24.667 16.667 -51 28.167 -79 34.5s-60 9.5 -96 9.5c-47.333 0 -87.666 -13.167 -120.999 -39.5s-50 -62.833 -50 -109.5c0 -46 29.333 -85.333 88 -118s88 -52 88 -58c0 -22 -13.333 -33 -40 -33c-22 0 -40 2.5 -54 7.5s-29.667 15.167 -47 30.5
l-35 -152c26 -14 53.333 -24.167 82 -30.5s60 -9.5 94 -9.5c51.333 0 96 13 134 39c44 30 66 68.667 66 116c0 46 -30.833 84.833 -92.5 116.5s-92.5 52.5 -92.5 62.5c0 16 10.667 24 32 24c12.667 0 25.167 -2.16699 37.5 -6.5s28.5 -13.833 48.5 -28.5zM454.999 382
l-40.999 -163l49 -85c6 -10.667 10.833 -22.167 14.5 -34.5s5.5 -24.833 5.5 -37.5c0 -51.333 -24 -93.666 -72 -126.999c-42.667 -29.333 -90.667 -44 -144 -44c-38 0 -71 3.16699 -99 9.5s-59.667 19.166 -95 38.499l-55 100l43 190l32 -27l-57 105
c-10.667 19.333 -16 40.333 -16 63c0 50 19.333 90.667 58 122c35.333 28.667 78.333 43 129 43c37.333 0 71.166 -3.66699 101.499 -11s60.833 -21.333 91.5 -42z" />
    <glyph glyph-name="t" unicode="t" horiz-adv-x="353" 
d="M258 510v112l-178 -44v-68h-15l-39 -170h54v-324h178v324h36l38 170h-74zM6 324l46 202h12v65l210 51l55 -100v-16h23l55 -100l-45 -202h-33v-324h-210l-55 100v224z" />
    <glyph glyph-name="u" unicode="u" horiz-adv-x="608" 
d="M252 510l-176 0.000976562l-50 -170h50v-185c0 -37.333 13.5 -69.833 40.5 -97.5s59.167 -41.5 96.5 -41.5h89l53 135v-135h176l50 170h-50v324h-176v-324h-51c-14.667 0 -27 5.66699 -37 17s-15 26.666 -15 45.999v261zM64 526.001l204.002 -0.00195312l55 -100v-224h16
v324h208l55 -100v-224l55 -100l-59 -202h-204l-16 26l-10 -26h-100c-26.667 0 -52.334 7.83301 -77.001 23.5s-43.334 34.834 -56.001 57.501l-62 114c-2 4.66699 -4.66699 12.834 -8 24.501s-5 23.5 -5 35.5v69l-55 100z" />
    <glyph glyph-name="v" unicode="v" horiz-adv-x="533" 
d="M205 510h-194l142 -494h228l142 494h-194l-61 -258zM196 -100l-55 100l-151 526h228l55 -100l10 -41l33 141h228l55 -100l-151 -526h-252z" />
    <glyph glyph-name="w" unicode="w" horiz-adv-x="822" 
d="M210 510h-194l154 -494h178l61 185l65 -185h178l154 494h-194l-65 -239l-67 239h-138l-65 -239zM518 -100l-55 100l-8 22l-40 -122h-202l-55 100l-164 526h228l55 -100l13 -48l40 148h162l55 -100l13 -48l40 148h228l55 -100l-164 -526h-201z" />
    <glyph glyph-name="x" unicode="x" horiz-adv-x="586" 
d="M236 510h-206l134 -233l-148 -261h206l70 134l72 -134h206l-148 261l134 233h-206l-56 -118zM639 426l-143 -248l101 -178l55 -100h-243l-55 100l-7 14l-60 -114h-243l-55 100l156 275l-143 251h244l47 -99l47 99h244z" />
    <glyph glyph-name="y" unicode="y" horiz-adv-x="605" 
d="M253 510l-175.999 -0.00195312l-50 -170h50v-157c0 -37.333 14.667 -68.666 44 -93.999s64.333 -38 105 -38h80l52 130v-130c0 -19.333 -9.33301 -34.166 -28 -44.499s-41.334 -15.5 -68.001 -15.5c-42 0 -94.667 11.667 -158 35l-27 -135
c32 -16 63.667 -27.167 95 -33.5s66 -9.5 104 -9.5c68.667 0 125.667 13.667 171 41c58 35.333 87 89.333 87 162v459h-176v-303h-44c-16 0 -30.167 6.5 -42.5 19.5s-18.5 27.167 -18.5 42.5v241zM65.001 525.998l203.999 0.000976562l55 -100v-203h18v303h208l55 -100v-475
c0 -77.333 -31.333 -135.333 -94 -174c-48.667 -30 -108.667 -45 -180 -45c-38.667 0 -74.667 3.5 -108 10.5s-69.666 20.167 -108.999 39.5l-55 100l34 169l31 -12l-48 83c-10 17.333 -15 37.666 -15 60.999v40l-55 101z" />
    <glyph glyph-name="z" unicode="z" horiz-adv-x="396" 
d="M360 510h-280l-44 -176h89l-89 -318h280l44 176h-97zM70 -100l-55 100l61 218h-5l-55 100l52 208h314l55 -100l-66 -218h9l55 -100l-52 -208h-313z" />
    <glyph glyph-name="braceleft" unicode="{" horiz-adv-x="397" 
d="M36 382l-0.000976562 -81.999h23c14 0 26.167 -5.83301 36.5 -17.5s15.5 -25.834 15.5 -42.501v-202c0 -21.333 7.33301 -39 22 -53s32.667 -21 54 -21h174v74h-30c-12 0 -22.333 4.66699 -31 14s-13 20.666 -13 33.999v178c0 18 -5 34.333 -15 49s-22 23.667 -36 27
c14.667 4.66699 26.834 14.167 36.501 28.5s14.5 30.833 14.5 49.5v178c0 12 4.33301 22.667 13 32s19 14 31 14h30v74h-174c-21.333 0 -39.333 -7.33301 -54 -22s-22 -32.667 -22 -54v-198c0 -17.333 -5.33301 -31.666 -16 -42.999s-22.667 -17 -36 -17h-23z
M74.999 184.001l-55.001 99.998v114h39c24 0 36 14.667 36 44v198c0 24.667 9.16699 46.167 27.5 64.5s39.833 27.5 64.5 27.5h190l55 -100v-106h-46c-18.667 0 -28 -10 -28 -30v-178c0 -14 -3.66699 -29.167 -11 -45.5s-15.666 -27.166 -24.999 -32.499
c9.33301 -4.66699 17.666 -14.667 24.999 -30s11 -30.666 11 -45.999v-110h19l55 -100v-106h-190c-17.333 0 -33.166 4.5 -47.499 13.5s-25.833 21.5 -34.5 37.5l-52 94c-8.66699 16 -13 31 -13 45v146h-20z" />
    <glyph glyph-name="bar" unicode="|" horiz-adv-x="268" 
d="M192 716h-126v-859h126v859zM50 732h158v-891h-158v891z" />
    <glyph glyph-name="braceright" unicode="}" horiz-adv-x="397" 
d="M361 300v81.9961h-23c-14 0 -26.167 5.5 -36.5 16.5s-15.5 25.5 -15.5 43.5v198c0 21.333 -7.33301 39.333 -22 54s-32.667 22 -54 22h-174v-74h30c12.667 0 23.167 -4.5 31.5 -13.5s12.5 -19.833 12.5 -32.5v-178c0 -17.333 4.83301 -33.166 14.5 -47.499
s21.834 -24.166 36.501 -29.499c-14.667 -4 -26.834 -13.167 -36.501 -27.5s-14.5 -30.833 -14.5 -49.5v-178c0 -13.333 -4.33301 -24.666 -13 -33.999s-19 -14 -31 -14h-30v-74h174c21.333 0 39.333 7 54 21s22 31.667 22 53v202c0 16.667 5.16699 30.834 15.5 42.501
s22.5 17.5 36.5 17.5h23zM432 297.996l0.000976562 -113.998h-39c-10.667 0 -19.334 -4 -26.001 -12s-10 -18.667 -10 -32v-202c0 -24 -9.33301 -45 -28 -63s-40 -27 -64 -27h-190l-55 100v106h46c18.667 0 28 10.667 28 32v178c0 13.333 3.5 27 10.5 41
s15.167 25.667 24.5 35c-9.33301 9.33301 -17.5 21.166 -24.5 35.499s-10.5 28.5 -10.5 42.5v108h-19l-55 100v106h190c18 0 34.167 -4.83301 48.5 -14.5s25.833 -22.834 34.5 -39.501l52 -94c8 -14 12 -28.667 12 -44v-142h20z" />
    <glyph glyph-name="asciitilde" unicode="~" horiz-adv-x="382" 
d="M346 399l-37.999 105c-11.333 -11.333 -22.833 -19.333 -34.5 -24s-22.834 -7 -33.501 -7c-12.667 0 -31.334 2.66699 -56.001 8s-44 8 -58 8c-15.333 0 -30.666 -2.83301 -45.999 -8.5s-30 -15.5 -44 -29.5l41 -100c14 12.667 25.833 21.167 35.5 25.5
s20.5 6.5 32.5 6.5c10.667 0 27.334 -2.66699 50.001 -8s41.334 -8 56.001 -8c15.333 0 31.166 2.33301 47.499 7s32.166 13 47.499 25zM369.001 433l51.001 -139c-20 -16 -41.333 -27.667 -64 -35c-16.667 -5.33301 -33.334 -8 -50.001 -8
c-17.333 0 -32.666 1.33301 -45.999 4c-39.333 8 -59.333 12 -60 12c-10.667 0 -20.334 -2.33301 -29.001 -7s-23.667 -16.667 -45 -36l-55 100l-54 131c19.333 19.333 38 32.5 56 39.5s35.667 10.5 53 10.5c16.667 0 32 -1.33301 46 -4c42 -8 64.667 -12 68 -12
c10 0 19.333 2.33301 28 7c12.667 6.66699 28 19 46 37z" />
    <glyph glyph-name="nonbreakingspace" unicode="&#xa0;" horiz-adv-x="328" 
d="M79 446l-55 100l61 186h225l55 -100l-61 -186h-225zM289 716h-191l-51 -154h191z" />
    <glyph glyph-name="exclamdown" unicode="&#xa1;" horiz-adv-x="343" 
d="M315 55h-55l-18 204h-168l-28 -402h214zM155 306c29.333 0 54.333 10.333 75 31s31 46 31 76c0 29.333 -10.333 54.333 -31 75s-45.667 31 -75 31s-54.333 -10.333 -75 -31s-31 -45.667 -31 -75s10.167 -54.5 30.5 -75.5s45.5 -31.5 75.5 -31.5zM336 71l54.999 -100.001
l-64 -230h-243l7 100h-62l30 434h36l-45 77c-11.333 18.667 -17 39 -17 61c0 33.333 12 62 36 86s52.667 36 86 36c24.667 0 46.834 -6.5 66.501 -19.5s34.5 -30.833 44.5 -53.5l46 -82c13.333 -19.333 20 -41.666 20 -66.999c0 -37.333 -14.667 -68.333 -44 -93l24 -45
l9 -104h15z" />
    <glyph glyph-name="exclamdown" unicode="&#x40e;" horiz-adv-x="343" 
d="M315 55h-55l-18 204h-168l-28 -402h214zM155 306c29.333 0 54.333 10.333 75 31s31 46 31 76c0 29.333 -10.333 54.333 -31 75s-45.667 31 -75 31s-54.333 -10.333 -75 -31s-31 -45.667 -31 -75s10.167 -54.5 30.5 -75.5s45.5 -31.5 75.5 -31.5zM336 71l54.999 -100.001
l-64 -230h-243l7 100h-62l30 434h36l-45 77c-11.333 18.667 -17 39 -17 61c0 33.333 12 62 36 86s52.667 36 86 36c24.667 0 46.834 -6.5 66.501 -19.5s34.5 -30.833 44.5 -53.5l46 -82c13.333 -19.333 20 -41.666 20 -66.999c0 -37.333 -14.667 -68.333 -44 -93l24 -45
l9 -104h15z" />
    <glyph glyph-name="cent" unicode="&#xa2;" horiz-adv-x="470" 
d="M353 592l-124.001 -0.000976562v-78c-53.333 -15.333 -97.166 -46.333 -131.499 -93s-51.5 -99 -51.5 -157c0 -57.333 17.333 -109.666 52 -156.999s78.334 -78.666 131.001 -93.999v-90h124v90c13.333 2.66699 26.5 6.16699 39.5 10.5s23.5 8.5 31.5 12.5l-66 161
c-19.333 -8 -38 -12 -56 -12c-20 0 -37.167 7.83301 -51.5 23.5s-21.5 34.167 -21.5 55.5c0 20.667 7.16699 38.834 21.5 54.501s31.5 23.5 51.5 23.5c11.333 0 21.666 -1.66699 30.999 -5s17.666 -8 24.999 -14l65 165c-8.66699 5.33301 -18.667 10.166 -30 14.499
s-24.666 8.16602 -39.999 11.499v78zM212.999 607.999l156.001 -0.000976562l55 -102l19 -11l55 -100l-78 -198c-13.333 10.667 -24.833 18.167 -34.5 22.5s-19.167 6.5 -28.5 6.5c-8.66699 0 -17.334 -2.33301 -26.001 -7s-15.334 -10.667 -20.001 -18
c7.33301 0 13.5 0.833008 18.5 2.5s17.5 6.5 37.5 14.5l55 -100l78 -190c-15.333 -7.33301 -29 -13.166 -41 -17.499s-23.667 -7.83301 -35 -10.5v-93h-156l-55 100v20c-34 22 -62.333 51.333 -85 88l-61 109c-11.333 21.333 -20.333 43.833 -27 67.5s-10 47.834 -10 72.501
c0 59.333 17.833 114.166 53.5 164.499s78.834 82.833 129.501 97.5v82z" />
    <glyph glyph-name="cent" unicode="&#x45e;" horiz-adv-x="470" 
d="M353 592l-124.001 -0.000976562v-78c-53.333 -15.333 -97.166 -46.333 -131.499 -93s-51.5 -99 -51.5 -157c0 -57.333 17.333 -109.666 52 -156.999s78.334 -78.666 131.001 -93.999v-90h124v90c13.333 2.66699 26.5 6.16699 39.5 10.5s23.5 8.5 31.5 12.5l-66 161
c-19.333 -8 -38 -12 -56 -12c-20 0 -37.167 7.83301 -51.5 23.5s-21.5 34.167 -21.5 55.5c0 20.667 7.16699 38.834 21.5 54.501s31.5 23.5 51.5 23.5c11.333 0 21.666 -1.66699 30.999 -5s17.666 -8 24.999 -14l65 165c-8.66699 5.33301 -18.667 10.166 -30 14.499
s-24.666 8.16602 -39.999 11.499v78zM212.999 607.999l156.001 -0.000976562l55 -102l19 -11l55 -100l-78 -198c-13.333 10.667 -24.833 18.167 -34.5 22.5s-19.167 6.5 -28.5 6.5c-8.66699 0 -17.334 -2.33301 -26.001 -7s-15.334 -10.667 -20.001 -18
c7.33301 0 13.5 0.833008 18.5 2.5s17.5 6.5 37.5 14.5l55 -100l78 -190c-15.333 -7.33301 -29 -13.166 -41 -17.499s-23.667 -7.83301 -35 -10.5v-93h-156l-55 100v20c-34 22 -62.333 51.333 -85 88l-61 109c-11.333 21.333 -20.333 43.833 -27 67.5s-10 47.834 -10 72.501
c0 59.333 17.833 114.166 53.5 164.499s78.834 82.833 129.501 97.5v82z" />
    <glyph glyph-name="sterling" unicode="&#xa3;" horiz-adv-x="640" 
d="M349 273l116.003 0.000976562v135h-120c-6 10 -10.833 20.167 -14.5 30.5s-5.5 21.166 -5.5 32.499c0 14 6 26.667 18 38c14.667 13.333 34 20 58 20c23.333 0 43.666 -2.5 60.999 -7.5s37.666 -15.5 60.999 -31.5l91 167l-149 67l-12 -27
c-10 7.33301 -24.167 12.333 -42.5 15s-40.833 4 -67.5 4c-59.333 0 -110.166 -18.833 -152.499 -56.5s-63.5 -81.167 -63.5 -130.5c0 -27.333 2 -49 6 -65s10.667 -34.667 20 -56h-57v-135h56c0 -30 -4.16699 -56.5 -12.5 -79.5s-22.5 -44.833 -42.5 -65.5l56 -132
c12.667 11.333 29.667 20.666 51 27.999s43 11 65 11c23.333 0 51 -4 83 -12c72.667 -18 121.334 -27 146.001 -27c20 0 38 1.5 54 4.5s29.667 8.16699 41 15.5l-47 177c-26.667 -23.333 -51.334 -35 -74.001 -35c-16 0 -33.333 3.33301 -52 10
c-46.667 16.667 -78.334 25 -95.001 25c9.33301 20.667 15.666 36.834 18.999 48.501s5 22.167 5 31.5zM555.003 222.001l55 -99.999l56 -213c-16 -10.667 -33.5 -18.167 -52.5 -22.5s-39.167 -6.5 -60.5 -6.5c-27.333 0 -58 4 -92 12c-76 18 -121.667 27 -137 27
c-22 0 -43 -3.83301 -63 -11.5s-39.667 -20.5 -59 -38.5l-55 100l-69 163c11.333 12 19.833 21.667 25.5 29s10.5 16.333 14.5 27l-41 76l3 160h48c-6 14 -10.333 29.667 -13 47s-4 36.666 -4 57.999c0 52 23.167 98.833 69.5 140.5s100.5 62.5 162.5 62.5
c26 0 48.667 -1 68 -3s31 -4.66699 35 -8l11 24l179 -80l55 -100l-107 -198c-38 25.333 -70 40 -96 44l-7 13l55 -100v-118zM536.003 206.002l-6 -6z" />
    <glyph glyph-name="sterling" unicode="&#x408;" horiz-adv-x="640" 
d="M349 273l116.003 0.000976562v135h-120c-6 10 -10.833 20.167 -14.5 30.5s-5.5 21.166 -5.5 32.499c0 14 6 26.667 18 38c14.667 13.333 34 20 58 20c23.333 0 43.666 -2.5 60.999 -7.5s37.666 -15.5 60.999 -31.5l91 167l-149 67l-12 -27
c-10 7.33301 -24.167 12.333 -42.5 15s-40.833 4 -67.5 4c-59.333 0 -110.166 -18.833 -152.499 -56.5s-63.5 -81.167 -63.5 -130.5c0 -27.333 2 -49 6 -65s10.667 -34.667 20 -56h-57v-135h56c0 -30 -4.16699 -56.5 -12.5 -79.5s-22.5 -44.833 -42.5 -65.5l56 -132
c12.667 11.333 29.667 20.666 51 27.999s43 11 65 11c23.333 0 51 -4 83 -12c72.667 -18 121.334 -27 146.001 -27c20 0 38 1.5 54 4.5s29.667 8.16699 41 15.5l-47 177c-26.667 -23.333 -51.334 -35 -74.001 -35c-16 0 -33.333 3.33301 -52 10
c-46.667 16.667 -78.334 25 -95.001 25c9.33301 20.667 15.666 36.834 18.999 48.501s5 22.167 5 31.5zM555.003 222.001l55 -99.999l56 -213c-16 -10.667 -33.5 -18.167 -52.5 -22.5s-39.167 -6.5 -60.5 -6.5c-27.333 0 -58 4 -92 12c-76 18 -121.667 27 -137 27
c-22 0 -43 -3.83301 -63 -11.5s-39.667 -20.5 -59 -38.5l-55 100l-69 163c11.333 12 19.833 21.667 25.5 29s10.5 16.333 14.5 27l-41 76l3 160h48c-6 14 -10.333 29.667 -13 47s-4 36.666 -4 57.999c0 52 23.167 98.833 69.5 140.5s100.5 62.5 162.5 62.5
c26 0 48.667 -1 68 -3s31 -4.66699 35 -8l11 24l179 -80l55 -100l-107 -198c-38 25.333 -70 40 -96 44l-7 13l55 -100v-118zM536.003 206.002l-6 -6z" />
    <glyph glyph-name="currency" unicode="&#xa4;" horiz-adv-x="564" 
d="M466 75l61.999 62l-68 68c12 16.667 21.5 35.334 28.5 56.001s10.5 41 10.5 61c0 20.667 -3.16699 41 -9.5 61s-15.5 38.667 -27.5 56l66 66l-62 62l-68 -68c-35.333 23.333 -74 35 -116 35c-41.333 0 -80 -12 -116 -36l-69 69l-61 -61l68 -67
c-12 -16.667 -21.5 -35.334 -28.5 -56.001s-10.5 -41 -10.5 -61c0 -41.333 13 -81 39 -119l-68 -67l61 -61l69 69c35.333 -24.667 74 -37 116 -37c42.667 0 81.334 12 116.001 36zM281.999 215c-29.333 0 -54 10.333 -74 31s-30 45.667 -30 75c0 28 10 52.333 30 73
s44.667 31 74 31c28.667 0 53 -10 73 -30s30 -44.667 30 -74s-10 -54.333 -30 -75s-44.333 -31 -73 -31zM605.999 37l-85 -85.002l-70 70c-12.667 -8.66699 -29.5 -16 -50.5 -22s-42.167 -9 -63.5 -9s-42.333 3.16699 -63 9.5s-37.667 13.833 -51 22.5l-71 -71l-84 84
l-55 100l70 69c-8.66699 13.333 -16.5 30.833 -23.5 52.5s-10.5 43.167 -10.5 64.5c0 22.667 3.16699 43.834 9.5 63.501s14.5 36.834 24.5 51.501l-70 69l84 84l71 -71c12.667 8 29.5 15.167 50.5 21.5s42.167 9.5 63.5 9.5c20.667 0 41.667 -3 63 -9s38.333 -13 51 -21
l70 70l85 -85l55 -100l-68 -68c9.33301 -14 17 -31.167 23 -51.5s9 -41.5 9 -63.5c0 -16.667 -1.5 -31 -4.5 -43s-7.83301 -26.333 -14.5 -43z" />
    <glyph glyph-name="yen" unicode="&#xa5;" horiz-adv-x="620" 
d="M232 696h-216l160 -301h-101v-104h135v-72h-135v-104h135v-99h200v99h135v104h-135v72h135v104h-101l160 301h-216l-78 -169zM-11 712h253l55 -100l17 -38l64 138h253l55 -100l-114 -215l44 -86v-136h-30l30 -40v-135h-135v-100h-232l-55 100h-80l-55 99v136h30l-30 40
v136h90z" />
    <glyph glyph-name="yen" unicode="&#x490;" horiz-adv-x="620" 
d="M232 696h-216l160 -301h-101v-104h135v-72h-135v-104h135v-99h200v99h135v104h-135v72h135v104h-101l160 301h-216l-78 -169zM-11 712h253l55 -100l17 -38l64 138h253l55 -100l-114 -215l44 -86v-136h-30l30 -40v-135h-135v-100h-232l-55 100h-80l-55 99v136h30l-30 40
v136h90z" />
    <glyph glyph-name="brokenbar" unicode="&#xa6;" horiz-adv-x="236" 
d="M170 340v376h-104v-376h104zM170 -143v376h-104v-376h104zM241 149v-408h-136l-55 100v408h55l-55 75v408h136l55 -100v-408h-46z" />
    <glyph glyph-name="section" unicode="&#xa7;" horiz-adv-x="502" 
d="M247 7c45.333 0 84 14.335 116 43.002s48 64 48 106c0 17.333 -3.5 34.166 -10.5 50.499s-16.5 29.5 -28.5 39.5c24.667 8.66699 45.667 25 63 49s26 49 26 75c0 44 -31.333 80.333 -94 109s-94 50.667 -94 66c0 7.33301 3.83301 13.666 11.5 18.999s16.5 8 26.5 8
c12 0 24.667 -2.66699 38 -8s24.666 -12.333 33.999 -21l51 138c-18 10 -43 18.333 -75 25s-63.333 10 -94 10c-48 0 -89 -12.333 -123 -37s-51 -55 -51 -91c0 -18 3 -36.833 9 -56.5s13.667 -34.167 23 -43.5c-25.333 -18.667 -44 -35.334 -56 -50.001
c-17.333 -21.333 -26 -44 -26 -68c0 -45.333 31.5 -84 94.5 -116s94.5 -56.333 94.5 -73c0 -7.33301 -4.16699 -14.166 -12.5 -20.499s-17.5 -9.5 -27.5 -9.5c-38 0 -66.667 10 -86 30l-31 -131c12.667 -11.333 36.334 -21.333 71.001 -30s69 -13 103 -13zM226 416.002
l36 -15c6 -2 12 -6.33301 18 -13s9 -13.667 9 -21c0 -16 -4.33301 -30.333 -13 -43l-36 15c-17.333 6.66699 -26 21.667 -26 45c0 12 4 22.667 12 32zM302 -108.998c-36.667 0 -73.332 4.83301 -109.999 14.5s-64 22.5 -82 38.5l-55 100l40 170l-51 89
c-12.667 22 -19 44.333 -19 67c0 26 9 51 27 75c12.667 16.667 28.334 31.667 47.001 45c-4.66699 5.33301 -9.83398 18.333 -15.501 39s-8.5 40.334 -8.5 59.001c0 40.667 17.5 74.834 52.5 102.501s80.833 41.5 137.5 41.5c30 0 63.167 -4.16699 99.5 -12.5
s66.166 -18.833 89.499 -31.5l55 -100l-55 -148l16 -24l45 -84c8 -14 12.833 -24.667 14.5 -32s2.5 -17.333 2.5 -30c0 -26.667 -9 -53.334 -27 -80.001c-15.333 -22.667 -32.333 -38.667 -51 -48c6.66699 -8.66699 13 -21 19 -37s9 -32.333 9 -49
c0 -44.667 -18 -83.334 -54 -116.001s-78 -49 -126 -49z" />
    <glyph glyph-name="dieresis" unicode="&#xa8;" horiz-adv-x="552" 
d="M79 498v-482h386l50 198h-236v64h195l37 162h-232v58h195l53 226h-188l-14 -28h-246l-52 -198h52zM63 382l-57 100l46 172l-50 90l61 186h225l21 -38l12 38h225l55 -100l-39 -118l40 -72l-51 -220l35 -64l-35 -154l40 -72l-59 -230h-414l-55 100v382zM267 914h-191
l-51 -154h191zM525 914h-191l-51 -154h191z" />
    <glyph glyph-name="dieresis" unicode="&#x401;" horiz-adv-x="552" 
d="M79 498v-482h386l50 198h-236v64h195l37 162h-232v58h195l53 226h-188l-14 -28h-246l-52 -198h52zM63 382l-57 100l46 172l-50 90l61 186h225l21 -38l12 38h225l55 -100l-39 -118l40 -72l-51 -220l35 -64l-35 -154l40 -72l-59 -230h-414l-55 100v382zM267 914h-191
l-51 -154h191zM525 914h-191l-51 -154h191z" />
    <glyph glyph-name="copyright" unicode="&#xa9;" horiz-adv-x="834" 
d="M417 -4c104 0 192.668 35.333 266.001 106s110 155.667 110 255s-36.333 184 -109 254s-161.334 105 -266.001 105c-103.333 0 -192 -35 -266 -105s-111 -154.667 -111 -254s36.667 -184.333 110 -255s162 -106 266 -106zM417.001 47c-90 0 -166.666 30.333 -229.999 91
s-95 133.667 -95 219s32 158 96 218s140.667 90 230 90s165.666 -30 228.999 -90s95 -132.667 95 -218s-31.667 -158.333 -95 -219s-140 -91 -230 -91zM426.002 96c28.667 0 54.667 3.33105 78 9.99805s45.333 18 66 34l-64 121c-20 -24 -47.333 -36 -82 -36
c-33.333 0 -61.5 11.833 -84.5 35.5s-34.5 53.834 -34.5 90.501c0 36 11.333 66.333 34 91s50.667 37 84 37c29.333 0 58 -12.667 86 -38l77 123l-81 46l-8 -12c-22 6 -45.667 9 -71 9c-70 0 -129.833 -24.833 -179.5 -74.5s-74.5 -110.167 -74.5 -181.5
s24.667 -131.666 74 -180.999s109.333 -74 180 -74zM472.002 -120.002c-74 0 -141.833 18.6689 -203.5 56.002s-109.5 87 -143.5 149l-57 102c-28.667 52 -43 108.667 -43 170c0 103.333 38.667 191.666 116 264.999s169.666 110 276.999 110
c74.667 0 143.334 -19 206.001 -57s110.667 -88.667 144 -152l45 -83c16 -26.667 28.5 -55.834 37.5 -87.501s13.5 -63.5 13.5 -95.5c0 -103.333 -38.333 -192 -115 -266s-169 -111 -277 -111zM726.002 357c0 28.667 -4.33398 57.6689 -13.001 87.002
c-18 18.667 -40 37 -66 55l16 -29l-96 -154c-20.667 19.333 -36.834 32 -48.501 38s-25.167 9 -40.5 9c-29.333 0 -53.666 -10.333 -72.999 -31s-29 -47.334 -29 -80.001c14.667 -7.33301 30.334 -11 47.001 -11c14.667 0 27.667 2.66699 39 8
c16 7.33301 31.667 20.666 47 39.999l55 -100l37 -69c38.667 27.333 69.167 61.5 91.5 102.5s33.5 85.833 33.5 134.5z" />
    <glyph glyph-name="ordfeminine" unicode="&#xaa;" horiz-adv-x="357" 
d="M296 696h-88v-13c-5.33301 6.66699 -12.833 12 -22.5 16s-19.167 6 -28.5 6c-32 0 -59.333 -13 -82 -39s-34 -57 -34 -93c0 -34.667 11 -64 33 -88s49.333 -36 82 -36h28l24 57v-57h88l25 87h-25v160zM208 575v-39.001h-37c-10 0 -18.833 3.83301 -26.5 11.5
s-11.5 17.167 -11.5 28.5c0 10.667 3.66699 20.334 11 29.001s16.333 13 27 13c10 0 18.667 -4.33301 26 -13s11 -18.667 11 -30zM192 711.999l120 -0.000976562l55 -100v-98l30 -62l-34 -119h-152c-23.333 0 -44.5 5.83301 -63.5 17.5s-34.5 27.834 -46.5 48.501l-57 103
c-12.667 22 -19 45.667 -19 71c0 38.667 13 73 39 103s57 45 93 45c14 0 25.667 -3 35 -9z" />
    <glyph glyph-name="ordfeminine" unicode="&#x404;" horiz-adv-x="357" 
d="M296 696h-88v-13c-5.33301 6.66699 -12.833 12 -22.5 16s-19.167 6 -28.5 6c-32 0 -59.333 -13 -82 -39s-34 -57 -34 -93c0 -34.667 11 -64 33 -88s49.333 -36 82 -36h28l24 57v-57h88l25 87h-25v160zM208 575v-39.001h-37c-10 0 -18.833 3.83301 -26.5 11.5
s-11.5 17.167 -11.5 28.5c0 10.667 3.66699 20.334 11 29.001s16.333 13 27 13c10 0 18.667 -4.33301 26 -13s11 -18.667 11 -30zM192 711.999l120 -0.000976562l55 -100v-98l30 -62l-34 -119h-152c-23.333 0 -44.5 5.83301 -63.5 17.5s-34.5 27.834 -46.5 48.501l-57 103
c-12.667 22 -19 45.667 -19 71c0 38.667 13 73 39 103s57 45 93 45c14 0 25.667 -3 35 -9z" />
    <glyph glyph-name="guillemotleft" unicode="&#xab;" horiz-adv-x="432" 
d="M63 0l-33 163l33 163h155l21 -38l8 38h155l55 -100l-34 -163l34 -163h-155l-47 85l18 -85h-155zM46 163l30 -147h122l-30 147l30 147h-122zM230 163l30 -147h122l-30 147l30 147h-122z" />
    <glyph glyph-name="logicalnot" unicode="&#xac;" horiz-adv-x="370" 
d="M324 305h-288v-75h210v-113h78v188zM285 1l-55 100v13h-155l-55 100v107h320l55 -100v-220h-110z" />
    <glyph glyph-name="registered" unicode="&#xae;" horiz-adv-x="834" 
d="M580 183l31 -56.002c36 27.333 64.167 60.833 84.5 100.5s30.5 82.834 30.5 129.501c0 29.333 -4.66699 58 -14 86c-42.667 50 -99 82.333 -169 97c16 -14 28.667 -30.333 38 -49l49 -90c14.667 -24 22 -50.333 22 -79c0 -30.667 -7.5 -60.167 -22.5 -88.5
s-31.5 -45.166 -49.5 -50.499zM239 336.998l-36 64.998c-26.667 -43.333 -40 -91.666 -40 -144.999c0 -29.333 4.66699 -58.666 14 -87.999c26 -30 58 -54.333 96 -73l-28 38v203h-6zM264 151.996h117v156l69 -156h128l-78 141c22 6.66699 40.5 22.167 55.5 46.5
s22.5 51.5 22.5 81.5c0 40 -13.667 73.667 -41 101s-61 41 -101 41h-186l-40 -113h54v-298zM381 381.996v68h30c10 0 18.667 -3 26 -9s11 -14.333 11 -25c0 -10 -3.5 -18.167 -10.5 -24.5s-15.833 -9.5 -26.5 -9.5h-30zM417 -4.00391c104 0 192.668 35.333 266.001 106
s110 155.667 110 255s-36.333 184 -109 254s-161.334 105 -266.001 105c-103.333 0 -192 -35 -266 -105s-111 -154.667 -111 -254s36.667 -184.333 110 -255s162 -106 266 -106zM417.001 46.9961c-90 0 -166.666 30.333 -229.999 91s-95 133.667 -95 219s32 158 96 218
s140.667 90 230 90s165.666 -30 228.999 -90s95 -132.667 95 -218s-31.667 -158.333 -95 -219s-140 -91 -230 -91zM472.002 -120.004c-74.667 0 -143.332 19.166 -205.999 57.499s-110.667 89.5 -144 153.5l-49 87c-32 54.667 -48 114.334 -48 179.001
c0 103.333 38.667 191.666 116 264.999s169.666 110 276.999 110c73.333 0 140.833 -18.167 202.5 -54.5s109.167 -84.833 142.5 -145.5l50 -91c34 -55.333 51 -116.666 51 -183.999c0 -103.333 -38.333 -192 -115 -266s-169 -111 -277 -111zM451.004 64.9951l29 4l-29 65
v-69z" />
    <glyph glyph-name="degree" unicode="&#xb0;" horiz-adv-x="288" 
d="M144 510c28.667 0 53 10 73 30s30 44.333 30 73s-10 53 -30 73s-44.333 30 -73 30s-53 -10 -73 -30s-30 -44.333 -30 -73s10 -53 30 -73s44.333 -30 73 -30zM144 571c-12 0 -22 4 -30 12s-12 18 -12 30s4 22 12 30s18 12 30 12s22 -4 30 -12s12 -18 12 -30
s-4 -22 -12 -30s-18 -12 -30 -12zM199 394c-21.333 0 -41.3311 5.83203 -59.998 17.499s-33.334 26.834 -44.001 45.501l-52 95c-12 22.667 -18 43 -18 61c0 32 11.833 59.833 35.5 83.5s51.5 35.5 83.5 35.5c24 0 45.667 -6.66699 65 -20s34 -31 44 -53l47 -84
c5.33301 -10 9.66602 -20.167 12.999 -30.5s5 -20.833 5 -31.5c0 -32 -11.833 -59.833 -35.5 -83.5s-51.5 -35.5 -83.5 -35.5z" />
    <glyph glyph-name="plusminus" unicode="&#xb1;" horiz-adv-x="464" 
d="M287 541h-109v-122h-122v-109h122v-122h109v122h121v109h-121v122zM408 125h-352v-109h352v109zM40 141h138l-16 31v22h-67l-55 100v141h122v122h141l55 -100v-22h66l55 -100v-141h-121v-53h66l55 -100v-141h-384l-55 100v141z" />
    <glyph glyph-name="twosuperior" unicode="&#xb2;" horiz-adv-x="348" 
d="M183 549l-128.001 -226.996l226 -2l26 109h-76l55 107c3.33301 6 6 14.5 8 25.5s3 22.167 3 33.5c0 31.333 -13 57.333 -39 78s-57 31 -93 31c-36.667 0 -66.5 -11.833 -89.5 -35.5s-34.5 -53.834 -34.5 -90.501c0 -10.667 0.666992 -19.334 2 -26.001s3.33301 -14 6 -22
l96 31c-1.33301 1.33301 -2.66602 5 -3.99902 11c0 16 8 24 24 24c6 0 11.333 -2.33301 16 -7s7 -10.334 7 -17.001c0 -8.66699 -1.66699 -16.334 -5 -23.001zM93.999 204.004l-55.001 100v22l52 92l-52 92c-9.33301 26.667 -14 49.334 -14 68.001
c0 38.667 13.333 72 40 100s60 42 100 42c28.667 0 55.334 -6.83301 80.001 -20.5s43 -31.834 55 -54.501l52 -93c10.667 -18 16 -37 16 -57c0 -13.333 -1 -25.5 -3 -36.5s-5.33301 -20.833 -10 -29.5l-13 -26l40 -58l-33 -141h-255z" />
    <glyph glyph-name="twosuperior" unicode="&#x406;" horiz-adv-x="348" 
d="M183 549l-128.001 -226.996l226 -2l26 109h-76l55 107c3.33301 6 6 14.5 8 25.5s3 22.167 3 33.5c0 31.333 -13 57.333 -39 78s-57 31 -93 31c-36.667 0 -66.5 -11.833 -89.5 -35.5s-34.5 -53.834 -34.5 -90.501c0 -10.667 0.666992 -19.334 2 -26.001s3.33301 -14 6 -22
l96 31c-1.33301 1.33301 -2.66602 5 -3.99902 11c0 16 8 24 24 24c6 0 11.333 -2.33301 16 -7s7 -10.334 7 -17.001c0 -8.66699 -1.66699 -16.334 -5 -23.001zM93.999 204.004l-55.001 100v22l52 92l-52 92c-9.33301 26.667 -14 49.334 -14 68.001
c0 38.667 13.333 72 40 100s60 42 100 42c28.667 0 55.334 -6.83301 80.001 -20.5s43 -31.834 55 -54.501l52 -93c10.667 -18 16 -37 16 -57c0 -13.333 -1 -25.5 -3 -36.5s-5.33301 -20.833 -10 -29.5l-13 -26l40 -58l-33 -141h-255z" />
    <glyph glyph-name="threesuperior" unicode="&#xb3;" horiz-adv-x="324" 
d="M159 306c33.333 0 62.499 9.99902 87.499 29.999s37.5 46 37.5 78c0 24 -5.83301 45.833 -17.5 65.5s-27.167 32.167 -46.5 37.5c14.667 6.66699 26.334 18.5 35.001 35.5s13 35.833 13 56.5c0 26.667 -11.833 49.334 -35.5 68.001s-52.167 28 -85.5 28
c-20.667 0 -40 -3 -58 -9l-26 -111c6.66699 2.66699 16.667 5.16699 30 7.5s25.333 3.5 36 3.5c8.66699 0 16 -3 22 -9s9 -13.333 9 -22c0 -8 -3 -15 -9 -21s-13.333 -9 -22 -9h-40l-15 -52h61c10 0 18.333 -3.33301 25 -10s10 -15 10 -25
c0 -9.33301 -3.33301 -17.333 -10 -24s-15 -10 -25 -10c-12.667 0 -24.5 1.66699 -35.5 5s-21.833 8 -32.5 14l-26 -93c18.667 -9.33301 38 -17.333 58 -24s40 -10 60 -10zM21.999 331.999l34.998 124.002l-4 11l13 44l-26 47l35 150c8 2.66699 18.333 5.5 31 8.5
s26.334 4.5 41.001 4.5c27.333 0 52.5 -6.5 75.5 -19.5s39.833 -29.5 50.5 -49.5l50 -89c4 -7.33301 7.66699 -16 11 -26s5 -19.333 5 -28c0 -17.333 -2.16699 -32.833 -6.5 -46.5s-10.5 -25.167 -18.5 -34.5l20 -38c6.66699 -10.667 11.834 -22.334 15.501 -35.001
s5.5 -26.334 5.5 -41.001c0 -38.667 -13.5 -69 -40.5 -91s-60.5 -33 -100.5 -33c-22 0 -43.833 3.5 -65.5 10.5s-45.5 17.5 -71.5 31.5z" />
    <glyph glyph-name="threesuperior" unicode="&#x456;" horiz-adv-x="324" 
d="M159 306c33.333 0 62.499 9.99902 87.499 29.999s37.5 46 37.5 78c0 24 -5.83301 45.833 -17.5 65.5s-27.167 32.167 -46.5 37.5c14.667 6.66699 26.334 18.5 35.001 35.5s13 35.833 13 56.5c0 26.667 -11.833 49.334 -35.5 68.001s-52.167 28 -85.5 28
c-20.667 0 -40 -3 -58 -9l-26 -111c6.66699 2.66699 16.667 5.16699 30 7.5s25.333 3.5 36 3.5c8.66699 0 16 -3 22 -9s9 -13.333 9 -22c0 -8 -3 -15 -9 -21s-13.333 -9 -22 -9h-40l-15 -52h61c10 0 18.333 -3.33301 25 -10s10 -15 10 -25
c0 -9.33301 -3.33301 -17.333 -10 -24s-15 -10 -25 -10c-12.667 0 -24.5 1.66699 -35.5 5s-21.833 8 -32.5 14l-26 -93c18.667 -9.33301 38 -17.333 58 -24s40 -10 60 -10zM21.999 331.999l34.998 124.002l-4 11l13 44l-26 47l35 150c8 2.66699 18.333 5.5 31 8.5
s26.334 4.5 41.001 4.5c27.333 0 52.5 -6.5 75.5 -19.5s39.833 -29.5 50.5 -49.5l50 -89c4 -7.33301 7.66699 -16 11 -26s5 -19.333 5 -28c0 -17.333 -2.16699 -32.833 -6.5 -46.5s-10.5 -25.167 -18.5 -34.5l20 -38c6.66699 -10.667 11.834 -22.334 15.501 -35.001
s5.5 -26.334 5.5 -41.001c0 -38.667 -13.5 -69 -40.5 -91s-60.5 -33 -100.5 -33c-22 0 -43.833 3.5 -65.5 10.5s-45.5 17.5 -71.5 31.5z" />
    <glyph glyph-name="mu" unicode="&#xb5;" horiz-adv-x="608" 
d="M252 510l-176 0.000976562l-50 -170h50v-481h176v157h50l53 135v-135h176l50 170h-50v324h-176v-324h-51c-14.667 0 -27 5.66699 -37 17s-15 26.666 -15 45.999v261zM64 526.001h204l55 -100v-224h16v324h208l55 -100v-224l55 -100l-59 -202h-204l-12 35l-14 -35h-45
v-157h-208l-55 100v381l-55 100z" />
    <glyph glyph-name="paragraph" unicode="&#xb6;" horiz-adv-x="667" 
d="M267 457l0.000976562 -600h129v839h-174c-50.667 0 -94.334 -17.333 -131.001 -52s-55 -76.334 -55 -125.001c0 -49.333 15.5 -91.166 46.5 -125.499s68.167 -51.5 111.5 -51.5h30zM472.001 696v-839h129v839h-129zM251.001 -159l0.000976562 385
c-26.667 0 -53.834 7.66699 -81.501 23s-47.5 34 -59.5 56l-72 130c-12 21.333 -18 49.333 -18 84c0 51.333 20.333 96.333 61 135s87.667 58 141 58h190l44 -90v90h161l55 -100v-871h-161l-44 80v-80h-161z" />
    <glyph glyph-name="periodcentered" unicode="&#xb7;" horiz-adv-x="344" 
d="M172 170c29.333 0 54.333 10.333 75 31s31 46 31 76c0 29.333 -10.333 54.333 -31 75s-45.667 31 -75 31s-54.333 -10.333 -75 -31s-31 -45.667 -31 -75s10.167 -54.5 30.5 -75.5s45.5 -31.5 75.5 -31.5zM227 54c-22 0 -41.668 4.83203 -59.001 14.499
s-31.333 23.834 -42 42.501l-66 119c-6.66699 16.667 -10 32.334 -10 47.001c0 33.333 12 62 36 86s52.667 36 86 36c22.667 0 43.834 -6.16699 63.501 -18.5s34.5 -28.5 44.5 -48.5l57 -102c8 -16 12 -33.667 12 -53c0 -32.667 -12 -61.334 -36 -86.001
s-52.667 -37 -86 -37z" />
    <glyph glyph-name="periodcentered" unicode="&#x2219;" horiz-adv-x="344" 
d="M172 170c29.333 0 54.333 10.333 75 31s31 46 31 76c0 29.333 -10.333 54.333 -31 75s-45.667 31 -75 31s-54.333 -10.333 -75 -31s-31 -45.667 -31 -75s10.167 -54.5 30.5 -75.5s45.5 -31.5 75.5 -31.5zM227 54c-22 0 -41.668 4.83203 -59.001 14.499
s-31.333 23.834 -42 42.501l-66 119c-6.66699 16.667 -10 32.334 -10 47.001c0 33.333 12 62 36 86s52.667 36 86 36c22.667 0 43.834 -6.16699 63.501 -18.5s34.5 -28.5 44.5 -48.5l57 -102c8 -16 12 -33.667 12 -53c0 -32.667 -12 -61.334 -36 -86.001
s-52.667 -37 -86 -37z" />
    <glyph glyph-name="cedilla" unicode="&#xb8;" horiz-adv-x="592" 
d="M245 240h305.998c0 84.667 -24.167 152.334 -72.5 203.001s-109.166 76 -182.499 76c-70.667 0 -130.834 -24.833 -180.501 -74.5s-74.5 -109.834 -74.5 -180.501c0 -70 25 -130.333 75 -181s110 -76 180 -76c40 0 70.333 1.66699 91 5c30.667 5.33301 59 15.333 85 30
l43 144c-36.667 -12.667 -81 -19 -133 -19c-27.333 0 -52.666 6.5 -75.999 19.5s-43.666 30.833 -60.999 53.5zM363.998 334l-141.001 -0.000976562c3.33301 16.667 11.333 30.334 24 41.001s27.667 16 45 16c18 0 33.333 -5 46 -15s21.334 -24 26.001 -42zM24.9971 263.999
c0 35.333 6.16504 68.333 18.498 99s30.5 58.667 54.5 84l-54 99l61 186h225l18 -34l11 34h225l55 -100l-61 -186h-78l23 -34l53 -94c14.667 -24.667 26 -52.834 34 -84.501s12 -68.167 12 -109.5h-38l9 -17l-52 -176c-27.333 -16 -56.666 -26.667 -87.999 -32
s-65.333 -8 -102 -8c-50 0 -96.667 13.5 -140 40.5s-76.666 62.5 -99.999 106.5l-56 104c-20 38.667 -30 79.334 -30 122.001zM308.995 715.999h-191l-51 -154h191zM562.995 715.999h-191l-51 -154h191z" />
    <glyph glyph-name="cedilla" unicode="&#x451;" horiz-adv-x="592" 
d="M245 240h305.998c0 84.667 -24.167 152.334 -72.5 203.001s-109.166 76 -182.499 76c-70.667 0 -130.834 -24.833 -180.501 -74.5s-74.5 -109.834 -74.5 -180.501c0 -70 25 -130.333 75 -181s110 -76 180 -76c40 0 70.333 1.66699 91 5c30.667 5.33301 59 15.333 85 30
l43 144c-36.667 -12.667 -81 -19 -133 -19c-27.333 0 -52.666 6.5 -75.999 19.5s-43.666 30.833 -60.999 53.5zM363.998 334l-141.001 -0.000976562c3.33301 16.667 11.333 30.334 24 41.001s27.667 16 45 16c18 0 33.333 -5 46 -15s21.334 -24 26.001 -42zM24.9971 263.999
c0 35.333 6.16504 68.333 18.498 99s30.5 58.667 54.5 84l-54 99l61 186h225l18 -34l11 34h225l55 -100l-61 -186h-78l23 -34l53 -94c14.667 -24.667 26 -52.834 34 -84.501s12 -68.167 12 -109.5h-38l9 -17l-52 -176c-27.333 -16 -56.666 -26.667 -87.999 -32
s-65.333 -8 -102 -8c-50 0 -96.667 13.5 -140 40.5s-76.666 62.5 -99.999 106.5l-56 104c-20 38.667 -30 79.334 -30 122.001zM308.995 715.999h-191l-51 -154h191zM562.995 715.999h-191l-51 -154h191z" />
    <glyph glyph-name="onesuperior" unicode="&#xb9;" horiz-adv-x="1059" 
d="M60 382l-55 99.999l63 230h232l138 -240v240h230l55 -100v-245c14 25.333 33.333 45.5 58 60.5s51.667 22.5 81 22.5c30 0 57.833 -8.16699 83.5 -24.5s45.167 -38.166 58.5 -65.499l53 -96c11.333 -21.333 17 -44 17 -68c0 -22 -5 -43.167 -15 -63.5
s-23.667 -37.833 -41 -52.5l42 -76v-104h-286l-51 100v-100h-207l-167 287v-287h-230l-55 100v382h-4zM291 695.999h-211l-54 -198h54v-482h198v326l192 -326h182v680h-198v-280zM989 87.999h-254v-72h254v72zM862 157.999c39.333 0 72.666 13.332 99.999 39.999
s41 59.334 41 98.001s-13.667 71.334 -41 98.001s-60.666 40 -99.999 40c-38.667 0 -72 -13.333 -100 -40s-42 -59.334 -42 -98.001c0 -38 13.833 -70.5 41.5 -97.5s61.167 -40.5 100.5 -40.5zM862 361.998c19.333 0 35.668 -6.33105 49.001 -18.998s20 -28.334 20 -47.001
c0 -18 -6.83301 -33.5 -20.5 -46.5s-29.834 -19.5 -48.501 -19.5s-35 6.66699 -49 20s-21 28.666 -21 45.999c0 18 6.83301 33.5 20.5 46.5s30.167 19.5 49.5 19.5zM792.002 104l-69 122v-122h69z" />
    <glyph glyph-name="onesuperior" unicode="&#x2116;" horiz-adv-x="1059" 
d="M60 382l-55 99.999l63 230h232l138 -240v240h230l55 -100v-245c14 25.333 33.333 45.5 58 60.5s51.667 22.5 81 22.5c30 0 57.833 -8.16699 83.5 -24.5s45.167 -38.166 58.5 -65.499l53 -96c11.333 -21.333 17 -44 17 -68c0 -22 -5 -43.167 -15 -63.5
s-23.667 -37.833 -41 -52.5l42 -76v-104h-286l-51 100v-100h-207l-167 287v-287h-230l-55 100v382h-4zM291 695.999h-211l-54 -198h54v-482h198v326l192 -326h182v680h-198v-280zM989 87.999h-254v-72h254v72zM862 157.999c39.333 0 72.666 13.332 99.999 39.999
s41 59.334 41 98.001s-13.667 71.334 -41 98.001s-60.666 40 -99.999 40c-38.667 0 -72 -13.333 -100 -40s-42 -59.334 -42 -98.001c0 -38 13.833 -70.5 41.5 -97.5s61.167 -40.5 100.5 -40.5zM862 361.998c19.333 0 35.668 -6.33105 49.001 -18.998s20 -28.334 20 -47.001
c0 -18 -6.83301 -33.5 -20.5 -46.5s-29.834 -19.5 -48.501 -19.5s-35 6.66699 -49 20s-21 28.666 -21 45.999c0 18 6.83301 33.5 20.5 46.5s30.167 19.5 49.5 19.5zM792.002 104l-69 122v-122h69z" />
    <glyph glyph-name="ordmasculine" unicode="&#xba;" horiz-adv-x="357" 
d="M170 440c36 0 67.001 13 93.001 39s39 57.667 39 95c0 36 -12.833 66.833 -38.5 92.5s-56.834 38.5 -93.501 38.5s-68 -12.667 -94 -38s-39 -56.333 -39 -93c0 -37.333 13 -69 39 -95s57.333 -39 94 -39zM170.001 618c12 0 22.333 -4.33301 31 -13s13 -19 13 -31
c0 -12.667 -4.33301 -23.667 -13 -33s-19 -14 -31 -14c-12.667 0 -23.5 4.5 -32.5 13.5s-13.5 20.167 -13.5 33.5c0 12.667 4.5 23.167 13.5 31.5s19.833 12.5 32.5 12.5zM225.001 324c-27.333 0 -53.1689 6.66699 -77.502 20s-42.166 31.333 -53.499 54l-60 116
c-8.66699 16.667 -13 36.667 -13 60c0 39.333 14.667 73.666 44 102.999s64.333 44 105 44c28 0 53.833 -7.5 77.5 -22.5s41.834 -35.167 54.501 -60.5l53 -94c12 -21.333 18 -44.666 18 -69.999c0 -40 -14.667 -75 -44 -105s-64 -45 -104 -45z" />
    <glyph glyph-name="ordmasculine" unicode="&#x454;" horiz-adv-x="357" 
d="M170 440c36 0 67.001 13 93.001 39s39 57.667 39 95c0 36 -12.833 66.833 -38.5 92.5s-56.834 38.5 -93.501 38.5s-68 -12.667 -94 -38s-39 -56.333 -39 -93c0 -37.333 13 -69 39 -95s57.333 -39 94 -39zM170.001 618c12 0 22.333 -4.33301 31 -13s13 -19 13 -31
c0 -12.667 -4.33301 -23.667 -13 -33s-19 -14 -31 -14c-12.667 0 -23.5 4.5 -32.5 13.5s-13.5 20.167 -13.5 33.5c0 12.667 4.5 23.167 13.5 31.5s19.833 12.5 32.5 12.5zM225.001 324c-27.333 0 -53.1689 6.66699 -77.502 20s-42.166 31.333 -53.499 54l-60 116
c-8.66699 16.667 -13 36.667 -13 60c0 39.333 14.667 73.666 44 102.999s64.333 44 105 44c28 0 53.833 -7.5 77.5 -22.5s41.834 -35.167 54.501 -60.5l53 -94c12 -21.333 18 -44.666 18 -69.999c0 -40 -14.667 -75 -44 -105s-64 -45 -104 -45z" />
    <glyph glyph-name="guillemotright" unicode="&#xbb;" horiz-adv-x="432" 
d="M240 -100h-155l-55 100l34 163l-34 163h155l46 -83l-17 83h155l55 -100l33 -163l-33 -163h-155l-21 39zM234 16h122l30 147l-30 147h-122l30 -147zM50 16h122l30 147l-30 147h-122l30 -147z" />
    <glyph glyph-name="onequarter" unicode="&#xbc;" horiz-adv-x="722" 
d="M436 740l-313 -724l91 -41l312 721zM526 74v-58h108v58h9l28 102h-37v68l-108 -24v-44h-38l117 215h-121l-111 -192v-125h153zM98 587v-265h108v374h-129l-31 -109h52zM25 571l40 141h157l55 -100v-200l151 350l119 -58l55 -100l-86 -197h116l55 -100l-30 -55l35 -60
l55 -100l-37 -134h-5v-58h-140l-32 58h-121l-51 92l-84 -196l-120 54l-55 100l86 198h-51l-55 100v165z" />
    <glyph glyph-name="onequarter" unicode="&#x458;" horiz-adv-x="722" 
d="M436 740l-313 -724l91 -41l312 721zM526 74v-58h108v58h9l28 102h-37v68l-108 -24v-44h-38l117 215h-121l-111 -192v-125h153zM98 587v-265h108v374h-129l-31 -109h52zM25 571l40 141h157l55 -100v-200l151 350l119 -58l55 -100l-86 -197h116l55 -100l-30 -55l35 -60
l55 -100l-37 -134h-5v-58h-140l-32 58h-121l-51 92l-84 -196l-120 54l-55 100l86 198h-51l-55 100v165z" />
    <glyph glyph-name="onehalf" unicode="&#xbd;" horiz-adv-x="746" 
d="M98 587v-265h108v374h-129l-31 -109h52zM450 740l-313 -724l91 -41l312 721zM571 245l-128.001 -228.996h226l26 109h-76l55 107c3.33301 6 6 14.5 8 25.5s3 22.167 3 33.5c0 31.333 -13 57.333 -39 78s-57 31 -93 31c-36.667 0 -66.5 -11.833 -89.5 -35.5
s-34.5 -53.834 -34.5 -90.501c0 -10.667 0.666992 -19.334 2 -26.001s3.33301 -14 6 -22l96 31c-1.33301 1.33301 -2.66602 5 -3.99902 11c0 16 8 24 24 24c6 0 11.333 -2.33301 16 -7s7 -10.334 7 -17.001c0 -8.66699 -1.66699 -16.334 -5 -23.001zM24.999 571.004
l40.001 140.999h157l55 -100v-232l165 382l119 -58l55 -100l-82 -190l19 2c29.333 0 56.166 -6.66699 80.499 -20s42.833 -32 55.5 -56l52 -94c10 -17.333 15 -35.666 15 -54.999c0 -13.333 -1 -25.5 -3 -36.5s-5.33301 -20.833 -10 -29.5l-9 -18l36 -66l-33 -141h-266
l-55 100l63 113l-43 76l-145 -335l-120 54l-55 100l86 198h-65l-55 100v165z" />
    <glyph glyph-name="onehalf" unicode="&#x405;" horiz-adv-x="746" 
d="M98 587v-265h108v374h-129l-31 -109h52zM450 740l-313 -724l91 -41l312 721zM571 245l-128.001 -228.996h226l26 109h-76l55 107c3.33301 6 6 14.5 8 25.5s3 22.167 3 33.5c0 31.333 -13 57.333 -39 78s-57 31 -93 31c-36.667 0 -66.5 -11.833 -89.5 -35.5
s-34.5 -53.834 -34.5 -90.501c0 -10.667 0.666992 -19.334 2 -26.001s3.33301 -14 6 -22l96 31c-1.33301 1.33301 -2.66602 5 -3.99902 11c0 16 8 24 24 24c6 0 11.333 -2.33301 16 -7s7 -10.334 7 -17.001c0 -8.66699 -1.66699 -16.334 -5 -23.001zM24.999 571.004
l40.001 140.999h157l55 -100v-232l165 382l119 -58l55 -100l-82 -190l19 2c29.333 0 56.166 -6.66699 80.499 -20s42.833 -32 55.5 -56l52 -94c10 -17.333 15 -35.666 15 -54.999c0 -13.333 -1 -25.5 -3 -36.5s-5.33301 -20.833 -10 -29.5l-9 -18l36 -66l-33 -141h-266
l-55 100l63 113l-43 76l-145 -335l-120 54l-55 100l86 198h-65l-55 100v165z" />
    <glyph glyph-name="threequarters" unicode="&#xbe;" horiz-adv-x="786" 
d="M492 740l-313 -724l91 -41l312 721zM590 74v-58h108v58h9l28 102h-37v68l-108 -25v-43h-38l117 215h-121l-111 -192v-125h153zM159 306c33.333 0 62.499 9.99902 87.499 29.999s37.5 46 37.5 78c0 24 -5.83301 45.833 -17.5 65.5s-27.167 32.167 -46.5 37.5
c14.667 6.66699 26.334 18.5 35.001 35.5s13 35.833 13 56.5c0 26.667 -11.833 49.334 -35.5 68.001s-52.167 28 -85.5 28c-20.667 0 -40 -3 -58 -9l-26 -111c6.66699 2.66699 16.667 5.16699 30 7.5s25.333 3.5 36 3.5c8.66699 0 16 -3 22 -9s9 -13.333 9 -22
c0 -8 -3 -15 -9 -21s-13.333 -9 -22 -9h-40l-15 -52h61c10 0 18.333 -3.33301 25 -10s10 -15 10 -25c0 -9.33301 -3.33301 -17.333 -10 -24s-15 -10 -25 -10c-12.667 0 -24.5 1.66699 -35.5 5s-21.833 8 -32.5 14l-26 -93c18.667 -9.33301 38 -17.333 58 -24s40 -10 60 -10z
M157.999 7.99902l78.999 184l-23 -2c-22 0 -43.833 3.5 -65.5 10.5s-45.5 17.5 -71.5 31.5l-55 100l35 124l-4 11l13 44l-26 47l35 150c8 2.66699 18.333 5.5 31 8.5s26.334 4.5 41.001 4.5c58.667 0 100.334 -22.333 125.001 -67l51 -93
c10.667 -19.333 16 -36.666 16 -51.999c0 -20.667 -2.83301 -38.334 -8.5 -53.001s-13.834 -26.667 -24.501 -36l21 -20l157 362l119 -58l55 -100l-86 -197h124l55 -100l-30 -55l90 -160l-37 -134h-5v-58h-140l-32 58h-121l-55 100l-88 -204l-120 54z" />
    <glyph glyph-name="threequarters" unicode="&#x455;" horiz-adv-x="786" 
d="M492 740l-313 -724l91 -41l312 721zM590 74v-58h108v58h9l28 102h-37v68l-108 -25v-43h-38l117 215h-121l-111 -192v-125h153zM159 306c33.333 0 62.499 9.99902 87.499 29.999s37.5 46 37.5 78c0 24 -5.83301 45.833 -17.5 65.5s-27.167 32.167 -46.5 37.5
c14.667 6.66699 26.334 18.5 35.001 35.5s13 35.833 13 56.5c0 26.667 -11.833 49.334 -35.5 68.001s-52.167 28 -85.5 28c-20.667 0 -40 -3 -58 -9l-26 -111c6.66699 2.66699 16.667 5.16699 30 7.5s25.333 3.5 36 3.5c8.66699 0 16 -3 22 -9s9 -13.333 9 -22
c0 -8 -3 -15 -9 -21s-13.333 -9 -22 -9h-40l-15 -52h61c10 0 18.333 -3.33301 25 -10s10 -15 10 -25c0 -9.33301 -3.33301 -17.333 -10 -24s-15 -10 -25 -10c-12.667 0 -24.5 1.66699 -35.5 5s-21.833 8 -32.5 14l-26 -93c18.667 -9.33301 38 -17.333 58 -24s40 -10 60 -10z
M157.999 7.99902l78.999 184l-23 -2c-22 0 -43.833 3.5 -65.5 10.5s-45.5 17.5 -71.5 31.5l-55 100l35 124l-4 11l13 44l-26 47l35 150c8 2.66699 18.333 5.5 31 8.5s26.334 4.5 41.001 4.5c58.667 0 100.334 -22.333 125.001 -67l51 -93
c10.667 -19.333 16 -36.666 16 -51.999c0 -20.667 -2.83301 -38.334 -8.5 -53.001s-13.834 -26.667 -24.501 -36l21 -20l157 362l119 -58l55 -100l-86 -197h124l55 -100l-30 -55l90 -160l-37 -134h-5v-58h-140l-32 58h-121l-55 100l-88 -204l-120 54z" />
    <glyph glyph-name="questiondown" unicode="&#xbf;" horiz-adv-x="545" 
d="M494 -106l-110.998 155.002c-12.667 -16.667 -25.667 -28.334 -39 -35.001s-29.666 -10 -48.999 -10c-18.667 0 -34 4.83301 -46 14.5s-18 24.167 -18 43.5c0 16.667 6.16699 30.834 18.5 42.501s27.166 17.5 44.499 17.5h62v126c-5.33301 4 -14.5 7 -27.5 9
s-24.833 3 -35.5 3c-68 0 -126.167 -20.5 -174.5 -61.5s-72.5 -90.5 -72.5 -148.5c0 -68.667 23.833 -125.834 71.5 -171.501s106.5 -68.5 176.5 -68.5c35.333 0 70.166 7.66699 104.499 23s66.166 35.666 95.499 60.999zM293.002 306.002c29.333 0 54.333 10.333 75 31
s31 46 31 76c0 29.333 -10.333 54.333 -31 75s-45.667 31 -75 31s-54.333 -10.333 -75 -31s-31 -45.667 -31 -75s10.167 -54.5 30.5 -75.5s45.5 -31.5 75.5 -31.5zM293.002 535.002c23.333 0 44.8311 -6.16602 64.498 -18.499s34.5 -28.833 44.5 -49.5l47 -86
c6.66699 -12 11.834 -23.333 15.501 -34s5.5 -22 5.5 -34c0 -22.667 -6.16699 -43.667 -18.5 -63s-28.5 -34.333 -48.5 -45l24 -45v-145l88 -123l55 -100c-34.667 -30.667 -70.667 -54.667 -108 -72s-75 -26 -113 -26c-47.333 0 -91.166 10 -131.499 30
s-70.5 48.333 -90.5 85l-75 137c-5.33301 10 -10.333 25.833 -15 47.5s-7 40.5 -7 56.5c0 52.667 19.5 99.5 58.5 140.5s87.833 67.5 146.5 79.5l-51 89c-5.33301 11.333 -8.83301 21.166 -10.5 29.499s-2.5 16.5 -2.5 24.5c0 33.333 12 62 36 86s52.667 36 86 36z" />
    <glyph glyph-name="questiondown" unicode="&#x457;" horiz-adv-x="545" 
d="M494 -106l-110.998 155.002c-12.667 -16.667 -25.667 -28.334 -39 -35.001s-29.666 -10 -48.999 -10c-18.667 0 -34 4.83301 -46 14.5s-18 24.167 -18 43.5c0 16.667 6.16699 30.834 18.5 42.501s27.166 17.5 44.499 17.5h62v126c-5.33301 4 -14.5 7 -27.5 9
s-24.833 3 -35.5 3c-68 0 -126.167 -20.5 -174.5 -61.5s-72.5 -90.5 -72.5 -148.5c0 -68.667 23.833 -125.834 71.5 -171.501s106.5 -68.5 176.5 -68.5c35.333 0 70.166 7.66699 104.499 23s66.166 35.666 95.499 60.999zM293.002 306.002c29.333 0 54.333 10.333 75 31
s31 46 31 76c0 29.333 -10.333 54.333 -31 75s-45.667 31 -75 31s-54.333 -10.333 -75 -31s-31 -45.667 -31 -75s10.167 -54.5 30.5 -75.5s45.5 -31.5 75.5 -31.5zM293.002 535.002c23.333 0 44.8311 -6.16602 64.498 -18.499s34.5 -28.833 44.5 -49.5l47 -86
c6.66699 -12 11.834 -23.333 15.501 -34s5.5 -22 5.5 -34c0 -22.667 -6.16699 -43.667 -18.5 -63s-28.5 -34.333 -48.5 -45l24 -45v-145l88 -123l55 -100c-34.667 -30.667 -70.667 -54.667 -108 -72s-75 -26 -113 -26c-47.333 0 -91.166 10 -131.499 30
s-70.5 48.333 -90.5 85l-75 137c-5.33301 10 -10.333 25.833 -15 47.5s-7 40.5 -7 56.5c0 52.667 19.5 99.5 58.5 140.5s87.833 67.5 146.5 79.5l-51 89c-5.33301 11.333 -8.83301 21.166 -10.5 29.499s-2.5 16.5 -2.5 24.5c0 33.333 12 62 36 86s52.667 36 86 36z" />
    <glyph glyph-name="Agrave" unicode="&#xc0;" horiz-adv-x="697" 
d="M481 696h-331l-54 -198h54l-134 -482h214l22 90h184l24 -90h221zM285 282l55 216l58 -216h-113zM138 712h355l55 -100l209 -712h-254l-49 90h-134l-22 -90h-248l-55 100l116 416l-36 66z" />
    <glyph glyph-name="Agrave" unicode="&#x410;" horiz-adv-x="697" 
d="M481 696h-331l-54 -198h54l-134 -482h214l22 90h184l24 -90h221zM285 282l55 216l58 -216h-113zM138 712h355l55 -100l209 -712h-254l-49 90h-134l-22 -90h-248l-55 100l116 416l-36 66z" />
    <glyph glyph-name="Aacute" unicode="&#xc1;" horiz-adv-x="591" 
d="M78 498v-481.999h276c55.333 0 102.333 19.667 141 59s58 86.666 58 141.999c0 58.667 -19.667 109 -59 151s-87 63 -143 63h-73v67h196l59 226h-189l-14 -28h-252l-51 -198h51zM278 201.001l0.000976562 95h29c10.667 0 19.5 -4.5 26.5 -13.5s10.5 -19.833 10.5 -32.5
c0 -14 -3.33301 -25.667 -10 -35s-15.334 -14 -26.001 -14h-30zM6.00098 482.001l60 229.999h254l14 28h220l55 -100l-68 -258h-39c12 -11.333 22.333 -24.666 31 -39.999l64 -115c18 -32 27 -68.667 27 -110c0 -59.333 -21 -110.333 -63 -153s-92.667 -64 -152 -64h-292
l-55 100v382z" />
    <glyph glyph-name="Aacute" unicode="&#x411;" horiz-adv-x="591" 
d="M78 498v-481.999h276c55.333 0 102.333 19.667 141 59s58 86.666 58 141.999c0 58.667 -19.667 109 -59 151s-87 63 -143 63h-73v67h196l59 226h-189l-14 -28h-252l-51 -198h51zM278 201.001l0.000976562 95h29c10.667 0 19.5 -4.5 26.5 -13.5s10.5 -19.833 10.5 -32.5
c0 -14 -3.33301 -25.667 -10 -35s-15.334 -14 -26.001 -14h-30zM6.00098 482.001l60 229.999h254l14 28h220l55 -100l-68 -258h-39c12 -11.333 22.333 -24.666 31 -39.999l64 -115c18 -32 27 -68.667 27 -110c0 -59.333 -21 -110.333 -63 -153s-92.667 -64 -152 -64h-292
l-55 100v382z" />
    <glyph glyph-name="Acircumflex" unicode="&#xc2;" horiz-adv-x="648" 
d="M78 498v-482.001h310c61.333 0 111.5 17.5 150.5 52.5s58.5 79.167 58.5 132.5c0 40.667 -9 76.334 -27 107.001s-46 53 -84 67c30 11.333 53.333 30 70 56s25 55.333 25 88c0 48 -17.333 89 -52 123c-36.667 36 -83.667 54 -141 54h-310l-52 -198h52zM278 417.999
l0.000976562 80h55c32.667 0 49 -13.333 49 -40c0 -12 -3.33301 -21.667 -10 -29s-17.334 -11 -32.001 -11h-62zM278.001 200.999l0.000976562 96.999h53c20 0 34.5 -4.16699 43.5 -12.5s13.5 -20.166 13.5 -35.499s-4.33301 -27.333 -13 -36s-23.334 -13 -44.001 -13h-53z
M5.00195 481.998l61.001 230.002h322c42 0 80 -10.333 114 -31c30.667 -18.667 54.667 -43.667 72 -75l62 -113c5.33301 -9.33301 9.33301 -20.833 12 -34.5s4 -26.834 4 -39.501c0 -26.667 -5.16699 -52 -15.5 -76s-23.5 -42.667 -39.5 -56l52 -92
c7.33301 -12 12.333 -25.833 15 -41.5s4 -33.167 4 -52.5c0 -56.667 -21.333 -104.334 -64 -143.001s-96.334 -58 -161.001 -58h-326l-55 100v382z" />
    <glyph glyph-name="Acircumflex" unicode="&#x412;" horiz-adv-x="648" 
d="M78 498v-482.001h310c61.333 0 111.5 17.5 150.5 52.5s58.5 79.167 58.5 132.5c0 40.667 -9 76.334 -27 107.001s-46 53 -84 67c30 11.333 53.333 30 70 56s25 55.333 25 88c0 48 -17.333 89 -52 123c-36.667 36 -83.667 54 -141 54h-310l-52 -198h52zM278 417.999
l0.000976562 80h55c32.667 0 49 -13.333 49 -40c0 -12 -3.33301 -21.667 -10 -29s-17.334 -11 -32.001 -11h-62zM278.001 200.999l0.000976562 96.999h53c20 0 34.5 -4.16699 43.5 -12.5s13.5 -20.166 13.5 -35.499s-4.33301 -27.333 -13 -36s-23.334 -13 -44.001 -13h-53z
M5.00195 481.998l61.001 230.002h322c42 0 80 -10.333 114 -31c30.667 -18.667 54.667 -43.667 72 -75l62 -113c5.33301 -9.33301 9.33301 -20.833 12 -34.5s4 -26.834 4 -39.501c0 -26.667 -5.16699 -52 -15.5 -76s-23.5 -42.667 -39.5 -56l52 -92
c7.33301 -12 12.333 -25.833 15 -41.5s4 -33.167 4 -52.5c0 -56.667 -21.333 -104.334 -64 -143.001s-96.334 -58 -161.001 -58h-326l-55 100v382z" />
    <glyph glyph-name="Atilde" unicode="&#xc3;" horiz-adv-x="496" 
d="M78 498v-482h200v482h147l61 226h-189l-14 -28h-205l-52 -198h52zM62 0v382l-57 100l61 230h207l14 28h220l55 -100l-70 -258h-143v-482h-232z" />
    <glyph glyph-name="Atilde" unicode="&#x413;" horiz-adv-x="496" 
d="M78 498v-482h200v482h147l61 226h-189l-14 -28h-205l-52 -198h52zM62 0v382l-57 100l61 230h207l14 28h220l55 -100l-70 -258h-143v-482h-232z" />
    <glyph glyph-name="Adieresis" unicode="&#xc4;" horiz-adv-x="716" 
d="M476 696h-260l-55 -198h55l-95 -284h-52l-53 -198h629l53 198h-69zM424 214h-96l46 172zM50 -100l-55 100l62 230h52l64 191l-33 61l64 230h284l55 -100l121 -382h55l55 -100l-62 -230h-662z" />
    <glyph glyph-name="Adieresis" unicode="&#x414;" horiz-adv-x="716" 
d="M476 696h-260l-55 -198h55l-95 -284h-52l-53 -198h629l53 198h-69zM424 214h-96l46 172zM50 -100l-55 100l62 230h52l64 191l-33 61l64 230h284l55 -100l121 -382h55l55 -100l-62 -230h-662z" />
    <glyph glyph-name="Aring" unicode="&#xc5;" horiz-adv-x="557" 
d="M78 498v-482h386l50 198h-236v64h195l37 162h-232v58h195l53 226h-188l-14 -28h-246l-52 -198h52zM62 382l-57 100l61 230h248l14 28h218l55 -100l-51 -220l35 -64l-35 -154l40 -72l-59 -230h-414l-55 100v382z" />
    <glyph glyph-name="Aring" unicode="&#x415;" horiz-adv-x="557" 
d="M78 498v-482h386l50 198h-236v64h195l37 162h-232v58h195l53 226h-188l-14 -28h-246l-52 -198h52zM62 382l-57 100l61 230h248l14 28h218l55 -100l-51 -220l35 -64l-35 -154l40 -72l-59 -230h-414l-55 100v382z" />
    <glyph glyph-name="AE" unicode="&#xc6;" horiz-adv-x="986" 
d="M593 696h-200v-244l-125 244h-222l171 -321l-201 -359h237l138 253l2 -253h200v253l140 -253h237l-201 359l171 321h-222l-123 -244zM779 -100l-115 210v-210h-232l-55 100v10l-60 -110h-273l-55 100l210 375l-180 337h259l55 -100l44 -87v187h232l52 -94l47 94h259
l55 -100l-180 -336l155 -276l55 -100h-273zM842 275l155 -275z" />
    <glyph glyph-name="AE" unicode="&#x416;" horiz-adv-x="986" 
d="M593 696h-200v-244l-125 244h-222l171 -321l-201 -359h237l138 253l2 -253h200v253l140 -253h237l-201 359l171 321h-222l-123 -244zM779 -100l-115 210v-210h-232l-55 100v10l-60 -110h-273l-55 100l210 375l-180 337h259l55 -100l44 -87v187h232l52 -94l47 94h259
l55 -100l-180 -336l155 -276l55 -100h-273zM842 275l155 -275z" />
    <glyph glyph-name="Ccedilla" unicode="&#xc7;" horiz-adv-x="545" 
d="M121 438l-43.001 -139h151c14 0 27 -6.33301 39 -19s18 -25.334 18 -38.001c0 -14 -4.5 -25.5 -13.5 -34.5s-22.833 -13.5 -41.5 -13.5c-22.667 0 -49.334 5 -80.001 15c-20.667 6.66699 -44.667 16 -72 28l-52 -185c31.333 -16 68.833 -29.333 112.5 -40
s85.167 -16 124.5 -16c62.667 0 116.334 18 161.001 54c48 38.667 72 87.667 72 147c0 42.667 -9.66699 81.334 -29 116.001c-21.333 38 -50.333 61.667 -87 71c29.333 11.333 51.666 30.833 66.999 58.5s23 59.167 23 94.5c0 57.333 -24 102.666 -72 135.999
c-41.333 28.667 -91 43 -149 43c-19.333 0 -41.666 -2 -66.999 -6s-48.333 -8.66699 -69 -14l-50 -206c19.333 7.33301 45.5 13.833 78.5 19.5s57.167 8.5 72.5 8.5c14.667 0 26.5 -4.16699 35.5 -12.5s13.5 -18.166 13.5 -29.499c0 -10 -4.66699 -18.833 -14 -26.5
s-20.666 -11.5 -33.999 -11.5h-95zM56.999 283l34.0029 112l-50 70l60 244c27.333 7.33301 53.666 13 78.999 17s48.666 6 69.999 6c43.333 0 85.5 -9.5 126.5 -28.5s71.167 -46.5 90.5 -82.5l52 -94c6 -11.333 11.333 -25.333 16 -42s7 -32.667 7 -48
c0 -59.333 -16.667 -105 -50 -137l44 -77c21.333 -37.333 32 -79.333 32 -126c0 -62.667 -25.167 -114.5 -75.5 -155.5s-108.166 -61.5 -173.499 -61.5c-40.667 0 -83.834 5.66699 -129.501 17s-87.834 27 -126.501 47l-55 100l60 211z" />
    <glyph glyph-name="Ccedilla" unicode="&#x417;" horiz-adv-x="545" 
d="M121 438l-43.001 -139h151c14 0 27 -6.33301 39 -19s18 -25.334 18 -38.001c0 -14 -4.5 -25.5 -13.5 -34.5s-22.833 -13.5 -41.5 -13.5c-22.667 0 -49.334 5 -80.001 15c-20.667 6.66699 -44.667 16 -72 28l-52 -185c31.333 -16 68.833 -29.333 112.5 -40
s85.167 -16 124.5 -16c62.667 0 116.334 18 161.001 54c48 38.667 72 87.667 72 147c0 42.667 -9.66699 81.334 -29 116.001c-21.333 38 -50.333 61.667 -87 71c29.333 11.333 51.666 30.833 66.999 58.5s23 59.167 23 94.5c0 57.333 -24 102.666 -72 135.999
c-41.333 28.667 -91 43 -149 43c-19.333 0 -41.666 -2 -66.999 -6s-48.333 -8.66699 -69 -14l-50 -206c19.333 7.33301 45.5 13.833 78.5 19.5s57.167 8.5 72.5 8.5c14.667 0 26.5 -4.16699 35.5 -12.5s13.5 -18.166 13.5 -29.499c0 -10 -4.66699 -18.833 -14 -26.5
s-20.666 -11.5 -33.999 -11.5h-95zM56.999 283l34.0029 112l-50 70l60 244c27.333 7.33301 53.666 13 78.999 17s48.666 6 69.999 6c43.333 0 85.5 -9.5 126.5 -28.5s71.167 -46.5 90.5 -82.5l52 -94c6 -11.333 11.333 -25.333 16 -42s7 -32.667 7 -48
c0 -59.333 -16.667 -105 -50 -137l44 -77c21.333 -37.333 32 -79.333 32 -126c0 -62.667 -25.167 -114.5 -75.5 -155.5s-108.166 -61.5 -173.499 -61.5c-40.667 0 -83.834 5.66699 -129.501 17s-87.834 27 -126.501 47l-55 100l60 211z" />
    <glyph glyph-name="Egrave" unicode="&#xc8;" horiz-adv-x="711" 
d="M281 696h-200l-54 -198h54v-482h216l154 275l2 -275h200v680h-178l-192 -339zM61 382l-55 100l63 230h228l55 -100v-102l114 202h203l55 -100v-712h-232l-55 100v36l-76 -136h-241l-55 100v382h-4z" />
    <glyph glyph-name="Egrave" unicode="&#x418;" horiz-adv-x="711" 
d="M281 696h-200l-54 -198h54v-482h216l154 275l2 -275h200v680h-178l-192 -339zM61 382l-55 100l63 230h228l55 -100v-102l114 202h203l55 -100v-712h-232l-55 100v36l-76 -136h-241l-55 100v382h-4z" />
    <glyph glyph-name="Eacute" unicode="&#xc9;" horiz-adv-x="711" 
d="M257 872l-54.001 -56c19.333 -26.667 43.333 -45.667 72 -57s59.667 -17 93 -17c32.667 0 62.667 4.83301 90 14.5s52 26.5 74 50.5l4 7l-58 58c-14 -16.667 -30.5 -29.167 -49.5 -37.5s-39.167 -12.5 -60.5 -12.5c-22 0 -42.167 3.83301 -60.5 11.5
s-35.166 20.5 -50.499 38.5zM236.999 717l-55 100l76 79c18 -21.333 36 -36.333 54 -45s36.667 -13 56 -13c20 0 38.667 4.33301 56 13s35 23.667 53 45l79 -79l55 -100l-3 -5h61l55 -100v-712h-232l-55 100v36l-76 -136h-241l-55 100v382h-4l-55 100l63 230h172z
M280.999 696h-200l-54 -198h54v-482h216l154 275l2 -275h200v680h-178l-192 -339zM351.999 612v-102l65 116c-26.667 0 -53.667 5 -81 15z" />
    <glyph glyph-name="Eacute" unicode="&#x419;" horiz-adv-x="711" 
d="M257 872l-54.001 -56c19.333 -26.667 43.333 -45.667 72 -57s59.667 -17 93 -17c32.667 0 62.667 4.83301 90 14.5s52 26.5 74 50.5l4 7l-58 58c-14 -16.667 -30.5 -29.167 -49.5 -37.5s-39.167 -12.5 -60.5 -12.5c-22 0 -42.167 3.83301 -60.5 11.5
s-35.166 20.5 -50.499 38.5zM236.999 717l-55 100l76 79c18 -21.333 36 -36.333 54 -45s36.667 -13 56 -13c20 0 38.667 4.33301 56 13s35 23.667 53 45l79 -79l55 -100l-3 -5h61l55 -100v-712h-232l-55 100v36l-76 -136h-241l-55 100v382h-4l-55 100l63 230h172z
M280.999 696h-200l-54 -198h54v-482h216l154 275l2 -275h200v680h-178l-192 -339zM351.999 612v-102l65 116c-26.667 0 -53.667 5 -81 15z" />
    <glyph glyph-name="Ecircumflex" unicode="&#xca;" horiz-adv-x="667" 
d="M278 696h-200l-52 -198h52v-482h200v253l141 -253h237l-201 359l171 321h-222l-124 -244zM5 482l61 230h228l52 -94l48 94h259l55 -100l-180 -336l155 -276l55 -100h-273l-116 211v-211h-232l-55 100v382zM528 275l155 -275z" />
    <glyph glyph-name="Ecircumflex" unicode="&#x41a;" horiz-adv-x="667" 
d="M278 696h-200l-52 -198h52v-482h200v253l141 -253h237l-201 359l171 321h-222l-124 -244zM5 482l61 230h228l52 -94l48 94h259l55 -100l-180 -336l155 -276l55 -100h-273l-116 211v-211h-232l-55 100v382zM528 275l155 -275z" />
    <glyph glyph-name="Edieresis" unicode="&#xcb;" horiz-adv-x="660" 
d="M430 696h-260l-54 -198h54l-154 -482h205l105 355l111 -355h207zM158 712h284l55 -100l224 -712h-241l-55 100l-55 179l-82 -279h-239l-55 100l135 421l-34 61z" />
    <glyph glyph-name="Edieresis" unicode="&#x41b;" horiz-adv-x="660" 
d="M430 696h-260l-54 -198h54l-154 -482h205l105 355l111 -355h207zM158 712h284l55 -100l224 -712h-241l-55 100l-55 179l-82 -279h-239l-55 100l135 421l-34 61z" />
    <glyph glyph-name="Igrave" unicode="&#xcc;" horiz-adv-x="799" 
d="M290 696h-211l-53 -198h53v-482h200v393l121 -163h15l116 163l2 -393h200v680h-215l-114 -146zM5 482l62 230h231l106 -136l106 136h239l55 -100v-712h-232l-55 100v185l-39 -55h-31l-97 133v-363h-232l-55 100v382z" />
    <glyph glyph-name="Igrave" unicode="&#x41c;" horiz-adv-x="799" 
d="M290 696h-211l-53 -198h53v-482h200v393l121 -163h15l116 163l2 -393h200v680h-215l-114 -146zM5 482l62 230h231l106 -136l106 136h239l55 -100v-712h-232l-55 100v185l-39 -55h-31l-97 133v-363h-232l-55 100v382z" />
    <glyph glyph-name="Iacute" unicode="&#xcd;" horiz-adv-x="704" 
d="M279 696h-200l-53 -198h53v-482h200v251h159v-251h200v680h-200v-230h-159v230zM5 482l62 230h228l55 -100v-130h72v230h232l55 -100v-712h-232l-55 100v151h-72v-251h-232l-55 100v382z" />
    <glyph glyph-name="Iacute" unicode="&#x41d;" horiz-adv-x="704" 
d="M279 696h-200l-53 -198h53v-482h200v251h159v-251h200v680h-200v-230h-159v230zM5 482l62 230h228l55 -100v-130h72v230h232l55 -100v-712h-232l-55 100v151h-72v-251h-232l-55 100v382z" />
    <glyph glyph-name="Icircumflex" unicode="&#xce;" horiz-adv-x="804" 
d="M402 -4c99.333 0 184.333 35.333 255 106s106 155.667 106 255s-35.333 184 -106 254s-155.667 105 -255 105s-184.333 -35 -255 -105s-106 -154.667 -106 -254s35.333 -184.333 106 -255s155.667 -106 255 -106zM402 194c-42 0 -77.833 15.833 -107.5 47.5
s-44.5 70.167 -44.5 115.5c0 44.667 14.667 82.667 44 114s65.333 47 108 47c42 0 77.833 -15.833 107.5 -47.5s44.5 -69.5 44.5 -113.5c0 -45.333 -14.833 -83.833 -44.5 -115.5s-65.5 -47.5 -107.5 -47.5zM457 -120c-70.667 0 -135.169 17.999 -193.502 53.999
s-104.166 84.667 -137.499 146l-52 93c-32.667 56.667 -49 118 -49 184c0 102.667 37.167 190.834 111.5 264.501s162.833 110.5 265.5 110.5c74 0 141.833 -20 203.5 -60s107.834 -93 138.501 -159l46 -81c12 -20.667 22.333 -47.5 31 -80.5s13 -64.5 13 -94.5
c0 -103.333 -37 -192 -111 -266s-162.667 -111 -266 -111zM401.998 209.999c38.667 0 71 14 97 42s39 63 39 105l-2 24v-5c-24 17.333 -50.333 26 -79 26c-38.667 0 -71 -13.667 -97 -41s-39 -62 -39 -104l2 -21l-3 2c24 -18.667 51.333 -28 82 -28z" />
    <glyph glyph-name="Icircumflex" unicode="&#x41e;" horiz-adv-x="804" 
d="M402 -4c99.333 0 184.333 35.333 255 106s106 155.667 106 255s-35.333 184 -106 254s-155.667 105 -255 105s-184.333 -35 -255 -105s-106 -154.667 -106 -254s35.333 -184.333 106 -255s155.667 -106 255 -106zM402 194c-42 0 -77.833 15.833 -107.5 47.5
s-44.5 70.167 -44.5 115.5c0 44.667 14.667 82.667 44 114s65.333 47 108 47c42 0 77.833 -15.833 107.5 -47.5s44.5 -69.5 44.5 -113.5c0 -45.333 -14.833 -83.833 -44.5 -115.5s-65.5 -47.5 -107.5 -47.5zM457 -120c-70.667 0 -135.169 17.999 -193.502 53.999
s-104.166 84.667 -137.499 146l-52 93c-32.667 56.667 -49 118 -49 184c0 102.667 37.167 190.834 111.5 264.501s162.833 110.5 265.5 110.5c74 0 141.833 -20 203.5 -60s107.834 -93 138.501 -159l46 -81c12 -20.667 22.333 -47.5 31 -80.5s13 -64.5 13 -94.5
c0 -103.333 -37 -192 -111 -266s-162.667 -111 -266 -111zM401.998 209.999c38.667 0 71 14 97 42s39 63 39 105l-2 24v-5c-24 17.333 -50.333 26 -79 26c-38.667 0 -71 -13.667 -97 -41s-39 -62 -39 -104l2 -21l-3 2c24 -18.667 51.333 -28 82 -28z" />
    <glyph glyph-name="Idieresis" unicode="&#xcf;" horiz-adv-x="696" 
d="M639 696h-560l-52 -198h52v-482h200v482h160v-482h200v680zM6 482l61 230h588l55 -100v-712h-232l-55 100v382h-73v-482h-232l-55 100v382z" />
    <glyph glyph-name="Idieresis" unicode="&#x41f;" horiz-adv-x="696" 
d="M639 696h-560l-52 -198h52v-482h200v482h160v-482h200v680zM6 482l61 230h588l55 -100v-712h-232l-55 100v382h-73v-482h-232l-55 100v382z" />
    <glyph glyph-name="Eth" unicode="&#xd0;" horiz-adv-x="618" 
d="M78 498v-482h200v149h48c78 0 140.167 24.5 186.5 73.5s69.5 110.167 69.5 183.5c0 76 -20.667 139 -62 189c-46.667 56.667 -112 85 -196 85h-246l-52 -198h52zM278 350l0.000976562 148h38c19.333 0 34.333 -7.83301 45 -23.5s16 -33.167 16 -52.5
c0 -21.333 -4.33301 -38 -13 -50c-10.667 -14.667 -27.334 -22 -50.001 -22h-36zM5.00098 482l61 230h258c60 0 111.667 -15.667 155 -47c36 -26 67.333 -63.333 94 -112l34 -62c14 -25.333 25.167 -53 33.5 -83s12.5 -58.667 12.5 -86c0 -76 -24.833 -140.5 -74.5 -193.5
s-115.5 -79.5 -197.5 -79.5h-32v-149h-232l-55 100v382z" />
    <glyph glyph-name="Eth" unicode="&#x420;" horiz-adv-x="618" 
d="M78 498v-482h200v149h48c78 0 140.167 24.5 186.5 73.5s69.5 110.167 69.5 183.5c0 76 -20.667 139 -62 189c-46.667 56.667 -112 85 -196 85h-246l-52 -198h52zM278 350l0.000976562 148h38c19.333 0 34.333 -7.83301 45 -23.5s16 -33.167 16 -52.5
c0 -21.333 -4.33301 -38 -13 -50c-10.667 -14.667 -27.334 -22 -50.001 -22h-36zM5.00098 482l61 230h258c60 0 111.667 -15.667 155 -47c36 -26 67.333 -63.333 94 -112l34 -62c14 -25.333 25.167 -53 33.5 -83s12.5 -58.667 12.5 -86c0 -76 -24.833 -140.5 -74.5 -193.5
s-115.5 -79.5 -197.5 -79.5h-32v-149h-232l-55 100v382z" />
    <glyph glyph-name="Ntilde" unicode="&#xd1;" horiz-adv-x="685" 
d="M643 653l-168 71l-12 -16c-24 5.33301 -44.333 8 -61 8c-99.333 0 -184.333 -35 -255 -105s-106 -154.667 -106 -254s35 -184.333 105 -255s155 -106 255 -106c54.667 0 103.667 8.83301 147 26.5s80.333 41.5 111 71.5l-114 158c-37.333 -38.667 -85 -58 -143 -58
c-41.333 0 -77 16.333 -107 49s-45 70.667 -45 114s14.833 81 44.5 113s65.5 48 107.5 48c31.333 0 60 -6 86 -18c18.667 -8.66699 37.667 -21.667 57 -39zM470 744l194.996 -83.002l55 -100l-115 -226c-26.667 24 -48.667 40.333 -66 49c-23.333 12 -50.666 18 -81.999 18
c-38 0 -70.167 -14.167 -96.5 -42.5s-39.5 -62.5 -39.5 -102.5l2 -20c23.333 -18 49.666 -27 78.999 -27c30.667 0 56.334 4.83301 77.001 14.5s43.334 27.167 68.001 52.5l133 -185l55 -100c-35.333 -34 -76.5 -61.167 -123.5 -81.5s-98.833 -30.5 -155.5 -30.5
c-62.667 0 -121.667 13.5 -177 40.5s-96 63.167 -122 108.5l-93 162c-13.333 23.333 -23.166 49 -29.499 77s-9.5 57.667 -9.5 89c0 102.667 37.167 190.834 111.5 264.501s162.833 110.5 265.5 110.5c8 0 17.333 -0.666992 28 -2s19.334 -2.66602 26.001 -3.99902z" />
    <glyph glyph-name="Ntilde" unicode="&#x421;" horiz-adv-x="685" 
d="M643 653l-168 71l-12 -16c-24 5.33301 -44.333 8 -61 8c-99.333 0 -184.333 -35 -255 -105s-106 -154.667 -106 -254s35 -184.333 105 -255s155 -106 255 -106c54.667 0 103.667 8.83301 147 26.5s80.333 41.5 111 71.5l-114 158c-37.333 -38.667 -85 -58 -143 -58
c-41.333 0 -77 16.333 -107 49s-45 70.667 -45 114s14.833 81 44.5 113s65.5 48 107.5 48c31.333 0 60 -6 86 -18c18.667 -8.66699 37.667 -21.667 57 -39zM470 744l194.996 -83.002l55 -100l-115 -226c-26.667 24 -48.667 40.333 -66 49c-23.333 12 -50.666 18 -81.999 18
c-38 0 -70.167 -14.167 -96.5 -42.5s-39.5 -62.5 -39.5 -102.5l2 -20c23.333 -18 49.666 -27 78.999 -27c30.667 0 56.334 4.83301 77.001 14.5s43.334 27.167 68.001 52.5l133 -185l55 -100c-35.333 -34 -76.5 -61.167 -123.5 -81.5s-98.833 -30.5 -155.5 -30.5
c-62.667 0 -121.667 13.5 -177 40.5s-96 63.167 -122 108.5l-93 162c-13.333 23.333 -23.166 49 -29.499 77s-9.5 57.667 -9.5 89c0 102.667 37.167 190.834 111.5 264.501s162.833 110.5 265.5 110.5c8 0 17.333 -0.666992 28 -2s19.334 -2.66602 26.001 -3.99902z" />
    <glyph glyph-name="Ograve" unicode="&#xd2;" horiz-adv-x="501" 
d="M127 498v-482h200v482h102l61 226h-188l-14 -28h-220l-52 -198h111zM111 0v382h-61l-55 100l61 230h222l14 28h219l55 -100l-70 -258h-98v-482h-232z" />
    <glyph glyph-name="Ograve" unicode="&#x422;" horiz-adv-x="501" 
d="M127 498v-482h200v482h102l61 226h-188l-14 -28h-220l-52 -198h111zM111 0v382h-61l-55 100l61 230h222l14 28h219l55 -100l-70 -258h-98v-482h-232z" />
    <glyph glyph-name="Oacute" unicode="&#xd3;" horiz-adv-x="607" 
d="M239 696l-214 0.000976562l203 -476l-4 -6h-103l-52 -198h168c40.667 0 75 9.66699 103 29s49 49.666 63 90.999l197 560h-221l-58 -214h-4zM325 557.001l41.999 155h256l55 -100l-205 -581c-15.333 -44 -38.666 -76.833 -69.999 -98.5s-68.333 -32.5 -111 -32.5h-189
l-55 100l61 230h98l-206 482h249l55 -100z" />
    <glyph glyph-name="Oacute" unicode="&#x423;" horiz-adv-x="607" 
d="M239 696l-214 0.000976562l203 -476l-4 -6h-103l-52 -198h168c40.667 0 75 9.66699 103 29s49 49.666 63 90.999l197 560h-221l-58 -214h-4zM325 557.001l41.999 155h256l55 -100l-205 -581c-15.333 -44 -38.666 -76.833 -69.999 -98.5s-68.333 -32.5 -111 -32.5h-189
l-55 100l61 230h98l-206 482h249l55 -100z" />
    <glyph glyph-name="Ocircumflex" unicode="&#xd4;" horiz-adv-x="868" 
d="M333 16h200v136h53c66 0 123.5 26.833 172.5 80.5s73.5 116.167 73.5 187.5c0 76 -24 141 -72 195s-106 81 -174 81h-201l-48 -185h-4v185h-53c-68 0 -126 -27 -174 -81s-72 -119 -72 -195c0 -70.667 24.333 -133 73 -187s106 -81 172 -81h54v-136zM333 498v-148h-28
c-18.667 0 -34.5 6.83301 -47.5 20.5s-19.5 30.167 -19.5 49.5c0 20 6.66699 38 20 54s29 24 47 24h28zM533 350v148.001h28c18 0 33.667 -7.83301 47 -23.5s20 -33.834 20 -54.501c0 -18.667 -6.66699 -35 -20 -49s-29 -21 -47 -21h-28zM604 -99.999h-231.999l-55 100v37
c-34.667 0 -72 14 -112 42s-70.333 60.333 -91 97l-65 116c-8.66699 16 -16 36.167 -22 60.5s-9 46.833 -9 67.5c0 79.333 25.833 147.833 77.5 205.5s113.167 86.5 184.5 86.5h69l16 -32l8 32h213c39.333 0 80.666 -13.333 123.999 -40s75.666 -59 96.999 -97l63 -115
c8.66699 -17.333 16.334 -40 23.001 -68s10 -52 10 -72c0 -74 -26.167 -139.833 -78.5 -197.5s-113.5 -86.5 -183.5 -86.5h-37v-136z" />
    <glyph glyph-name="Ocircumflex" unicode="&#x424;" horiz-adv-x="868" 
d="M333 16h200v136h53c66 0 123.5 26.833 172.5 80.5s73.5 116.167 73.5 187.5c0 76 -24 141 -72 195s-106 81 -174 81h-201l-48 -185h-4v185h-53c-68 0 -126 -27 -174 -81s-72 -119 -72 -195c0 -70.667 24.333 -133 73 -187s106 -81 172 -81h54v-136zM333 498v-148h-28
c-18.667 0 -34.5 6.83301 -47.5 20.5s-19.5 30.167 -19.5 49.5c0 20 6.66699 38 20 54s29 24 47 24h28zM533 350v148.001h28c18 0 33.667 -7.83301 47 -23.5s20 -33.834 20 -54.501c0 -18.667 -6.66699 -35 -20 -49s-29 -21 -47 -21h-28zM604 -99.999h-231.999l-55 100v37
c-34.667 0 -72 14 -112 42s-70.333 60.333 -91 97l-65 116c-8.66699 16 -16 36.167 -22 60.5s-9 46.833 -9 67.5c0 79.333 25.833 147.833 77.5 205.5s113.167 86.5 184.5 86.5h69l16 -32l8 32h213c39.333 0 80.666 -13.333 123.999 -40s75.666 -59 96.999 -97l63 -115
c8.66699 -17.333 16.334 -40 23.001 -68s10 -52 10 -72c0 -74 -26.167 -139.833 -78.5 -197.5s-113.5 -86.5 -183.5 -86.5h-37v-136z" />
    <glyph glyph-name="Otilde" unicode="&#xd5;" horiz-adv-x="670" 
d="M253 696h-220l177 -318l-195 -362h230l88 194l90 -194h230l-195 362l177 318h-220l-80 -162zM6 712h257l74 -138l68 138h257l55 -100l-186 -334l204 -378h-267l-55 100l-29 63l-74 -163h-267l-55 100l204 377z" />
    <glyph glyph-name="Otilde" unicode="&#x425;" horiz-adv-x="670" 
d="M253 696h-220l177 -318l-195 -362h230l88 194l90 -194h230l-195 362l177 318h-220l-80 -162zM6 712h257l74 -138l68 138h257l55 -100l-186 -334l204 -378h-267l-55 100l-29 63l-74 -163h-267l-55 100l204 377z" />
    <glyph glyph-name="Odieresis" unicode="&#xd6;" horiz-adv-x="769" 
d="M277 696h-198l-52 -198h52v-482h483l-31 -140h141l81 338h-129v482h-200v-482h-147v482zM6 482l61 230h226l55 -100v-382h60v482h232l55 -100v-382h78l55 -100l-88 -370h-174l-55 100l9 40h-402l-55 100v382z" />
    <glyph glyph-name="Odieresis" unicode="&#x426;" horiz-adv-x="769" 
d="M277 696h-198l-52 -198h52v-482h483l-31 -140h141l81 338h-129v482h-200v-482h-147v482zM6 482l61 230h226l55 -100v-382h60v482h232l55 -100v-382h78l55 -100l-88 -370h-174l-55 100l9 40h-402l-55 100v382z" />
    <glyph glyph-name="multiply" unicode="&#xd7;" horiz-adv-x="685" 
d="M271 696h-200l-55 -198h55c0 -72 24.5 -135.667 73.5 -191s107.833 -83 176.5 -83h105v-208h200v680h-200v-274h-75c-21.333 0 -40 9.33301 -56 28s-24 39 -24 61v185zM50 382l-55 100l64 230h228l55 -100v-172l9 -2h59v274h232l55 -100v-712h-232l-55 100v108h-34
c-44.667 0 -90 14 -136 42s-78.333 61.667 -97 101l-63 131h-30z" />
    <glyph glyph-name="multiply" unicode="&#x427;" horiz-adv-x="685" 
d="M271 696h-200l-55 -198h55c0 -72 24.5 -135.667 73.5 -191s107.833 -83 176.5 -83h105v-208h200v680h-200v-274h-75c-21.333 0 -40 9.33301 -56 28s-24 39 -24 61v185zM50 382l-55 100l64 230h228l55 -100v-172l9 -2h59v274h232l55 -100v-712h-232l-55 100v108h-34
c-44.667 0 -90 14 -136 42s-78.333 61.667 -97 101l-63 131h-30z" />
    <glyph glyph-name="Oslash" unicode="&#xd8;" horiz-adv-x="967" 
d="M280 696h-200l-53 -198h53v-482h808l52 198h-58v482h-200v-482h-101v482h-200v-482h-101v482zM6 482l62 230h228l55 -100v-382h14v482h232l55 -100v-382h14v482h232l55 -100v-382h8l55 -100l-61 -230h-836l-55 100v382z" />
    <glyph glyph-name="Oslash" unicode="&#x428;" horiz-adv-x="967" 
d="M280 696h-200l-53 -198h53v-482h808l52 198h-58v482h-200v-482h-101v482h-200v-482h-101v482zM6 482l62 230h228l55 -100v-382h14v482h232l55 -100v-382h14v482h232l55 -100v-382h8l55 -100l-61 -230h-836l-55 100v382z" />
    <glyph glyph-name="Ugrave" unicode="&#xd9;" horiz-adv-x="1033" 
d="M280 696h-200l-53 -198h53v-482h738l-30 -140h140l82 340h-128v480h-200v-480h-101v480h-200v-480h-101v480zM6 482l62 230h228l55 -100v-380h14v480h232l55 -100v-380h14v480h232l55 -100v-380h77l55 -100l-89 -372h-173l-55 100l9 40h-658l-55 100v382z" />
    <glyph glyph-name="Ugrave" unicode="&#x429;" horiz-adv-x="1033" 
d="M280 696h-200l-53 -198h53v-482h738l-30 -140h140l82 340h-128v480h-200v-480h-101v480h-200v-480h-101v480zM6 482l62 230h228l55 -100v-380h14v480h232l55 -100v-380h14v480h232l55 -100v-380h77l55 -100l-89 -372h-173l-55 100l9 40h-658l-55 100v382z" />
    <glyph glyph-name="Uacute" unicode="&#xda;" horiz-adv-x="709" 
d="M361 696h-279.001l-55 -198h134v-482h252c70 0 129.667 25.667 179 77s74 113.333 74 186c0 78.667 -24.667 145.167 -74 199.5s-109.666 81.5 -180.999 81.5h-50v136zM360.999 214l0.00195312 148h30c17.333 0 32.666 -7 45.999 -21s20 -30.667 20 -50
c0 -22 -6.33301 -40.333 -19 -55s-28.334 -22 -47.001 -22h-30zM70.001 712l306.999 -0.000976562l55 -100v-37c45.333 -4.66699 87.333 -20.667 126 -48s68.667 -62.333 90 -105l47 -86c12.667 -22 22.834 -46.833 30.501 -74.5s11.5 -55.167 11.5 -82.5
c0 -75.333 -26.333 -140.666 -79 -195.999s-116 -83 -190 -83h-268l-55 100v382h-84l-55 100z" />
    <glyph glyph-name="Uacute" unicode="&#x42a;" horiz-adv-x="709" 
d="M361 696h-279.001l-55 -198h134v-482h252c70 0 129.667 25.667 179 77s74 113.333 74 186c0 78.667 -24.667 145.167 -74 199.5s-109.666 81.5 -180.999 81.5h-50v136zM360.999 214l0.00195312 148h30c17.333 0 32.666 -7 45.999 -21s20 -30.667 20 -50
c0 -22 -6.33301 -40.333 -19 -55s-28.334 -22 -47.001 -22h-30zM70.001 712l306.999 -0.000976562l55 -100v-37c45.333 -4.66699 87.333 -20.667 126 -48s68.667 -62.333 90 -105l47 -86c12.667 -22 22.834 -46.833 30.501 -74.5s11.5 -55.167 11.5 -82.5
c0 -75.333 -26.333 -140.666 -79 -195.999s-116 -83 -190 -83h-268l-55 100v382h-84l-55 100z" />
    <glyph glyph-name="Ucircumflex" unicode="&#xdb;" horiz-adv-x="881" 
d="M279 696h-199.998l-52 -198h52v-482h253c69.333 0 128.666 25.667 177.999 77s74 113.333 74 186c0 78 -24.833 144.5 -74.5 199.5s-109.834 82.5 -180.501 82.5h-50v135zM279.002 214l0.000976562 148.999h30c18 0 33.5 -7.16699 46.5 -21.5s19.5 -31.166 19.5 -50.499
c0 -22 -6.33301 -40.333 -19 -55s-28.334 -22 -47.001 -22h-30zM840.003 695.999h-200l-54 -198h54v-482h200v680zM6.00293 481.999l61 230h228l55 -100v-36c46 -4.66699 88.167 -21 126.5 -49s68.5 -64 90.5 -108l57 -104v67h-4l-55 100l63 230h228l55 -100v-712h-232
l-55 100v51c-22.667 -45.333 -55.167 -81.833 -97.5 -109.5s-88.833 -41.5 -139.5 -41.5h-269l-55 100v382zM346.003 575.999l-5 1z" />
    <glyph glyph-name="Ucircumflex" unicode="&#x42b;" horiz-adv-x="881" 
d="M279 696h-199.998l-52 -198h52v-482h253c69.333 0 128.666 25.667 177.999 77s74 113.333 74 186c0 78 -24.833 144.5 -74.5 199.5s-109.834 82.5 -180.501 82.5h-50v135zM279.002 214l0.000976562 148.999h30c18 0 33.5 -7.16699 46.5 -21.5s19.5 -31.166 19.5 -50.499
c0 -22 -6.33301 -40.333 -19 -55s-28.334 -22 -47.001 -22h-30zM840.003 695.999h-200l-54 -198h54v-482h200v680zM6.00293 481.999l61 230h228l55 -100v-36c46 -4.66699 88.167 -21 126.5 -49s68.5 -64 90.5 -108l57 -104v67h-4l-55 100l63 230h228l55 -100v-712h-232
l-55 100v51c-22.667 -45.333 -55.167 -81.833 -97.5 -109.5s-88.833 -41.5 -139.5 -41.5h-269l-55 100v382zM346.003 575.999l-5 1z" />
    <glyph glyph-name="Udieresis" unicode="&#xdc;" horiz-adv-x="619" 
d="M279 696h-200.001l-53 -198h53v-482h252c70 0 129.667 25.667 179 77s74 113.333 74 186c0 78.667 -24.667 145.167 -74 199.5s-109.666 81.5 -180.999 81.5h-50v136zM278.999 214v148h29c18 0 33.667 -7 47 -21s20 -30.667 20 -50s-6.66699 -37 -20 -53s-29 -24 -47 -24
h-29zM4.99902 482l62 229.998h228l55 -100v-37c43.333 -4 83.833 -19 121.5 -45s67.5 -59 89.5 -99l60 -110c22.667 -43.333 34 -90.666 34 -141.999c0 -75.333 -26.333 -140.666 -79 -195.999s-116 -83 -190 -83h-268l-55 100v382z" />
    <glyph glyph-name="Udieresis" unicode="&#x42c;" horiz-adv-x="619" 
d="M279 696h-200.001l-53 -198h53v-482h252c70 0 129.667 25.667 179 77s74 113.333 74 186c0 78.667 -24.667 145.167 -74 199.5s-109.666 81.5 -180.999 81.5h-50v136zM278.999 214v148h29c18 0 33.667 -7 47 -21s20 -30.667 20 -50s-6.66699 -37 -20 -53s-29 -24 -47 -24
h-29zM4.99902 482l62 229.998h228l55 -100v-37c43.333 -4 83.833 -19 121.5 -45s67.5 -59 89.5 -99l60 -110c22.667 -43.333 34 -90.666 34 -141.999c0 -75.333 -26.333 -140.666 -79 -195.999s-116 -83 -190 -83h-268l-55 100v382z" />
    <glyph glyph-name="Yacute" unicode="&#xdd;" horiz-adv-x="679" 
d="M151 305l278.002 -0.00195312c-9.33301 -35.333 -27.833 -62.666 -55.5 -81.999s-58.834 -29 -93.501 -29c-30 0 -57.167 5.33301 -81.5 16s-44.833 24.667 -61.5 42l-114 -157c30 -30 65 -53.333 105 -70c46 -19.333 96.667 -29 152 -29
c99.333 0 184.333 35.333 255 106s106 155.667 106 255s-34.667 184 -104 254s-154 105 -254 105c-25.333 0 -50 -4.33301 -74 -13l-11 20l-159 -70l98 -192c17.333 18 37.666 32 60.999 42s50.666 15 81.999 15c32 0 62.333 -10.167 91 -30.5
s48.334 -46.166 59.001 -77.499h-257zM131.002 288.998l23.999 113l-22 32l-116 227l188 83l11 -21c16.667 6 39 9 67 9c62.667 0 123.834 -17 183.501 -51s104.5 -76.667 134.5 -128l68 -117c13.333 -24 23.833 -51.667 31.5 -83s11.5 -63.333 11.5 -96
c0 -103.333 -37 -192 -111 -266s-162.667 -111 -266 -111c-58 0 -109.833 9.83301 -155.5 29.5s-86.5 47.5 -122.5 83.5l-55 100l133 184zM183.001 -9.00195l-8 3z" />
    <glyph glyph-name="Yacute" unicode="&#x42d;" horiz-adv-x="679" 
d="M151 305l278.002 -0.00195312c-9.33301 -35.333 -27.833 -62.666 -55.5 -81.999s-58.834 -29 -93.501 -29c-30 0 -57.167 5.33301 -81.5 16s-44.833 24.667 -61.5 42l-114 -157c30 -30 65 -53.333 105 -70c46 -19.333 96.667 -29 152 -29
c99.333 0 184.333 35.333 255 106s106 155.667 106 255s-34.667 184 -104 254s-154 105 -254 105c-25.333 0 -50 -4.33301 -74 -13l-11 20l-159 -70l98 -192c17.333 18 37.666 32 60.999 42s50.666 15 81.999 15c32 0 62.333 -10.167 91 -30.5
s48.334 -46.166 59.001 -77.499h-257zM131.002 288.998l23.999 113l-22 32l-116 227l188 83l11 -21c16.667 6 39 9 67 9c62.667 0 123.834 -17 183.501 -51s104.5 -76.667 134.5 -128l68 -117c13.333 -24 23.833 -51.667 31.5 -83s11.5 -63.333 11.5 -96
c0 -103.333 -37 -192 -111 -266s-162.667 -111 -266 -111c-58 0 -109.833 9.83301 -155.5 29.5s-86.5 47.5 -122.5 83.5l-55 100l133 184zM183.001 -9.00195l-8 3z" />
    <glyph glyph-name="Thorn" unicode="&#xde;" horiz-adv-x="1072" 
d="M82 498l-0.000976562 -482h198v240h45c22 -76 65 -138.333 129 -187s137 -73 219 -73c99.333 0 184.333 35.333 255 106s106 155.667 106 255s-35.333 184 -106 254s-155.667 105 -255 105c-74.667 0 -145.667 -25 -213 -75s-111.666 -110.333 -132.999 -181h-47v236
h-198l-55 -198h55zM824.999 357c0 -45.333 -14.667 -84 -44 -116s-65.333 -48 -108 -48c-42 0 -78 16 -108 48s-45 70.667 -45 116c0 44.667 15 82.667 45 114s66 47 108 47s77.833 -15.833 107.5 -47.5s44.5 -69.5 44.5 -113.5zM60.999 382l-54.999 100l64 230h226l55 -100
v-61c34.667 52.667 81.5 96 140.5 130s119.5 51 181.5 51s124.167 -17.333 186.5 -52s108.166 -79 137.499 -133l65 -118c12.667 -22 23 -49.667 31 -83s12 -63 12 -89c0 -103.333 -37 -192 -111 -266s-162.667 -111 -266 -111c-80.667 0 -153.667 23.167 -219 69.5
s-110.333 104.833 -135 175.5l-4 5l-8 10h-11v-240h-230l-55 100v382h-5zM809 357l-2 19c-24 17.333 -50 26 -78 26c-40 0 -73.167 -13.833 -99.5 -41.5s-39.5 -62.5 -39.5 -104.5l2 -19c11.333 -8.66699 24 -15.5 38 -20.5s28.333 -7.5 43 -7.5c38.667 0 71 14 97 42
s39 63.333 39 106z" />
    <glyph glyph-name="Thorn" unicode="&#x42e;" horiz-adv-x="1072" 
d="M82 498l-0.000976562 -482h198v240h45c22 -76 65 -138.333 129 -187s137 -73 219 -73c99.333 0 184.333 35.333 255 106s106 155.667 106 255s-35.333 184 -106 254s-155.667 105 -255 105c-74.667 0 -145.667 -25 -213 -75s-111.666 -110.333 -132.999 -181h-47v236
h-198l-55 -198h55zM824.999 357c0 -45.333 -14.667 -84 -44 -116s-65.333 -48 -108 -48c-42 0 -78 16 -108 48s-45 70.667 -45 116c0 44.667 15 82.667 45 114s66 47 108 47s77.833 -15.833 107.5 -47.5s44.5 -69.5 44.5 -113.5zM60.999 382l-54.999 100l64 230h226l55 -100
v-61c34.667 52.667 81.5 96 140.5 130s119.5 51 181.5 51s124.167 -17.333 186.5 -52s108.166 -79 137.499 -133l65 -118c12.667 -22 23 -49.667 31 -83s12 -63 12 -89c0 -103.333 -37 -192 -111 -266s-162.667 -111 -266 -111c-80.667 0 -153.667 23.167 -219 69.5
s-110.333 104.833 -135 175.5l-4 5l-8 10h-11v-240h-230l-55 100v382h-5zM809 357l-2 19c-24 17.333 -50 26 -78 26c-40 0 -73.167 -13.833 -99.5 -41.5s-39.5 -62.5 -39.5 -104.5l2 -19c11.333 -8.66699 24 -15.5 38 -20.5s28.333 -7.5 43 -7.5c38.667 0 71 14 97 42
s39 63.333 39 106z" />
    <glyph glyph-name="germandbls" unicode="&#xdf;" horiz-adv-x="629" 
d="M569 16v680h-287c-68 0 -125.667 -25.333 -173 -76s-71 -112 -71 -184c0 -38.667 11 -78.667 33 -120s50 -71.333 84 -90l-117 -210h241l86 186h4v-186h200zM369 498v-118h-63c-16.667 0 -31.167 5.5 -43.5 16.5s-18.5 24.167 -18.5 39.5c0 17.333 6 32 18 44
s26.667 18 44 18h63zM640 612v-711.999h-232l-35 63l-29 -63h-278l-55 100l108 194l-67 122c-20 41.333 -30 81.333 -30 120c0 75.333 25.5 140.166 76.5 194.499s112.167 81.5 183.5 81.5h303z" />
    <glyph glyph-name="germandbls" unicode="&#x42f;" horiz-adv-x="629" 
d="M569 16v680h-287c-68 0 -125.667 -25.333 -173 -76s-71 -112 -71 -184c0 -38.667 11 -78.667 33 -120s50 -71.333 84 -90l-117 -210h241l86 186h4v-186h200zM369 498v-118h-63c-16.667 0 -31.167 5.5 -43.5 16.5s-18.5 24.167 -18.5 39.5c0 17.333 6 32 18 44
s26.667 18 44 18h63zM640 612v-711.999h-232l-35 63l-29 -63h-278l-55 100l108 194l-67 122c-20 41.333 -30 81.333 -30 120c0 75.333 25.5 140.166 76.5 194.499s112.167 81.5 183.5 81.5h303z" />
    <glyph glyph-name="agrave" unicode="&#xe0;" horiz-adv-x="628" 
d="M551 510l-176 0.000976562v-28c-13.333 10.667 -29.166 19.5 -47.499 26.5s-35.833 10.5 -52.5 10.5c-64.667 0 -119.834 -24.833 -165.501 -74.5s-68.5 -109.834 -68.5 -180.501c0 -70 22.5 -128.833 67.5 -176.5s99.5 -71.5 163.5 -71.5h51l52 130v-130h176l50 170h-50
v324zM375 264.001v-78h-74c-21.333 0 -39.166 7.5 -53.499 22.5s-21.5 33.5 -21.5 55.5c0 21.333 7.16699 39.5 21.5 54.5s31.833 22.5 52.5 22.5c21.333 0 39.166 -7.5 53.499 -22.5s21.5 -33.167 21.5 -54.5zM359 526.001l207.998 -0.000976562l55 -100v-224l55 -100
l-59 -202h-204l-15 26l-10 -26h-62c-42.667 0 -83.667 11.167 -123 33.5s-68.666 51.833 -87.999 88.5l-65 123c-17.333 32.667 -26 72.334 -26 119.001c0 74 24.667 137.667 74 191s108 80 176 80c18.667 0 34.334 -2.16699 47.001 -6.5s25 -10.5 37 -18.5v16z" />
    <glyph glyph-name="agrave" unicode="&#x430;" horiz-adv-x="628" 
d="M551 510l-176 0.000976562v-28c-13.333 10.667 -29.166 19.5 -47.499 26.5s-35.833 10.5 -52.5 10.5c-64.667 0 -119.834 -24.833 -165.501 -74.5s-68.5 -109.834 -68.5 -180.501c0 -70 22.5 -128.833 67.5 -176.5s99.5 -71.5 163.5 -71.5h51l52 130v-130h176l50 170h-50
v324zM375 264.001v-78h-74c-21.333 0 -39.166 7.5 -53.499 22.5s-21.5 33.5 -21.5 55.5c0 21.333 7.16699 39.5 21.5 54.5s31.833 22.5 52.5 22.5c21.333 0 39.166 -7.5 53.499 -22.5s21.5 -33.167 21.5 -54.5zM359 526.001l207.998 -0.000976562l55 -100v-224l55 -100
l-59 -202h-204l-15 26l-10 -26h-62c-42.667 0 -83.667 11.167 -123 33.5s-68.666 51.833 -87.999 88.5l-65 123c-17.333 32.667 -26 72.334 -26 119.001c0 74 24.667 137.667 74 191s108 80 176 80c18.667 0 34.334 -2.16699 47.001 -6.5s25 -10.5 37 -18.5v16z" />
    <glyph glyph-name="aacute" unicode="&#xe1;" horiz-adv-x="626" 
d="M324 7c78 0 140.998 21.668 188.998 65.001s72 97.666 72 162.999c0 72 -21.5 130.167 -64.5 174.5s-96.5 66.5 -160.5 66.5c-12 0 -23 -0.666992 -33 -2s-20 -4 -30 -8l-46 -124v106c0 30.667 8 56.5 24 77.5s35.667 31.5 59 31.5c10 0 25.333 -1.66699 46 -5
s37.334 -5 50.001 -5c18.667 0 38 2.33301 58 7s38.333 10.667 55 18l-37 144c-10.667 -7.33301 -21.167 -12.5 -31.5 -15.5s-24.5 -4.5 -42.5 -4.5c-22.667 0 -44 1.5 -64 4.5s-36.667 4.5 -50 4.5c-68 0 -127 -27 -177 -81s-75 -114.333 -75 -181v-179
c0 -70 25.333 -130.333 76 -181s111.334 -76 182.001 -76zM250.998 254.001v60.001h71c22.667 0 41.334 -6 56.001 -18s22 -28.333 22 -49s-7.83301 -37.834 -23.5 -51.501s-33.834 -20.5 -54.501 -20.5c-19.333 0 -36 7.66699 -50 23s-21 34 -21 56zM378.998 -108.998
c-44 0 -88.1699 12.166 -132.503 36.499s-76.166 53.833 -95.499 88.5l-79 144c-6 11.333 -11.167 27.833 -15.5 49.5s-6.5 39.834 -6.5 54.501v179c0 70 26.833 133.833 80.5 191.5s116.167 86.5 187.5 86.5c24 0 46 -1.5 66 -4.5s36 -4.5 48 -4.5c18 0 31.333 1.5 40 4.5
s23.334 11.5 44.001 25.5l55 -100l46 -179c-35.333 -16 -68.666 -26 -99.999 -30c15.333 -13.333 29.333 -30 42 -50l62 -110c10.667 -19.333 19.167 -41 25.5 -65s9.5 -48.333 9.5 -73c0 -68 -25.667 -125.667 -77 -173s-118 -71 -200 -71z" />
    <glyph glyph-name="aacute" unicode="&#x431;" horiz-adv-x="626" 
d="M324 7c78 0 140.998 21.668 188.998 65.001s72 97.666 72 162.999c0 72 -21.5 130.167 -64.5 174.5s-96.5 66.5 -160.5 66.5c-12 0 -23 -0.666992 -33 -2s-20 -4 -30 -8l-46 -124v106c0 30.667 8 56.5 24 77.5s35.667 31.5 59 31.5c10 0 25.333 -1.66699 46 -5
s37.334 -5 50.001 -5c18.667 0 38 2.33301 58 7s38.333 10.667 55 18l-37 144c-10.667 -7.33301 -21.167 -12.5 -31.5 -15.5s-24.5 -4.5 -42.5 -4.5c-22.667 0 -44 1.5 -64 4.5s-36.667 4.5 -50 4.5c-68 0 -127 -27 -177 -81s-75 -114.333 -75 -181v-179
c0 -70 25.333 -130.333 76 -181s111.334 -76 182.001 -76zM250.998 254.001v60.001h71c22.667 0 41.334 -6 56.001 -18s22 -28.333 22 -49s-7.83301 -37.834 -23.5 -51.501s-33.834 -20.5 -54.501 -20.5c-19.333 0 -36 7.66699 -50 23s-21 34 -21 56zM378.998 -108.998
c-44 0 -88.1699 12.166 -132.503 36.499s-76.166 53.833 -95.499 88.5l-79 144c-6 11.333 -11.167 27.833 -15.5 49.5s-6.5 39.834 -6.5 54.501v179c0 70 26.833 133.833 80.5 191.5s116.167 86.5 187.5 86.5c24 0 46 -1.5 66 -4.5s36 -4.5 48 -4.5c18 0 31.333 1.5 40 4.5
s23.334 11.5 44.001 25.5l55 -100l46 -179c-35.333 -16 -68.666 -26 -99.999 -30c15.333 -13.333 29.333 -30 42 -50l62 -110c10.667 -19.333 19.167 -41 25.5 -65s9.5 -48.333 9.5 -73c0 -68 -25.667 -125.667 -77 -173s-118 -71 -200 -71z" />
    <glyph glyph-name="acircumflex" unicode="&#xe2;" horiz-adv-x="636" 
d="M324 7c78 0 140.998 21.667 188.998 65s72 97.666 72 162.999c0 40 -6 74.667 -18 104s-30.667 51.333 -56 66c34 28.667 51 69.334 51 122.001c0 45.333 -24 86.333 -72 123s-105.333 55 -172 55c-69.333 0 -128.666 -24 -177.999 -72s-74 -105.667 -74 -173v-196
c0 -70 25.333 -130.333 76 -181s111.334 -76 182.001 -76zM296.998 466l-45.999 -124.001v106c0 30.667 8 56.5 24 77.5s35.667 31.5 59 31.5c15.333 0 28.166 -3.16699 38.499 -9.5s15.5 -16.833 15.5 -31.5c0 -15.333 -4.66699 -28.666 -14 -39.999
c-14 0 -28 -0.833008 -42 -2.5s-25.667 -4.16699 -35 -7.5zM250.999 253.999v60.001h71c22.667 0 41.334 -6 56.001 -18s22 -28.333 22 -49s-7.83301 -37.834 -23.5 -51.501s-33.834 -20.5 -54.501 -20.5c-19.333 0 -36 7.66699 -50 23s-21 34 -21 56zM378.999 -109
c-49.333 0 -95.1689 12.6689 -137.502 38.002s-75.5 59.333 -99.5 102l-62 111c-20 35.333 -30 76 -30 122v196c0 71.333 26.333 132.666 79 183.999s115.667 77 189 77c54.667 0 104.834 -13.333 150.501 -40s77.834 -59.334 96.501 -98.001l43 -79
c8.66699 -16.667 15 -30.5 19 -41.5s6 -22.833 6 -35.5c0 -27.333 -4 -52 -12 -74s-17 -37 -27 -45c17.333 -10 32 -31.833 44 -65.5s18 -69.5 18 -107.5c0 -68.667 -25.833 -126.5 -77.5 -173.5s-118.167 -70.5 -199.5 -70.5z" />
    <glyph glyph-name="acircumflex" unicode="&#x432;" horiz-adv-x="636" 
d="M324 7c78 0 140.998 21.667 188.998 65s72 97.666 72 162.999c0 40 -6 74.667 -18 104s-30.667 51.333 -56 66c34 28.667 51 69.334 51 122.001c0 45.333 -24 86.333 -72 123s-105.333 55 -172 55c-69.333 0 -128.666 -24 -177.999 -72s-74 -105.667 -74 -173v-196
c0 -70 25.333 -130.333 76 -181s111.334 -76 182.001 -76zM296.998 466l-45.999 -124.001v106c0 30.667 8 56.5 24 77.5s35.667 31.5 59 31.5c15.333 0 28.166 -3.16699 38.499 -9.5s15.5 -16.833 15.5 -31.5c0 -15.333 -4.66699 -28.666 -14 -39.999
c-14 0 -28 -0.833008 -42 -2.5s-25.667 -4.16699 -35 -7.5zM250.999 253.999v60.001h71c22.667 0 41.334 -6 56.001 -18s22 -28.333 22 -49s-7.83301 -37.834 -23.5 -51.501s-33.834 -20.5 -54.501 -20.5c-19.333 0 -36 7.66699 -50 23s-21 34 -21 56zM378.999 -109
c-49.333 0 -95.1689 12.6689 -137.502 38.002s-75.5 59.333 -99.5 102l-62 111c-20 35.333 -30 76 -30 122v196c0 71.333 26.333 132.666 79 183.999s115.667 77 189 77c54.667 0 104.834 -13.333 150.501 -40s77.834 -59.334 96.501 -98.001l43 -79
c8.66699 -16.667 15 -30.5 19 -41.5s6 -22.833 6 -35.5c0 -27.333 -4 -52 -12 -74s-17 -37 -27 -45c17.333 -10 32 -31.833 44 -65.5s18 -69.5 18 -107.5c0 -68.667 -25.833 -126.5 -77.5 -173.5s-118.167 -70.5 -199.5 -70.5z" />
    <glyph glyph-name="atilde" unicode="&#xe3;" horiz-adv-x="458" 
d="M41 162c0 -48 19.001 -86.333 57.001 -115c35.333 -26.667 77.666 -40 126.999 -40c38 0 72.5 2.83301 103.5 8.5s60.5 16.167 88.5 31.5l-34 145c-18 -10.667 -35 -18.5 -51 -23.5s-32.667 -7.5 -50 -7.5c-18.667 0 -31.334 1.33301 -38.001 4
c-12.667 4.66699 -19 14.667 -19 30c0 10 32 29.667 96 59s96 66.333 96 111c0 46 -16.833 83.167 -50.5 111.5s-73.834 42.5 -120.501 42.5c-39.333 0 -72.833 -3.5 -100.5 -10.5s-60.167 -21.833 -97.5 -44.5l37 -145c16.667 12 33.334 22 50.001 30
c22.667 10.667 42.334 16 59.001 16c18 0 30.333 -1.66699 37 -5s10 -10.666 10 -21.999c0 -10.667 -33.333 -31.334 -100 -62.001s-100 -68.667 -100 -114zM25.001 162c0 24 6.66895 45.666 20.002 64.999c11.333 16.667 27.333 31.334 48 44.001l-18 21l-45 179
c40.667 24.667 77.5 41.5 110.5 50.5s68.167 13.5 105.5 13.5c34 0 66.167 -7.66699 96.5 -23s52.833 -36.666 67.5 -63.999l52 -96c9.33301 -17.333 16 -32 20 -44s6 -26.333 6 -43c0 -24 -5.5 -44.5 -16.5 -61.5s-26.5 -31.833 -46.5 -44.5l23 -42l42 -178
c-32 -17.333 -65.5 -29.666 -100.5 -36.999s-71.5 -11 -109.5 -11c-36.667 0 -71.834 8.66699 -105.501 26s-58.834 40.666 -75.501 69.999l-58 105c-10.667 19.333 -16 42.666 -16 69.999z" />
    <glyph glyph-name="atilde" unicode="&#x433;" horiz-adv-x="458" 
d="M41 162c0 -48 19.001 -86.333 57.001 -115c35.333 -26.667 77.666 -40 126.999 -40c38 0 72.5 2.83301 103.5 8.5s60.5 16.167 88.5 31.5l-34 145c-18 -10.667 -35 -18.5 -51 -23.5s-32.667 -7.5 -50 -7.5c-18.667 0 -31.334 1.33301 -38.001 4
c-12.667 4.66699 -19 14.667 -19 30c0 10 32 29.667 96 59s96 66.333 96 111c0 46 -16.833 83.167 -50.5 111.5s-73.834 42.5 -120.501 42.5c-39.333 0 -72.833 -3.5 -100.5 -10.5s-60.167 -21.833 -97.5 -44.5l37 -145c16.667 12 33.334 22 50.001 30
c22.667 10.667 42.334 16 59.001 16c18 0 30.333 -1.66699 37 -5s10 -10.666 10 -21.999c0 -10.667 -33.333 -31.334 -100 -62.001s-100 -68.667 -100 -114zM25.001 162c0 24 6.66895 45.666 20.002 64.999c11.333 16.667 27.333 31.334 48 44.001l-18 21l-45 179
c40.667 24.667 77.5 41.5 110.5 50.5s68.167 13.5 105.5 13.5c34 0 66.167 -7.66699 96.5 -23s52.833 -36.666 67.5 -63.999l52 -96c9.33301 -17.333 16 -32 20 -44s6 -26.333 6 -43c0 -24 -5.5 -44.5 -16.5 -61.5s-26.5 -31.833 -46.5 -44.5l23 -42l42 -178
c-32 -17.333 -65.5 -29.666 -100.5 -36.999s-71.5 -11 -109.5 -11c-36.667 0 -71.834 8.66699 -105.501 26s-58.834 40.666 -75.501 69.999l-58 105c-10.667 19.333 -16 42.666 -16 69.999z" />
    <glyph glyph-name="adieresis" unicode="&#xe4;" horiz-adv-x="622" 
d="M551 510h-176v-30c-15.333 11.333 -32.5 20.666 -51.5 27.999s-36.833 11 -53.5 11c-64.667 0 -119 -23 -163 -69s-66 -101.667 -66 -167c0 -63.333 22 -117.666 66 -162.999s97 -68 159 -68h57l52 130v-130c0 -18.667 -8.83301 -31.667 -26.5 -39
s-40.834 -11 -69.501 -11c-33.333 0 -85.333 12 -156 36l-29 -147c30.667 -14.667 62.834 -25.5 96.501 -32.5s68.5 -10.5 104.5 -10.5c68 0 124.667 14 170 42c57.333 35.333 86 89.333 86 162v458zM375 280v-68h-71c-22 0 -40.5 6.5 -55.5 19.5s-22.5 29.167 -22.5 48.5
s7 36 21 50s31 21 51 21c21.333 0 39.5 -6.83301 54.5 -20.5s22.5 -30.5 22.5 -50.5zM359 526l207.999 -0.00292969l55 -100v-474c0 -77.333 -31 -135.333 -93 -174c-49.333 -30.667 -109 -46 -179 -46c-39.333 0 -75.5 3.5 -108.5 10.5s-69.833 20.167 -110.5 39.5l-55 100
l35 177l4 -1l-56 101c-10.667 18.667 -19 38.334 -25 59.001s-9 42.334 -9 65.001c0 68.667 23.833 127.834 71.5 177.501s105.5 74.5 173.5 74.5c17.333 0 32.833 -2.16699 46.5 -6.5s27.834 -10.5 42.501 -18.5v16z" />
    <glyph glyph-name="adieresis" unicode="&#x434;" horiz-adv-x="622" 
d="M551 510h-176v-30c-15.333 11.333 -32.5 20.666 -51.5 27.999s-36.833 11 -53.5 11c-64.667 0 -119 -23 -163 -69s-66 -101.667 -66 -167c0 -63.333 22 -117.666 66 -162.999s97 -68 159 -68h57l52 130v-130c0 -18.667 -8.83301 -31.667 -26.5 -39
s-40.834 -11 -69.501 -11c-33.333 0 -85.333 12 -156 36l-29 -147c30.667 -14.667 62.834 -25.5 96.501 -32.5s68.5 -10.5 104.5 -10.5c68 0 124.667 14 170 42c57.333 35.333 86 89.333 86 162v458zM375 280v-68h-71c-22 0 -40.5 6.5 -55.5 19.5s-22.5 29.167 -22.5 48.5
s7 36 21 50s31 21 51 21c21.333 0 39.5 -6.83301 54.5 -20.5s22.5 -30.5 22.5 -50.5zM359 526l207.999 -0.00292969l55 -100v-474c0 -77.333 -31 -135.333 -93 -174c-49.333 -30.667 -109 -46 -179 -46c-39.333 0 -75.5 3.5 -108.5 10.5s-69.833 20.167 -110.5 39.5l-55 100
l35 177l4 -1l-56 101c-10.667 18.667 -19 38.334 -25 59.001s-9 42.334 -9 65.001c0 68.667 23.833 127.834 71.5 177.501s105.5 74.5 173.5 74.5c17.333 0 32.833 -2.16699 46.5 -6.5s27.834 -10.5 42.501 -18.5v16z" />
    <glyph glyph-name="aring" unicode="&#xe5;" horiz-adv-x="587" 
d="M245 240h305.998c0 84.667 -24.167 152.334 -72.5 203.001s-109.166 76 -182.499 76c-70.667 0 -130.834 -24.833 -180.501 -74.5s-74.5 -109.834 -74.5 -180.501c0 -70 25 -130.333 75 -181s110 -76 180 -76c40 0 70.333 1.66699 91 5c30.667 5.33301 59 15.333 85 30
l43 144c-36.667 -12.667 -81 -19 -133 -19c-27.333 0 -52.666 6.5 -75.999 19.5s-43.666 30.833 -60.999 53.5zM363.998 334l-141.001 -0.000976562c3.33301 16.667 11.333 30.334 24 41.001s27.667 16 45 16c18 0 33.333 -5 46 -15s21.334 -24 26.001 -42zM295.997 534.999
c48.667 0 92.665 -10 131.998 -30s71 -51 95 -93l53 -94c14.667 -24.667 26 -52.834 34 -84.501s12 -68.167 12 -109.5h-38l9 -17l-52 -176c-27.333 -16 -56.666 -26.667 -87.999 -32s-65.333 -8 -102 -8c-50 0 -96.667 13.5 -140 40.5s-76.666 62.5 -99.999 106.5l-56 104
c-20 38.667 -30 79.334 -30 122.001c0 74 26.667 137.667 80 191s117 80 191 80z" />
    <glyph glyph-name="aring" unicode="&#x435;" horiz-adv-x="587" 
d="M245 240h305.998c0 84.667 -24.167 152.334 -72.5 203.001s-109.166 76 -182.499 76c-70.667 0 -130.834 -24.833 -180.501 -74.5s-74.5 -109.834 -74.5 -180.501c0 -70 25 -130.333 75 -181s110 -76 180 -76c40 0 70.333 1.66699 91 5c30.667 5.33301 59 15.333 85 30
l43 144c-36.667 -12.667 -81 -19 -133 -19c-27.333 0 -52.666 6.5 -75.999 19.5s-43.666 30.833 -60.999 53.5zM363.998 334l-141.001 -0.000976562c3.33301 16.667 11.333 30.334 24 41.001s27.667 16 45 16c18 0 33.333 -5 46 -15s21.334 -24 26.001 -42zM295.997 534.999
c48.667 0 92.665 -10 131.998 -30s71 -51 95 -93l53 -94c14.667 -24.667 26 -52.834 34 -84.501s12 -68.167 12 -109.5h-38l9 -17l-52 -176c-27.333 -16 -56.666 -26.667 -87.999 -32s-65.333 -8 -102 -8c-50 0 -96.667 13.5 -140 40.5s-76.666 62.5 -99.999 106.5l-56 104
c-20 38.667 -30 79.334 -30 122.001c0 74 26.667 137.667 80 191s117 80 191 80z" />
    <glyph glyph-name="ae" unicode="&#xe6;" horiz-adv-x="796" 
d="M486 716h-176l-50 -154h50v-221l-74 169h-200l113 -225l-133 -269h205l89 194v-194h176v194l89 -194h205l-133 269l113 225h-200l-74 -169v375zM131 285l-121 241h236l-7 20l59 186h204l55 -100v-106h229l55 -100l-121 -241l141 -285h-241l-63 117v-117h-208l-34 62
l-29 -62h-241l-55 100z" />
    <glyph glyph-name="ae" unicode="&#x436;" horiz-adv-x="796" 
d="M486 716h-176l-50 -154h50v-221l-74 169h-200l113 -225l-133 -269h205l89 194v-194h176v194l89 -194h205l-133 269l113 225h-200l-74 -169v375zM131 285l-121 241h236l-7 20l59 186h204l55 -100v-106h229l55 -100l-121 -241l141 -285h-241l-63 117v-117h-208l-34 62
l-29 -62h-241l-55 100z" />
    <glyph glyph-name="ccedilla" unicode="&#xe7;" horiz-adv-x="538" 
d="M492 52c0 34 -9.33301 65.001 -28 93.001c-21.333 32 -47.333 48 -78 48c24 6.66699 44.333 25.667 61 57c14.667 28 22 58 22 90c0 48.667 -25.167 89.167 -75.5 121.5s-113.166 48.5 -188.499 48.5h-113l-45 -170h189c16 0 29.5 -4.5 40.5 -13.5s16.5 -20.5 16.5 -34.5
c0 -13.333 -5.5 -24.333 -16.5 -33s-24.5 -13 -40.5 -13h-107v-128h120c16 0 30 -3.83301 42 -11.5s18 -19.834 18 -36.501c0 -24.667 -10 -42.667 -30 -54c-16.667 -9.33301 -39.334 -14 -68.001 -14c-33.333 0 -85.333 12 -156 36l-29 -147
c30.667 -14.667 62.834 -25.5 96.501 -32.5s68.5 -10.5 104.5 -10.5c69.333 0 127.666 14 174.999 42c60 35.333 90 89.333 90 162zM43 59.001c24 -8.66699 45.998 -15.998 65.998 -21.998s37.333 -10.333 52 -13l-48 78v122h-32l-55 100l54 202h125
c63.333 0 117.833 -9.66699 163.5 -29s76.834 -44.666 93.501 -75.999l55 -102c6.66699 -12.667 12.167 -25.334 16.5 -38.001s6.5 -26.334 6.5 -41.001c0 -25.333 -3.83301 -49.333 -11.5 -72s-18.167 -41.334 -31.5 -56.001l46 -79c13.333 -23.333 20 -50.333 20 -81
c0 -77.333 -32.333 -135.333 -97 -174c-51.333 -30.667 -112.666 -46 -183.999 -46c-39.333 0 -75.5 3.5 -108.5 10.5s-69.833 20.167 -110.5 39.5l-55 100z" />
    <glyph glyph-name="ccedilla" unicode="&#x437;" horiz-adv-x="538" 
d="M492 52c0 34 -9.33301 65.001 -28 93.001c-21.333 32 -47.333 48 -78 48c24 6.66699 44.333 25.667 61 57c14.667 28 22 58 22 90c0 48.667 -25.167 89.167 -75.5 121.5s-113.166 48.5 -188.499 48.5h-113l-45 -170h189c16 0 29.5 -4.5 40.5 -13.5s16.5 -20.5 16.5 -34.5
c0 -13.333 -5.5 -24.333 -16.5 -33s-24.5 -13 -40.5 -13h-107v-128h120c16 0 30 -3.83301 42 -11.5s18 -19.834 18 -36.501c0 -24.667 -10 -42.667 -30 -54c-16.667 -9.33301 -39.334 -14 -68.001 -14c-33.333 0 -85.333 12 -156 36l-29 -147
c30.667 -14.667 62.834 -25.5 96.501 -32.5s68.5 -10.5 104.5 -10.5c69.333 0 127.666 14 174.999 42c60 35.333 90 89.333 90 162zM43 59.001c24 -8.66699 45.998 -15.998 65.998 -21.998s37.333 -10.333 52 -13l-48 78v122h-32l-55 100l54 202h125
c63.333 0 117.833 -9.66699 163.5 -29s76.834 -44.666 93.501 -75.999l55 -102c6.66699 -12.667 12.167 -25.334 16.5 -38.001s6.5 -26.334 6.5 -41.001c0 -25.333 -3.83301 -49.333 -11.5 -72s-18.167 -41.334 -31.5 -56.001l46 -79c13.333 -23.333 20 -50.333 20 -81
c0 -77.333 -32.333 -135.333 -97 -174c-51.333 -30.667 -112.666 -46 -183.999 -46c-39.333 0 -75.5 3.5 -108.5 10.5s-69.833 20.167 -110.5 39.5l-55 100z" />
    <glyph glyph-name="egrave" unicode="&#xe8;" horiz-adv-x="608" 
d="M252 510l-176 0.000976562l-50 -170h50v-185c0 -37.333 13.5 -69.833 40.5 -97.5s59.167 -41.5 96.5 -41.5h89l53 135v-135h176l50 170h-50v324h-176v-324h-51c-14.667 0 -27 5.66699 -37 17s-15 26.666 -15 45.999v261zM64 526.001l204.002 -0.00195312l55 -100v-224h16
v324h208l55 -100v-224l55 -100l-59 -202h-204l-16 26l-10 -26h-100c-26.667 0 -52.334 7.83301 -77.001 23.5s-43.334 34.834 -56.001 57.501l-62 114c-2 4.66699 -4.66699 12.834 -8 24.501s-5 23.5 -5 35.5v69l-55 100z" />
    <glyph glyph-name="egrave" unicode="&#x438;" horiz-adv-x="608" 
d="M252 510l-176 0.000976562l-50 -170h50v-185c0 -37.333 13.5 -69.833 40.5 -97.5s59.167 -41.5 96.5 -41.5h89l53 135v-135h176l50 170h-50v324h-176v-324h-51c-14.667 0 -27 5.66699 -37 17s-15 26.666 -15 45.999v261zM64 526.001l204.002 -0.00195312l55 -100v-224h16
v324h208l55 -100v-224l55 -100l-59 -202h-204l-16 26l-10 -26h-100c-26.667 0 -52.334 7.83301 -77.001 23.5s-43.334 34.834 -56.001 57.501l-62 114c-2 4.66699 -4.66699 12.834 -8 24.501s-5 23.5 -5 35.5v69l-55 100z" />
    <glyph glyph-name="eacute" unicode="&#xe9;" horiz-adv-x="608" 
d="M168 543l-54.999 99.998l83 76c18 -21.333 35.5 -36.166 52.5 -44.499s35.5 -12.5 55.5 -12.5c18.667 0 36.334 4.16699 53.001 12.5s33.667 23.166 51 44.499l86 -76l55 -100l-15 -17h13l55 -100v-224l55 -100l-59 -202h-204l-16 26l-10 -26h-100
c-26.667 0 -52.334 7.83301 -77.001 23.5s-43.334 34.834 -56.001 57.501l-62 114c-2 4.66699 -4.66699 12.834 -8 24.501s-5 23.5 -5 35.5v69l-55 100l59 202h118zM323.001 201.998h16v239l-26 4l10 -19v-224zM252.001 509.998l-176 0.000976562l-50 -170h50v-185
c0 -37.333 13.5 -69.833 40.5 -97.5s59.167 -41.5 96.5 -41.5h89l53 135v-135h176l50 170h-50v324h-176v-324h-51c-14.667 0 -27 5.66699 -37 17s-15 26.666 -15 45.999v261zM195.001 695.999l-60 -55c21.333 -26 46.333 -46.5 75 -61.5s59 -22.5 91 -22.5
c66 0 123 28 171 84l-62 55c-14 -16.667 -30 -29.167 -48 -37.5s-37.333 -12.5 -58 -12.5c-44 0 -80.333 16.667 -109 50z" />
    <glyph glyph-name="eacute" unicode="&#x439;" horiz-adv-x="608" 
d="M168 543l-54.999 99.998l83 76c18 -21.333 35.5 -36.166 52.5 -44.499s35.5 -12.5 55.5 -12.5c18.667 0 36.334 4.16699 53.001 12.5s33.667 23.166 51 44.499l86 -76l55 -100l-15 -17h13l55 -100v-224l55 -100l-59 -202h-204l-16 26l-10 -26h-100
c-26.667 0 -52.334 7.83301 -77.001 23.5s-43.334 34.834 -56.001 57.501l-62 114c-2 4.66699 -4.66699 12.834 -8 24.501s-5 23.5 -5 35.5v69l-55 100l59 202h118zM323.001 201.998h16v239l-26 4l10 -19v-224zM252.001 509.998l-176 0.000976562l-50 -170h50v-185
c0 -37.333 13.5 -69.833 40.5 -97.5s59.167 -41.5 96.5 -41.5h89l53 135v-135h176l50 170h-50v324h-176v-324h-51c-14.667 0 -27 5.66699 -37 17s-15 26.666 -15 45.999v261zM195.001 695.999l-60 -55c21.333 -26 46.333 -46.5 75 -61.5s59 -22.5 91 -22.5
c66 0 123 28 171 84l-62 55c-14 -16.667 -30 -29.167 -48 -37.5s-37.333 -12.5 -58 -12.5c-44 0 -80.333 16.667 -109 50z" />
    <glyph glyph-name="ecircumflex" unicode="&#xea;" horiz-adv-x="562" 
d="M252 716h-176l-50 -154h50v-546h176v194l89 -194h205l-133 269l113 225h-200l-72 -169zM64 732h204l55 -100v-106h229l55 -100l-121 -241l141 -285h-241l-55 100l-8 18v-118h-208l-55 100v446l-55 100z" />
    <glyph glyph-name="ecircumflex" unicode="&#x43a;" horiz-adv-x="562" 
d="M252 716h-176l-50 -154h50v-546h176v194l89 -194h205l-133 269l113 225h-200l-72 -169zM64 732h204l55 -100v-106h229l55 -100l-121 -241l141 -285h-241l-55 100l-8 18v-118h-208l-55 100v446l-55 100z" />
    <glyph glyph-name="edieresis" unicode="&#xeb;" horiz-adv-x="543" 
d="M398 510h-289l-50 -170h50l-93 -324h194l58 276l67 -276h192zM97 526h313l55 -100l138 -526h-226l-55 100l-12 51l-32 -151h-228l-55 100l76 265l-33 59z" />
    <glyph glyph-name="edieresis" unicode="&#x43b;" horiz-adv-x="543" 
d="M398 510h-289l-50 -170h50l-93 -324h194l58 276l67 -276h192zM97 526h313l55 -100l138 -526h-226l-55 100l-12 51l-32 -151h-228l-55 100l76 265l-33 59z" />
    <glyph glyph-name="igrave" unicode="&#xec;" horiz-adv-x="686" 
d="M267 510h-191l-50 -170h50v-324h176v226l83 -130h16l80 130l2 -226h176l50 170h-50v324h-190l-76 -118zM64 526h212l67 -104l67 104h215l55 -100v-224l55 -100l-59 -202h-204l-55 100l-2 -4h-34l-58 93v-189h-208l-55 100v224l-55 100z" />
    <glyph glyph-name="igrave" unicode="&#x43c;" horiz-adv-x="686" 
d="M267 510h-191l-50 -170h50v-324h176v226l83 -130h16l80 130l2 -226h176l50 170h-50v324h-190l-76 -118zM64 526h212l67 -104l67 104h215l55 -100v-224l55 -100l-59 -202h-204l-55 100l-2 -4h-34l-58 93v-189h-208l-55 100v224l-55 100z" />
    <glyph glyph-name="iacute" unicode="&#xed;" horiz-adv-x="610" 
d="M253 510h-176l-50 -170h50v-324h176v186h104v-186h176l50 170h-50v324h-176v-146h-104v146zM324 426v-46h17v146h208l55 -100v-224l55 -100l-59 -202h-204l-55 100v86h-17v-186h-208l-55 100v224l-55 100l59 202h204z" />
    <glyph glyph-name="iacute" unicode="&#x43d;" horiz-adv-x="610" 
d="M253 510h-176l-50 -170h50v-324h176v186h104v-186h176l50 170h-50v324h-176v-146h-104v146zM324 426v-46h17v146h208l55 -100v-224l55 -100l-59 -202h-204l-55 100v86h-17v-186h-208l-55 100v224l-55 100l59 202h204z" />
    <glyph glyph-name="icircumflex" unicode="&#xee;" horiz-adv-x="597" 
d="M298 185c-20 0 -37 7.66699 -51 23s-21 34 -21 56c0 20.667 7 38.667 21 54s30.667 23 50 23c20.667 0 38.167 -7.5 52.5 -22.5s21.5 -33.167 21.5 -54.5c0 -20.667 -7.33301 -39 -22 -55s-31.667 -24 -51 -24zM298 7c70.667 0 131.332 24.998 181.999 74.998
s76 110.667 76 182c0 70.667 -25.167 130.834 -75.5 180.501s-111.166 74.5 -182.499 74.5s-132 -24.667 -182 -74s-75 -109.666 -75 -180.999s25 -132 75 -182s110.667 -75 182 -75zM352.998 -109.002c-51.333 0 -98.6699 13.3311 -142.003 39.998
s-76.666 62.334 -99.999 107.001l-52 97c-11.333 20.667 -19.833 41.334 -25.5 62.001s-8.5 43 -8.5 67c0 74.667 26.833 138.5 80.5 191.5s117.834 79.5 192.501 79.5c48 0 92.333 -11.5 133 -34.5s73.334 -54.167 98.001 -93.5l63 -112c23.333 -41.333 35 -85 35 -131
c0 -74 -27 -138 -81 -192s-118.333 -81 -193 -81zM277.994 -8.00391l5 -1z" />
    <glyph glyph-name="icircumflex" unicode="&#x43e;" horiz-adv-x="597" 
d="M298 185c-20 0 -37 7.66699 -51 23s-21 34 -21 56c0 20.667 7 38.667 21 54s30.667 23 50 23c20.667 0 38.167 -7.5 52.5 -22.5s21.5 -33.167 21.5 -54.5c0 -20.667 -7.33301 -39 -22 -55s-31.667 -24 -51 -24zM298 7c70.667 0 131.332 24.998 181.999 74.998
s76 110.667 76 182c0 70.667 -25.167 130.834 -75.5 180.501s-111.166 74.5 -182.499 74.5s-132 -24.667 -182 -74s-75 -109.666 -75 -180.999s25 -132 75 -182s110.667 -75 182 -75zM352.998 -109.002c-51.333 0 -98.6699 13.3311 -142.003 39.998
s-76.666 62.334 -99.999 107.001l-52 97c-11.333 20.667 -19.833 41.334 -25.5 62.001s-8.5 43 -8.5 67c0 74.667 26.833 138.5 80.5 191.5s117.834 79.5 192.501 79.5c48 0 92.333 -11.5 133 -34.5s73.334 -54.167 98.001 -93.5l63 -112c23.333 -41.333 35 -85 35 -131
c0 -74 -27 -138 -81 -192s-118.333 -81 -193 -81zM277.994 -8.00391l5 -1z" />
    <glyph glyph-name="idieresis" unicode="&#xef;" horiz-adv-x="608" 
d="M252 510h-176l-50 -170h50v-324h176v324h31c20 0 37 -7.33301 51 -22s21 -32.667 21 -54v-248h176l50 170h-50v154c0 47.333 -17.167 87.5 -51.5 120.5s-75.833 49.5 -124.5 49.5h-51l-52 -130v130zM64 526h204.001l10 -37l15 37h62c36 0 68.667 -8.66699 98 -26
s52.666 -41 69.999 -71l55 -99c16 -27.333 24 -57.333 24 -90v-38l55 -100l-59 -202h-204l-55 100v224h-16v-324h-208l-55 100v224l-55 100z" />
    <glyph glyph-name="idieresis" unicode="&#x43f;" horiz-adv-x="608" 
d="M252 510h-176l-50 -170h50v-324h176v324h31c20 0 37 -7.33301 51 -22s21 -32.667 21 -54v-248h176l50 170h-50v154c0 47.333 -17.167 87.5 -51.5 120.5s-75.833 49.5 -124.5 49.5h-51l-52 -130v130zM64 526h204.001l10 -37l15 37h62c36 0 68.667 -8.66699 98 -26
s52.666 -41 69.999 -71l55 -99c16 -27.333 24 -57.333 24 -90v-38l55 -100l-59 -202h-204l-55 100v224h-16v-324h-208l-55 100v224l-55 100z" />
    <glyph glyph-name="eth" unicode="&#xf0;" horiz-adv-x="628" 
d="M252 510h-176l-50 -170h50v-483h176v185c28.667 -23.333 62.667 -35 102 -35c63.333 0 118 25.167 164 75.5s69 110.5 69 180.5c0 70.667 -21.833 129.5 -65.5 176.5s-98.167 70.5 -163.5 70.5h-54l-52 -130v130zM252 263l0.000976562 77h75
c20.667 0 38.334 -7.33301 53.001 -22s22 -33 22 -55c0 -21.333 -7.33301 -39.666 -22 -54.999s-32.334 -23 -53.001 -23s-38.334 7.66699 -53.001 23s-22 33.666 -22 54.999zM64.001 526h203.999l13 -29l12 29h65c42 0 80.5 -9.83301 115.5 -29.5
s63.833 -47.167 86.5 -82.5l60 -110c25.333 -42 38 -89 38 -141c0 -73.333 -24.667 -137 -74 -191s-107.666 -81 -174.999 -81c-16 0 -33.833 2.5 -53.5 7.5s-30.5 8.5 -32.5 10.5v-168h-208l-55 100v383l-55 100z" />
    <glyph glyph-name="eth" unicode="&#x440;" horiz-adv-x="628" 
d="M252 510h-176l-50 -170h50v-483h176v185c28.667 -23.333 62.667 -35 102 -35c63.333 0 118 25.167 164 75.5s69 110.5 69 180.5c0 70.667 -21.833 129.5 -65.5 176.5s-98.167 70.5 -163.5 70.5h-54l-52 -130v130zM252 263l0.000976562 77h75
c20.667 0 38.334 -7.33301 53.001 -22s22 -33 22 -55c0 -21.333 -7.33301 -39.666 -22 -54.999s-32.334 -23 -53.001 -23s-38.334 7.66699 -53.001 23s-22 33.666 -22 54.999zM64.001 526h203.999l13 -29l12 29h65c42 0 80.5 -9.83301 115.5 -29.5
s63.833 -47.167 86.5 -82.5l60 -110c25.333 -42 38 -89 38 -141c0 -73.333 -24.667 -137 -74 -191s-107.666 -81 -174.999 -81c-16 0 -33.833 2.5 -53.5 7.5s-30.5 8.5 -32.5 10.5v-168h-208l-55 100v383l-55 100z" />
    <glyph glyph-name="ntilde" unicode="&#xf1;" horiz-adv-x="445" 
d="M419 36l-66 161c-19.333 -8 -38 -12 -56 -12c-20 0 -37.167 7.83301 -51.5 23.5s-21.5 34.167 -21.5 55.5c0 20.667 7.33301 38.667 22 54s31.667 23 51 23c10 0 20.167 -1.66699 30.5 -5s18.833 -7.66602 25.5 -12.999l65 165c-34.667 20.667 -75.667 31 -123 31
c-70 0 -129.833 -24.833 -179.5 -74.5s-74.5 -109.834 -74.5 -180.501s24.833 -131.167 74.5 -181.5s109.5 -75.5 179.5 -75.5c16 0 37.333 3.16699 64 9.5s46.667 12.833 60 19.5zM417 118l78 -190c-21.333 -10 -45.833 -18.667 -73.5 -26s-51.5 -11 -71.5 -11
c-46.667 0 -91 11.667 -133 35s-73.667 54.333 -95 93l-68 123c-19.333 35.333 -29 76 -29 122c0 74 26.667 137.667 80 191s116.666 80 189.999 80c22.667 0 46.667 -3.33301 72 -10s49 -16.667 71 -30l55 -100l-78 -198c-12 10 -23.167 17.167 -33.5 21.5
s-20.166 6.5 -29.499 6.5c-20 0 -35.333 -8 -46 -24c7.33301 0 13.5 0.833008 18.5 2.5s17.5 6.5 37.5 14.5z" />
    <glyph glyph-name="ntilde" unicode="&#x441;" horiz-adv-x="445" 
d="M419 36l-66 161c-19.333 -8 -38 -12 -56 -12c-20 0 -37.167 7.83301 -51.5 23.5s-21.5 34.167 -21.5 55.5c0 20.667 7.33301 38.667 22 54s31.667 23 51 23c10 0 20.167 -1.66699 30.5 -5s18.833 -7.66602 25.5 -12.999l65 165c-34.667 20.667 -75.667 31 -123 31
c-70 0 -129.833 -24.833 -179.5 -74.5s-74.5 -109.834 -74.5 -180.501s24.833 -131.167 74.5 -181.5s109.5 -75.5 179.5 -75.5c16 0 37.333 3.16699 64 9.5s46.667 12.833 60 19.5zM417 118l78 -190c-21.333 -10 -45.833 -18.667 -73.5 -26s-51.5 -11 -71.5 -11
c-46.667 0 -91 11.667 -133 35s-73.667 54.333 -95 93l-68 123c-19.333 35.333 -29 76 -29 122c0 74 26.667 137.667 80 191s116.666 80 189.999 80c22.667 0 46.667 -3.33301 72 -10s49 -16.667 71 -30l55 -100l-78 -198c-12 10 -23.167 17.167 -33.5 21.5
s-20.166 6.5 -29.499 6.5c-20 0 -35.333 -8 -46 -24c7.33301 0 13.5 0.833008 18.5 2.5s17.5 6.5 37.5 14.5z" />
    <glyph glyph-name="ograve" unicode="&#xf2;" horiz-adv-x="876" 
d="M252 510h-176.001l-50 -170h50v-324h176v324h26c20 0 37 -7.33301 51 -22s21 -32.667 21 -54v-248h176v324h26c20 0 37 -7.33301 51 -22s21 -32.667 21 -54v-248h176l50 170h-50v154c0 47.333 -17.167 87.5 -51.5 120.5s-75.833 49.5 -124.5 49.5h-59l-42 -105
c-17.333 34 -37.666 59 -60.999 75c-28.667 20 -66 30 -112 30h-46l-52 -130v130zM63.999 526l203.999 0.000976562l13 -30l12 30h57c46.667 0 86.334 -10 119.001 -30c24 -14.667 41.333 -32.334 52 -53.001l33 83h70c34 0 66.167 -9 96.5 -27s53.833 -41.333 70.5 -70
l52 -93c18.667 -29.333 28 -61.333 28 -96v-38l55 -100l-59 -202h-204l-55 100v224h-11v-324h-208l-55 100v224h-11v-324h-208l-55 100v224l-55 100z" />
    <glyph glyph-name="ograve" unicode="&#x442;" horiz-adv-x="876" 
d="M252 510h-176.001l-50 -170h50v-324h176v324h26c20 0 37 -7.33301 51 -22s21 -32.667 21 -54v-248h176v324h26c20 0 37 -7.33301 51 -22s21 -32.667 21 -54v-248h176l50 170h-50v154c0 47.333 -17.167 87.5 -51.5 120.5s-75.833 49.5 -124.5 49.5h-59l-42 -105
c-17.333 34 -37.666 59 -60.999 75c-28.667 20 -66 30 -112 30h-46l-52 -130v130zM63.999 526l203.999 0.000976562l13 -30l12 30h57c46.667 0 86.334 -10 119.001 -30c24 -14.667 41.333 -32.334 52 -53.001l33 83h70c34 0 66.167 -9 96.5 -27s53.833 -41.333 70.5 -70
l52 -93c18.667 -29.333 28 -61.333 28 -96v-38l55 -100l-59 -202h-204l-55 100v224h-11v-324h-208l-55 100v224h-11v-324h-208l-55 100v224l-55 100z" />
    <glyph glyph-name="oacute" unicode="&#xf3;" horiz-adv-x="605" 
d="M253 510l-175.999 -0.00195312l-50 -170h50v-157c0 -37.333 14.667 -68.666 44 -93.999s64.333 -38 105 -38h80l52 130v-130c0 -19.333 -9.33301 -34.166 -28 -44.499s-41.334 -15.5 -68.001 -15.5c-42 0 -94.667 11.667 -158 35l-27 -135
c32 -16 63.667 -27.167 95 -33.5s66 -9.5 104 -9.5c68.667 0 125.667 13.667 171 41c58 35.333 87 89.333 87 162v459h-176v-303h-44c-16 0 -30.167 6.5 -42.5 19.5s-18.5 27.167 -18.5 42.5v241zM65.001 525.998l203.999 0.000976562l55 -100v-203h18v303h208l55 -100v-475
c0 -77.333 -31.333 -135.333 -94 -174c-48.667 -30 -108.667 -45 -180 -45c-38.667 0 -74.667 3.5 -108 10.5s-69.666 20.167 -108.999 39.5l-55 100l34 169l31 -12l-48 83c-10 17.333 -15 37.666 -15 60.999v40l-55 101z" />
    <glyph glyph-name="oacute" unicode="&#x443;" horiz-adv-x="605" 
d="M253 510l-175.999 -0.00195312l-50 -170h50v-157c0 -37.333 14.667 -68.666 44 -93.999s64.333 -38 105 -38h80l52 130v-130c0 -19.333 -9.33301 -34.166 -28 -44.499s-41.334 -15.5 -68.001 -15.5c-42 0 -94.667 11.667 -158 35l-27 -135
c32 -16 63.667 -27.167 95 -33.5s66 -9.5 104 -9.5c68.667 0 125.667 13.667 171 41c58 35.333 87 89.333 87 162v459h-176v-303h-44c-16 0 -30.167 6.5 -42.5 19.5s-18.5 27.167 -18.5 42.5v241zM65.001 525.998l203.999 0.000976562l55 -100v-203h18v303h208l55 -100v-475
c0 -77.333 -31.333 -135.333 -94 -174c-48.667 -30 -108.667 -45 -180 -45c-38.667 0 -74.667 3.5 -108 10.5s-69.666 20.167 -108.999 39.5l-55 100l34 169l31 -12l-48 83c-10 17.333 -15 37.666 -15 60.999v40l-55 101z" />
    <glyph glyph-name="ocircumflex" unicode="&#xf4;" horiz-adv-x="926" 
d="M551 716l-175.998 -0.000976562l-50 -154h50v-79c-28.667 24 -62.334 36 -101.001 36c-64.667 0 -119.667 -24.667 -165 -74s-68 -109.666 -68 -180.999c0 -70 22.167 -128.833 66.5 -176.5s99.166 -71.5 164.499 -71.5h55l48 114v-273h176v185
c27.333 -23.333 61 -35 101 -35c64.667 0 119.667 25 165 75s68 110.333 68 181c0 70 -22 128.667 -66 176s-98 71 -162 71h-55l-51 -130v336zM375.002 263.999v-77.999h-74c-20.667 0 -38.334 7.66699 -53.001 23s-22 33.666 -22 54.999s7.33301 39.333 22 54
s32.334 22 53.001 22c20 0 37.333 -7.33301 52 -22s22 -32.667 22 -54zM551.002 263l0.000976562 77h73c20.667 0 38.5 -7.5 53.5 -22.5s22.5 -33.167 22.5 -54.5c0 -20.667 -7.33301 -38.667 -22 -54s-32.334 -23 -53.001 -23s-38.167 7.5 -52.5 22.5
s-21.5 33.167 -21.5 54.5zM314.003 530l-12.001 16l61 186h204l55 -100v-106h35c44.667 0 86 -12.5 124 -37.5s68.333 -58.5 91 -100.5l44 -81c10.667 -19.333 20 -43 28 -71s12 -52.333 12 -73c0 -74 -24.5 -137.833 -73.5 -191.5s-107.5 -80.5 -175.5 -80.5
c-18 0 -36 2.16699 -54 6.5s-28.333 7.83301 -31 10.5v-167h-208l-55 100v59h-32c-43.333 0 -83.5 10.333 -120.5 31s-65.5 49.667 -85.5 87l-73 134c-15.333 34.667 -23 72 -23 112c0 74 24.333 137.667 73 191s107.334 80 176.001 80h11.5
c3.66699 0 13.167 -1.66699 28.5 -5z" />
    <glyph glyph-name="ocircumflex" unicode="&#x444;" horiz-adv-x="926" 
d="M551 716l-175.998 -0.000976562l-50 -154h50v-79c-28.667 24 -62.334 36 -101.001 36c-64.667 0 -119.667 -24.667 -165 -74s-68 -109.666 -68 -180.999c0 -70 22.167 -128.833 66.5 -176.5s99.166 -71.5 164.499 -71.5h55l48 114v-273h176v185
c27.333 -23.333 61 -35 101 -35c64.667 0 119.667 25 165 75s68 110.333 68 181c0 70 -22 128.667 -66 176s-98 71 -162 71h-55l-51 -130v336zM375.002 263.999v-77.999h-74c-20.667 0 -38.334 7.66699 -53.001 23s-22 33.666 -22 54.999s7.33301 39.333 22 54
s32.334 22 53.001 22c20 0 37.333 -7.33301 52 -22s22 -32.667 22 -54zM551.002 263l0.000976562 77h73c20.667 0 38.5 -7.5 53.5 -22.5s22.5 -33.167 22.5 -54.5c0 -20.667 -7.33301 -38.667 -22 -54s-32.334 -23 -53.001 -23s-38.167 7.5 -52.5 22.5
s-21.5 33.167 -21.5 54.5zM314.003 530l-12.001 16l61 186h204l55 -100v-106h35c44.667 0 86 -12.5 124 -37.5s68.333 -58.5 91 -100.5l44 -81c10.667 -19.333 20 -43 28 -71s12 -52.333 12 -73c0 -74 -24.5 -137.833 -73.5 -191.5s-107.5 -80.5 -175.5 -80.5
c-18 0 -36 2.16699 -54 6.5s-28.333 7.83301 -31 10.5v-167h-208l-55 100v59h-32c-43.333 0 -83.5 10.333 -120.5 31s-65.5 49.667 -85.5 87l-73 134c-15.333 34.667 -23 72 -23 112c0 74 24.333 137.667 73 191s107.334 80 176.001 80h11.5
c3.66699 0 13.167 -1.66699 28.5 -5z" />
    <glyph glyph-name="otilde" unicode="&#xf5;" horiz-adv-x="586" 
d="M236 510h-206l134 -233l-148 -261h206l70 134l72 -134h206l-148 261l134 233h-206l-56 -118zM639 426l-143 -248l101 -178l55 -100h-243l-55 100l-7 14l-60 -114h-243l-55 100l156 275l-143 251h244l47 -99l47 99h244z" />
    <glyph glyph-name="otilde" unicode="&#x445;" horiz-adv-x="586" 
d="M236 510h-206l134 -233l-148 -261h206l70 134l72 -134h206l-148 261l134 233h-206l-56 -118zM639 426l-143 -248l101 -178l55 -100h-243l-55 100l-7 14l-60 -114h-243l-55 100l156 275l-143 251h244l47 -99l47 99h244z" />
    <glyph glyph-name="odieresis" unicode="&#xf6;" horiz-adv-x="653" 
d="M252 510l-176 -0.000976562l-50 -170h50v-184c0 -37.333 13.667 -70 41 -98s59.333 -42 96 -42h91l52 130v-130h139l-31 -159h99l74 329h-105v324h-176v-324h-51c-14.667 0 -27.167 5.83301 -37.5 17.5s-15.5 26.834 -15.5 45.501v261zM500 -259.001l-55 100l12 59h-62
l-17 21l-8 -21h-102c-26.667 0 -51.667 7 -75 21s-41.333 32.667 -54 56l-57 103c-6.66699 12 -12 24.5 -16 37.5s-6 25.833 -6 38.5v68l-55 100l59 202h204l55 -100v-224h17v324h208l55 -100v-224h54l55 -100l-81 -361h-131z" />
    <glyph glyph-name="odieresis" unicode="&#x446;" horiz-adv-x="653" 
d="M252 510l-176 -0.000976562l-50 -170h50v-184c0 -37.333 13.667 -70 41 -98s59.333 -42 96 -42h91l52 130v-130h139l-31 -159h99l74 329h-105v324h-176v-324h-51c-14.667 0 -27.167 5.83301 -37.5 17.5s-15.5 26.834 -15.5 45.501v261zM500 -259.001l-55 100l12 59h-62
l-17 21l-8 -21h-102c-26.667 0 -51.667 7 -75 21s-41.333 32.667 -54 56l-57 103c-6.66699 12 -12 24.5 -16 37.5s-6 25.833 -6 38.5v68l-55 100l59 202h204l55 -100v-224h17v324h208l55 -100v-224h54l55 -100l-81 -361h-131z" />
    <glyph glyph-name="divide" unicode="&#xf7;" horiz-adv-x="608" 
d="M252 510h-176l-50 -170h50v-38c0 -40 14.667 -73.667 44 -101c27.333 -25.333 58.333 -38 93 -38h90l52 130v-277h176l50 170h-50v324h-176v-177h-51c-15.333 0 -27.833 5.5 -37.5 16.5s-14.5 26.5 -14.5 46.5v114zM60 224l-55 100l59 202h204l55 -100v-77h16v177h208
l55 -100v-324v100l55 -100l-59 -202h-204l-55 100v47h-71c-27.333 0 -53.5 8.5 -78.5 25.5s-44.167 37.833 -57.5 62.5l-49 89h-23z" />
    <glyph glyph-name="divide" unicode="&#x447;" horiz-adv-x="608" 
d="M252 510h-176l-50 -170h50v-38c0 -40 14.667 -73.667 44 -101c27.333 -25.333 58.333 -38 93 -38h90l52 130v-277h176l50 170h-50v324h-176v-177h-51c-15.333 0 -27.833 5.5 -37.5 16.5s-14.5 26.5 -14.5 46.5v114zM60 224l-55 100l59 202h204l55 -100v-77h16v177h208
l55 -100v-324v100l55 -100l-59 -202h-204l-55 100v47h-71c-27.333 0 -53.5 8.5 -78.5 25.5s-44.167 37.833 -57.5 62.5l-49 89h-23z" />
    <glyph glyph-name="oslash" unicode="&#xf8;" horiz-adv-x="876" 
d="M800 510l-176.001 -0.000976562v-324h-26c-20 0 -37 7.33301 -51 22s-21 33 -21 55v247h-176v-324h-26c-20 0 -37 7.33301 -51 22s-21 33 -21 55v247h-176l-50 -170h50v-153c0 -47.333 17 -87.666 51 -120.999s75.667 -50 125 -50h52l46 116
c9.33301 -32 28.333 -58.667 57 -80c32.667 -24 72.334 -36 119.001 -36h46l52 130v-130h176l50 170h-50v324zM596.999 201.999l11 -0.00195312v324h208l55 -100v-224l55 -100l-59 -202h-204l-17 21l-8 -21h-57c-46 0 -88 11.333 -126 34c-30.667 18.667 -48 35 -52 49
l-33 -83h-63c-31.333 0 -63.5 9.66699 -96.5 29s-57.167 43 -72.5 71l-56 102c-5.33301 10.667 -10.333 24.834 -15 42.501s-7 31.834 -7 42.501v37l-55 100l59 202h204l55 -100v-224h11v324h208l55 -100v-224z" />
    <glyph glyph-name="oslash" unicode="&#x448;" horiz-adv-x="876" 
d="M800 510l-176.001 -0.000976562v-324h-26c-20 0 -37 7.33301 -51 22s-21 33 -21 55v247h-176v-324h-26c-20 0 -37 7.33301 -51 22s-21 33 -21 55v247h-176l-50 -170h50v-153c0 -47.333 17 -87.666 51 -120.999s75.667 -50 125 -50h52l46 116
c9.33301 -32 28.333 -58.667 57 -80c32.667 -24 72.334 -36 119.001 -36h46l52 130v-130h176l50 170h-50v324zM596.999 201.999l11 -0.00195312v324h208l55 -100v-224l55 -100l-59 -202h-204l-17 21l-8 -21h-57c-46 0 -88 11.333 -126 34c-30.667 18.667 -48 35 -52 49
l-33 -83h-63c-31.333 0 -63.5 9.66699 -96.5 29s-57.167 43 -72.5 71l-56 102c-5.33301 10.667 -10.333 24.834 -15 42.501s-7 31.834 -7 42.501v37l-55 100l59 202h204l55 -100v-224h11v324h208l55 -100v-224z" />
    <glyph glyph-name="ugrave" unicode="&#xf9;" horiz-adv-x="921" 
d="M800 510h-176v-324h-26c-20 0 -37 7.33301 -51 22s-21 33 -21 55v247h-176v-324h-26c-20 0 -37 7.33301 -51 22s-21 33 -21 55v247h-176l-50 -170h50v-153c0 -47.333 17 -87.666 51 -120.999s75.667 -50 125 -50h52l46 116c10 -32.667 29.333 -59.334 58 -80.001
c32.667 -24 72 -36 118 -36h46l52 130v-130h139l-30 -159h97l75 329h-105v324zM597 202h11.001v324h208l55 -100v-224h54l55 -100l-82 -361h-129l-55 100l11 59h-62l-17 21l-8 -21h-57c-46 0 -86.333 11 -121 33c-28 18 -46.333 38 -55 60l-35 -93h-63
c-36 0 -69.333 9.5 -100 28.5s-54.334 44.167 -71.001 75.5l-55 100c-14 26 -21 53.667 -21 83v37l-55 100l59 202h204l55 -100v-224h11v324h208l55 -100v-224z" />
    <glyph glyph-name="ugrave" unicode="&#x449;" horiz-adv-x="921" 
d="M800 510h-176v-324h-26c-20 0 -37 7.33301 -51 22s-21 33 -21 55v247h-176v-324h-26c-20 0 -37 7.33301 -51 22s-21 33 -21 55v247h-176l-50 -170h50v-153c0 -47.333 17 -87.666 51 -120.999s75.667 -50 125 -50h52l46 116c10 -32.667 29.333 -59.334 58 -80.001
c32.667 -24 72 -36 118 -36h46l52 130v-130h139l-30 -159h97l75 329h-105v324zM597 202h11.001v324h208l55 -100v-224h54l55 -100l-82 -361h-129l-55 100l11 59h-62l-17 21l-8 -21h-57c-46 0 -86.333 11 -121 33c-28 18 -46.333 38 -55 60l-35 -93h-63
c-36 0 -69.333 9.5 -100 28.5s-54.334 44.167 -71.001 75.5l-55 100c-14 26 -21 53.667 -21 83v37l-55 100l59 202h204l55 -100v-224h11v324h208l55 -100v-224z" />
    <glyph glyph-name="uacute" unicode="&#xfa;" horiz-adv-x="690" 
d="M138 562v-546h176v32c14.667 -12 31 -21.833 49 -29.5s35.667 -11.5 53 -11.5c63.333 0 118 25.167 164 75.5s69 110.5 69 180.5c0 69.333 -22.167 127.833 -66.5 175.5s-98.5 71.5 -162.5 71.5h-54l-52 -130v336h-247l-51 -154h122zM314 263l-0.000976562 76.999h75
c20.667 0 38.334 -7.33301 53.001 -22s22 -33 22 -55c0 -21.333 -7 -39.666 -21 -54.999s-31.667 -23 -53 -23c-20.667 0 -38.5 7.5 -53.5 22.5s-22.5 33.5 -22.5 55.5zM121.999 -0.000976562l-0.000976562 445.999h-73l-55 100l61 186h275l55 -100v-106h35
c43.333 0 83 -10.167 119 -30.5s64.333 -49.166 85 -86.499l63 -114c22 -39.333 33 -83.333 33 -132c0 -73.333 -24.667 -137 -74 -191s-107.666 -81 -174.999 -81c-19.333 0 -40.333 4.66699 -63 14c-12 6 -19.667 9.66699 -23 11v-16h-208z" />
    <glyph glyph-name="uacute" unicode="&#x44a;" horiz-adv-x="690" 
d="M138 562v-546h176v32c14.667 -12 31 -21.833 49 -29.5s35.667 -11.5 53 -11.5c63.333 0 118 25.167 164 75.5s69 110.5 69 180.5c0 69.333 -22.167 127.833 -66.5 175.5s-98.5 71.5 -162.5 71.5h-54l-52 -130v336h-247l-51 -154h122zM314 263l-0.000976562 76.999h75
c20.667 0 38.334 -7.33301 53.001 -22s22 -33 22 -55c0 -21.333 -7 -39.666 -21 -54.999s-31.667 -23 -53 -23c-20.667 0 -38.5 7.5 -53.5 22.5s-22.5 33.5 -22.5 55.5zM121.999 -0.000976562l-0.000976562 445.999h-73l-55 100l61 186h275l55 -100v-106h35
c43.333 0 83 -10.167 119 -30.5s64.333 -49.166 85 -86.499l63 -114c22 -39.333 33 -83.333 33 -132c0 -73.333 -24.667 -137 -74 -191s-107.666 -81 -174.999 -81c-19.333 0 -40.333 4.66699 -63 14c-12 6 -19.667 9.66699 -23 11v-16h-208z" />
    <glyph glyph-name="ucircumflex" unicode="&#xfb;" horiz-adv-x="928" 
d="M76 562v-546h176v30c14 -12 30 -21.5 48 -28.5s35.667 -10.5 53 -10.5c63.333 0 118 25.167 164 75.5s69 110.5 69 180.5s-22 128.667 -66 176s-98.333 71 -163 71h-54l-51 -130v336h-176l-50 -154h50zM252 263l-0.000976562 77h74c20.667 0 38.334 -7.33301 53.001 -22
s22 -33 22 -55c0 -21.333 -7.16699 -39.5 -21.5 -54.5s-31.833 -22.5 -52.5 -22.5c-20 0 -37.5 7.5 -52.5 22.5s-22.5 33.167 -22.5 54.5zM59.999 0l-0.00195312 446l-55 100l59 186h204l55 -100v-106h34c29.333 0 61.333 -7.66699 96 -23c50 -22 87.333 -54.667 112 -98
l30 -53l53 174h204l55 -100v-224l55 -100l-59 -202h-204l-55 100v77c-17.333 -54 -47.666 -98.5 -90.999 -133.5s-91.666 -52.5 -144.999 -52.5c-17.333 0 -34 2.66699 -50 8s-27.667 11 -35 17v-16h-208zM835.997 510h-176l-50 -170h50v-324h176l50 170h-50v324z" />
    <glyph glyph-name="ucircumflex" unicode="&#x44b;" horiz-adv-x="928" 
d="M76 562v-546h176v30c14 -12 30 -21.5 48 -28.5s35.667 -10.5 53 -10.5c63.333 0 118 25.167 164 75.5s69 110.5 69 180.5s-22 128.667 -66 176s-98.333 71 -163 71h-54l-51 -130v336h-176l-50 -154h50zM252 263l-0.000976562 77h74c20.667 0 38.334 -7.33301 53.001 -22
s22 -33 22 -55c0 -21.333 -7.16699 -39.5 -21.5 -54.5s-31.833 -22.5 -52.5 -22.5c-20 0 -37.5 7.5 -52.5 22.5s-22.5 33.167 -22.5 54.5zM59.999 0l-0.00195312 446l-55 100l59 186h204l55 -100v-106h34c29.333 0 61.333 -7.66699 96 -23c50 -22 87.333 -54.667 112 -98
l30 -53l53 174h204l55 -100v-224l55 -100l-59 -202h-204l-55 100v77c-17.333 -54 -47.666 -98.5 -90.999 -133.5s-91.666 -52.5 -144.999 -52.5c-17.333 0 -34 2.66699 -50 8s-27.667 11 -35 17v-16h-208zM835.997 510h-176l-50 -170h50v-324h176l50 170h-50v324z" />
    <glyph glyph-name="udieresis" unicode="&#xfc;" horiz-adv-x="628" 
d="M76 562v-546h176v32c14.667 -12 31 -21.833 49 -29.5s35.667 -11.5 53 -11.5c63.333 0 118 25.167 164 75.5s69 110.5 69 180.5s-22 128.667 -66 176s-98.333 71 -163 71h-54l-52 -130v336h-176l-50 -154h50zM252 263l-0.000976562 77h75
c20.667 0 38.334 -7.33301 53.001 -22s22 -33 22 -55c0 -21.333 -7 -39.666 -21 -54.999s-31.667 -23 -53 -23c-20 0 -37.667 7.66699 -53 23s-23 33.666 -23 54.999zM59.999 0l-0.00195312 446l-55 100l59 186h204l55 -100v-106h35c45.333 0 86.833 -12 124.5 -36
s68.167 -57.667 91.5 -101l48 -89c11.333 -20.667 20.166 -42.667 26.499 -66s9.5 -47 9.5 -71c0 -73.333 -24.667 -137 -74 -191s-107.666 -81 -174.999 -81c-13.333 0 -27.666 2.16699 -42.999 6.5s-29.666 10.5 -42.999 18.5v-16h-208z" />
    <glyph glyph-name="udieresis" unicode="&#x44c;" horiz-adv-x="628" 
d="M76 562v-546h176v32c14.667 -12 31 -21.833 49 -29.5s35.667 -11.5 53 -11.5c63.333 0 118 25.167 164 75.5s69 110.5 69 180.5s-22 128.667 -66 176s-98.333 71 -163 71h-54l-52 -130v336h-176l-50 -154h50zM252 263l-0.000976562 77h75
c20.667 0 38.334 -7.33301 53.001 -22s22 -33 22 -55c0 -21.333 -7 -39.666 -21 -54.999s-31.667 -23 -53 -23c-20 0 -37.667 7.66699 -53 23s-23 33.666 -23 54.999zM59.999 0l-0.00195312 446l-55 100l59 186h204l55 -100v-106h35c45.333 0 86.833 -12 124.5 -36
s68.167 -57.667 91.5 -101l48 -89c11.333 -20.667 20.166 -42.667 26.499 -66s9.5 -47 9.5 -71c0 -73.333 -24.667 -137 -74 -191s-107.666 -81 -174.999 -81c-13.333 0 -27.666 2.16699 -42.999 6.5s-29.666 10.5 -42.999 18.5v-16h-208z" />
    <glyph glyph-name="yacute" unicode="&#xfd;" horiz-adv-x="446" 
d="M26 36c13.333 -6.66699 33 -13.167 59 -19.5s47.667 -9.5 65 -9.5c70 0 129.833 25.167 179.5 75.5s74.5 110.833 74.5 181.5s-24.833 130.834 -74.5 180.501s-109.5 74.5 -179.5 74.5c-22 0 -44 -2.83301 -66 -8.5s-41 -13.167 -57 -22.5l58 -148
c10 4 20.333 7.33301 31 10s22 4 34 4c16 0 29.333 -3.5 40 -10.5s21.667 -20.167 33 -39.5h-128v-81h129c-8.66699 -16 -18.5 -28 -29.5 -36s-26.167 -12 -45.5 -12c-12.667 0 -24 1.16699 -34 3.5s-19 5.16602 -27 8.49902zM5 28l73.999 179v113l-72 175
c21.333 12.667 44.666 22.5 69.999 29.5s49.666 10.5 72.999 10.5c50.667 0 97.334 -13.5 140.001 -40.5s76 -62.833 100 -107.5l66 -123c6 -11.333 10.667 -25.833 14 -43.5s5 -36.5 5 -56.5c0 -74 -26.667 -138 -80 -192s-116.666 -81 -189.999 -81
c-18.667 0 -42.167 3.66699 -70.5 11s-53.166 16 -74.499 26z" />
    <glyph glyph-name="yacute" unicode="&#x44d;" horiz-adv-x="446" 
d="M26 36c13.333 -6.66699 33 -13.167 59 -19.5s47.667 -9.5 65 -9.5c70 0 129.833 25.167 179.5 75.5s74.5 110.833 74.5 181.5s-24.833 130.834 -74.5 180.501s-109.5 74.5 -179.5 74.5c-22 0 -44 -2.83301 -66 -8.5s-41 -13.167 -57 -22.5l58 -148
c10 4 20.333 7.33301 31 10s22 4 34 4c16 0 29.333 -3.5 40 -10.5s21.667 -20.167 33 -39.5h-128v-81h129c-8.66699 -16 -18.5 -28 -29.5 -36s-26.167 -12 -45.5 -12c-12.667 0 -24 1.16699 -34 3.5s-19 5.16602 -27 8.49902zM5 28l73.999 179v113l-72 175
c21.333 12.667 44.666 22.5 69.999 29.5s49.666 10.5 72.999 10.5c50.667 0 97.334 -13.5 140.001 -40.5s76 -62.833 100 -107.5l66 -123c6 -11.333 10.667 -25.833 14 -43.5s5 -36.5 5 -56.5c0 -74 -26.667 -138 -80 -192s-116.666 -81 -189.999 -81
c-18.667 0 -42.167 3.66699 -70.5 11s-53.166 16 -74.499 26z" />
    <glyph glyph-name="thorn" unicode="&#xfe;" horiz-adv-x="833" 
d="M76 340v-324.001h176v185h38c16.667 -58.667 45.667 -105 87 -139c44 -36.667 97 -55 159 -55c71.333 0 131.833 24.5 181.5 73.5s74.5 110.167 74.5 183.5c0 70.667 -24.5 130.834 -73.5 180.501s-109.833 74.5 -182.5 74.5c-60 0 -112.667 -15.833 -158 -47.5
s-74 -75.5 -86 -131.5h-40v170h-176l-50 -170h50zM535 184.999c-19.333 0 -36 7.66699 -50 23s-21 34 -21 56c0 21.333 7 39.333 21 54s31 22 51 22c19.333 0 36.333 -7.33301 51 -22s22 -32.667 22 -54s-7.5 -39.833 -22.5 -55.5s-32.167 -23.5 -51.5 -23.5zM268 525.999
l48.998 -88.999c24 30.667 55.333 54.667 94 72s80.334 26 125.001 26c50 0 95.833 -11.833 137.5 -35.5s73.167 -54.834 94.5 -93.501l66 -120c10 -17.333 17.333 -36.5 22 -57.5s7 -42.5 7 -64.5c0 -76 -26.833 -140.5 -80.5 -193.5s-117.5 -79.5 -191.5 -79.5
c-50.667 0 -96.167 12.167 -136.5 36.5s-72.166 56.5 -95.499 96.5l-36 61v-185h-208l-55 100v224l-55 100l59 202h204z" />
    <glyph glyph-name="thorn" unicode="&#x44e;" horiz-adv-x="833" 
d="M76 340v-324.001h176v185h38c16.667 -58.667 45.667 -105 87 -139c44 -36.667 97 -55 159 -55c71.333 0 131.833 24.5 181.5 73.5s74.5 110.167 74.5 183.5c0 70.667 -24.5 130.834 -73.5 180.501s-109.833 74.5 -182.5 74.5c-60 0 -112.667 -15.833 -158 -47.5
s-74 -75.5 -86 -131.5h-40v170h-176l-50 -170h50zM535 184.999c-19.333 0 -36 7.66699 -50 23s-21 34 -21 56c0 21.333 7 39.333 21 54s31 22 51 22c19.333 0 36.333 -7.33301 51 -22s22 -32.667 22 -54s-7.5 -39.833 -22.5 -55.5s-32.167 -23.5 -51.5 -23.5zM268 525.999
l48.998 -88.999c24 30.667 55.333 54.667 94 72s80.334 26 125.001 26c50 0 95.833 -11.833 137.5 -35.5s73.167 -54.834 94.5 -93.501l66 -120c10 -17.333 17.333 -36.5 22 -57.5s7 -42.5 7 -64.5c0 -76 -26.833 -140.5 -80.5 -193.5s-117.5 -79.5 -191.5 -79.5
c-50.667 0 -96.167 12.167 -136.5 36.5s-72.166 56.5 -95.499 96.5l-36 61v-185h-208l-55 100v224l-55 100l59 202h204z" />
    <glyph glyph-name="ydieresis" unicode="&#xff;" horiz-adv-x="587" 
d="M516 16v493.999h-301c-47.333 0 -86.833 -17.167 -118.5 -51.5s-47.5 -74.166 -47.5 -119.499c0 -32 7 -61.167 21 -87.5s35 -45.5 63 -57.5l-97 -178h205l93 163h6v-163h176zM340 359.999v-73h-58c-10 0 -18.333 3.33301 -25 10s-10 15.667 -10 27
c0 10 3.5 18.5 10.5 25.5s16.167 10.5 27.5 10.5h55zM587 425.999v-526h-208l-36 66l-38 -66h-241l-55 100l90 165l-44 80c-14.667 26.667 -22 58 -22 94c0 48 17.5 91.167 52.5 129.5s78.167 57.5 129.5 57.5h317z" />
    <glyph glyph-name="ydieresis" unicode="&#x44f;" horiz-adv-x="587" 
d="M516 16v493.999h-301c-47.333 0 -86.833 -17.167 -118.5 -51.5s-47.5 -74.166 -47.5 -119.499c0 -32 7 -61.167 21 -87.5s35 -45.5 63 -57.5l-97 -178h205l93 163h6v-163h176zM340 359.999v-73h-58c-10 0 -18.333 3.33301 -25 10s-10 15.667 -10 27
c0 10 3.5 18.5 10.5 25.5s16.167 10.5 27.5 10.5h55zM587 425.999v-526h-208l-36 66l-38 -66h-241l-55 100l90 165l-44 80c-14.667 26.667 -22 58 -22 94c0 48 17.5 91.167 52.5 129.5s78.167 57.5 129.5 57.5h317z" />
    <glyph glyph-name="florin" unicode="&#x192;" horiz-adv-x="459" 
d="M87 334h59.001l-58 -274c-2 -8.66699 -7.16699 -18.167 -15.5 -28.5s-15.833 -15.5 -22.5 -15.5h-52l-42 -168h117c40 0 76.833 12.5 110.5 37.5s54.834 57.167 63.501 96.5l75 352h45l42 176h-49c3.33301 15.333 9.66602 27.833 18.999 37.5s19.666 14.5 30.999 14.5h4
l44 154h-85c-40.667 0 -77.5 -11 -110.5 -33s-53.5 -52 -61.5 -90l-17 -83h-65zM109.001 239l-40.999 79l38 208h65l14 70c9.33301 41.333 32.166 74.333 68.499 99s76.166 37 119.499 37h106l55 -100l-53 -186h-8l11 -20l-49 -208h-45l-72 -339
c-9.33301 -42 -32.666 -77 -69.999 -105s-77.333 -42 -120 -42h-137l-55 100l50 200h64c3.33301 0 7.5 3.5 12.5 10.5s8.16699 13.833 9.5 20.5z" />
    <glyph glyph-name="florin" unicode="&#x453;" horiz-adv-x="459" 
d="M87 334h59.001l-58 -274c-2 -8.66699 -7.16699 -18.167 -15.5 -28.5s-15.833 -15.5 -22.5 -15.5h-52l-42 -168h117c40 0 76.833 12.5 110.5 37.5s54.834 57.167 63.501 96.5l75 352h45l42 176h-49c3.33301 15.333 9.66602 27.833 18.999 37.5s19.666 14.5 30.999 14.5h4
l44 154h-85c-40.667 0 -77.5 -11 -110.5 -33s-53.5 -52 -61.5 -90l-17 -83h-65zM109.001 239l-40.999 79l38 208h65l14 70c9.33301 41.333 32.166 74.333 68.499 99s76.166 37 119.499 37h106l55 -100l-53 -186h-8l11 -20l-49 -208h-45l-72 -339
c-9.33301 -42 -32.666 -77 -69.999 -105s-77.333 -42 -120 -42h-137l-55 100l50 200h64c3.33301 0 7.5 3.5 12.5 10.5s8.16699 13.833 9.5 20.5z" />
    <glyph glyph-name="endash" unicode="&#x2013;" horiz-adv-x="522" 
d="M486 340h-450v-108h450v108zM75 116l-55 100v140h482l55 -100v-140h-482z" />
    <glyph glyph-name="emdash" unicode="&#x2014;" horiz-adv-x="783" 
d="M747 340h-711v-108h711v108zM75 116l-55 100v140h743l55 -100v-140h-743z" />
    <glyph glyph-name="quoteleft" unicode="&#x2018;" horiz-adv-x="304" 
d="M182 641c3.33301 14.667 7.5 27.5 12.5 38.5s12.833 23.167 23.5 36.5c-43.333 0 -82.833 -17.5 -118.5 -52.5s-53.5 -75.5 -53.5 -121.5c0 -29.333 10.167 -54.5 30.5 -75.5s45.833 -31.5 76.5 -31.5c30 0 55 10.333 75 31s30 46 30 76
c0 27.333 -7.16699 49.333 -21.5 66s-32.5 27.667 -54.5 33zM268 581l37.001 -64.001c8 -13.333 14 -25.5 18 -36.5s6 -23.833 6 -38.5c0 -33.333 -11.833 -62.166 -35.5 -86.499s-52.167 -36.5 -85.5 -36.5c-46.667 0 -79.334 16.667 -98.001 50l-61 109
c-12.667 20 -19 41.333 -19 64c0 54 18.667 98.333 56 133c40.667 38 95.667 57 165 57l55 -100c-3.33301 -4 -11 -14 -23 -30c-8 -10.667 -13 -17.667 -15 -21z" />
    <glyph glyph-name="quoteright" unicode="&#x2019;" horiz-adv-x="304" 
d="M122 510c-3.33301 -14.667 -7.5 -27.501 -12.5 -38.501s-12.833 -23.167 -23.5 -36.5c43.333 0 82.833 17.5 118.5 52.5s53.5 75.5 53.5 121.5c0 29.333 -10.167 54.5 -30.5 75.5s-45.833 31.5 -76.5 31.5c-30 0 -55 -10.333 -75 -31s-30 -46 -30 -76
c0 -27.333 7.66699 -50 23 -68c13.333 -15.333 31 -25.666 53 -30.999zM108 318.999l-55 100c3.33301 4 11 14 23 30c8 10.667 13 17.667 15 21l-45 77c-10.667 18.667 -16 39.334 -16 62.001c0 33.333 11.833 62.166 35.5 86.499s52.167 36.5 85.5 36.5
c26 0 49.667 -8.33301 71 -25c18.667 -14.667 34.667 -34.334 48 -59.001l45 -84c9.33301 -17.333 14 -35.666 14 -54.999c0 -54 -18.667 -98.333 -56 -133c-40.667 -38 -95.667 -57 -165 -57z" />
    <glyph glyph-name="quotesinglbase" unicode="&#x201a;" horiz-adv-x="344" 
d="M142 16c-3.33301 -14.667 -7.5 -27.501 -12.5 -38.501s-12.833 -23.167 -23.5 -36.5c43.333 0 82.833 17.5 118.5 52.5s53.5 75.5 53.5 121.5c0 29.333 -10.167 54.5 -30.5 75.5s-45.833 31.5 -76.5 31.5c-30 0 -55 -10.333 -75 -31s-30 -46 -30 -76
c0 -27.333 7.66699 -50 23 -68c13.333 -15.333 31 -25.666 53 -30.999zM128 -175.001l-55 100c3.33301 4 11 14 23 30c8 10.667 13 17.667 15 21l-45 77c-10.667 18.667 -16 39.334 -16 62.001c0 33.333 11.833 62.166 35.5 86.499s52.167 36.5 85.5 36.5
c26 0 49.667 -8.33301 71 -25c18.667 -14.667 34.667 -34.334 48 -59.001l45 -84c9.33301 -17.333 14 -35.666 14 -54.999c0 -54 -18.667 -98.333 -56 -133c-40.667 -38 -95.667 -57 -165 -57z" />
    <glyph glyph-name="quotedblleft" unicode="&#x201c;" horiz-adv-x="564" 
d="M182 641c3.33301 14.667 7.5 27.5 12.5 38.5s12.833 23.167 23.5 36.5c-43.333 0 -82.833 -17.5 -118.5 -52.5s-53.5 -75.5 -53.5 -121.5c0 -29.333 10.167 -54.5 30.5 -75.5s45.833 -31.5 76.5 -31.5c30 0 55 10.333 75 31s30 46 30 76
c0 27.333 -7.16699 49.333 -21.5 66s-32.5 27.667 -54.5 33zM528 581l37.002 -64.002c8 -13.333 14 -25.5 18 -36.5s6 -23.833 6 -38.5c0 -33.333 -11.833 -62.166 -35.5 -86.499s-52.167 -36.5 -85.5 -36.5c-46.667 0 -79.334 16.667 -98.001 50l-41 73
c0 -33.333 -11.833 -62.166 -35.5 -86.499s-52.167 -36.5 -85.5 -36.5c-46.667 0 -79.334 16.667 -98.001 50l-61 109c-12.667 20 -19 41.333 -19 64c0 54 18.667 98.333 56 133c40.667 38 95.667 57 165 57l55 -100c-3.33301 -4 -11 -14 -23 -30
c-8 -10.667 -13 -17.667 -15 -21l22 -38c0 54 18.667 98.333 56 133c40 37.333 95 56 165 56l55 -100c-3.33301 -4 -11 -14 -23 -30c-8 -10.667 -13 -17.667 -15 -21zM442.002 640.998c3.33301 14.667 7.5 27.5 12.5 38.5s12.833 23.167 23.5 36.5
c-43.333 0 -82.833 -17.5 -118.5 -52.5s-53.5 -75.5 -53.5 -121.5c0 -29.333 10.167 -54.5 30.5 -75.5s45.833 -31.5 76.5 -31.5c30 0 55 10.333 75 31s30 46 30 76c0 27.333 -7.16699 49.333 -21.5 66s-32.5 27.667 -54.5 33z" />
    <glyph glyph-name="quotedblright" unicode="&#x201d;" horiz-adv-x="565" 
d="M122 510c-3.33301 -14.667 -7.5 -27.501 -12.5 -38.501s-12.833 -23.167 -23.5 -36.5c43.333 0 82.833 17.5 118.5 52.5s53.5 75.5 53.5 121.5c0 29.333 -10.167 54.5 -30.5 75.5s-45.833 31.5 -76.5 31.5c-30 0 -55 -10.333 -75 -31s-30 -46 -30 -76
c0 -27.333 7.66699 -50 23 -68c13.333 -15.333 31 -25.666 53 -30.999zM370 318.999l-55 100.001c3.33301 4 11 14 23 30c8 10.667 13 17.667 15 21l-24 41c0 -54.667 -18.667 -99.667 -56 -135c-40.667 -38 -95.667 -57 -165 -57l-55 100c3.33301 4 11 14 23 30
c8 10.667 13 17.667 15 21l-45 77c-10.667 18.667 -16 39.334 -16 62.001c0 33.333 11.833 62.166 35.5 86.499s52.167 36.5 85.5 36.5c26 0 49.667 -8.33301 71 -25c18.667 -14.667 34.667 -34.334 48 -59.001l22 -41c0 34 11.667 63.333 35 88s52 37 86 37
c26 0 49.667 -8.33301 71 -25c18.667 -14.667 34.667 -34.334 48 -59.001l45 -84c9.33301 -17.333 14 -35.666 14 -54.999c0 -54 -18.667 -98.333 -56 -133c-40.667 -38 -95.667 -57 -165 -57zM384 510c-3.33301 -14.667 -7.5 -27.501 -12.5 -38.501
s-12.833 -23.167 -23.5 -36.5c43.333 0 82.833 17.5 118.5 52.5s53.5 75.5 53.5 121.5c0 29.333 -10.167 54.5 -30.5 75.5s-45.833 31.5 -76.5 31.5c-30 0 -55 -10.333 -75 -31s-30 -46 -30 -76c0 -27.333 7.66699 -50 23 -68c13.333 -15.333 31 -25.666 53 -30.999z" />
    <glyph glyph-name="quotedblbase" unicode="&#x201e;" horiz-adv-x="566" 
d="M122 16c-3.33301 -14.667 -7.5 -27.501 -12.5 -38.501s-12.833 -23.167 -23.5 -36.5c43.333 0 82.833 17.5 118.5 52.5s53.5 75.5 53.5 121.5c0 29.333 -10.167 54.5 -30.5 75.5s-45.833 31.5 -76.5 31.5c-30 0 -55 -10.333 -75 -31s-30 -46 -30 -76
c0 -27.333 7.66699 -50 23 -68c13.333 -15.333 31 -25.666 53 -30.999zM370 -175.001l-55 100.001c3.33301 4 11 14 23 30c8 10.667 13 17.667 15 21l-24 41c0 -54.667 -18.667 -99.667 -56 -135c-40.667 -38 -95.667 -57 -165 -57l-55 100c3.33301 4 11 14 23 30
c8 10.667 13 17.667 15 21l-45 77c-10.667 18.667 -16 39.334 -16 62.001c0 33.333 11.833 62.166 35.5 86.499s52.167 36.5 85.5 36.5c26 0 49.667 -8.33301 71 -25c18.667 -14.667 34.667 -34.334 48 -59.001l22 -41c0 34 11.667 63.333 35 88s52 37 86 37
c26 0 49.667 -8.33301 71 -25c18.667 -14.667 34.667 -34.334 48 -59.001l45 -84c9.33301 -17.333 14 -35.666 14 -54.999c0 -54 -18.667 -98.333 -56 -133c-40.667 -38 -95.667 -57 -165 -57zM384 16c-3.33301 -14.667 -7.5 -27.501 -12.5 -38.501
s-12.833 -23.167 -23.5 -36.5c43.333 0 82.833 17.5 118.5 52.5s53.5 75.5 53.5 121.5c0 29.333 -10.167 54.5 -30.5 75.5s-45.833 31.5 -76.5 31.5c-30 0 -55 -10.333 -75 -31s-30 -46 -30 -76c0 -27.333 7.66699 -50 23 -68c13.333 -15.333 31 -25.666 53 -30.999z" />
    <glyph glyph-name="dagger" unicode="&#x2020;" horiz-adv-x="484" 
d="M142 340v-483h200v483h96v170h-96v186h-200v-186h-96v-170h96zM413 612v-86h41l55 -100v-202h-96v-483h-232l-55 100v383h-41l-55 100v202h96v186h232z" />
    <glyph glyph-name="daggerdbl" unicode="&#x2021;" horiz-adv-x="484" 
d="M142 43v-186h200v186h96v170h-96v127h96v170h-96v186h-200v-186h-96v-170h96v-127h-96v-170h96zM413 612v-86h41l55 -100v-197h-55l55 -100v-202h-96v-186h-232l-55 100v86h-41l-55 100v202h55l-55 95v202h96v186h232z" />
    <glyph glyph-name="bullet" unicode="&#x2022;" horiz-adv-x="485" 
d="M242 79c51.333 0 95.332 18.333 131.999 55s55 81 55 133c0 51.333 -18.333 95.333 -55 132s-80.667 55 -132 55s-95.166 -18.167 -131.499 -54.5s-54.5 -80.5 -54.5 -132.5s18 -96.333 54 -133s80 -55 132 -55zM296.999 -37c-35.333 0 -68.5 9.16797 -99.5 27.501
s-55.5 42.5 -73.5 72.5l-60 109c-16 30.667 -24 62.334 -24 95.001c0 55.333 19.667 103 59 143s87 60 143 60c40 0 76.5 -10.833 109.5 -32.5s57.833 -50.834 74.5 -87.501l47 -83c18 -32 27 -65.333 27 -100c0 -54.667 -20 -102.334 -60 -143.001s-87.667 -61 -143 -61z
" />
    <glyph glyph-name="ellipsis" unicode="&#x2026;" horiz-adv-x="898" 
d="M162 7c29.333 0 54.333 10.333 75 31s31 46 31 76c0 29.333 -10.333 54.333 -31 75s-45.667 31 -75 31s-54.333 -10.333 -75 -31s-31 -45.667 -31 -75s10.167 -54.5 30.5 -75.5s45.5 -31.5 75.5 -31.5zM217 -109c-22 0 -41.668 4.83203 -59.001 14.499
s-31.333 23.834 -42 42.501l-66 119c-6.66699 16.667 -10 32.334 -10 47.001c0 33.333 12 62 36 86s52.667 36 86 36c22.667 0 43.834 -6.16699 63.501 -18.5s34.5 -28.5 44.5 -48.5l57 -102c8 -16 12 -33.667 12 -53c0 -32.667 -12 -61.334 -36 -86.001
s-52.667 -37 -86 -37zM448.999 6.99902c29.333 0 54.333 10.333 75 31s31 46 31 76c0 29.333 -10.333 54.333 -31 75s-45.667 31 -75 31s-54.333 -10.333 -75 -31s-31 -45.667 -31 -75s10.167 -54.5 30.5 -75.5s45.5 -31.5 75.5 -31.5zM503.999 -109.001
c-22 0 -41.668 4.83203 -59.001 14.499s-31.333 23.834 -42 42.501l-66 119c-6.66699 16.667 -10 32.334 -10 47.001c0 33.333 12 62 36 86s52.667 36 86 36c22.667 0 43.834 -6.16699 63.501 -18.5s34.5 -28.5 44.5 -48.5l57 -102c8 -16 12 -33.667 12 -53
c0 -32.667 -12 -61.334 -36 -86.001s-52.667 -37 -86 -37zM735.998 6.99805c29.333 0 54.333 10.333 75 31s31 46 31 76c0 29.333 -10.333 54.333 -31 75s-45.667 31 -75 31s-54.333 -10.333 -75 -31s-31 -45.667 -31 -75s10.167 -54.5 30.5 -75.5s45.5 -31.5 75.5 -31.5z
M790.998 -109.002c-22 0 -41.668 4.83203 -59.001 14.499s-31.333 23.834 -42 42.501l-66 119c-6.66699 16.667 -10 32.334 -10 47.001c0 33.333 12 62 36 86s52.667 36 86 36c22.667 0 43.834 -6.16699 63.501 -18.5s34.5 -28.5 44.5 -48.5l57 -102
c8 -16 12 -33.667 12 -53c0 -32.667 -12 -61.334 -36 -86.001s-52.667 -37 -86 -37z" />
    <glyph glyph-name="perthousand" unicode="&#x2030;" horiz-adv-x="1204" 
d="M148 16l99 -60l425 740l-98 57zM671 -109c-33.333 0 -63.8311 8.83301 -91.498 26.5s-49.5 41.834 -65.5 72.501l-57 104l-149 -260l-127 76l-55 100l141 244c-33.333 0 -64.333 9 -93 27s-50.334 40.667 -65.001 68l-49 90c-20 30.667 -30 64.334 -30 101.001
c0 52 17.667 97 53 135s77.333 57 126 57c32.667 0 63.334 -9.33301 92.001 -28s50.667 -42.667 66 -72l58 -105l143 248l126 -73l55 -100l-134 -233c35.333 0 67.5 -10 96.5 -30s51.5 -47 67.5 -81l36 -65c0 48 18 89.333 54 124s77.333 52 124 52
c34 0 65.667 -10.333 95 -31c27.333 -18.667 49.666 -44.334 66.999 -77.001l42 -78c10.667 -20 18.667 -37.833 24 -53.5s8 -33.167 8 -52.5c0 -50.667 -17.667 -94.334 -53 -131.001s-78 -55 -128 -55c-34.667 0 -66.334 9.83301 -95.001 29.5s-50.667 45.5 -66 77.5
l-36 66c0 -47.333 -18 -88 -54 -122s-78 -51 -126 -51zM209.002 370c46 0 85 16.333 117 49s48 73 48 121c0 48.667 -16 90.167 -48 124.5s-71 51.5 -117 51.5c-45.333 0 -83.833 -17.167 -115.5 -51.5s-47.5 -75.833 -47.5 -124.5c0 -47.333 15.833 -87.5 47.5 -120.5
s70.167 -49.5 115.5 -49.5zM209.002 494c10.667 0 19.334 4.33398 26.001 13.001s10 20 10 34c0 15.333 -3.33301 27.666 -10 36.999s-15.334 14 -26.001 14c-10 0 -18.167 -4.5 -24.5 -13.5s-9.5 -21.167 -9.5 -36.5c0 -14 3.16699 -25.5 9.5 -34.5s14.5 -13.5 24.5 -13.5z
M616.002 7.00098c46 0 85 16.333 117 49s48 73 48 121c0 48.667 -16 90.167 -48 124.5s-71 51.5 -117 51.5c-45.333 0 -83.833 -17.167 -115.5 -51.5s-47.5 -75.833 -47.5 -124.5c0 -47.333 15.833 -87.5 47.5 -120.5s70.167 -49.5 115.5 -49.5zM616.002 131.001
c10.667 0 19.334 4.33398 26.001 13.001s10 20 10 34c0 15.333 -3.33301 27.666 -10 36.999s-15.334 14 -26.001 14c-10 0 -18.167 -4.5 -24.5 -13.5s-9.5 -21.167 -9.5 -36.5c0 -14 3.16699 -25.5 9.5 -34.5s14.5 -13.5 24.5 -13.5zM993.002 7.00195c46 0 85 16.333 117 49
s48 73 48 121c0 48.667 -16 90.167 -48 124.5s-71 51.5 -117 51.5c-45.333 0 -83.833 -17.167 -115.5 -51.5s-47.5 -75.833 -47.5 -124.5c0 -47.333 15.833 -87.5 47.5 -120.5s70.167 -49.5 115.5 -49.5zM993.002 131.002c10.667 0 19.334 4.33398 26.001 13.001
s10 20 10 34c0 15.333 -3.33301 27.666 -10 36.999s-15.334 14 -26.001 14c-10 0 -18.167 -4.5 -24.5 -13.5s-9.5 -21.167 -9.5 -36.5c0 -14 3.16699 -25.5 9.5 -34.5s14.5 -13.5 24.5 -13.5z" />
    <glyph glyph-name="guilsinglleft" unicode="&#x2039;" horiz-adv-x="244" 
d="M63 0l-33 163l33 163h155l55 -100l-34 -163l34 -163h-155zM46 163l30 -147h122l-30 147l30 147h-122z" />
    <glyph glyph-name="guilsinglright" unicode="&#x203a;" horiz-adv-x="244" 
d="M236 226l33 -163l-33 -163h-155l-55 100l34 163l-34 163h155zM198 163l-30 147h-122l30 -147l-30 -147h122z" />
    <glyph glyph-name="trademark" unicode="&#x2122;" horiz-adv-x="711" 
d="M118 598v-242h99v242h51l32 118h-103l-9 -20h-111l-26 -98h67zM444 696h-125l-24 -98h44v-242h99v196l61 -81h7l59 81l1 -196h99v340h-107l-56 -74zM85 482l-55 100l35 130h113l9 20h134l12 -20h119l50 -64l48 64h131l55 -100v-372h-131l-55 100v15h-4l-37 51v-166h-131
l-55 100v142h-35v-242h-141l-45 100v142h-17z" />
    <glyph glyph-name=".null" horiz-adv-x="0" 
 />
    <glyph glyph-name="nonmarkingreturn" horiz-adv-x="364" 
 />
    </font>
</defs>
</svg>
