<?xml version="1.0" encoding="utf-8"?>
<!-- Generator: Adobe Illustrator 18.0.0, SVG Export Plug-In . SVG Version: 6.00 Build 0)  -->
<!DOCTYPE svg PUBLIC "-//W3C//DTD SVG 1.1//EN" "http://www.w3.org/Graphics/SVG/1.1/DTD/svg11.dtd">
<svg width="164px" height="70px" version="1.1" id="Layer_1" xmlns="http://www.w3.org/2000/svg" xmlns:xlink="http://www.w3.org/1999/xlink" x="0px" y="0px"
	 viewBox="0 0 164 70" enable-background="new 0 0 164 70" xml:space="preserve">
<g>
	<path fill-rule="evenodd" clip-rule="evenodd" fill="#FFFFFF" d="M70.4,24L70.4,24z M93.4,7.2C93.7,7.2,93.4,7.5,93.4,7.2
		C93.5,7.2,93.4,7.2,93.4,7.2z M76.1,30.4C76,30.4,76.2,30.5,76.1,30.4C76.1,30.4,76.1,30.4,76.1,30.4z M76.5,31.1
		c0,0.2,0.1,0.4,0.1,0.6C76.4,31.8,75.6,31,76.5,31.1z M75.5,31.3C75.7,31.8,74.8,31.2,75.5,31.3C75.6,31.5,75.5,31.3,75.5,31.3z
		 M74.3,31.9C74.2,31.8,74.3,31.9,74.3,31.9C74.2,31.8,74.3,31.9,74.3,31.9z M75.2,32c0.2,0,0.2,0.1,0.2,0.2
		C75.3,32.3,75.3,32.1,75.2,32z M75.5,32.5c0-0.2,0.2,0,0.2,0C75.8,32.7,75.6,32.4,75.5,32.5z M94.5,15c0.2,0.1,0.3,0.4,0.3,0.5
		c0.1,0.2,0.4,0.2,0.4,0.3c0.4-0.6,1.1,0,0.6,0.4c-0.2,0.1-0.3,0-0.5-0.1c-0.3-0.2-0.3,0.4-0.5,0.4c-0.4,0.1-0.2-0.5-0.4-0.7
		c-0.2-0.2-0.2-0.2-0.2-0.6C94.3,15.2,94.6,15.3,94.5,15z M94.4,15.2C94.3,15.1,94.5,15.2,94.4,15.2C94.4,15.1,94.4,15.2,94.4,15.2z
		 M96.1,15.5c0.2-0.1,0.3,0,0.2,0.2C96.2,15.7,96.1,15.7,96.1,15.5z M96.3,16.1c0-0.1,0.1-0.1,0.1,0C96.6,16.2,96.3,16.2,96.3,16.1z
		 M96,16.3C96.3,16.3,96,16.6,96,16.3C96,16.3,96,16.3,96,16.3z M94.5,16.5c0,0.2-0.3,0.1-0.4,0.1C94.2,16.4,94.5,16.2,94.5,16.5z
		 M96.3,16.3c0.1,0.1,0.2,0.1,0.1,0.2C96.2,16.5,96.2,16.4,96.3,16.3z M94.4,17C94.7,16.7,94.9,17.3,94.4,17
		C94.7,16.6,94.4,17,94.4,17z M92.2,17.6c0.5-0.1,0.4,0.2,0.2,0.4c-0.1,0.2,0.1,0.2,0.2,0.2c0.1,0.3-0.2,0.2-0.2,0.4
		c-0.2-0.2-0.4,0.1-0.6,0C92.3,18.6,92,17.9,92.2,17.6z M91.9,17.8c0,0.1-0.1,0.1-0.1,0.2C91.6,17.9,91.8,17.7,91.9,17.8z
		 M91.3,17.9c0.1-0.1,0.2,0.1,0.1,0.2C91.3,18.1,91.3,18,91.3,17.9z M91.1,18.3c0.2-0.2,0.7,0.2,0.3,0.3
		C90.9,18.7,90.5,18.3,91.1,18.3c0,0,0.1,0.5,0.2,0.1C91.2,18.3,91.2,18.3,91.1,18.3z M95.9,18.4c0,0.3-0.3,0.2-0.4,0.4
		c0.1,0.1,0.3,0,0.4,0.1c-0.3,0.8-1.1-0.4-0.3-0.4c0-0.1-0.1-0.1-0.2-0.1C95.6,18.2,95.7,18.4,95.9,18.4z M92.6,19.1
		c0.1-0.1,0.1-0.1,0.1,0C92.7,19.2,92.6,19.1,92.6,19.1z M95.9,19.3c0.2,0,0.2,0.1,0.2,0.2C95.9,19.6,95.9,19.5,95.9,19.3z
		 M96.5,20.1c0.3,0.1,0,0.5,0,0.7c-0.1,0-0.2-0.1-0.3-0.1c0-0.1,0-0.2,0-0.3C96.2,20.1,96.3,20.4,96.5,20.1z M91.2,21.8
		c0.1,0.1,0,0.4,0.2,0.3c0,0,0.2-0.2,0.2-0.1c0,0.2-0.1,0.2-0.3,0.2c0.1-0.2-0.2-0.1-0.2-0.2c-0.1,0.2,0.1,0.3,0.1,0.5
		C90.7,22.9,90.5,21.8,91.2,21.8z M92.8,7.6c0.1,0,0.3,0.2-0.1,0.2C92.7,7.8,92.7,7.7,92.8,7.6z M93.2,7.7c0.1,0.1,0.1,0.1,0,0.1
		C93.1,7.8,93.1,7.8,93.2,7.7z M93.4,7.7c0.1-0.2,0.3,0.1,0.1,0.1C93.5,7.8,93.5,7.8,93.4,7.7z M92.6,7.9c0,0.1-0.1,0.2-0.2,0.3
		c-0.4,0.1-0.1,0.2-0.3,0.4c-0.3,0.2-0.4,0.3-0.5-0.2C91.9,8.3,92.2,7.8,92.6,7.9z M92.6,8.3c0,0.2-0.2,0.2-0.4,0.2
		C92.3,8.4,92.5,8.3,92.6,8.3z M94.7,8.5C94.7,8.4,94.7,8.7,94.7,8.5C94.7,8.5,94.7,8.5,94.7,8.5z M95.3,9c0.1,0,0.2,0.1,0,0.2
		C95.3,9.2,95.2,9.1,95.3,9z M93.5,9.3c0.2,0.1,0,0.3,0.3,0.2c0.1,0,0.1-0.1,0.1-0.2c0-0.1,0.1-0.1,0.3,0c-0.1,0.3-0.7,0.6-0.9,0.6
		c0-0.3,0.2-0.1,0.2-0.2C93.4,9.8,93.5,9.3,93.5,9.3z M91.6,5.7c0.3-0.2,0-0.5-0.2-0.6C91.2,5.4,91.4,5.7,91.6,5.7z M91,23.2
		c0.2-0.1,0.3,0,0.2,0.2C90.9,23.5,91,23.4,91,23.2z M88,39.5c-0.1,0-0.1,0-0.1,0C88,39.5,88,39.5,88,39.5z M86,39.3
		C86.5,39.3,86,38.9,86,39.3C86.1,39.3,86,39.3,86,39.3z M90.2,36.9c0.1,0.1,0.3-0.1,0.4-0.2C90.6,36.4,90.1,36.6,90.2,36.9z
		 M90.6,33.4c-0.1-0.1-0.1-0.1-0.2,0C90.3,33.6,90.6,33.6,90.6,33.4z M89.9,33.3c-0.1,0.2,0.2,0.2,0.4,0.2
		C90.3,33.3,90,33.2,89.9,33.3z M75.6,33.3L75.6,33.3z M87.3,31.8c0.1,0.3-0.1,0.3-0.2,0.5c0.2,0.2,0.6,0.4,0.9,0.2
		c0-0.3-0.3-0.6-0.1-1C87.7,31.6,87.5,31.8,87.3,31.8z M88.3,30.3C88.3,31,88.8,29.7,88.3,30.3C88.3,30.6,88.3,30.3,88.3,30.3z
		 M87.3,28.6C87.3,28.6,87.4,28.7,87.3,28.6C87.3,28.6,87.3,28.6,87.3,28.6z M68.8,27.8C68.6,28,69,27.6,68.8,27.8
		C68.6,28,68.8,27.8,68.8,27.8z M87,27c0-0.1,0.1-0.2-0.1-0.2C87,26.9,87,26.9,87,27z M90.2,24.3c0,0-0.1,0-0.1,0.1
		C90.2,24.3,90.2,24.3,90.2,24.3z M88.8,24.5c0.1-0.1,0-0.2-0.1-0.3C88.6,24.3,88.6,24.5,88.8,24.5z M90.2,24
		C90.2,24,90.2,24.1,90.2,24C90.3,24,90.2,24,90.2,24z M86.9,23.5c0,0.3,0.1,0.4,0.4,0.4C87.6,23.7,87.2,23.2,86.9,23.5z M90.1,23.2
		c0,0,0,0.1,0,0.1C90.2,23.4,90.2,23.2,90.1,23.2z M89.3,23.1c0.2,0,0.6-0.2,0.2-0.4C89.4,22.7,89.1,22.9,89.3,23.1z M90.2,22.9
		c-0.1-0.1,0.2-0.4-0.1-0.4C90.2,22.6,90,23,90.2,22.9z M90.1,21.6c0,0.2-0.1,0.7,0.1,0.8c0-0.2,0.1-1.7-0.1-1.7
		C90.1,21,90.1,21.3,90.1,21.6z M87,18.8C87,18.8,87.1,18.9,87,18.8C87,18.8,87,18.8,87,18.8z M97.1,15.7c0,0.4,0.2,0.4,0.6,0.4
		C97.8,15.8,97.4,15.6,97.1,15.7z M79.9,13.4C79.9,13.2,79.9,13.6,79.9,13.4C79.9,13.4,79.9,13.4,79.9,13.4z M77.5,13.2
		c-0.1,0-0.1,0-0.1,0.1C77.4,13.3,77.5,13.3,77.5,13.2z M87.7,28.3c-0.1,0-0.4,0.3-0.2,0.3C87.5,28.5,87.7,28.5,87.7,28.3z
		 M96.5,13.3c0-0.1,0.1-0.1,0.1-0.2c-0.3,0-0.6,0-0.8,0c-0.5,0-0.2,0.1-0.3,0.4c0,0-0.8-0.4-0.9-0.4c-1.4,0-2.8,0.1-4.2,0
		c0,0.1,0.1,0.2,0.1,0.3c-0.1,0.2-0.1,0.4-0.1,0.7c0,0.7,0,1.3,0,2c0,1.5,0,3,0,4.5c0.4-0.1,0.1-4.2,0.2-4.8c0,0.3,0,0.6,0,0.9
		c0,0.3,0.3,0.4,0.3,0.5c-0.5,0-0.2,0.7-0.2,1.1c0,0.6,0,1.2,0,1.8c0,0.6-0.1,1.2,0,1.8c0,0.3,0,0.7,0,1c0,0,0.1,0.5,0.1,0.5
		c-0.2-0.1-0.1,0.6-0.1,0.8c0,0.5,0.2,1.3-0.2,1.7c-0.5,0.5-1,1-1.5,1.5c-0.2,0.3-1,1.3-1.3,1.3c0.3,0.5,0.7,0.7,1.1,1.1
		c0.3,0.4,0.7,0.8,1,1.1c0.6,0.6,1.2,1.1,1.7,1.7c0.3,0.3,0.4,0.6,0.7,0.3c0.3-0.3,0.6-0.6,0.9-0.9c1.1-1.1,2.3-2.3,3.4-3.5
		c0.2-0.2,0.5-0.4,0.5-0.7c0-0.3,0-0.7,0-1c0-0.7,0-1.4,0-2.1c0-0.7,0-1.5,0-2.2c0-0.4-0.2-1.1-0.1-1.4c0.2-0.4,0-0.9,0.1-1.4
		c-0.2-0.2-0.3-0.8-0.2-1c0.4-0.8,0.2-1.9,0.2-2.9c0-0.7-0.3-2.4,0.2-2.9C96.6,13.1,96.6,13.3,96.5,13.3z M88,28.1
		c0.9-0.7,1.6-1.6,2.3-2.4c-0.4,0.2-1,0.7-1.3,1.2c-0.3,0.6-1,0.8-1.2,1.4C87.9,28.2,87.9,28.2,88,28.1z M76,32.9
		c0.1-0.1,0.4-0.3,0.3-0.4c0,0.1-0.3,0-0.3,0.1c0.2-0.2,0.4-0.4,0.7-0.4c0.4,0,1-0.9,1.3-1.2c0.4-0.4,0.8-0.8,1.2-1.2
		c0.2-0.2,0.5-0.5,0.7-0.7c0.1-0.1,0.3-0.1,0.4-0.2c-0.6-0.5-1.2-1.1-1.8-1.7C78,26.6,77,25.9,77,25.2c0-1.6,0-3.1,0.1-4.7
		c0-1.5,0-3,0-4.5c0-0.8,0-1.5,0-2.3c0,0,0.1-0.7,0.1-0.7c-0.2-0.3-0.2,0.1-0.2,0.1c-0.1,0.1-0.7,0-0.8,0c-0.5,0-0.9,0-1.4,0
		c-0.9,0-1.9,0-2.8,0c-0.4,0-0.7,0-1.1,0c-0.5,0-0.4,0-0.4,0.4c0,0.3-0.1,1.1,0.1,1.3c0,0,0-0.1,0-0.1c-0.1,0,0.1,0.8,0,1
		c0-0.1,0.1-0.3-0.1-0.3c-0.2,0.9,0,1.8-0.1,2.7c-0.1,0-0.2,0-0.2,0c0.5,0.5,0.2,2,0.2,2.7c0,0.7,0,1.3,0,2c0,0.3,0,0.6,0,1
		c0,0.4-0.1,0.2-0.2,0.5c0.4,0.1,0.2,1.9,0.2,2.3c0,0.4,0,0.9,0,1.3c0,0.2,0,0.4,0,0.6c0.3,0,0.3,0.1,0.5,0.3
		c0.7,0.8,1.5,1.5,2.2,2.2c0.1,0.1,1.3,1.2,1.3,1.2c-0.2,0.1,0.1-0.1,0.1-0.1c0.2-0.1,0.4-0.1,0.5,0.1c-0.2,0-0.2,0.2-0.4,0.3
		C75.3,33,75.5,33.4,76,32.9z M96.6,12.9c0.1,0.1,0.2,0.1,0.3,0C96.9,12.7,96.6,12.7,96.6,12.9z M74.8,12.8c-0.1,0-0.1,0-0.1,0.1
		C74.7,12.8,74.8,12.8,74.8,12.8z M74.6,12.7C74.5,12.6,74.7,12.8,74.6,12.7C74.6,12.7,74.6,12.7,74.6,12.7z M68.9,12.2
		c0-0.1-0.1,0.2-0.1,0.2C68.9,12.3,68.9,12.2,68.9,12.2z M94.1,12.6c0.7,0,0.3-0.2,0.3-0.5C94.1,12,93.8,12.4,94.1,12.6z M79.9,11.4
		C79.8,11.3,80,11.4,79.9,11.4C79.9,11.3,79.9,11.4,79.9,11.4z M80.1,11.1C79.9,11,80.2,11.2,80.1,11.1
		C80.1,11.1,80.1,11.1,80.1,11.1z M91.8,10.7c0,0.1-0.1,0.2-0.1,0.3c0,0-0.2,0-0.2,0c-0.2,0.2-0.2,0.4-0.1,0.7
		c0.3,0,0.5-0.2,0.6-0.4C92.1,11.1,92.5,10.7,91.8,10.7z M76.7,10.6C76.6,10.5,76.8,10.7,76.7,10.6C76.7,10.6,76.7,10.6,76.7,10.6z
		 M96.4,10.4c0.1,0.2,0.5,0.2,0.5-0.1C96.8,10.2,96.4,10.2,96.4,10.4z M75.8,10.2C76,10.4,75.7,10.1,75.8,10.2
		C76,10.4,75.8,10.2,75.8,10.2z M68.9,9.9c0.1,0,0.2,0,0.2-0.1C69,9.7,68.9,9.8,68.9,9.9z M69.6,9.7c-0.1-0.1-0.1-0.1-0.1,0
		C69.5,9.8,69.6,9.8,69.6,9.7z M69.1,9.6C69,9.5,69.1,9.6,69.1,9.6C69.1,9.5,69.1,9.6,69.1,9.6z M69.6,9.4c-0.1,0-0.1,0-0.1,0.1
		C69.6,9.4,69.6,9.4,69.6,9.4z M74.5,5.1C74.5,5,74.6,5.2,74.5,5.1C74.5,5.1,74.5,5.1,74.5,5.1z M84,3.5C83.9,3.4,84,3.6,84,3.5
		C84,3.5,84,3.5,84,3.5z M80.3,3.5C80.2,3.4,80.3,3.6,80.3,3.5C80.3,3.5,80.3,3.5,80.3,3.5z M82.7,3.4C82.7,3.5,82.7,3.5,82.7,3.4
		c0-0.1-0.1-0.1-0.1,0C82.6,3.5,82.6,3.5,82.7,3.4z M80.5,3.4c0.2-0.1,0.4,0.1,0.3-0.3C80.7,3.2,80.4,3.4,80.5,3.4z M80,3.3
		C80.3,3.3,80,3,80,3.3C80.1,3.3,80,3.3,80,3.3z M79.7,3.3c0.1,0,0.2,0,0.2-0.1C79.8,3.2,79.7,3.2,79.7,3.3z M87.7,3.1
		C87.6,3.1,87.7,3.1,87.7,3.1C87.7,3.1,87.7,3.1,87.7,3.1z M80.3,19.4c0,0.1-0.1,0.6-0.1,0.6c0.1,0.3,0.1,0.6,0.1,0.9
		c0,0.5,0,1-0.1,1.5c0,0.3,0,0.6,0,0.9c0,0.2,0.2,0.5,0.2,0.7c-0.1-0.1-0.1-0.1-0.1,0c0.1,0.2-0.1,0.8-0.1,1.1c0,0.9,0,1.7,0,2.6
		c0,0.9,0,1.7,0,2.6c0,0.2,0,1.2,0.1,1.2c-0.1,0-0.1-0.1-0.1-0.1c0,0.5,0,0.9,0,1.4c-0.1,0-0.4,0.2-0.1,0.2c0.3,0,0.2,0.5,0.2,0.7
		c0,0.5-0.3,1.8,0.1,2c-0.2-0.1-0.1,1.1,0,1.3c-0.2-0.1,0,1-0.2,1.1c0.6-0.1,1.7,1.5,2.1,1.9c0.3,0.3,0.7,0.7,1,1
		c0.1,0.1,0.9,0.4,0.7,0.2c0-0.1-0.2,0-0.2-0.1c0.5-0.3,1.2-1,1.4-1.5c0.6-0.3,1.7-1.3,1.7-2.1c0-0.5-0.1-1,0-1.6
		c0-0.1,0.2,0,0.2-0.1c0.1-0.3-0.3-0.1-0.2-0.3c0-0.3-0.1-0.5,0.2-0.5c0.3,0,0.2-0.3,0.2-0.6c0-0.3,0-0.5,0-0.8
		c-0.3,0-0.4-0.2-0.5-0.4c0-0.1,0-0.9,0-0.9c0.1,0-0.1-0.8-0.1-0.9c0.3-0.2,0.1-0.7,0.1-1c-0.1-0.6,0.1-1.1,0.1-1.7
		c0-1.3-0.1-2.7-0.1-4c0-0.6-0.2-1.2,0.3-1.5c0.2-0.1,0.1-0.3-0.1-0.3c-0.3,0-0.2-0.1-0.2-0.4c0-1.4,0-2.9,0-4.3c-0.2-0.6,0-1,0-1.6
		c0-0.6,0-1.3,0-1.9c0-1.3-0.1-2.7,0-4c0-0.4,0-0.5,0.5-0.5c0.3,0,0.7,0,1,0c0.7,0,1.4,0,2.1,0c1.5,0,3,0,4.4-0.1
		c-0.2,0.1-0.1-0.2-0.1-0.2c0.2,0.1,0.5-0.1,0.7,0.1c0,0.2-0.3,0-0.3,0.2c0.5,0,1,0,1.5,0c0.1-0.2-0.2-0.1-0.3-0.1
		c0.1-0.4-0.1-0.3-0.4-0.5c-0.1-0.4-0.4-0.6-0.7-0.9c-0.5-0.5-0.5-0.1-1-0.2C94,8.2,94,7.9,94,7.7c-0.2-0.1-0.2-0.4-0.2-0.6
		c-0.8-0.8-1.6-1.6-2.4-2.3C91,4.4,90.6,4,90.2,3.6c0,0-0.8,0-0.9,0c-1.7,0.1-3.4,0.1-5.1,0c-0.5,0-1.1,0.1-1.6,0
		c-0.1,0-0.1,0-0.1-0.1c-0.2-0.1,0,0.2-0.2,0.1c-0.1-0.1-0.2-0.2-0.3-0.2c-0.3-0.1,0-0.1-0.1-0.3c-0.3-0.2-0.6,0.2-0.9,0.3
		c0.1,0-0.4,0.2-0.5,0.2c-0.7,0.1-1.4,0-2.1,0c-0.7,0-1.1-0.1-1.6,0.4c-0.2,0.2-0.4,0.4-0.6,0.6C76.1,4.7,76,4.9,76,4.9
		c-0.1,0.4-0.4,0.2-0.6,0.5c-0.2,0.2-0.4,0.4-0.7,0.5c-0.1,0.3-0.4,0.6-0.6,0.8c-1.2,1.1-2.4,2.3-3.4,3.5c0.2-0.1,2-0.2,2-0.1
		c0,0,0,0.1,0,0.1c0,0,0.9-0.1,1-0.1c0.6,0,1.2,0,1.9,0c0.3,0,0.5,0,0.8,0.1c0.4,0.1,0.1-0.1,0.4-0.1c0.4,0,0.5,0,0.7,0.2
		c-0.1-0.1,1-0.2,1.1-0.2c0.6,0,1.3,0,1.9,0c-0.1,0.6,0.3,1.6-0.2,2c-0.2,0.2,0.2,0.2,0.2,0.2c0,0.5,0,1.1,0,1.6c0,1.6,0,3.3,0,4.9
		C79.7,19,80.4,19,80.3,19.4z M84,3.1c0.1,0.1,0.2,0.1,0.2,0.1C84.3,3,84,2.9,84,3.1z M83.3,2.9c-0.1,0-0.1-0.1-0.2-0.1
		C83,3,83.3,3,83.3,2.9z M80.6,2.9c0.1-0.2-0.3-0.2-0.2-0.1C80.5,2.9,80.6,3,80.6,2.9z M83.9,2.8C83.8,3,84.1,2.6,83.9,2.8
		C83.8,3,83.9,2.8,83.9,2.8z M81.5,2.8C81.3,2.9,81.7,2.6,81.5,2.8C81.3,2.9,81.5,2.8,81.5,2.8z M82.3,2.8c0-0.1-0.1,0-0.2,0
		C82,2.8,82.2,2.9,82.3,2.8z M80.9,2.8c0.1,0,0.1,0,0.2,0.1C81.1,2.6,80.9,2.6,80.9,2.8z M82.7,2.7c0.1,0,0.2,0,0.3-0.1
		C82.9,2.6,82.8,2.6,82.7,2.7z M80.1,2.7c0,0,0.1-0.2-0.1-0.2C80,2.6,80,2.7,80.1,2.7z M85.6,2.5c0-0.1-0.1-0.1-0.1,0
		C85.5,2.6,85.5,2.6,85.6,2.5z M80.9,2.4c-0.1,0-0.1,0-0.1,0C80.8,2.5,80.9,2.4,80.9,2.4z M80.5,2.4C80.8,2.4,80.5,2.2,80.5,2.4
		C80.6,2.4,80.5,2.4,80.5,2.4z M79.1,2.6c0.1,0,0.2,0.1,0.4,0.1C79.5,2.2,79.1,2,79.1,2.6z M84.8,2.1c-0.1,0-0.1,0-0.2,0.1
		C84.7,2.2,84.8,2.2,84.8,2.1z M89.5,37.8c0,0.1-0.1,0.1-0.1,0.2c0.1,0,0.2,0.1,0.2,0.1C89.7,37.9,89.6,37.8,89.5,37.8z M89.3,38.2
		c-0.2,0-0.4,0.1-0.4,0.4C89.2,38.5,89.3,38.4,89.3,38.2z M96.4,14.4C96.3,14.4,96.4,14.5,96.4,14.4C96.3,14.4,96.4,14.4,96.4,14.4z
		 M96.2,14c0.1,0,0.4,0.1,0.4,0.1C96.6,14.2,96.1,14.3,96.2,14z M96.4,13.4c0.2,0,0.2,0.2-0.1,0.2C96.4,13.5,96.4,13.4,96.4,13.4z
		 M68.9,12.7c0,0,0.1-0.1,0.1-0.1C69,12.7,68.9,12.7,68.9,12.7z M74.3,8c0,0,0.1-0.1,0.1-0.1C74.4,8,74.4,8,74.3,8z"/>
	<path fill-rule="evenodd" clip-rule="evenodd" fill="#FFFFFF" d="M1.3,53.7c0,0.1,0,0.3,0,0.4c0.2-0.1,0.3-0.4,0.5-0.3
		c0,0.4-0.1,0.8,0.1,1.2c0.1,0.2,0.3,0.6,0.3,0.9c0.1,0.4,0,0.9,0.1,1.4c0.1,0.4,0.2,0.6-0.2,0.6c-0.5,0-0.2,0-0.3,0.2
		c0.1-0.1,0.5,0.1,0.6,0.2c0.3,0.1,0.3,1,0.3,1.4c0.2,1.1,0.3,2.1,0.5,3.2C3.6,64,3.8,65.1,4,66.3c0.1,0.5,0.2,1.1,0.3,1.6
		c0,0.6,0.3,1.2,0.3,1.7c0.5-0.1,1-0.1,1.5,0c0.2,0,0.1,0.3,0.3,0.3c0.2,0,0.3,0,0.5,0c-0.1-0.1-0.1-0.2-0.1-0.4
		c0.7,0,2.7,0.4,2.8-0.5c0.2-1,0.4-2.1,0.5-3.1c0.1-0.7,0.1-1.3,0.3-2.1c0.1-0.7,0.2-1.3,0.3-2c0.1-0.5-0.1-1.3,0.2-1.6
		c0.2,0,0,0.3,0.2,0.4c0,0,0-0.1,0-0.1c0,0,0.2,0.3-0.1,0.3c0.4,0.5,0.3,1.5,0.4,2.1c0.1,0.8,0.1,1.8,0.4,2.6
		c0.2,0.7,0.4,1.7,0.4,2.4c0,0.3,0.1,0.5,0.1,0.8c0,0.2,0.1,0.3,0.1,0.5c0.2,0.6-0.1,0,0,0.4c0.4-0.2,0.9,0,1.4-0.1
		c0.1-0.4,0.9-0.5,1-0.1c0.1,0.3,1.3,0.1,1.6,0.1c0.2,0,0.5,0.1,0.7-0.1c0.4-0.2,0.1,0,0.1,0.1c0.6-0.2,0.1-1.1,0.6-1.4
		c0.1-0.1-0.1-0.4-0.1-0.6c0.1-0.3,0.3-0.7,0.1-1c0.4-0.1,0.7-3.2,0.8-3.2c-0.1,0.3-0.1-0.3-0.1-0.4c0-0.1,0.1-0.3,0.1-0.4
		c0.1,0,0.1,0,0.2-0.1c-0.3-0.1-0.1-1.2,0.1-1.4c-0.1-0.3-0.1-0.6,0.1-0.8c0.1-0.2,0-0.5,0.1-0.9c0-0.2,0.3-0.3,0.2-0.4
		c-0.1-0.2,0-0.5,0.2-0.7c0-0.2-0.1-0.3-0.1-0.6c0.1-0.5,0.2-0.9,0.1-1.4c0.3,0,0.3-0.5,0.3-0.8c0-0.4-0.3-0.4-0.3-0.7
		c-0.1,0.1-0.5,0.1-0.6,0c0.1,0.6-0.8,0.3-0.4,0c0.2-0.1,0.4-0.1,0.6-0.2c0.3-0.1,0.5-0.2,0.8-0.3c0.2-0.1,0.2-0.2,0.4-0.3
		c0.4-0.3,0.5-0.2,0.9-0.3c0.3-0.1,0.5-0.2,0.7-0.4c0.4-0.2,0.1,0,0.2,0c0.4-0.2,0.8-0.6,1.2-0.4c0,0.2-0.4,0.2-0.5,0.2
		c0,0.1-0.4,0.4-0.5,0.5c-0.2,0.2-0.5,0.4-0.6,0.7c-0.5-0.1-0.4,0.6-0.4,0.9c0,1,0,2,0,3c0,0.8-0.2,1.7,0,2.5
		c0.1,0.7,0.1,1.5,0.2,2.2c0,0.3,0,0.6,0,0.9c-0.1,0.2,0,0.2,0.1,0.3c0.1,0,0,0.4,0.1,0.5c0.6,1.4,1.2,2.9,2.5,3.6
		c0.2,0.2,0.5,0.2,0.7,0.4c0.2,0.2,0.3,0.3,0.6,0.5c0.6,0.3,1.4,0.4,2.1,0.4c0.7,0.1,1.5,0.1,2.2,0c0.5-0.1,0.9-0.4,1.4-0.5
		c0.5-0.1,1.1-0.6,1.5-1c0.3-0.3,0.6-0.6,0.8-0.9c0.1-0.1,0.4-0.7,0.6-0.8c0.2-0.1,0.5-0.9,0.6-1.1c0.1-0.3,0.6-1.7,0.3-2
		c0,0,0,0.5-0.2,0.6c0-0.5,0.2-1.1,0.2-1.6c0-0.6,0-1.3,0-1.9c0-1.4,0-2.8,0-4.2c0-1.2,0-2.3,0-3.5c0-0.5,0.1-1.3-0.2-1.6
		c-0.2-0.2-0.6,0.2-0.7-0.1c0.3,0.1,0.6-0.2,0.4-0.5c0.5,0.3,0.4-1.2,0.4-1.4c0-0.5,0-0.9-0.1-1.5c-0.2-0.8-0.5-1.7-1-2.3
		c-0.3-0.3-0.5-0.7-0.7-0.9c-0.1-0.2-0.6-0.5-0.8-0.2c-0.1,0.2-0.6,0.2-0.5-0.2c0-0.1,0.6-0.5,0.3-0.6c-0.1,0-0.1,0,0,0.1
		c-0.1,0.2-0.2-0.2-0.2-0.2c0,0-0.3,0-0.2-0.2c-0.1,0-0.2,0-0.3,0.1c-0.1-0.1,0.1-0.2-0.1-0.2c0,0.1-0.5-0.1-0.6-0.2
		c0.1,0,0.1,0,0.1-0.1c-0.1-0.2-0.3,0.3-0.3-0.1c0,0.3-0.5,0-0.5-0.1c-0.1-0.1-0.4-0.1-0.6-0.1c0,0,0-0.1,0.1-0.1
		c-0.1,0-0.2,0.1-0.3,0.1c0.1-0.3-0.6-0.1-0.7-0.1c0-0.2-0.1,0-0.2,0c0.2-0.2-0.1,0.1-0.2-0.1c0.1,0,0.1,0,0.1-0.1
		c-0.2,0-0.3,0.2-0.5,0.2c0,0,0.1-0.1,0.1-0.1c-0.3-0.1-0.3,0.2-0.5,0.2c0.1-0.1,0.1-0.1,0-0.2c-0.1,0-0.4,0.4-0.6,0.3
		c0-0.1,0-0.1-0.1-0.2c0,0.1-0.3,0.1-0.3,0.1c-0.2,0.2-0.5,0.1-0.6,0.2c-0.1,0-0.5,0.3-0.5,0.4c-0.5-0.1-0.7,0.6-0.9,0.9
		c0-0.1,0-0.2,0.1-0.3c-0.2,0-0.4,0-0.6,0c-0.1,0.1-0.1,0.5-0.3,0.3c-0.1,0.2,0.3,0.9-0.2,0.7c-0.1,0-0.2-0.1-0.2-0.1
		c0,0-0.2,0.4-0.2,0.1c-0.4,0.5-0.9,0.9-0.7,1.5c0.1,0.4,0.1,0.1,0.3,0.3c0.2,0.2-0.2,0.1-0.4,0c-0.7,0.1-0.7,1-0.8,1.5
		c-0.1,0.4-0.1,0.8-0.1,1.2c0,0.2,0,0.4,0,0.6c-0.1,0.1-0.3,0.3-0.1,0.5c0-0.1,0-0.1,0.1,0c0,0.3,0,0.7,0,1c0,0.2,0,0.4,0,0.7
		c0,0.1-0.2,0-0.2,0.2c0.4,0,0.3,0.7,0.2,1c-0.3,0.2-1.4,0.7-1.7,0.4c0-0.2,0.3-0.2,0.4-0.4c0.1-0.2,0.1-0.6,0.1-0.8
		c0-0.7,0.2-1.3,0.3-2c0-0.2,0.1-0.5,0.1-0.7c0-0.3,0.2-0.5,0.2-0.8c0-0.2,0.2-1,0.3-1c0,0.1,0,0.1-0.1,0.1c0-1,0.2-2.1,0.4-3
		c0-0.4,0.3-0.8,0.3-1.2c0-0.3-0.1-0.5,0-0.7c0.1-0.3,0-0.2,0-0.4c0.1,0,0.1-0.1,0.1-0.1c-0.2,0.1-0.5-0.2-0.3,0
		c0.1,0.1-0.3,0-0.2,0.1c-0.1-0.1-0.4,0-0.7-0.2c-0.5,0.2-0.9,0-1.3,0c-0.6,0-1.2,0-1.8,0c-0.1,0.1-0.4,0.3-0.5,0.1
		c-0.1-0.3-0.3,0.1-0.5,0.1c0.1-0.4-0.3,0.2-0.3,0.1c0-0.1,0.1-0.1,0.1,0c-0.1,0.1-0.3,0.5-0.1,0.6c-0.3,0.1-0.2,1.1-0.2,1.4
		c0,0,0-0.1-0.1-0.1c0,0.1-0.1,0.6,0.1,0.7c-0.3,0.2-0.1,0.3-0.1,0.4c-0.3,0.6-0.5,5.6-0.9,5.6c-0.2-1.6-0.4-3.2-0.7-4.8
		c-0.1-0.7-0.2-1.4-0.3-2.2c-0.1-0.4-0.1-0.9-0.2-1.3c-0.1-0.6-0.4-0.3-0.9-0.2c0-0.2,0-0.1-0.1,0c0,0-1-0.1-1,0
		c0.1-0.2-0.3,0-0.3,0c-0.3-0.1,0.3-0.2-0.2,0c0-0.2-0.1-0.1-0.2-0.2c0.1,0.3-0.4,0.1-0.4,0.2c0.2,0.4,0.2,0.6-0.2,0.7
		c-0.2,0-0.3,0-0.2,0.2c0.1,0.1-0.2,0.2-0.2,0.1c0,0,0-0.1,0-0.2c-1,0.2-0.2-0.7-0.4-0.9c0,0.1-0.5,0.1-0.3-0.1
		c-0.2,0.1-0.3,0.1-0.4,0.1c-0.1-0.2-0.7-0.1-0.8,0.1C8,43,8,43.1,8,43.2c-0.3-0.2,0,0.4-0.1,0.5c0,0-0.1-0.1-0.1-0.1
		c0.1,0.2-0.2,0.7,0,0.7c-0.3,0.3-0.3,1.1-0.3,1.6c0,0,0-0.1-0.1-0.1c-0.1,0.9-0.1,1.7-0.2,2.5c0.1,0,0.3-0.1,0.3,0.1
		c0,0-0.3,0-0.3,0c-0.1,0.1-0.2,0.9-0.2,1.1c0,0.4,0,1.5-0.3,1.9c0-0.2,0-0.3,0-0.5c0-0.1,0-0.1-0.1-0.2c-0.2-0.1-0.2-0.2,0-0.4
		c0-0.4-0.6-0.4-0.3-0.9c0.3-0.5-0.1-1.5-0.2-2.1c0-0.3-0.1-1.5-0.6-1.5c-0.3-0.2-0.5,0.1-0.8,0.1c-0.4-0.5-0.6-0.6-0.3-1.2
		c-0.2,0-0.4,0-0.5-0.3c0.2-0.3,0.5,0.1,0.7,0c0,0.2,0.1,0.3,0.3,0.3c0.3,0,0,0.4,0,0.6c0.1,0,1,0.3,1,0.2c-0.3-0.7-0.1-1.5-0.4-2.2
		c-0.4,0.4-0.6-0.4-0.7-0.4c0,0.2-0.2,0-0.2,0c0.1-0.2-0.2-0.1-0.5,0c-0.1,0-0.5-0.1-0.7-0.1c-0.1,0-0.4,0.4-0.6,0.4
		c-0.3-0.1-0.1-0.2-0.4-0.2c-0.2,0-0.4-0.2-0.6,0c0-0.6-0.1,0-0.3-0.1c0-0.1,0-0.1-0.1-0.1c-0.1,0,0,0.2-0.2,0.2
		c0-0.3-0.5,0.3-0.6-0.1c0,0.1,0,0.1-0.1,0.1c0.1-0.3-0.2-0.1-0.3,0c-0.1,0.1-0.3-0.1-0.4,0c0,0.2-0.1,0.4,0,0.5c0-0.1,0-0.1,0-0.1
		c0,0.2,0.2,1.7,0.2,1.7c0.1,0,0.3,1.3,0.3,1.5c0,0.4,0.2,0.7,0.2,1.1c0,0.2,0.4,1.8,0.4,1.8c0,0-0.1-0.1-0.1-0.1
		c0,0.2,0.1,1.7,0.3,1.8c0.2,0,0.2,0.3,0.1,0.4c-0.1,0.4,0,0.3,0,0.7c0,0.2,0.1,0.6,0.1,0.7C1.5,53.1,1.9,53.4,1.3,53.7z
		 M157.7,49.1c0.2,0.1,0.5,0.2,0.7,0.3c0.3,0.1,0.2,0.5,0.2,0.7c0,0.2,0.2,0.3,0.2,0.3c0,0-0.1,0.1-0.1,0.1c1,0,2.2-0.4,3.1-0.6
		c0.4-0.1,0.9-0.1,1.2-0.4c0.1,0.1,0.3,0.1,0.4,0c0.3-0.1,0.3-0.1,0.2-0.5c0-0.1-0.2-0.5-0.2-0.6c0.2-0.1,0-0.6,0-0.8
		c-0.3-0.6,0-1.3-0.7-1.8c0,0.2-0.2,0.2-0.3,0.2c0-0.3-0.2-0.3-0.4-0.5c0.1,0,0.1,0,0.2,0c0,0-0.4-0.6-0.1-0.8
		c0.3-0.3-1-1.2-1.2-1.4c-1-0.7-2.4-1.1-3.5-1.2c-0.3,0-3.2,0.2-3.1,0.5c-0.1-0.2-1.9,0.8-1.8,1c-0.3-0.3-1.1,0.9-1,1
		c0,0,0.1,0,0.1,0c-0.1,0-0.5,0.6-0.5,0.6c0,0.2,0.2,0.4,0.2,0.6c-0.3,0.1-0.4,0.3-0.7,0.2c0.1,0.3-0.3,1.1-0.4,1.5
		c-0.1,0.1-0.3-0.1-0.3,0.1c0,0.3,0,0.3,0.3,0.3c-0.7,3,0.8,5.4,2.6,7.5c0.5,0.6,1.1,1.1,1.6,1.6c0.2,0.3,0.5,0.5,0.8,0.7
		c0.1,0.1,0.2,0.4,0.3,0.4c0.6,0.3,1.2,1,1.6,1.5c0.5,0.5,0.8,1.2,1.1,1.8c0.2,0.7,0.2,2.3-0.6,2.7c-0.1,0-0.5,0.3-0.5,0.3
		c0,0.2,0,0.4-0.3,0.3c-0.3-0.1-0.1-0.3-0.5-0.3c-0.3-0.1-0.6-0.2-0.7-0.5c-0.3-0.6-0.8-1.4-0.7-2.1c0-0.3-0.1-0.4-0.1-0.8
		c-0.1-0.4,0-0.6-0.5-0.5c-0.5,0-1,0.1-1.4,0.1c-0.1,0-0.1,0-0.2,0c-0.2,0-0.4,0-0.6,0c0-0.1-0.1-0.1-0.1-0.2
		c-0.1,0.3-0.9,0.2-1.2,0.3c-0.3,0.1-0.6,0-0.9,0c-0.4,0-0.3,0.3-0.3,0.6c0,1.2,0.3,2.4,0.7,3.4c0.7,1.8,2,3,3.5,4
		c0,0.2-0.1,0.2-0.3,0c-0.3-0.1-0.6-0.3-0.8-0.5c0,0.3,0.9,0.6,1.1,0.7c1.2,0.5,2.3,0.6,3.6,0.5c1-0.1,2.1-0.3,3-0.8
		c0.4-0.3,1-0.5,1.3-1c0.2-0.3,0.8-0.9,0.1-1.2c0.1-0.1,0.6-0.6,0.6-0.6c0,0.1,0,0.1,0,0.2c0.1-0.2,0.2-0.2,0.4-0.3
		c0.1-0.3,0-0.6,0-0.9c0.2,0,0.2,0.2,0.5,0.1c0.1-0.2,0.2-0.5,0.2-0.7c0.2-0.6,0.3-1.3,0.3-2c0-0.6-0.7-0.4-0.3-0.8
		c0.3-0.4,0-1.2-0.2-1.7c-0.4-1.2-1-2.4-1.8-3.4c-0.4-0.5-0.8-1-1.3-1.4c-0.2-0.3-1.1-0.7-1.2-1c-0.1-0.3-0.8-0.7-1.1-0.9
		c-0.1-0.1-0.9-0.7-0.9-0.9c0-0.2-0.7-0.8-0.8-1c-0.4-0.6-0.6-1.2-0.7-1.9c0-0.2-0.2-0.5,0-0.7c0.2-0.1,0-0.4,0.1-0.6
		c0.1-0.2,0.6-1.2,0.9-1.1c0.4,0.2,0.9-0.1,1.2,0.4c0.3,0.4,0.5,1.2,0.5,1.6C158.2,49.2,157.9,49.2,157.7,49.1z M148.5,47.6
		c-0.5,0,0.2-0.9,0.2-1c0.1-0.2,0.2-0.8,0.4-0.9c0.1,0,0-0.2,0.2-0.3c0.1,0,1.5-2.5,1.4-2.6c0,0-0.1,0-0.1,0c0-0.1,0-0.1,0-0.2
		c-0.4-0.1-0.9-0.1-1.3,0c0.1,0,0.4-0.1,0.4,0.1c-0.5-0.1-0.9,0-1.4-0.1c-0.3,0-0.7,0-1.1-0.1c-0.5,0-0.9,0-1.4,0
		c-0.3,0-0.8,0.1-1.1,0.1c-0.3,0.6-0.6,1.2-0.9,1.8c-0.2,0.3-0.3,0.6-0.5,0.9c0,0.2,0,0.4,0,0.6c-0.1,0-0.3,0.1-0.3,0.2
		c-0.3,0.3-0.2,0.8-0.7,0.8c-0.2,0-0.4,0-0.7,0c-0.3,0-0.2-0.6-0.2-0.9c0-1-0.1-2,0-3.1c-0.2,0.1-0.1-0.2-0.2-0.2
		c-0.3,0-0.5,0-0.8-0.1c-0.3,0-0.6,0-0.8,0c-0.4,0-0.4,0-0.7,0c-0.6-0.1-1.3,0-1.9,0c-0.3,0-0.6,0.1-0.9,0.1
		c-0.2,0.1-0.1,0.6-0.2,0.8c-0.2,0.3,0.1,1.1,0.1,1.5c0,0.3,0,0.6-0.1,0.9c0,0.2,0,0.3,0,0.5c0,0.3,0,0.3,0.1,0.1
		c-0.3,0.3-0.2,1.2-0.1,1.5c0.1,0.3,0,0.8,0,1.2c0,0.6,0,1.2,0,1.7c0,2,0.1,3.9,0,5.9c0,2.8-0.1,5.5,0,8.3c0,0.9,0,1.8,0,2.7
		c0,0.2,0.1,1.9,0.1,1.8c-0.2,0.1,0.4,0,0.4,0c0.3,0.2,0.7,0.1,1,0.1c0.8,0,1.7,0,2.5,0c0.4,0,0.7,0,1.1,0c0-0.1,0.1-0.2,0.2-0.1
		c0-0.2,0-0.4,0-0.6c0-0.9,0-1.8,0.1-2.7c0-1,0-2,0-3c0-0.5,0-0.9,0-1.4c0-0.6,0.1-0.8,0.4-1.3c0.1,0.4,0.3,0.8,0.4,1.2
		c0.1,0.3,0.6,1,0.5,1.3c0,0,0.3,0.9,0.3,0.9c0,0,0.1,0,0.1,0c0.2,0.2,0.3,1.2,0.4,1.5c0.3,0.7,0.6,1.4,0.8,2c0.2,0.5,0.4,1,0.6,1.5
		c0.1,0.3,0.1,0.2,0.2,0.4c0,0.1,0,0.2,0,0.3c0.1,0,0.2,0,0.3,0c0,0.1-0.1,0.1-0.1,0.2c0.7-0.3,1.9-0.1,2.7-0.1c1.1,0,2.2,0,3.2-0.1
		c0-0.8-0.6-1.8-0.9-2.5c-0.3-0.9-0.6-2.1-1.2-2.9c-0.1-0.2-0.2-0.5-0.3-0.8c-0.2-0.5-0.4-1-0.6-1.6c-0.5-1.2-1-2.5-1.5-3.7
		c-0.5-1.2-0.9-2.4-1.4-3.5c-0.1-0.2-0.2-0.4-0.3-0.6c0.2-0.3,0.3-0.6,0.5-1c0.3-0.6,0.6-1.3,1-1.9c0.3-0.5,0.5-1,0.8-1.6
		c0.1-0.2,0-0.6,0.2-0.6c0.1,0,0.4-0.7,0.5-0.8C148.3,48.1,148.4,47.9,148.5,47.6z M119.3,60.7C119.3,60.6,119.3,60.6,119.3,60.7
		L119.3,60.7z M91.2,69.1C91.2,68.9,91.2,69.3,91.2,69.1C91.2,69,91.2,69.1,91.2,69.1z M89.4,68.9C89.3,68.9,89.4,69,89.4,68.9
		C89.3,68.9,89.4,68.9,89.4,68.9z M91.3,69.1c0.1,0.1,0.3-0.2,0.1-0.2C91.3,68.9,91.3,69,91.3,69.1z M89.9,68.4c0.1,0,0.2,0,0.2-0.2
		C90,68.3,89.9,68.3,89.9,68.4z M89.6,67.7c0.1,0,0.2,0.2,0.3,0C89.8,67.7,89.6,67.5,89.6,67.7z M91.1,67.5c-0.1,0-0.1,0-0.1,0.1
		C91,67.6,91.1,67.6,91.1,67.5z M89.5,67.6c-0.1-0.1-0.2-0.1-0.3-0.1C89.1,67.7,89.5,67.7,89.5,67.6z M88.8,67.8c0,0,0.1-0.2,0-0.2
		C88.8,67.6,88.7,67.7,88.8,67.8z M88.4,67.3c0.1,0.1,0.3,0.2,0.4,0.1C88.9,67,88.6,67,88.4,67.3z M91.1,67.1c0,0.3,0.2,0.1,0.3,0
		C91.4,67,91.2,67.1,91.1,67.1z M89.4,66.6C89.4,66.6,89.5,66.7,89.4,66.6C89.4,66.6,89.4,66.6,89.4,66.6z M89.1,65.6
		c0.1-0.2-0.3-0.2-0.2-0.1C88.9,65.6,89,65.6,89.1,65.6z M90.7,64.1c0.1,0.1,0.5,0.1,0.4-0.1C90.9,63.9,90.5,63.7,90.7,64.1z
		 M88.9,63.6C88.9,63.6,89,63.7,88.9,63.6C88.9,63.6,88.9,63.6,88.9,63.6z M89.3,63.5C90,63.7,89.2,62.8,89.3,63.5
		C89.4,63.6,89.3,63.5,89.3,63.5z M90.4,63.2c0.1,0.4-0.2,0.5,0.3,0.5c-0.1-0.2,0.4-0.6-0.1-0.7C90.6,63.1,90.5,63.2,90.4,63.2z
		 M88.7,62.7C88.7,62.5,88.6,62.9,88.7,62.7C88.7,62.7,88.7,62.7,88.7,62.7z M88.7,61.5C88.6,61.4,88.8,61.5,88.7,61.5
		C88.7,61.4,88.7,61.5,88.7,61.5z M88.7,61.2c0.2,0.1,0.6-0.1,0.4-0.4C89,60.9,88.8,61.1,88.7,61.2z M94.6,59
		C94.5,58.9,94.7,59.1,94.6,59C94.6,59,94.6,59,94.6,59z M88.6,57.2C88.5,57.2,88.6,57.3,88.6,57.2C88.5,57.2,88.6,57.2,88.6,57.2z
		 M88.7,53.9C88.7,53.9,88.7,53.8,88.7,53.9C88.7,53.8,88.7,53.9,88.7,53.9z M88.6,53.5C88.5,53.5,88.6,53.6,88.6,53.5
		C88.5,53.5,88.6,53.5,88.6,53.5z M94.9,53.3C94.9,53.2,95,53.3,94.9,53.3C94.9,53.3,94.9,53.3,94.9,53.3z M94.8,53.2
		C94.8,53.1,94.9,53.2,94.8,53.2C94.8,53.1,94.8,53.2,94.8,53.2z M95.9,51.9C95.9,51.9,96,52,95.9,51.9
		C95.9,51.9,95.9,51.9,95.9,51.9z M95.8,51.4C95.8,51.4,95.9,51.5,95.8,51.4C95.8,51.4,95.8,51.4,95.8,51.4z M95.7,51.4
		c-0.1,0-0.1,0-0.1,0.1C95.6,51.5,95.7,51.5,95.7,51.4z M95.5,51.4c-0.1,0-0.1,0-0.1,0.1C95.4,51.5,95.4,51.5,95.5,51.4z M95,51.4
		C95,51.4,95.1,51.5,95,51.4C95,51.4,95,51.4,95,51.4z M93.9,51.4C93.9,51.4,94,51.5,93.9,51.4C93.9,51.4,93.9,51.4,93.9,51.4z
		 M90.6,51.4C90.6,51.4,90.6,51.5,90.6,51.4C90.6,51.4,90.6,51.4,90.6,51.4z M90.3,51.4C90.2,51.4,90.3,51.5,90.3,51.4
		C90.3,51.4,90.3,51.4,90.3,51.4z M90,51.4c-0.1,0-0.1,0-0.2,0.1C89.9,51.5,90,51.5,90,51.4z M96.8,55.1c-1.3,0.3-2.6,0.1-3.9,0
		c-0.3,0-0.6,0-0.9,0c0,0.3-0.1,0.6-0.1,1c0,0.8,0.1,1.5,0,2.3c0.1-0.1,0.1-0.1,0.1-0.2c0.1,0,0,0.3,0.1,0.3
		c0.7-0.3,1.8-0.1,2.6-0.1c0.7,0,0.7,0,0.7,0.7c0,0.4,0,0.9,0,1.3c0,0.5,0,0.9,0,1.4c0,0.6-0.3,0.6-0.9,0.5c-0.5,0-2.5-0.5-2.5,0.2
		c0,0.9,0.1,1.9,0.1,2.8c0,0.9-0.1,1.7,0,2.6c0,0.1,0,0.2,0,0.3c-0.1,0.2,0,0.2,0,0.5c0,0.7-0.2,0.7-0.8,0.7c-0.9,0-2-0.1-2.9,0.1
		c0.1-0.3-0.1-0.7-0.1-1c0-0.7,0-1.3,0-2c0-0.4-0.1-0.8,0-1.2c0-0.3,0-0.7,0-1c0.1-0.2,0.4,0,0.6,0c0.1-0.5-0.2-0.9-0.6-1.1
		c0-0.7,0-1.4,0-2.2c0-1.4,0-2.9,0-4.3c0-0.7,0-1.4,0-2.1c0-0.4,0-0.7,0-1.1c0.4,0,0.3-0.1,0.4-0.5c0.1-0.5-0.4-0.6-0.4-1.1
		c0-0.5,0.8-0.6,0.7-0.3c0-0.1,0.5-0.2,0.5-0.1c0,0,0,0.1,0,0.1c0,0,0.1,0,0.2,0c0,0,0-0.1,0-0.1c0-0.1,2.4,0.1,2.4,0
		c0,0-0.3,0.1-0.3,0.1c0.3,0.1,2.9-0.5,2.9,0c0-0.1,0.1-0.1,0.1-0.1c0,0,0,0.1,0,0.1c0.2-0.2,1-0.2,1.3-0.1c-0.1,0-0.1,0.1-0.1,0.1
		c0.2,0.1,0.2-0.1,0.4-0.1c-0.1,0.2,0.1,0.1,0.2,0.1c0,0-0.1-0.1-0.1-0.1c0.4-0.2,0.3,1.3,0.3,1.5c0,0.3-0.1,0.9,0.1,1.2
		C96.9,54.4,96.6,54.8,96.8,55.1z M83.7,69.1c-0.1,0-0.1,0-0.2,0C83.6,69.1,83.7,69.1,83.7,69.1z M83.4,69
		C83.4,68.9,83.5,69.1,83.4,69C83.4,69,83.4,69,83.4,69z M84.1,69.2c0-0.1,0.1-0.2,0.1-0.3C83.8,68.9,83.9,69.2,84.1,69.2z
		 M82.3,68.9C82.2,68.8,82.3,68.9,82.3,68.9C82.3,68.9,82.3,68.9,82.3,68.9z M84.3,68.8c0.1-0.1,0.1-0.2-0.1-0.2
		C84.2,68.7,84.2,68.7,84.3,68.8z M79.7,68.1C79.7,68.1,79.8,68.2,79.7,68.1C79.7,68.1,79.7,68.1,79.7,68.1z M85.9,67
		c0-0.2-0.1-0.1-0.2-0.2C85.6,66.9,85.7,67,85.9,67z M81.8,66.7c0,0.2-0.9,0.5-0.3,0.7C82.1,67.6,82.4,66.7,81.8,66.7z M86.8,66.5
		C86.7,66.4,86.8,66.5,86.8,66.5C86.8,66.5,86.8,66.5,86.8,66.5z M86.8,66.3C86.8,66.3,86.9,66.4,86.8,66.3
		C86.8,66.3,86.8,66.3,86.8,66.3z M84.2,66.1c0.1,0,0.3,0,0.4-0.1c0.1-0.3-0.3-0.2-0.4-0.2C84.2,65.9,84.2,66,84.2,66.1z M85.8,65.5
		c0.2,0.1,0.1,0.1,0.4-0.1C86,65.4,85.9,65.4,85.8,65.5z M86.3,65.2C86.3,65.2,86.4,65.3,86.3,65.2C86.3,65.2,86.3,65.2,86.3,65.2z
		 M85.9,63C85.9,62.9,86,63.1,85.9,63C85.9,63,85.9,63,85.9,63z M86.1,63c0-0.2-0.3-0.4-0.4-0.2C86,62.8,85.9,63,86.1,63z
		 M87.3,62.1C87.3,61.9,87.3,62.3,87.3,62.1C87.3,62,87.3,62.1,87.3,62.1z M78.2,59.8C78.1,59.7,78.3,59.9,78.2,59.8
		C78.2,59.8,78.2,59.8,78.2,59.8z M83.6,59.7c0-0.1,0-0.1-0.1-0.2C83.5,59.5,83.5,59.9,83.6,59.7z M83.5,58.4
		C83.5,58.2,83.5,58.6,83.5,58.4C83.5,58.4,83.5,58.4,83.5,58.4z M83.9,56c0.1,0,0.2,0,0.2-0.1C83.9,55.9,83.9,55.9,83.9,56z
		 M86.2,55.6c0.1,0,0.2,0.1,0.2,0.1c0-0.1-0.1-0.2,0-0.3C86.3,55.5,86.2,55.5,86.2,55.6z M83.7,56.1c-0.2-0.5-0.7-1.7-1.5-1
		c-0.5,0.4-0.3,0.7-0.3,1.3c0,0.3-0.3-0.9,0,0.3c0.1,0.3-0.1,0.5-0.1,0.7c0.3,0,0.1,1.7,0.2,2c0.1,0.6,0.4,0,0.6,0.4
		c0,0.3-0.2,0.5-0.4,0.5c-0.4,0.1-0.2,1.9-0.2,2.3c0,0.2,0,0.4,0,0.6c0,0.2-0.3,0.1-0.2,0.3c0.4,0.1,0.3,1,0.3,1.3
		c0,0.5,0.7,1.1,1.2,0.6c0.5-0.6,0.4-1.8,0.3-2.5c0-1.1-0.2-2.2-0.3-3.3c0-1.1,0.1-2.3,0.1-3.4C83.7,56.4,83.9,56.6,83.7,56.1z
		 M82.2,54.9C82.2,54.8,82.3,55,82.2,54.9C82.2,54.9,82.2,54.9,82.2,54.9z M83.3,55c0.2,0,0.3-0.1,0.2-0.3
		C83.3,54.7,83.2,54.8,83.3,55z M78.6,54.4C78.6,54.3,78.7,54.5,78.6,54.4C78.6,54.4,78.6,54.4,78.6,54.4z M82.8,54.2
		C82.7,54.1,82.8,54.2,82.8,54.2C82.8,54.1,82.8,54.2,82.8,54.2z M78.8,54.3c-0.1,0-0.2-0.1-0.3-0.1C78.5,54.3,78.8,54.4,78.8,54.3z
		 M80.2,52.7C80.2,52.7,80.1,52.7,80.2,52.7C80.2,52.8,80.4,52.6,80.2,52.7z M80.1,52.2c-0.1,0-0.1,0-0.1,0.1
		C80,52.2,80.1,52.2,80.1,52.2z M81.7,51.4C81.6,51.3,81.7,51.4,81.7,51.4C81.6,51.4,81.7,51.4,81.7,51.4z M83.3,51.3
		C83.1,51.2,83.4,51.5,83.3,51.3C83.3,51.3,83.3,51.3,83.3,51.3z M82.4,51.3C82.4,51.3,82.4,51.2,82.4,51.3
		C82.4,51.2,82.4,51.3,82.4,51.3z M79.2,52.9c0,0.1-0.1,0.1-0.1,0.2c0-0.1,0.2-0.1,0.2-0.3C79.3,52.7,79.2,52.7,79.2,52.9z
		 M78.7,53.9c0-0.1,0-0.1-0.1-0.1C78.6,53.8,78.7,53.8,78.7,53.9z M84.1,51.6c0.1,0,0.6-0.1,0.7,0.1c0,0.1,0,0.3,0.2,0.1
		c-0.1,0.2,0.5,0,0.4,0.4c0.1,0,0.1,0,0.2,0c0,0.1,0.2,0.2,0.3,0.3c0.4,0.3,0.8,0.9,1,1.4c0.1,0.4,0.2,0.7,0.3,1.1
		c0.1,0.3-0.1,0.4,0,0.8c0.1,0.3-0.1,0.6,0,0.8c0,0,0.1,0.4,0.1,0.3c-0.2,0-0.2,0.1,0,0.3c0,0.1-0.1,0.3-0.2,0.4
		C87,57.7,87,57.8,87.1,58c0.2,0.4,0.2,0.1,0.2,0.6c0.1,1.1,0,2.1,0.1,3.2c0,0-0.1-0.1-0.1-0.1c-0.2,0.1,0.1,0.7,0,0.9
		c-0.1,0.2-0.2,0.6-0.5,0.5c-0.4-0.1,0.1-0.4,0.2-0.4c0-0.2-0.5-0.3-0.5-0.3c0,0.1,0.2,0.1,0.1,0.3c-0.1-0.1-0.1-0.1-0.2-0.1
		c0.2,0.3,0.5,0.7,0.6,1c0.1,0.2,0.4,0.1,0.2,0.4c-0.1,0.1-0.1,0.3,0,0.5c0.2,0.3,0,0.9,0,1.3c0,0.3-0.1,0.6-0.2,0.9
		c-0.1,0.2-0.4,0.3-0.3,0c-0.3,0,0,0.3,0,0.3c0.1,0.1-0.3,0.3-0.3,0.5c-0.1,0-0.1,0-0.1-0.1c-0.1,0.1-0.1,0.1,0,0.2
		c0.1,0.2-0.3,0.1-0.4,0.2c-0.2,0-0.3,0.5-0.5,0.4c0,0.1,0,0.2,0,0.3c-0.2-0.1-0.2,0-0.3,0.1c0-0.1-0.1-0.1-0.2-0.1
		c0.2,0.1-0.4,0.7-0.5,0.9c0-0.1,0-0.1,0-0.2c-0.2,0.2-0.1-0.2-0.2,0.2c-0.5-0.2-0.9,0.3-1.3,0.4c-0.3,0-0.6,0.1-0.7,0
		c-0.2-0.1-0.6-0.2-0.9-0.1c0.2-0.2-0.4-0.3-0.5-0.4c-0.3-0.1-0.6-0.5-0.8-0.6c-0.5-0.3-0.7-0.7-1-1.2c-0.4-0.6-0.5-1-0.6-1.7
		c-0.1-0.4-0.1-0.7-0.1-1.1c0-0.1-0.1-0.8-0.2-0.8c0.2-0.3,0-0.5,0-0.9c0-0.6,0-1.1,0-1.7c0-0.4,0.1-1-0.3-1.1
		c-0.7-0.1,0-0.5-0.2-0.7c0.6,0,0.1,0.1,0.4,0.4c0.1-0.2,0.1-0.6,0-0.8c0-0.1,0-0.2,0-0.3c-0.1-0.1-0.1-0.1-0.2,0
		c0.1,0,0.2-3.1,0.2-3.4c0-0.2,0.6-2.2,0.9-2c-0.3-0.2,0.5-0.7,0.7-0.7c-0.1-0.1-0.1-0.1,0-0.2c0.1,0.1,0.2-0.1,0.2,0
		c0-0.4,0.3-0.4,0.5-0.4c-0.1,0,0.1-0.3,0.1-0.2c0,0,0,0.1,0,0.1c0.1,0,0.1-0.1,0.2-0.1c0-0.1-0.1,0.1-0.1,0c0-0.2,0.6-0.2,0.7-0.3
		c0,0,0.4-0.1,0.5-0.2c0.1,0,0.3,0,0.3,0.1c0-0.2,0.3-0.2,0.4-0.2c0,0.4,0.7-0.2,0.9,0.2c-0.1,0,0.3-0.1,0.3-0.1
		C84.1,51.4,84,51.5,84.1,51.6z M105.1,60.4C105.1,60.4,105.1,60.4,105.1,60.4C105.1,60.4,105.1,60.4,105.1,60.4z M124.4,69.2
		C124.4,69.2,124.5,69.3,124.4,69.2C124.4,69.2,124.4,69.2,124.4,69.2z M121.7,69.2C121.6,69.1,121.8,69.3,121.7,69.2
		C121.7,69.2,121.7,69.2,121.7,69.2z M125.2,69.2C125.2,69,125.2,69.3,125.2,69.2C125.2,69.1,125.2,69.2,125.2,69.2z M132.2,69.3
		c0.3,0,0.3-0.3,0-0.2C132.2,69.1,132.2,69.2,132.2,69.3z M130.9,67.9c0,0.2,0.3,0.2,0.4,0.1C131.3,67.8,131,67.8,130.9,67.9z
		 M130.2,68.1c0-0.1,0.1-0.3-0.2-0.2C130,68,130.1,68.1,130.2,68.1z M131.6,67.6c0.1,0.1,0.3,0.1,0.3,0
		C131.8,67.6,131.6,67.5,131.6,67.6z M125.3,67.4c0,0.2,0.2,0.2,0.3,0.2C125.7,67.4,125.4,67.2,125.3,67.4z M129.1,67
		C129,66.9,129.1,67,129.1,67C129,66.9,129.1,67,129.1,67z M122.6,66.8c0,0.3,0.5,0.4,0.4-0.1C122.8,66.7,122.7,66.7,122.6,66.8z
		 M133.1,66.1c0.2,0,0.1,0.4,0.5,0.2C134,66,133.2,65.7,133.1,66.1z M134.7,65.4c-0.1,0-0.1,0-0.1,0.1
		C134.6,65.5,134.6,65.5,134.7,65.4z M134.7,65.5c0.1,0.1,0.2,0.1,0.2-0.1C134.9,65.3,134.8,65.4,134.7,65.5z M123.3,65.4
		c-0.2,0-0.4,0.1-0.4,0.3c-0.1,0.3,0.3,0.3,0.5,0.4C123.6,65.8,123.3,65.6,123.3,65.4z M133.9,65.2c0.3,0,0.5,0.1,0.5-0.4
		C134.1,64.8,133.9,64.9,133.9,65.2z M128.7,64.6C128.7,64.4,128.6,64.8,128.7,64.6C128.7,64.6,128.7,64.6,128.7,64.6z M124.1,64.8
		C124.8,65,124.1,64.1,124.1,64.8C124.3,64.8,124.1,64.8,124.1,64.8z M121.2,59.5c0.1,0,0.1,0.2,0.3,0.1
		C121.5,59.4,121.3,59.3,121.2,59.5z M120.8,56.9C120.7,56.9,120.9,57,120.8,56.9C120.8,56.9,120.8,56.9,120.8,56.9z M123.4,56.3
		c0.1,0.3,0.4,0.4,0.6,0.1C124.4,56,123.5,55.9,123.4,56.3z M129.7,55.9c0.2,0.1,0.5-0.1,0.6-0.3C130.1,55.6,129.9,55.8,129.7,55.9z
		 M130,55.4C129.9,55.4,130.1,55.5,130,55.4C130,55.4,130,55.4,130,55.4z M120.9,54.9c0,0.2,0.3,0.5,0.4,0.2
		C121.4,54.8,121,54.7,120.9,54.9z M126.6,54.8c0,0.4,0.4,0.3,0.5,0.1C127,54.7,126.8,54.8,126.6,54.8z M126.8,54.6
		c0-0.2,0.1-0.1,0.1-0.2C126.7,54.3,126.5,54.6,126.8,54.6z M131.1,53.8C131.8,53.8,131.1,53.5,131.1,53.8
		C131.2,53.8,131.1,53.8,131.1,53.8z M132.4,53.4c0-0.1-0.1-0.1-0.1,0C132.4,53.5,132.4,53.5,132.4,53.4z M130.8,53.1
		c0.2,0,0.2,0,0.2-0.2C131,52.9,130.9,53,130.8,53.1z M126.9,53C127.2,53,126.9,52.7,126.9,53C126.9,53,126.9,53,126.9,53z
		 M131.4,52.8c-0.1,0-0.1,0-0.1,0.1C131.3,52.9,131.4,52.8,131.4,52.8z M133.1,52.7c0-0.2-0.1-0.2-0.2-0.3
		C132.9,52.6,133,52.7,133.1,52.7z M132.3,52.5c0-0.2-0.1-0.1-0.2-0.2C132,52.5,132.1,52.5,132.3,52.5z M131.9,52.5
		c0,0.2-0.6,1.3,0,1.1C132.2,53.5,132.3,52.5,131.9,52.5z M132.3,52.2c-0.1,0-0.1,0-0.1,0.1C132.2,52.2,132.2,52.2,132.3,52.2z
		 M133.8,52.6c0.1-0.3-0.1-0.9-0.3-0.5C133.3,52.4,133.5,52.7,133.8,52.6z M120.6,52c-0.1,0.1-0.1,0.1,0,0.2
		C120.7,52.2,120.7,52.1,120.6,52z M132.4,52C132.5,52,132.4,52,132.4,52C132.4,52.1,132.4,52.1,132.4,52z M127.6,51.7
		C127.5,51.6,127.6,51.7,127.6,51.7C127.6,51.7,127.6,51.7,127.6,51.7z M131.1,51.6c0,0.2,0.2,0.3,0.4,0.2
		C131.5,51.6,131.3,51.5,131.1,51.6z M126.4,51.6c0.1,0,0.3-0.1,0.2-0.3C126.4,51.3,126.4,51.4,126.4,51.6z M125.5,50.7
		C125.5,50.6,125.6,50.8,125.5,50.7C125.5,50.7,125.5,50.7,125.5,50.7z M130,48.1c0-0.1-0.1-0.1-0.1,0
		C129.9,48.2,129.9,48.2,130,48.1z M129.9,45.9c0,0,0.1-0.2-0.1-0.2C129.8,45.8,129.9,45.9,129.9,45.9z M133.7,44.3
		c0,0,0.2-0.2-0.1-0.2C133.7,44.2,133.7,44.3,133.7,44.3z M133.5,43.9c0,0.3,0.4,0.2,0.4,0C133.7,43.8,133.6,43.8,133.5,43.9z
		 M132,43.7c0,0-0.1,0-0.1,0C131.9,43.8,132,43.8,132,43.7z M130.2,42.7c-0.1,0-0.1,0-0.1,0C130.1,42.8,130.1,42.8,130.2,42.7z
		 M125.7,69.6c-0.1,0-0.8,0.1-0.9,0c0,0,0.1-0.1,0-0.2c-0.3,0-0.3,0.2-0.4,0.2c-0.4,0-0.8,0-1.2,0.1c-0.5,0-1,0-1.5,0
		c-0.4,0-0.9,0.1-1.3,0c0.1,0,0.1-0.1,0.1-0.2c-0.1,0-0.1,0-0.2-0.1c0-0.2,0-0.4,0-0.6c0-0.2-0.1-1.2,0-1.3c0,0-0.1-0.5-0.1-0.5
		c0-0.2,0.1-0.3,0.1-0.5c0-0.2-0.1-0.5-0.1-0.7c0-1,0-1.9,0-2.9c0.1-1.1-0.1-2.1,0-3.2c0.1-1,0-2.1,0-3.2c0-1.4,0-2.7,0-4.1
		c0-1.3,0-2.5,0-3.8c0-0.7,0-1.3,0-2c0-0.2,0.1-0.6-0.1-0.7c-0.2,0-0.4,0-0.5-0.1c0.1-0.3,0.5-0.3,0.7-0.2c0-0.5,0-0.9,0-1.4
		c0-0.5-0.2-1.4,0.3-1.5c0.6-0.1,1.2-0.1,1.8-0.1c0.2,0,0.4,0.2,0.6,0c0.1,0,0,0.2,0.1,0.2c0,0,0-0.1,0.1-0.1c0,0,0,0.1,0,0.1
		c0.1,0,0.2,0,0.3,0c0.3,0,0.4,0.3,0.6,0.2c0.6,0,0.9-0.3,1.5-0.3c0.3,0,0.3,0.2,0.5,0.5c0.2,0.7,0.4,1.5,0.6,2.2
		c1.1,3.1,1.8,6.3,2.8,9.4c0.1-0.9,0.1-2,0-2.8c-0.1-0.6,0.1-1.2,0-1.8c0-0.3-0.2-0.3,0.1-0.5c0.1,0,0.1-0.3,0.1-0.3
		c0,0-0.1,0.1-0.1,0.1c0.1,0-0.1-2.5,0-2.8c0-0.4,0-0.7,0-1.2c0-0.5,0-1,0-1.5c0-0.4,0-0.9,0.1-1.3c0.5-0.1,1.1-0.2,1.5-0.1
		c0.3,0.1,0.7-0.1,1.1-0.1c0.5,0,1,0,1.5,0c0.2,0,1.2-0.1,1.1,0.2c-0.1,0.2,0.3,0.4-0.1,0.7c-0.4,0.3-0.3,0.6,0.1,0.8
		c0.3,0.2,0.1,1.1,0.2,1.5c0,1.1,0,2.3,0,3.4c0,0.1-0.1,1.3-0.1,1.3c0.3,0.1,0.1,1.2,0.1,1.5c0,0.5,0,1.1,0,1.6c0,0.4,0.1,1.2,0,1.6
		c0,0.2-0.2,0-0.1,0.2c0.1,0.1,0.1,0.3,0.1,0.4c0,0.3,0.1,0.8-0.2,1c-0.1,0.1-0.3,0.2-0.4,0.4c0,0.2,0.2,0,0.2,0.1
		c0.4,0.3,0.3,0.8,0.3,1.3c0,0.7,0,1.3-0.1,2c0,0.3-0.1,0.8,0,1.1c0.1,0.1,0.1,0.6,0,0.8c-0.1,0.5,0,1.2,0,1.6c0,1.3-0.1,2.6-0.1,4
		c0,0.3,0,0.7,0,1c0,0.5-0.2,0.4-0.6,0.4c-0.6,0-1.3,0-1.9,0c-0.7,0-1.3,0-2,0.1c-0.2,0-0.7,0-1,0c0.1-0.3,0.1-0.1-0.1-0.4
		c-0.1-0.3-0.2-0.6-0.3-0.9c0-0.2-0.2-0.7-0.3-1c-0.2-0.6-0.4-1.1-0.6-1.7c-0.7-2-1.4-4.1-1.9-6.1c-0.1-0.4-0.4-0.8-0.4-1.3
		c-0.1-0.4,0.2-0.4,0.4-0.8c0.2-0.4-0.4-0.1-0.5-0.1c-0.2,0-0.1,1.2-0.1,1.3c-0.1,0.9,0.1,1.8,0,2.7c0,0.3,0.1,2.6,0,2.6
		c0,0-0.1,0-0.1,0c0,0,0.1,0.6,0,0.6c0,0,0.1,0,0.1,0c0,0.1-0.1,0.7-0.1,0.7c0,0,0.1,0.1,0.1,0.1C125.9,66.6,125.8,68.2,125.7,69.6z
		 M115.5,69.1C115.4,69.1,115.6,69.2,115.5,69.1C115.5,69.1,115.5,69.1,115.5,69.1z M107,69.1C106.8,69,107.1,69.2,107,69.1
		C107,69.1,107,69.1,107,69.1z M114.4,69.1C114.4,68.9,114.3,69.3,114.4,69.1C114.4,69,114.4,69.1,114.4,69.1z M118.3,68.5
		C118.3,68.4,118.4,68.6,118.3,68.5C118.3,68.5,118.3,68.5,118.3,68.5z M104.6,68.3C104.6,68.2,104.7,68.3,104.6,68.3
		C104.6,68.2,104.6,68.3,104.6,68.3z M104.7,68.1C104.7,68.1,104.8,68.2,104.7,68.1C104.7,68.1,104.7,68.1,104.7,68.1z M104.7,68
		C104.7,67.8,104.7,68.2,104.7,68C104.7,68,104.7,68,104.7,68z M109.2,67.1c0.3-0.4-0.2-0.7-0.5-0.7C108.7,66.8,109,66.9,109.2,67.1
		z M108.2,66c0,0.3,0.2,0.2,0.4,0.2C108.7,65.9,108.4,65.9,108.2,66z M119,66c0-0.2,0.2-0.2-0.1-0.4C118.9,65.7,118.8,66,119,66z
		 M105.1,65.4C105,65.3,105.3,65.5,105.1,65.4C105.1,65.4,105.1,65.4,105.1,65.4z M105.7,62.2C105.6,62.1,105.8,62.3,105.7,62.2
		C105.7,62.2,105.7,62.2,105.7,62.2z M117.6,60.9c0,0.3-0.3,0.9-0.1,1c0.1-0.2,0.4-0.2,0.5-0.4c0.2-0.4-0.2-0.2-0.2-0.4
		c0-0.2,0.3-0.1,0.4-0.3C118,60.7,117.7,60.8,117.6,60.9z M116.5,60.8c-0.7-0.1-1.3,0.7-0.4,0.9C116.7,61.8,116.9,61.1,116.5,60.8z
		 M117.9,60.7c0.3,0,0.3,0,0.3-0.3C118,60.4,117.9,60.5,117.9,60.7z M115.1,59.5c-0.3,0.1-0.4,0.5-0.1,0.7
		C115.5,60.6,115.5,59.7,115.1,59.5z M112.1,58.9C112,58.8,112.2,59,112.1,58.9C112.1,58.9,112.1,58.9,112.1,58.9z M111.9,58.9
		C111.8,58.8,112,59,111.9,58.9C111.9,58.9,111.9,58.9,111.9,58.9z M117.7,58.4c0,0.1,0.2,0,0.2,0C117.9,58.3,117.7,58.3,117.7,58.4
		z M114.9,58.8c0.1,0.1,0.3,0,0.4,0.2c-0.4,0.1,0.2,0.2,0.2,0.2c-0.1-0.2,0.1-0.7-0.1-0.7c-0.1,0-0.2-0.3-0.2-0.3
		C115.1,58.4,114.9,58.6,114.9,58.8z M112,55.6c-0.1,0.6-0.2,1.2-0.3,1.8c0,0.3-0.1,0.6-0.1,0.9c0.3,0.1,0.6-0.1,0.9-0.1
		c0-0.4-0.1-3.7-0.4-3.8C112,54.9,112.1,55.3,112,55.6z M116.7,53.2c0.1,0,0.2,0,0.2-0.1C116.7,53,116.7,53,116.7,53.2z M110,53
		C110,52.9,110,53.1,110,53C110,52.9,110,53,110,53z M108.2,47.2C108.2,47.2,108.3,47.3,108.2,47.2
		C108.2,47.2,108.2,47.2,108.2,47.2z M108.3,46.4C108.3,46.4,108.3,46.4,108.3,46.4C108.3,46.4,108.3,46.4,108.3,46.4z M108.9,46.1
		C108.9,46,108.9,46.3,108.9,46.1C108.9,46.1,108.9,46.1,108.9,46.1z M109.1,45C109,45,109.1,45.1,109.1,45
		C109.1,45,109.1,45,109.1,45z M109.1,44.9C109.1,44.8,109.2,45,109.1,44.9C109.1,44.9,109.1,44.9,109.1,44.9z M108.7,44.8
		C108.7,44.6,108.6,44.9,108.7,44.8C108.7,44.7,108.7,44.8,108.7,44.8z M109.1,44.6C109.2,44.6,109.1,44.6,109.1,44.6
		C109.1,44.6,109.1,44.6,109.1,44.6z M108.7,44.3C108.7,44.2,108.8,44.3,108.7,44.3C108.7,44.3,108.7,44.3,108.7,44.3z M108.8,43.7
		C108.7,43.6,109,43.8,108.8,43.7C108.8,43.6,108.8,43.7,108.8,43.7z M108.9,43.3C108.9,43.2,108.9,43.4,108.9,43.3
		C108.9,43.3,108.9,43.3,108.9,43.3z M109,42.8C108.8,43,109.1,42.7,109,42.8C108.8,43,109,42.8,109,42.8z M115.2,42.7
		c-0.1,0-0.1,0-0.1,0C115.2,42.8,115.2,42.8,115.2,42.7z M115.1,42.7c-0.1-0.1-0.2-0.1-0.2,0C114.9,42.8,115,42.8,115.1,42.7z
		 M109.5,42.7c-0.1,0-0.1,0-0.1,0C109.4,42.8,109.5,42.8,109.5,42.7z M109.3,42.7c-0.1,0-0.1,0-0.2,0
		C109.2,42.8,109.2,42.8,109.3,42.7z M104.8,66.8C104.9,66.8,104.9,66.8,104.8,66.8c0,0.1,0.5-0.2,0.1-0.2c0,0,0.1-1.5,0.2-1.6
		c0,0,0.1,0.1,0.1,0.1c0.1-0.4,0-0.8,0.3-1.2c-0.1,0.2,0-0.6-0.1-0.4c0-0.4,0.2-0.8,0.2-1.2c0-0.2,0.1-1.2,0.3-1.1
		c-0.2-1.3,0.3-2.8,0.6-4c0.2-1.4,0.5-2.7,0.7-4.1c0.2-1.4,0.5-2.8,0.7-4.1c0.1-0.8,0.3-1.5,0.4-2.3c0.1-0.3,0.1-0.6,0.2-1
		c0.4,0,0.5,0,0.5,0.4c0.1-0.1,0.1-0.2,0.1-0.3c0.1,0.1,0.7-0.1,0.9-0.1c0-0.2-0.2-0.2-0.4-0.2c-0.3,0.1-0.1-0.1-0.3-0.3
		c-0.2-0.1-0.3-0.1-0.5-0.2c0-0.3,0-0.6,0-0.9c0-0.1,0-0.5,0.2-0.5c-0.2-0.3-0.1-0.8,0.3-0.8c0.2,0,1.3-0.3,1.3,0.1
		c0,0,0.4-0.3,0.4-0.1c0,0,0,0.1-0.1,0.1c0-0.2,1.6-0.3,1.7,0c0.1,0,0.2-0.3,0.2,0c0.1-0.4,2.4-0.1,2.7-0.1c-0.1,0.2,0,0.1,0.1,0.1
		c0,0-0.1,0.1-0.1,0.2c0,0,0.1,0,0.1,0c0,0-0.2,0.3-0.1,0.4c0.1,0.1,0.2,0.3,0.2,0.6c0.1,0.5,0,1.4,0.3,1.7c0.1,0.1,0,0.5,0,0.6
		c0.3,0.2,0.3,1,0.3,1.3c0.2,1.1,0.4,2.2,0.6,3.4c0.1,1.1,0.3,2,0.5,3c0,0.1,0.4,1.6,0,1.4c-0.3-0.1-0.5,0.1-0.5,0.4
		c0,0.5,0.4,0.1,0.6,0c-0.1,0.2,0,0.4,0.3,0.5c0.1,0.4,0.1,0.8,0.2,1.1c0.1,0.3,0,0.7,0.1,1c0,0,0.1,0.5,0.1,0.5
		c-0.3-0.1-0.6-0.1-0.9,0c0,0.7,0.5,0.4,1,0.5c0.2,0.7,0.4,1.6,0.4,2.4c0,0.7,0.3,1.6,0.4,2.4c0.1,0.6,0.2,1.1,0.3,1.7
		c0.1,0.8,0.2,1.6,0.5,2.3c0.1,0.4,0.1,0.9,0.2,1.3c-0.3,0.2-1,0.1-1.3,0.2c-0.8,0-1.6,0-2.4,0c-0.4,0-1.4-0.1-1.7,0.1
		c0,0,0.1-0.1,0.1-0.1c-0.1,0-0.1,0-0.2,0c-0.1-0.2-0.1-0.6-0.1-0.8c-0.1-0.5-0.2-1-0.2-1.4c-0.1-0.5-0.2-1-0.2-1.6
		c-0.1-0.6-0.4-1.3-0.2-1.9c-0.6,0.1-1.2,0-1.8,0c-0.3,0-0.6,0-0.9,0.1c0,0.4-0.1,0.8-0.2,1.1c-0.3,1-0.4,2.2-0.7,3.3
		c-0.1,0.5,0.1,1.2-0.6,1.3c-0.5,0.1-1,0-1.6,0.1c-0.7,0-1.3,0-2,0c-0.3,0-0.6,0-0.9,0c-0.1,0-0.5,0.1-0.6,0.1
		c0.1-0.2,0.1-0.2-0.1-0.3c0-0.3,0.1-0.6,0.2-0.9C104.6,67.9,104.7,67.3,104.8,66.8z M102.3,69c-0.1,0-0.1,0-0.1,0.1
		C102.2,69.1,102.3,69,102.3,69z M98.9,68.9C98.7,68.8,99,69,98.9,68.9C98.8,68.9,98.9,68.9,98.9,68.9z M103.1,68.6
		C103,68.5,103.2,68.6,103.1,68.6C103.1,68.6,103.1,68.6,103.1,68.6z M99.6,68.4c-0.1,0-0.1,0-0.1,0.1
		C99.5,68.4,99.6,68.4,99.6,68.4z M102.2,68c-0.1,0.2,0.3,0.3,0.3,0.1C102.4,68.1,102.2,68,102.2,68z M99.1,67.6
		C99,67.5,99.2,67.6,99.1,67.6C99.1,67.6,99.1,67.6,99.1,67.6z M101.4,67.9c0.3,0,0.4-0.1,0.4-0.4C101.5,67.4,101.3,67.6,101.4,67.9
		z M100.1,67c0.2,0,0.2-0.3,0-0.2C100.1,66.8,100,66.9,100.1,67z M102.6,64.4c0.3,0.1,0.6-0.4,0.2-0.4
		C102.5,63.9,102.3,64.2,102.6,64.4z M102.1,63.4c0.4,0.1,0.4,0,0.4-0.4C102.3,63.1,102.1,63.2,102.1,63.4z M98.9,59.8
		c0.1,0,0.1,0.1,0.2,0.1c0-0.1,0.1-0.2,0.1-0.2C99,59.7,99,59.7,98.9,59.8z M101.6,51.4c0.1,0,0.5,0.1,0.6-0.1
		c-0.1-0.1-0.3-0.1-0.4-0.2C101.8,51.2,101.6,51.2,101.6,51.4z M101.1,51.1C101.1,51.1,101.1,51.2,101.1,51.1
		C101.1,51.1,101.1,51.1,101.1,51.1z M100.9,51.1C100.9,50.9,100.9,51.2,100.9,51.1C100.9,51,100.9,51.1,100.9,51.1z M98.2,50.9
		C98.2,50.8,98.2,50.8,98.2,50.9C98.1,51,98.1,51,98.2,50.9z M100.5,51.4c0.3,0.1,0.4-0.4,0.3-0.6C100.8,50.7,100.4,51.2,100.5,51.4
		z M100.7,50.6C100.6,50.6,100.8,50.7,100.7,50.6L100.7,50.6z M101.8,50.8C101.9,50.2,101.3,50.8,101.8,50.8
		C101.8,50.6,101.8,50.8,101.8,50.8z M101.5,50.5C101.5,50.5,101.5,50.5,101.5,50.5C101.5,50.5,101.5,50.5,101.5,50.5z M101.1,50.7
		c0.1-0.1,0.1-0.1,0-0.2C101,50.6,101,50.6,101.1,50.7z M100.8,50.4C100.7,50.4,100.8,50.5,100.8,50.4
		C100.7,50.4,100.8,50.4,100.8,50.4z M101.6,50.4C101.6,50.3,101.7,50.4,101.6,50.4C101.6,50.4,101.6,50.4,101.6,50.4z M101.3,50.3
		C101.2,50.3,101.3,50.4,101.3,50.3C101.2,50.3,101.3,50.3,101.3,50.3z M105.9,46.3c-0.1-0.2,0.1-0.1,0.2-0.2
		C106,45.9,105.7,46.2,105.9,46.3z M105.3,45.6C105.3,45.6,105.4,45.7,105.3,45.6C105.3,45.6,105.3,45.6,105.3,45.6z M105.5,45.5
		c0,0.1,0,0.1,0,0.2C106.1,45.8,105.6,45.2,105.5,45.5z M107.2,42.7c-0.1,0-0.1,0-0.1,0C107.1,42.8,107.1,42.8,107.2,42.7z
		 M107,42.7c-0.1-0.1-0.2-0.1-0.2,0C106.9,42.8,106.9,42.8,107,42.7z M105.7,42.7c-0.1,0-0.1,0-0.1,0
		C105.6,42.8,105.7,42.8,105.7,42.7z M105.3,42.7C105.3,42.7,105.3,42.7,105.3,42.7C105.3,42.7,105.3,42.7,105.3,42.7z M94.4,42.7
		C94.4,42.7,94.4,42.7,94.4,42.7C94.3,42.7,94.4,42.7,94.4,42.7z M105.8,42.7C105.8,42.6,105.9,42.7,105.8,42.7
		C105.8,42.7,105.8,42.7,105.8,42.7z M106.8,45.9c0.2,0.1,0.2,0,0.2-0.1C106.9,45.7,106.8,45.8,106.8,45.9z M97.6,42.6
		c0.1,0.3,0.6,0.1,0.8,0.1c0.4-0.2,0.4,0.2,0.7,0c0.5-0.2,1.1,0.1,1.6,0c0.5-0.1,1.2,0.2,1.7-0.1c0.1,0,0.2,0.2,0.3,0.2
		c0-0.1,0.1-0.1,0.1-0.2c0.2,0,0.5,0,0.7,0c0.3,0,0.6,0,0.9,0c0.5,0,0.1,0.1,0.4,0.2c0-0.1,0-0.1,0-0.2c0.5,0,0.9,0,1.4,0
		c0,0.1,0,0.1,0.1,0.2c0-0.1,0.2-0.2,0.2-0.2c0,0,0,0.1,0,0.1c0.4,0.1,0.7-0.2,1.1-0.1c0.2,0.6,0.1,1.2,0.1,1.8c0,0.6-0.1,0.6-0.5,1
		c-0.3-0.1-0.9-0.3-1.1,0.1c0.2,0.2,0.9,0.2,1.1,0.1c0.6-0.1,0.4,1.1,0.4,1.5c0,0.6-0.1,1-0.8,0.9c-0.6,0-1.1-0.2-1.7-0.1
		c-0.3,0-1.4-0.1-1.5,0c-0.3,0.3-0.1,1.5-0.1,2.1c0,0.4,0.2,1.9,0,2.1c-0.4,0.3,0.1,1.3,0.1,1.8c0,0-0.1-0.1-0.1-0.1
		c0.1,0,0.1,1.6,0.2,1.7c0.1,0.9,0.1,1.7,0,2.6c-0.1,1.3-0.1,2.7,0,4.1c0,1.6,0,3.3,0,4.9c0,0.2,0.1,1,0,1.2c-0.2,0.2-0.1,0.2,0,0.5
		c0.2,0.8-0.6,0-0.9,0c0-0.2-0.1-0.3,0-0.4c-0.4,0.3,0,0.6-0.3,0.8c0-0.2-0.8,0.3-1,0.3c-0.6,0-1.3,0-1.9,0c-0.3,0-0.6,0-1,0
		c-0.5-0.1-0.4-0.6-0.4-1.1c0-0.9,0-1.8,0-2.7c0.2,0.1,0.5-0.2,0.7-0.2c0-0.1-0.1-0.2-0.2-0.2c-0.3-0.1-0.1-0.2-0.3-0.3
		c-0.2-0.1-0.1-0.2-0.1-0.4c-0.1-0.2-0.1,0-0.3-0.1c0.1-0.3,0.3,0.3,0.3-0.3c0-0.3,0-0.5,0-0.8c0-0.6,0-1.2,0-1.7c0-1.2,0-2.5,0-3.7
		c0-0.6,0-1.2,0-1.8c0-0.3,0-0.5,0-0.8c0,0.1-0.1-0.4-0.1-0.3c0-0.1,0.1-0.3,0.1-0.5c0-0.3,0-0.5,0-0.8c0-0.2-0.1-1.1,0.1-1.1
		c0,0-0.1-0.4-0.1-0.4c0-0.3,0.1-0.5,0.1-0.8c0-0.1-0.1-0.4-0.1-0.6c0,0,0.1-0.6,0-0.5c0.1-0.2,0-0.6,0-0.9c0-0.5,0.1-1.1,0.1-1.4
		c-0.9-0.3-2.2,0-3.1,0c-0.3,0-1.1,0.1-1-0.3c0-0.3-0.1-1.1,0.1-1.3c-0.1-0.2-0.2,0.2-0.1-0.3c0-0.4,0-0.8,0.1-1.2
		c0.1-0.3,0-0.6,0.1-0.9c0,0-0.3-0.2,0-0.2c0.1-0.2-0.2,0-0.1-0.3c0.1-0.3,0.1-0.7,0.1-1c-0.1,0-0.1,0.1-0.1,0.1
		c-0.3-0.3,0.4-0.3,0.4-0.3C94.5,42.9,97.1,42.5,97.6,42.6z M64.3,69.1c0,0.1,0,0.1,0,0.2C64.6,69.3,64.4,68.9,64.3,69.1z M63.8,69
		C63.8,68.9,63.9,69.1,63.8,69C63.8,69,63.8,69,63.8,69z M63.9,68.9C64,69,64,69,63.9,68.9C63.9,68.9,63.8,68.8,63.9,68.9z
		 M64.4,68.9C64.4,68.7,64.4,69.1,64.4,68.9C64.4,68.8,64.4,68.9,64.4,68.9z M65.6,68.7c0.1,0,0.2,0,0.3-0.1
		C65.7,68.6,65.6,68.6,65.6,68.7z M63.6,68.8c0.3,0,0.2-0.2,0.1-0.3C63.7,68.6,63.7,68.7,63.6,68.8z M64.3,68.1
		c0.1-0.2,0.2,0.2,0.2-0.2C64.4,67.8,64,68,64.3,68.1z M64.4,67.8c-0.1,0-0.1,0-0.1,0.1C64.3,67.8,64.4,67.8,64.4,67.8z M63.9,64.7
		c0.1,0,0.2,0,0.2-0.1C64,64.5,63.9,64.6,63.9,64.7z M68.4,64.7c0-0.1-0.1-0.2-0.1-0.2C68.3,64.6,68.3,64.6,68.4,64.7z M69,64.3
		c-0.1,0-0.4-0.1-0.4,0.1C68.8,64.3,69,64.5,69,64.3z M68.1,57.2C68.1,57.2,68.1,57.2,68.1,57.2C68.1,57.2,68.1,57.2,68.1,57.2z
		 M73.3,56.7c-0.1,0-0.1,0-0.1,0.1C73.2,56.8,73.3,56.7,73.3,56.7z M72.5,56.8c0.2-0.1,0.4,0.1,0.5-0.1c-0.1,0-0.6-0.3-0.5-0.4
		C72.5,56.5,72.5,56.6,72.5,56.8z M73.3,56.2c0-0.1-0.1-0.1-0.1,0C73.2,56.2,73.2,56.2,73.3,56.2z M74.9,55.8
		c0.1-0.1,0.3-0.1,0.2-0.3C75.1,55.4,74.7,55.6,74.9,55.8z M71.9,55.1c-0.1,0-0.1,0-0.1,0.1C71.9,55.1,71.9,55.1,71.9,55.1z
		 M74.5,55C74.3,54.8,74.5,55.1,74.5,55C74.4,54.9,74.5,55,74.5,55z M74.3,54.2C74.2,54.1,74.3,54.2,74.3,54.2
		C74.2,54.1,74.3,54.2,74.3,54.2z M75.6,53.3c0.2,0.2,0.4,0,0.4-0.2C75.8,52.9,75.6,53.1,75.6,53.3z M71.8,50.8c0-0.1,0-0.2-0.1-0.2
		C71.7,50.7,71.7,50.7,71.8,50.8z M63.5,49.6c0-0.1-0.1-0.1-0.1,0C63.4,49.7,63.4,49.7,63.5,49.6z M63.5,49.4
		C63.5,49.4,63.5,49.4,63.5,49.4C63.5,49.4,63.5,49.4,63.5,49.4z M68.2,57.2c0.3,0.1,0.2,0.4,0.2,0.7c0,0.4,0.3,0.7,0.4,1.2
		c0,0.2-0.1,1.5-0.1,1.5c0-0.1,0-0.1-0.1-0.2c0.1,0.6-0.1,1.3-0.1,1.9c0,0.3,0,0.6,0,0.9c0,0.3,0.3,0.6,0.1,0.9
		c0.8,0,2.1,0.3,2.7-0.4c0.3-0.7,0.3-1.5,0.3-2.3c0-1.2,0-2.3,0-3.5c0-0.6-0.1-1.9,0.5-2.3c-0.3-0.5-0.5-0.4-0.4-1.1
		c0-0.6,0.1-1.3,0.1-1.9c0-0.5-0.1-1-0.1-1.5c0-0.4,0.2-0.7,0.1-1.2c-0.1-0.8,0-1.4-0.9-1.7c-0.7-0.3-1.4-0.1-2.2-0.1
		c0,0.2,0.1,0.2-0.1,0.1c-0.1,0.3,0.2,0.6,0.2,0.9c-0.4,0.2,0,1.3,0,1.6c0,0.8,0,1.7,0,2.5c0,0.4,0,0.8,0,1.2c0.1,0.2,0.1,0.3,0,0.4
		c-0.3,0.1,0,0.2,0,0.2c0.2,0.4,0.1,1.6,0,2c-0.2,0-0.4-0.3-0.6-0.2C68.2,56.8,68,57.1,68.2,57.2z M64.8,47.9
		C64.8,47.9,64.8,47.8,64.8,47.9C64.7,47.9,64.8,47.9,64.8,47.9z M64.6,47.8C64.6,47.7,64.7,47.8,64.6,47.8
		C64.6,47.8,64.6,47.8,64.6,47.8z M64.8,46.8C64.8,46.7,64.8,47,64.8,46.8C64.8,46.8,64.8,46.8,64.8,46.8z M74,46.7
		C73.8,47.1,73.4,46.6,74,46.7L74,46.7z M64.7,46.7C64.6,46.7,64.8,46.8,64.7,46.7C64.7,46.7,64.7,46.7,64.7,46.7z M64.6,46.6
		C64.6,46.5,64.7,46.7,64.6,46.6C64.6,46.6,64.6,46.6,64.6,46.6z M64,42.7C64,42.7,64,42.7,64,42.7C64,42.7,64,42.7,64,42.7z
		 M66.4,42.7c0-0.1,1.5-0.1,1.7-0.1c0.2,0,0.4,0.1,0.6,0c0.2-0.1,0.2,0,0.3,0.1c0.3,0,0.5-0.1,0.7-0.1c0.4,0,0.7,0.1,1.1,0.1
		c0.8,0,1.8,0.3,2.5,0.7c0.6,0.4,1.3,0.9,1.7,1.5c0.1,0.2,0.4,0.5,0.5,0.7c0.3,0.4,0.2,0.7,0.7,0.7c-0.6,0.4-1.6-0.1-2,0.5
		c0.4,0,0.9-0.3,1,0.2c0.4,0,0.5-0.4,0.9-0.4c0.2,0.4,0.4,1,0.5,1.4c0,0.1,0.1,0.4,0.1,0.4c0.1,0.2,0.1,0.7,0.2,1c0,0.4,0,0.9,0,1.4
		c0,0.1,0,0.4-0.2,0.5c0.1,0.1,0.1,0.4,0.1,0.5c0,0.5,0,1,0,1.5c0,0.1,0.1,1.1,0.2,1c-0.2,0.3-0.2,0.7-0.2,1.1c0,0.2,0.2,0.6,0,0.8
		c-0.1,0.1,0,1.9,0.1,1.9c-0.3,0.5,0.1,1-0.1,1.5c-0.1,0.2,0.1,0.4,0.1,0.7c0,0.3-0.1,0.5-0.1,0.7c0,0.2,0,0.5,0.1,0.7
		c-0.1,0.2-0.1,0.5-0.1,0.7c0,0.2-0.1,1.2,0.1,1.1c-0.3,0.1-0.3,0.7-0.3,0.9c-0.1,0.4-0.3,0.7-0.4,1.1C76.2,65.8,76,66,76,66.1
		c0,0.2-0.4,0.5-0.6,0.7c-0.2,0.3-0.4,0.6-0.6,0.9c-0.5,0.5-1.1,0.9-1.8,1.2c-1.3,0.6-2.5,0.7-3.8,0.7c-0.5,0-1-0.1-1.5,0
		c-0.2,0-1,0-1.1-0.2c-0.2,0,0,0.2-0.3,0.2c-0.3-0.1-0.6-0.1-0.9-0.1c-0.4,0-1.8,0.3-1.9-0.1c-0.4-1.1,0-2.4-0.1-3.5
		c-0.1-0.8,0-6.6,0-6.6c0-0.2-0.1-0.5-0.1-0.8c0-0.4,0-0.9,0-1.3c0-1,0-2,0.1-3c0-0.2-0.2-1.4,0-1.5c0.1-0.1,0-0.8,0-0.9
		c0-0.2,0-0.4,0-0.6c0-0.3-0.1-0.4,0-0.6c0.3,0.2-0.2-1.8,0.2-1.7c-0.4-0.2,0.2-0.8,0.4-0.9c0.2-0.2,1.2-0.5,1.3-0.4
		c0.2,0.1,1-0.1,0.6-0.4c-0.3-0.2-0.7,0.4-1,0c-0.1,0,0,0.1-0.1,0.1c-0.3,0-0.6,0-0.8,0c-0.5,0-0.7,0.3-1.3,0.3
		c0.2-0.3,0.8,0,0.7-0.4c0-0.2,0.2-0.3,0.1-0.5c0,0-0.1,0-0.1,0c0-0.2,0-0.4,0-0.6c0-0.3,0-0.6,0-0.9c0-0.7,0-1.4,0.1-2
		c-0.1,0.1-0.1,0.1-0.1,0.2c-0.3-0.2,0.5-0.5,0.4-0.3c0.1,0,0.5-0.3,0.5,0c0.2-0.1,0.3-0.3,0.3,0c0.1-0.3,1.7-0.2,2-0.2
		C66.6,42.7,66.5,42.7,66.4,42.7z M55.8,69.1C55.8,69,55.9,69.2,55.8,69.1C55.8,69.1,55.8,69.1,55.8,69.1z M54,69.2
		c0.1-0.2-0.3-0.2-0.3-0.1C53.8,69.2,53.8,69.3,54,69.2z M51.9,69.1C51.9,69.1,52,69.2,51.9,69.1C51.9,69.1,51.9,69.1,51.9,69.1z
		 M51.5,69.4c0.2,0,0.2-0.2,0.2-0.3C51.5,69.1,51.3,69.2,51.5,69.4z M51.4,68.6c-0.1,0,0-0.2-0.1-0.2c0,0.2-0.2,0-0.2,0
		C51.1,68.4,51.3,68.8,51.4,68.6z M61.9,68.3C61.8,68.3,61.9,68.4,61.9,68.3C61.8,68.3,61.9,68.3,61.9,68.3z M52.7,68.4
		c0-0.1,0-0.2-0.2-0.2C52.5,68.4,52.7,68.4,52.7,68.4z M52.7,67.9C52.9,68,53,68,53.1,68C53.2,67.7,52.7,67.7,52.7,67.9z M61.8,67.7
		C61.8,67.6,61.9,67.8,61.8,67.7C61.8,67.7,61.8,67.7,61.8,67.7z M62.1,68c-0.1-0.2,0.1-0.3-0.2-0.4C61.8,67.9,61.8,68,62.1,68z
		 M61.9,67.6C61.9,67.4,61.9,67.7,61.9,67.6C61.9,67.5,61.9,67.6,61.9,67.6z M60.3,67.5c0,0.4,0.3,0.3,0.4,0
		C60.5,67.4,60.4,67.4,60.3,67.5z M60.3,67.5c0.1,0,0.1-0.1,0.1-0.1c-0.3-0.1-0.2,0.3-0.2,0.3C60.2,67.6,60.2,67.5,60.3,67.5z
		 M50.8,67.4c-0.1,0,0.2-0.1,0.1,0C51,67.2,50.7,67.3,50.8,67.4z M51,67.4c-0.1,0.4,0.3,0.3,0.4,0C51.5,67.1,51,67.4,51,67.4z
		 M52.2,67.1c-0.1,0.2,0,0.2,0.1,0.1C52.4,67.2,52.3,67.1,52.2,67.1z M50.8,65.8C51.7,65.9,50.7,65.3,50.8,65.8
		C51,65.9,50.8,65.8,50.8,65.8z M62.1,64.5c0.1-0.2-0.2-0.3-0.3-0.1C62,64.3,62,64.5,62.1,64.5z M50.8,64.5c0.4,0.3,0.9-0.3,0-0.3
		C50.8,64.4,50.8,64.5,50.8,64.5z M61.7,64.3c0,0-0.1,0-0.1,0C61.6,64.4,61.6,64.4,61.7,64.3z M61.3,64.2
		C61.2,64.2,61.3,64.3,61.3,64.2C61.2,64.2,61.3,64.2,61.3,64.2z M57.8,64.2C57.7,64.1,57.9,64.2,57.8,64.2
		C57.8,64.2,57.8,64.2,57.8,64.2z M55.9,62C55.8,61.9,56,62.1,55.9,62C55.9,62,55.9,62,55.9,62z M55.9,61.9c0-0.1,0-0.3,0-0.4
		C55.8,61.5,55.8,62.1,55.9,61.9z M52.7,55.6C53.5,55.6,52.7,55,52.7,55.6C52.9,55.6,52.7,55.6,52.7,55.6z M55.9,54.1
		C55.9,54,55.9,54,55.9,54.1C55.8,54.1,55.8,54.1,55.9,54.1z M50.7,50.9C50.7,50.7,50.7,51.1,50.7,50.9
		C50.7,50.8,50.7,50.9,50.7,50.9z M53.8,49C53.7,48.9,53.9,49,53.8,49C53.8,48.9,53.8,49,53.8,49z M53.5,48.9
		C53.4,48.8,53.5,49,53.5,48.9C53.5,48.9,53.5,48.9,53.5,48.9z M55.4,48.7C55.4,48.7,55.4,48.7,55.4,48.7
		C55.4,48.6,55.4,48.7,55.4,48.7z M54.2,48.7C54.2,48.7,54.2,48.7,54.2,48.7C54.2,48.6,54.2,48.7,54.2,48.7z M54.1,48.7
		C54.1,48.6,54.1,48.9,54.1,48.7C54.1,48.7,54.1,48.7,54.1,48.7z M51.6,48.4C51.5,48.3,51.6,48.5,51.6,48.4
		C51.6,48.4,51.6,48.4,51.6,48.4z M53.4,48.3c-0.1,0-0.1,0-0.2,0C53.3,48.4,53.4,48.3,53.4,48.3z M50.8,48
		C51.5,48,50.8,47.8,50.8,48C50.9,48,50.8,48,50.8,48z M50.8,47.9C50.8,47.7,50.8,48,50.8,47.9C50.8,47.9,50.8,47.9,50.8,47.9z
		 M50.7,46.5C50.6,46.4,50.7,46.6,50.7,46.5C50.6,46.5,50.7,46.5,50.7,46.5z M50.7,44C50.6,43.9,50.7,44,50.7,44
		C50.6,43.9,50.7,44,50.7,44z M50.7,43.7C50.7,43.5,50.6,43.8,50.7,43.7C50.7,43.6,50.7,43.7,50.7,43.7z M50.7,43.1
		C50.7,43.1,50.7,43.1,50.7,43.1C50.7,43.1,50.7,43.1,50.7,43.1z M52.5,42.7c-0.1,0-0.1,0-0.1,0C52.4,42.8,52.5,42.8,52.5,42.7z
		 M55.8,64.1c2.2,0,4.3-0.1,6.5,0.1c-0.2,0.7,0.4,2,0,2.8c-0.1,0.3,0.1,0.8,0.1,1.2c0,0.4-0.1,0.9,0.1,1.3c-2.1,0.2-4.2,0.1-6.3,0.1
		c-1.2,0-2.4,0-3.7-0.1c-0.6,0-1.1,0-1.7-0.1c0-0.3-0.4-0.9,0.1-1c0-0.2-0.2,0-0.2-0.2c0-0.4,0-0.8,0-1.2c0-0.6,0-1.1,0-1.7
		c0-0.4,0-0.7,0-1c0,0,0-0.9-0.1-0.8c0,0,0.1,0,0.1,0c0,0,0-0.3,0-0.3c-0.2-0.1,0-1,0-1.5c-0.1-1.1-0.1-2.4-0.1-3.5
		c0-1.3,0-2.6,0-3.9c0-0.6,0.1-1.2,0-1.8c0-0.3-0.1-0.6-0.1-0.9c0-0.1,0.1-0.2,0.1-0.2c0-0.3-0.1-0.5-0.1-0.8c0.1-0.4-0.1-0.9,0-1.3
		c0-0.1,0.1-0.5,0.2-0.6c0.1,0,0.9,0,1-0.2c-0.2-0.1-0.6,0-0.8,0c-0.2,0-0.4-0.3-0.4-0.2c0-0.2-0.1-1.3,0.1-1.3
		c-0.4-0.2-0.1-0.8-0.1-1c0,0.1-0.1,0.1-0.1,0.1c-0.2-0.4,0-1.2,0-1.7c0-0.2-0.1-1.6,0.1-1.6c-0.1,0-0.1-0.1-0.1-0.2
		c0.1,0,0.2,0,0.2,0c-0.2,0,0.6-0.2,0.3,0c0.3-0.1,0.4,0.2,0.7,0.1c0.3-0.1,0.3-0.3,0.7-0.3c0.8,0,1.5,0,2.3,0
		c0.4,0,1.3-0.1,1.2,0.6c-0.1,0.5-0.1,1,0,1.6c0,0.9,0,1.7,0,2.6c0,0.4,0.1,0.7-0.4,0.6c-0.1,0-0.7,0-0.8-0.1
		c-0.2-0.2-0.4-0.1-0.5,0.1c-0.2,0.2-0.5,0.1-0.7,0.4c-0.3,0-1.6-0.2-1.5,0.3c0.3,0,0.6,0,0.9,0c0.2,0,0.7,0.2,0.8,0
		c0.1,0.1,0.1,0.1,0,0.2c0.1-0.1,0.2-1,0.5-0.5c0.2,0.3,0.2,0,0.4,0c0.2,0,0.7,0.1,0.7,0c0-0.3,0.3,0.1,0.4,0.2
		c0.2,0.3,0.2,0.6,0.2,1c0.1,0.8,0,1.7,0,2.5c0,1.6,0,3.2,0,4.8c0,0.8,0,1.6-0.1,2.4c0,0.3,0,0.7,0,1c0,0.1,0,0.7,0,0.5
		c0.1,0,0,0.4-0.1,0.4c0.1,0,0.1,0.1,0.2,0.1c0,0.1,0,0.2,0,0.3c0,0.2,0.1,0.5-0.2,0.5c0.2,0.1,0.2,0.3,0.2,0.4
		c0-0.1-0.1-0.1-0.1-0.2c-0.2,0.3,0.1,0.8,0,1.1c0.1,0,0.1,0,0-0.1C56.1,63.6,55.8,63.9,55.8,64.1z M39.9,69.4c0-0.1-0.1-0.1-0.1,0
		C39.8,69.5,39.8,69.5,39.9,69.4z M45.9,69.2C45.8,69.1,46,69.2,45.9,69.2C45.9,69.2,45.9,69.2,45.9,69.2z M45.4,69.2
		C45.3,69.1,45.4,69.3,45.4,69.2C45.3,69.2,45.4,69.2,45.4,69.2z M45.1,69.1C45,69,45.2,69.2,45.1,69.1
		C45.1,69.1,45.1,69.1,45.1,69.1z M44.9,69.1c-0.1,0-0.1,0-0.1,0.1C44.9,69.2,44.9,69.2,44.9,69.1z M44.7,69.1
		C44.7,68.9,44.7,69.3,44.7,69.1C44.7,69,44.7,69.1,44.7,69.1z M39.1,68.9C39,68.8,39.1,68.9,39.1,68.9
		C39.1,68.9,39.1,68.9,39.1,68.9z M47.9,69c0.1-0.2-0.2-0.3-0.2-0.1C47.7,68.9,47.8,69,47.9,69z M48,68.7c0.2,0,0.2-0.2,0-0.2
		C48,68.6,48,68.6,48,68.7z M49.3,68.4c-0.1,0-0.2-0.2-0.2,0C49.1,68.3,49.3,68.5,49.3,68.4z M48.3,68.3c0,0.3,0.3,0.2,0.2-0.1
		C48.5,68.2,48.4,68.3,48.3,68.3z M47.6,68.2C47.6,68.1,47.7,68.3,47.6,68.2C47.6,68.2,47.6,68.2,47.6,68.2z M47.4,68.3
		C47.5,68.2,47.5,68.2,47.4,68.3C47.4,68.3,47.4,68.3,47.4,68.3z M45,67.9C45,67.8,45.1,68,45,67.9C45,67.9,45,67.9,45,67.9z
		 M46.6,68c0.1,0,0.5,0.6,0.5,0.2C47.1,67.9,46.7,67.7,46.6,68z M46.7,67.6c0,0,0.1,0,0.1,0C46.9,67.5,46.7,67.5,46.7,67.6z
		 M47.3,67.2C47.3,67.1,47.4,67.3,47.3,67.2C47.3,67.2,47.3,67.2,47.3,67.2z M44.4,67.3c0.1,0.1,0.4,0.1,0.5,0
		c-0.1-0.2-0.2-0.3-0.4-0.2C44.5,67.1,44.5,67.2,44.4,67.3z M48.4,67c-0.2,0-0.1-0.1-0.3-0.1c-0.2,0.2,0.2,0.1-0.2,0.3
		c-0.4,0.2-0.2,0.3-0.1,0.7c0.3,0,0.4-0.2,0.4-0.4c0.1-0.4,0.3-0.3,0.4-0.6C48.4,66.7,48.6,66.9,48.4,67z M47.3,66.1
		c0.1,0,0.2-0.1,0.2-0.2C47.4,65.9,47.3,66,47.3,66.1z M46.7,66c0.1,0.1,0.2,0.2,0.3,0.2c-0.1-0.2,0.4-0.5,0.4-0.6
		C47.1,65.7,46.9,65.8,46.7,66z M48.6,64.5c0.2,0.1,0.2-0.3,0-0.2C48.6,64.4,48.6,64.5,48.6,64.5z M46.9,63.3c0-0.1-0.2-0.3-0.2-0.1
		C46.8,63.2,46.8,63.3,46.9,63.3z M46.7,62.5c0,0.1-0.1,0.1-0.2,0.1C46.5,62.9,46.9,62.7,46.7,62.5z M46.5,63
		c0.3-0.1,0.4,0.1,0.6,0.2C47.1,62.8,46.4,62.7,46.5,63z M35.7,62.5c0-0.1,0-0.1,0-0.2C35.6,62.2,35.6,62.7,35.7,62.5z M46.6,61.7
		C46.5,61.6,46.7,61.8,46.6,61.7C46.6,61.7,46.6,61.7,46.6,61.7z M46.5,61.6c0-0.1-0.1-0.1-0.1,0C46.4,61.6,46.5,61.6,46.5,61.6z
		 M47.3,61.2C47.2,61.1,47.3,61.3,47.3,61.2C47.2,61.2,47.3,61.2,47.3,61.2z M40.3,60.2c0-0.1-0.1-0.1-0.1,0
		C40.2,60.2,40.3,60.2,40.3,60.2z M47.2,59.4c-0.1,0,0-0.2-0.2-0.1C46.9,59.5,47.2,59.6,47.2,59.4z M43.7,53.8
		C44,54.6,44.4,53.4,43.7,53.8C43.8,53.9,43.7,53.8,43.7,53.8z M44.2,53.6C44.1,53.8,44.4,53.5,44.2,53.6
		C44.1,53.8,44.2,53.6,44.2,53.6z M37.7,50.7c0.1,0.1,0.5,0.1,0.4-0.1C37.9,50.5,37.7,50.5,37.7,50.7z M45.2,50.6
		c0.1-0.1,0.4-0.5,0-0.5C45,50.1,45,50.5,45.2,50.6z M45.4,49.9c0.1,0.1,0.2-0.4,0-0.1c0,0,0,0,0.1,0C45.5,49.9,45.4,49.9,45.4,49.9
		z M38.4,50.1c0.3,0,0.3-0.1,0.3-0.4C38.4,49.6,38.2,49.9,38.4,50.1z M45.5,48.8C45.4,48.7,45.5,48.8,45.5,48.8
		C45.5,48.8,45.5,48.8,45.5,48.8z M44.6,48.3C44.6,48.3,44.6,48.3,44.6,48.3C44.6,48.3,44.6,48.3,44.6,48.3z M44.3,48.3
		C44.3,48.3,44.3,48.3,44.3,48.3C44.3,48.3,44.3,48.3,44.3,48.3z M35.7,48C35.6,47.9,35.7,48,35.7,48C35.7,47.9,35.7,48,35.7,48z
		 M44.1,48.2C45.1,48.2,43.9,47.5,44.1,48.2C44.2,48.2,44.1,48.2,44.1,48.2z M46.5,46.5C46.5,46.4,46.6,46.5,46.5,46.5
		C46.5,46.5,46.5,46.5,46.5,46.5z M38.1,46.9c0.2,0.2,0.8-0.1,0.5-0.4C38.3,46.3,38.1,46.7,38.1,46.9z M44.4,44.7
		c0-0.2-0.2-0.2-0.4-0.2C44,44.8,44.2,44.7,44.4,44.7z M37.6,44.3c-0.1,0-0.1,0-0.1,0.1C37.5,44.3,37.6,44.3,37.6,44.3z M35.9,43.7
		c0.1,0,0.2,0,0.2-0.1C36,43.5,35.9,43.5,35.9,43.7z M45.4,43.4c-0.1,0-0.1,0-0.2,0.1C45.2,43.5,45.3,43.5,45.4,43.4z M43.5,42.8
		c-0.1,0-0.1,0-0.1,0.1C43.4,42.9,43.5,42.8,43.5,42.8z M43.1,42.7C43.1,42.7,43.1,42.7,43.1,42.7C43.1,42.7,43.1,42.7,43.1,42.7z
		 M43,42.7C43,42.7,43,42.7,43,42.7C43,42.7,43,42.7,43,42.7z M41.4,42.7C41.4,42.7,41.4,42.7,41.4,42.7
		C41.4,42.7,41.4,42.7,41.4,42.7z M36.3,42.6c0,0.1,0,0.1,0,0.2c0.1,0,0.5-0.3,0.5,0c0.1-0.2,0.4-0.2,0.6-0.2c0,0.1-0.1,0.1-0.1,0.2
		c0.6-0.1,1.1-0.1,1.7-0.2c-0.1,0.1-0.2,0.1-0.3,0.1c0.2,0.3,0.5-0.3,0.5,0c0.3,0,0.1-0.2,0.4-0.1c0,0,0.4,0.1,0.1,0.1
		c0.1,0,0.3,0.1,0.3-0.1c0.1,0.1,0.3,0.1,0.3,0c0.1,0,0,0.2,0,0.2c0.1,0,0.4-0.1,0.3-0.2c0.1,0,0.1,0.1,0.1,0.2c0.1-0.3,1-0.2,0.9,0
		c0.2,0,0.4-0.1,0.6-0.2c0,0.1,0,0.1-0.1,0.1c0,0.1,0.7-0.2,0.4,0c0.1,0,0.2-0.1,0.3-0.1c0.2,0,0.3,0.1,0.3,0.1
		c0.2,0.1,1.2-0.2,1.1,0.2c0.1-0.2,0.5-0.1,0.5,0.1c0.3,0,1.5,0.2,1.4,0.6c0.3-0.2,0.2,0.2,0.3,0.2c0,0,0.3,0.1,0.4,0.3
		c0,0.1,0.1,0.1,0.2,0.1c0.2,0,0,0.2,0.1,0.2c0.4,0,0.8,0.9,1,1.2c0.1,0.3,0.3,0.7,0.5,1c0.2,0.4,0.2,0.8,0.3,1.2
		c0,0.2,0.1,0.3,0.1,0.5c0,0.5-0.1,0.2-0.4,0.5c-0.3,0.3-0.9,0.3-1.4,0.3c-0.5,0-1.1,0.1-1.6,0c-0.6,0.1-0.7,0.4-0.7-0.4
		c-0.1,0.1-0.4,0.6-0.1,0.6c-0.2,0-0.4,0-0.5-0.1c-0.1,0.2-0.3,0.2-0.5,0.2c-0.2,0-0.5,0.3-0.7,0.1c-0.2-0.2,0-0.2,0.3-0.2
		c0.5,0,0.1-0.2,0.4-0.5c0.2-0.2-0.2-0.7-0.4-0.8c-0.2-0.2-0.7,0-1,0c-0.4,0-0.8-0.1-1.3,0c-0.4,0.1-0.3,0.1-0.3,0.5
		c0,0.1,0,0.7-0.1,0.7c0,0,0.1,0,0.1,0c0,0.1,0,0.1,0,0.2c-0.5,0-0.2,0.2-0.5,0.4c0,0-0.6,0.6-0.6,0.2c-0.2,0-0.3,0.1-0.4,0.2
		c0,0,1-0.1,0.9,0c0.1-0.2,0.1-0.2,0.3-0.1c0.1,0.1,0.1,0.6,0.1,0.9c0,1,0.1,2.2,0.1,3.5c0.9,0,2.1,0.3,2.6-0.7
		c0.5-0.8,0.2-2.3,0.3-3.3c0-1.1,0.9-0.8,1.6-1.1c0.6-0.2,1.2-0.1,1.8-0.2c0.3,0,0.6-0.1,0.9,0c0.4,0,0.5-0.2,0.9-0.2
		c0,0.5,0,1.1,0,1.6c0,0.3,0,0.6-0.1,0.8c0.2,0.3,0.2,0.2,0.1,0.6c-0.1,1,0,1.9-0.2,2.9c-0.1,0.4-0.3,1-0.5,1.4
		c0,0.1-1.1,1.7-1.3,1.6c0.1,0.6,0.4,1.1,0.4,1.7c0,0.2,0,0.6,0.2,0.8c-0.1,0.2-0.2,0-0.4,0.1c0,0.1,0.1,0.4,0,0.4
		c0.2,0.1,0.3,0.2,0.6,0.2c0,0.2,0.2,0.5-0.1,0.5c0,0.2,0.2-0.1,0.3,0.2c0.1,0.2,0.1,0.4,0.2,0.6c-0.1,0-0.8-0.2-0.8-0.2
		c0.1,0.1,0.1,0.5,0,0.3c0,0,0-0.1,0-0.1c-0.1-0.1-0.2-0.1-0.2,0.1c0,0,0.2,0.4,0.2,0.4c0.1,0.3,0.6,0.3,0.6,0.7
		c0.2,0.2,0.2-0.1,0.3,0.3c0.1,0.2,0.2,0.3,0.3,0.4c0.1,0.2,0.3,0.9,0.2,1.1c-0.1,0.3,0.1,0.3,0.2,0.6c0.1,0.3,0,0.6,0,0.9
		c0,0.6,0,0.5,0.4,0.8c0.1,0.6,0.3,1.2,0.6,1.7c-0.2,0-0.3,0.1-0.4,0.1c-0.2,0.1-0.3,0.1-0.3-0.1c-0.5,0.1-0.9,0-1.4,0
		c-0.3,0-0.7-0.4-0.8-0.1c-0.1,0.2-1.1,0-1.3,0c-0.6,0-1.4,0.2-1.5-0.5c-0.1-0.4-0.3-0.9-0.4-1.3c0.3,0.1,0.2-0.4,0.2-0.5
		c-0.3,0-0.2,0.3-0.3,0.4c-0.3-0.8-0.5-1.7-0.7-2.5c-0.1-0.4-0.2-0.9-0.3-1.3c-0.1-0.6,0.1-0.2,0.1-0.7c-0.2,0,0,0.1-0.2,0.2
		c-0.2-0.6-0.4-1.3-0.5-2C42.3,61,42.3,60.1,42,60c-0.2-0.1-0.5-0.1-0.8,0c-0.4,0-0.3,0.6-0.3,1c0,0.7,0,1.5,0,2.2
		c0,1.4-0.1,2.8,0,4.2c0,0.6-0.1,1.2,0,1.8c0,0.4,0,0.3-0.4,0.4c-0.3,0-0.7,0-1,0.1c0.1-0.2,0.2-0.5-0.1-0.4
		c0.1-0.1,0.4-0.2,0.5-0.1c0.1-0.2-0.3-0.1-0.4-0.1c-0.2-0.1-0.2,0.3-0.4,0.5c-0.2,0.3-1.2,0.1-1.5,0.1c-0.6,0-1.2,0-1.8-0.1
		c-0.1-0.3-0.2-1,0-1.3c0.2-0.4,0-1,0-1.4c0-0.3,0-0.6,0.1-0.9c0-0.2,0-0.5,0-0.7c0.2,0.1,0.3,0,0.4-0.2c-0.1-0.4-0.2,0.1-0.4,0
		c-0.1-0.8,0-1.6-0.1-2.4c-0.1,0,0,0.3-0.1,0.4c0,0,0-0.9,0-1c0,0.1,0,0.1,0.1,0.1c0.1-0.1,0.1-0.8,0-0.9c-0.2-0.2-0.1-0.7-0.1-1.1
		c0-1.1,0-2.2,0-3.3c0-1.3,0-2.6,0-3.8c0-0.3-0.2-2.4,0.6-2.2c-0.1-0.2-0.5-0.4-0.5-0.5c-0.1-0.1,0-0.5,0-0.7
		c-0.1-0.7,0.1-1.4,0-2.2c0.2,0.1,0-0.8,0.2-0.9c-0.1-0.2-0.2,0.1-0.2-0.1c0-0.1,0.1-0.2,0.1-0.2c-0.1-0.2,0.3-0.4,0.2-0.7
		c0.4,0,0.7,0.3,1,0.2c-0.2-0.2-0.3-0.3-0.6-0.3c0.3-0.1,0.5-0.2,0.7-0.2c0.1,0,0.1-0.2,0.2-0.3c0.3-0.1,0.2-0.3-0.1-0.3
		c-0.4,0-0.3,0.2-0.5,0.3c-0.4,0-0.5-0.9-0.8-0.7c-0.4,0.3,0.6,1.1-0.3,0.7c0.1-0.2-0.1-1.8,0.1-1.9c-0.2,0,0-0.3,0-0.4
		c0,0-0.2,0.1-0.1,0c0,0,0.4-0.3,0.4,0C36,42.6,36.3,42.8,36.3,42.6z M158.3,69.3c0.2,0,0.3,0,0.5,0C158.9,68.7,158,69,158.3,69.3z
		 M159.6,69.1c0-0.2,0.1-0.3-0.2-0.3C159.4,69,159.4,69,159.6,69.1z M159.2,68.3C159.2,68.2,159.2,68.1,159.2,68.3
		C159.1,68.3,159.1,68.3,159.2,68.3z M158.6,68.3c0.1,0,0.2,0,0.2-0.1c-0.1,0-0.1-0.1-0.2-0.1C158.6,68.1,158.6,68.2,158.6,68.3z
		 M141.1,67.9C141.1,67.8,141.2,68,141.1,67.9C141.1,67.9,141.1,67.9,141.1,67.9z M159.5,67.8c-0.1,0.1-0.6,0.9-0.1,0.9
		c0.5,0-0.1-0.5,0-0.6c0.2,0.1,0.7,0.3,0.7-0.1C159.9,68,159.7,67.8,159.5,67.8z M159.3,67.8C159.2,67.8,159.4,67.9,159.3,67.8
		C159.3,67.8,159.3,67.8,159.3,67.8z M158.4,67.7C158.7,67.7,158.4,67.4,158.4,67.7C158.5,67.7,158.4,67.7,158.4,67.7z M161.6,67
		c0.1,0,0.1,0,0.1-0.1C161.6,66.8,161.4,67,161.6,67z M160.2,66.9c0.1,0,0.1,0,0.2,0c0.1,0-0.1-0.2-0.1-0.2
		C160.3,66.8,160.3,66.8,160.2,66.9z M161.4,66.7c0.1-0.2,0-0.3-0.2-0.2C161.2,66.6,161.2,66.7,161.4,66.7z M158.4,66.3
		c-0.1,0-0.1,0-0.2,0.1C158.3,66.4,158.3,66.4,158.4,66.3z M161.1,66.3c0-0.8-0.6-0.2-0.7,0.3C160.3,67.4,161.1,66.9,161.1,66.3z
		 M161.4,65.9c0-0.2,0.2,0,0.1-0.2C161.3,65.4,161.1,65.9,161.4,65.9z M160.9,65.8C161.2,65.8,160.9,65.2,160.9,65.8
		C161,65.8,160.9,65.8,160.9,65.8z M162.1,65.6c0,0.3,0.3,0.3,0.5,0.5c0.1-0.2,0-0.5-0.1-0.7C162.3,65.4,162.3,65.6,162.1,65.6z
		 M158.1,64.3C158.1,64.4,158.1,64.4,158.1,64.3C158.1,64.3,158.3,64.2,158.1,64.3z M153.3,64.4c0.1-0.1,0.2-0.3,0-0.2
		C153.2,64.2,153.2,64.3,153.3,64.4z M162.4,63.9c0.1,0.1,0.3-0.1,0.1-0.1C162.5,63.8,162.4,63.8,162.4,63.9z M158.9,64.1
		c0-0.1,0.2-0.5-0.2-0.4C158.8,63.9,158.7,64.1,158.9,64.1z M152.4,63.7c-0.1,0-0.1,0-0.1,0.1C152.3,63.7,152.3,63.7,152.4,63.7z
		 M161.9,63.6c-0.1,0.1-0.1,0.1,0,0.2C162,63.7,162,63.7,161.9,63.6z M160.8,63.9c0.1,0,0.4-0.1,0.5-0.1c0.3-0.2-0.5-0.2-0.5-0.2
		C160.9,63.7,160.8,63.8,160.8,63.9z M161,63.4c0-0.1,0.6-0.6,0.1-0.5C160.8,62.9,160.8,63.3,161,63.4z M158.8,62.3
		C158.8,62.3,158.9,62.4,158.8,62.3C158.8,62.3,158.8,62.3,158.8,62.3z M151.5,62.4C151.5,62.2,151.5,62.5,151.5,62.4
		C151.5,62.3,151.5,62.4,151.5,62.4z M158.7,62.3C158.6,62.2,158.8,62.3,158.7,62.3C158.7,62.2,158.7,62.3,158.7,62.3z M153.8,62.6
		c0-0.2-0.1-0.3-0.2-0.4C153.5,62.4,153.6,62.5,153.8,62.6z M153.4,62c-0.1-0.1-0.1-0.1-0.1,0C153.3,62.1,153.3,62.1,153.4,62z
		 M150.4,61.6C150.3,61.6,150.4,61.7,150.4,61.6C150.4,61.6,150.4,61.6,150.4,61.6z M150.9,61.6C150.8,61.5,150.9,61.6,150.9,61.6
		C150.9,61.6,150.9,61.6,150.9,61.6z M163.3,61.5c0.1,0,0.2,0,0.2-0.1C163.4,61.4,163.4,61.4,163.3,61.5z M153.6,61.4
		C153.6,61.3,153.7,61.5,153.6,61.4C153.6,61.4,153.6,61.4,153.6,61.4z M163.1,60.1c0,0.2,0,0.3,0.2,0.3c0.1-0.1,0.1-0.2,0-0.4
		C163.2,60.1,163.2,60.1,163.1,60.1z M162,58c0.1,0,0.1,0.1,0.2,0.1c0-0.1,0-0.2-0.1-0.2C162,58,162,58,162,58z M160.3,56
		c-0.1-0.1-0.1-0.1-0.1,0C160.2,56.1,160.2,56.1,160.3,56z M159.2,55.1C159.2,55.1,159.3,55.2,159.2,55.1
		C159.2,55.1,159.2,55.1,159.2,55.1z M159.4,55.1c0.1,0,0.2,0,0.2-0.2C159.4,54.9,159.4,55,159.4,55.1z M159,54.9
		c-0.1,0-0.1,0-0.1,0.1C158.9,55,159,54.9,159,54.9z M145.5,52.4C145.5,52.2,145.5,52.5,145.5,52.4
		C145.5,52.3,145.5,52.4,145.5,52.4z M136.4,51.3C136.4,51.1,136.4,51.4,136.4,51.3C136.4,51.2,136.4,51.3,136.4,51.3z M146.1,51.3
		c0.1,0,0.2-0.1,0.2-0.2C146.1,51,146.1,51.1,146.1,51.3z M142.2,50c-0.1,0-0.1,0-0.1,0.1C142.1,50.1,142.2,50.1,142.2,50z
		 M143,49.6C143,49.5,143,49.8,143,49.6C143,49.6,143,49.6,143,49.6z M161.7,49.6c0.1,0.1,0.2,0.1,0.2-0.1
		C161.8,49.5,161.7,49.5,161.7,49.6z M143.2,49.7c0.1,0.1,0.2,0.1,0.4,0.1C143.6,49.5,143.2,49.4,143.2,49.7z M162.3,49.4
		C162.3,49.4,162.3,49.4,162.3,49.4C162.3,49.4,162.3,49.4,162.3,49.4z M141.5,49.6c0-0.2-0.1-0.2-0.2-0.2
		C141.3,49.5,141.3,49.6,141.5,49.6z M141.2,49.1c-0.1,0-0.1,0-0.1,0.1C141.1,49.2,141.2,49.2,141.2,49.1z M158.9,49.1
		C158.9,49,159,49.1,158.9,49.1C158.9,49.1,158.9,49.1,158.9,49.1z M163.4,49.1C163.9,49.1,163.4,48.7,163.4,49.1
		C163.5,49.1,163.4,49.1,163.4,49.1z M150.4,49C150.7,49,150.4,48.7,150.4,49C150.4,49,150.4,49,150.4,49z M161.8,48.7
		C162.1,48.7,161.8,48.4,161.8,48.7C161.8,48.7,161.8,48.7,161.8,48.7z M141.9,48.5C141.8,48.5,141.9,48.6,141.9,48.5
		C141.9,48.5,141.9,48.5,141.9,48.5z M161.5,48.5c0.1-0.2-0.3-0.2-0.2-0.1C161.4,48.4,161.4,48.5,161.5,48.5z M142.1,48
		C142.1,48,142.2,48.1,142.1,48C142.1,48,142.1,48,142.1,48z M160.5,47.8c-0.1,0-0.2,0-0.2-0.1C160.2,47.9,160.5,48,160.5,47.8z
		 M142.3,47.7C142.2,47.6,142.4,47.7,142.3,47.7C142.3,47.6,142.3,47.7,142.3,47.7z M145,47.4C145.3,47.5,145.1,47.2,145,47.4
		L145,47.4z M142.5,47.2C142.5,47.2,142.6,47.3,142.5,47.2C142.5,47.2,142.5,47.2,142.5,47.2z M141.6,48.7c0.2-0.5,0.6-0.9,0.8-1.5
		c-0.3,0-0.7-0.1-1,0c0,0.6,0.2,1.3,0,1.9C141.6,49.1,141.6,48.8,141.6,48.7z M160.6,47c0.1,0,0.2,0.1,0.2,0.1
		C160.8,46.9,160.6,46.8,160.6,47z M144.6,46.9c-0.1,0-0.1,0-0.2,0.1C144.5,47,144.5,47,144.6,46.9z M160,47.5
		c0.3-0.2,0.7,0.4,0.8,0.2c0-0.3-0.5-0.3-0.4-0.6c-0.3,0.1-0.1-0.1-0.3-0.2C159.8,46.7,159.9,47.4,160,47.5z M136.1,46.6
		C136.1,46.5,136.2,46.7,136.1,46.6C136.1,46.6,136.1,46.6,136.1,46.6z M160.9,46.5C160.9,46.5,161,46.6,160.9,46.5
		C160.9,46.5,160.9,46.5,160.9,46.5z M161.2,47.2c-0.1,0-0.2,0-0.2,0.1c0.2,0,0.5,0.4,0.6,0.5c0.1,0.2,0.4,0.5,0.7,0.4
		c0-0.2-0.2-0.3-0.1-0.4c-0.1,0.1-0.8,0-0.4-0.2c0.2-0.1,0.5-0.1,0.6-0.4c-0.3-0.1-0.3-0.4-0.6-0.6c-0.1,0-0.5-0.2-0.4,0
		c0,0.1,0.2,0.1,0.2,0.2c0,0.1-0.7-0.1-0.7,0.2c0,0,0.4-0.1,0.4,0C161.2,47,161.2,47.1,161.2,47.2z M151.2,46.5
		C151.1,46.4,151.3,46.6,151.2,46.5C151.2,46.5,151.2,46.5,151.2,46.5z M141.3,46.5C141.3,46.4,141.3,46.7,141.3,46.5
		C141.3,46.5,141.3,46.5,141.3,46.5z M144,46.7c0.1-0.1,0-0.3-0.1-0.3C143.8,46.5,143.9,46.7,144,46.7z M145.1,46.3
		c0.7,0-0.2-0.2-0.2-0.1C145.1,46.3,145,46.2,145.1,46.3z M144,46.1c0.1,0.1,0.2-0.1,0.1-0.2C143.9,45.9,143.9,46,144,46.1z
		 M159.7,45.4C160,45.4,159.7,45.2,159.7,45.4C159.8,45.4,159.7,45.4,159.7,45.4z M151.5,45.1C151.4,45.1,151.5,45.2,151.5,45.1
		C151.5,45.1,151.5,45.1,151.5,45.1z M160.1,45.2c0.1-0.3-0.2-0.3-0.4-0.2C159.7,45.2,159.9,45.2,160.1,45.2z M161,44.9
		C160.9,44.8,161,45,161,44.9C161,44.9,161,44.9,161,44.9z M161.5,44.8c-0.1-0.1-0.2,0-0.2,0C161.3,44.9,161.4,44.9,161.5,44.8z
		 M145.1,44.9c0,0.7,0.5,0.3,0.7,0C145.7,44.7,145.2,44.7,145.1,44.9z M160.6,44.1c0,0.2-0.2,0-0.2,0.3c0,0.2,0,0.4,0.3,0.4
		c0-0.2-0.3-0.3-0.1-0.4c0.2,0.1,0.3,0.1,0.5,0.1C161.1,44.2,160.8,44.2,160.6,44.1z M139,44.6c0.5,0.2,0.6-0.1,0.6-0.5
		C139.2,43.7,139.1,44.4,139,44.6z M152.4,44C152.4,44,152.5,44.1,152.4,44C152.4,44,152.4,44,152.4,44z M140,43.9
		C140,43.8,140,44,140,43.9C140,43.9,140,43.9,140,43.9z M145.7,43.8c0,0.1,0,0.2,0.1,0.2C145.9,43.9,145.8,43.8,145.7,43.8z
		 M140.5,43.8c-0.1,0,0.1,0.1,0.1,0C140.6,43.8,140.6,43.8,140.5,43.8z M145.6,43.6c-0.1,0-0.1,0-0.1,0.1
		C145.5,43.7,145.5,43.6,145.6,43.6z M159.8,43.7c0.1,0.1,0.2,0.1,0.2-0.1C159.9,43.5,159.9,43.5,159.8,43.7z M153.5,43.2
		C153.5,43.2,153.6,43.3,153.5,43.2C153.5,43.2,153.5,43.2,153.5,43.2z M140.7,43.3c0,0.2,0.3,0.1,0.4,0.1c0-0.1,0-0.2-0.1-0.3
		C140.9,43.4,140.9,43.4,140.7,43.3z M139.7,43.3c0.1,0,0.2,0,0.2-0.1C139.8,43.2,139.8,43.2,139.7,43.3z M159.9,43
		c-0.1,0-0.1,0-0.1,0.1C159.9,43.1,159.9,43.1,159.9,43z M147.2,42.7C147.2,42.7,147.2,42.7,147.2,42.7
		C147.2,42.7,147.2,42.7,147.2,42.7z M147,42.7c-0.1,0-0.1,0-0.1,0C146.9,42.8,147,42.8,147,42.7z M150.4,42.7c-0.1,0-0.1,0-0.1,0.1
		C150.4,42.7,150.4,42.7,150.4,42.7z M150.3,42.7c-0.1,0-0.1,0-0.2,0.1C150.1,42.7,150.2,42.7,150.3,42.7z M138.4,42.7
		c-0.1,0-0.1,0-0.1,0.1C138.3,42.7,138.3,42.7,138.4,42.7z M157.1,42.5c0-0.1-0.1-0.1-0.1,0C157,42.6,157,42.6,157.1,42.5z
		 M153.2,43.5c0.1,0,0.1-0.1,0.1-0.1C153.3,43.3,153.2,43.4,153.2,43.5z M152.8,43.8c0-0.1,0.4-0.2,0.2-0.3
		C153,43.5,152.6,43.7,152.8,43.8z M151.9,44.6c0.1,0,0.1-0.1,0-0.1C151.8,44.6,151.8,44.6,151.9,44.6z M163.4,65.2
		C162.8,64.6,163.4,65.9,163.4,65.2C163.3,65.1,163.4,65.2,163.4,65.2z M161.9,45.3c0,0,0,0.1-0.1,0.1c0.1,0,0.2,0,0.2-0.1
		C162,45.3,161.9,45.3,161.9,45.3z M161.4,44c-0.2,0.2,0.2,0.4,0,0.6c0.2,0,0.4,0.2,0.6,0.2C162.1,44.5,161.7,44.1,161.4,44z
		 M28.5,69.5C28.5,69.4,28.6,69.6,28.5,69.5C28.5,69.5,28.5,69.5,28.5,69.5z M14.2,69.2c0.1,0,0.1,0,0.2-0.1c-0.1,0-0.1,0-0.2-0.1
		C14.2,69.1,14.2,69.2,14.2,69.2z M12.6,69.1c0-0.1-0.1-0.1-0.1,0C12.5,69.1,12.6,69.1,12.6,69.1z M8.7,69.1c0.2,0.2,0.6,0,0.3-0.2
		C8.9,68.8,8.7,69,8.7,69.1z M14.7,68.8C14.6,68.7,14.7,68.9,14.7,68.8C14.6,68.8,14.7,68.8,14.7,68.8z M13.2,68.8
		c0.1,0.1,0,0.2,0.2,0.2c0-0.3,0-0.2-0.4-0.3C13.1,68.8,13.1,68.8,13.2,68.8z M14.3,68.6c0.7,0,0.2-0.2,0.3-0.6
		C14.4,68,14.2,68.3,14.3,68.6z M15.5,67.7c0.1,0.7,0.6,0,0.3-0.2C15.8,67.7,15.7,67.7,15.5,67.7z M6.8,67.4
		c0.1,0.1,0.2,0.1,0.4,0.1C7.1,67,6.8,67,6.8,67.4z M11.8,64.8c0,0,0,0.1,0.1,0.1C11.9,64.9,11.9,64.6,11.8,64.8z M10.2,63.8
		c0.1,0,0.1-0.2,0-0.2C10,63.6,10.1,63.8,10.2,63.8z M6.2,55.9c0.1,0.1,0.4,0.1,0.4-0.1C6.5,55.9,6.2,55.7,6.2,55.9z M7.7,55.3
		c0-0.1-0.4-0.1-0.3,0.1C7.4,55.5,7.8,55.5,7.7,55.3z M5.2,55.4c0,0-0.5,0.9-0.3,0.9c0.6,0.5,0.4-1.1,0.6-1.2C5.4,55,5.4,55,5.3,55
		C5.3,55.2,5.2,55.3,5.2,55.4z M29.3,54.5C29.3,54.4,29.4,54.5,29.3,54.5C29.3,54.4,29.3,54.5,29.3,54.5z M7.6,55.1
		c0.3-0.2,0.2-1.1-0.2-0.7C7.1,54.7,7.2,55.2,7.6,55.1z M19,54.2c-0.1,0-0.1,0-0.1,0.1C19,54.2,19,54.2,19,54.2z M26.3,53.2
		C26.2,53.4,26.5,53,26.3,53.2C26.2,53.4,26.3,53.2,26.3,53.2z M22.2,52.7C22.2,52.7,22.3,52.8,22.2,52.7
		C22.2,52.7,22.2,52.7,22.2,52.7z M18.9,52.3c0,0.3,0.2,0.3,0.4,0.3C19.3,52.4,19.1,52.1,18.9,52.3z M21.7,52c0,0.4,0.5,0.3,0.4-0.1
		C22,51.9,21.8,51.9,21.7,52z M14.5,52C14.7,52.2,14.4,51.8,14.5,52C14.7,52.2,14.5,52,14.5,52z M6.5,52.7c0.3,0,0.4-0.3,0.6-0.5
		C6.7,52.3,7,51.8,6.5,52C6.3,52.1,6.3,52.5,6.5,52.7z M22.6,52.3c0.4-0.1,0.2,0.3,0.4-0.2c0.1-0.1,0-0.3,0.1-0.4
		C22.8,51.8,22.5,51.9,22.6,52.3z M7.9,51.7C7.8,51.7,8,51.8,7.9,51.7C7.9,51.7,7.9,51.7,7.9,51.7z M3.5,52.2
		C4.1,52.3,3.6,51.1,3.5,52.2C3.8,52.2,3.5,52.2,3.5,52.2z M21.7,51.4c0.1,0,0.3,0.1,0.4-0.1C22.2,51,21.6,51.1,21.7,51.4z
		 M7.5,51.7c0.4,0.1,0.6-0.1,0.6-0.5C7.8,51,7.3,51.3,7.5,51.7z M21.2,51.1C21.5,51.1,21.2,50.8,21.2,51.1
		C21.2,51.1,21.2,51.1,21.2,51.1z M22.9,50.9C22,50.8,23,51.6,23,51.6c0.2-0.1,0.8-0.3,0.7-0.5C23.6,50.8,23.1,50.9,22.9,50.9z
		 M22.4,50.9c-0.1-0.1-0.4-0.2-0.3,0.1C22.1,51.1,22.4,51,22.4,50.9z M7.7,50.8C7.6,50.7,7.8,50.8,7.7,50.8
		C7.7,50.7,7.7,50.8,7.7,50.8z M5,50.1C5,50.4,5.2,50,5.1,50C5.1,50,5,50.1,5,50.1z M8.2,49.9c-0.1,0-0.1,0-0.1,0.1
		C8.2,50,8.2,50,8.2,49.9z M5.5,49.9C5.5,49.8,5.6,50,5.5,49.9C5.5,49.9,5.5,49.9,5.5,49.9z M15.2,49.8c0.1,0,0.1,0,0.2-0.1
		C15.2,49.7,15.2,49.7,15.2,49.8z M15.3,49.5c-0.1,0-0.1,0-0.1,0.1C15.3,49.6,15.3,49.6,15.3,49.5z M4.8,49.4c0-0.1-1,0.8-0.2,0.5
		c0.2-0.1,0.3,0,0.4-0.2C5.1,49.5,5,49.4,4.8,49.4z M7.4,49.8c0.3-0.1,0.7,0.1,0.9-0.2c-0.2,0-0.4-0.2-0.5-0.3
		C7.8,49.6,7.5,49.6,7.4,49.8z M5.7,49.3c0-0.1-0.3-0.1-0.3,0C5.5,49.4,5.8,49.4,5.7,49.3z M5.1,49.1C5,49.1,5.2,49.2,5.1,49.1
		C5.1,49.1,5.1,49.1,5.1,49.1z M25,49.3c0.3,0.2,0.5,0,0.5-0.3C25.2,49,24.9,49,25,49.3z M7.8,49.1c-0.1-0.1-0.1-0.2-0.1-0.4
		C7.2,48.7,7.7,49.2,7.8,49.1z M23.4,48.9c-0.2-0.2-0.9-0.8-0.7,0C22.8,49.4,23.8,49.4,23.4,48.9z M5.7,48C5.5,48.2,6.1,48,5.7,48
		C5.5,48.3,5.7,48,5.7,48z M21.3,48c0.2,0,0.2-0.2,0.1-0.2C21.3,47.9,21.3,47.9,21.3,48z M29.3,55.3c0-0.2,0-0.4,0-0.7
		c0-0.3,0.1-0.6,0.1-0.8c0.1-0.4,0-0.9,0-1.2c0-0.4,0.3-0.7,0-0.9c0.2,0,0.1-2.9,0-3.2c-0.4-1.3-2.1-1.1-2.6-0.1
		c-0.5,0.8,0.2,3.9-0.6,4.1c-0.2,0.1-0.3,0.3-0.3,0.5c0.2,0.2,0.5-0.1,0.7,0.1c0,0.3,0,0.6,0,0.8c0,0.1,0,0.2,0,0.3
		c-0.1,0.1-0.2,0-0.2,0.2c0.1,0,0.1,0,0.2,0c-0.1,0.3-0.7,0.5-0.7,0.9c0,0.4,0.5,0.5,0.4,0.2c0.1,0.2,0.1,0.1,0.2,0
		c0,0.3-0.2,0.9,0.2,1c-0.5,0.1-0.2,1.7-0.2,2.1c0,0.3,0.2,0.9,0,1.1c-0.2,0.4,0,1.1,0,1.5c0,0.2,0,0.4,0,0.6c0,0.2-0.1,0.4,0,0.6
		c0.1,0.4-0.2,1,0.1,1.3c0.2,0.2,0.3,0.4,0.5,0.6c0.1,0,0.2,0,0.3,0.1c0.5,0.5,1.6-0.3,1.8-0.8c0.2-0.9,0-1.9,0-2.8c0-1,0-2,0.1-3
		c0-0.3,0-0.6,0-0.8c0-0.1,0-0.8,0.1-0.8c0,0.1,0,0.1,0,0.2C29.5,55.9,29,55.5,29.3,55.3z M22.5,47.5c0.2,0,0.3,0.1,0.3-0.3
		c-0.1,0-0.1,0-0.2-0.1C22.6,47.3,22.5,47.5,22.5,47.5z M17.4,47.3c0.1,0,0.4,0,0.3-0.2C17.6,46.7,17.1,47,17.4,47.3z M26.2,47
		c0-0.1,0.1-0.1,0.1-0.2C26.2,46.8,26,46.9,26.2,47z M23.8,46.8c0.1,0.3,0.4,0.3,0.5,0C24.2,46.8,23.9,46.8,23.8,46.8z M31.3,46.8
		C31.3,46.7,31.3,46.7,31.3,46.8C31.2,46.9,31.3,46.9,31.3,46.8z M7.8,46.7C7.6,46.6,7.9,46.9,7.8,46.7C7.8,46.7,7.8,46.7,7.8,46.7z
		 M24.8,46.7c-0.4,0-0.5,0.4-0.7,0.6C24.5,47.6,25.2,47.1,24.8,46.7z M15.9,46.9c0.3,0.2,0.3,0,0.3-0.2C16,46.7,15.9,46.7,15.9,46.9
		z M32,46.5C31.9,46.5,32,46.6,32,46.5C32,46.5,32,46.5,32,46.5z M3.3,46.8c0-0.2-0.1-0.3-0.2-0.3C3,46.7,3.1,46.8,3.3,46.8z
		 M1.3,46.5c-0.1,0-0.1-0.1-0.1-0.1C1.2,46.3,1.3,46.7,1.3,46.5z M1,46.2C1,46.1,1.1,46.3,1,46.2C1,46.2,1,46.2,1,46.2z M26.4,46.2
		C26.4,47,27.1,45.7,26.4,46.2C26.4,46.3,26.4,46.2,26.4,46.2z M30.9,45.8C30.9,45.7,31,45.8,30.9,45.8
		C30.9,45.7,30.9,45.8,30.9,45.8z M5.4,45.7c-0.1,0-0.1,0-0.1,0C5.3,45.8,5.3,45.7,5.4,45.7z M33,45.9c0.2,0,0.4-0.1,0.5-0.2
		C33.4,45.4,32.7,45.5,33,45.9z M31.7,45.4C31.7,45.4,31.8,45.5,31.7,45.4C31.7,45.4,31.7,45.4,31.7,45.4z M31.8,45.5
		c0.2,0.2,0.3,0.5-0.1,0.6c-0.1-0.1-0.4-0.1-0.4-0.2c0,0-0.2-0.1-0.3-0.1c-0.2,0,0.2,0.8,0.2,0.8c0.1,0,0.4-0.4,0.6-0.5
		c0.5-0.1,0.4-0.5,0.1-0.9C32,45.5,31.8,45.4,31.8,45.5z M11.9,45.1c-0.1,0-0.1,0-0.1,0.1C11.8,45.2,11.9,45.2,11.9,45.1z M32,45.1
		C32,45,32,45.3,32,45.1C32,45.1,32,45.1,32,45.1z M0.7,45.1c0,0.2,0.5,0.3,0.4,0C1.1,45,0.8,45.1,0.7,45.1z M15.9,45.2
		C16.8,45.4,15.8,44.3,15.9,45.2C16.2,45.3,15.9,45.2,15.9,45.2z M10,44.8C9.9,44.7,10.2,45,10,44.8C10,44.8,10,44.8,10,44.8z
		 M11.8,44.6c0,0-0.1,0.2-0.1,0.2C11.7,44.8,11.8,44.7,11.8,44.6z M4.8,44.2C4.7,44.1,4.9,44.2,4.8,44.2C4.8,44.1,4.8,44.2,4.8,44.2
		z M12.9,44.2C12.7,44.3,13.1,44,12.9,44.2C12.7,44.3,12.9,44.2,12.9,44.2z M12.3,44.2C12.3,44,12.2,44.3,12.3,44.2
		C12.3,44.1,12.3,44.2,12.3,44.2z M4.9,44C4.7,43.9,5,44.1,4.9,44C4.8,44,4.9,44,4.9,44z M5.4,44c0,0-0.1,0-0.1,0
		C5.3,44,5.3,44,5.4,44z M24.5,43.9c0,0-0.1,0-0.1,0C24.4,44,24.5,44,24.5,43.9z M17.7,44.4c-0.2,0.2,0,1.3,0.3,0.8
		c0.2-0.2,0.2,0.1,0.4-0.2c0.2-0.4,0-0.4-0.3-0.4c0-0.2-0.1-0.2-0.2-0.3c-0.2-0.1,0.1-0.3,0.2-0.5C17.7,43.5,17.6,44.1,17.7,44.4z
		 M10.2,44.7c0,0,0.4-0.2,0,0.1c-0.3,0.2,0.2,0.4,0.3,0.2c0.1-0.2,0.9-1.3,0.1-1.2C10.7,44.2,10.1,44.4,10.2,44.7z M10.4,43.7
		C10.2,43.6,10.5,43.8,10.4,43.7C10.4,43.7,10.4,43.7,10.4,43.7z M12.4,44.1c0,0,0.1-0.3,0.1-0.2c0.2-0.1,0.4,0,0.5-0.1
		c-0.1,0-0.5-0.1-0.6-0.1C12.3,43.7,12.2,44,12.4,44.1z M12.2,43.6C12.1,43.5,12.3,43.7,12.2,43.6C12.2,43.6,12.2,43.6,12.2,43.6z
		 M5.5,43.4C5.4,43.3,5.6,43.5,5.5,43.4C5.5,43.4,5.5,43.4,5.5,43.4z M4.8,43.5C5.2,43.5,4.8,43.3,4.8,43.5
		C4.9,43.5,4.8,43.5,4.8,43.5z M16.3,43.2C16.1,43.1,16.5,43.3,16.3,43.2C16.3,43.1,16.3,43.2,16.3,43.2z M5.1,43.2
		c-0.1-0.1-0.2-0.1-0.2,0C4.9,43.3,5.1,43.3,5.1,43.2z M0.8,43.2c-0.1-0.1-0.2,0-0.2,0C0.7,43.2,0.7,43.2,0.8,43.2z M17.4,42.8
		C17.3,43.5,18.2,42.8,17.4,42.8C17.3,43,17.4,42.8,17.4,42.8z M3.7,42.7C3.7,42.7,3.7,42.7,3.7,42.7C3.7,42.7,3.7,42.7,3.7,42.7z
		 M28.6,42.4C28.5,42.4,28.7,42.5,28.6,42.4C28.6,42.4,28.6,42.4,28.6,42.4z M22.4,45.4c0-0.1,0-0.1-0.1-0.1
		C22.3,45.4,22.3,45.4,22.4,45.4z M162.5,48.3C162.5,48.3,162.5,48.2,162.5,48.3C162.6,48.2,162.6,48.2,162.5,48.3
		C162.6,48.3,162.5,48.2,162.5,48.3z M66.6,46.9C66.4,47,66.4,46.9,66.6,46.9L66.6,46.9z M74.9,44.6C74.9,44.5,75,44.7,74.9,44.6
		C74.9,44.6,74.9,44.6,74.9,44.6z M73.9,44C73.8,44,73.9,44,73.9,44C74,44,73.9,44,73.9,44z M73.4,43.8c0-0.1,0.1-0.1,0.1-0.1
		C73.5,43.8,73.5,43.8,73.4,43.8z M69.1,42.8C69.1,42.8,69.1,42.7,69.1,42.8C69.1,42.8,69.1,42.8,69.1,42.8z"/>
	<path fill-rule="evenodd" clip-rule="evenodd" fill="#FFFFFF" d="M85.8,44.5C85.9,44.4,85.9,44.4,85.8,44.5
		C85.8,44.5,85.8,44.5,85.8,44.5z M66.6,23.1C66.7,23.1,66.6,23.1,66.6,23.1C66.7,23.2,66.7,23.1,66.6,23.1z M66.8,18.1
		c0.1-0.4,0.2-0.8,0.2-1.2c0-0.1,0.1-0.2,0.1-0.2c-0.2-1-0.2-1.8-0.2-2.8c0-0.6,0-1.1-0.1-1.6c0,0-0.1,0-0.1,0c0,0,0,0.1-0.1,0.1
		c0-0.3-0.1-0.7,0.3-0.6c-0.1-0.2-0.1-1.2-0.1-1.2c0,0.1,0,0.1,0.1,0.1c0-0.1,0-0.2,0-0.4c-0.1,0-0.1,0-0.2,0.1c0-0.1,0-0.1,0-0.2
		c0-0.2,0.4-0.5,0.1-0.7c-0.2-0.1-0.2-0.1-0.1-0.3c0,0,0,0,0,0C66.8,9.2,67,9,67,9.2c1.5-1.5,3-3,4.5-4.6c0.7-0.8,1.5-1.5,2.3-2.3
		c0.7-0.7,1.4-1.5,2.2-2.1c0.9,0,2.1,0.2,2.8,0c0,0,0-0.1,0-0.1C78.9,0.1,79.1,0,79.2,0c0,0-0.1,0.3-0.2,0.3c0.4,0,0.7-0.4,1-0.3
		C80,0.1,80,0.2,79.9,0.3c0.5,0,1.1,0.1,1.5-0.1c0.1-0.1,0.5,0.1,0.7,0.1c0.4,0,0.5,0,0.8-0.1c0.3-0.1,0.2,0.1,0.3,0.1
		c0.2,0.1,0.7,0,0.9,0c0.9,0,1.8-0.1,2.6,0c0.9,0.1,1.8,0,2.7,0c0.5,0,0.9,0,1.4,0c0.7,0,0.9,0.2,1.4,0.7c0.6,0.6,1.1,1.2,1.7,1.8
		c0.3,0.3,0.6,0.6,0.9,0.9c0.1,0.1,0.4,0.7,0.6,0.7c-0.2,0.1,0,0.4,0,0.6c-0.2,0-0.3-0.1-0.5-0.1c-0.1,0.3-0.2,0.7-0.5,0.2
		c-0.1-0.2-0.3-0.1-0.4-0.3c0-0.2,0-0.3-0.2-0.4c-0.1-0.1-0.3-0.1-0.4-0.1c-0.1-0.2-0.2-0.4-0.4-0.5c-0.1,0-0.4-0.1-0.5,0
		c-0.3-0.3-0.6-0.7-0.9-1c-0.2-0.2-0.5-0.5-0.7-0.7c-0.3-0.3-0.5-0.2-1-0.2c-0.7,0-1.4,0-2.2,0c-1.6,0-3.1,0-4.7,0
		c-1.4,0-2.9,0-4.3,0c-0.7,0-1.4,0-2.2,0c-0.6,0.5-1.2,1-1.7,1.6c-0.9,0.9-1.9,1.8-2.8,2.8c-0.4,0.5-0.9,0.9-1.3,1.4
		c-0.4,0.4-1,0.8-1.3,1.4c-0.4,0.2-0.9,0.7-1.1,1.1c-0.2,0.4,0.1,1,0.1,1.5c-0.2,1.4,0,2.9,0,4.3c0,1.4,0,2.7,0,4.1
		c0,0.6-0.1,1.3,0,1.9c0,0.2,0,0.5,0.1,0.7c0.1,0.2,0,0.5,0,0.8c-0.1,1.2,0,2.5,0.1,3.7c0,0.6,0,1.2,0,1.8c0.1,0.2,0.3-0.1,0.4,0.1
		c-0.2,0.2,0.3,0.5,0.4,0.6c2.2,1.8,4.1,4.1,6.1,6.1c1.6,1.6,3.2,3.1,4.7,4.7c0.8,0.8,1.5,1.6,2.3,2.4c0.1,0.1,1.2,0.9,1.2,1.2
		c0.5-0.1,1.1-1.1,1.5-1.4c0.3-0.3,0.5-0.3,0.5-0.7c0-0.2,0.1-0.5,0.4-0.6c0.4,0,0.4,0.1,0.7-0.2c0.3-0.3,0.6-0.6,0.9-0.9
		c0.6-0.5,1.1-1.1,1.7-1.7c1.2-1.2,2.3-2.3,3.5-3.5c0.5-0.5,1.1-1.1,1.6-1.6c0.4-0.4,1.3-1,1.5-1.5c0.1-0.3,0.7-0.7,0.9-0.9
		c0.5-0.6,1.1-1.1,1.6-1.7c0.3-0.3,0.5-0.3,0.4-0.7c-0.1-0.4,0-0.7,0-1.1c0-0.1,0.1-0.7,0-0.8c-0.2-0.1-0.2,0-0.4-0.2
		c-0.1-0.1,0-0.3,0.1-0.4c0.3-0.1,0.3,0.1,0.3-0.4c0-0.7,0-1.4-0.1-2.1c0-1.7,0-3.3,0-5c0.1,0.1,0.2,0.1,0.2,0c0-0.1,0-0.1-0.1-0.2
		c-0.1,0-0.1,0.2-0.1,0.1c-0.2,0-0.1-4-0.1-4.5c0-0.6,0.4-1,0.2-1.6c0-0.1-0.2-0.6-0.1-0.6c0,0-0.1,0.1-0.1,0.1c0,0,0-1.4,0-1.5
		c0-0.3,0-0.5,0-0.8c-0.3-0.3-0.6-0.6-0.9-0.9c-0.9-0.9-2-1.8-2.7-2.7c-0.1-0.1,0.1-0.3,0.3-0.2c0.2,0.2,0,0.4,0.3,0.5
		c0.2,0.1,0.7,0.2,0.5-0.2C95.9,5.8,96,6,96.3,5.8c0.2-0.1-0.4-0.3-0.5-0.3c0.3-0.3-0.3-0.3-0.3-0.6c0.3-0.3,0.9-0.1,0.7,0.3
		c0.5-0.2,1.6,1.3,2,1.7c0.4,0.4,0.8,0.8,1.2,1.2c0.2,0.2,0.5,0.5,0.7,0.7c0.3,0.3,0.2,0.5,0.2,0.9c-0.1,2.2-0.1,4.5,0,6.6
		c0.1,3.8,0,7.5,0.1,11.2c0,0.6,0,1.1,0,1.7c0,0.6-0.6,0.9-1,1.3c-0.9,0.9-1.7,1.8-2.6,2.6c-0.4,0.4-0.8,0.8-1.2,1.2
		C95.5,34.7,96,35,95.4,35c-0.1,0-0.2,0-0.3-0.1c-0.2,0.2-0.4,0.4-0.6,0.6c-0.2,0.2-0.4,0.4-0.6,0.7c-0.2,0.3-0.4,0.3-0.6,0.5
		c-0.2,0.6-1,1-1.4,1.4c-0.5,0.5-0.9,0.9-1.4,1.4c-0.2,0.2-2.2,2.4-2.2,2.4c0,0,0,0,0,0c-0.1,0.2-0.2,0.4-0.4,0.5
		c-0.1,0-0.2,0.1-0.1,0.2c0.1,0.3-0.1,0.2-0.3,0.3c-0.6,0.3-1.1,1-1.5,1.4c-0.5,0.5-1.2,1-1.6,1.6c-0.2,0.2-0.6,0.4-0.6,0.7
		c-0.1,0.5-0.7-0.4-0.9-0.5c-2.6-2.6-5.1-5.2-7.7-7.8c-1.5-1.5-3-3-4.5-4.5c-0.7-0.7-1.5-1.5-2.2-2.2c-0.2-0.4-0.9-1.1-1.4-1.4
		c-0.3-0.3-0.4-0.2-0.4-0.7c0-0.6,0-1.2,0-1.8c0-1.2,0-2.3,0-3.5c0-0.4-0.2-2.4,0.1-2.6c0.1-0.1,0.1-1.5,0-1.7c0,0.1,0,0.9-0.2,1
		c0.1-0.2-0.5-0.6-0.3-0.7c0.1,0.1,0.2,0.2,0.3,0.1c0-0.2,0.1-0.6,0.1-0.6c-0.1,0.4-0.1-1-0.1-1.1C66.9,16.9,67,18.2,66.8,18.1
		C66.9,18.1,66.9,18.1,66.8,18.1C66.9,18.1,66.8,18.1,66.8,18.1z M66.7,13.1c0-0.1,0-0.2,0.1-0.1C66.8,13.4,66.8,13,66.7,13.1z
		 M68,7.5C68.1,7.4,68,7.5,68,7.5L68,7.5z M100.6,24.4c0,0.1,0,0.2,0,0.3c-0.1,0-0.1,0-0.2-0.1 M100.4,24.6c0-0.1,0.1-0.2,0.2-0.2
		 M68.8,27.8C68.6,28,69,27.6,68.8,27.8C68.6,28,68.8,27.8,68.8,27.8z M69.6,9.7c-0.1-0.1-0.1-0.1-0.1,0C69.5,9.8,69.6,9.8,69.6,9.7
		z M92.8,3.9C93,4.1,92.6,3.8,92.8,3.9C93,4.1,92.8,3.9,92.8,3.9z"/>
</g>
</svg>
