<?xml version="1.0" standalone="no"?>
<!DOCTYPE svg PUBLIC "-//W3C//DTD SVG 1.1//EN" "http://www.w3.org/Graphics/SVG/1.1/DTD/svg11.dtd" >
<svg>
<metadata>
Created by FontForge 20090914 at Thu Mar 28 00:48:20 2013
 By www-data
Copyright (c) ParaGraph Intl., 1990-1995. All Rights Reserved. ITC Kabel is a registered trade mark of International Typeface Corporation.
</metadata>
<defs>
<font id="KabelC-Ultra" horiz-adv-x="1228" >
  <font-face 
    font-family="KabelCTT Ultra"
    font-weight="400"
    font-stretch="normal"
    units-per-em="2048"
    panose-1="0 0 0 0 0 0 0 0 0 0"
    ascent="1638"
    descent="-410"
    x-height="1056"
    cap-height="1437"
    bbox="-153 -401 2189 1931"
    underline-thickness="81"
    underline-position="-123"
    unicode-range="U+0020-U+F002"
  />
<missing-glyph horiz-adv-x="900" 
d="M100 0v1024h800v-1024h-800zM110 10h780v1004h-780v-1004z" />
    <glyph glyph-name=".notdef" horiz-adv-x="900" 
d="M100 0v1024h800v-1024h-800zM110 10h780v1004h-780v-1004z" />
    <glyph glyph-name="space" unicode=" " horiz-adv-x="477" 
 />
    <glyph glyph-name="space" unicode="&#x45d;" horiz-adv-x="477" 
 />
    <glyph glyph-name="space" unicode="&#x40d;" horiz-adv-x="477" 
 />
    <glyph glyph-name="space" unicode="&#xa0;" horiz-adv-x="477" 
 />
    <glyph glyph-name="exclam" unicode="!" horiz-adv-x="796" 
d="M151 1458l485 32l-45 -921l-385 -29zM399 499l266 -266l-266 -265l-266 265z" />
    <glyph glyph-name="quotedbl" unicode="&#x22;" horiz-adv-x="690" 
d="M409 849v555h246v-555h-246zM34 849v555h246v-555h-246z" />
    <glyph glyph-name="numbersign" unicode="#" horiz-adv-x="1349" 
d="M780 288h-205l84 226h-174l-84 -226h-205l84 226h-215l70 184h215l63 174h-225l72 184h223l84 226h205l-84 -226h174l86 226h202l-83 -226h215l-70 -184h-215l-66 -174h226l-68 -184h-225zM729 698l63 174h-174l-63 -174h174z" />
    <glyph glyph-name="dollar" unicode="$" horiz-adv-x="1138" 
d="M479 1552l226.998 23.9961v-139c46 -0.666992 91.5 -4.33398 136.5 -11.001s89.5 -16 133.5 -28v-342c-52.667 20.667 -101.167 35.5 -145.5 44.5s-93.166 13.5 -146.499 13.5c-40.667 0 -71 -6.16699 -91 -18.5s-30 -28.833 -30 -49.5c0 -16 7.16699 -29.833 21.5 -41.5
s40.166 -24.167 77.499 -37.5c148 -52.667 249.667 -111.5 305 -176.5s83 -142.833 83 -233.5c0 -101.333 -34.167 -187 -102.5 -257s-153.5 -110 -255.5 -120v-176l-228 -28v193c-47.333 0.666992 -95.666 4.83398 -144.999 12.501s-100.666 18.834 -153.999 33.501v346
c49.333 -16 99.833 -27.833 151.5 -35.5s102.167 -11.5 151.5 -11.5c60 0 102.333 4.83301 127 14.5s37 25.167 37 46.5c0 26.667 -29 50.834 -87 72.501s-74.667 27.834 -50 18.501c-124.667 48.667 -212.167 101.834 -262.5 159.501s-75.5 130.5 -75.5 218.5
c0 96.667 29.667 180.5 89 251.5s137 116.167 233 135.5v121z" />
    <glyph glyph-name="percent" unicode="%" horiz-adv-x="1820" 
d="M1325 251c26 0 48.167 8.16699 66.5 24.5s27.5 39.166 27.5 68.499c0 30 -8.83301 53.5 -26.5 70.5s-40.167 25.5 -67.5 25.5c-31.333 0 -56 -9.5 -74 -28.5s-27 -41.5 -27 -67.5c0 -27.333 10 -49.666 30 -66.999s43.667 -26 71 -26zM1187 1437l209 -0.00195312
l-803 -1469h-213l619 1119l-14 -6c-8 -3.33301 -18.5 -6.66602 -31.5 -9.99902s-23.833 -5.66602 -32.5 -6.99902h-5h-19c-22 0.666992 -38.5 3 -49.5 7s-22.5 10 -34.5 18l2 -33c4.66699 -82 -25.166 -159.833 -89.499 -233.5s-150.166 -110.5 -257.499 -110.5
c-98 0 -181.167 33.167 -249.5 99.5s-102.5 147.833 -102.5 244.5c0 96 33.833 178 101.5 246s151.167 102 250.5 102c40 0 78 -5.16699 114 -15.5s85.667 -33.833 149 -70.5l39 -22c56 -32.667 93.167 -51.5 111.5 -56.5s36.166 -7.5 53.499 -7.5
c54 0 102.167 17.167 144.5 51.5s78.166 85.5 107.499 153.5zM468 963.998c26 0 48.333 8.16699 67 24.5s28 38.833 28 67.5c0 30 -8.83301 53.667 -26.5 71s-40.5 26 -68.5 26c-30.667 0 -55 -9.5 -73 -28.5s-27 -41.833 -27 -68.5s10 -48.667 30 -66s43.333 -26 70 -26z
M1325 -0.00195312c-98 0 -181.333 32.999 -250 98.999s-103 147.667 -103 245c0 94.667 33.833 176.334 101.5 245.001s151.5 103 251.5 103c99.333 0 181.833 -33.5 247.5 -100.5s98.5 -149.5 98.5 -247.5c0 -97.333 -32.833 -179 -98.5 -245s-148.167 -99 -247.5 -99z" />
    <glyph glyph-name="ampersand" unicode="&#x26;" horiz-adv-x="1366" 
d="M690 1079c0 23.333 -6.83301 41.501 -20.5 54.501s-30.167 19.5 -49.5 19.5c-18.667 0 -34.167 -7.33301 -46.5 -22s-18.5 -34 -18.5 -58c0 -23.333 5 -43.833 15 -61.5s24.667 -32.834 44 -45.501c23.333 14 41.833 30.667 55.5 50s20.5 40.333 20.5 63zM1310 192.001
l-241 -208l-172 190c-59.333 -70.667 -123.5 -122.667 -192.5 -156s-142.167 -50 -219.5 -50c-132 0 -238 40.333 -318 121s-120 184.667 -120 312c0 86.667 23.5 165.167 70.5 235.5s116.167 131.833 207.5 184.5c-37.333 41.333 -64.333 82 -81 122s-25 81.333 -25 124
c0 104 37 191.667 111 263s174.667 107 302 107c115.333 0 207 -32 275 -96s102 -141 102 -231c0 -67.333 -19.167 -130.5 -57.5 -189.5s-90.833 -110.833 -157.5 -155.5l107 -118l200 196l219 -233l-200 -195zM684 421.001l-144.001 164.001
c-27.333 -16.667 -49.5 -37.334 -66.5 -62.001s-25.5 -49 -25.5 -73c0 -30 10.333 -55.167 31 -75.5s46 -30.5 76 -30.5c24 0 46.333 6.33301 67 19s41.334 32 62.001 58z" />
    <glyph glyph-name="quotesingle" unicode="'" horiz-adv-x="454" 
d="M104 849v555h246v-555h-246z" />
    <glyph glyph-name="parenleft" unicode="(" horiz-adv-x="796" 
d="M534 1654l219 -140.999c-124.667 -122 -216.834 -258.333 -276.501 -409s-89.5 -311.334 -89.5 -482.001c0 -169.333 30.5 -326.833 91.5 -472.5s153.167 -281.5 276.5 -407.5l-219 -143c-153.333 147.333 -266.666 305.166 -339.999 473.499s-110 349.5 -110 543.5
c0 212 38.333 403.833 115 575.5s187.667 325.834 333 462.501z" />
    <glyph glyph-name="parenright" unicode=")" horiz-adv-x="796" 
d="M40 1511l219.998 143c152.667 -147.333 265.834 -305.333 339.501 -474s110.5 -350 110.5 -544c0 -212 -38.333 -403.667 -115 -575s-187.667 -325.333 -333 -462l-219 141c124 122 216 258.333 276 409s90 311 90 481s-30.667 327.833 -92 473.5
s-153.666 281.5 -276.999 407.5z" />
    <glyph glyph-name="asterisk" unicode="*" horiz-adv-x="909" 
d="M307 1021l-230 109l74 184l227 -153l-26 233l198 43l-10 -274l187 139l129 -156l-248 -125l239 -102l-77 -192l-234 155l8 -237l-200 -41l32 278l-196 -141l-125 158z" />
    <glyph glyph-name="plus" unicode="+" 
d="M489 653v403h250v-403h403v-250h-403v-403h-250v403h-403v250h403z" />
    <glyph glyph-name="comma" unicode="," horiz-adv-x="604" 
d="M622 403l-278 -790h-289l180 761z" />
    <glyph glyph-name="hyphen" unicode="-" horiz-adv-x="681" 
d="M81 694h521v-332h-521v332z" />
    <glyph glyph-name="hyphen" unicode="&#xad;" horiz-adv-x="681" 
d="M81 694h521v-332h-521v332z" />
    <glyph glyph-name="period" unicode="." horiz-adv-x="569" 
d="M18 233l266 266l266 -266l-266 -265z" />
    <glyph glyph-name="slash" unicode="/" horiz-adv-x="569" 
d="M360 1437h268l-418 -1469h-267z" />
    <glyph glyph-name="zero" unicode="0" horiz-adv-x="1048" 
d="M524 1437c166.667 0 295.667 -60.5 387 -181.5s137 -304.833 137 -551.5c0 -232.667 -43.167 -413.5 -129.5 -542.5s-217.833 -193.5 -394.5 -193.5c-177.333 0 -309 64.5 -395 193.5s-129 309.833 -129 542.5c0 246.667 45.5 430.5 136.5 551.5
s220.167 181.5 387.5 181.5zM524 1024c-41.333 0 -68.833 -22.5 -82.5 -67.5s-20.5 -129.833 -20.5 -254.5s6.83301 -209.5 20.5 -254.5s41.167 -67.5 82.5 -67.5s68.666 22.5 81.999 67.5s20 129.833 20 254.5s-6.66699 209.5 -20 254.5s-40.666 67.5 -81.999 67.5z" />
    <glyph glyph-name="one" unicode="1" horiz-adv-x="1138" 
d="M94 1030l768 407v-1437l-406 -32v900l-252 -107z" />
    <glyph glyph-name="two" unicode="2" horiz-adv-x="1193" 
d="M1126 399l-84.001 -399.001h-967l523 739c30 42.667 51.833 79.5 65.5 110.5s20.5 61.167 20.5 90.5s-10.667 54 -32 74s-49 30 -83 30c-30 0 -55.333 -10.5 -76 -31.5s-31 -46.167 -31 -75.5c0 -22 6.66699 -43 20 -63s31.333 -35 54 -45l-221 -328
c-83.333 42.667 -148.166 102 -194.499 178s-69.5 164.333 -69.5 265c0 142.667 49 260.5 147 353.5s228.333 139.5 391 139.5c154 0 277.167 -45.167 369.5 -135.5s138.5 -208.166 138.5 -353.499c0 -77.333 -17 -152.5 -51 -225.5s-97.333 -159.167 -190 -258.5l-62 -65
h332z" />
    <glyph glyph-name="three" unicode="3" horiz-adv-x="1165" 
d="M219 966l-162.003 321.999c82 50.667 164 88.167 246 112.5s161 36.5 237 36.5c158.667 0 279.667 -37.667 363 -113s125 -167.333 125 -276c0 -71.333 -19 -134.166 -57 -188.499s-88 -95.833 -150 -124.5c72.667 -24.667 131.334 -65.5 176.001 -122.5
s67 -125.5 67 -205.5c0 -127.333 -48.667 -232.333 -146 -315s-231.333 -124 -402 -124c-87.333 0 -170.666 11.667 -249.999 35s-153 55.666 -221 96.999l157 342c45.333 -29.333 91.833 -51.666 139.5 -66.999s93.5 -23 137.5 -23c49.333 0 86.5 10.5 111.5 31.5
s37.5 45.833 37.5 74.5c0 34 -13.167 59.333 -39.5 76s-65.5 25 -117.5 25h-113v313h121c42.667 0 74.834 9 96.501 27s32.5 40.333 32.5 67c0 24.667 -11 45.167 -33 61.5s-55.333 24.5 -100 24.5c-40.667 0 -83.5 -7.66699 -128.5 -23s-87.5 -36.333 -127.5 -63z" />
    <glyph glyph-name="four" unicode="4" horiz-adv-x="1220" 
d="M366 1404h606v-743h195l-55 -379h-140v-282l-409 -34v316h-567zM452 634h135v392h-8z" />
    <glyph glyph-name="five" unicode="5" horiz-adv-x="1150" 
d="M24 49l153.998 351.998c40.667 -15.333 81.334 -27 122.001 -35s81 -12 121 -12c72.667 0 126.667 10.833 162 32.5s53 48.834 53 81.501c0 43.333 -22.5 76.833 -67.5 100.5s-109.167 35.5 -192.5 35.5c-32.667 0 -66.167 -2.16699 -100.5 -6.5
s-68.833 -10.5 -103.5 -18.5v825h841l-88 -378h-379v-107c14.667 4.66699 29.167 7.83398 43.5 9.50098s29.833 2.5 46.5 2.5c124 0 226.833 -42.167 308.5 -126.5s122.5 -188.833 122.5 -313.5c0 -150.667 -53.167 -275.5 -159.5 -374.5s-258.166 -148.5 -455.499 -148.5
c-72 0 -143.5 6.5 -214.5 19.5s-142.167 33.5 -213.5 61.5z" />
    <glyph glyph-name="six" unicode="6" horiz-adv-x="1167" 
d="M540 1443l437.998 -125.001c-75.333 -72.667 -141.166 -141.834 -197.499 -207.501s-106.5 -130.167 -150.5 -193.5c13.333 4 26.833 7 40.5 9s28.167 3 43.5 3c105.333 0 199.333 -43.5 282 -130.5s124 -197.167 124 -330.5c0 -152.667 -50.667 -274.167 -152 -364.5
s-229.666 -135.5 -384.999 -135.5c-165.333 0 -294 52 -386 156s-138 228.333 -138 373c0 122.667 41.5 266.334 124.5 431.001s201.833 336.334 356.5 515.001zM476.998 484.999c0 -32 10.667 -58.833 32 -80.5s48 -32.5 80 -32.5c34 0 61.333 11.833 82 35.5
s31 49.5 31 77.5c0 29.333 -11.333 55.5 -34 78.5s-49 34.5 -79 34.5c-28 0 -53.667 -10.5 -77 -31.5s-35 -48.167 -35 -81.5z" />
    <glyph glyph-name="seven" unicode="7" horiz-adv-x="1138" 
d="M161 -32l410 1039h-502l90 397h975l-489 -1404z" />
    <glyph glyph-name="eight" unicode="8" horiz-adv-x="1171" 
d="M262 724c-54 33.333 -96.1689 75 -126.502 125s-45.5 108.333 -45.5 175c0 121.333 43.333 220.5 130 297.5s208.334 115.5 365.001 115.5s278.5 -38.5 365.5 -115.5s130.5 -176.167 130.5 -297.5c0 -66.667 -15.333 -125 -46 -175s-72.667 -91.667 -126 -125
c66 -32 117 -76.667 153 -134s54 -118.333 54 -183c0 -127.333 -45.667 -232.333 -137 -315s-222.666 -124 -393.999 -124s-302.5 41.333 -393.5 124s-136.5 187.667 -136.5 315c0 64.667 18 125.667 54 183s87 102 153 134zM467.998 460
c0 -31.333 11.6689 -58.501 35.002 -81.501s50.666 -34.5 81.999 -34.5c33.333 0 61.166 11.833 83.499 35.5s33.5 50.5 33.5 80.5c0 32 -11.5 59.5 -34.5 82.5s-50.5 34.5 -82.5 34.5c-30 0 -57 -11.167 -81 -33.5s-36 -50.166 -36 -83.499zM489 973.999
c0 -26.667 9.33008 -49.333 27.9971 -68s41.334 -28 68.001 -28c28.667 0 51.834 9.5 69.501 28.5s26.5 41.5 26.5 67.5c0 27.333 -9.16699 50.333 -27.5 69s-41.166 28 -68.499 28c-26 0 -48.5 -9 -67.5 -27s-28.5 -41.333 -28.5 -70z" />
    <glyph glyph-name="nine" unicode="9" horiz-adv-x="1138" 
d="M612 -32l-432 133.999c62 61.333 121.833 125.333 179.5 192s112.5 135.667 164.5 207h-4c-4 0 -10 -0.666992 -18 -2s-15.667 -2.33301 -23 -3c-16 -1.33301 -26.833 -2.16602 -32.5 -2.49902s-9.16699 -0.5 -10.5 -0.5c-104 0 -194.833 43.167 -272.5 129.5
s-116.5 195.5 -116.5 327.5c0 139.333 46.667 255.333 140 348s223.333 139 390 139c156.667 0 279.5 -49.5 368.5 -148.5s133.5 -224.833 133.5 -377.5c0 -115.333 -26.5 -232.333 -79.5 -351s-152.833 -276.667 -299.5 -474zM452 924.999c0 -30 10.833 -55.5 32.5 -76.5
s47.834 -31.5 78.501 -31.5c30 0 55.833 10.5 77.5 31.5s32.5 46.5 32.5 76.5c0 29.333 -10.667 54.5 -32 75.5s-47.333 31.5 -78 31.5s-56.834 -10.5 -78.501 -31.5s-32.5 -46.167 -32.5 -75.5z" />
    <glyph glyph-name="colon" unicode=":" horiz-adv-x="569" 
d="M284 499l266 -266l-266 -265l-266 265zM284 1058l266 -266l-266 -266l-266 266z" />
    <glyph glyph-name="semicolon" unicode=";" horiz-adv-x="569" 
d="M157 374l387 29l-278 -790h-288zM321 1058l266 -266l-266 -266l-266 266z" />
    <glyph glyph-name="less" unicode="&#x3c;" 
d="M413 528l729 -299v-235l-1056 438v192l1056 438v-235z" />
    <glyph glyph-name="equal" unicode="=" 
d="M1142 886v-250h-1056v250h1056zM1142 419v-250h-1056v250h1056z" />
    <glyph glyph-name="greater" unicode="&#x3e;" 
d="M815 528l-729 299v235l1056 -438v-192l-1056 -438v235z" />
    <glyph glyph-name="question" unicode="?" horiz-adv-x="1024" 
d="M319 1028l-305.001 221.003c52 80 118.333 140.167 199 180.5s171.334 60.5 272.001 60.5c131.333 0 244 -40.333 338 -121s141 -181.334 141 -302.001c0 -55.333 -12.833 -109.5 -38.5 -162.5s-62.5 -100.833 -110.5 -143.5
c-128.667 -110.667 -193 -166.334 -193 -167.001v-5v-37l-332 -28v117c0 54 8.83301 100.167 26.5 138.5s58.167 78.833 121.5 121.5c33.333 22.667 56.333 43.167 69 61.5s19 37.833 19 58.5c0 25.333 -9.66699 45.333 -29 60s-41.666 22 -66.999 22
c-22 0 -41.333 -5.33301 -58 -16s-34.334 -30.334 -53.001 -59.001zM480.999 -31.9971l-266 265l266 266l266 -266z" />
    <glyph glyph-name="at" unicode="@" horiz-adv-x="1638" 
d="M792 495c52.667 0 99.667 19.001 141 57.001s62 88 62 150c0 46 -14.167 83.833 -42.5 113.5s-66.833 44.5 -115.5 44.5c-55.333 0 -101.5 -19.5 -138.5 -58.5s-55.5 -87.167 -55.5 -144.5c0 -48.667 13.667 -87.834 41 -117.501s63.333 -44.5 108 -44.5zM1212 235.001
l80.0029 -154.001c-61.333 -37.333 -129.666 -65.5 -204.999 -84.5s-149 -28.5 -221 -28.5c-220 0 -404 69.667 -552 209s-222 313.666 -222 522.999s73.667 384.5 221 525.5s327.666 211.5 540.999 211.5c208 0 375.667 -60.833 503 -182.5s191 -260.167 191 -415.5
c0 -151.333 -53.5 -283.666 -160.5 -396.999s-224.167 -170 -351.5 -170c-32.667 0 -58.334 9 -77.001 27s-29.334 41.667 -32.001 71c-22 -30 -50 -53.833 -84 -71.5s-69.333 -26.5 -106 -26.5c-90.667 0 -168.334 34.5 -233.001 103.5s-97 151.833 -97 248.5
c0 118 37.833 223 113.5 315s171.5 138 287.5 138c50 0 95.833 -10 137.5 -30s77.167 -49 106.5 -87l19 96h188l-92 -489c-2.66699 -14.667 -4.33398 -25 -5.00098 -31s-1 -11.333 -1 -16c0 -15.333 3 -26.666 9 -33.999s15.333 -11 28 -11c41.333 0 80.333 29.833 117 89.5
s55 130.834 55 213.501c0 150 -50 267 -150 351s-224.333 126 -373 126c-162 0 -292.167 -51.833 -390.5 -155.5s-147.5 -236.834 -147.5 -399.501c0 -160.667 50.833 -292.667 152.5 -396s241.834 -155 420.501 -155c60.667 0 117.167 6.5 169.5 19.5
s105.833 35.167 160.5 66.5z" />
    <glyph glyph-name="A" unicode="A" horiz-adv-x="1366" 
d="M-53 0l462 1404h537l473 -1404l-482 -32l-69 242h-385l-72 -242zM784 561l-109 442h-4l-110 -442h223z" />
    <glyph glyph-name="B" unicode="B" horiz-adv-x="1253" 
d="M106 1404l578.001 -0.00195312c142.667 0 258.167 -33 346.5 -99s132.5 -156.333 132.5 -271c0 -64.667 -15.5 -123.167 -46.5 -175.5s-75.5 -92.166 -133.5 -119.499c69.333 -28 124.166 -71.667 164.499 -131s60.5 -129.666 60.5 -210.999
c0 -117.333 -43.333 -212.833 -130 -286.5s-197.667 -110.5 -333 -110.5h-639v1404zM550.001 572.998v-246h56c42 0 75.667 11 101 33s38 52 38 90s-12.5 68 -37.5 90s-58.833 33 -101.5 33h-56zM550.001 1085v-219h54c35.333 0 63.166 10.667 83.499 32
s30.5 47.333 30.5 78c0 33.333 -11.167 59.833 -33.5 79.5s-52.166 29.5 -89.499 29.5h-45z" />
    <glyph glyph-name="C" unicode="C" horiz-adv-x="1097" 
d="M1077 446l-60 -445.999c-40.667 -10.667 -82.667 -18.667 -126 -24s-86 -8 -128 -8c-208.667 0 -380.834 68.833 -516.501 206.5s-203.5 309.5 -203.5 515.5c0 213.333 70.333 391.166 211 533.499s321.334 213.5 542.001 213.5c30.667 0 62.5 -2.33301 95.5 -7
s68.833 -11.667 107.5 -21l74 -439c-38 17.333 -77 30.666 -117 39.999s-79 14 -117 14c-102 0 -186.167 -29 -252.5 -87s-99.5 -136.333 -99.5 -235c0 -94 32.833 -171.167 98.5 -231.5s147.5 -90.5 245.5 -90.5c47.333 0 91.833 5.83301 133.5 17.5
s79.167 27.834 112.5 48.501z" />
    <glyph glyph-name="D" unicode="D" horiz-adv-x="1368" 
d="M106 0v1404h455c218 0 399 -63.167 543 -189.5s216 -292.5 216 -498.5c0 -212 -66 -384.333 -198 -517s-305.333 -199 -520 -199h-496zM550 1003v-601.999h54c80 0 145.333 26.667 196 80s76 120 76 200c0 94.667 -29 173.167 -87 235.5s-137.667 91.166 -239 86.499z
" />
    <glyph glyph-name="E" unicode="E" horiz-adv-x="1036" 
d="M915 0h-809v1404h780l88 -376h-424v-140h277v-350h-277v-149h455z" />
    <glyph glyph-name="F" unicode="F" horiz-adv-x="919" 
d="M550 0l-444 -32v1436h723l100 -401h-379v-186h256v-351h-256v-466z" />
    <glyph glyph-name="G" unicode="G" horiz-adv-x="1388" 
d="M1298 1282l-233.999 -350.999c-34 29.333 -72.833 52.166 -116.5 68.499s-87.834 24.5 -132.501 24.5c-92.667 0 -166.834 -31.667 -222.501 -95s-83.5 -142.333 -83.5 -237c0 -89.333 24.333 -162.333 73 -219s118 -87.667 208 -93h19h18
c6.66699 0.666992 14.334 1.5 23.001 2.5s16.667 2.5 24 4.5v133h-211l78 319h563v-751c-79.333 -40 -163.833 -70 -253.5 -90s-178.5 -30 -266.5 -30c-218 0 -396 71 -534 213s-207 323 -207 543c0 204.667 77.167 374.667 231.5 510s337.833 203 550.5 203
c72.667 0 142.5 -9.66699 209.5 -29s151.5 -59.333 253.5 -120z" />
    <glyph glyph-name="H" unicode="H" horiz-adv-x="1368" 
d="M550 0l-444 -32v1436l444 33v-512h267v479l444 33v-1437l-444 -32v556h-267v-524z" />
    <glyph glyph-name="I" unicode="I" horiz-adv-x="681" 
d="M118 1404l445 33v-1437l-445 -32v1436z" />
    <glyph glyph-name="J" unicode="J" horiz-adv-x="737" 
d="M186 1404l444 33v-903c0 -202.667 -35 -342.334 -105 -419.001s-197.333 -115 -382 -115h-103l-95 436c24 -6.66699 49.333 -12.167 76 -16.5s49 -6.5 67 -6.5c34 0 58.833 10.333 74.5 31s23.5 58.334 23.5 113.001v847z" />
    <glyph glyph-name="K" unicode="K" horiz-adv-x="1294" 
d="M550 0l-444 -32v1436l444 33v-629h5l227 629l477 -33l-276 -639l331 -765l-499 -32l-260 732h-5v-700z" />
    <glyph glyph-name="L" unicode="L" horiz-adv-x="1036" 
d="M942 0h-836v1404l444 33v-1024h486z" />
    <glyph glyph-name="M" unicode="M" horiz-adv-x="1593" 
d="M452 -32l-432 32l182 1404h406l194 -520l193 520h403l174 -1404l-444 -32l-64 662h-4l-268 -699l-262 697h-4z" />
    <glyph glyph-name="N" unicode="N" horiz-adv-x="1480" 
d="M106 -32v1436h430l408 -671h4v671l426 33v-1437h-418l-420 677h-4v-677z" />
    <glyph glyph-name="O" unicode="O" horiz-adv-x="1662" 
d="M509 702c0 -88.667 31.5 -164.5 94.5 -227.5s138.833 -94.5 227.5 -94.5c89.333 0 165.333 31.667 228 95s94 139 94 227c0 88.667 -31.5 164.5 -94.5 227.5s-138.833 94.5 -227.5 94.5c-88 0 -163.667 -31.333 -227 -94s-95 -138.667 -95 -228zM43 702
c0 204 77.5 377.5 232.5 520.5s340.167 214.5 555.5 214.5c216.667 0 402.167 -71.5 556.5 -214.5s231.5 -316.5 231.5 -520.5c0 -203.333 -77.167 -376.5 -231.5 -519.5s-339.833 -214.5 -556.5 -214.5c-216 0 -401.333 71.5 -556 214.5s-232 316.167 -232 519.5z" />
    <glyph glyph-name="P" unicode="P" horiz-adv-x="1212" 
d="M106 1404l436 0.000976562c202 0 357.333 -41 466 -123s163 -208.667 163 -380c0 -146.667 -49.5 -265.334 -148.5 -356.001s-229.167 -136 -390.5 -136h-82v-409l-444 -32v1436zM550 1054v-306.999h31c44 0 78.833 16.167 104.5 48.5s38.5 70.166 38.5 113.499
c0 45.333 -14 80.833 -42 106.5s-61.667 38.5 -101 38.5h-31z" />
    <glyph glyph-name="Q" unicode="Q" horiz-adv-x="1662" 
d="M509 702c0 -88.667 31.5 -164.5 94.5 -227.5s138.833 -94.5 227.5 -94.5c89.333 0 165.333 31.667 228 95s94 139 94 227c0 88.667 -31.5 164.5 -94.5 227.5s-138.833 94.5 -227.5 94.5c-88 0 -163.667 -31.333 -227 -94s-95 -138.667 -95 -228zM1261 -227l-235.001 227
c-34 -11.333 -66.667 -19.5 -98 -24.5s-63.666 -7.5 -96.999 -7.5c-212.667 0 -397.167 71.833 -553.5 215.5s-234.5 316.5 -234.5 518.5c0 204 77.5 377.5 232.5 520.5s340.167 214.5 555.5 214.5c216 0 401.333 -71.5 556 -214.5s232 -316.5 232 -520.5
c0 -93.333 -20 -183.333 -60 -270s-97.667 -162.667 -173 -228l207 -180z" />
    <glyph glyph-name="R" unicode="R" horiz-adv-x="1327" 
d="M106 1404l485 -0.000976562c216.667 0 378 -36.667 484 -110s159 -184.666 159 -333.999c0 -78.667 -19.5 -149.5 -58.5 -212.5s-94.5 -108.833 -166.5 -137.5l279 -590l-490 -50l-239 613h-9v-583l-444 -32v1436zM550 1013v-338.001h60c46 0 83.833 17 113.5 51
s44.5 73.667 44.5 119c0 48.667 -16.167 88.834 -48.5 120.501s-71.5 47.5 -117.5 47.5h-52z" />
    <glyph glyph-name="S" unicode="S" horiz-adv-x="1138" 
d="M991 1400l-0.00585938 -403.001c-56 16 -109.667 28.5 -161 37.5s-98 13.5 -140 13.5c-61.333 0 -105.666 -5.83301 -132.999 -17.5s-41 -28.5 -41 -50.5c0 -10.667 3.83301 -21 11.5 -31s55.834 -32.667 144.501 -68c149.333 -59.333 253.166 -121.666 311.499 -186.999
s87.5 -150.666 87.5 -255.999c0 -152 -54.5 -268.333 -163.5 -349s-266.167 -121 -471.5 -121c-36.667 0 -69.5 1 -98.5 3s-108.833 13.667 -239.5 35l-12 2v401c62.667 -13.333 122.834 -23.5 180.501 -30.5s114.167 -10.5 169.5 -10.5c65.333 0 110.333 6.5 135 19.5
s37 31.833 37 56.5c0 15.333 -5.16699 28.5 -15.5 39.5s-68.166 36.833 -173.499 77.5c-133.333 51.333 -224.666 109.166 -273.999 173.499s-74 144.833 -74 241.5c0 141.333 48.167 253.5 144.5 336.5s230.5 124.5 402.5 124.5c64.667 0 128.834 -3.16699 192.501 -9.5
s123.834 -15.5 180.501 -27.5z" />
    <glyph glyph-name="T" unicode="T" horiz-adv-x="1017" 
d="M739 991v-991l-445 -32v1023h-304l93 413h918v-413h-262z" />
    <glyph glyph-name="U" unicode="U" horiz-adv-x="1288" 
d="M106 1404l444 33.001v-954c0 -42 8.83301 -71.667 26.5 -89s41.834 -26 72.501 -26c29.333 0 51.333 9.16699 66 27.5s22 47.5 22 87.5v921l444 33v-983c0 -162.667 -52.5 -284.334 -157.5 -365.001s-242.833 -121 -413.5 -121c-140.667 0 -259.834 39.5 -357.501 118.5
s-146.5 200.167 -146.5 363.5v954z" />
    <glyph glyph-name="V" unicode="V" horiz-adv-x="1204" 
d="M1224 1404l-348 -1404h-547l-349 1404l445 33l183 -952h4l174 952z" />
    <glyph glyph-name="W" unicode="W" horiz-adv-x="1705" 
d="M1419 0h-395l-173 743h-4l-166 -743h-397l-310 1404l437 33l154 -706h4l147 673h275l155 -682h4l154 715l430 -33z" />
    <glyph glyph-name="X" unicode="X" horiz-adv-x="1251" 
d="M468 1437l156 -405l152 405l460 -33l-329 -680l366 -724l-485 -32l-174 447l-164 -447l-472 32l357 731l-335 673z" />
    <glyph glyph-name="Y" unicode="Y" horiz-adv-x="1138" 
d="M1193 1396l-546 -1428l-488 48l205 442l-431 938l484 41l168 -471h4l146 471z" />
    <glyph glyph-name="Z" unicode="Z" horiz-adv-x="1138" 
d="M1130 413l-90 -413h-1052l450 1003h-389l86 401h964l-450 -991h481z" />
    <glyph glyph-name="bracketleft" unicode="[" horiz-adv-x="681" 
d="M563 -370h-445v1994h441v-181h-177v-1633h181v-180z" />
    <glyph glyph-name="backslash" unicode="\" horiz-adv-x="569" 
d="M108 1437l614 -1469h-262l-613 1469h261z" />
    <glyph glyph-name="bracketright" unicode="]" horiz-adv-x="681" 
d="M122 -370v180h177v1633h-181v181h445v-1994h-441z" />
    <glyph glyph-name="asciicircum" unicode="^" 
d="M614 1165l-227 -508h-238l356 747h217l357 -747h-238z" />
    <glyph glyph-name="underscore" unicode="_" horiz-adv-x="1024" 
d="M1024 -256h-1024v152h1024v-152z" />
    <glyph glyph-name="grave" unicode="`" horiz-adv-x="516" 
d="M-45 1689l487 -280l-72 -134l-505 232z" />
    <glyph glyph-name="a" unicode="a" horiz-adv-x="1157" 
d="M157 743l72.001 298.997c59.333 16 120.333 27.833 183 35.5s123 11.5 181 11.5c144.667 0 260.167 -33.167 346.5 -99.5s129.5 -158.166 129.5 -275.499v-714l-396 -32v113h-4c-34.667 -40 -74 -68.833 -118 -86.5s-93.333 -26.5 -148 -26.5
c-109.333 0 -198.5 34 -267.5 102s-103.5 155 -103.5 261c0 104.667 34.667 191.334 104 260.001s158.333 103 267 103c49.333 0 93.166 -7 131.499 -21s76.5 -35.667 114.5 -65v76c0 36.667 -16.5 64.834 -49.5 84.501s-76.833 29.5 -131.5 29.5
c-50 0 -102.333 -4.83301 -157 -14.5s-106 -23.167 -154 -40.5zM458.001 343.997c0 -26 9.16699 -49.333 27.5 -70s42.833 -31 73.5 -31c28.667 0 52.5 9.83301 71.5 29.5s28.5 43.5 28.5 71.5c0 25.333 -9.66699 48.333 -29 69s-43 31 -71 31
c-26.667 0 -50.167 -10.167 -70.5 -30.5s-30.5 -43.5 -30.5 -69.5z" />
    <glyph glyph-name="b" unicode="b" horiz-adv-x="1273" 
d="M81 1474l398 32.999v-486c37.333 22.667 76.666 39.667 117.999 51s81 17 119 17c139.333 0 259.833 -52.167 361.5 -156.5s152.5 -229.5 152.5 -375.5c0 -160 -50.667 -298.167 -152 -414.5s-241.666 -174.5 -420.999 -174.5c-168 0 -306 54.833 -414 164.5
s-162 257.834 -162 444.501v897zM479 527.999c0 -45.333 15.333 -83.333 46 -114s68.334 -46 113.001 -46c42.667 0 80 14.667 112 44s48 68 48 116c0 42.667 -15.167 80 -45.5 112s-68.5 48 -114.5 48c-44.667 0 -82.334 -15.5 -113.001 -46.5s-46 -68.833 -46 -113.5z" />
    <glyph glyph-name="c" unicode="c" horiz-adv-x="1073" 
d="M804 419l247.997 -313.001c-62 -50 -127.167 -85.5 -195.5 -106.5s-145.166 -31.5 -230.499 -31.5c-181.333 0 -323.833 54.5 -427.5 163.5s-155.5 236.5 -155.5 382.5c0 160 54.333 295.833 163 407.5s258.334 167.5 449.001 167.5c69.333 0 136 -10.167 200 -30.5
s125.667 -53.166 185 -98.499l-242 -317c-20 16 -42.167 28.167 -66.5 36.5s-49.166 12.5 -74.499 12.5c-53.333 0 -97 -15.333 -131 -46s-51 -68 -51 -112c0 -46 17 -85.833 51 -119.5s79 -50.5 135 -50.5c26 0 51.5 4.66699 76.5 14s47.167 23 66.5 41z" />
    <glyph glyph-name="d" unicode="d" horiz-adv-x="1277" 
d="M1189 0l-358 -24.001v103h-8c-34.667 -37.333 -75.167 -65.166 -121.5 -83.499s-100.166 -27.5 -161.499 -27.5c-145.333 0 -265 54 -359 162s-141 238 -141 390c0 166.667 52.5 303.167 157.5 409.5s226.167 159.5 363.5 159.5c44 0 85.667 -5.66699 125 -17
s74.666 -28.333 105.999 -51v437l397 32v-1490zM792 527.999c0 44.667 -15.333 82.5 -46 113.5s-68.667 46.5 -114 46.5c-44.667 0 -82.334 -15.5 -113.001 -46.5s-46 -68.833 -46 -113.5c0 -45.333 15.333 -83.333 46 -114s68.334 -46 113.001 -46
c45.333 0 83.333 15.333 114 46s46 68.667 46 114z" />
    <glyph glyph-name="e" unicode="e" horiz-adv-x="1185" 
d="M960 419l176.002 -301c-74 -52.667 -148.667 -90.834 -224 -114.501s-154.333 -35.5 -237 -35.5c-200 0 -355.833 55.167 -467.5 165.5s-167.5 241.833 -167.5 394.5s54.833 284.334 164.5 395.001s250.167 166 421.5 166c113.333 0 217.666 -29.167 312.999 -87.5
s168.666 -144.5 219.999 -258.5l-570 -397c17.333 -11.333 34.833 -19.333 52.5 -24s37.167 -7 58.5 -7c43.333 0 87.5 8.66699 132.5 26s87.5 43.333 127.5 78zM460.002 526l283 196.001c-14.667 17.333 -32 30.333 -52 39s-42.333 13 -67 13
c-54 0 -97.167 -17.833 -129.5 -53.5s-48.5 -80.834 -48.5 -135.501c0 -14 1 -25.167 3 -33.5s5.66699 -16.833 11 -25.5z" />
    <glyph glyph-name="f" unicode="f" horiz-adv-x="679" 
d="M55 1056h67.001v33c0 122.667 38.333 220.167 115 292.5s173 108.5 289 108.5c25.333 0 49.166 -0.5 71.499 -1.5s42.833 -3.16699 61.5 -6.5l45 -313c-12 2 -24.5 3.5 -37.5 4.5s-24.5 1.5 -34.5 1.5c-36 0 -63.667 -9.66699 -83 -29s-29 -42.333 -29 -69v-21h157v-315
h-157v-725l-398 -32v757h-126z" />
    <glyph glyph-name="g" unicode="g" horiz-adv-x="1144" 
d="M55 -325l177.998 323.003c44 -16.667 89.333 -29.334 136 -38.001s89.334 -13 128.001 -13c52 0 92.333 9.83301 121 29.5s43 45.167 43 76.5c0 38.667 -17.333 68.167 -52 88.5s-83 30.5 -145 30.5c-22.667 0 -48 -1 -76 -3s-70.667 -6 -128 -12l34 74
c-78.667 36.667 -140.667 90.667 -186 162s-68 153 -68 245c0 122 43.5 227.667 130.5 317s208.167 134 363.5 134c40.667 0 78 -2.66699 112 -8s66.333 -13.666 97 -24.999l326 66l-97 -187c39.333 -38.667 69 -82.667 89 -132s30 -102 30 -158
c0 -76 -17.167 -142.833 -51.5 -200.5s-81.166 -102.834 -140.499 -135.501c58 -28.667 103.833 -69.334 137.5 -122.001s50.5 -114.334 50.5 -185.001c0 -127.333 -53.333 -226.333 -160 -297s-250.667 -106 -432 -106c-76.667 0 -151 6.16699 -223 18.5
s-144.333 31.5 -217 57.5zM465.998 616.003c0 -31.333 10.667 -57.666 32 -78.999s47.666 -32 78.999 -32s57.666 10.667 78.999 32s32 47.666 32 78.999s-10.667 57.666 -32 78.999s-47.666 32 -78.999 32s-57.666 -10.667 -78.999 -32s-32 -47.666 -32 -78.999z" />
    <glyph glyph-name="h" unicode="h" horiz-adv-x="1136" 
d="M88 1458l396.999 32v-514h8c26.667 37.333 60.334 65.5 101.001 84.5s86.334 28.5 137.001 28.5c98.667 0 176.167 -33 232.5 -99s84.5 -154.667 84.5 -266v-708l-397 -32v667c0 22 -7.83301 40.167 -23.5 54.5s-35.167 21.5 -58.5 21.5
c-22.667 0 -42.334 -7.83301 -59.001 -23.5s-25 -36.5 -25 -62.5v-625l-397 -32v1474z" />
    <glyph glyph-name="i" unicode="i" horiz-adv-x="573" 
d="M485 1089v-1073l-397 -32v1072zM278 1593l256 -232l-240 -215l-256 215z" />
    <glyph glyph-name="j" unicode="j" horiz-adv-x="571" 
d="M86 1056l397 32.999v-981c0 -144 -37.833 -256 -113.5 -336s-177.834 -120 -306.501 -120h-85l-100 336h43c54.667 0 95.834 12.333 123.501 37s41.5 63.334 41.5 116.001v915zM276 1593l256 -232l-240 -215l-256 215z" />
    <glyph glyph-name="k" unicode="k" horiz-adv-x="1169" 
d="M485 16l-397 -32v1474l397 32v-882h8l186 465l426 -33l-223 -445l287 -579l-430 -32l-246 566h-8v-534z" />
    <glyph glyph-name="l" unicode="l" horiz-adv-x="573" 
d="M485 16l-397 -32v1474l397 32v-1474z" />
    <glyph glyph-name="m" unicode="m" horiz-adv-x="1699" 
d="M88 1040l363.995 31v-150h8c36.667 55.333 81.334 97.166 134.001 125.499s110.667 42.5 174 42.5c56 0 104.333 -9.33301 145 -28s75.334 -45.667 104.001 -81c33.333 36 70.333 63.167 111 81.5s84.334 27.5 131.001 27.5c107.333 0 192.833 -35.667 256.5 -107
s95.5 -160.666 95.5 -267.999v-698l-397 -32v661c0 22.667 -7.33301 42 -22 58s-34.667 24 -60 24c-27.333 0 -48.166 -8.5 -62.499 -25.5s-21.5 -40.167 -21.5 -69.5v-616l-397 -32v661c0 22.667 -7.33301 42 -22 58s-34.667 24 -60 24
c-27.333 0 -48.166 -8.5 -62.499 -25.5s-21.5 -40.167 -21.5 -69.5v-616l-397 -32v1056z" />
    <glyph glyph-name="n" unicode="n" horiz-adv-x="1136" 
d="M88 1040l372.001 31.001v-123h8c32 47.333 70.667 82.666 116 105.999s94.333 35 147 35c96 0 172.833 -30.667 230.5 -92s86.5 -152.333 86.5 -273v-708l-397 -32v667c0 22 -7.83301 40.167 -23.5 54.5s-35.167 21.5 -58.5 21.5
c-22.667 0 -42.334 -7.83301 -59.001 -23.5s-25 -36.5 -25 -62.5v-625l-397 -32v1056z" />
    <glyph glyph-name="o" unicode="o" horiz-adv-x="1269" 
d="M634 1089c163.333 0 302.831 -54.5 418.498 -163.5s173.5 -241.5 173.5 -397.5c0 -154.667 -58 -286.667 -174 -396s-255.333 -164 -418 -164c-161.333 0 -300.166 54.5 -416.499 163.5s-174.5 241.167 -174.5 396.5c0 158 58.333 291 175 399s255.334 162 416.001 162z
M474.998 528c0 -46.667 15.333 -85.667 46 -117s68.334 -47 113.001 -47c45.333 0 83.333 15.667 114 47s46 70.333 46 117s-15.333 85.667 -46 117s-68.667 47 -114 47c-44.667 0 -82.334 -15.667 -113.001 -47s-46 -70.333 -46 -117z" />
    <glyph glyph-name="p" unicode="p" horiz-adv-x="1277" 
d="M88 1040l380.001 31v-107h9c35.333 42.667 75.666 74.167 120.999 94.5s93 30.5 143 30.5c128 0 242.167 -52.5 342.5 -157.5s150.5 -238.167 150.5 -399.5c0 -166.667 -52.833 -302.334 -158.5 -407.001s-223.5 -157 -353.5 -157c-48 0 -91.5 6.33301 -130.5 19
s-74.5 33.334 -106.5 62.001v-364l-397 -33v1388zM485.001 528c0 -46 15.333 -84.833 46 -116.5s68.667 -47.5 114 -47.5s82.833 16.167 112.5 48.5s44.5 70.833 44.5 115.5s-14.833 83.167 -44.5 115.5s-67.167 48.5 -112.5 48.5s-83.333 -16 -114 -48
s-46 -70.667 -46 -116z" />
    <glyph glyph-name="q" unicode="q" horiz-adv-x="1251" 
d="M1163 1069l-0.000976562 -1384l-398 -33v372c-34 -19.333 -67.667 -33.5 -101 -42.5s-68.333 -13.5 -105 -13.5c-151.333 0 -275.166 54.667 -371.499 164s-144.5 241.333 -144.5 396c0 152.667 45.833 284.334 137.5 395.001s206.167 166 343.5 166
c68.667 0 125.5 -11.667 170.5 -35s80.167 -56 105.5 -98h4v84zM777.999 527.999c0 45.333 -14 84.6699 -42 118.003s-65.333 50 -112 50c-46 0 -83.5 -16.333 -112.5 -49s-43.5 -72.334 -43.5 -119.001s14.5 -86.334 43.5 -119.001s66.5 -49 112.5 -49
c46.667 0 84 16.667 112 50s42 72.666 42 117.999z" />
    <glyph glyph-name="r" unicode="r" horiz-adv-x="772" 
d="M88 1040l350.001 29.001v-158h6c26 57.333 64 101.333 114 132s110.333 46 181 46c8 0 16.667 -0.5 26 -1.5s20.333 -2.5 33 -4.5l-96 -402c-5.33301 1.33301 -9.83301 2.16602 -13.5 2.49902s-7.5 0.5 -11.5 0.5c-60.667 0 -107.834 -23.833 -141.501 -71.5
s-50.5 -110.167 -50.5 -187.5v-409l-397 -32v1056z" />
    <glyph glyph-name="s" unicode="s" horiz-adv-x="888" 
d="M776 1052l-0.000976562 -340.002c-40 12 -78.167 20.5 -114.5 25.5s-73.5 7.5 -111.5 7.5c-32 0 -56.333 -3.83301 -73 -11.5s-25 -19.5 -25 -35.5c0 -5.33301 1.16699 -10.5 3.5 -15.5s60.5 -30.5 174.5 -76.5c73.333 -30 127.166 -70.5 161.499 -121.5
s51.5 -111.5 51.5 -181.5c0 -94.667 -37.667 -174.167 -113 -238.5s-189.666 -96.5 -342.999 -96.5c-57.333 0 -115.333 3.33301 -174 10s-112.667 15.334 -162 26.001v344c44.667 -12.667 85.667 -22 123 -28s72 -9 104 -9c44.667 0 77.667 4.66699 99 14s32 22.333 32 39
c0 2.66699 0.833008 0.833984 2.5 -5.49902s-74.166 37.167 -227.499 130.5c-45.333 27.333 -80.166 63.333 -104.499 108s-36.5 98 -36.5 160c0 98 37.333 177.833 112 239.5s182.667 92.5 324 92.5c44 0 92.667 -3.33301 146 -10s103.666 -15.667 150.999 -27z" />
    <glyph glyph-name="t" unicode="t" horiz-adv-x="681" 
d="M667 335l-62.998 -361c-20.667 -2 -41.334 -3.5 -62.001 -4.5s-38.334 -1.5 -53.001 -1.5c-126 0 -219.333 28.5 -280 85.5s-91 141.5 -91 253.5v434h-120l57 315h63v121l398 180v-301h125v-315h-125v-322c0 -37.333 6.16699 -61.666 18.5 -72.999s34.833 -17 67.5 -17
c6 0 15.5 0.666992 28.5 2s25.167 2.66602 36.5 3.99902z" />
    <glyph glyph-name="u" unicode="u" horiz-adv-x="1136" 
d="M1048 0l-351.999 -16v169h-4c-22 -63.333 -58.833 -110 -110.5 -140s-113.834 -45 -186.501 -45c-85.333 0 -157.833 26 -217.5 78s-89.5 132 -89.5 240v754l397 33v-656c0 -30 7.5 -52.167 22.5 -66.5s35.5 -21.5 61.5 -21.5c25.333 0 45.333 8 60 24s22 36.667 22 62
v625l397 33v-1073z" />
    <glyph glyph-name="v" unicode="v" horiz-adv-x="1024" 
d="M241 0l-239 1040l393 33l104 -709h4l121 709l397 -33l-251 -1040h-529z" />
    <glyph glyph-name="w" unicode="w" horiz-adv-x="1478" 
d="M380 1073l109 -498h4l113 481h278l109 -481h4l108 498l400 -33l-283 -1040h-379l-102 481h-4l-105 -481h-376l-284 1040z" />
    <glyph glyph-name="x" unicode="x" horiz-adv-x="1054" 
d="M425 1073l97 -308h4l84 308l424 -33l-219 -488l256 -536l-441 -32l-104 331h-4l-107 -331l-431 32l243 536l-227 488z" />
    <glyph glyph-name="y" unicode="y" horiz-adv-x="925" 
d="M360 1073l123 -404h4l90 404l377 -33l-391 -1365l-416 33l158 431l-343 901z" />
    <glyph glyph-name="z" unicode="z" horiz-adv-x="909" 
d="M294 675h-262l78 381h764l-307 -676h325l-79 -380h-829z" />
    <glyph glyph-name="braceleft" unicode="{" horiz-adv-x="796" 
d="M745 -221l-80 -180h-96c-94 0 -173.5 26.333 -238.5 79s-97.5 127.334 -97.5 224.001v462c0 49.333 -13.333 87.666 -40 114.999s-64 40.333 -112 39v217c48 -1.33301 85.333 11.667 112 39s40 65.333 40 114v463c0 85.333 31.333 157.166 94 215.499s129 87.5 199 87.5
h139l80 -180h-121c-52 0 -86.167 -11.167 -102.5 -33.5s-24.5 -58.833 -24.5 -109.5v-490c0 -71.333 -10.5 -123.166 -31.5 -155.499s-55.5 -50.833 -103.5 -55.5v-8c48 -4.66699 82.5 -23 103.5 -55s31.5 -84 31.5 -156v-488c0 -50 12 -86.5 36 -109.5
s63.333 -34.5 118 -34.5h94z" />
    <glyph glyph-name="bar" unicode="|" horiz-adv-x="454" 
d="M102 0v1404h250v-1404h-250z" />
    <glyph glyph-name="braceright" unicode="}" horiz-adv-x="796" 
d="M51 -221h94c54 0 93.167 11.5 117.5 34.5s36.5 59.5 36.5 109.5v488c0 72 10.5 124 31.5 156s55.5 50.333 103.5 55v8c-48 4.66699 -82.5 23.167 -103.5 55.5s-31.5 84.166 -31.5 155.499v490c0 50.667 -8.33301 87.167 -25 109.5s-50.667 33.5 -102 33.5h-121l80 180
h139c70 0 136.333 -29.167 199 -87.5s94 -130.166 94 -215.499v-463c0 -48.667 13.167 -86.667 39.5 -114s63.5 -40.333 111.5 -39v-217c-48 1.33301 -85.167 -11.667 -111.5 -39s-39.5 -65.666 -39.5 -114.999v-462c0 -96.667 -32.5 -171.334 -97.5 -224.001
s-144.5 -79 -238.5 -79h-96z" />
    <glyph glyph-name="asciitilde" unicode="~" 
d="M215 337l-73.999 197.001c26.667 55.333 61.834 98.5 105.501 129.5s93.834 46.5 150.501 46.5c26 0 55.167 -4.16699 87.5 -12.5s115.166 -40.833 248.499 -97.5c28 -12.667 48.833 -20.667 62.5 -24s26.167 -5 37.5 -5c29.333 0 57.333 9.83301 84 29.5
s54 51.5 82 95.5l14 22l74 -196c-35.333 -55.333 -74.333 -98.5 -117 -129.5s-89 -46.5 -139 -46.5c-22 0 -45.333 2.66699 -70 8s-48.334 12.666 -71.001 21.999c-164 69.333 -252.833 104.833 -266.5 106.5s-25.834 2.5 -36.501 2.5c-41.333 0 -76.5 -13 -105.5 -39
s-51.167 -62.333 -66.5 -109z" />
    <glyph glyph-name="afii10051" horiz-adv-x="1470" 
d="M1011 991h-299.002v-176c28 12 61.5 21 100.5 27s83.5 9 133.5 9c133.333 0 243.833 -38.333 331.5 -115s131.5 -181 131.5 -313c0 -140.667 -46.667 -252 -140 -334s-229.666 -122.333 -408.999 -121l-70 357c52.667 -1.33301 91.834 8.5 117.501 29.5
s38.5 49.5 38.5 85.5c0 26.667 -11.333 48 -34 64s-52.334 24 -89.001 24c-18 0 -36.667 -2.5 -56 -7.5s-37.666 -12.167 -54.999 -21.5v-499l-444 -32v1023h-284l93 413h934v-413z" />
    <glyph glyph-name="afii10051" unicode="&#x402;" horiz-adv-x="1470" 
d="M1011 991h-299.002v-176c28 12 61.5 21 100.5 27s83.5 9 133.5 9c133.333 0 243.833 -38.333 331.5 -115s131.5 -181 131.5 -313c0 -140.667 -46.667 -252 -140 -334s-229.666 -122.333 -408.999 -121l-70 357c52.667 -1.33301 91.834 8.5 117.501 29.5
s38.5 49.5 38.5 85.5c0 26.667 -11.333 48 -34 64s-52.334 24 -89.001 24c-18 0 -36.667 -2.5 -56 -7.5s-37.666 -12.167 -54.999 -21.5v-499l-444 -32v1023h-284l93 413h934v-413z" />
    <glyph glyph-name="afii10052" horiz-adv-x="950" 
d="M550 0l-444 -32v1436h743l101 -413h-400v-991zM695 1931l92 -185l-520 -233l-74 133z" />
    <glyph glyph-name="afii10052" unicode="&#x403;" horiz-adv-x="950" 
d="M550 0l-444 -32v1436h743l101 -413h-400v-991zM695 1931l92 -185l-520 -233l-74 133z" />
    <glyph glyph-name="afii10061" horiz-adv-x="1304" 
d="M550 0l-444 -32v1436l444 33v-629h5l227 629l477 -33l-276 -639l331 -765l-499 -32l-260 732h-5v-700zM871 1931l92 -185l-520 -233l-74 133z" />
    <glyph glyph-name="afii10061" unicode="&#x40c;" horiz-adv-x="1304" 
d="M550 0l-444 -32v1436l444 33v-629h5l227 629l477 -33l-276 -639l331 -765l-499 -32l-260 732h-5v-700zM871 1931l92 -185l-520 -233l-74 133z" />
    <glyph glyph-name="afii10060" horiz-adv-x="1495" 
d="M1011 991h-298.998v-172c30.667 11.333 64.667 19.5 102 24.5s81.333 7.5 132 7.5c159.333 0 275.166 -35.5 347.499 -106.5s108.5 -193.167 108.5 -366.5v-378l-444 -32v365c0 48 -11.333 82.167 -34 102.5s-56.334 30.5 -101.001 30.5h-50.5
c-0.333008 0 -20.5 -8.66699 -60.5 -26v-440l-444 -32v1023h-284l93 413h934v-413z" />
    <glyph glyph-name="afii10060" unicode="&#x40b;" horiz-adv-x="1495" 
d="M1011 991h-298.998v-172c30.667 11.333 64.667 19.5 102 24.5s81.333 7.5 132 7.5c159.333 0 275.166 -35.5 347.499 -106.5s108.5 -193.167 108.5 -366.5v-378l-444 -32v365c0 48 -11.333 82.167 -34 102.5s-56.334 30.5 -101.001 30.5h-50.5
c-0.333008 0 -20.5 -8.66699 -60.5 -26v-440l-444 -32v1023h-284l93 413h934v-413z" />
    <glyph glyph-name="afii10145" horiz-adv-x="1368" 
d="M817 1404l444 33v-1437h-356v-237l-443 -33v270h-356v1404l444 33v-1036h267v1003z" />
    <glyph glyph-name="afii10145" unicode="&#x40f;" horiz-adv-x="1368" 
d="M817 1404l444 33v-1437h-356v-237l-443 -33v270h-356v1404l444 33v-1036h267v1003z" />
    <glyph glyph-name="afii10099" horiz-adv-x="1150" 
d="M92 1458l396.998 32v-172h287v-147h-287v-195h4c26.667 36.667 60.167 64.667 100.5 84s87.5 29 141.5 29c114 0 201.5 -46.833 262.5 -140.5s91.5 -237.834 91.5 -432.501c0 -200 -25.167 -364.667 -75.5 -494s-130.833 -251.333 -241.5 -366l-287 177l29 32
c54.667 63.333 94.834 141.166 120.501 233.499s38.5 202.833 38.5 331.5c0 126.667 -7.66699 207.834 -23 243.501s-41 53.5 -77 53.5c-23.333 0 -43.166 -8.66699 -59.499 -26s-24.5 -41.666 -24.5 -72.999v-612l-397 -32v1187h-122v147h122v140z" />
    <glyph glyph-name="afii10099" unicode="&#x452;" horiz-adv-x="1150" 
d="M92 1458l396.998 32v-172h287v-147h-287v-195h4c26.667 36.667 60.167 64.667 100.5 84s87.5 29 141.5 29c114 0 201.5 -46.833 262.5 -140.5s91.5 -237.834 91.5 -432.501c0 -200 -25.167 -364.667 -75.5 -494s-130.833 -251.333 -241.5 -366l-287 177l29 32
c54.667 63.333 94.834 141.166 120.501 233.499s38.5 202.833 38.5 331.5c0 126.667 -7.66699 207.834 -23 243.501s-41 53.5 -77 53.5c-23.333 0 -43.166 -8.66699 -59.499 -26s-24.5 -41.666 -24.5 -72.999v-612l-397 -32v1187h-122v147h122v140z" />
    <glyph glyph-name="afii10109" horiz-adv-x="1159" 
d="M88 1040l397 33v-488h4l184 488l424 -33l-215 -467l277 -557l-430 -32l-240 544h-4v-512l-397 -32v1056zM882 1689l90 -182l-506 -232l-72 134z" />
    <glyph glyph-name="afii10109" unicode="&#x45c;" horiz-adv-x="1159" 
d="M88 1040l397 33v-488h4l184 488l424 -33l-215 -467l277 -557l-430 -32l-240 544h-4v-512l-397 -32v1056zM882 1689l90 -182l-506 -232l-72 134z" />
    <glyph glyph-name="afii10108" horiz-adv-x="1140" 
d="M92 1458l396.999 32.001v-172h287v-147h-287v-195h4c28 37.333 62 65.5 102 84.5s86.667 28.5 140 28.5c98.667 0 176.167 -33 232.5 -99s84.5 -154.667 84.5 -266v-708l-397 -32v667c0 22.667 -7.66699 41 -23 55s-35 21 -59 21c-23.333 0 -43.166 -7.33301 -59.499 -22
s-24.5 -33.334 -24.5 -56.001v-633l-397 -32v1187h-122v147h122v140z" />
    <glyph glyph-name="afii10108" unicode="&#x45b;" horiz-adv-x="1140" 
d="M92 1458l396.999 32.001v-172h287v-147h-287v-195h4c28 37.333 62 65.5 102 84.5s86.667 28.5 140 28.5c98.667 0 176.167 -33 232.5 -99s84.5 -154.667 84.5 -266v-708l-397 -32v667c0 22.667 -7.66699 41 -23 55s-35 21 -59 21c-23.333 0 -43.166 -7.33301 -59.499 -22
s-24.5 -33.334 -24.5 -56.001v-633l-397 -32v1187h-122v147h122v140z" />
    <glyph glyph-name="afii10062" unicode="&#xa1;" horiz-adv-x="1144" 
d="M1193 1396l-546 -1428l-488 48l205 442l-431 938l484 41l168 -471h4l146 471zM824 1826l186.998 -32c-24 -87.333 -71.667 -156 -143 -206s-157.666 -75 -258.999 -75c-100.667 0 -186.667 25 -258 75s-119 118.667 -143 206l186 32
c14.667 -45.333 40.5 -78.833 77.5 -100.5s82.833 -32.5 137.5 -32.5c55.333 0 101.333 10.833 138 32.5s62.334 55.167 77.001 100.5z" />
    <glyph glyph-name="afii10062" unicode="&#x40e;" horiz-adv-x="1144" 
d="M1193 1396l-546 -1428l-488 48l205 442l-431 938l484 41l168 -471h4l146 471zM824 1826l186.998 -32c-24 -87.333 -71.667 -156 -143 -206s-157.666 -75 -258.999 -75c-100.667 0 -186.667 25 -258 75s-119 118.667 -143 206l186 32
c14.667 -45.333 40.5 -78.833 77.5 -100.5s82.833 -32.5 137.5 -32.5c55.333 0 101.333 10.833 138 32.5s62.334 55.167 77.001 100.5z" />
    <glyph glyph-name="afii10110" unicode="&#xa2;" horiz-adv-x="926" 
d="M360 1073l123 -404h4l90 404l377 -33l-391 -1365l-416 33l158 431l-343 901zM677 1589l186 -33c-24 -87.333 -71.667 -156 -143 -206s-157.333 -75 -258 -75s-186.5 25 -257.5 75s-118.833 118.667 -143.5 206l186 33c14.667 -46 40.5 -79.667 77.5 -101
s82.833 -32 137.5 -32s100.5 10.667 137.5 32s62.833 55 77.5 101z" />
    <glyph glyph-name="afii10110" unicode="&#x45e;" horiz-adv-x="926" 
d="M360 1073l123 -404h4l90 404l377 -33l-391 -1365l-416 33l158 431l-343 901zM677 1589l186 -33c-24 -87.333 -71.667 -156 -143 -206s-157.333 -75 -258 -75s-186.5 25 -257.5 75s-118.833 118.667 -143.5 206l186 33c14.667 -46 40.5 -79.667 77.5 -101
s82.833 -32 137.5 -32s100.5 10.667 137.5 32s62.833 55 77.5 101z" />
    <glyph glyph-name="afii10057" unicode="&#xa3;" horiz-adv-x="737" 
d="M186 1404l444 33v-903c0 -202.667 -35 -342.334 -105 -419.001s-197.333 -115 -382 -115h-103l-95 436c24 -6.66699 49.333 -12.167 76 -16.5s49 -6.5 67 -6.5c34 0 58.833 10.333 74.5 31s23.5 58.334 23.5 113.001v847z" />
    <glyph glyph-name="afii10057" unicode="&#x408;" horiz-adv-x="737" 
d="M186 1404l444 33v-903c0 -202.667 -35 -342.334 -105 -419.001s-197.333 -115 -382 -115h-103l-95 436c24 -6.66699 49.333 -12.167 76 -16.5s49 -6.5 67 -6.5c34 0 58.833 10.333 74.5 31s23.5 58.334 23.5 113.001v847z" />
    <glyph glyph-name="currency" unicode="&#xa4;" horiz-adv-x="1138" 
d="M34 311l118.998 119.004c-33.333 37.333 -57.333 79.666 -72 126.999s-22 99.666 -22 156.999c0 61.333 7.66699 115.666 23 162.999s39 89.333 71 126l-119 119l129 129l117 -117c40 32 84.167 55 132.5 69s101.833 21 160.5 21s109.834 -7 153.501 -21
s83.167 -35.667 118.5 -65l119 119l139 -139l-114 -115c29.333 -37.333 51 -79.333 65 -126s21 -99.667 21 -159c0 -58 -7.16699 -111.167 -21.5 -159.5s-37.166 -92.833 -68.499 -133.5l114 -114l-123 -123l-118 119c-38 -34.667 -80.5 -59.834 -127.5 -75.501
s-100.167 -23.5 -159.5 -23.5s-112.833 7.5 -160.5 22.5s-92.5 39.167 -134.5 72.5l-117 -117zM572.998 999.004c-76 0 -139.668 -25.832 -191.001 -77.499s-77 -120.834 -77 -207.501c0 -78.667 25.167 -145 75.5 -199s113.833 -81 190.5 -81s138.834 25.667 186.501 77
s71.5 120.333 71.5 207c0 86 -24.167 154.333 -72.5 205s-109.5 76 -183.5 76z" />
    <glyph glyph-name="CyrHardG" unicode="&#xa5;" horiz-adv-x="989" 
d="M548 0l-444 -32v1436h438v142l426 33v-576h-420v-1003z" />
    <glyph glyph-name="CyrHardG" unicode="&#x490;" horiz-adv-x="989" 
d="M548 0l-444 -32v1436h438v142l426 33v-576h-420v-1003z" />
    <glyph glyph-name="brokenbar" unicode="&#xa6;" horiz-adv-x="454" 
d="M102 0v534h250v-534h-250zM102 870v534h250v-534h-250z" />
    <glyph glyph-name="section" unicode="&#xa7;" horiz-adv-x="1093" 
d="M1003 1208l-248.004 -182.002c-13.333 50 -36.166 89 -68.499 117s-68.166 42 -107.499 42c-26 0 -47.5 -7.66699 -64.5 -23s-25.5 -33.666 -25.5 -54.999c0 -17.333 6.66699 -35.166 20 -53.499s55.666 -54.166 126.999 -107.499l189 -142
c92 -68.667 151.167 -128 177.5 -178s39.5 -110.667 39.5 -182c0 -76.667 -19.167 -138.334 -57.5 -185.001s-91.5 -78 -159.5 -94c34.667 -32 61.334 -68 80.001 -108s28 -82 28 -126c0 -90 -37.667 -164 -113 -222s-172 -87 -290 -87
c-97.333 0 -182.166 19.833 -254.499 59.5s-129.5 94.834 -171.5 165.501l244 161c18 -41.333 42.167 -74.5 72.5 -99.5s62.833 -37.5 97.5 -37.5c23.333 0 43.5 7.5 60.5 22.5s25.5 31.5 25.5 49.5c0 22 -9.33301 44.667 -28 68s-50.334 51.666 -95.001 84.999l-201 149
c-85.333 64 -145.166 123.5 -179.499 178.5s-51.5 112.167 -51.5 171.5c0 61.333 20.167 118.833 60.5 172.5s96.5 89.167 168.5 106.5l-18 14c-31.333 24 -55.333 54.833 -72 92.5s-25 78.5 -25 122.5c0 104 36.667 185.333 110 244s168 88 284 88
c97.333 0 181.833 -18.667 253.5 -56s135.834 -94.333 192.501 -171zM695.996 513.998l-263.998 196c-24.667 -9.33301 -43.834 -22.833 -57.501 -40.5s-20.5 -35.5 -20.5 -53.5c0 -12.667 3.66699 -24.5 11 -35.5s20.666 -23.833 39.999 -38.5l272 -205
c18.667 5.33301 35.667 16.166 51 32.499s23 32.833 23 49.5s-4.83301 33.334 -14.5 50.001s-23.167 31.667 -40.5 45z" />
    <glyph glyph-name="afii10023" unicode="&#xa8;" horiz-adv-x="1036" 
d="M915 0h-809v1404h780l88 -376h-424v-140h277v-350h-277v-149h455zM94 1617l192 170l193 -170l-193 -170zM557 1617l192 170l193 -170l-193 -170z" />
    <glyph glyph-name="afii10023" unicode="&#x401;" horiz-adv-x="1036" 
d="M915 0h-809v1404h780l88 -376h-424v-140h277v-350h-277v-149h455zM94 1617l192 170l193 -170l-193 -170zM557 1617l192 170l193 -170l-193 -170z" />
    <glyph glyph-name="copyright" unicode="&#xa9;" horiz-adv-x="1638" 
d="M1583 702c0 -217.333 -74.333 -394 -223 -530s-329 -204 -541 -204c-208 0 -387.333 65.833 -538 197.5s-226 310.5 -226 536.5c0 219.333 72.167 396.666 216.5 531.999s326.833 203 547.5 203c216.667 0 398.167 -68.167 544.5 -204.5s219.5 -313.166 219.5 -530.499z
M280 702c0 -153.333 50.5 -283.833 151.5 -391.5s230.167 -161.5 387.5 -161.5c156.667 0 285.5 52 386.5 156s151.5 236.333 151.5 397c0 156 -49.167 287.167 -147.5 393.5s-228.5 159.5 -390.5 159.5c-158 0 -287.333 -51.667 -388 -155s-151 -236 -151 -398zM960 606
l173.999 -218.998c-42.667 -31.333 -88.167 -55.333 -136.5 -72s-105.166 -25 -170.499 -25c-133.333 0 -238.333 40.667 -315 122s-115 175.333 -115 282c0 118.667 40 218.667 120 300s190 122 330 122c50 0 98.167 -7.33301 144.5 -22s90.5 -36.667 132.5 -66l-170 -224
c-13.333 12.667 -29.166 22 -47.499 28s-37.5 9 -57.5 9c-42 0 -77 -12.833 -105 -38.5s-42 -57.167 -42 -94.5c0 -36.667 13.667 -69.334 41 -98.001s64.333 -43 111 -43c19.333 0 37.666 3.16699 54.999 9.5s34.333 16.166 51 29.499z" />
    <glyph glyph-name="afii10053" unicode="&#xaa;" horiz-adv-x="1120" 
d="M1077 415l-60 -414.998c-40 -10 -81.167 -17.833 -123.5 -23.5s-85.833 -8.5 -130.5 -8.5c-220 0 -395 67.667 -525 203s-195 308.333 -195 519c0 229.333 69.333 411.166 208 545.499s320.334 201.5 545.001 201.5c27.333 0 58.333 -2.33301 93 -7
s71.334 -11.667 110.001 -21l74 -408c-40 18 -80.333 31.333 -121 40s-78.334 13 -113.001 13c-68.667 0 -131.334 -16.833 -188.001 -50.5s-97 -80.834 -121 -141.501h410v-303h-416c19.333 -62 58.333 -112.333 117 -151s122 -58 190 -58c46.667 0 91 5.83301 133 17.5
s79.667 27.5 113 47.5z" />
    <glyph glyph-name="afii10053" unicode="&#x404;" horiz-adv-x="1120" 
d="M1077 415l-60 -414.998c-40 -10 -81.167 -17.833 -123.5 -23.5s-85.833 -8.5 -130.5 -8.5c-220 0 -395 67.667 -525 203s-195 308.333 -195 519c0 229.333 69.333 411.166 208 545.499s320.334 201.5 545.001 201.5c27.333 0 58.333 -2.33301 93 -7
s71.334 -11.667 110.001 -21l74 -408c-40 18 -80.333 31.333 -121 40s-78.334 13 -113.001 13c-68.667 0 -131.334 -16.833 -188.001 -50.5s-97 -80.834 -121 -141.501h410v-303h-416c19.333 -62 58.333 -112.333 117 -151s122 -58 190 -58c46.667 0 91 5.83301 133 17.5
s79.667 27.5 113 47.5z" />
    <glyph glyph-name="guillemotleft" unicode="&#xab;" horiz-adv-x="1136" 
d="M534 528l229 342h295l-229 -342l229 -342h-295zM77 528l230 342h295l-230 -342l230 -342h-295z" />
    <glyph glyph-name="logicalnot" unicode="&#xac;" 
d="M892 -49v411h-806v250h1056v-661h-250z" />
    <glyph glyph-name="registered" unicode="&#xae;" horiz-adv-x="1671" 
d="M55 702c0 204.667 76.167 378.334 228.5 521.001s336.166 214 551.499 214s399.166 -71.333 551.499 -214s228.5 -316.334 228.5 -521.001s-76.167 -378.167 -228.5 -520.5s-336.166 -213.5 -551.499 -213.5s-399.166 71.167 -551.499 213.5s-228.5 315.833 -228.5 520.5
zM282 702c0 -152.667 54 -283 162 -391s238.333 -162 391 -162s283 54 391 162s162 238.333 162 391s-54 283 -162 391s-238.333 162 -391 162s-283 -54 -391 -162s-162 -238.333 -162 -391zM503 1085h416.001c89.333 0 163.166 -21 221.499 -63s87.5 -99.667 87.5 -173
c0 -52 -13.5 -96.667 -40.5 -134s-63.167 -62 -108.5 -74l149 -291l-293 -35l-133 328h-20v-281l-279 -23v746zM782.001 681h33c33.333 0 60 9 80 27s30 44 30 78c0 28 -10 50.667 -30 68s-46 26 -78 26h-35v-199z" />
    <glyph glyph-name="afii10056" unicode="&#xaf;" horiz-adv-x="684" 
d="M118 1404l445 33v-1437l-445 -32v1436zM-82 1683l192 170l193 -170l-193 -170zM381 1683l192 170l193 -170l-193 -170z" />
    <glyph glyph-name="afii10056" unicode="&#x407;" horiz-adv-x="684" 
d="M118 1404l445 33v-1437l-445 -32v1436zM-82 1683l192 170l193 -170l-193 -170zM381 1683l192 170l193 -170l-193 -170z" />
    <glyph glyph-name="degree" unicode="&#xb0;" horiz-adv-x="819" 
d="M409 958c53.333 0 96.667 17.667 130 53s50 80.333 50 135c0 53.333 -16.5 97.833 -49.5 133.5s-76.5 53.5 -130.5 53.5c-48 0 -90 -16.667 -126 -50s-54 -79 -54 -137c0 -52.667 17 -97.167 51 -133.5s77 -54.5 129 -54.5zM409.001 854
c-81.333 0 -150.5 28.667 -207.5 86s-85.5 126 -85.5 206c0 79.333 28.667 147.666 86 204.999s126.333 86 207 86c80 0 148.833 -28.167 206.5 -84.5s86.5 -125.166 86.5 -206.499s-28.5 -150.333 -85.5 -207s-126.167 -85 -207.5 -85z" />
    <glyph glyph-name="plusminus" unicode="&#xb1;" 
d="M489 808v248h250v-248h403v-249h-403v-248h-250v248h-403v249h403zM86 0v249h1056v-249h-1056z" />
    <glyph glyph-name="afii10055" unicode="&#xb2;" horiz-adv-x="681" 
d="M118 1404l445 33v-1437l-445 -32v1436z" />
    <glyph glyph-name="afii10055" unicode="&#x406;" horiz-adv-x="681" 
d="M118 1404l445 33v-1437l-445 -32v1436z" />
    <glyph glyph-name="afii10103" unicode="&#xb3;" horiz-adv-x="573" 
d="M485 1089v-1073l-397 -32v1072zM278 1593l256 -232l-240 -215l-256 215z" />
    <glyph glyph-name="afii10103" unicode="&#x456;" horiz-adv-x="573" 
d="M485 1089v-1073l-397 -32v1072zM278 1593l256 -232l-240 -215l-256 215z" />
    <glyph glyph-name="cyrhardg" unicode="&#xb4;" horiz-adv-x="833" 
d="M88 1056h356v117l369 31v-484h-328v-720h-397v1056z" />
    <glyph glyph-name="cyrhardg" unicode="&#x491;" horiz-adv-x="833" 
d="M88 1056h356v117l369 31v-484h-328v-720h-397v1056z" />
    <glyph glyph-name="mu" unicode="&#xb5;" horiz-adv-x="1136" 
d="M1048 0l-352 -16v169h-4c-10.667 -52 -35 -94.667 -73 -128s-82.667 -52.333 -134 -57v-283l-397 -16v1387l397 33v-672c0 -28 7 -49.667 21 -65s35 -23 63 -23s48.667 7 62 21s20 35.667 20 65v641l397 33v-1089z" />
    <glyph glyph-name="paragraph" unicode="&#xb6;" horiz-adv-x="1269" 
d="M458 -352l0.000976562 1070h-45c-124.667 0 -223.667 30 -297 90s-110 141.333 -110 244c0 110.667 37.167 197 111.5 259s191.166 93 350.499 93h689v-1756h-250v1580h-199v-1580h-250z" />
    <glyph glyph-name="afii10071" unicode="&#xb8;" horiz-adv-x="1185" 
d="M960 419l176.002 -301c-74 -52.667 -148.667 -90.834 -224 -114.501s-154.333 -35.5 -237 -35.5c-200 0 -355.833 55.167 -467.5 165.5s-167.5 241.833 -167.5 394.5s54.833 284.334 164.5 395.001s250.167 166 421.5 166c113.333 0 217.666 -29.167 312.999 -87.5
s168.666 -144.5 219.999 -258.5l-570 -397c17.333 -11.333 34.833 -19.333 52.5 -24s37.167 -7 58.5 -7c43.333 0 87.5 8.66699 132.5 26s87.5 43.333 127.5 78zM460.002 526l283 196.001c-14.667 17.333 -32 30.333 -52 39s-42.333 13 -67 13
c-54 0 -97.167 -17.833 -129.5 -53.5s-48.5 -80.834 -48.5 -135.501c0 -14 1 -25.167 3 -33.5s5.66699 -16.833 11 -25.5zM210.002 1368l175 174l174 -174l-174 -175zM630.002 1368l174 174l174 -174l-174 -175z" />
    <glyph glyph-name="afii10071" unicode="&#x451;" horiz-adv-x="1185" 
d="M960 419l176.002 -301c-74 -52.667 -148.667 -90.834 -224 -114.501s-154.333 -35.5 -237 -35.5c-200 0 -355.833 55.167 -467.5 165.5s-167.5 241.833 -167.5 394.5s54.833 284.334 164.5 395.001s250.167 166 421.5 166c113.333 0 217.666 -29.167 312.999 -87.5
s168.666 -144.5 219.999 -258.5l-570 -397c17.333 -11.333 34.833 -19.333 52.5 -24s37.167 -7 58.5 -7c43.333 0 87.5 8.66699 132.5 26s87.5 43.333 127.5 78zM460.002 526l283 196.001c-14.667 17.333 -32 30.333 -52 39s-42.333 13 -67 13
c-54 0 -97.167 -17.833 -129.5 -53.5s-48.5 -80.834 -48.5 -135.501c0 -14 1 -25.167 3 -33.5s5.66699 -16.833 11 -25.5zM210.002 1368l175 174l174 -174l-174 -175zM630.002 1368l174 174l174 -174l-174 -175z" />
    <glyph glyph-name="afii61352" unicode="&#xb9;" horiz-adv-x="2244" 
d="M104 -32v1436h410l387 -671h2v671l405 33v-1437h-397l-397 677h-5v-677zM1859 831c25.333 0 46.668 8.33203 64.001 24.999s26 39 26 67c0 26.667 -7.83301 49.334 -23.5 68.001s-37.834 28 -66.501 28c-29.333 0 -52.666 -9.5 -69.999 -28.5s-26 -41.5 -26 -67.5
c0 -26.667 9.66699 -48.667 29 -66s41.666 -26 66.999 -26zM1859 578.999c-93.333 0 -172.333 33.166 -237 99.499s-97 147.833 -97 244.5c0 94.667 31.833 176.334 95.5 245.001s143.167 103 238.5 103c94 0 172.5 -33.5 235.5 -100.5s94.5 -149.5 94.5 -247.5
c0 -96.667 -31.5 -178.167 -94.5 -244.5s-141.5 -99.5 -235.5 -99.5zM2189 123.998h-664v250h664v-250z" />
    <glyph glyph-name="afii61352" unicode="&#x2116;" horiz-adv-x="2244" 
d="M104 -32v1436h410l387 -671h2v671l405 33v-1437h-397l-397 677h-5v-677zM1859 831c25.333 0 46.668 8.33203 64.001 24.999s26 39 26 67c0 26.667 -7.83301 49.334 -23.5 68.001s-37.834 28 -66.501 28c-29.333 0 -52.666 -9.5 -69.999 -28.5s-26 -41.5 -26 -67.5
c0 -26.667 9.66699 -48.667 29 -66s41.666 -26 66.999 -26zM1859 578.999c-93.333 0 -172.333 33.166 -237 99.499s-97 147.833 -97 244.5c0 94.667 31.833 176.334 95.5 245.001s143.167 103 238.5 103c94 0 172.5 -33.5 235.5 -100.5s94.5 -149.5 94.5 -247.5
c0 -96.667 -31.5 -178.167 -94.5 -244.5s-141.5 -99.5 -235.5 -99.5zM2189 123.998h-664v250h664v-250z" />
    <glyph glyph-name="afii10101" unicode="&#xba;" horiz-adv-x="1079" 
d="M1034 964l-189 -256.001c-26.667 21.333 -55.834 37.333 -87.501 48s-63.167 16 -94.5 16c-44 0 -83.667 -11.333 -119 -34s-59 -55 -71 -97h295v-207h-295c9.33301 -42 31 -75.833 65 -101.5s75.667 -38.5 125 -38.5c34 0 68.167 5.66699 102.5 17
s67.833 28.333 100.5 51l170 -262c-56 -43.333 -119.333 -76.166 -190 -98.499s-146 -33.5 -226 -33.5c-174.667 0 -315 54 -421 162s-159 236 -159 384c0 159.333 54.333 295 163 407s257.334 168 446.001 168c68.667 0 136.5 -10.667 203.5 -32s127.5 -52.333 181.5 -93z
" />
    <glyph glyph-name="afii10101" unicode="&#x454;" horiz-adv-x="1079" 
d="M1034 964l-189 -256.001c-26.667 21.333 -55.834 37.333 -87.501 48s-63.167 16 -94.5 16c-44 0 -83.667 -11.333 -119 -34s-59 -55 -71 -97h295v-207h-295c9.33301 -42 31 -75.833 65 -101.5s75.667 -38.5 125 -38.5c34 0 68.167 5.66699 102.5 17
s67.833 28.333 100.5 51l170 -262c-56 -43.333 -119.333 -76.166 -190 -98.499s-146 -33.5 -226 -33.5c-174.667 0 -315 54 -421 162s-159 236 -159 384c0 159.333 54.333 295 163 407s257.334 168 446.001 168c68.667 0 136.5 -10.667 203.5 -32s127.5 -52.333 181.5 -93z
" />
    <glyph glyph-name="guillemotright" unicode="&#xbb;" horiz-adv-x="1136" 
d="M1058 528l-229 -342h-295l229 342l-229 342h295zM602 528l-230 -342h-295l230 342l-230 342h295z" />
    <glyph glyph-name="afii10105" unicode="&#xbc;" horiz-adv-x="571" 
d="M86 1056l397 32.999v-981c0 -144 -37.833 -256 -113.5 -336s-177.834 -120 -306.501 -120h-85l-100 336h43c54.667 0 95.834 12.333 123.501 37s41.5 63.334 41.5 116.001v915zM276 1593l256 -232l-240 -215l-256 215z" />
    <glyph glyph-name="afii10105" unicode="&#x458;" horiz-adv-x="571" 
d="M86 1056l397 32.999v-981c0 -144 -37.833 -256 -113.5 -336s-177.834 -120 -306.501 -120h-85l-100 336h43c54.667 0 95.834 12.333 123.501 37s41.5 63.334 41.5 116.001v915zM276 1593l256 -232l-240 -215l-256 215z" />
    <glyph glyph-name="afii10054" unicode="&#xbd;" horiz-adv-x="1138" 
d="M991 1400l-0.00585938 -403.001c-56 16 -109.667 28.5 -161 37.5s-98 13.5 -140 13.5c-61.333 0 -105.666 -5.83301 -132.999 -17.5s-41 -28.5 -41 -50.5c0 -10.667 3.83301 -21 11.5 -31s55.834 -32.667 144.501 -68c149.333 -59.333 253.166 -121.666 311.499 -186.999
s87.5 -150.666 87.5 -255.999c0 -152 -54.5 -268.333 -163.5 -349s-266.167 -121 -471.5 -121c-36.667 0 -69.5 1 -98.5 3s-108.833 13.667 -239.5 35l-12 2v401c62.667 -13.333 122.834 -23.5 180.501 -30.5s114.167 -10.5 169.5 -10.5c65.333 0 110.333 6.5 135 19.5
s37 31.833 37 56.5c0 15.333 -5.16699 28.5 -15.5 39.5s-68.166 36.833 -173.499 77.5c-133.333 51.333 -224.666 109.166 -273.999 173.499s-74 144.833 -74 241.5c0 141.333 48.167 253.5 144.5 336.5s230.5 124.5 402.5 124.5c64.667 0 128.834 -3.16699 192.501 -9.5
s123.834 -15.5 180.501 -27.5z" />
    <glyph glyph-name="afii10054" unicode="&#x405;" horiz-adv-x="1138" 
d="M991 1400l-0.00585938 -403.001c-56 16 -109.667 28.5 -161 37.5s-98 13.5 -140 13.5c-61.333 0 -105.666 -5.83301 -132.999 -17.5s-41 -28.5 -41 -50.5c0 -10.667 3.83301 -21 11.5 -31s55.834 -32.667 144.501 -68c149.333 -59.333 253.166 -121.666 311.499 -186.999
s87.5 -150.666 87.5 -255.999c0 -152 -54.5 -268.333 -163.5 -349s-266.167 -121 -471.5 -121c-36.667 0 -69.5 1 -98.5 3s-108.833 13.667 -239.5 35l-12 2v401c62.667 -13.333 122.834 -23.5 180.501 -30.5s114.167 -10.5 169.5 -10.5c65.333 0 110.333 6.5 135 19.5
s37 31.833 37 56.5c0 15.333 -5.16699 28.5 -15.5 39.5s-68.166 36.833 -173.499 77.5c-133.333 51.333 -224.666 109.166 -273.999 173.499s-74 144.833 -74 241.5c0 141.333 48.167 253.5 144.5 336.5s230.5 124.5 402.5 124.5c64.667 0 128.834 -3.16699 192.501 -9.5
s123.834 -15.5 180.501 -27.5z" />
    <glyph glyph-name="afii10102" unicode="&#xbe;" horiz-adv-x="888" 
d="M776 1052l-0.000976562 -340.002c-40 12 -78.167 20.5 -114.5 25.5s-73.5 7.5 -111.5 7.5c-32 0 -56.333 -3.83301 -73 -11.5s-25 -19.5 -25 -35.5c0 -5.33301 1.16699 -10.5 3.5 -15.5s60.5 -30.5 174.5 -76.5c73.333 -30 127.166 -70.5 161.499 -121.5
s51.5 -111.5 51.5 -181.5c0 -94.667 -37.667 -174.167 -113 -238.5s-189.666 -96.5 -342.999 -96.5c-57.333 0 -115.333 3.33301 -174 10s-112.667 15.334 -162 26.001v344c44.667 -12.667 85.667 -22 123 -28s72 -9 104 -9c44.667 0 77.667 4.66699 99 14s32 22.333 32 39
c0 2.66699 0.833008 0.833984 2.5 -5.49902s-74.166 37.167 -227.499 130.5c-45.333 27.333 -80.166 63.333 -104.499 108s-36.5 98 -36.5 160c0 98 37.333 177.833 112 239.5s182.667 92.5 324 92.5c44 0 92.667 -3.33301 146 -10s103.666 -15.667 150.999 -27z" />
    <glyph glyph-name="afii10102" unicode="&#x455;" horiz-adv-x="888" 
d="M776 1052l-0.000976562 -340.002c-40 12 -78.167 20.5 -114.5 25.5s-73.5 7.5 -111.5 7.5c-32 0 -56.333 -3.83301 -73 -11.5s-25 -19.5 -25 -35.5c0 -5.33301 1.16699 -10.5 3.5 -15.5s60.5 -30.5 174.5 -76.5c73.333 -30 127.166 -70.5 161.499 -121.5
s51.5 -111.5 51.5 -181.5c0 -94.667 -37.667 -174.167 -113 -238.5s-189.666 -96.5 -342.999 -96.5c-57.333 0 -115.333 3.33301 -174 10s-112.667 15.334 -162 26.001v344c44.667 -12.667 85.667 -22 123 -28s72 -9 104 -9c44.667 0 77.667 4.66699 99 14s32 22.333 32 39
c0 2.66699 0.833008 0.833984 2.5 -5.49902s-74.166 37.167 -227.499 130.5c-45.333 27.333 -80.166 63.333 -104.499 108s-36.5 98 -36.5 160c0 98 37.333 177.833 112 239.5s182.667 92.5 324 92.5c44 0 92.667 -3.33301 146 -10s103.666 -15.667 150.999 -27z" />
    <glyph glyph-name="afii10104" unicode="&#xbf;" horiz-adv-x="573" 
d="M485 16l-397 -32v1056l397 33v-1057zM-96 1449l173 175l174 -175l-174 -174zM323 1449l174 175l174 -175l-174 -174z" />
    <glyph glyph-name="afii10104" unicode="&#x457;" horiz-adv-x="573" 
d="M485 16l-397 -32v1056l397 33v-1057zM-96 1449l173 175l174 -175l-174 -174zM323 1449l174 175l174 -175l-174 -174z" />
    <glyph glyph-name="afii10017" unicode="&#xc0;" horiz-adv-x="1366" 
d="M-53 0l462 1404h537l473 -1404l-482 -32l-69 242h-385l-72 -242zM784 561l-109 442h-4l-110 -442h223z" />
    <glyph glyph-name="afii10017" unicode="&#x410;" horiz-adv-x="1366" 
d="M-53 0l462 1404h537l473 -1404l-482 -32l-69 242h-385l-72 -242zM784 561l-109 442h-4l-110 -442h223z" />
    <glyph glyph-name="afii10018" unicode="&#xc1;" horiz-adv-x="1239" 
d="M106 0v1404h901l88 -376h-545v-160h164c163.333 0 286.5 -41 369.5 -123s124.5 -185.667 124.5 -311c0 -132.667 -46.167 -238.167 -138.5 -316.5s-210.833 -117.5 -355.5 -117.5h-608zM550 573v-245.999h56c46 0 80.667 11.167 104 33.5s35 52.166 35 89.499
c0 42 -13 73 -39 93s-59.333 30 -100 30h-56z" />
    <glyph glyph-name="afii10018" unicode="&#x411;" horiz-adv-x="1239" 
d="M106 0v1404h901l88 -376h-545v-160h164c163.333 0 286.5 -41 369.5 -123s124.5 -185.667 124.5 -311c0 -132.667 -46.167 -238.167 -138.5 -316.5s-210.833 -117.5 -355.5 -117.5h-608zM550 573v-245.999h56c46 0 80.667 11.167 104 33.5s35 52.166 35 89.499
c0 42 -13 73 -39 93s-59.333 30 -100 30h-56z" />
    <glyph glyph-name="afii10019" unicode="&#xc2;" horiz-adv-x="1253" 
d="M106 1404l578.001 -0.00195312c142.667 0 258.167 -33 346.5 -99s132.5 -156.333 132.5 -271c0 -64.667 -15.5 -123.167 -46.5 -175.5s-75.5 -92.166 -133.5 -119.499c69.333 -28 124.166 -71.667 164.499 -131s60.5 -129.666 60.5 -210.999
c0 -117.333 -43.333 -212.833 -130 -286.5s-197.667 -110.5 -333 -110.5h-639v1404zM550.001 572.998v-246h56c42 0 75.667 11 101 33s38 52 38 90s-12.5 68 -37.5 90s-58.833 33 -101.5 33h-56zM550.001 1085v-219h54c35.333 0 63.166 10.667 83.499 32
s30.5 47.333 30.5 78c0 33.333 -11.167 59.833 -33.5 79.5s-52.166 29.5 -89.499 29.5h-45z" />
    <glyph glyph-name="afii10019" unicode="&#x412;" horiz-adv-x="1253" 
d="M106 1404l578.001 -0.00195312c142.667 0 258.167 -33 346.5 -99s132.5 -156.333 132.5 -271c0 -64.667 -15.5 -123.167 -46.5 -175.5s-75.5 -92.166 -133.5 -119.499c69.333 -28 124.166 -71.667 164.499 -131s60.5 -129.666 60.5 -210.999
c0 -117.333 -43.333 -212.833 -130 -286.5s-197.667 -110.5 -333 -110.5h-639v1404zM550.001 572.998v-246h56c42 0 75.667 11 101 33s38 52 38 90s-12.5 68 -37.5 90s-58.833 33 -101.5 33h-56zM550.001 1085v-219h54c35.333 0 63.166 10.667 83.499 32
s30.5 47.333 30.5 78c0 33.333 -11.167 59.833 -33.5 79.5s-52.166 29.5 -89.499 29.5h-45z" />
    <glyph glyph-name="afii10020" unicode="&#xc3;" horiz-adv-x="950" 
d="M550 0l-444 -32v1436h743l101 -413h-400v-991z" />
    <glyph glyph-name="afii10020" unicode="&#x413;" horiz-adv-x="950" 
d="M550 0l-444 -32v1436h743l101 -413h-400v-991z" />
    <glyph glyph-name="afii10021" unicode="&#xc4;" horiz-adv-x="1357" 
d="M399 1404h557l250 -1003h121v-607l-416 -33v239h-465v-206l-416 -33v640h121zM552 380h240l-117 570h-8z" />
    <glyph glyph-name="afii10021" unicode="&#x414;" horiz-adv-x="1357" 
d="M399 1404h557l250 -1003h121v-607l-416 -33v239h-465v-206l-416 -33v640h121zM552 380h240l-117 570h-8z" />
    <glyph glyph-name="afii10022" unicode="&#xc5;" horiz-adv-x="1036" 
d="M915 0h-809v1404h780l88 -376h-424v-140h277v-350h-277v-149h455z" />
    <glyph glyph-name="afii10022" unicode="&#x415;" horiz-adv-x="1036" 
d="M915 0h-809v1404h780l88 -376h-424v-140h277v-350h-277v-149h455z" />
    <glyph glyph-name="afii10024" unicode="&#xc6;" horiz-adv-x="1972" 
d="M763 1404l445 33v-629h4l207 629l477 -33l-256 -639l311 -765l-499 -32l-240 732h-4v-700l-445 -32v732h-4l-239 -732l-500 32l311 765l-256 639l477 33l207 -629h4v596z" />
    <glyph glyph-name="afii10024" unicode="&#x416;" horiz-adv-x="1972" 
d="M763 1404l445 33v-629h4l207 629l477 -33l-256 -639l311 -765l-499 -32l-240 732h-4v-700l-445 -32v732h-4l-239 -732l-500 32l311 765l-256 639l477 33l207 -629h4v596z" />
    <glyph glyph-name="afii10025" unicode="&#xc7;" horiz-adv-x="1114" 
d="M83 1003l42.998 369c69.333 22 137.833 38.333 205.5 49s129.167 16 184.5 16c154.667 0 275.5 -37.667 362.5 -113s130.5 -169.333 130.5 -282c0 -68.667 -16.5 -129.667 -49.5 -183s-77.167 -94 -132.5 -122c70 -23.333 125 -63.833 165 -121.5s60 -125.167 60 -202.5
c0 -132 -48.5 -239.167 -145.5 -321.5s-232.833 -123.5 -407.5 -123.5c-68.667 0 -133.5 3.83301 -194.5 11.5s-142.167 22.5 -243.5 44.5l10 399c61.333 -21.333 125.333 -37.5 192 -48.5s132.334 -16.5 197.001 -16.5c51.333 0 90.833 10.667 118.5 32s41.5 49 41.5 83
c0 28 -12.5 50.667 -37.5 68s-64.5 26 -118.5 26h-188v299h168c42.667 0 75.5 8.66699 98.5 26s34.5 41.333 34.5 72c0 26.667 -12.5 48.667 -37.5 66s-62.167 26 -111.5 26c-51.333 0 -109.666 -5.16699 -174.999 -15.5s-122 -22.833 -170 -37.5z" />
    <glyph glyph-name="afii10025" unicode="&#x417;" horiz-adv-x="1114" 
d="M83 1003l42.998 369c69.333 22 137.833 38.333 205.5 49s129.167 16 184.5 16c154.667 0 275.5 -37.667 362.5 -113s130.5 -169.333 130.5 -282c0 -68.667 -16.5 -129.667 -49.5 -183s-77.167 -94 -132.5 -122c70 -23.333 125 -63.833 165 -121.5s60 -125.167 60 -202.5
c0 -132 -48.5 -239.167 -145.5 -321.5s-232.833 -123.5 -407.5 -123.5c-68.667 0 -133.5 3.83301 -194.5 11.5s-142.167 22.5 -243.5 44.5l10 399c61.333 -21.333 125.333 -37.5 192 -48.5s132.334 -16.5 197.001 -16.5c51.333 0 90.833 10.667 118.5 32s41.5 49 41.5 83
c0 28 -12.5 50.667 -37.5 68s-64.5 26 -118.5 26h-188v299h168c42.667 0 75.5 8.66699 98.5 26s34.5 41.333 34.5 72c0 26.667 -12.5 48.667 -37.5 66s-62.167 26 -111.5 26c-51.333 0 -109.666 -5.16699 -174.999 -15.5s-122 -22.833 -170 -37.5z" />
    <glyph glyph-name="afii10026" unicode="&#xc8;" horiz-adv-x="1480" 
d="M532 1437v-725h8l408 692h426v-1404l-426 -32v759h-8l-428 -727h-406v1404z" />
    <glyph glyph-name="afii10026" unicode="&#x418;" horiz-adv-x="1480" 
d="M532 1437v-725h8l408 692h426v-1404l-426 -32v759h-8l-428 -727h-406v1404z" />
    <glyph glyph-name="afii10027" unicode="&#xc9;" horiz-adv-x="1480" 
d="M532 1437v-725h8l408 692h426v-1404l-426 -32v759h-8l-428 -727h-406v1404zM299 1759l221.001 45c17.333 -42.667 43.833 -74.167 79.5 -94.5s83.5 -30.5 143.5 -30.5s107.833 10.167 143.5 30.5s62.167 51.833 79.5 94.5l223 -45
c-32.667 -98 -88.667 -170.667 -168 -218s-172 -71 -278 -71c-104 0 -196.333 23.667 -277 71s-136.334 120 -167.001 218z" />
    <glyph glyph-name="afii10027" unicode="&#x419;" horiz-adv-x="1480" 
d="M532 1437v-725h8l408 692h426v-1404l-426 -32v759h-8l-428 -727h-406v1404zM299 1759l221.001 45c17.333 -42.667 43.833 -74.167 79.5 -94.5s83.5 -30.5 143.5 -30.5s107.833 10.167 143.5 30.5s62.167 51.833 79.5 94.5l223 -45
c-32.667 -98 -88.667 -170.667 -168 -218s-172 -71 -278 -71c-104 0 -196.333 23.667 -277 71s-136.334 120 -167.001 218z" />
    <glyph glyph-name="afii10028" unicode="&#xca;" horiz-adv-x="1294" 
d="M550 0l-444 -32v1436l444 33v-629h5l227 629l477 -33l-276 -639l331 -765l-499 -32l-260 732h-5v-700z" />
    <glyph glyph-name="afii10028" unicode="&#x41a;" horiz-adv-x="1294" 
d="M550 0l-444 -32v1436l444 33v-629h5l227 629l477 -33l-276 -639l331 -765l-499 -32l-260 732h-5v-700z" />
    <glyph glyph-name="afii10029" unicode="&#xcb;" horiz-adv-x="1224" 
d="M428 -32l-438 32l347 1404h547l350 -1404l-446 -32l-182 951h-4z" />
    <glyph glyph-name="afii10029" unicode="&#x41b;" horiz-adv-x="1224" 
d="M428 -32l-438 32l347 1404h547l350 -1404l-446 -32l-182 951h-4z" />
    <glyph glyph-name="afii10030" unicode="&#xcc;" horiz-adv-x="1593" 
d="M452 -32l-432 32l182 1404h406l194 -520l193 520h403l174 -1404l-444 -32l-64 662h-4l-268 -699l-262 697h-4z" />
    <glyph glyph-name="afii10030" unicode="&#x41c;" horiz-adv-x="1593" 
d="M452 -32l-432 32l182 1404h406l194 -520l193 520h403l174 -1404l-444 -32l-64 662h-4l-268 -699l-262 697h-4z" />
    <glyph glyph-name="afii10031" unicode="&#xcd;" horiz-adv-x="1368" 
d="M550 0l-444 -32v1436l444 33v-512h267v479l444 33v-1437l-444 -32v556h-267v-524z" />
    <glyph glyph-name="afii10031" unicode="&#x41d;" horiz-adv-x="1368" 
d="M550 0l-444 -32v1436l444 33v-512h267v479l444 33v-1437l-444 -32v556h-267v-524z" />
    <glyph glyph-name="afii10032" unicode="&#xce;" horiz-adv-x="1662" 
d="M509 702c0 -88.667 31.5 -164.5 94.5 -227.5s138.833 -94.5 227.5 -94.5c89.333 0 165.333 31.667 228 95s94 139 94 227c0 88.667 -31.5 164.5 -94.5 227.5s-138.833 94.5 -227.5 94.5c-88 0 -163.667 -31.333 -227 -94s-95 -138.667 -95 -228zM43 702
c0 204 77.5 377.5 232.5 520.5s340.167 214.5 555.5 214.5c216.667 0 402.167 -71.5 556.5 -214.5s231.5 -316.5 231.5 -520.5c0 -203.333 -77.167 -376.5 -231.5 -519.5s-339.833 -214.5 -556.5 -214.5c-216 0 -401.333 71.5 -556 214.5s-232 316.167 -232 519.5z" />
    <glyph glyph-name="afii10032" unicode="&#x41e;" horiz-adv-x="1662" 
d="M509 702c0 -88.667 31.5 -164.5 94.5 -227.5s138.833 -94.5 227.5 -94.5c89.333 0 165.333 31.667 228 95s94 139 94 227c0 88.667 -31.5 164.5 -94.5 227.5s-138.833 94.5 -227.5 94.5c-88 0 -163.667 -31.333 -227 -94s-95 -138.667 -95 -228zM43 702
c0 204 77.5 377.5 232.5 520.5s340.167 214.5 555.5 214.5c216.667 0 402.167 -71.5 556.5 -214.5s231.5 -316.5 231.5 -520.5c0 -203.333 -77.167 -376.5 -231.5 -519.5s-339.833 -214.5 -556.5 -214.5c-216 0 -401.333 71.5 -556 214.5s-232 316.167 -232 519.5z" />
    <glyph glyph-name="afii10033" unicode="&#xcf;" horiz-adv-x="1368" 
d="M550 0l-444 -32v1436h1155v-1404l-444 -32v1035h-267v-1003z" />
    <glyph glyph-name="afii10033" unicode="&#x41f;" horiz-adv-x="1368" 
d="M550 0l-444 -32v1436h1155v-1404l-444 -32v1035h-267v-1003z" />
    <glyph glyph-name="afii10034" unicode="&#xd0;" horiz-adv-x="1212" 
d="M106 1404l436 0.000976562c202 0 357.333 -41 466 -123s163 -208.667 163 -380c0 -146.667 -49.5 -265.334 -148.5 -356.001s-229.167 -136 -390.5 -136h-82v-409l-444 -32v1436zM550 1054v-306.999h31c44 0 78.833 16.167 104.5 48.5s38.5 70.166 38.5 113.499
c0 45.333 -14 80.833 -42 106.5s-61.667 38.5 -101 38.5h-31z" />
    <glyph glyph-name="afii10034" unicode="&#x420;" horiz-adv-x="1212" 
d="M106 1404l436 0.000976562c202 0 357.333 -41 466 -123s163 -208.667 163 -380c0 -146.667 -49.5 -265.334 -148.5 -356.001s-229.167 -136 -390.5 -136h-82v-409l-444 -32v1436zM550 1054v-306.999h31c44 0 78.833 16.167 104.5 48.5s38.5 70.166 38.5 113.499
c0 45.333 -14 80.833 -42 106.5s-61.667 38.5 -101 38.5h-31z" />
    <glyph glyph-name="afii10035" unicode="&#xd1;" horiz-adv-x="1097" 
d="M1077 446l-60 -445.999c-40.667 -10.667 -82.667 -18.667 -126 -24s-86 -8 -128 -8c-208.667 0 -380.834 68.833 -516.501 206.5s-203.5 309.5 -203.5 515.5c0 213.333 70.333 391.166 211 533.499s321.334 213.5 542.001 213.5c30.667 0 62.5 -2.33301 95.5 -7
s68.833 -11.667 107.5 -21l74 -439c-38 17.333 -77 30.666 -117 39.999s-79 14 -117 14c-102 0 -186.167 -29 -252.5 -87s-99.5 -136.333 -99.5 -235c0 -94 32.833 -171.167 98.5 -231.5s147.5 -90.5 245.5 -90.5c47.333 0 91.833 5.83301 133.5 17.5
s79.167 27.834 112.5 48.501z" />
    <glyph glyph-name="afii10035" unicode="&#x421;" horiz-adv-x="1097" 
d="M1077 446l-60 -445.999c-40.667 -10.667 -82.667 -18.667 -126 -24s-86 -8 -128 -8c-208.667 0 -380.834 68.833 -516.501 206.5s-203.5 309.5 -203.5 515.5c0 213.333 70.333 391.166 211 533.499s321.334 213.5 542.001 213.5c30.667 0 62.5 -2.33301 95.5 -7
s68.833 -11.667 107.5 -21l74 -439c-38 17.333 -77 30.666 -117 39.999s-79 14 -117 14c-102 0 -186.167 -29 -252.5 -87s-99.5 -136.333 -99.5 -235c0 -94 32.833 -171.167 98.5 -231.5s147.5 -90.5 245.5 -90.5c47.333 0 91.833 5.83301 133.5 17.5
s79.167 27.834 112.5 48.501z" />
    <glyph glyph-name="afii10036" unicode="&#xd2;" horiz-adv-x="1017" 
d="M739 991v-991l-445 -32v1023h-304l93 413h918v-413h-262z" />
    <glyph glyph-name="afii10036" unicode="&#x422;" horiz-adv-x="1017" 
d="M739 991v-991l-445 -32v1023h-304l93 413h918v-413h-262z" />
    <glyph glyph-name="afii10037" unicode="&#xd3;" horiz-adv-x="1138" 
d="M1193 1396l-546 -1428l-488 48l205 442l-431 938l484 41l168 -471h4l146 471z" />
    <glyph glyph-name="afii10037" unicode="&#x423;" horiz-adv-x="1138" 
d="M1193 1396l-546 -1428l-488 48l205 442l-431 938l484 41l168 -471h4l146 471z" />
    <glyph glyph-name="afii10038" unicode="&#xd4;" horiz-adv-x="1722" 
d="M1081 -83l-440 -33v238c-181.333 5.33301 -326.333 63.333 -435 174s-163 246 -163 406c0 173.333 55.833 311.833 167.5 415.5s255.167 157.834 430.5 162.501v206l440 33v-239c175.333 -4.66699 318.833 -58.834 430.5 -162.501s167.5 -242.167 167.5 -415.5
c0 -160 -54.833 -295.5 -164.5 -406.5s-254.167 -168.833 -433.5 -173.5v-205zM1058 901v-400c53.333 2.66699 98.5 22.167 135.5 58.5s55.5 83.833 55.5 142.5c0 59.333 -18.5 107.333 -55.5 144s-82.167 55 -135.5 55zM663 501v400c-53.333 0 -98.333 -18.333 -135 -55
s-55 -84.667 -55 -144c0 -58.667 18.333 -106.167 55 -142.5s81.667 -55.833 135 -58.5z" />
    <glyph glyph-name="afii10038" unicode="&#x424;" horiz-adv-x="1722" 
d="M1081 -83l-440 -33v238c-181.333 5.33301 -326.333 63.333 -435 174s-163 246 -163 406c0 173.333 55.833 311.833 167.5 415.5s255.167 157.834 430.5 162.501v206l440 33v-239c175.333 -4.66699 318.833 -58.834 430.5 -162.501s167.5 -242.167 167.5 -415.5
c0 -160 -54.833 -295.5 -164.5 -406.5s-254.167 -168.833 -433.5 -173.5v-205zM1058 901v-400c53.333 2.66699 98.5 22.167 135.5 58.5s55.5 83.833 55.5 142.5c0 59.333 -18.5 107.333 -55.5 144s-82.167 55 -135.5 55zM663 501v400c-53.333 0 -98.333 -18.333 -135 -55
s-55 -84.667 -55 -144c0 -58.667 18.333 -106.167 55 -142.5s81.667 -55.833 135 -58.5z" />
    <glyph glyph-name="afii10039" unicode="&#xd5;" horiz-adv-x="1251" 
d="M468 1437l156 -405l152 405l460 -33l-329 -680l366 -724l-485 -32l-174 447l-164 -447l-472 32l357 731l-335 673z" />
    <glyph glyph-name="afii10039" unicode="&#x425;" horiz-adv-x="1251" 
d="M468 1437l156 -405l152 405l460 -33l-329 -680l366 -724l-485 -32l-174 447l-164 -447l-472 32l357 731l-335 673z" />
    <glyph glyph-name="afii10040" unicode="&#xd6;" horiz-adv-x="1425" 
d="M796 1404l445 33v-1036h143v-607l-416 -33v239h-862v1404l444 33v-1036h246v1003z" />
    <glyph glyph-name="afii10040" unicode="&#x426;" horiz-adv-x="1425" 
d="M796 1404l445 33v-1036h143v-607l-416 -33v239h-862v1404l444 33v-1036h246v1003z" />
    <glyph glyph-name="afii10041" unicode="&#xd7;" horiz-adv-x="1343" 
d="M792 1404l444 32.999v-1437l-444 -32v515c-80 -15.333 -134.667 -24.666 -164 -27.999s-59.333 -5 -90 -5c-171.333 0 -290.333 35.833 -357 107.5s-100 193.5 -100 365.5v481l445 33v-469c0 -48 9.66699 -82.167 29 -102.5s50 -30.5 92 -30.5
c17.333 0 39.333 2.5 66 7.5s53 11.5 79 19.5v542z" />
    <glyph glyph-name="afii10041" unicode="&#x427;" horiz-adv-x="1343" 
d="M792 1404l444 32.999v-1437l-444 -32v515c-80 -15.333 -134.667 -24.666 -164 -27.999s-59.333 -5 -90 -5c-171.333 0 -290.333 35.833 -357 107.5s-100 193.5 -100 365.5v481l445 33v-469c0 -48 9.66699 -82.167 29 -102.5s50 -30.5 92 -30.5
c17.333 0 39.333 2.5 66 7.5s53 11.5 79 19.5v542z" />
    <glyph glyph-name="afii10042" unicode="&#xd8;" horiz-adv-x="1902" 
d="M729 1404l444 33v-1036h178v1003l445 33v-1437h-1690v1404l444 33v-1036h179v1003z" />
    <glyph glyph-name="afii10042" unicode="&#x428;" horiz-adv-x="1902" 
d="M729 1404l444 33v-1036h178v1003l445 33v-1437h-1690v1404l444 33v-1036h179v1003z" />
    <glyph glyph-name="afii10043" unicode="&#xd9;" horiz-adv-x="1980" 
d="M729 1404l444 33v-1036h178v1003l445 33v-1036h143v-607l-416 -33v239h-1417v1404l444 33v-1036h179v1003z" />
    <glyph glyph-name="afii10043" unicode="&#x429;" horiz-adv-x="1980" 
d="M729 1404l444 33v-1036h178v1003l445 33v-1036h143v-607l-416 -33v239h-1417v1404l444 33v-1036h179v1003z" />
    <glyph glyph-name="afii10044" unicode="&#xda;" horiz-adv-x="1421" 
d="M276 0l-0.000976562 1003h-276l100 401h620v-454h103c166.667 0 300.834 -42.667 402.501 -128s152.5 -201 152.5 -347c0 -130 -45.333 -241.667 -136 -335s-216.667 -140 -378 -140h-588zM719.999 598l0.000976562 -246h39c51.333 0 90.166 10.667 116.499 32
s39.5 51.666 39.5 90.999c0 38.667 -14.333 68.834 -43 90.501s-67 32.5 -115 32.5h-37z" />
    <glyph glyph-name="afii10044" unicode="&#x42a;" horiz-adv-x="1421" 
d="M276 0l-0.000976562 1003h-276l100 401h620v-454h103c166.667 0 300.834 -42.667 402.501 -128s152.5 -201 152.5 -347c0 -130 -45.333 -241.667 -136 -335s-216.667 -140 -378 -140h-588zM719.999 598l0.000976562 -246h39c51.333 0 90.166 10.667 116.499 32
s39.5 51.666 39.5 90.999c0 38.667 -14.333 68.834 -43 90.501s-67 32.5 -115 32.5h-37z" />
    <glyph glyph-name="afii10045" unicode="&#xdb;" horiz-adv-x="1837" 
d="M106 0v1404l444 33v-487h103c164 0 295.833 -42.667 395.5 -128s149.5 -201 149.5 -347c0 -130 -44.5 -241.667 -133.5 -335s-212.5 -140 -370.5 -140h-588zM550 598v-246.002h39c49.333 0 86 10.833 110 32.5s36 51.834 36 90.501s-13 68.834 -39 90.501
s-62.333 32.5 -109 32.5h-37zM1286 1404l444 33v-1437l-444 -32v1436z" />
    <glyph glyph-name="afii10045" unicode="&#x42b;" horiz-adv-x="1837" 
d="M106 0v1404l444 33v-487h103c164 0 295.833 -42.667 395.5 -128s149.5 -201 149.5 -347c0 -130 -44.5 -241.667 -133.5 -335s-212.5 -140 -370.5 -140h-588zM550 598v-246.002h39c49.333 0 86 10.833 110 32.5s36 51.834 36 90.501s-13 68.834 -39 90.501
s-62.333 32.5 -109 32.5h-37zM1286 1404l444 33v-1437l-444 -32v1436z" />
    <glyph glyph-name="afii10046" unicode="&#xdc;" horiz-adv-x="1251" 
d="M106 0l-0.000976562 1404l444 33v-487h103c166.667 0 300.834 -42.667 402.501 -128s152.5 -201 152.5 -347c0 -130 -45.333 -241.667 -136 -335s-216.667 -140 -378 -140h-588zM549.999 598l-0.000976562 -246h39c52.667 0 91.834 10.833 117.501 32.5
s38.5 51.834 38.5 90.501c0 35.333 -13 64.666 -39 87.999s-65.667 35 -119 35h-37z" />
    <glyph glyph-name="afii10046" unicode="&#x42c;" horiz-adv-x="1251" 
d="M106 0l-0.000976562 1404l444 33v-487h103c166.667 0 300.834 -42.667 402.501 -128s152.5 -201 152.5 -347c0 -130 -45.333 -241.667 -136 -335s-216.667 -140 -378 -140h-588zM549.999 598l-0.000976562 -246h39c52.667 0 91.834 10.833 117.501 32.5
s38.5 51.834 38.5 90.501c0 35.333 -13 64.666 -39 87.999s-65.667 35 -119 35h-37z" />
    <glyph glyph-name="afii10047" unicode="&#xdd;" horiz-adv-x="1120" 
d="M102 0l-59 414.998c32.667 -20 70.167 -35.833 112.5 -47.5s86.5 -17.5 132.5 -17.5c68.667 0 132.167 19.333 190.5 58s97.166 89 116.499 151h-415v303h409c-23.333 60.667 -63.333 107.834 -120 141.501s-119.667 50.5 -189 50.5c-34 0 -71.5 -4.33301 -112.5 -13
s-81.167 -22 -120.5 -40l73 408c38.667 9.33301 75.334 16.333 110.001 21s65.667 7 93 7c224.667 0 406.5 -67.167 545.5 -201.5s208.5 -316.166 208.5 -545.499c0 -210.667 -65.167 -383.667 -195.5 -519s-305.5 -203 -525.5 -203c-44.667 0 -88 2.83301 -130 8.5
s-83.333 13.5 -124 23.5z" />
    <glyph glyph-name="afii10047" unicode="&#x42d;" horiz-adv-x="1120" 
d="M102 0l-59 414.998c32.667 -20 70.167 -35.833 112.5 -47.5s86.5 -17.5 132.5 -17.5c68.667 0 132.167 19.333 190.5 58s97.166 89 116.499 151h-415v303h409c-23.333 60.667 -63.333 107.834 -120 141.501s-119.667 50.5 -189 50.5c-34 0 -71.5 -4.33301 -112.5 -13
s-81.167 -22 -120.5 -40l73 408c38.667 9.33301 75.334 16.333 110.001 21s65.667 7 93 7c224.667 0 406.5 -67.167 545.5 -201.5s208.5 -316.166 208.5 -545.499c0 -210.667 -65.167 -383.667 -195.5 -519s-305.5 -203 -525.5 -203c-44.667 0 -88 2.83301 -130 8.5
s-83.333 13.5 -124 23.5z" />
    <glyph glyph-name="afii10048" unicode="&#xde;" horiz-adv-x="2197" 
d="M1073 702c0 -88 29.833 -163.667 89.5 -227s132.167 -95 217.5 -95s157.833 31.667 217.5 95s89.5 139 89.5 227c0 88.667 -30 164.5 -90 227.5s-132.333 94.5 -217 94.5c-85.333 0 -157.833 -31.5 -217.5 -94.5s-89.5 -138.833 -89.5 -227.5zM550 929h119
c45.333 160 135.5 284.667 270.5 374s281.833 134 440.5 134c212.667 0 394.834 -71.5 546.501 -214.5s227.5 -316.5 227.5 -520.5s-75.833 -377.333 -227.5 -520s-333.834 -214 -546.501 -214c-170 0 -323.5 48.833 -460.5 146.5s-225.167 235.5 -264.5 413.5h-105v-524
l-444 -32v1437l444 32v-512z" />
    <glyph glyph-name="afii10048" unicode="&#x42e;" horiz-adv-x="2197" 
d="M1073 702c0 -88 29.833 -163.667 89.5 -227s132.167 -95 217.5 -95s157.833 31.667 217.5 95s89.5 139 89.5 227c0 88.667 -30 164.5 -90 227.5s-132.333 94.5 -217 94.5c-85.333 0 -157.833 -31.5 -217.5 -94.5s-89.5 -138.833 -89.5 -227.5zM550 929h119
c45.333 160 135.5 284.667 270.5 374s281.833 134 440.5 134c212.667 0 394.834 -71.5 546.501 -214.5s227.5 -316.5 227.5 -520.5s-75.833 -377.333 -227.5 -520s-333.834 -214 -546.501 -214c-170 0 -323.5 48.833 -460.5 146.5s-225.167 235.5 -264.5 413.5h-105v-524
l-444 -32v1437l444 32v-512z" />
    <glyph glyph-name="afii10049" unicode="&#xdf;" horiz-adv-x="1333" 
d="M1226 1404l-0.000976562 -1404l-444 -32v615h-8l-240 -613l-489 50l278 590c-71.333 28.667 -126.666 74.5 -165.999 137.5s-59 133.833 -59 212.5c0 149.333 53 260.666 159 333.999s267.333 110 484 110h485zM781.999 1013l-51 0.000976562
c-46.667 0 -86 -15.833 -118 -47.5s-48 -71.834 -48 -120.501c0 -45.333 14.667 -85 44 -119s67 -51 113 -51h60v338z" />
    <glyph glyph-name="afii10049" unicode="&#x42f;" horiz-adv-x="1333" 
d="M1226 1404l-0.000976562 -1404l-444 -32v615h-8l-240 -613l-489 50l278 590c-71.333 28.667 -126.666 74.5 -165.999 137.5s-59 133.833 -59 212.5c0 149.333 53 260.666 159 333.999s267.333 110 484 110h485zM781.999 1013l-51 0.000976562
c-46.667 0 -86 -15.833 -118 -47.5s-48 -71.834 -48 -120.501c0 -45.333 14.667 -85 44 -119s67 -51 113 -51h60v338z" />
    <glyph glyph-name="afii10065" unicode="&#xe0;" horiz-adv-x="1157" 
d="M157 743l72.001 298.997c59.333 16 120.333 27.833 183 35.5s123 11.5 181 11.5c144.667 0 260.167 -33.167 346.5 -99.5s129.5 -158.166 129.5 -275.499v-714l-396 -32v113h-4c-34.667 -40 -74 -68.833 -118 -86.5s-93.333 -26.5 -148 -26.5
c-109.333 0 -198.5 34 -267.5 102s-103.5 155 -103.5 261c0 104.667 34.667 191.334 104 260.001s158.333 103 267 103c49.333 0 93.166 -7 131.499 -21s76.5 -35.667 114.5 -65v76c0 36.667 -16.5 64.834 -49.5 84.501s-76.833 29.5 -131.5 29.5
c-50 0 -102.333 -4.83301 -157 -14.5s-106 -23.167 -154 -40.5zM458.001 343.997c0 -26 9.16699 -49.333 27.5 -70s42.833 -31 73.5 -31c28.667 0 52.5 9.83301 71.5 29.5s28.5 43.5 28.5 71.5c0 25.333 -9.66699 48.333 -29 69s-43 31 -71 31
c-26.667 0 -50.167 -10.167 -70.5 -30.5s-30.5 -43.5 -30.5 -69.5z" />
    <glyph glyph-name="afii10065" unicode="&#x430;" horiz-adv-x="1157" 
d="M157 743l72.001 298.997c59.333 16 120.333 27.833 183 35.5s123 11.5 181 11.5c144.667 0 260.167 -33.167 346.5 -99.5s129.5 -158.166 129.5 -275.499v-714l-396 -32v113h-4c-34.667 -40 -74 -68.833 -118 -86.5s-93.333 -26.5 -148 -26.5
c-109.333 0 -198.5 34 -267.5 102s-103.5 155 -103.5 261c0 104.667 34.667 191.334 104 260.001s158.333 103 267 103c49.333 0 93.166 -7 131.499 -21s76.5 -35.667 114.5 -65v76c0 36.667 -16.5 64.834 -49.5 84.501s-76.833 29.5 -131.5 29.5
c-50 0 -102.333 -4.83301 -157 -14.5s-106 -23.167 -154 -40.5zM458.001 343.997c0 -26 9.16699 -49.333 27.5 -70s42.833 -31 73.5 -31c28.667 0 52.5 9.83301 71.5 29.5s28.5 43.5 28.5 71.5c0 25.333 -9.66699 48.333 -29 69s-43 31 -71 31
c-26.667 0 -50.167 -10.167 -70.5 -30.5s-30.5 -43.5 -30.5 -69.5z" />
    <glyph glyph-name="afii10066" unicode="&#xe1;" horiz-adv-x="1318" 
d="M972 1714l207 -357l-620 -276c-66.667 -30 -117.5 -67 -152.5 -111s-53.833 -93 -56.5 -147l-2 -43h8c40 74.667 94.333 131.167 163 169.5s142 57.5 220 57.5c154.667 0 282.667 -47.667 384 -143s152 -215 152 -359c0 -160 -54.833 -289.5 -164.5 -388.5
s-247.167 -148.5 -412.5 -148.5c-193.333 0 -350.833 62.5 -472.5 187.5s-182.5 316.167 -182.5 573.5c0 190 39.667 347 119 471s192.333 220.667 339 290zM528 505c0 -44 15.333 -81.167 46 -111.5s68 -45.5 112 -45.5c44.667 0 82 15.333 112 46s45 67.667 45 111
c0 44.667 -15.167 82.167 -45.5 112.5s-67.5 45.5 -111.5 45.5s-81.333 -15.167 -112 -45.5s-46 -67.833 -46 -112.5z" />
    <glyph glyph-name="afii10066" unicode="&#x431;" horiz-adv-x="1318" 
d="M972 1714l207 -357l-620 -276c-66.667 -30 -117.5 -67 -152.5 -111s-53.833 -93 -56.5 -147l-2 -43h8c40 74.667 94.333 131.167 163 169.5s142 57.5 220 57.5c154.667 0 282.667 -47.667 384 -143s152 -215 152 -359c0 -160 -54.833 -289.5 -164.5 -388.5
s-247.167 -148.5 -412.5 -148.5c-193.333 0 -350.833 62.5 -472.5 187.5s-182.5 316.167 -182.5 573.5c0 190 39.667 347 119 471s192.333 220.667 339 290zM528 505c0 -44 15.333 -81.167 46 -111.5s68 -45.5 112 -45.5c44.667 0 82 15.333 112 46s45 67.667 45 111
c0 44.667 -15.167 82.167 -45.5 112.5s-67.5 45.5 -111.5 45.5s-81.333 -15.167 -112 -45.5s-46 -67.833 -46 -112.5z" />
    <glyph glyph-name="afii10067" unicode="&#xe2;" horiz-adv-x="1128" 
d="M88 1056l497.001 0.000976562c144 0 250.667 -24 320 -72s104 -120 104 -216c0 -42.667 -10.333 -82.167 -31 -118.5s-51.334 -65.833 -92.001 -88.5c58.667 -15.333 104.5 -44.833 137.5 -88.5s49.5 -94.167 49.5 -151.5c0 -92.667 -36.833 -169.334 -110.5 -230.001
s-179.5 -91 -317.5 -91h-557v1056zM464.001 784.001v-152h52c30 0 53.5 6.5 70.5 19.5s25.5 31.833 25.5 56.5c0 25.333 -8.5 44.333 -25.5 57s-40.5 19 -70.5 19h-52zM464.001 440.001v-168.001h68c34 0 60.667 7.5 80 22.5s29 35.5 29 61.5
c0 28.667 -10.5 49.834 -31.5 63.501s-50.833 20.5 -89.5 20.5h-56z" />
    <glyph glyph-name="afii10067" unicode="&#x432;" horiz-adv-x="1128" 
d="M88 1056l497.001 0.000976562c144 0 250.667 -24 320 -72s104 -120 104 -216c0 -42.667 -10.333 -82.167 -31 -118.5s-51.334 -65.833 -92.001 -88.5c58.667 -15.333 104.5 -44.833 137.5 -88.5s49.5 -94.167 49.5 -151.5c0 -92.667 -36.833 -169.334 -110.5 -230.001
s-179.5 -91 -317.5 -91h-557v1056zM464.001 784.001v-152h52c30 0 53.5 6.5 70.5 19.5s25.5 31.833 25.5 56.5c0 25.333 -8.5 44.333 -25.5 57s-40.5 19 -70.5 19h-52zM464.001 440.001v-168.001h68c34 0 60.667 7.5 80 22.5s29 35.5 29 61.5
c0 28.667 -10.5 49.834 -31.5 63.501s-50.833 20.5 -89.5 20.5h-56z" />
    <glyph glyph-name="glyph146" unicode="&#xe3;" horiz-adv-x="827" 
d="M88 1056h657l61 -336h-321v-704l-397 -32v1072z" />
    <glyph glyph-name="glyph146" unicode="&#x433;" horiz-adv-x="827" 
d="M88 1056h657l61 -336h-321v-704l-397 -32v1072z" />
    <glyph glyph-name="afii10069" unicode="&#xe4;" horiz-adv-x="1116" 
d="M294 1056h527l184 -760h90v-490l-371 -33v227h-333v-194l-371 -33v523h90zM477 270h143l-68 452h-8z" />
    <glyph glyph-name="afii10069" unicode="&#x434;" horiz-adv-x="1116" 
d="M294 1056h527l184 -760h90v-490l-371 -33v227h-333v-194l-371 -33v523h90zM477 270h143l-68 452h-8z" />
    <glyph glyph-name="afii10070" unicode="&#xe5;" horiz-adv-x="1185" 
d="M960 419l176.002 -301c-74 -52.667 -148.667 -90.834 -224 -114.501s-154.333 -35.5 -237 -35.5c-200 0 -355.833 55.167 -467.5 165.5s-167.5 241.833 -167.5 394.5s54.833 284.334 164.5 395.001s250.167 166 421.5 166c113.333 0 217.666 -29.167 312.999 -87.5
s168.666 -144.5 219.999 -258.5l-570 -397c17.333 -11.333 34.833 -19.333 52.5 -24s37.167 -7 58.5 -7c43.333 0 87.5 8.66699 132.5 26s87.5 43.333 127.5 78zM460.002 526l283 196.001c-14.667 17.333 -32 30.333 -52 39s-42.333 13 -67 13
c-54 0 -97.167 -17.833 -129.5 -53.5s-48.5 -80.834 -48.5 -135.501c0 -14 1 -25.167 3 -33.5s5.66699 -16.833 11 -25.5z" />
    <glyph glyph-name="afii10070" unicode="&#x435;" horiz-adv-x="1185" 
d="M960 419l176.002 -301c-74 -52.667 -148.667 -90.834 -224 -114.501s-154.333 -35.5 -237 -35.5c-200 0 -355.833 55.167 -467.5 165.5s-167.5 241.833 -167.5 394.5s54.833 284.334 164.5 395.001s250.167 166 421.5 166c113.333 0 217.666 -29.167 312.999 -87.5
s168.666 -144.5 219.999 -258.5l-570 -397c17.333 -11.333 34.833 -19.333 52.5 -24s37.167 -7 58.5 -7c43.333 0 87.5 8.66699 132.5 26s87.5 43.333 127.5 78zM460.002 526l283 196.001c-14.667 17.333 -32 30.333 -52 39s-42.333 13 -67 13
c-54 0 -97.167 -17.833 -129.5 -53.5s-48.5 -80.834 -48.5 -135.501c0 -14 1 -25.167 3 -33.5s5.66699 -16.833 11 -25.5z" />
    <glyph glyph-name="afii10072" unicode="&#xe6;" horiz-adv-x="1703" 
d="M653 1040l397 33v-488h4l164 488l424 -33l-195 -467l267 -557l-430 -32l-230 544h-4v-512l-397 -32v544h-4l-230 -544l-429 32l266 557l-195 467l424 33l164 -488h4v455z" />
    <glyph glyph-name="afii10072" unicode="&#x436;" horiz-adv-x="1703" 
d="M653 1040l397 33v-488h4l164 488l424 -33l-195 -467l267 -557l-430 -32l-230 544h-4v-512l-397 -32v544h-4l-230 -544l-429 32l266 557l-195 467l424 33l164 -488h4v455z" />
    <glyph glyph-name="afii10073" unicode="&#xe7;" horiz-adv-x="983" 
d="M75 749l56.0029 293.004c55.333 15.333 108 27 158 35s99 12 147 12c139.333 0 249.166 -26.333 329.499 -79s120.5 -123.334 120.5 -212.001c0 -52.667 -13.667 -99.334 -41 -140.001s-63.333 -71 -108 -91v-6c56.667 -14.667 102.5 -43.167 137.5 -85.5
s52.5 -94.5 52.5 -156.5c0 -106.667 -44.667 -191.834 -134 -255.501s-210.333 -95.5 -363 -95.5c-56.667 0 -117.5 4.5 -182.5 13.5s-127.167 21.167 -186.5 36.5l8 295c42.667 -16.667 90 -30.334 142 -41.001s100.333 -16 145 -16c46.667 0 81.5 7.83301 104.5 23.5
s34.5 36.5 34.5 62.5c0 25.333 -13.167 44.5 -39.5 57.5s-67.833 19.5 -124.5 19.5h-119v236h115c53.333 0 91.666 5.83301 114.999 17.5s35 31.167 35 58.5c0 22 -10.833 40.333 -32.5 55s-53.167 22 -94.5 22c-37.333 0 -80.333 -5 -129 -15s-97.334 -24.667 -146.001 -44
z" />
    <glyph glyph-name="afii10073" unicode="&#x437;" horiz-adv-x="983" 
d="M75 749l56.0029 293.004c55.333 15.333 108 27 158 35s99 12 147 12c139.333 0 249.166 -26.333 329.499 -79s120.5 -123.334 120.5 -212.001c0 -52.667 -13.667 -99.334 -41 -140.001s-63.333 -71 -108 -91v-6c56.667 -14.667 102.5 -43.167 137.5 -85.5
s52.5 -94.5 52.5 -156.5c0 -106.667 -44.667 -191.834 -134 -255.501s-210.333 -95.5 -363 -95.5c-56.667 0 -117.5 4.5 -182.5 13.5s-127.167 21.167 -186.5 36.5l8 295c42.667 -16.667 90 -30.334 142 -41.001s100.333 -16 145 -16c46.667 0 81.5 7.83301 104.5 23.5
s34.5 36.5 34.5 62.5c0 25.333 -13.167 44.5 -39.5 57.5s-67.833 19.5 -124.5 19.5h-119v236h115c53.333 0 91.666 5.83301 114.999 17.5s35 31.167 35 58.5c0 22 -10.833 40.333 -32.5 55s-53.167 22 -94.5 22c-37.333 0 -80.333 -5 -129 -15s-97.334 -24.667 -146.001 -44
z" />
    <glyph glyph-name="afii10074" unicode="&#xe8;" horiz-adv-x="1226" 
d="M485 548l256 508h397v-1038l-397 -34v523l-256 -507h-397v1040l397 33v-525z" />
    <glyph glyph-name="afii10074" unicode="&#x438;" horiz-adv-x="1226" 
d="M485 548l256 508h397v-1038l-397 -34v523l-256 -507h-397v1040l397 33v-525z" />
    <glyph glyph-name="afii10075" unicode="&#xe9;" 
d="M485 548l258 508h397v-1038l-397 -34v523l-256 -507h-399v1040l397 33v-525zM825 1478l210.994 -43c-32 -92.667 -85.667 -161.167 -161 -205.5s-162.333 -66.5 -261 -66.5c-99.333 0 -186.666 22.167 -261.999 66.5s-128.666 112.833 -159.999 205.5l211 43
c16.667 -39.333 41.834 -68.666 75.501 -87.999s78.834 -29 135.501 -29s101.834 9.66699 135.501 29s58.834 48.666 75.501 87.999z" />
    <glyph glyph-name="afii10075" unicode="&#x439;" 
d="M485 548l258 508h397v-1038l-397 -34v523l-256 -507h-399v1040l397 33v-525zM825 1478l210.994 -43c-32 -92.667 -85.667 -161.167 -161 -205.5s-162.333 -66.5 -261 -66.5c-99.333 0 -186.666 22.167 -261.999 66.5s-128.666 112.833 -159.999 205.5l211 43
c16.667 -39.333 41.834 -68.666 75.501 -87.999s78.834 -29 135.501 -29s101.834 9.66699 135.501 29s58.834 48.666 75.501 87.999z" />
    <glyph glyph-name="glyph180" unicode="&#xea;" horiz-adv-x="1159" 
d="M88 1040l397 33v-488h4l184 488l424 -33l-215 -467l277 -557l-430 -32l-240 544h-4v-512l-397 -32v1056z" />
    <glyph glyph-name="glyph180" unicode="&#x43a;" horiz-adv-x="1159" 
d="M88 1040l397 33v-488h4l184 488l424 -33l-215 -467l277 -557l-430 -32l-240 544h-4v-512l-397 -32v1056z" />
    <glyph glyph-name="afii10077" unicode="&#xeb;" horiz-adv-x="1038" 
d="M251 1056h535l246 -1056l-404 -32l-116 724h-9l-104 -724l-393 32z" />
    <glyph glyph-name="afii10077" unicode="&#x43b;" horiz-adv-x="1038" 
d="M251 1056h535l246 -1056l-404 -32l-116 724h-9l-104 -724l-393 32z" />
    <glyph glyph-name="afii10078" unicode="&#xec;" horiz-adv-x="1347" 
d="M151 1056h358l164 -477l164 477h359l151 -1040l-391 -32l-49 509h-4l-230 -542l-229 542h-4l-49 -509l-391 32z" />
    <glyph glyph-name="afii10078" unicode="&#x43c;" horiz-adv-x="1347" 
d="M151 1056h358l164 -477l164 477h359l151 -1040l-391 -32l-49 509h-4l-230 -542l-229 542h-4l-49 -509l-391 32z" />
    <glyph glyph-name="afii10079" unicode="&#xed;" horiz-adv-x="1136" 
d="M88 1040l397 33v-381h166v348l397 33v-1057l-397 -32v411h-166v-379l-397 -32v1056z" />
    <glyph glyph-name="afii10079" unicode="&#x43d;" horiz-adv-x="1136" 
d="M88 1040l397 33v-381h166v348l397 33v-1057l-397 -32v411h-166v-379l-397 -32v1056z" />
    <glyph glyph-name="afii10080" unicode="&#xee;" horiz-adv-x="1269" 
d="M634 1089c163.333 0 302.831 -54.5 418.498 -163.5s173.5 -241.5 173.5 -397.5c0 -154.667 -58 -286.667 -174 -396s-255.333 -164 -418 -164c-161.333 0 -300.166 54.5 -416.499 163.5s-174.5 241.167 -174.5 396.5c0 158 58.333 291 175 399s255.334 162 416.001 162z
M474.998 528c0 -46.667 15.333 -85.667 46 -117s68.334 -47 113.001 -47c45.333 0 83.333 15.667 114 47s46 70.333 46 117s-15.333 85.667 -46 117s-68.667 47 -114 47c-44.667 0 -82.334 -15.667 -113.001 -47s-46 -70.333 -46 -117z" />
    <glyph glyph-name="afii10080" unicode="&#x43e;" horiz-adv-x="1269" 
d="M634 1089c163.333 0 302.831 -54.5 418.498 -163.5s173.5 -241.5 173.5 -397.5c0 -154.667 -58 -286.667 -174 -396s-255.333 -164 -418 -164c-161.333 0 -300.166 54.5 -416.499 163.5s-174.5 241.167 -174.5 396.5c0 158 58.333 291 175 399s255.334 162 416.001 162z
M474.998 528c0 -46.667 15.333 -85.667 46 -117s68.334 -47 113.001 -47c45.333 0 83.333 15.667 114 47s46 70.333 46 117s-15.333 85.667 -46 117s-68.667 47 -114 47c-44.667 0 -82.334 -15.667 -113.001 -47s-46 -70.333 -46 -117z" />
    <glyph glyph-name="afii10081" unicode="&#xef;" horiz-adv-x="1126" 
d="M88 1056h950v-1040l-397 -32v775h-156v-743l-397 -32v1072z" />
    <glyph glyph-name="afii10081" unicode="&#x43f;" horiz-adv-x="1126" 
d="M88 1056h950v-1040l-397 -32v775h-156v-743l-397 -32v1072z" />
    <glyph glyph-name="afii10082" unicode="&#xf0;" horiz-adv-x="1277" 
d="M88 1040l380.001 31v-107h9c35.333 42.667 75.666 74.167 120.999 94.5s93 30.5 143 30.5c128 0 242.167 -52.5 342.5 -157.5s150.5 -238.167 150.5 -399.5c0 -166.667 -52.833 -302.334 -158.5 -407.001s-223.5 -157 -353.5 -157c-48 0 -91.5 6.33301 -130.5 19
s-74.5 33.334 -106.5 62.001v-364l-397 -33v1388zM485.001 528c0 -46 15.333 -84.833 46 -116.5s68.667 -47.5 114 -47.5s82.833 16.167 112.5 48.5s44.5 70.833 44.5 115.5s-14.833 83.167 -44.5 115.5s-67.167 48.5 -112.5 48.5s-83.333 -16 -114 -48
s-46 -70.667 -46 -116z" />
    <glyph glyph-name="afii10082" unicode="&#x440;" horiz-adv-x="1277" 
d="M88 1040l380.001 31v-107h9c35.333 42.667 75.666 74.167 120.999 94.5s93 30.5 143 30.5c128 0 242.167 -52.5 342.5 -157.5s150.5 -238.167 150.5 -399.5c0 -166.667 -52.833 -302.334 -158.5 -407.001s-223.5 -157 -353.5 -157c-48 0 -91.5 6.33301 -130.5 19
s-74.5 33.334 -106.5 62.001v-364l-397 -33v1388zM485.001 528c0 -46 15.333 -84.833 46 -116.5s68.667 -47.5 114 -47.5s82.833 16.167 112.5 48.5s44.5 70.833 44.5 115.5s-14.833 83.167 -44.5 115.5s-67.167 48.5 -112.5 48.5s-83.333 -16 -114 -48
s-46 -70.667 -46 -116z" />
    <glyph glyph-name="afii10083" unicode="&#xf1;" horiz-adv-x="1073" 
d="M804 419l247.997 -313.001c-62 -50 -127.167 -85.5 -195.5 -106.5s-145.166 -31.5 -230.499 -31.5c-181.333 0 -323.833 54.5 -427.5 163.5s-155.5 236.5 -155.5 382.5c0 160 54.333 295.833 163 407.5s258.334 167.5 449.001 167.5c69.333 0 136 -10.167 200 -30.5
s125.667 -53.166 185 -98.499l-242 -317c-20 16 -42.167 28.167 -66.5 36.5s-49.166 12.5 -74.499 12.5c-53.333 0 -97 -15.333 -131 -46s-51 -68 -51 -112c0 -46 17 -85.833 51 -119.5s79 -50.5 135 -50.5c26 0 51.5 4.66699 76.5 14s47.167 23 66.5 41z" />
    <glyph glyph-name="afii10083" unicode="&#x441;" horiz-adv-x="1073" 
d="M804 419l247.997 -313.001c-62 -50 -127.167 -85.5 -195.5 -106.5s-145.166 -31.5 -230.499 -31.5c-181.333 0 -323.833 54.5 -427.5 163.5s-155.5 236.5 -155.5 382.5c0 160 54.333 295.833 163 407.5s258.334 167.5 449.001 167.5c69.333 0 136 -10.167 200 -30.5
s125.667 -53.166 185 -98.499l-242 -317c-20 16 -42.167 28.167 -66.5 36.5s-49.166 12.5 -74.499 12.5c-53.333 0 -97 -15.333 -131 -46s-51 -68 -51 -112c0 -46 17 -85.833 51 -119.5s79 -50.5 135 -50.5c26 0 51.5 4.66699 76.5 14s47.167 23 66.5 41z" />
    <glyph glyph-name="afii10084" unicode="&#xf2;" horiz-adv-x="860" 
d="M239 720h-225l61 336h770v-336h-209v-704l-397 -32v736z" />
    <glyph glyph-name="afii10084" unicode="&#x442;" horiz-adv-x="860" 
d="M239 720h-225l61 336h770v-336h-209v-704l-397 -32v736z" />
    <glyph glyph-name="glyph193" unicode="&#xf3;" horiz-adv-x="925" 
d="M360 1073l123 -404h4l90 404l377 -33l-391 -1365l-416 33l158 431l-343 901z" />
    <glyph glyph-name="glyph193" unicode="&#x443;" horiz-adv-x="925" 
d="M360 1073l123 -404h4l90 404l377 -33l-391 -1365l-416 33l158 431l-343 901z" />
    <glyph glyph-name="afii10086" unicode="&#xf4;" horiz-adv-x="1613" 
d="M608 1335l397 33v-304c174 2 311.667 -49.667 413 -155s152 -232.333 152 -381c0 -160.667 -54 -290.834 -162 -390.501s-242.333 -148.834 -403 -147.501v-338l-397 -32v370c-160.667 -1.33301 -295 47.834 -403 147.501s-162 229.834 -162 390.501
c0 148.667 50.667 275.667 152 381s239 157 413 155v271zM978 716v-379c50 2 89.167 19.833 117.5 53.5s42.5 79.5 42.5 137.5s-14.167 103.833 -42.5 137.5s-67.5 50.5 -117.5 50.5zM634 337v379c-49.333 0 -88.166 -16.833 -116.499 -50.5s-42.5 -79.5 -42.5 -137.5
s14.167 -103.833 42.5 -137.5s67.166 -51.5 116.499 -53.5z" />
    <glyph glyph-name="afii10086" unicode="&#x444;" horiz-adv-x="1613" 
d="M608 1335l397 33v-304c174 2 311.667 -49.667 413 -155s152 -232.333 152 -381c0 -160.667 -54 -290.834 -162 -390.501s-242.333 -148.834 -403 -147.501v-338l-397 -32v370c-160.667 -1.33301 -295 47.834 -403 147.501s-162 229.834 -162 390.501
c0 148.667 50.667 275.667 152 381s239 157 413 155v271zM978 716v-379c50 2 89.167 19.833 117.5 53.5s42.5 79.5 42.5 137.5s-14.167 103.833 -42.5 137.5s-67.5 50.5 -117.5 50.5zM634 337v379c-49.333 0 -88.166 -16.833 -116.499 -50.5s-42.5 -79.5 -42.5 -137.5
s14.167 -103.833 42.5 -137.5s67.166 -51.5 116.499 -53.5z" />
    <glyph glyph-name="afii10087" unicode="&#xf5;" horiz-adv-x="1054" 
d="M425 1073l97 -308h4l84 308l424 -33l-219 -488l256 -536l-441 -32l-104 331h-4l-107 -331l-431 32l243 536l-227 488z" />
    <glyph glyph-name="afii10087" unicode="&#x445;" horiz-adv-x="1054" 
d="M425 1073l97 -308h4l84 308l424 -33l-219 -488l256 -536l-441 -32l-104 331h-4l-107 -331l-431 32l243 536l-227 488z" />
    <glyph glyph-name="afii10088" unicode="&#xf6;" horiz-adv-x="1171" 
d="M641 1040l397 33v-777h102v-490l-370 -33v227h-682v1040l397 33v-777h156v744z" />
    <glyph glyph-name="afii10088" unicode="&#x446;" horiz-adv-x="1171" 
d="M641 1040l397 33v-777h102v-490l-370 -33v227h-682v1040l397 33v-777h156v744z" />
    <glyph glyph-name="afii10089" unicode="&#xf7;" horiz-adv-x="1099" 
d="M614 1040l396.999 33v-1057l-397 -32v380c-44 -11.333 -84.333 -19.333 -121 -24s-77 -7 -121 -7c-96.667 0 -172.667 24.5 -228 73.5s-83 124.167 -83 225.5v408l397 33v-361c0 -31.333 5.5 -52.833 16.5 -64.5s28.833 -17.5 53.5 -17.5
c12.667 0 25.834 1.33301 39.501 4s29.167 7 46.5 13v393z" />
    <glyph glyph-name="afii10089" unicode="&#x447;" horiz-adv-x="1099" 
d="M614 1040l396.999 33v-1057l-397 -32v380c-44 -11.333 -84.333 -19.333 -121 -24s-77 -7 -121 -7c-96.667 0 -172.667 24.5 -228 73.5s-83 124.167 -83 225.5v408l397 33v-361c0 -31.333 5.5 -52.833 16.5 -64.5s28.833 -17.5 53.5 -17.5
c12.667 0 25.834 1.33301 39.501 4s29.167 7 46.5 13v393z" />
    <glyph glyph-name="afii10090" unicode="&#xf8;" horiz-adv-x="1597" 
d="M600 1040l397 33v-777h115v744l397 33v-1073h-1421v1040l397 33v-777h115v744z" />
    <glyph glyph-name="afii10090" unicode="&#x448;" horiz-adv-x="1597" 
d="M600 1040l397 33v-777h115v744l397 33v-1073h-1421v1040l397 33v-777h115v744z" />
    <glyph glyph-name="afii10091" unicode="&#xf9;" horiz-adv-x="1642" 
d="M600 1040l397 33v-777h115v744l397 33v-777h102v-490l-370 -33v227h-1153v1040l397 33v-777h115v744z" />
    <glyph glyph-name="afii10091" unicode="&#x449;" horiz-adv-x="1642" 
d="M600 1040l397 33v-777h115v744l397 33v-777h102v-490l-370 -33v227h-1153v1040l397 33v-777h115v744z" />
    <glyph glyph-name="afii10092" unicode="&#xfa;" horiz-adv-x="1277" 
d="M624 1056v-335.999h107c165.333 0 290.833 -29 376.5 -87s128.5 -145 128.5 -261c0 -104.667 -39 -192.834 -117 -264.501s-190.333 -107.5 -337 -107.5h-555v720h-207l61 336h543zM624 458.001v-176.001h57c42 0 73 7.83301 93 23.5s30 37.834 30 66.501
c0 29.333 -10.333 51 -31 65s-52 21 -94 21h-55z" />
    <glyph glyph-name="afii10092" unicode="&#x44a;" horiz-adv-x="1277" 
d="M624 1056v-335.999h107c165.333 0 290.833 -29 376.5 -87s128.5 -145 128.5 -261c0 -104.667 -39 -192.834 -117 -264.501s-190.333 -107.5 -337 -107.5h-555v720h-207l61 336h543zM624 458.001v-176.001h57c42 0 73 7.83301 93 23.5s30 37.834 30 66.501
c0 29.333 -10.333 51 -31 65s-52 21 -94 21h-55z" />
    <glyph glyph-name="afii10093" unicode="&#xfb;" horiz-adv-x="1624" 
d="M485 1073v-353.002h96c161.333 0 284.333 -28.667 369 -86s127 -144.666 127 -261.999c0 -107.333 -38.667 -196.166 -116 -266.499s-187 -105.5 -329 -105.5h-544v1040zM485 459.998v-178.001h47c42 0 73 7.83301 93 23.5s30 37.834 30 66.501
c0 30.667 -10.5 53 -31.5 67s-52.167 21 -93.5 21h-45zM1536 15.9971l-398 -32v1056l398 33v-1057z" />
    <glyph glyph-name="afii10093" unicode="&#x44b;" horiz-adv-x="1624" 
d="M485 1073v-353.002h96c161.333 0 284.333 -28.667 369 -86s127 -144.666 127 -261.999c0 -107.333 -38.667 -196.166 -116 -266.499s-187 -105.5 -329 -105.5h-544v1040zM485 459.998v-178.001h47c42 0 73 7.83301 93 23.5s30 37.834 30 66.501
c0 30.667 -10.5 53 -31.5 67s-52.167 21 -93.5 21h-45zM1536 15.9971l-398 -32v1056l398 33v-1057z" />
    <glyph glyph-name="afii10094" unicode="&#xfc;" horiz-adv-x="1138" 
d="M485 1073v-353.001h106c165.333 0 291 -28.5 377 -85.5s129 -144.5 129 -262.5c0 -107.333 -39.5 -196.166 -118.5 -266.499s-190.833 -105.5 -335.5 -105.5h-555v1040zM485 459.999v-178.001h57c42 0 73 7.83301 93 23.5s30 37.834 30 66.501
c0 30.667 -10.333 53 -31 67s-52 21 -94 21h-55z" />
    <glyph glyph-name="afii10094" unicode="&#x44c;" horiz-adv-x="1138" 
d="M485 1073v-353.001h106c165.333 0 291 -28.5 377 -85.5s129 -144.5 129 -262.5c0 -107.333 -39.5 -196.166 -118.5 -266.499s-190.833 -105.5 -335.5 -105.5h-555v1040zM485 459.999v-178.001h57c42 0 73 7.83301 93 23.5s30 37.834 30 66.501
c0 30.667 -10.333 53 -31 67s-52 21 -94 21h-55z" />
    <glyph glyph-name="afii10095" unicode="&#xfd;" horiz-adv-x="1079" 
d="M231 708l-187.998 256.001c53.333 40.667 113.666 71.667 180.999 93s135.333 32 204 32c188.667 0 337.167 -56 445.5 -168s162.5 -247.667 162.5 -407c0 -148 -53 -276 -159 -384s-246.333 -162 -421 -162c-79.333 0 -154.333 11.167 -225 33.5
s-134.334 55.166 -191.001 98.499l170 262c32.667 -22.667 66.167 -39.667 100.5 -51s68.5 -17 102.5 -17c49.333 0 91 12.833 125 38.5s56 59.5 66 101.5h-295v207h295c-12.667 42 -36.5 74.333 -71.5 97s-74.833 34 -119.5 34c-30.667 0 -62 -5.33301 -94 -16
s-61.333 -26.667 -88 -48z" />
    <glyph glyph-name="afii10095" unicode="&#x44d;" horiz-adv-x="1079" 
d="M231 708l-187.998 256.001c53.333 40.667 113.666 71.667 180.999 93s135.333 32 204 32c188.667 0 337.167 -56 445.5 -168s162.5 -247.667 162.5 -407c0 -148 -53 -276 -159 -384s-246.333 -162 -421 -162c-79.333 0 -154.333 11.167 -225 33.5
s-134.334 55.166 -191.001 98.499l170 262c32.667 -22.667 66.167 -39.667 100.5 -51s68.5 -17 102.5 -17c49.333 0 91 12.833 125 38.5s56 59.5 66 101.5h-295v207h295c-12.667 42 -36.5 74.333 -71.5 97s-74.833 34 -119.5 34c-30.667 0 -62 -5.33301 -94 -16
s-61.333 -26.667 -88 -48z" />
    <glyph glyph-name="afii10096" unicode="&#xfe;" horiz-adv-x="1746" 
d="M485 692l94 0.000976562c32 121.333 96.5 217.833 193.5 289.5s212.833 107.5 347.5 107.5c161.333 0 298.833 -54.333 412.5 -163s170.5 -241.334 170.5 -398.001c0 -155.333 -56.833 -287.5 -170.5 -396.5s-251.167 -163.5 -412.5 -163.5
c-140.667 0 -260.5 39.833 -359.5 119.5s-162.833 182.167 -191.5 307.5h-84v-379l-397 -32v1056l397 33v-381zM968 528.001c0 -46.667 14.335 -85.667 43.002 -117s65 -47 109 -47c43.333 0 79.333 15.667 108 47s43 70.333 43 117s-14.333 85.667 -43 117
s-65.334 47 -110.001 47c-42.667 0 -78.334 -15.667 -107.001 -47s-43 -70.333 -43 -117z" />
    <glyph glyph-name="afii10096" unicode="&#x44e;" horiz-adv-x="1746" 
d="M485 692l94 0.000976562c32 121.333 96.5 217.833 193.5 289.5s212.833 107.5 347.5 107.5c161.333 0 298.833 -54.333 412.5 -163s170.5 -241.334 170.5 -398.001c0 -155.333 -56.833 -287.5 -170.5 -396.5s-251.167 -163.5 -412.5 -163.5
c-140.667 0 -260.5 39.833 -359.5 119.5s-162.833 182.167 -191.5 307.5h-84v-379l-397 -32v1056l397 33v-381zM968 528.001c0 -46.667 14.335 -85.667 43.002 -117s65 -47 109 -47c43.333 0 79.333 15.667 108 47s43 70.333 43 117s-14.333 85.667 -43 117
s-65.334 47 -110.001 47c-42.667 0 -78.334 -15.667 -107.001 -47s-43 -70.333 -43 -117z" />
    <glyph glyph-name="afii10097" unicode="&#xff;" horiz-adv-x="1150" 
d="M1062 1056v-1040l-397 -32v450h-14l-180 -450l-431 32l216 418c-60.667 18 -109.667 52.667 -147 104s-56 114.333 -56 189c0 91.333 37.833 169 113.5 233s182.5 96 320.5 96h575zM665 503v255.999h-37c-44 0 -78.833 -11.167 -104.5 -33.5s-38.5 -52.166 -38.5 -89.499
c0 -41.333 12.833 -73.833 38.5 -97.5s61.167 -35.5 106.5 -35.5h35z" />
    <glyph glyph-name="afii10097" unicode="&#x44f;" horiz-adv-x="1150" 
d="M1062 1056v-1040l-397 -32v450h-14l-180 -450l-431 32l216 418c-60.667 18 -109.667 52.667 -147 104s-56 114.333 -56 189c0 91.333 37.833 169 113.5 233s182.5 96 320.5 96h575zM665 503v255.999h-37c-44 0 -78.833 -11.167 -104.5 -33.5s-38.5 -52.166 -38.5 -89.499
c0 -41.333 12.833 -73.833 38.5 -97.5s61.167 -35.5 106.5 -35.5h35z" />
    <glyph glyph-name="afii10059" unicode="&#x152;" horiz-adv-x="1951" 
d="M817 0v536h-267v-536l-444 -32v1436l444 33v-500h267v467l444 33v-500h102c164.667 0 296.667 -41 396 -123s149 -195 149 -339c0 -129.333 -44.5 -240.833 -133.5 -334.5s-212.5 -140.5 -370.5 -140.5h-587zM1261 585l0.000976562 -233.001h39
c47.333 0 83.333 10.5 108 31.5s37 49.167 37 84.5c0 36.667 -12.833 65.334 -38.5 86.001s-61.834 31 -108.501 31h-37z" />
    <glyph glyph-name="afii10059" unicode="&#x40a;" horiz-adv-x="1951" 
d="M817 0v536h-267v-536l-444 -32v1436l444 33v-500h267v467l444 33v-500h102c164.667 0 296.667 -41 396 -123s149 -195 149 -339c0 -129.333 -44.5 -240.833 -133.5 -334.5s-212.5 -140.5 -370.5 -140.5h-587zM1261 585l0.000976562 -233.001h39
c47.333 0 83.333 10.5 108 31.5s37 49.167 37 84.5c0 36.667 -12.833 65.334 -38.5 86.001s-61.834 31 -108.501 31h-37z" />
    <glyph glyph-name="afii10107" unicode="&#x153;" horiz-adv-x="1683" 
d="M1048 1073l-0.000976562 -365h96c160 0 282.667 -28.833 368 -86.5s128 -146.167 128 -265.5c0 -104.667 -39.167 -190.167 -117.5 -256.5s-187.166 -99.5 -326.499 -99.5h-545v411h-166v-395l-397 -32v1056l397 33v-365h166v332zM1048 452v-178.001h47
c42 0 73 7.83301 93 23.5s30 37.834 30 66.501c0 30.667 -10.5 53 -31.5 67s-52.167 21 -93.5 21h-45z" />
    <glyph glyph-name="afii10107" unicode="&#x45a;" horiz-adv-x="1683" 
d="M1048 1073l-0.000976562 -365h96c160 0 282.667 -28.833 368 -86.5s128 -146.167 128 -265.5c0 -104.667 -39.167 -190.167 -117.5 -256.5s-187.166 -99.5 -326.499 -99.5h-545v411h-166v-395l-397 -32v1056l397 33v-365h166v332zM1048 452v-178.001h47
c42 0 73 7.83301 93 23.5s30 37.834 30 66.501c0 30.667 -10.5 53 -31.5 67s-52.167 21 -93.5 21h-45z" />
    <glyph glyph-name="afii10058" unicode="&#x160;" horiz-adv-x="1830" 
d="M1284 0h-496l-182 919h-4l-174 -951l-438 32l347 1404h547l113 -454h246c164 0 295.667 -42.667 395 -128s149 -201 149 -347c0 -130 -44.5 -241.667 -133.5 -335s-212.167 -140 -369.5 -140zM1085 598l61 -246.002h37c49.333 0 86 10.833 110 32.5s36 51.834 36 90.501
s-13 68.834 -39 90.501s-62.333 32.5 -109 32.5h-96z" />
    <glyph glyph-name="afii10058" unicode="&#x409;" horiz-adv-x="1830" 
d="M1284 0h-496l-182 919h-4l-174 -951l-438 32l347 1404h547l113 -454h246c164 0 295.667 -42.667 395 -128s149 -201 149 -347c0 -130 -44.5 -241.667 -133.5 -335s-212.167 -140 -369.5 -140zM1085 598l61 -246.002h37c49.333 0 86 10.833 110 32.5s36 51.834 36 90.501
s-13 68.834 -39 90.501s-62.333 32.5 -109 32.5h-96z" />
    <glyph glyph-name="afii10106" unicode="&#x161;" horiz-adv-x="1564" 
d="M251 1056l535 0.000976562l78 -336h153c165.333 0 291 -29 377 -87s129 -145 129 -261c0 -104.667 -39 -192.834 -117 -264.501s-190.333 -107.5 -337 -107.5h-441l-116 692h-9l-104 -724l-393 32zM905 458.001l41 -176.001h22c42 0 73 7.83301 93 23.5
s30 37.834 30 66.501c0 29.333 -10.5 51 -31.5 65s-52.167 21 -93.5 21h-61z" />
    <glyph glyph-name="afii10106" unicode="&#x459;" horiz-adv-x="1564" 
d="M251 1056l535 0.000976562l78 -336h153c165.333 0 291 -29 377 -87s129 -145 129 -261c0 -104.667 -39 -192.834 -117 -264.501s-190.333 -107.5 -337 -107.5h-441l-116 692h-9l-104 -724l-393 32zM905 458.001l41 -176.001h22c42 0 73 7.83301 93 23.5
s30 37.834 30 66.501c0 29.333 -10.5 51 -31.5 65s-52.167 21 -93.5 21h-61z" />
    <glyph glyph-name="afii10193" unicode="&#x178;" horiz-adv-x="1126" 
d="M641 1040l397 33v-1073h-277v-210l-397 -54v264h-276v1040l397 33v-766h156v733z" />
    <glyph glyph-name="afii10193" unicode="&#x45f;" horiz-adv-x="1126" 
d="M641 1040l397 33v-1073h-277v-210l-397 -54v264h-276v1040l397 33v-766h156v733z" />
    <glyph glyph-name="afii10100" unicode="&#x192;" horiz-adv-x="826" 
d="M88 1056h657l61 -336h-321v-704l-397 -32v1072zM716 1689l90 -182l-506 -232l-72 134z" />
    <glyph glyph-name="afii10100" unicode="&#x453;" horiz-adv-x="826" 
d="M88 1056h657l61 -336h-321v-704l-397 -32v1072zM716 1689l90 -182l-506 -232l-72 134z" />
    <glyph glyph-name="endash" unicode="&#x2013;" 
d="M1142 362h-1056v250h1056v-250z" />
    <glyph glyph-name="emdash" unicode="&#x2014;" horiz-adv-x="2048" 
d="M2048 362h-2048v266h2048v-266z" />
    <glyph glyph-name="quoteleft" unicode="&#x2018;" horiz-adv-x="454" 
d="M143 1437h266l-27 -90c-23.333 -80 -37 -133.5 -41 -160.5s-6 -54.167 -6 -81.5c0 -47.333 7 -86 21 -116s38.667 -58.667 74 -86l-328 -97c-25.333 34 -44.666 69.333 -57.999 106s-20 74 -20 112c0 38.667 5.66699 82 17 130s35.666 118.667 72.999 212z" />
    <glyph glyph-name="quoteright" unicode="&#x2019;" horiz-adv-x="454" 
d="M24 1341l327.999 96c24.667 -33.333 43.834 -68.5 57.501 -105.5s20.5 -74.167 20.5 -111.5c0 -39.333 -5.83301 -82.833 -17.5 -130.5s-36.167 -118.167 -73.5 -211.5l-28 -72h-266l26 91c24 80 37.833 133.333 41.5 160s5.5 53.667 5.5 81
c0 48 -6.83301 86.833 -20.5 116.5s-38.167 58.5 -73.5 86.5z" />
    <glyph glyph-name="quotesinglbase" unicode="&#x201a;" horiz-adv-x="604" 
d="M622 403l-278 -790h-289l180 761z" />
    <glyph glyph-name="quotedblleft" unicode="&#x201c;" horiz-adv-x="796" 
d="M763 958l-286 -57c-19.333 36.667 -33.5 71.167 -42.5 103.5s-13.5 69.5 -13.5 111.5c0 38.667 5.33301 79.834 16 123.501s32.667 103.5 66 179.5l9 18l225 -24l-19 -66c-15.333 -54.667 -25.333 -95.834 -30 -123.501s-7 -54.167 -7 -79.5
c0 -34.667 6.66699 -67.5 20 -98.5s34 -60.167 62 -87.5zM372 958l-286 -57c-19.333 36.667 -33.5 71.167 -42.5 103.5s-13.5 69.5 -13.5 111.5c0 38.667 5.33301 79.834 16 123.501s32.667 103.5 66 179.5l8 18l226 -24l-19 -66
c-15.333 -54.667 -25.333 -95.834 -30 -123.501s-7 -54.167 -7 -79.5c0 -34.667 6.66699 -67.5 20 -98.5s34 -60.167 62 -87.5z" />
    <glyph glyph-name="quotedblright" unicode="&#x201d;" horiz-adv-x="796" 
d="M32 1380l287 57.001c19.333 -36.667 33.333 -71.167 42 -103.5s13 -69.5 13 -111.5c0 -38.667 -5.16699 -79.834 -15.5 -123.501s-32.5 -103.5 -66.5 -179.5l-8 -18l-225 24l18 66c15.333 54 25.333 95 30 123s7 54.333 7 79c0 35.333 -6.5 68.5 -19.5 99.5
s-33.833 60.167 -62.5 87.5zM423 1380l286.999 57.001c19.333 -36.667 33.333 -71.167 42 -103.5s13 -69.5 13 -111.5c0 -38.667 -5.16699 -79.834 -15.5 -123.501s-32.166 -103.5 -65.499 -179.5l-9 -18l-225 24l18 66c15.333 54 25.333 95 30 123s7 54.333 7 79
c0 35.333 -6.5 68.5 -19.5 99.5s-33.833 60.167 -62.5 87.5z" />
    <glyph glyph-name="quotedblbase" unicode="&#x201e;" horiz-adv-x="796" 
d="M32 208l287 57.999c19.333 -36.667 33.333 -71.334 42 -104.001s13 -69.667 13 -111c0 -38 -5.16699 -79 -15.5 -123s-32.5 -103.667 -66.5 -179l-8 -19l-225 25l18 65c15.333 54.667 25.333 95.834 30 123.501s7 53.834 7 78.501c0 34.667 -6.5 67.5 -19.5 98.5
s-33.833 60.167 -62.5 87.5zM423 207.999l286.999 57.999c19.333 -36.667 33.333 -71.334 42 -104.001s13 -69.667 13 -111c0 -38 -5.16699 -79 -15.5 -123s-32.166 -103.667 -65.499 -179l-9 -19l-225 25l18 65c15.333 54.667 25.333 95.834 30 123.501s7 53.834 7 78.501
c0 34.667 -6.5 67.5 -19.5 98.5s-33.833 60.167 -62.5 87.5z" />
    <glyph glyph-name="dagger" unicode="&#x2020;" horiz-adv-x="1259" 
d="M460 -376v1117h-348v315h348v348h434v-348h349v-315h-349v-1085z" />
    <glyph glyph-name="daggerdbl" unicode="&#x2021;" horiz-adv-x="1263" 
d="M464 -374v447h-352v316h352v352h-348v315h348v348h435v-348h348v-315h-348v-352h344v-316h-344v-415z" />
    <glyph glyph-name="bullet" unicode="&#x2022;" horiz-adv-x="1024" 
d="M864 700c0 -95.333 -32.6689 -177.5 -98.002 -246.5s-150 -103.5 -254 -103.5c-99.333 0 -182.666 33.667 -249.999 101s-101 150.333 -101 249c0 101.333 33.333 185.333 100 252s150.334 100 251.001 100c99.333 0 182.833 -33.333 250.5 -100
s101.5 -150.667 101.5 -252z" />
    <glyph glyph-name="bullet" unicode="&#xf000;" horiz-adv-x="1024" 
d="M864 700c0 -95.333 -32.6689 -177.5 -98.002 -246.5s-150 -103.5 -254 -103.5c-99.333 0 -182.666 33.667 -249.999 101s-101 150.333 -101 249c0 101.333 33.333 185.333 100 252s150.334 100 251.001 100c99.333 0 182.833 -33.333 250.5 -100
s101.5 -150.667 101.5 -252z" />
    <glyph glyph-name="ellipsis" unicode="&#x2026;" horiz-adv-x="2048" 
d="M342 499l266 -266l-266 -265l-267 265zM1024 499l266 -266l-266 -265l-267 265zM1705 499l267 -266l-267 -265l-266 265z" />
    <glyph glyph-name="perthousand" unicode="&#x2030;" horiz-adv-x="2048" 
d="M1744 411c-26 0 -48.167 -9.16699 -66.5 -27.5s-27.5 -40.5 -27.5 -66.5s9.16699 -48.167 27.5 -66.5s40.5 -27.5 66.5 -27.5c26.667 0 49.167 9.16699 67.5 27.5s27.5 40.5 27.5 66.5s-9.16699 48.167 -27.5 66.5s-40.833 27.5 -67.5 27.5zM1744 634
c88.667 0 163.834 -30.667 225.501 -92s92.5 -136.333 92.5 -225s-30.833 -163.667 -92.5 -225s-136.834 -92 -225.501 -92c-88 0 -162.833 30.667 -224.5 92s-92.5 136.333 -92.5 225s30.833 163.667 92.5 225s136.5 92 224.5 92zM1028 634c88 0 162.833 -30.667 224.5 -92
s92.5 -136.333 92.5 -225s-30.833 -163.667 -92.5 -225s-136.5 -92 -224.5 -92c-88.667 0 -163.834 30.667 -225.501 92s-92.5 136.333 -92.5 225s30.833 163.667 92.5 225s136.834 92 225.501 92zM1028 411c-26.667 0 -49.167 -9.16699 -67.5 -27.5
s-27.5 -40.5 -27.5 -66.5s9.16699 -48.167 27.5 -66.5s40.833 -27.5 67.5 -27.5c26 0 48.167 9.16699 66.5 27.5s27.5 40.5 27.5 66.5s-9.16699 48.167 -27.5 66.5s-40.5 27.5 -66.5 27.5zM317 1181c-26 0 -48.167 -9.16699 -66.5 -27.5s-27.5 -40.5 -27.5 -66.5
s9.16699 -48.167 27.5 -66.5s40.5 -27.5 66.5 -27.5s48.167 9.16699 66.5 27.5s27.5 40.5 27.5 66.5s-9.16699 48.167 -27.5 66.5s-40.5 27.5 -66.5 27.5zM937 1437l213.002 0.000976562l-798 -1469h-207l616 1111l-4 4c-10 -5.33301 -20.333 -9 -31 -11
s-20.667 -2.33301 -30 -1l-62 6c-2.66699 -90 -33.834 -163.667 -93.501 -221s-134.167 -86 -223.5 -86c-88.667 0 -163.667 30.333 -225 91s-92 136 -92 226c0 89.333 30.667 164.5 92 225.5s136.333 91.5 225 91.5c38 0 75.333 -6 112 -18s76.334 -33 119.001 -63l35 -25
c43.333 -30.667 72.833 -48.167 88.5 -52.5s32.5 -6.5 50.5 -6.5c49.333 0 92.166 17.167 128.499 51.5s65.166 83.166 86.499 146.499z" />
    <glyph glyph-name="guilsinglleft" unicode="&#x2039;" horiz-adv-x="677" 
d="M77 528l230 342h293l-228 -342l228 -342h-293z" />
    <glyph glyph-name="guilsinglright" unicode="&#x203a;" horiz-adv-x="677" 
d="M600 528l-230 -342h-293l228 342l-228 342h293z" />
    <glyph glyph-name="trademark" unicode="&#x2122;" horiz-adv-x="2074" 
d="M215 1140h-213l57 264h729v-264h-199v-555l-374 -24v579zM942 1404h340l155 -374l154 374h338l143 -819l-371 -24l-47 399h-2l-215 -426l-217 426h-4l-47 -399l-369 24z" />
    <glyph glyph-name="periodcentered" unicode="&#x2219;" horiz-adv-x="512" 
d="M47 528c0 58 20.333 107.333 61 148s90 61 148 61c54.667 0 103 -19.333 145 -58s63 -89 63 -151c0 -56 -18.833 -104.833 -56.5 -146.5s-88.167 -62.5 -151.5 -62.5c-58 0 -107.333 20 -148 60s-61 89.667 -61 149z" />
    <glyph glyph-name="fi" unicode="&#xf001;" horiz-adv-x="1253" 
d="M55 1056h67.001v33c0 122.667 38.333 220.167 115 292.5s173 108.5 289 108.5c25.333 0 49.166 -0.5 71.499 -1.5s42.833 -3.16699 61.5 -6.5l45 -313c-12 2 -24.5 3.5 -37.5 4.5s-24.5 1.5 -34.5 1.5c-36 0 -63.667 -9.66699 -83 -29s-29 -42.333 -29 -69v-21h157v-315
h-157v-725l-398 -32v757h-126zM1165 16l-397 -32v1056l397 33v-1057zM958.001 1576l256 -231l-240 -215l-256 215z" />
    <glyph glyph-name="uniF002" unicode="&#xf002;" horiz-adv-x="1253" 
d="M55 1056h67.001v33c0 122.667 38.333 220.167 115 292.5s173 108.5 289 108.5c25.333 0 49.166 -0.5 71.499 -1.5s42.833 -3.16699 61.5 -6.5l45 -313c-12 2 -24.5 3.5 -37.5 4.5s-24.5 1.5 -34.5 1.5c-36 0 -63.667 -9.66699 -83 -29s-29 -42.333 -29 -69v-21h157v-315
h-157v-725l-398 -32v757h-126zM1165 16l-397 -32v1474l397 32v-1474z" />
    <glyph glyph-name="glyph1" horiz-adv-x="0" 
 />
    <glyph glyph-name="glyph2" horiz-adv-x="796" 
 />
    <glyph glyph-name="sterling" horiz-adv-x="1185" 
d="M0 0v358.001h139v246h-92l34 315h58c-4.66699 159.333 39.666 285.5 132.999 378.5s210.666 139.5 351.999 139.5c121.333 0 224.5 -31.5 309.5 -94.5s143.833 -148.167 176.5 -255.5l-367 -98c-3.33301 31.333 -14.5 56.5 -33.5 75.5s-43.5 28.5 -73.5 28.5
c-35.333 0 -60.833 -16.333 -76.5 -49s-20.834 -74.334 -15.501 -125.001h160v-315h-160v-246h58c64.667 0 116.834 25.333 156.501 76s57.834 117.334 54.501 200.001l372 -61c8.66699 -178.667 -41.666 -318.834 -150.999 -420.501s-248 -152.5 -416 -152.5h-618z" />
    <glyph glyph-name="NotEqual" 
d="M86 886h655l141 224l148 -89l-84 -135h196v-250h-356l-137 -217h493v-250h-651l-145 -230l-150 95l86 135h-196v250h356l139 217h-495v250z" />
    <glyph glyph-name="glyph144" horiz-adv-x="708" 
d="M575 1931l92 -185l-520 -233l-74 133z" />
    <glyph glyph-name="glyph147" horiz-adv-x="516" 
d="M561 1689l90 -182l-506 -232l-72 134z" />
    <glyph glyph-name="infinity" horiz-adv-x="1773" 
d="M886 829l117 90c49.333 38 109.333 71.333 180 100s134.334 43 191.001 43c102.667 0 188 -40.167 256 -120.5s102 -192.166 102 -335.499s-34 -255.333 -102 -336s-153.333 -121 -256 -121c-56.667 0 -120.334 14.5 -191.001 43.5s-130.667 62.167 -180 99.5l-117 90
l-116 -90c-49.333 -37.333 -109.333 -70.5 -180 -99.5s-134.334 -43.5 -191.001 -43.5c-102.667 0 -188.167 40.333 -256.5 121s-102.5 192.667 -102.5 336s34.167 255.166 102.5 335.499s153.833 120.5 256.5 120.5c56.667 0 120.334 -14.333 191.001 -43
s130.667 -62 180 -100zM1007 614l86.002 -64c48 -35.333 86 -59.833 114 -73.5s54.333 -20.5 79 -20.5c39.333 0 73 14.167 101 42.5s42 66.833 42 115.5c0 46.667 -14 84.667 -42 114s-61.667 44 -101 44c-20.667 0 -40.834 -4 -60.501 -12s-61.834 -35 -126.501 -81z
M765.002 614l-91.999 65c-64.667 46 -106.834 73 -126.501 81s-39.5 12 -59.5 12c-39.333 0 -73 -14.667 -101 -44s-42 -67.333 -42 -114c0 -48.667 13.833 -87.167 41.5 -115.5s61.5 -42.5 101.5 -42.5c24.667 0 51 6.83301 79 20.5s65.667 38.167 113 73.5z" />
    <glyph glyph-name="lessequal" horiz-adv-x="1271" 
d="M178 370l1007 -437l-92 -203l-1007 437zM434 692l729 -299v-236l-1057 438v193l1057 438v-235z" />
    <glyph glyph-name="greaterequal" horiz-adv-x="1271" 
d="M1093 370l92 -203l-1007 -437l-92 203zM837 692l-729 299v235l1057 -438v-193l-1057 -438v236z" />
    <glyph glyph-name="glyph158" horiz-adv-x="970" 
d="M61 1683l192 170l193 -170l-193 -170zM524 1683l192 170l193 -170l-193 -170z" />
    <glyph glyph-name="glyph160" horiz-adv-x="573" 
d="M485 16l-397 -32v1056l397 33v-1057z" />
    <glyph glyph-name="glyph161" horiz-adv-x="577" 
d="M-94 1449l173 175l174 -175l-174 -174zM325 1449l174 175l174 -175l-174 -174z" />
    <glyph glyph-name="radical" horiz-adv-x="1660" 
d="M503 1028l236 -498l391 1077h442v-297h-215l-643 -1520l-518 941h-196l47 297h456z" />
    <glyph glyph-name="florin" horiz-adv-x="1097" 
d="M10 -356l65.002 346c17.333 -8 35.666 -14.333 54.999 -19s37.333 -7 54 -7c40.667 0 71.667 12.5 93 37.5s35.333 66.5 42 124.5l49 447h-231v315h266l12 119c16 156 64.333 275.5 145 358.5s180.667 124.5 300 124.5c39.333 0 78.666 -4 117.999 -12s75 -19 107 -33
l-64 -354l-16 6c-27.333 10 -49.666 17.333 -66.999 22s-32 7 -44 7c-30.667 0 -56.5 -10.167 -77.5 -30.5s-33.167 -49.833 -36.5 -88.5l-10 -119h237v-315h-272l-56 -500c-17.333 -159.333 -64 -278.166 -140 -356.499s-179.333 -117.5 -310 -117.5
c-36 0 -69.833 3.16699 -101.5 9.5s-70.834 18.166 -117.501 35.499z" />
    <glyph glyph-name="approxequal" 
d="M215 593l-74.002 195.001c30 58 66.333 101.833 109 131.5s91.667 44.5 147 44.5c29.333 0 65.166 -6.66699 107.499 -20s118.5 -43.333 228.5 -90c28 -12.667 48.833 -20.667 62.5 -24s26.167 -5 37.5 -5c28.667 0 56.834 10 84.501 30s54.834 51 81.501 93l14 22
l74 -192c-35.333 -55.333 -74.333 -98.5 -117 -129.5s-89 -46.5 -139 -46.5c-22 0 -45.5 2.66699 -70.5 8s-48.5 12.666 -70.5 21.999c-155.333 66.667 -241.166 101.5 -257.499 104.5s-31.5 4.5 -45.5 4.5c-41.333 0 -76.5 -13.333 -105.5 -40s-51.167 -62.667 -66.5 -108z
M214.998 163.001l-74.002 195c30 58 66.333 101.833 109 131.5s91.667 44.5 147 44.5c29.333 0 65.166 -6.66699 107.499 -20s118.5 -43.666 228.5 -90.999c28 -12 48.833 -19.667 62.5 -23s26.167 -5 37.5 -5c28.667 0 56.834 10 84.501 30s54.834 51 81.501 93l14 22
l74 -192c-35.333 -56 -74.333 -99.333 -117 -130s-89 -46 -139 -46c-22 0 -45.5 2.66699 -70.5 8s-48.5 12.666 -70.5 21.999c-155.333 66.667 -241.166 101.5 -257.499 104.5s-31.5 4.5 -45.5 4.5c-41.333 0 -76.5 -13.333 -105.5 -40s-51.167 -62.667 -66.5 -108z" />
    <glyph glyph-name="Delta" horiz-adv-x="1234" 
d="M337 1404h557l371 -1404h-1295zM491 380h240l-117 570h-8z" />
    <glyph glyph-name="divide" 
d="M1142 403h-1056v250h1056v-250zM421 956c0 55.333 18.667 101.166 56 137.499s83 54.5 137 54.5s99.5 -18.167 136.5 -54.5s55.5 -82.166 55.5 -137.499s-18.5 -101.333 -55.5 -138s-82.5 -55 -136.5 -55s-99.667 18.333 -137 55s-56 82.667 -56 138zM421 100
c0 55.333 18.667 101.166 56 137.499s83 54.5 137 54.5s99.5 -18.167 136.5 -54.5s55.5 -82.166 55.5 -137.499s-18.5 -101.166 -55.5 -137.499s-82.5 -54.5 -136.5 -54.5s-99.667 18.167 -137 54.5s-56 82.166 -56 137.499z" />
    <glyph glyph-name="glyph191" horiz-adv-x="925" 
d="M677 1826l186.998 -32c-24 -87.333 -71.667 -156 -143 -206s-157.666 -75 -258.999 -75c-100.667 0 -186.667 25 -258 75s-119 118.667 -143 206l186 32c14.667 -45.333 40.5 -78.833 77.5 -100.5s82.833 -32.5 137.5 -32.5c55.333 0 101.333 10.833 138 32.5
s62.334 55.167 77.001 100.5z" />
    <glyph glyph-name="glyph194" horiz-adv-x="628" 
d="M530 1589l186 -33c-24 -87.333 -71.667 -156 -143 -206s-157.333 -75 -258 -75s-186.5 25 -257.5 75s-118.833 118.667 -143.5 206l186 33c14.667 -46 40.5 -79.667 77.5 -101s82.833 -32 137.5 -32s100.5 10.667 137.5 32s62.833 55 77.5 101z" />
    </font>
</defs>
</svg>
