<?xml version="1.0" standalone="no"?>
<!DOCTYPE svg PUBLIC "-//W3C//DTD SVG 1.1//EN" "http://www.w3.org/Graphics/SVG/1.1/DTD/svg11.dtd" >
<svg>
<metadata>
Created by FontForge 20090914 at Thu Mar 28 00:22:17 2013
 By www-data
Copyright (C) 1993; Type Market Ltd. Moscow, 119136, Box 20; phone:(095)1427712; Created by A.Kustov
</metadata>
<defs>
<font id="EuropeExt-Italic" horiz-adv-x="716" >
  <font-face 
    font-family="EuropeExt"
    font-weight="400"
    font-style="italic"
    font-stretch="normal"
    units-per-em="1000"
    panose-1="0 0 0 0 0 0 0 0 0 0"
    ascent="800"
    descent="-200"
    x-height="494"
    cap-height="694"
    bbox="-77 -212 1605.99 885.001"
    underline-thickness="50"
    underline-position="-105"
    unicode-range="U+0020-U+2122"
  />
<missing-glyph horiz-adv-x="788" 
d="M49 0v788h690v-788h-690zM690 49v690h-592v-690h592z" />
    <glyph glyph-name=".notdef" horiz-adv-x="788" 
d="M49 0v788h690v-788h-690zM690 49v690h-592v-690h592z" />
    <glyph glyph-name="space" unicode=" " horiz-adv-x="318" 
 />
    <glyph glyph-name="exclam" unicode="!" horiz-adv-x="196" 
d="M108 168h-78l93 526h78zM1 0l14 78h78l-14 -78h-78z" />
    <glyph glyph-name="quotedbl" unicode="&#x22;" horiz-adv-x="338" 
d="M221 708h56l-42 -172h-32zM87 708h56l-40 -172h-34z" />
    <glyph glyph-name="numbersign" unicode="#" horiz-adv-x="640" 
d="M299 607h56l-57 -130h148l57 130h54l-55 -130h130l-24 -56h-132l-51 -124h130l-24 -56h-130l-58 -136h-54l58 136h-148l-58 -136h-54l58 136h-136l22 56h138l51 124h-136l26 56h134zM421 421h-150l-51 -124h148z" />
    <glyph glyph-name="dollar" unicode="$" horiz-adv-x="902" 
d="M464 628l-173 -0.000976562c-40 0 -72.667 -11.667 -98 -35c-30 -27.333 -45 -68 -45 -122c0 -27.333 9 -47.666 27 -60.999s42.667 -20 74 -20h173zM437 69.999h164c56 0 97 17.333 123 52c23.333 30.667 35 73 35 127c0 26 -8 44.333 -24 55s-46 16 -90 16h-164z
M409 319.999h-160c-64 0 -109.333 10.5 -136 31.5s-40 52.5 -40 94.5c0 73.333 21.333 133 64 179c45.333 48.667 106.333 73 183 73h156l11 62h72l-11 -62h128c73.333 0 126.5 -11.333 159.5 -34s49.5 -59 49.5 -109c0 -14 -1.66699 -31 -5 -51h-72l3 33
c0 30.667 -10.667 53 -32 67c-24 16 -63.333 24 -118 24h-125l-42 -238h151c67.333 0 115.333 -10 144 -30s43 -52.667 43 -98c0 -71.333 -15.333 -129 -46 -173c-41.333 -59.333 -108.666 -89 -201.999 -89h-159l-16 -90h-72l16 90h-153c-57.333 0 -101.5 12 -132.5 36
s-46.5 61 -46.5 111v28c2 8.66699 3.33301 15 4 19h74l-3 -34c0 -30 8.66699 -52.5 26 -67.5s45.666 -22.5 84.999 -22.5h158z" />
    <glyph glyph-name="percent" unicode="%" horiz-adv-x="1150" 
d="M487 536c2.66699 12.667 3.99902 25.002 3.99902 37.002c0 22 -6.16699 37.333 -18.5 46s-33.833 13 -64.5 13h-148c-40 0 -67.667 -6.33301 -83 -19s-26.666 -38.334 -33.999 -77.001l-20 -116l-3 -32c0 -23.333 6.5 -39.833 19.5 -49.5s35.167 -14.5 66.5 -14.5h148
c35.333 0 61.5 7.16699 78.5 21.5s28.5 39.166 34.5 74.499zM527.999 414.002c-9.33301 -53.333 -28.001 -91.668 -56.001 -115.001s-69 -35 -123 -35h-162c-47.333 0 -81.166 7.5 -101.499 22.5s-30.5 40.5 -30.5 76.5c0 12.667 1.66699 29.667 5 51l22 128
c10 56.667 28.167 95.834 54.5 117.501s68.833 32.5 127.5 32.5h161c44.667 0 77.5 -7.33301 98.5 -22s31.5 -40.667 31.5 -78c0 -8.66699 -0.666992 -17.667 -2 -27s-2.33301 -17 -3 -23zM778.998 728l-340 -762h-58l338 762h60zM1037 272
c2.66699 12.667 3.99902 25.002 3.99902 37.002c0 22 -6.16699 37.333 -18.5 46s-33.833 13 -64.5 13h-148c-40 0 -67.667 -6.33301 -83 -19s-26.666 -38.334 -33.999 -77.001l-20 -116l-3 -32c0 -23.333 6.5 -39.833 19.5 -49.5s35.167 -14.5 66.5 -14.5h148
c35.333 0 61.5 7.16699 78.5 21.5s28.5 39.166 34.5 74.499zM1078 150.002c-9.33301 -53.333 -28.001 -91.668 -56.001 -115.001s-69 -35 -123 -35h-162c-47.333 0 -81.166 7.5 -101.499 22.5s-30.5 40.5 -30.5 76.5c0 12.667 1.66699 29.667 5 51l22 128
c10 56.667 28.167 95.834 54.5 117.501s68.833 32.5 127.5 32.5h161c44.667 0 77.5 -7.33301 98.5 -22s31.5 -40.667 31.5 -78c0 -8.66699 -0.666992 -17.667 -2 -27s-2.33301 -17 -3 -23z" />
    <glyph glyph-name="ampersand" unicode="&#x26;" horiz-adv-x="988" 
d="M741 44c-14 -10 -26.998 -17.3398 -38.998 -22.0068c-37.333 -14.667 -83.333 -22 -138 -22h-330c-62.667 0 -112 14.667 -148 44c-39.333 32 -59 78.667 -59 140c0 82 25 146 75 192c35.333 32.667 74 51.334 116 56.001c-4.66699 2.66699 -9.16699 8.5 -13.5 17.5
s-6.5 20.833 -6.5 35.5c0 72 28 126 84 162c48.667 31.333 112.667 47 192 47h214c76 0 130.333 -18 163 -54c24 -26.667 36 -60.667 36 -102c0 -9.33301 -0.5 -18.166 -1.5 -26.499s-1.83301 -14.166 -2.5 -17.499h-72l2 27c0 34.667 -12 60.167 -36 76.5
s-59.333 24.5 -106 24.5h-220c-56 0 -100 -11 -132 -33s-48 -50.667 -48 -86c0 -16.667 2.16699 -29.167 6.5 -37.5s15.166 -18.166 32.499 -29.499l444 -296c21.333 18.667 37.333 34.334 48 47.001c34 38.667 53.667 74.334 59 107.001h72
c-6.66699 -39.333 -22.334 -76.666 -47.001 -111.999c-16.667 -24 -41.667 -52 -75 -84l61 -40l-56 -66zM265.002 369.993c-34 0 -65.667 -9.66699 -95 -29c-46.667 -30.667 -70 -79.334 -70 -146.001c0 -39.333 11 -69.666 33 -90.999s56.333 -32 103 -32h348
c21.333 0 42.666 3.33301 63.999 10c6.66699 2 15.334 5.33301 26.001 10z" />
    <glyph glyph-name="quotesingle" unicode="'" horiz-adv-x="208" 
d="M87 708h56l-40 -172h-34z" />
    <glyph glyph-name="parenleft" unicode="(" horiz-adv-x="316" 
d="M365 755l-14.001 -77.999c-117.333 0 -186 -57.667 -206 -173l-66 -372c-4 -23.333 -6 -43.666 -6 -60.999c0 -42.667 12.667 -72.334 38 -89.001c22.667 -14.667 60.667 -22 114 -22l-14 -77c-71.333 0 -124.666 13.667 -159.999 41c-38 29.333 -57 75.333 -57 138
c0 8 0.166992 16.667 0.5 26s2.5 24.666 6.5 45.999l66 370c14 80 48 141.833 102 185.5s119.333 65.5 196 65.5z" />
    <glyph glyph-name="parenright" unicode=")" horiz-adv-x="316" 
d="M91 677l13.999 78.002c65.333 0 117.166 -16.667 155.499 -50s57.5 -81 57.5 -143c0 -8.66699 -0.333008 -18 -1 -28s-2 -20 -4 -30l-66 -370c-15.333 -88.667 -48.666 -153.334 -99.999 -194.001c-47.333 -38 -112.666 -57 -195.999 -57l14 77c63.333 0 109 11 137 33
c32.667 25.333 55 71.666 67 138.999l66 372c3.33301 18.667 5 34.667 5 48c0 83.333 -49.667 125 -149 125z" />
    <glyph glyph-name="asterisk" unicode="*" horiz-adv-x="348" 
d="M188 548c10.667 -2.66699 19.333 -4.66992 26 -6.00293c20.667 -4.66699 38.667 -8.33398 54 -11.001s25.333 -7.83398 30 -15.501s6 -16.167 4 -25.5c-1.33301 -9.33301 -5.66602 -17.666 -12.999 -24.999s-15.666 -11 -24.999 -11c-12.667 0 -23.667 6.66699 -33 20
l-50 66l7 -82c2 -7.33301 2.66699 -15.333 2 -24c-2 -12 -7.33301 -21.667 -16 -29s-17.667 -11 -27 -11c-8.66699 0 -15.834 3.5 -21.501 10.5s-7.5 16.167 -5.5 27.5l7 20l42 84l-72 -66c-14.667 -13.333 -28 -20 -40 -20c-9.33301 0 -17 3.83301 -23 11.5
s-8.33301 15.834 -7 24.501c1.33301 7.33301 6.16602 14.5 14.499 21.5s19.166 12.5 32.499 16.5c22 6.66699 39.833 11.667 53.5 15l37.5 9l-83 18c-12.667 2.66699 -22 7.33398 -28 14.001s-8 14 -6 22c1.33301 8.66699 6.16602 16.834 14.499 24.501
s16.833 11.5 25.5 11.5c12 0 23 -6 33 -18l35 -44c4 -5.33301 10 -12 18 -20l-13 86c-0.666992 5.33301 -1 10.666 -1 15.999c2 11.333 7.5 20.833 16.5 28.5s17.833 11.5 26.5 11.5s15.834 -3.5 21.501 -10.5s7.5 -16.167 5.5 -27.5l-5 -18
c-7.33301 -17.333 -16.666 -37.333 -27.999 -60l-13 -26l21 21c20.667 20.667 37 36.334 49 47.001c6 5.33301 12.333 9.33301 19 12s12.667 4 18 4c8.66699 0 16 -3.66699 22 -11s8.66699 -15 8 -23c-2 -8.66699 -6.5 -16.167 -13.5 -22.5s-17.5 -11 -31.5 -14
s-34.333 -7.83301 -61 -14.5c-6.66699 -1.33301 -15.667 -3.66602 -27 -6.99902z" />
    <glyph glyph-name="plus" unicode="+" horiz-adv-x="468" 
d="M60 326h144l25 144h66l-25 -144h146l-12 -66h-146l-25 -146h-66l25 146h-144z" />
    <glyph glyph-name="comma" unicode="," horiz-adv-x="186" 
d="M62 0l14 77.998h78l-23 -130c-2 -12 -6.33301 -22.667 -13 -32s-14.667 -16.666 -24 -21.999h-38c10.667 6.66699 19 14.334 25 23.001s10 19 12 31l9 52h-40z" />
    <glyph glyph-name="hyphen" unicode="-" horiz-adv-x="434" 
d="M61 326h318l-13 -66h-318z" />
    <glyph glyph-name="period" unicode="." horiz-adv-x="186" 
d="M53 0l14 78h78l-14 -78h-78z" />
    <glyph glyph-name="slash" unicode="/" horiz-adv-x="316" 
d="M380 728l-366 -818h-78l366 818h78z" />
    <glyph glyph-name="zero" unicode="0" horiz-adv-x="912" 
d="M811 460c0.666992 4.66699 1.99902 14.499 3.99902 29.499s3 27.833 3 38.5c0 40 -11.667 67.333 -35 82s-63.333 22 -120 22h-304c-67.333 0 -117.166 -12.167 -149.499 -36.5s-54.5 -69.5 -66.5 -135.5l-39 -222c-4 -22 -6 -41.667 -6 -59
c0 -41.333 12.333 -69.833 37 -85.5s66 -23.5 124 -23.5h304c74.667 0 125.167 10.833 151.5 32.5s45.5 66.834 57.5 135.501zM843.999 237.999c-16.667 -96 -46.6689 -160.335 -90.002 -193.002c-39.333 -30 -106.666 -45 -201.999 -45h-304
c-80 0 -137.333 11.833 -172 35.5s-52 64.834 -52 123.501c0 20.667 2.66699 47 8 79l38 216c16.667 90.667 46.834 154.667 90.501 192s114.167 56 211.5 56h304c74.667 0 128 -10.667 160 -32c36.667 -24 55 -66.667 55 -128c0 -25.333 -3 -54.666 -9 -87.999z" />
    <glyph glyph-name="one" unicode="1" horiz-adv-x="671" 
d="M349 0h-78l109 622l-220 -184l-41 48l242 208h110z" />
    <glyph glyph-name="two" unicode="2" horiz-adv-x="868" 
d="M760 70l-12 -70h-756l23 130c11.333 63.333 40.333 112 87 146c49.333 36 117.333 54 204 54h250c67.333 0 115.666 10 144.999 30s48.666 56 57.999 108c4 24 6 44.667 6 62c0 36.667 -11.667 62.834 -35 78.501s-63.666 23.5 -120.999 23.5h-250
c-64.667 0 -112 -10.667 -142 -32c-26.667 -19.333 -43.667 -50 -51 -92h-78c22 129.333 116.667 194 284 194h250c80 0 136.333 -10.833 169 -32.5s49 -59.834 49 -114.501c0 -24.667 -3 -53.667 -9 -87c-14 -76.667 -39.333 -129.667 -76 -159
c-41.333 -32.667 -112 -49 -212 -49h-250c-65.333 0 -115.666 -13 -150.999 -39c-30 -22 -48.333 -52.333 -55 -91l-11 -60h684z" />
    <glyph glyph-name="three" unicode="3" horiz-adv-x="868" 
d="M357 324l12 69.999h215c56 0 97.667 8.66699 125 26c34.667 22 52 59.333 52 112c0 29.333 -11.333 52 -34 68s-57 24 -103 24h-267c-50.667 0 -92.334 -11 -125.001 -33s-52.667 -54.333 -60 -97h-74c12 65.333 40.667 115 86 149s107 51 185 51h252
c64.667 0 114.334 -8.66699 149.001 -26c44 -22 66 -58.333 66 -109c0 -57.333 -15.667 -105.333 -47 -144c-26 -31.333 -53.333 -49 -82 -53c22.667 -5.33301 40 -15 52 -29c15.333 -18 23 -44.333 23 -79c0 -92 -29.667 -159.333 -89 -202
c-48 -34.667 -112.667 -52 -194 -52h-251c-138.667 0 -208 49 -208 147c0 12.667 1.66699 29 5 49h72l-2 -22c0 -36.667 13.333 -63.667 40 -81c24 -15.333 59 -23 105 -23h267c62 0 107.833 13.5 137.5 40.5s44.5 72.5 44.5 136.5c0 32.667 -11.667 54.334 -35 65.001
c-18 8 -52 12 -102 12h-215z" />
    <glyph glyph-name="four" unicode="4" horiz-adv-x="868" 
d="M779 694l-83 -474h93l-13 -70h-93l-26 -150h-72l26 150h-580l13 72l657 472h78zM624 220l69 392l-544 -392h475z" />
    <glyph glyph-name="five" unicode="5" horiz-adv-x="868" 
d="M123 694h729l-12 -70h-657l-40 -225c10 12.667 23.333 23.667 40 33c22.667 12.667 46 19 70 19h314c78 0 135 -13 171 -39s54 -67 54 -123c0 -99.333 -25.333 -172.333 -76 -219s-126 -70 -226 -70h-249c-148 -0 -222 50.333 -222 151v17c0 6 1.33301 15.333 4 28h72
l-3 -30c0 -32.667 12.333 -56.834 37 -72.501s66 -23.5 124 -23.5h247c78 0 133.833 15.833 167.5 47.5s50.5 81.834 50.5 150.501c0 38.667 -12.5 67.167 -37.5 85.5s-66.833 27.5 -125.5 27.5h-306c-33.333 0 -58.333 -4.16699 -75 -12.5s-31.667 -24.5 -45 -48.5h-72z
" />
    <glyph glyph-name="six" unicode="6" horiz-adv-x="868" 
d="M838 504l-72.002 -0.000976562l2 25c0 33.333 -11.333 58.333 -34 75c-25.333 18.667 -67 28 -125 28h-250c-64.667 0 -112.5 -11 -143.5 -33s-50.5 -55.667 -58.5 -101l-29 -161c16 18.667 34.333 33.334 55 44.001c34.667 17.333 78 26 130 26h256
c80.667 0 138.834 -10.667 174.501 -32s53.5 -55.666 53.5 -102.999c0 -92.667 -23.667 -162 -71 -208c-50.667 -49.333 -129 -74 -235 -74h-241c-77.333 0 -134 13 -170 39s-54 64 -54 114v28c2 8.66699 3.33301 15 4 19l55 308c12 69.333 40.833 120.666 86.5 153.999
s112.834 50 201.501 50h248c147.333 0 221 -51.333 221 -154v-26c-2 -8 -3.33301 -14 -4 -18zM555.998 336.999l-243.999 -0.000976562c-76 0 -129.333 -11.667 -160 -35c-22.667 -17.333 -38.334 -49 -47.001 -95c-2.66699 -13.333 -4 -27.666 -4 -42.999
c0 -32.667 10 -57 30 -73c25.333 -20.667 68 -31 128 -31h250c84 0 142 17.333 174 52c24.667 26.667 37 69.334 37 128.001c0 31.333 -11 54.666 -33 69.999c-26 18 -69.667 27 -131 27z" />
    <glyph glyph-name="seven" unicode="7" horiz-adv-x="868" 
d="M83 694h827l-12 -67l-735 -627h-101l733 624h-724z" />
    <glyph glyph-name="eight" unicode="8" horiz-adv-x="868" 
d="M310 322c-72.667 0 -126.332 -15.334 -160.999 -46.001c-30.667 -27.333 -46 -65.666 -46 -114.999c0 -33.333 12.333 -58.5 37 -75.5s66 -25.5 124 -25.5h255c75.333 0 129.666 16 162.999 48c28.667 27.333 43 68.333 43 123c0 31.333 -11.667 54.333 -35 69
s-65 22 -125 22h-255zM364.002 631.999c-69.333 0 -119.333 -14.334 -150 -43.001c-27.333 -26 -41 -64.667 -41 -116c0 -27.333 11 -47.666 33 -60.999s60.667 -20 116 -20h255c71.333 0 120.833 11.333 148.5 34s41.5 59.667 41.5 111c0 32 -11.667 55.833 -35 71.5
s-61 23.5 -113 23.5h-255zM633.002 701.998c74.667 0 128 -11.332 160 -33.999s48 -59.334 48 -110.001c0 -122 -50.333 -189.333 -151 -202c70.667 -14 106 -56.333 106 -127c0 -76 -25.667 -134.833 -77 -176.5s-122 -62.5 -212 -62.5h-256
c-147.333 0 -221 50.667 -221 152c0 64 18 115.667 54 155c30.667 33.333 68.667 53 114 59c-32.667 4 -56.667 13.333 -72 28c-18 16.667 -27 42 -27 76c0 80.667 23.833 141.167 71.5 181.5s116.5 60.5 206.5 60.5h256z" />
    <glyph glyph-name="nine" unicode="9" horiz-adv-x="868" 
d="M34 188h72.999l-2 -23c0 -32.667 11.833 -56.667 35.5 -72s65.167 -23 124.5 -23h249c67.333 0 115.833 9.66699 145.5 29s48.167 51 55.5 95l29 161c-16 -18.667 -34.333 -33.334 -55 -44.001c-34.667 -17.333 -78 -26 -130 -26h-256c-80.667 0 -139 11 -175 33
s-54 56.667 -54 104c0 14 1.33301 28 4 42l6 32c14 70.667 43.833 122.667 89.5 156s114.834 50 207.501 50h241c77.333 0 134 -13 170 -39s54 -64 54 -114v-28c-2 -8.66699 -3.33301 -15 -4 -19l-55 -308c-12 -68.667 -40.167 -118.167 -84.5 -148.5
s-111.5 -45.5 -201.5 -45.5h-247c-76 0 -132.333 11.333 -169 34s-55 59.334 -55 110.001v26c2 8 3.33301 14 4 18zM609.999 632l-245 -0.000976562c-73.333 0 -126.333 -12.667 -159 -38c-26 -20 -42.667 -52.333 -50 -97c-4.66699 -24 -7 -41 -7 -51
c0 -29.333 12.5 -51.833 37.5 -67.5s67.833 -23.5 128.5 -23.5h250c78 0 133.667 17.333 167 52c27.333 28.667 41 70.334 41 125.001c0 33.333 -12.833 58.333 -38.5 75s-67.167 25 -124.5 25z" />
    <glyph glyph-name="colon" unicode=":" horiz-adv-x="186" 
d="M85 364l14 78h78l-14 -78h-78zM21 0l14 78h78l-14 -78h-78z" />
    <glyph glyph-name="semicolon" unicode=";" horiz-adv-x="186" 
d="M95 364l14 78h78l-14 -78h-78zM30 0l14 77.998h78l-23 -130c-2 -12 -6.33301 -22.667 -13 -32s-14.667 -16.666 -24 -21.999h-38c10.667 6.66699 19 14.334 25 23.001s10 19 12 31l9 52h-40z" />
    <glyph glyph-name="less" unicode="&#x3c;" horiz-adv-x="370" 
d="M31 306l321 194l-14 -78l-191 -116l151 -112l-14 -76z" />
    <glyph glyph-name="equal" unicode="=" horiz-adv-x="434" 
d="M46 244h318l-11 -66h-318zM74 404h318l-11 -66h-318z" />
    <glyph glyph-name="greater" unicode="&#x3e;" horiz-adv-x="370" 
d="M337 306l-319 -188l14 76l189 112l-149 116l14 78z" />
    <glyph glyph-name="question" unicode="?" horiz-adv-x="880" 
d="M272 0l14 78h78l-14 -78h-78zM380 168h-78l12 68c8.66699 52 30.167 90.333 64.5 115s81.166 37 140.499 37c90 0 152.333 8.33301 187 25c47.333 22.667 71 67 71 133c0 32 -11.5 54.333 -34.5 67s-64.167 19 -123.5 19h-273c-64.667 0 -112.667 -11.333 -144 -34
c-27.333 -20 -44.666 -51.333 -51.999 -94h-79c12 66 41.833 115.5 89.5 148.5s111.5 49.5 191.5 49.5h278c80.667 0 138.5 -11.333 173.5 -34s52.5 -59 52.5 -109c0 -92.667 -30.667 -157.334 -92 -194.001c-52.667 -31.333 -138.667 -47 -258 -47
c-36.667 0 -63.667 -7.16699 -81 -21.5s-29 -37.166 -35 -68.499z" />
    <glyph glyph-name="at" unicode="@" horiz-adv-x="652" 
d="M335 530c-38 0 -69.834 -14.166 -95.501 -42.499s-38.5 -59.5 -38.5 -93.5c0 -22.667 6.66699 -41.334 20 -56.001s33 -22 59 -22c38.667 0 70.334 14.667 95.001 44c22.667 26.667 34 56.667 34 90c0 23.333 -6 42.5 -18 57.5s-30.667 22.5 -56 22.5zM371.999 678.001
c-88.667 0 -161.997 -31.666 -219.997 -94.999c-53.333 -58 -80 -124.667 -80 -200c0 -56.667 17 -103 51 -139c38 -40 91.667 -60 161 -60c32.667 0 66.167 5.66699 100.5 17s59.166 25 74.499 41l17 -28c-16 -16 -43.5 -30.667 -82.5 -44s-78.833 -20 -119.5 -20
c-78 0 -139 23 -183 69c-39.333 41.333 -59 94 -59 158c0 84 31.333 159.333 94 226c68 72.667 152 109 252 109c60.667 0 113 -16.333 157 -49c54.667 -40.667 82 -98 82 -172c0 -52 -10 -96.667 -30 -134c-26.667 -50 -67 -75 -121 -75
c-24.667 0 -41.334 8.33301 -50.001 25c-5.33301 10 -8 24.667 -8 44c-10 -21.333 -27.5 -38.166 -52.5 -50.499s-52.833 -18.5 -83.5 -18.5c-35.333 0 -62.333 10 -81 30s-28 44.667 -28 74c0 43.333 16 82.666 48 117.999c36 40 80 60 132 60
c39.333 0 67.666 -12.333 84.999 -37l16 -39l24 70h32l-49 -163l-9 -37c0 -13.333 1.83301 -23.666 5.5 -30.999s12.5 -11 26.5 -11c35.333 0 63.333 20 84 60c17.333 33.333 26 69.666 26 108.999c0 61.333 -22 109.666 -66 144.999c-40 32 -88.667 48 -146 48z" />
    <glyph glyph-name="A" unicode="A" horiz-adv-x="846" 
d="M27 0h-80l482 694h110l238 -694h-84l-59 174h-488zM198 244h412l-136 400z" />
    <glyph glyph-name="B" unicode="B" horiz-adv-x="890" 
d="M183 624l-40 -226h472c54 0 93.667 9.33301 119 28c30 22 45 59.667 45 113c0 28.667 -9.66699 50 -29 64s-51 21 -95 21h-472zM1 0l122 694h516c143.333 0 215 -46 215 -138c0 -54 -15 -100.333 -45 -139c-24.667 -31.333 -49 -48.333 -73 -51
c12 -2.66699 23.333 -7.66699 34 -15c32.667 -23.333 49 -58.666 49 -105.999c0 -86.667 -27 -150.334 -81 -191.001c-47.333 -36 -115 -54 -203 -54h-534zM131 328l-46 -258h490c52.667 0 93.667 13 123 39c32 28 48 70.333 48 127c0 32.667 -11 56.167 -33 70.5
s-54.667 21.5 -98 21.5h-484z" />
    <glyph glyph-name="C" unicode="C" horiz-adv-x="912" 
d="M755 198h71.998c-12 -67.333 -40.333 -117.166 -85 -149.499s-112 -48.5 -202 -48.5h-304c-78 0 -134.167 12.833 -168.5 38.5s-51.5 68.167 -51.5 127.5c0 21.333 2.66699 48.666 8 81.999l35 200c16.667 92 47.834 157.333 93.501 196s114.834 58 207.501 58h304
c147.333 0 221 -50.333 221 -151v-28c-2 -8.66699 -3.33301 -15 -4 -19h-72l3 31c0 32 -11.333 55.667 -34 71c-25.333 17.333 -67 26 -125 26h-304c-70.667 0 -121.5 -12.833 -152.5 -38.5s-52.833 -74.167 -65.5 -145.5l-35 -200c-2 -13.333 -3.66699 -25.333 -5 -36
s-2 -20.667 -2 -30c0 -42 12.167 -71.167 36.5 -87.5s65.5 -24.5 123.5 -24.5h304c65.333 0 113.5 10.167 144.5 30.5s50.167 52.833 57.5 97.5z" />
    <glyph glyph-name="D" unicode="D" horiz-adv-x="902" 
d="M91 70l470 0.000976562c69.333 0 118 14.333 146 43c24 24.667 42.333 73 55 145l33 184c5.33301 32 8 57.667 8 77c0 39.333 -10.667 66.666 -32 81.999s-59 23 -113 23h-469zM129 694.001l536 -0.000976562c77.333 0 132 -11.167 164 -33.5s48 -62.833 48 -121.5
c0 -23.333 -3.33301 -55.666 -10 -96.999l-33 -184c-16 -92.667 -44.333 -158 -85 -196c-44 -41.333 -112.667 -62 -206 -62h-536z" />
    <glyph glyph-name="E" unicode="E" horiz-adv-x="738" 
d="M-1 0l122 694h615l-12 -70h-543l-41 -230h529l-12 -70h-529l-45 -254h543l-12 -70h-615z" />
    <glyph glyph-name="F" unicode="F" horiz-adv-x="738" 
d="M-1 0l122 694h615l-12 -70h-543l-41 -230h529l-12 -70h-529l-57 -324h-72z" />
    <glyph glyph-name="G" unicode="G" horiz-adv-x="902" 
d="M441 330l415.997 -0.000976562l-9 -54c-19.333 -108 -49.333 -181 -90 -219s-110.667 -57 -210 -57h-306c-80 0 -137 12.333 -171 37s-51 65.334 -51 122.001c0 22 2.66699 48.333 8 79l37 210c16.667 92 47.834 157.333 93.501 196s114.834 58 207.501 58h306
c146.667 0 220 -51.333 220 -154v-26c-2 -8 -3.33301 -14 -4 -18h-75l3 31c0 32 -11.333 55.667 -34 71c-25.333 17.333 -66.333 26 -123 26h-306c-71.333 0 -122 -13 -152 -39s-51.333 -74.333 -64 -145l-37 -210c-4 -23.333 -6 -43.333 -6 -60
c0 -40.667 12 -68.834 36 -84.501s65 -23.5 123 -23.5h306c68.667 0 116.334 10 143.001 30c30.667 22.667 52 68.334 64 137.001l4 23h-341z" />
    <glyph glyph-name="H" unicode="H" horiz-adv-x="880" 
d="M136 323l-57 -323h-72l122 694h72l-53 -301h616l53 301h72l-122 -694h-72l57 323h-616z" />
    <glyph glyph-name="I" unicode="I" horiz-adv-x="282" 
d="M235 694l-122 -694h-72l122 694h72z" />
    <glyph glyph-name="J" unicode="J" horiz-adv-x="782" 
d="M18 232l71.998 0.000976562c-3.33301 -16 -5.66602 -29.667 -6.99902 -41s-2 -19 -2 -23c0 -32.667 12.667 -57.167 38 -73.5s67.333 -24.5 126 -24.5h187c65.333 0 114.166 11.167 146.499 33.5s52.833 58.5 61.5 108.5l85 482h72l-78 -446
c-15.333 -88.667 -43.666 -151.334 -84.999 -188.001c-44.667 -40 -115.667 -60 -213 -60h-188c-79.333 0 -137.166 12 -173.499 36s-54.5 59 -54.5 105c0 8 0.666992 17.333 2 28s5 31.667 11 63z" />
    <glyph glyph-name="K" unicode="K" horiz-adv-x="827" 
d="M118 327l-57 -327h-72l122 694h72l-52 -297h116l491 297h126l-548 -331l438 -363h-126l-391 327h-119z" />
    <glyph glyph-name="L" unicode="L" 
d="M7 0l122 694h72l-110 -624h523l-12 -70h-595z" />
    <glyph glyph-name="M" unicode="M" horiz-adv-x="1128" 
d="M1129 694l-122 -694h-72l112 638h-40l-486 -638h-37l-262 638h-41l-112 -638h-72l122 694h154l248 -592l454 592h154z" />
    <glyph glyph-name="N" unicode="N" horiz-adv-x="880" 
d="M-3 0l122 694h160l425 -622l109 622h72l-122 -694h-104l-437 640h-40l-113 -640h-72z" />
    <glyph glyph-name="O" unicode="O" horiz-adv-x="912" 
d="M811 460c0.666992 4.66699 1.99902 14.499 3.99902 29.499s3 27.833 3 38.5c0 40 -11.667 67.333 -35 82s-63.333 22 -120 22h-304c-67.333 0 -117.166 -12.167 -149.499 -36.5s-54.5 -69.5 -66.5 -135.5l-39 -222c-4 -22 -6 -41.667 -6 -59
c0 -41.333 12.333 -69.833 37 -85.5s66 -23.5 124 -23.5h304c74.667 0 125.167 10.833 151.5 32.5s45.5 66.834 57.5 135.501zM843.999 237.999c-16.667 -96 -46.6689 -160.335 -90.002 -193.002c-39.333 -30 -106.666 -45 -201.999 -45h-304
c-80 0 -137.333 11.833 -172 35.5s-52 64.834 -52 123.501c0 20.667 2.66699 47 8 79l38 216c16.667 90.667 46.834 154.667 90.501 192s114.167 56 211.5 56h304c74.667 0 128 -10.667 160 -32c36.667 -24 55 -66.667 55 -128c0 -25.333 -3 -54.666 -9 -87.999z" />
    <glyph glyph-name="P" unicode="P" horiz-adv-x="814" 
d="M1 0l122.001 693.999h468c74 0 127.833 -11.5 161.5 -34.5s50.5 -61.167 50.5 -114.5c0 -97.333 -23.667 -165.666 -71 -204.999c-42.667 -35.333 -113.334 -53 -212.001 -53h-397l-50 -287h-72zM136.001 356.999l418 -0.000976562c61.333 0 105.333 12 132 36
c29.333 26.667 44 72.334 44 137.001c0 34 -9.5 58.167 -28.5 72.5s-50.167 21.5 -93.5 21.5h-425z" />
    <glyph glyph-name="Q" unicode="Q" horiz-adv-x="912" 
d="M463 242l54 58l223 -164c8 15.333 14.333 30.333 19 45s9 33.667 13 57l38 216c6 32 9 58.667 9 80c0 40.667 -11.333 67.167 -34 79.5s-63.334 18.5 -122.001 18.5h-304c-71.333 0 -122.666 -13.167 -153.999 -39.5s-53 -72.5 -65 -138.5l-38 -216
c-4 -22 -6 -41.667 -6 -59c0 -40.667 12.667 -69 38 -85s67 -24 125 -24h302c22.667 0 45 1.16699 67 3.5s38.333 6.5 49 12.5zM797 98l49.9971 -38.002l-51 -60l-51 40c-21.333 -14.667 -46.166 -25 -74.499 -31s-67.833 -9 -118.5 -9h-306c-77.333 0 -133 11.333 -167 34
c-38 25.333 -57 68 -57 128c0 20.667 2.66699 46 8 76l38 216c16 90.667 45 154 87 190c45.333 38.667 117.333 58 216 58h304c74.667 0 128 -10.667 160 -32c37.333 -24.667 56 -68 56 -130c0 -25.333 -3 -54 -9 -86l-38 -216
c-5.33301 -29.333 -11.666 -55.166 -18.999 -77.499s-16.666 -43.166 -27.999 -62.499z" />
    <glyph glyph-name="R" unicode="R" horiz-adv-x="860" 
d="M185 624l-47 -268h450c48.667 0 88.667 12.667 120 38c37.333 30.667 56 75.667 56 135c0 28 -11 50.833 -33 68.5s-52.333 26.5 -91 26.5h-455zM125 286l-50 -286.001h-72l122 694h500c72 0 126 -14.333 162 -43c32.667 -26 49 -63.333 49 -112
c0 -56 -14.333 -103.333 -43 -142c-22.667 -30 -52 -53 -88 -69c18.667 -4 33.834 -15.167 45.501 -33.5s17.5 -44.166 17.5 -77.499c0 -14 -1.66699 -32 -5 -54l-29 -163h-72l30 171l4 39c0 28.667 -7.33301 48.5 -22 59.5s-38.334 16.5 -71.001 16.5h-478z" />
    <glyph glyph-name="S" unicode="S" horiz-adv-x="922" 
d="M81 498c12 69.333 38.6699 119.333 80.0029 150s101.333 46 180 46h350c137.333 0 206 -50 206 -150c0 -5.33301 -0.166992 -11.166 -0.5 -17.499s-1.5 -15.833 -3.5 -28.5h-72l3 28c0 31.333 -11.667 55 -35 71c-26.667 18 -68.334 27 -125.001 27h-334
c-66.667 0 -113.5 -12.833 -140.5 -38.5s-40.5 -65.834 -40.5 -120.501c0 -26.667 11.667 -45.5 35 -56.5s66 -16.5 128 -16.5h310c80 0 138 -10.667 174 -32s54 -58 54 -110c0 -80.667 -22.333 -142.5 -67 -185.5s-111.334 -64.5 -200.001 -64.5h-358
c-62 0 -110 12.667 -144 38s-51 63.333 -51 114v18.5c0 5 1.33301 14.167 4 27.5h72l-3 -30c0 -31.333 12.167 -55.5 36.5 -72.5s64.833 -25.5 121.5 -25.5h328c61.333 0 108.166 13.333 140.499 40s48.5 68.334 48.5 125.001c0 31.333 -11.167 53.666 -33.5 66.999
s-60.833 20 -115.5 20h-349c-76 0 -129.167 9.66699 -159.5 29s-45.5 50.333 -45.5 93c0 16 2 34 6 54z" />
    <glyph glyph-name="T" unicode="T" horiz-adv-x="792" 
d="M83 694h748l-12 -70h-339l-110 -624h-72l110 624h-337z" />
    <glyph glyph-name="U" unicode="U" horiz-adv-x="922" 
d="M121 694l72.001 0.000976562l-85 -484c-1.33301 -6 -2.33301 -13 -3 -21s-1 -14.667 -1 -20c0 -34 12.667 -59 38 -75s67.666 -24 126.999 -24h305c62.667 0 109.667 11.667 141 35s51.333 59.666 60 108.999l84 480h72l-80 -454c-16 -92.667 -48.333 -157 -97 -193
c-42.667 -31.333 -107 -47 -193 -47h-304c-78 0 -134 11 -168 33c-37.333 24.667 -56 67 -56 127c0 21.333 2.66699 47.333 8 78z" />
    <glyph glyph-name="V" unicode="V" horiz-adv-x="842" 
d="M807 694h84l-496 -694h-77l-250 694h84l212 -616h15z" />
    <glyph glyph-name="W" unicode="W" horiz-adv-x="1280" 
d="M653 694h82l133 -620h16l355 620h80l-406 -694h-102l-132 614l-346 -614h-102l-162 694h80l137 -620h16z" />
    <glyph glyph-name="X" unicode="X" horiz-adv-x="858" 
d="M767 694h96l-383 -326l303 -368h-96l-275 334l-393 -334h-96l433 368l-264 326h91l240 -294z" />
    <glyph glyph-name="Y" unicode="Y" horiz-adv-x="804" 
d="M768 694h95l-429 -363l-58 -331h-72l58 332l-301 362h95l252 -306z" />
    <glyph glyph-name="Z" unicode="Z" horiz-adv-x="792" 
d="M109 694h677l-9 -54l-663 -570h577l-12 -70h-692l10 56l666 568h-566z" />
    <glyph glyph-name="bracketleft" unicode="[" horiz-adv-x="262" 
d="M141 762h140l-7 -38h-72l-140 -798h77l-7 -38h-145z" />
    <glyph glyph-name="backslash" unicode="\" horiz-adv-x="316" 
d="M86 728h78l78 -818h-76z" />
    <glyph glyph-name="bracketright" unicode="]" horiz-adv-x="262" 
d="M271 762l-154 -874h-145l7 39h77l140 797h-72l7 38h140z" />
    <glyph glyph-name="asciicircum" unicode="^" horiz-adv-x="392" 
d="M16 528l170 140h40l122 -140h-32l-117 98l-151 -98h-32z" />
    <glyph glyph-name="underscore" unicode="_" horiz-adv-x="392" 
d="M5 -2h388l-6 -38h-388z" />
    <glyph glyph-name="grave" unicode="`" horiz-adv-x="282" 
d="M92 728l130 -136l-32 -24l-148 112z" />
    <glyph glyph-name="a" unicode="a" horiz-adv-x="711" 
d="M37 186c6 35.333 23.001 63.001 51.001 83.001c30.667 22 72 33 124 33h288c27.333 0 48.333 -4 63 -12c9.33301 -4.66699 16.666 -13.667 21.999 -27c2 12.667 4.83301 29.5 8.5 50.5s5.5 34.167 5.5 39.5c0 25.333 -8 44.666 -24 57.999c-18 15.333 -45.333 23 -82 23
h-191c-52.667 0 -89 -8 -109 -24c-14 -10.667 -23 -30 -27 -58h-74c7.33301 42 21 73 41 93c32.667 32.667 86.667 49 162 49h217c55.333 0 95.666 -10.667 120.999 -32s38 -53 38 -95v-28c-2 -8.66699 -3.33301 -15 -4 -19l-57 -320h-68l4 40
c-9.33301 -9.33301 -17.666 -16 -24.999 -20c-22 -13.333 -45.667 -20 -71 -20h-280c-97.333 0 -146 33 -146 99l3 27zM227.001 242.001c-42 0 -72.333 -6.33203 -91 -18.999c-15.333 -10.667 -24.833 -25.5 -28.5 -44.5s-6.16699 -32.833 -7.5 -41.5s-2 -15.334 -2 -20.001
c0 -22 8.5 -37 25.5 -45s40.833 -12 71.5 -12h244c40.667 0 72.167 9.5 94.5 28.5s33.5 47.167 33.5 84.5c0 46 -32 69 -96 69h-244z" />
    <glyph glyph-name="b" unicode="b" horiz-adv-x="728" 
d="M113 694h72l-44 -253c13.333 15.333 33.666 28.333 60.999 39s58 16 92 16h194c60.667 0 105.834 -12.833 135.501 -38.5s44.5 -62.167 44.5 -109.5v-28c-2 -8 -3.33301 -14 -4 -18l-19 -108c-10.667 -62 -36 -109.833 -76 -143.5s-95.333 -50.5 -166 -50.5h-196
c-32.667 -0 -60.667 4.83301 -84 14.5s-40.333 22.5 -51 38.5l-9 -53h-72zM227 60h157.999c58 0 101.833 10.667 131.5 32s48.5 55.333 56.5 102l19 108l3 31c0 33.333 -11.667 58.833 -35 76.5s-59.333 26.5 -108 26.5h-160c-50 0 -90.667 -12.667 -122 -38
c-28.667 -23.333 -46.5 -54.333 -53.5 -93s-12.333 -69.167 -16 -91.5s-5.5 -37.833 -5.5 -46.5c0 -32.667 10.833 -58.667 32.5 -78s54.834 -29 99.501 -29z" />
    <glyph glyph-name="c" unicode="c" 
d="M587 174l72.001 -0.00195312c-6.66699 -40 -22.667 -74 -48 -102c-42.667 -48 -106.334 -72 -191.001 -72h-222c-58 0 -101.167 11.833 -129.5 35.5s-42.5 57.834 -42.5 102.501v18c0 5.33301 1.33301 14 4 26l22 124c10 56.667 34.667 101.667 74 135
c42.667 36.667 98 55 166 55h216c68.667 0 118 -16.667 148 -50c21.333 -24 32 -54.667 32 -92l-3 -32h-72l2 23c0 24 -7 43.667 -21 59c-20 21.333 -52.333 32 -97 32h-216c-42.667 0 -77.5 -10.833 -104.5 -32.5s-44.667 -55 -53 -100s-14.333 -79 -18 -102
s-5.5 -37.833 -5.5 -44.5c0 -30.667 10.5 -54.5 31.5 -71.5s47.5 -25.5 79.5 -25.5h219c54.667 0 95.667 14.333 123 43c18 18.667 29.333 42.334 34 71.001z" />
    <glyph glyph-name="d" unicode="d" horiz-adv-x="728" 
d="M607 0h-72l8 48c-16 -10.667 -29.667 -18.667 -41 -24c-35.333 -16 -72 -24 -110 -24h-195c-120.667 -0 -181 47.333 -181 142c0 6 0.166992 11.667 0.5 17s1.83301 17.333 4.5 36l19 109c10.667 58.667 35.667 104.667 75 138c42.667 36 99 54 169 54h194
c34 0 63 -5.16699 87 -15.5s40 -23.5 48 -39.5l44 253h72zM569 195l19 108l3 29c0 32 -11 57.333 -33 76s-55.333 28 -100 28h-160c-57.333 0 -100.666 -11 -129.999 -33s-48 -55.667 -56 -101l-19 -108l-3 -34c0 -66.667 47 -100 141 -100h160
c51.333 0 92.166 12.5 122.499 37.5s48.833 57.5 55.5 97.5z" />
    <glyph glyph-name="e" unicode="e" horiz-adv-x="728" 
d="M618 302l2.99902 31c0 32.667 -9.66699 58 -29 76s-47.333 27 -84 27h-226c-38 0 -70.667 -12 -98 -36s-44.666 -56.667 -51.999 -98h486zM678.999 242l-557.999 -0.00292969l-9 -48l-3 -36c0 -34.667 10.5 -59.667 31.5 -75s49.5 -23 85.5 -23h234
c38 0 68.167 9 90.5 27s36.166 41.667 41.499 71h72c-8 -43.333 -26.333 -78.666 -55 -105.999c-36.667 -34.667 -86 -52 -148 -52h-243c-122.667 0 -184 45.667 -184 137c0 12.667 1.66699 28.334 5 47.001l23 130c8.66699 48.667 34 90.334 76 125.001
c46 38 101.333 57 166 57h208c60 0 106.333 -14 139 -42c30 -26 45 -60 45 -102l-3 -30z" />
    <glyph glyph-name="f" unicode="f" horiz-adv-x="392" 
d="M96 438h-62.002l11 60h62c12.667 74 33.334 125.167 62.001 153.5s72.334 42.5 131.001 42.5h123l-10 -60h-104c-38 0 -65.667 -7.66699 -83 -23c-21.333 -19.333 -37 -57 -47 -113h212l-11 -60h-212l-77 -438h-72z" />
    <glyph glyph-name="g" unicode="g" horiz-adv-x="738" 
d="M670 494h72.001l-96 -546c-8.66699 -49.333 -30.667 -87.333 -66 -114c-40.667 -30.667 -98 -46 -172 -46h-200c-52.667 0 -94 10 -124 30s-45 47 -45 81l2 21h78l-1 -11c0 -16.667 9 -31 27 -43s44.667 -18 80 -18h188c46 0 83 9.16699 111 27.5s44.333 40.5 49 66.5
l20 116c-7.33301 -12.667 -22.333 -24.667 -45 -36c-30 -14.667 -64.333 -22 -103 -22h-206c-120 -0 -180 45.333 -180 136v26c2 9.33301 3.33301 16 4 20l22 126c10.667 60 35.5 106 74.5 138s92.5 48 160.5 48h208c32.667 0 61.167 -5.16699 85.5 -15.5
s40.166 -22.833 47.499 -37.5zM617.001 194l19.999 109l3 29c0 32 -10.667 57 -32 75s-54.666 27 -99.999 27h-164c-59.333 0 -103.5 -10.5 -132.5 -31.5s-47.5 -54.5 -55.5 -100.5l-19 -108l-3 -33c0 -67.333 48 -101 144 -101h164c50 0 90 12.333 120 37s48.333 57 55 97z
" />
    <glyph glyph-name="h" unicode="h" horiz-adv-x="728" 
d="M115 694l72.001 0.000976562l-47 -270c11.333 16 22 27.667 32 35c31.333 23.333 72.666 35 123.999 35h192c70 0 120 -11 150 -33c25.333 -18.667 38 -45.667 38 -81c0 -26.667 -2.66699 -53.334 -8 -80.001l-53 -300h-72l53 300l3 29c0 34 -11 60 -33 78
s-51.667 27 -89 27h-192c-44 0 -81 -11.5 -111 -34.5s-48.667 -56.167 -56 -99.5l-53 -300h-72z" />
    <glyph glyph-name="i" unicode="i" horiz-adv-x="228" 
d="M176 494l-87 -494h-72l87 494h72zM139 694h72l-13 -72h-72z" />
    <glyph glyph-name="j" unicode="j" horiz-adv-x="282" 
d="M155 494l72 0.000976562l-102 -574c-7.33301 -40.667 -27.5 -72.834 -60.5 -96.501s-75.167 -35.5 -126.5 -35.5l13 72c34.667 0 60 7.5 76 22.5s26.333 35.5 31 61.5zM190 694.001h72l-13 -72h-72z" />
    <glyph glyph-name="k" unicode="k" horiz-adv-x="620" 
d="M-3 0l122 694h72l-68 -388h82l289 188h116l-352 -221l290 -273h-104l-255 246h-77l-43 -246h-72z" />
    <glyph glyph-name="l" unicode="l" horiz-adv-x="240" 
d="M29 0l122 694h72l-122 -694h-72z" />
    <glyph glyph-name="m" unicode="m" horiz-adv-x="1127" 
d="M164 494l-13.999 -75c17.333 22.667 39.333 40.334 66 53.001c31.333 14.667 66.666 22 105.999 22h98c59.333 0 103 -10.667 131 -32c19.333 -14.667 33 -36.667 41 -66c14 26 32.333 46.333 55 61c37.333 24.667 87 37 149 37h112c60 0 106.667 -14 140 -42
c31.333 -26 47 -60 47 -102l-2 -28l-57 -322h-72l54 302c2 11.333 3 21.666 3 30.999c0 32 -12.167 56.833 -36.5 74.5s-59.5 26.5 -105.5 26.5h-74c-56 0 -100.5 -11 -133.5 -33s-53.833 -56.333 -62.5 -103l-53 -298h-72l53 300l3 28c0 34.667 -12.5 61 -37.5 79
s-58.833 27 -101.5 27h-78c-56.667 0 -103 -14.333 -139 -43c-30 -24 -48 -53 -54 -87l-53 -304h-72l87 494h72z" />
    <glyph glyph-name="n" unicode="n" horiz-adv-x="738" 
d="M174 494l-13.9971 -79c13.333 24 33.666 43.167 60.999 57.5s59.666 21.5 96.999 21.5h190c64 0 111.667 -15 143 -45c27.333 -26 41 -62.667 41 -110c0 -10 -0.666992 -19.5 -2 -28.5s-2.33301 -16.5 -3 -22.5l-51 -288h-72l53 298l3 29
c0 33.333 -10.833 59.5 -32.5 78.5s-51.834 28.5 -90.501 28.5h-190c-43.333 0 -80.333 -12 -111 -36s-49.667 -57.333 -57 -100l-52 -298h-72l87 494h72z" />
    <glyph glyph-name="o" unicode="o" 
d="M304 496h197.999c65.333 0 113.666 -14.333 144.999 -43c27.333 -24.667 41 -59.667 41 -105v-28c-2 -8 -3.33301 -14 -4 -18l-20 -108c-10.667 -58 -35 -103.667 -73 -137c-43.333 -38 -102.666 -57 -177.999 -57h-197c-124.667 0 -187 48.667 -187 146
c0 13.333 1.66699 29.333 5 48l20 108c10.667 58 35.334 103.667 74.001 137c43.333 38 102 57 176 57zM105.999 194l-2.99805 -33c0 -67.333 43 -101 129 -101h187c47.333 0 85 10 113 30c30.667 22 50.667 56.667 60 104l20 108l3 31c0 68.667 -43 103 -129 103h-188
c-50.667 0 -89.834 -10.333 -117.501 -31s-45.834 -55 -54.501 -103z" />
    <glyph glyph-name="p" unicode="p" 
d="M113 494l72.002 0.000976562l-9 -53c12 14.667 31.667 27.167 59 37.5s56.666 15.5 87.999 15.5h200c62.667 0 109.334 -14 140.001 -42c27.333 -24.667 41 -59.334 41 -104.001c0 -8.66699 -0.333008 -16 -1 -22s-2 -14.667 -4 -26l-19 -108
c-10.667 -58.667 -35.334 -104.667 -74.001 -138c-42.667 -36 -99.334 -54 -170.001 -54h-194c-34 0 -62.833 5 -86.5 15s-39.5 22.667 -47.5 38l-45 -255h-72zM151.002 300.001l-18.999 -108.001l-3 -28c0 -31.333 10.833 -56.5 32.5 -75.5s54.5 -28.5 98.5 -28.5h161
c54.667 0 97.5 10.333 128.5 31s50.5 54.334 58.5 101.001l19 108l3 32c0 68 -47.667 102 -143 102h-160c-50.667 0 -90.834 -12.167 -120.501 -36.5s-48.167 -56.833 -55.5 -97.5z" />
    <glyph glyph-name="q" unicode="q" horiz-adv-x="728" 
d="M663 494h71.998l-122 -696h-72l44 249c-13.333 -13.333 -33.666 -24.5 -60.999 -33.5s-58 -13.5 -92 -13.5h-194c-120.667 -0 -181 48.333 -181 145c0 13.333 1.66699 29.333 5 48l19 108c10.667 60.667 36.5 108 77.5 142s96.5 51 166.5 51h198
c40.667 0 74.667 -9 102 -27c8.66699 -6 18.334 -15 29.001 -27zM628.998 301l3.00293 29c0 32 -10.833 57.333 -32.5 76s-54.5 28 -98.5 28h-160c-55.333 0 -98.333 -10.167 -129 -30.5s-50.334 -54.833 -59.001 -103.5l-19 -108l-3 -31
c0 -34.667 12.167 -60.167 36.5 -76.5s60.166 -24.5 107.499 -24.5h160c49.333 0 89.166 12.5 119.499 37.5s48.833 56.833 55.5 95.5z" />
    <glyph glyph-name="r" unicode="r" horiz-adv-x="681" 
d="M176 494l-11.998 -62.999c14 20 31.667 35 53 45c25.333 12 55.666 18 90.999 18h140c68 0 116.667 -16.667 146 -50c22 -24.667 33 -58.334 33 -101.001c0 -12.667 -1.66699 -29 -5 -49h-72l3 32c0 28.667 -7.33301 52 -22 70c-20.667 25.333 -54.334 38 -101.001 38
h-128c-39.333 0 -73.833 -11.333 -103.5 -34s-47.5 -50 -53.5 -82l-56 -318h-72l87 494h72z" />
    <glyph glyph-name="s" unicode="s" horiz-adv-x="728" 
d="M34 158l72 -0.000976562c-4.66699 -22.667 -7 -39 -7 -49c0 -14 4.33301 -24.333 13 -31c16 -12 46.667 -18 92 -18h253c44 0 76.5 8.66699 97.5 26s31.5 42 31.5 74c0 18.667 -7 33.334 -21 44.001s-35.333 16 -64 16h-288c-48.667 0 -85.5 7.66699 -110.5 23
s-37.5 40.333 -37.5 75c0 51.333 14.667 92.333 44 123c35.333 36.667 89 55 161 55h234c72.667 0 124.667 -10.333 156 -31c25.333 -16.667 38 -39.667 38 -69l-8 -56h-72l7 41c0 7.33301 -2.33301 14 -7 20c-18 23.333 -59 35 -123 35h-248
c-38 0 -65.5 -8.66699 -82.5 -26s-25.5 -43 -25.5 -77c0 -16 6.33301 -28.833 19 -38.5s33.334 -14.5 62.001 -14.5h288c50 0 87.833 -8.33301 113.5 -25s38.5 -42.334 38.5 -77.001c0 -49.333 -15.667 -90 -47 -122c-36.667 -37.333 -91.334 -56 -164.001 -56h-275
c-56 0 -95.667 9 -119 27c-20 15.333 -30 37.333 -30 66c0 12.667 0.333008 21.334 1 26.001c3.33301 14.667 6 27.667 8 39z" />
    <glyph glyph-name="t" unicode="t" horiz-adv-x="586" 
d="M128 592l71.999 -0.000976562l-17 -96h373l-10 -60h-373l-46 -260l-3 -31c0 -28.667 8 -50 24 -64s37.333 -21 64 -21h96c60 0 103.667 15 131 45c18 20 31 51.667 39 95h72c-9.33301 -53.333 -27.666 -95.666 -54.999 -126.999c-42 -48.667 -105.333 -73 -190 -73h-103
c-48 -0 -85 11.333 -111 34s-39 56.667 -39 102v15c0 4 1.66699 16 5 36l44 249h-62l10 60h62z" />
    <glyph glyph-name="u" unicode="u" horiz-adv-x="728" 
d="M636 0l-72 -0.000976562l11 60c-23.333 -22 -47.5 -37.5 -72.5 -46.5s-52.5 -13.5 -82.5 -13.5h-194c-63.333 0 -110.166 12.333 -140.499 37s-45.5 60.334 -45.5 107.001c0 13.333 1.66699 30 5 50l53 300h72l-56 -295l-4 -36c0 -68.667 42.333 -103 127 -103h194
c40 0 75 10 105 30c33.333 22 53.666 52.667 60.999 92l55 312h72z" />
    <glyph glyph-name="v" unicode="v" horiz-adv-x="630" 
d="M592 494h80l-361 -494h-77l-185 494h76l154 -416h15z" />
    <glyph glyph-name="w" unicode="w" horiz-adv-x="907" 
d="M105 494l91 -416h17l235 416h88l87 -416h17l239 416h77l-289 -494h-94l-92 435l-246 -435h-94l-113 494h77z" />
    <glyph glyph-name="x" unicode="x" horiz-adv-x="637" 
d="M88 494h88l153 -182l215 182h88l-268 -226l220 -268h-90l-182 222l-264 -222h-86l314 268z" />
    <glyph glyph-name="y" unicode="y" horiz-adv-x="585" 
d="M64 494h74.999l155 -424h14l257 424h75l-346 -559c-34 -54.667 -64.667 -91.667 -92 -111c-34 -24 -80 -36 -138 -36h-24l10 60h42c32.667 0 60.834 10 84.501 30s53.5 60.667 89.5 122h-18z" />
    <glyph glyph-name="z" unicode="z" horiz-adv-x="630" 
d="M88 494h523l-10 -54l-485 -380h424l-11 -60h-533l10 56l487 378h-416z" />
    <glyph glyph-name="braceleft" unicode="{" horiz-adv-x="294" 
d="M316 696c-64 0 -101.669 -32 -113.002 -96l-34 -194c-4.66699 -27.333 -19 -52 -43 -74c-7.33301 -6.66699 -18.666 -14.667 -33.999 -24c10 -10 17.333 -18.333 22 -25c14.667 -20.667 22 -40.334 22 -59.001c0 -6.66699 -6.5 -46 -19.5 -118s-19.5 -111.333 -19.5 -118
c0 -44 27.667 -66 83 -66l-10 -56h-6c-82.667 0 -124 37.333 -124 112c0 10.667 4.33301 40.667 13 90l27 153c0 17.333 -5 34.5 -15 51.5s-20.667 28.833 -32 35.5c16.667 10 31.667 22 45 36c20 20.667 31.667 41.334 35 62.001l34 194
c8.66699 49.333 26.334 86.333 53.001 111c29.333 27.333 71.333 41 126 41z" />
    <glyph glyph-name="bar" unicode="|" horiz-adv-x="173" 
d="M135 740h56l-154 -874h-56z" />
    <glyph glyph-name="braceright" unicode="}" horiz-adv-x="294" 
d="M116 696l4.99805 39.9971l5 16c44.667 0 77.167 -9.16699 97.5 -27.5s30.5 -44.833 30.5 -79.5c0 -16 -6.66699 -59.667 -20 -131s-20 -111.666 -20 -120.999c0 -16.667 6.33301 -34.667 19 -54c10.667 -15.333 20.667 -25.666 30 -30.999
c-22 -14 -39.667 -28.333 -53 -43c-16 -17.333 -25.667 -35.666 -29 -54.999l-35 -194c-8.66699 -48 -28.167 -85 -58.5 -111s-68.166 -39 -113.499 -39h-4l10 56c32.667 0 57.834 7.66699 75.501 23s29.167 39 34.5 71l35 194c4 22 18 45 42 69c8 7.33301 19.667 17 35 29
c-10 8 -17.333 14.667 -22 20c-15.333 18 -23 37 -23 57c0 10.667 6.5 52 19.5 124s19.5 112.333 19.5 121c0 22 -6.16699 38.5 -18.5 49.5s-32.833 16.5 -61.5 16.5z" />
    <glyph glyph-name="asciitilde" unicode="~" horiz-adv-x="554" 
d="M142 346l-68.002 0.000976562c11.333 22.667 22.333 39.667 33 51c32.667 34 75.667 51 129 51c28.667 0 58.667 -12 90 -36c16 -12 32 -18 48 -18c24 0 43 8.33301 57 25c4.66699 5.33301 9.33398 13.666 14.001 24.999h66c-10.667 -22.667 -21 -39.667 -31 -51
c-31.333 -34.667 -71.666 -52 -120.999 -52c-27.333 0 -52.833 8.83301 -76.5 26.5s-49.167 26.5 -76.5 26.5c-20 0 -36.667 -8 -50 -24c-4 -5.33301 -8.66699 -13.333 -14 -24z" />
    <glyph glyph-name="nonbreakingspace" unicode="&#xa0;" horiz-adv-x="500" 
 />
    <glyph glyph-name="exclamdown" unicode="&#xa1;" horiz-adv-x="789" 
d="M735 694l86 0.000976562l-385 -494c-66 -85.333 -116.167 -140 -150.5 -164s-79.833 -36 -136.5 -36h-24l12 70h25c37.333 0 65 5.16699 83 15.5s40 32.166 66 65.499l-258 543h83l226 -487zM667 885.001l72 -0.000976562c-9.33301 -51.333 -34.833 -91.833 -76.5 -121.5
s-95.167 -44.5 -160.5 -44.5h-81c-68 0 -117.333 17.333 -148 52c-22 24.667 -33 55.334 -33 92.001l2 22h72c0 -31.333 5.33301 -54.333 16 -69c18 -24.667 52 -37 102 -37h79c53.333 0 94.333 14.333 123 43c18.667 18.667 29.667 39.667 33 63z" />
    <glyph glyph-name="exclamdown" unicode="&#x40e;" horiz-adv-x="789" 
d="M735 694l86 0.000976562l-385 -494c-66 -85.333 -116.167 -140 -150.5 -164s-79.833 -36 -136.5 -36h-24l12 70h25c37.333 0 65 5.16699 83 15.5s40 32.166 66 65.499l-258 543h83l226 -487zM667 885.001l72 -0.000976562c-9.33301 -51.333 -34.833 -91.833 -76.5 -121.5
s-95.167 -44.5 -160.5 -44.5h-81c-68 0 -117.333 17.333 -148 52c-22 24.667 -33 55.334 -33 92.001l2 22h72c0 -31.333 5.33301 -54.333 16 -69c18 -24.667 52 -37 102 -37h79c53.333 0 94.333 14.333 123 43c18.667 18.667 29.667 39.667 33 63z" />
    <glyph glyph-name="cent" unicode="&#xa2;" horiz-adv-x="585" 
d="M49 494h74.999l155 -424h14l257 424h75l-346 -559c-34 -54.667 -64.667 -91.667 -92 -111c-34 -24 -80 -36 -138 -36h-24l10 60h42c32.667 0 60.834 10 84.501 30s53.5 60.667 89.5 122h-18zM518.999 667h58c-8.66699 -48 -26 -81.333 -52 -100
c-33.333 -24 -91 -36 -173 -36c-67.333 0 -113.833 7.66699 -139.5 23s-38.5 39.333 -38.5 72v24c2 8 3.33301 13.667 4 17h58l-2 -23c0 -20 9.16699 -34.167 27.5 -42.5s53.833 -12.5 106.5 -12.5c68 0 111.333 9.33301 130 28c10 10 17 26.667 21 50z" />
    <glyph glyph-name="cent" unicode="&#x45e;" horiz-adv-x="585" 
d="M49 494h74.999l155 -424h14l257 424h75l-346 -559c-34 -54.667 -64.667 -91.667 -92 -111c-34 -24 -80 -36 -138 -36h-24l10 60h42c32.667 0 60.834 10 84.501 30s53.5 60.667 89.5 122h-18zM518.999 667h58c-8.66699 -48 -26 -81.333 -52 -100
c-33.333 -24 -91 -36 -173 -36c-67.333 0 -113.833 7.66699 -139.5 23s-38.5 39.333 -38.5 72v24c2 8 3.33301 13.667 4 17h58l-2 -23c0 -20 9.16699 -34.167 27.5 -42.5s53.833 -12.5 106.5 -12.5c68 0 111.333 9.33301 130 28c10 10 17 26.667 21 50z" />
    <glyph glyph-name="sterling" unicode="&#xa3;" horiz-adv-x="358" 
d="M62 0l14 77.998h78l-23 -130c-2 -12 -6.33301 -22.667 -13 -32s-14.667 -16.666 -24 -21.999h-38c10.667 6.66699 19 14.334 25 23.001s10 19 12 31l9 52h-40zM222 -0.00195312l14 77.998h78l-23 -130c-2 -12 -6.33301 -22.667 -13 -32s-14.667 -16.666 -24 -21.999h-38
c10.667 6.66699 19 14.334 25 23.001s10 19 12 31l9 52h-40z" />
    <glyph glyph-name="sterling" unicode="&#x408;" horiz-adv-x="358" 
d="M62 0l14 77.998h78l-23 -130c-2 -12 -6.33301 -22.667 -13 -32s-14.667 -16.666 -24 -21.999h-38c10.667 6.66699 19 14.334 25 23.001s10 19 12 31l9 52h-40zM222 -0.00195312l14 77.998h78l-23 -130c-2 -12 -6.33301 -22.667 -13 -32s-14.667 -16.666 -24 -21.999h-38
c10.667 6.66699 19 14.334 25 23.001s10 19 12 31l9 52h-40z" />
    <glyph glyph-name="yen" unicode="&#xa5;" horiz-adv-x="846" 
d="M83 694h100l247 -300l353 300h100l-372 -320h122l-10 -56h-166l-14 -81h166l-10 -56h-166l-32 -181h-78l32 181h-164l10 56h164l14 81h-164l10 56h122z" />
    <glyph glyph-name="yen" unicode="&#x490;" horiz-adv-x="846" 
d="M83 694h100l247 -300l353 300h100l-372 -320h122l-10 -56h-166l-14 -81h166l-10 -56h-166l-32 -181h-78l32 181h-164l10 56h164l14 81h-164l10 56h122z" />
    <glyph glyph-name="brokenbar" unicode="&#xa6;" horiz-adv-x="174" 
d="M50 260h56l-65 -368h-56zM131 721h56l-65 -368h-56z" />
    <glyph glyph-name="section" unicode="&#xa7;" horiz-adv-x="760" 
d="M534 208c42 0 72.5 7.33203 91.5 21.999s31.833 37.334 38.5 68.001l9 59c0 16.667 -4.66699 30.667 -14 42c-11.333 14 -28 21 -50 21h-412c-44 0 -76 -19.667 -96 -59c-13.333 -26.667 -20 -58.667 -20 -96c0 -17.333 4 -30.333 12 -39c10.667 -12 27.667 -18 51 -18
h390zM712 539.999h-71.999c1.33301 4.66699 2.33301 10.5 3 17.5s1 13.167 1 18.5c0 20.667 -5.83301 35.834 -17.5 45.501s-31.5 14.5 -59.5 14.5h-296c-32 0 -55.833 -8.83301 -71.5 -26.5s-23.5 -42.5 -23.5 -74.5c0 -36.667 20.667 -55 62 -55h372
c37.333 0 67.333 -9.33301 90 -28s34 -43 34 -73l-14 -91c-6 -33.333 -17.333 -60.333 -34 -81c-18.667 -24 -43.334 -38.333 -74.001 -43c2.66699 -2 4.66699 -4 6 -6c10.667 -13.333 16 -30 16 -50c0 -10.667 -2.66699 -30 -8 -58
c-7.33301 -36.667 -26.333 -66.5 -57 -89.5s-68.334 -34.5 -113.001 -34.5h-302c-40.667 0 -71.834 10.833 -93.501 32.5s-32.5 51.167 -32.5 88.5l4 37h72l-3 -30c0 -45.333 22.667 -68 68 -68h310c25.333 0 46.833 8.5 64.5 25.5s26.5 40.5 26.5 70.5
c0 18 -4.66699 32.667 -14 44c-11.333 13.333 -27.666 20 -48.999 20h-378c-34 0 -61.333 9.33301 -82 28s-31 43 -31 73l12 77c6.66699 37.333 21.667 69.333 45 96c18 20.667 36.667 34 56 40c-14 5.33301 -21 20.333 -21 45c0 6.66699 0.833008 15.167 2.5 25.5
s3.83398 22.833 6.50098 37.5c6.66699 38.667 24.667 69.667 54 93s69 35 119 35h292c46.667 0 80.667 -10 102 -30s32 -48.333 32 -85c0 -12.667 -1.33301 -26.334 -4 -41.001z" />
    <glyph glyph-name="dieresis" unicode="&#xa8;" horiz-adv-x="738" 
d="M-12 0l122 694h615l-12 -70h-543l-40 -230h529l-13 -70h-529l-45 -254h543l-12 -70h-615zM330 816h72l-13 -72h-72zM508 816h72l-13 -72h-72z" />
    <glyph glyph-name="dieresis" unicode="&#x401;" horiz-adv-x="738" 
d="M-12 0l122 694h615l-12 -70h-543l-40 -230h529l-13 -70h-529l-45 -254h543l-12 -70h-615zM330 816h72l-13 -72h-72zM508 816h72l-13 -72h-72z" />
    <glyph glyph-name="copyright" unicode="&#xa9;" horiz-adv-x="712" 
d="M502 418l44.001 -0.000976562c-6 -33.333 -20.333 -58 -43 -74s-56.334 -24 -101.001 -24h-152c-73.333 0 -110 26.333 -110 79c0 14.667 1.33301 29.667 4 45l18 100c8 45.333 23.5 77.666 46.5 96.999s57.5 29 103.5 29h152c74 0 111 -25.333 111 -76l-2 -22h-44l1 17
c0 13.333 -5.33301 22.833 -16 28.5s-29.667 8.5 -57 8.5h-155c-36 0 -59.5 -4.5 -70.5 -13.5s-19.5 -31.167 -25.5 -66.5l-18 -101c-2.66699 -13.333 -4 -25.666 -4 -36.999c0 -18 5.16699 -29.833 15.5 -35.5s29.833 -8.5 58.5 -8.5h152c33.333 0 56 3.33301 68 10
s20 21.334 24 44.001zM633.001 584.999c4 21.333 5.99902 40.001 5.99902 56.001c0 29.333 -9.16699 49.833 -27.5 61.5s-49.5 17.5 -93.5 17.5h-237c-52 0 -90.667 -9.66699 -116 -29s-42.666 -54.666 -51.999 -105.999l-31 -173c-3.33301 -18.667 -5 -30.5 -5 -35.5v-12.5
c0 -30.667 10 -52.334 30 -65.001s52 -19 96 -19h237c57.333 0 96.333 8.66699 117 26s35.667 52.666 45 105.999zM659 412c-13.333 -74.667 -36.667 -125 -70 -151c-30.667 -23.333 -83 -35 -157 -35h-238c-61.333 0 -105.833 9.5 -133.5 28.5s-41.5 50.167 -41.5 93.5
c0 18.667 2 40 6 64l30 169c12.667 70.667 36.167 120.5 70.5 149.5s89.166 43.5 164.499 43.5h238c58.667 0 100.334 -8.33301 125.001 -25c28.667 -19.333 43 -54 43 -104c0 -8 -0.5 -17 -1.5 -27s-2.83301 -22.333 -5.5 -37z" />
    <glyph glyph-name="ordfeminine" unicode="&#xaa;" horiz-adv-x="912" 
d="M721 393l-12.002 -70.002h-600l-14 -77c-4 -24 -6 -45.333 -6 -64c0 -42 12.167 -71.167 36.5 -87.5s65.833 -24.5 124.5 -24.5h303c64.667 0 112.5 9.83301 143.5 29.5s50.5 51.834 58.5 96.501h72c-12 -66 -40.333 -115.167 -85 -147.5s-112 -48.5 -202 -48.5h-304
c-78 0 -134.333 12.833 -169 38.5s-52 67.834 -52 126.501c0 22 2.66699 49 8 81l36 202c16.667 92 47.834 157.333 93.501 196s114.834 58 207.501 58h304c147.333 0 221 -50.333 221 -151v-28c-2 -8.66699 -3.33301 -15 -4 -19h-72l3 31c0 32 -11.333 55.667 -34 71
c-25.333 17.333 -67 26 -125 26h-304c-70.667 0 -121.5 -12.833 -152.5 -38.5s-52.833 -74.167 -65.5 -145.5l-10 -55h600z" />
    <glyph glyph-name="ordfeminine" unicode="&#x404;" horiz-adv-x="912" 
d="M721 393l-12.002 -70.002h-600l-14 -77c-4 -24 -6 -45.333 -6 -64c0 -42 12.167 -71.167 36.5 -87.5s65.833 -24.5 124.5 -24.5h303c64.667 0 112.5 9.83301 143.5 29.5s50.5 51.834 58.5 96.501h72c-12 -66 -40.333 -115.167 -85 -147.5s-112 -48.5 -202 -48.5h-304
c-78 0 -134.333 12.833 -169 38.5s-52 67.834 -52 126.501c0 22 2.66699 49 8 81l36 202c16.667 92 47.834 157.333 93.501 196s114.834 58 207.501 58h304c147.333 0 221 -50.333 221 -151v-28c-2 -8.66699 -3.33301 -15 -4 -19h-72l3 31c0 32 -11.333 55.667 -34 71
c-25.333 17.333 -67 26 -125 26h-304c-70.667 0 -121.5 -12.833 -152.5 -38.5s-52.833 -74.167 -65.5 -145.5l-10 -55h600z" />
    <glyph glyph-name="guillemotleft" unicode="&#xab;" horiz-adv-x="554" 
d="M118 278l140 -168l-40 -34l-166 202l242 206l26 -34zM298 278l140 -168l-40 -34l-166 202l242 206l26 -34z" />
    <glyph glyph-name="minus" unicode="&#xad;" horiz-adv-x="467" 
d="M44 603h388l-7 -39h-388z" />
    <glyph glyph-name="registered" unicode="&#xae;" horiz-adv-x="712" 
d="M633 585c4 21.333 5.99902 40.001 5.99902 56.001c0 29.333 -9.16699 49.833 -27.5 61.5s-49.5 17.5 -93.5 17.5h-237c-52 0 -90.667 -9.66699 -116 -29s-42.666 -54.666 -51.999 -105.999l-31 -173c-3.33301 -18.667 -5 -30.5 -5 -35.5v-12.5
c0 -30.667 10 -52.334 30 -65.001s52 -19 96 -19h237c57.333 0 96.333 8.66699 117 26s35.667 52.666 45 105.999zM658.999 412.001c-13.333 -74.667 -36.667 -125 -70 -151c-30.667 -23.333 -83 -35 -157 -35h-238c-61.333 0 -105.833 9.5 -133.5 28.5
s-41.5 50.167 -41.5 93.5c0 18.667 2 40 6 64l30 169c12.667 70.667 36.167 120.5 70.5 149.5s89.166 43.5 164.499 43.5h238c58.667 0 100.334 -8.33301 125.001 -25c28.667 -19.333 43 -54 43 -104c0 -8 -0.5 -17 -1.5 -27s-2.83301 -22.333 -5.5 -37zM247.998 626.001
l-22 -123.999h216c26.667 0 46.667 7.66699 60 23s20 35.666 20 60.999c0 26.667 -18.333 40 -55 40h-219zM218.998 458.002l-24.998 -137.997h-44l62 350h250c36 0 62.333 -7.33301 79 -22s25 -34.334 25 -59.001c0 -28.667 -7 -52.334 -21 -71.001
c-10.667 -14.667 -25.334 -26 -44.001 -34c9.33301 -2.66699 17.666 -8.83398 24.999 -18.501s11 -22.5 11 -38.5c0 -10 -0.666992 -19.333 -2 -28c-5.33301 -26 -10.333 -52.333 -15 -79h-44c6 32 9.66699 52.667 11 62c4 22 6 34.667 6 38c0 25.333 -16 38 -48 38h-226z
" />
    <glyph glyph-name="macron" unicode="&#xaf;" horiz-adv-x="282" 
d="M224 694l-122 -694h-72l122 694h72zM85 816h72l-13 -72h-72zM263 816h72l-13 -72h-72z" />
    <glyph glyph-name="macron" unicode="&#x407;" horiz-adv-x="282" 
d="M224 694l-122 -694h-72l122 694h72zM85 816h72l-13 -72h-72zM263 816h72l-13 -72h-72z" />
    <glyph glyph-name="degree" unicode="&#xb0;" horiz-adv-x="282" 
d="M131 666l54.002 0.000976562c20.667 0 36 -5.33301 46 -16c7.33301 -8 11 -18 11 -30c0 -7.33301 -1 -16 -3 -26l-4 -20c-2.66699 -16.667 -10.334 -30.334 -23.001 -41.001s-30.334 -16 -53.001 -16h-54c-20.667 0 -36 5.33301 -46 16c-7.33301 8 -11 18 -11 30l7 45
c3.33301 17.333 11 31.333 23 42s29.667 16 53 16zM127.002 644.001c-29.333 0 -46.001 -12 -50.001 -36l-7 -42c0 -18 13 -27 39 -27h54c28.667 0 45.334 11.667 50.001 35l7 43c0 18 -13 27 -39 27h-54z" />
    <glyph glyph-name="plusminus" unicode="&#xb1;" horiz-adv-x="446" 
d="M27 220h318l-13 -72h-318zM50 456h144l26 144h66l-26 -144h146l-12 -68h-146l-25 -144h-66l25 144h-144z" />
    <glyph glyph-name="twosuperior" unicode="&#xb2;" horiz-adv-x="282" 
d="M235 694l-122 -694h-72l122 694h72z" />
    <glyph glyph-name="twosuperior" unicode="&#x406;" horiz-adv-x="282" 
d="M235 694l-122 -694h-72l122 694h72z" />
    <glyph glyph-name="threesuperior" unicode="&#xb3;" horiz-adv-x="228" 
d="M176 494l-87 -494h-72l87 494h72zM139 694h72l-13 -72h-72z" />
    <glyph glyph-name="threesuperior" unicode="&#x456;" horiz-adv-x="228" 
d="M176 494l-87 -494h-72l87 494h72zM139 694h72l-13 -72h-72z" />
    <glyph glyph-name="acute" unicode="&#xb4;" horiz-adv-x="282" 
d="M204 728l34 -48l-188 -112l-24 24z" />
    <glyph glyph-name="acute" unicode="&#x491;" horiz-adv-x="282" 
d="M204 728l34 -48l-188 -112l-24 24z" />
    <glyph glyph-name="paragraph" unicode="&#xb6;" 
d="M446 -56h-78l62 354h-152c-72.667 0 -126.167 13 -160.5 39s-51.5 63 -51.5 111c0 77.333 25.167 137.833 75.5 181.5s119.833 65.5 208.5 65.5h228zM588 -56h-72l132 751h72z" />
    <glyph glyph-name="periodcentered" unicode="&#xb7;" horiz-adv-x="196" 
d="M53 302l14 78h78l-14 -78h-78z" />
    <glyph glyph-name="periodcentered" unicode="&#x2219;" horiz-adv-x="196" 
d="M53 302l14 78h78l-14 -78h-78z" />
    <glyph glyph-name="cedilla" unicode="&#xb8;" horiz-adv-x="728" 
d="M600 302l3 32c0 32 -9.66699 57 -29 75s-47 27 -83 27h-226c-38 0 -70.833 -12.167 -98.5 -36.5s-45.167 -56.833 -52.5 -97.5h486zM661 242l-558 -0.000976562l-8 -48l-4 -37c0 -34.667 11 -60 33 -76c19.333 -14 47.333 -21 84 -21h234
c38.667 0 69.167 8.83301 91.5 26.5s36.166 41.5 41.499 71.5h72c-8 -42 -26.333 -77.333 -55 -106c-36.667 -34.667 -86 -52 -148 -52h-243c-122.667 0 -184 46 -184 138v18.5c0 5 1.33301 14.167 4 27.5l23 130c8.66699 48.667 34 90.334 76 125.001
c46 38 101.333 57 166 57h208c60.667 0 107.334 -14 140.001 -42c30 -26 45 -60 45 -102l-3 -30zM306 693.999h72l-13 -72h-72zM484 693.999h72l-13 -72h-72z" />
    <glyph glyph-name="cedilla" unicode="&#x451;" horiz-adv-x="728" 
d="M600 302l3 32c0 32 -9.66699 57 -29 75s-47 27 -83 27h-226c-38 0 -70.833 -12.167 -98.5 -36.5s-45.167 -56.833 -52.5 -97.5h486zM661 242l-558 -0.000976562l-8 -48l-4 -37c0 -34.667 11 -60 33 -76c19.333 -14 47.333 -21 84 -21h234
c38.667 0 69.167 8.83301 91.5 26.5s36.166 41.5 41.499 71.5h72c-8 -42 -26.333 -77.333 -55 -106c-36.667 -34.667 -86 -52 -148 -52h-243c-122.667 0 -184 46 -184 138v18.5c0 5 1.33301 14.167 4 27.5l23 130c8.66699 48.667 34 90.334 76 125.001
c46 38 101.333 57 166 57h208c60.667 0 107.334 -14 140.001 -42c30 -26 45 -60 45 -102l-3 -30zM306 693.999h72l-13 -72h-72zM484 693.999h72l-13 -72h-72z" />
    <glyph glyph-name="onesuperior" unicode="&#xb9;" horiz-adv-x="1261" 
d="M119 694h160l425 -622l109 622h72l-122 -694h-104l-437 640h-40l-113 -640h-72zM862 196h316l-8 -40h-316zM895 441c5.33301 30 18.1699 53.833 38.5029 71.5s49.166 26.5 86.499 26.5h100c33.333 0 57.166 -6.66699 71.499 -20s21.5 -31.666 21.5 -54.999l-2 -23
l-10 -54c-4.66699 -28.667 -16.334 -51.334 -35.001 -68.001c-22 -20 -52 -30 -90 -30h-100c-62 0 -93 23.333 -93 70l2 28zM921.004 387l-2.00098 -18c0 -32 22 -48 66 -48h92c24 0 43.5 5.16699 58.5 15.5s24.833 27.166 29.5 50.499l8 43l3 26c0 34 -22 51 -66 51h-92
c-25.333 0 -45.166 -5.16699 -59.499 -15.5s-23.5 -27.166 -27.5 -50.499z" />
    <glyph glyph-name="onesuperior" unicode="&#x2116;" horiz-adv-x="1261" 
d="M119 694h160l425 -622l109 622h72l-122 -694h-104l-437 640h-40l-113 -640h-72zM862 196h316l-8 -40h-316zM895 441c5.33301 30 18.1699 53.833 38.5029 71.5s49.166 26.5 86.499 26.5h100c33.333 0 57.166 -6.66699 71.499 -20s21.5 -31.666 21.5 -54.999l-2 -23
l-10 -54c-4.66699 -28.667 -16.334 -51.334 -35.001 -68.001c-22 -20 -52 -30 -90 -30h-100c-62 0 -93 23.333 -93 70l2 28zM921.004 387l-2.00098 -18c0 -32 22 -48 66 -48h92c24 0 43.5 5.16699 58.5 15.5s24.833 27.166 29.5 50.499l8 43l3 26c0 34 -22 51 -66 51h-92
c-25.333 0 -45.166 -5.16699 -59.499 -15.5s-23.5 -27.166 -27.5 -50.499z" />
    <glyph glyph-name="ordmasculine" unicode="&#xba;" 
d="M543 290l-10.001 -60.001h-422c-4.66699 -24 -7.66699 -40.833 -9 -50.5s-2 -17.167 -2 -22.5c0 -30.667 10.333 -54.5 31 -71.5s47 -25.5 79 -25.5h220c54.667 0 95.667 14.333 123 43c18 18.667 29.333 42.334 34 71.001h72
c-9.33301 -54.667 -35.166 -97.334 -77.499 -128.001s-96.5 -46 -162.5 -46h-221c-58 0 -101.167 11.833 -129.5 35.5s-42.5 57.834 -42.5 102.501v18c0 5.33301 1.33301 14 4 26l22 124c10 56.667 34.667 101.667 74 135c42.667 36.667 98 55 166 55h216
c68.667 0 118 -16.667 148 -50c21.333 -24 32 -54.667 32 -92l-3 -32h-72l2 23c0 24 -7 43.667 -21 59c-20 21.333 -52.333 32 -97 32h-216c-42.667 0 -77.5 -10.833 -104.5 -32.5s-44.5 -54.167 -52.5 -97.5l-3 -16h422z" />
    <glyph glyph-name="ordmasculine" unicode="&#x454;" 
d="M543 290l-10.001 -60.001h-422c-4.66699 -24 -7.66699 -40.833 -9 -50.5s-2 -17.167 -2 -22.5c0 -30.667 10.333 -54.5 31 -71.5s47 -25.5 79 -25.5h220c54.667 0 95.667 14.333 123 43c18 18.667 29.333 42.334 34 71.001h72
c-9.33301 -54.667 -35.166 -97.334 -77.499 -128.001s-96.5 -46 -162.5 -46h-221c-58 0 -101.167 11.833 -129.5 35.5s-42.5 57.834 -42.5 102.501v18c0 5.33301 1.33301 14 4 26l22 124c10 56.667 34.667 101.667 74 135c42.667 36.667 98 55 166 55h216
c68.667 0 118 -16.667 148 -50c21.333 -24 32 -54.667 32 -92l-3 -32h-72l2 23c0 24 -7 43.667 -21 59c-20 21.333 -52.333 32 -97 32h-216c-42.667 0 -77.5 -10.833 -104.5 -32.5s-44.5 -54.167 -52.5 -97.5l-3 -16h422z" />
    <glyph glyph-name="guillemotright" unicode="&#xbb;" horiz-adv-x="554" 
d="M251 278l-141 174l38 32l169 -206l-235 -200l-28 32zM437 278l-143 174l40 32l169 -206l-237 -200l-26 32z" />
    <glyph glyph-name="onequarter" unicode="&#xbc;" horiz-adv-x="446" 
d="M61 326h328l-12 -66h-328zM146 92l14 78h78l-14 -78h-78zM204 416l14 78h78l-14 -78h-78z" />
    <glyph glyph-name="onequarter" unicode="&#x458;" horiz-adv-x="446" 
d="M61 326h328l-12 -66h-328zM146 92l14 78h78l-14 -78h-78zM204 416l14 78h78l-14 -78h-78z" />
    <glyph glyph-name="onehalf" unicode="&#xbd;" horiz-adv-x="468" 
d="M156 442l84 -102l120 102l38 -47l-119 -102l85 -103l-55 -46l-85 103l-121 -103l-39 46l121 103l-83 102z" />
    <glyph glyph-name="onehalf" unicode="&#x405;" horiz-adv-x="468" 
d="M156 442l84 -102l120 102l38 -47l-119 -102l85 -103l-55 -46l-85 103l-121 -103l-39 46l121 103l-83 102z" />
    <glyph glyph-name="threequarters" unicode="&#xbe;" horiz-adv-x="466" 
d="M53 0l14 78h78l-14 -78h-78zM327 0l14 78h78l-14 -78h-78zM190 0l14 78h78l-14 -78h-78z" />
    <glyph glyph-name="threequarters" unicode="&#x455;" horiz-adv-x="466" 
d="M53 0l14 78h78l-14 -78h-78zM327 0l14 78h78l-14 -78h-78zM190 0l14 78h78l-14 -78h-78z" />
    <glyph glyph-name="questiondown" unicode="&#xbf;" horiz-adv-x="221" 
d="M50 694h72l-13 -72h-72zM228 694h72l-13 -72h-72zM176 494l-87 -494h-72l87 494h72z" />
    <glyph glyph-name="questiondown" unicode="&#x457;" horiz-adv-x="221" 
d="M50 694h72l-13 -72h-72zM228 694h72l-13 -72h-72zM176 494l-87 -494h-72l87 494h72z" />
    <glyph glyph-name="Agrave" unicode="&#xc0;" horiz-adv-x="846" 
d="M27 0h-80l482 694h110l238 -694h-84l-59 174h-488zM198 244h412l-136 400z" />
    <glyph glyph-name="Agrave" unicode="&#x410;" horiz-adv-x="846" 
d="M27 0h-80l482 694h110l238 -694h-84l-59 174h-488zM198 244h412l-136 400z" />
    <glyph glyph-name="Aacute" unicode="&#xc1;" horiz-adv-x="814" 
d="M123 694l652.999 0.000976562l-12 -70h-581l-38 -217h397c74.667 0 128.834 -10.667 162.501 -32s50.5 -57.333 50.5 -108c0 -92.667 -20.667 -160.334 -62 -203.001s-107 -64 -197 -64h-495zM131.999 337.001l-47 -266.998h425c58 0 100 11.667 126 35
c30 27.333 45 74.666 45 141.999c0 33.333 -10 56.666 -30 69.999s-53.667 20 -101 20h-418z" />
    <glyph glyph-name="Aacute" unicode="&#x411;" horiz-adv-x="814" 
d="M123 694l652.999 0.000976562l-12 -70h-581l-38 -217h397c74.667 0 128.834 -10.667 162.501 -32s50.5 -57.333 50.5 -108c0 -92.667 -20.667 -160.334 -62 -203.001s-107 -64 -197 -64h-495zM131.999 337.001l-47 -266.998h425c58 0 100 11.667 126 35
c30 27.333 45 74.666 45 141.999c0 33.333 -10 56.666 -30 69.999s-53.667 20 -101 20h-418z" />
    <glyph glyph-name="Acircumflex" unicode="&#xc2;" horiz-adv-x="890" 
d="M183 624l-40 -226h472c54 0 93.667 9.33301 119 28c30 22 45 59.667 45 113c0 28.667 -9.66699 50 -29 64s-51 21 -95 21h-472zM1 0l122 694h516c143.333 0 215 -46 215 -138c0 -54 -15 -100.333 -45 -139c-24.667 -31.333 -49 -48.333 -73 -51
c12 -2.66699 23.333 -7.66699 34 -15c32.667 -23.333 49 -58.666 49 -105.999c0 -86.667 -27 -150.334 -81 -191.001c-47.333 -36 -115 -54 -203 -54h-534zM131 328l-46 -258h490c52.667 0 93.667 13 123 39c32 28 48 70.333 48 127c0 32.667 -11 56.167 -33 70.5
s-54.667 21.5 -98 21.5h-484z" />
    <glyph glyph-name="Acircumflex" unicode="&#x412;" horiz-adv-x="890" 
d="M183 624l-40 -226h472c54 0 93.667 9.33301 119 28c30 22 45 59.667 45 113c0 28.667 -9.66699 50 -29 64s-51 21 -95 21h-472zM1 0l122 694h516c143.333 0 215 -46 215 -138c0 -54 -15 -100.333 -45 -139c-24.667 -31.333 -49 -48.333 -73 -51
c12 -2.66699 23.333 -7.66699 34 -15c32.667 -23.333 49 -58.666 49 -105.999c0 -86.667 -27 -150.334 -81 -191.001c-47.333 -36 -115 -54 -203 -54h-534zM131 328l-46 -258h490c52.667 0 93.667 13 123 39c32 28 48 70.333 48 127c0 32.667 -11 56.167 -33 70.5
s-54.667 21.5 -98 21.5h-484z" />
    <glyph glyph-name="Atilde" unicode="&#xc3;" 
d="M129 694h595l-12 -70h-523l-110 -624h-72z" />
    <glyph glyph-name="Atilde" unicode="&#x413;" 
d="M129 694h595l-12 -70h-523l-110 -624h-72z" />
    <glyph glyph-name="Adieresis" unicode="&#xc4;" horiz-adv-x="951" 
d="M753 70l97 554h-541l-63 -357c-8 -46 -20.333 -84.667 -37 -116c-18.667 -36 -43 -63 -73 -81h617zM935 694l-109.999 -624h57l-46 -258h-68l33 188h-733l-33 -188h-68l46 258h37c33.333 21.333 59.333 45 78 71c21.333 30 35.666 65.667 42.999 107l79 446h685z" />
    <glyph glyph-name="Adieresis" unicode="&#x414;" horiz-adv-x="951" 
d="M753 70l97 554h-541l-63 -357c-8 -46 -20.333 -84.667 -37 -116c-18.667 -36 -43 -63 -73 -81h617zM935 694l-109.999 -624h57l-46 -258h-68l33 188h-733l-33 -188h-68l46 258h37c33.333 21.333 59.333 45 78 71c21.333 30 35.666 65.667 42.999 107l79 446h685z" />
    <glyph glyph-name="Aring" unicode="&#xc5;" horiz-adv-x="738" 
d="M-1 0l122 694h615l-12 -70h-543l-41 -230h529l-12 -70h-529l-45 -254h543l-12 -70h-615z" />
    <glyph glyph-name="Aring" unicode="&#x415;" horiz-adv-x="738" 
d="M-1 0l122 694h615l-12 -70h-543l-41 -230h529l-12 -70h-529l-45 -254h543l-12 -70h-615z" />
    <glyph glyph-name="AE" unicode="&#xc6;" horiz-adv-x="1408" 
d="M604 0l59 338h-127l-463 -338h-113l523 375l-392 319h116l353 -286h116l50 286h72l-50 -286h116l452 286h117l-504 -319l391 -375h-113l-344 338h-128l-59 -338h-72z" />
    <glyph glyph-name="AE" unicode="&#x416;" horiz-adv-x="1408" 
d="M604 0l59 338h-127l-463 -338h-113l523 375l-392 319h116l353 -286h116l50 286h72l-50 -286h116l452 286h117l-504 -319l391 -375h-113l-344 338h-128l-59 -338h-72z" />
    <glyph glyph-name="Ccedilla" unicode="&#xc7;" horiz-adv-x="912" 
d="M15 196l71.998 0.00195312l-3 -33c0 -32 12.333 -55.5 37 -70.5s65.334 -22.5 122.001 -22.5h304c74.667 0 127.667 11.333 159 34c35.333 25.333 53 70.666 53 135.999c0 26 -7 45.667 -21 59c-16.667 16 -42.667 24 -78 24h-429l12 70h409c52.667 0 90 10.667 112 32
s33 59.333 33 114c0 33.333 -12 57.166 -36 71.499s-65.333 21.5 -124 21.5h-294c-66 0 -115 -11.333 -147 -34c-29.333 -20.667 -47.666 -52 -54.999 -94h-72c23.333 132 119 198 287 198h294c76 0 132.333 -14 169 -42c34.667 -26 52 -63.333 52 -112
c0 -54 -12.667 -98.667 -38 -134c-21.333 -30 -46.333 -47.333 -75 -52c26 -10 44.833 -23.5 56.5 -40.5s17.5 -40.833 17.5 -71.5c0 -87.333 -23.5 -150.833 -70.5 -190.5s-122.167 -59.5 -225.5 -59.5h-305c-78 -0 -134.333 11.833 -169 35.5s-52 60.167 -52 109.5
c0 14 1.66699 31 5 51z" />
    <glyph glyph-name="Ccedilla" unicode="&#x417;" horiz-adv-x="912" 
d="M15 196l71.998 0.00195312l-3 -33c0 -32 12.333 -55.5 37 -70.5s65.334 -22.5 122.001 -22.5h304c74.667 0 127.667 11.333 159 34c35.333 25.333 53 70.666 53 135.999c0 26 -7 45.667 -21 59c-16.667 16 -42.667 24 -78 24h-429l12 70h409c52.667 0 90 10.667 112 32
s33 59.333 33 114c0 33.333 -12 57.166 -36 71.499s-65.333 21.5 -124 21.5h-294c-66 0 -115 -11.333 -147 -34c-29.333 -20.667 -47.666 -52 -54.999 -94h-72c23.333 132 119 198 287 198h294c76 0 132.333 -14 169 -42c34.667 -26 52 -63.333 52 -112
c0 -54 -12.667 -98.667 -38 -134c-21.333 -30 -46.333 -47.333 -75 -52c26 -10 44.833 -23.5 56.5 -40.5s17.5 -40.833 17.5 -71.5c0 -87.333 -23.5 -150.833 -70.5 -190.5s-122.167 -59.5 -225.5 -59.5h-305c-78 -0 -134.333 11.833 -169 35.5s-52 60.167 -52 109.5
c0 14 1.66699 31 5 51z" />
    <glyph glyph-name="Egrave" unicode="&#xc8;" horiz-adv-x="880" 
d="M763 0h-72l113 640h-27l-663 -640h-117l122 694h72l-113 -640h6l662 640h139z" />
    <glyph glyph-name="Egrave" unicode="&#x418;" horiz-adv-x="880" 
d="M763 0h-72l113 640h-27l-663 -640h-117l122 694h72l-113 -640h6l662 640h139z" />
    <glyph glyph-name="Eacute" unicode="&#xc9;" horiz-adv-x="880" 
d="M746 0h-72l113 640h-27l-663 -640h-117l122 694h72l-112 -640h6l661 640h139zM671 885l72 -0.00195312c-9.33301 -51.333 -34.833 -91.833 -76.5 -121.5s-95.167 -44.5 -160.5 -44.5h-81c-68 0 -117.333 17.333 -148 52c-22 24.667 -33 55.334 -33 92.001l2 22h72
c0 -27.333 5 -48.666 15 -63.999c18.667 -28 53 -42 103 -42h79c53.333 0 94.333 14.333 123 43c18.667 18.667 29.667 39.667 33 63z" />
    <glyph glyph-name="Eacute" unicode="&#x419;" horiz-adv-x="880" 
d="M746 0h-72l113 640h-27l-663 -640h-117l122 694h72l-112 -640h6l661 640h139zM671 885l72 -0.00195312c-9.33301 -51.333 -34.833 -91.833 -76.5 -121.5s-95.167 -44.5 -160.5 -44.5h-81c-68 0 -117.333 17.333 -148 52c-22 24.667 -33 55.334 -33 92.001l2 22h72
c0 -27.333 5 -48.666 15 -63.999c18.667 -28 53 -42 103 -42h79c53.333 0 94.333 14.333 123 43c18.667 18.667 29.667 39.667 33 63z" />
    <glyph glyph-name="Ecircumflex" unicode="&#xca;" horiz-adv-x="827" 
d="M118 327l-57 -327h-72l122 694h72l-52 -297h116l491 297h126l-548 -331l438 -363h-126l-391 327h-119z" />
    <glyph glyph-name="Ecircumflex" unicode="&#x41a;" horiz-adv-x="827" 
d="M118 327l-57 -327h-72l122 694h72l-52 -297h116l491 297h126l-548 -331l438 -363h-126l-391 327h-119z" />
    <glyph glyph-name="Edieresis" unicode="&#xcb;" horiz-adv-x="897" 
d="M821 622l-565.998 0.000976562l-80 -458c-10.667 -58.667 -32.334 -101.334 -65.001 -128.001c-30 -24 -70.667 -36 -122 -36h-29l12 70h38c21.333 0 39.666 6 54.999 18c20 16 33 41.333 39 76l93 530h710l-122 -694h-72z" />
    <glyph glyph-name="Edieresis" unicode="&#x41b;" horiz-adv-x="897" 
d="M821 622l-565.998 0.000976562l-80 -458c-10.667 -58.667 -32.334 -101.334 -65.001 -128.001c-30 -24 -70.667 -36 -122 -36h-29l12 70h38c21.333 0 39.666 6 54.999 18c20 16 33 41.333 39 76l93 530h710l-122 -694h-72z" />
    <glyph glyph-name="Igrave" unicode="&#xcc;" horiz-adv-x="1128" 
d="M1129 694l-122 -694h-72l112 638h-40l-486 -638h-37l-262 638h-41l-112 -638h-72l122 694h154l248 -592l454 592h154z" />
    <glyph glyph-name="Igrave" unicode="&#x41c;" horiz-adv-x="1128" 
d="M1129 694l-122 -694h-72l112 638h-40l-486 -638h-37l-262 638h-41l-112 -638h-72l122 694h154l248 -592l454 592h154z" />
    <glyph glyph-name="Iacute" unicode="&#xcd;" horiz-adv-x="880" 
d="M136 323l-57 -323h-72l122 694h72l-53 -301h616l53 301h72l-122 -694h-72l57 323h-616z" />
    <glyph glyph-name="Iacute" unicode="&#x41d;" horiz-adv-x="880" 
d="M136 323l-57 -323h-72l122 694h72l-53 -301h616l53 301h72l-122 -694h-72l57 323h-616z" />
    <glyph glyph-name="Icircumflex" unicode="&#xce;" horiz-adv-x="912" 
d="M811 460c0.666992 4.66699 1.99902 14.499 3.99902 29.499s3 27.833 3 38.5c0 40 -11.667 67.333 -35 82s-63.333 22 -120 22h-304c-67.333 0 -117.166 -12.167 -149.499 -36.5s-54.5 -69.5 -66.5 -135.5l-39 -222c-4 -22 -6 -41.667 -6 -59
c0 -41.333 12.333 -69.833 37 -85.5s66 -23.5 124 -23.5h304c74.667 0 125.167 10.833 151.5 32.5s45.5 66.834 57.5 135.501zM843.999 237.999c-16.667 -96 -46.6689 -160.335 -90.002 -193.002c-39.333 -30 -106.666 -45 -201.999 -45h-304
c-80 0 -137.333 11.833 -172 35.5s-52 64.834 -52 123.501c0 20.667 2.66699 47 8 79l38 216c16.667 90.667 46.834 154.667 90.501 192s114.167 56 211.5 56h304c74.667 0 128 -10.667 160 -32c36.667 -24 55 -66.667 55 -128c0 -25.333 -3 -54.666 -9 -87.999z" />
    <glyph glyph-name="Icircumflex" unicode="&#x41e;" horiz-adv-x="912" 
d="M811 460c0.666992 4.66699 1.99902 14.499 3.99902 29.499s3 27.833 3 38.5c0 40 -11.667 67.333 -35 82s-63.333 22 -120 22h-304c-67.333 0 -117.166 -12.167 -149.499 -36.5s-54.5 -69.5 -66.5 -135.5l-39 -222c-4 -22 -6 -41.667 -6 -59
c0 -41.333 12.333 -69.833 37 -85.5s66 -23.5 124 -23.5h304c74.667 0 125.167 10.833 151.5 32.5s45.5 66.834 57.5 135.501zM843.999 237.999c-16.667 -96 -46.6689 -160.335 -90.002 -193.002c-39.333 -30 -106.666 -45 -201.999 -45h-304
c-80 0 -137.333 11.833 -172 35.5s-52 64.834 -52 123.501c0 20.667 2.66699 47 8 79l38 216c16.667 90.667 46.834 154.667 90.501 192s114.167 56 211.5 56h304c74.667 0 128 -10.667 160 -32c36.667 -24 55 -66.667 55 -128c0 -25.333 -3 -54.666 -9 -87.999z" />
    <glyph glyph-name="Idieresis" unicode="&#xcf;" horiz-adv-x="880" 
d="M7 0l122 694h760l-122 -694h-72l110 624h-616l-110 -624h-72z" />
    <glyph glyph-name="Idieresis" unicode="&#x41f;" horiz-adv-x="880" 
d="M7 0l122 694h760l-122 -694h-72l110 624h-616l-110 -624h-72z" />
    <glyph glyph-name="Eth" unicode="&#xd0;" horiz-adv-x="814" 
d="M1 0l122 694h468c74 0 127.833 -11.5 161.5 -34.5s50.5 -61.167 50.5 -114.5c0 -19.333 -2 -41 -6 -65c-13.333 -74.667 -40.5 -125.5 -81.5 -152.5s-106.167 -40.5 -195.5 -40.5h-397l-50 -287h-72zM136 357l417.999 -0.00195312c58.667 0 99 7.33301 121 22
c24.667 16.667 41.334 50.334 50.001 101.001c3.33301 20.667 5 33.334 5 38.001v12c0 34 -9.5 58.167 -28.5 72.5s-50.167 21.5 -93.5 21.5h-425z" />
    <glyph glyph-name="Eth" unicode="&#x420;" horiz-adv-x="814" 
d="M1 0l122 694h468c74 0 127.833 -11.5 161.5 -34.5s50.5 -61.167 50.5 -114.5c0 -19.333 -2 -41 -6 -65c-13.333 -74.667 -40.5 -125.5 -81.5 -152.5s-106.167 -40.5 -195.5 -40.5h-397l-50 -287h-72zM136 357l417.999 -0.00195312c58.667 0 99 7.33301 121 22
c24.667 16.667 41.334 50.334 50.001 101.001c3.33301 20.667 5 33.334 5 38.001v12c0 34 -9.5 58.167 -28.5 72.5s-50.167 21.5 -93.5 21.5h-425z" />
    <glyph glyph-name="Ntilde" unicode="&#xd1;" horiz-adv-x="912" 
d="M755 198h71.998c-12 -67.333 -40.333 -117.166 -85 -149.499s-112 -48.5 -202 -48.5h-304c-78 0 -134.167 12.833 -168.5 38.5s-51.5 68.167 -51.5 127.5c0 21.333 2.66699 48.666 8 81.999l35 200c16.667 92 47.834 157.333 93.501 196s114.834 58 207.501 58h304
c147.333 0 221 -50.333 221 -151v-28c-2 -8.66699 -3.33301 -15 -4 -19h-72l3 31c0 32 -11.333 55.667 -34 71c-25.333 17.333 -67 26 -125 26h-304c-70.667 0 -121.5 -12.833 -152.5 -38.5s-52.833 -74.167 -65.5 -145.5l-35 -200c-2 -13.333 -3.66699 -25.333 -5 -36
s-2 -20.667 -2 -30c0 -42 12.167 -71.167 36.5 -87.5s65.5 -24.5 123.5 -24.5h304c65.333 0 113.5 10.167 144.5 30.5s50.167 52.833 57.5 97.5z" />
    <glyph glyph-name="Ntilde" unicode="&#x421;" horiz-adv-x="912" 
d="M755 198h71.998c-12 -67.333 -40.333 -117.166 -85 -149.499s-112 -48.5 -202 -48.5h-304c-78 0 -134.167 12.833 -168.5 38.5s-51.5 68.167 -51.5 127.5c0 21.333 2.66699 48.666 8 81.999l35 200c16.667 92 47.834 157.333 93.501 196s114.834 58 207.501 58h304
c147.333 0 221 -50.333 221 -151v-28c-2 -8.66699 -3.33301 -15 -4 -19h-72l3 31c0 32 -11.333 55.667 -34 71c-25.333 17.333 -67 26 -125 26h-304c-70.667 0 -121.5 -12.833 -152.5 -38.5s-52.833 -74.167 -65.5 -145.5l-35 -200c-2 -13.333 -3.66699 -25.333 -5 -36
s-2 -20.667 -2 -30c0 -42 12.167 -71.167 36.5 -87.5s65.5 -24.5 123.5 -24.5h304c65.333 0 113.5 10.167 144.5 30.5s50.167 52.833 57.5 97.5z" />
    <glyph glyph-name="Ograve" unicode="&#xd2;" horiz-adv-x="792" 
d="M83 694h748l-12 -70h-339l-110 -624h-72l110 624h-337z" />
    <glyph glyph-name="Ograve" unicode="&#x422;" horiz-adv-x="792" 
d="M83 694h748l-12 -70h-339l-110 -624h-72l110 624h-337z" />
    <glyph glyph-name="Oacute" unicode="&#xd3;" horiz-adv-x="789" 
d="M752 694h86.001l-385 -494c-66 -84.667 -116.167 -139.167 -150.5 -163.5s-79.833 -36.5 -136.5 -36.5h-28l16 70h25c37.333 0 64.666 5 81.999 15s39.333 32 66 66l-257 543h83l225 -487z" />
    <glyph glyph-name="Oacute" unicode="&#x423;" horiz-adv-x="789" 
d="M752 694h86.001l-385 -494c-66 -84.667 -116.167 -139.167 -150.5 -163.5s-79.833 -36.5 -136.5 -36.5h-28l16 70h25c37.333 0 64.666 5 81.999 15s39.333 32 66 66l-257 543h83l225 -487z" />
    <glyph glyph-name="Ocircumflex" unicode="&#xd4;" horiz-adv-x="1114" 
d="M477 138l77.001 432h-210c-67.333 0 -117.333 -12.167 -150 -36.5s-55 -69.5 -67 -135.5l-16 -91c-4 -23.333 -6 -43.333 -6 -60c0 -40.667 12.667 -69 38 -85s66.666 -24 123.999 -24h210zM626.001 570l-77 -432h211c69.333 0 119.5 11.5 150.5 34.5
s52.5 67.5 64.5 133.5l16 91c4 22 6 41.333 6 58c0 42.667 -12.667 72.5 -38 89.5s-66 25.5 -122 25.5h-211zM577.001 702l72 -0.000976562l-11 -62h210c79.333 0 136.166 -13.667 170.499 -41s51.5 -70 51.5 -128c0 -22 -2.66699 -48.333 -8 -79l-15 -86
c-15.333 -88.667 -45.333 -150.5 -90 -185.5s-114.667 -52.5 -210 -52.5h-210l-12 -68h-72l12 68h-210c-80 0 -137.333 11.833 -172 35.5s-52 64.834 -52 123.501c0 22 2.66699 48.333 8 79l15 86c16.667 90.667 46.834 154.667 90.501 192s114.167 56 211.5 56h210z" />
    <glyph glyph-name="Ocircumflex" unicode="&#x424;" horiz-adv-x="1114" 
d="M477 138l77.001 432h-210c-67.333 0 -117.333 -12.167 -150 -36.5s-55 -69.5 -67 -135.5l-16 -91c-4 -23.333 -6 -43.333 -6 -60c0 -40.667 12.667 -69 38 -85s66.666 -24 123.999 -24h210zM626.001 570l-77 -432h211c69.333 0 119.5 11.5 150.5 34.5
s52.5 67.5 64.5 133.5l16 91c4 22 6 41.333 6 58c0 42.667 -12.667 72.5 -38 89.5s-66 25.5 -122 25.5h-211zM577.001 702l72 -0.000976562l-11 -62h210c79.333 0 136.166 -13.667 170.499 -41s51.5 -70 51.5 -128c0 -22 -2.66699 -48.333 -8 -79l-15 -86
c-15.333 -88.667 -45.333 -150.5 -90 -185.5s-114.667 -52.5 -210 -52.5h-210l-12 -68h-72l12 68h-210c-80 0 -137.333 11.833 -172 35.5s-52 64.834 -52 123.501c0 22 2.66699 48.333 8 79l15 86c16.667 90.667 46.834 154.667 90.501 192s114.167 56 211.5 56h210z" />
    <glyph glyph-name="Otilde" unicode="&#xd5;" horiz-adv-x="858" 
d="M767 694h96l-383 -326l303 -368h-96l-275 334l-393 -334h-96l433 368l-264 326h91l240 -294z" />
    <glyph glyph-name="Otilde" unicode="&#x425;" horiz-adv-x="858" 
d="M767 694h96l-383 -326l303 -368h-96l-275 334l-393 -334h-96l433 368l-264 326h91l240 -294z" />
    <glyph glyph-name="Odieresis" unicode="&#xd6;" horiz-adv-x="936" 
d="M108 70h616l110 624h72l-110 -624h58l-46 -258h-68l33 188h-750l123 694h72z" />
    <glyph glyph-name="Odieresis" unicode="&#x426;" horiz-adv-x="936" 
d="M108 70h616l110 624h72l-110 -624h58l-46 -258h-68l33 188h-750l123 694h72z" />
    <glyph glyph-name="multiply" unicode="&#xd7;" horiz-adv-x="853" 
d="M124 694l72 -0.00195312l-36 -205c-1.33301 -5.33301 -2.33301 -11.833 -3 -19.5s-1 -14.5 -1 -20.5c0 -34.667 12.5 -59.667 37.5 -75s67.833 -23 128.5 -23h232c60.667 0 106 10 136 30c23.333 15.333 43 42 59 80l41 233h72l-122 -694h-72l60 341
c-20 -21.333 -46 -36.666 -78 -45.999s-68.333 -14 -109 -14h-232c-77.333 0 -133 11 -167 33c-38 24.667 -57 66.667 -57 126c0 20.667 2.66699 46.334 8 77.001z" />
    <glyph glyph-name="multiply" unicode="&#x427;" horiz-adv-x="853" 
d="M124 694l72 -0.00195312l-36 -205c-1.33301 -5.33301 -2.33301 -11.833 -3 -19.5s-1 -14.5 -1 -20.5c0 -34.667 12.5 -59.667 37.5 -75s67.833 -23 128.5 -23h232c60.667 0 106 10 136 30c23.333 15.333 43 42 59 80l41 233h72l-122 -694h-72l60 341
c-20 -21.333 -46 -36.666 -78 -45.999s-68.333 -14 -109 -14h-232c-77.333 0 -133 11 -167 33c-38 24.667 -57 66.667 -57 126c0 20.667 2.66699 46.334 8 77.001z" />
    <glyph glyph-name="Oslash" unicode="&#xd8;" horiz-adv-x="1203" 
d="M137 694h72l-110 -624h417l110 624h72l-110 -624h417l110 624h72l-122 -694h-1050z" />
    <glyph glyph-name="Oslash" unicode="&#x428;" horiz-adv-x="1203" 
d="M137 694h72l-110 -624h417l110 624h72l-110 -624h417l110 624h72l-122 -694h-1050z" />
    <glyph glyph-name="Ugrave" unicode="&#xd9;" horiz-adv-x="1203" 
d="M154 694h72l-110 -624h417l110 624h72l-110 -624h417l110 624h72l-110 -624h59l-46 -260h-69l34 190h-1040z" />
    <glyph glyph-name="Ugrave" unicode="&#x429;" horiz-adv-x="1203" 
d="M154 694h72l-110 -624h417l110 624h72l-110 -624h417l110 624h72l-110 -624h59l-46 -260h-69l34 190h-1040z" />
    <glyph glyph-name="Uacute" unicode="&#xda;" horiz-adv-x="924" 
d="M77 694h227.999l-50 -287h397c74.667 0 128.834 -10.667 162.501 -32s50.5 -57.333 50.5 -108c0 -7.33301 -0.5 -15.5 -1.5 -24.5s-2.83301 -22.5 -5.5 -40.5c-12.667 -73.333 -37.5 -125.333 -74.5 -156s-96.167 -46 -177.5 -46h-495l110 624h-156zM241.999 337
l-46.999 -266.999h425c54 0 92 8 114 24c25.333 18 42.666 53.333 51.999 106c2 14 3.33301 23 4 27s1 10.667 1 20c0 33.333 -10 56.666 -30 69.999s-53.667 20 -101 20h-418z" />
    <glyph glyph-name="Uacute" unicode="&#x42a;" horiz-adv-x="924" 
d="M77 694h227.999l-50 -287h397c74.667 0 128.834 -10.667 162.501 -32s50.5 -57.333 50.5 -108c0 -7.33301 -0.5 -15.5 -1.5 -24.5s-2.83301 -22.5 -5.5 -40.5c-12.667 -73.333 -37.5 -125.333 -74.5 -156s-96.167 -46 -177.5 -46h-495l110 624h-156zM241.999 337
l-46.999 -266.999h425c54 0 92 8 114 24c25.333 18 42.666 53.333 51.999 106c2 14 3.33301 23 4 27s1 10.667 1 20c0 33.333 -10 56.666 -30 69.999s-53.667 20 -101 20h-418z" />
    <glyph glyph-name="Ucircumflex" unicode="&#xdb;" horiz-adv-x="1028" 
d="M1 0l121.999 694h72l-50 -287h397c74.667 0 128.834 -10.667 162.501 -32s50.5 -57.333 50.5 -108c0 -7.33301 -0.5 -15.5 -1.5 -24.5s-2.83301 -22.5 -5.5 -40.5c-12.667 -73.333 -37.5 -125.333 -74.5 -156s-96.167 -46 -177.5 -46h-495zM131.999 337l-46.999 -266.999
h425c54 0 92 8 114 24c25.333 18 42.666 53.333 51.999 106c2 14 3.33301 23 4 27s1 10.667 1 20c0 33.333 -10 56.666 -30 69.999s-53.667 20 -101 20h-418zM1026 694.001l-122 -694h-72l122 694h72z" />
    <glyph glyph-name="Ucircumflex" unicode="&#x42b;" horiz-adv-x="1028" 
d="M1 0l121.999 694h72l-50 -287h397c74.667 0 128.834 -10.667 162.501 -32s50.5 -57.333 50.5 -108c0 -7.33301 -0.5 -15.5 -1.5 -24.5s-2.83301 -22.5 -5.5 -40.5c-12.667 -73.333 -37.5 -125.333 -74.5 -156s-96.167 -46 -177.5 -46h-495zM131.999 337l-46.999 -266.999
h425c54 0 92 8 114 24c25.333 18 42.666 53.333 51.999 106c2 14 3.33301 23 4 27s1 10.667 1 20c0 33.333 -10 56.666 -30 69.999s-53.667 20 -101 20h-418zM1026 694.001l-122 -694h-72l122 694h72z" />
    <glyph glyph-name="Udieresis" unicode="&#xdc;" horiz-adv-x="814" 
d="M123 694h71.999l-50 -287h397c74.667 0 128.834 -10.667 162.501 -32s50.5 -57.333 50.5 -108c0 -7.33301 -0.5 -15.5 -1.5 -24.5s-2.83301 -22.5 -5.5 -40.5c-12.667 -73.333 -37.5 -125.333 -74.5 -156s-96.167 -46 -177.5 -46h-495zM131.999 337l-46.999 -266.999h425
c54 0 92 8 114 24c25.333 18 42.666 53.333 51.999 106c2 14 3.33301 23 4 27s1 10.667 1 20c0 33.333 -10 56.666 -30 69.999s-53.667 20 -101 20h-418z" />
    <glyph glyph-name="Udieresis" unicode="&#x42c;" horiz-adv-x="814" 
d="M123 694h71.999l-50 -287h397c74.667 0 128.834 -10.667 162.501 -32s50.5 -57.333 50.5 -108c0 -7.33301 -0.5 -15.5 -1.5 -24.5s-2.83301 -22.5 -5.5 -40.5c-12.667 -73.333 -37.5 -125.333 -74.5 -156s-96.167 -46 -177.5 -46h-495zM131.999 337l-46.999 -266.999h425
c54 0 92 8 114 24c25.333 18 42.666 53.333 51.999 106c2 14 3.33301 23 4 27s1 10.667 1 20c0 33.333 -10 56.666 -30 69.999s-53.667 20 -101 20h-418z" />
    <glyph glyph-name="Yacute" unicode="&#xdd;" horiz-adv-x="912" 
d="M177 323l12 69.998h600l10 55c4.66699 25.333 7 49 7 71c0 42.667 -11.833 72.167 -35.5 88.5s-64.834 24.5 -123.501 24.5h-304c-66 0 -115 -11.333 -147 -34c-29.333 -20.667 -47.666 -52 -54.999 -94h-72c23.333 132 119 198 287 198h304
c76.667 0 132.5 -13.167 167.5 -39.5s52.5 -69.166 52.5 -128.499c0 -25.333 -3 -54 -9 -86l-36 -202c-15.333 -89.333 -45.666 -152.666 -90.999 -189.999s-114.666 -56 -207.999 -56h-304c-78 -0 -134.5 11.833 -169.5 35.5s-52.5 60.167 -52.5 109.5
c0 14 1.66699 31 5 51h72l-3 -34c0 -32.667 12.167 -56.167 36.5 -70.5s65.166 -21.5 122.499 -21.5h304c69.333 0 119.666 12.333 150.999 37s53 71 65 139l14 77h-600z" />
    <glyph glyph-name="Yacute" unicode="&#x42d;" horiz-adv-x="912" 
d="M177 323l12 69.998h600l10 55c4.66699 25.333 7 49 7 71c0 42.667 -11.833 72.167 -35.5 88.5s-64.834 24.5 -123.501 24.5h-304c-66 0 -115 -11.333 -147 -34c-29.333 -20.667 -47.666 -52 -54.999 -94h-72c23.333 132 119 198 287 198h304
c76.667 0 132.5 -13.167 167.5 -39.5s52.5 -69.166 52.5 -128.499c0 -25.333 -3 -54 -9 -86l-36 -202c-15.333 -89.333 -45.666 -152.666 -90.999 -189.999s-114.666 -56 -207.999 -56h-304c-78 -0 -134.5 11.833 -169.5 35.5s-52.5 60.167 -52.5 109.5
c0 14 1.66699 31 5 51h72l-3 -34c0 -32.667 12.167 -56.167 36.5 -70.5s65.166 -21.5 122.499 -21.5h304c69.333 0 119.666 12.333 150.999 37s53 71 65 139l14 77h-600z" />
    <glyph glyph-name="Thorn" unicode="&#xde;" horiz-adv-x="1189" 
d="M1088 460c4.66699 25.333 6.99902 48.667 6.99902 70c0 39.333 -11.5 66.166 -34.5 80.499s-63.167 21.5 -120.5 21.5h-304c-67.333 0 -117.166 -12.167 -149.499 -36.5s-54.5 -69.5 -66.5 -135.5l-39 -222c-4 -23.333 -6 -43.666 -6 -60.999
c0 -41.333 12.333 -69.5 37 -84.5s66 -22.5 124 -22.5h304c72.667 0 122.667 11 150 33s47 67 59 135zM192.999 694.001l-53.002 -302.001h196l11 62c16.667 90.667 46.834 154.667 90.501 192s114.167 56 211.5 56h304c74.667 0 128 -10.667 160 -32
c36.667 -24 55 -66.667 55 -128c0 -25.333 -3 -54.666 -9 -87.999l-38 -216c-16.667 -96 -46.667 -160.333 -90 -193c-39.333 -30 -106.666 -45 -201.999 -45h-304c-78.667 0 -135.5 12.833 -170.5 38.5s-52.5 67.167 -52.5 124.5c0 24 2.33301 49 7 75l15 84h-196l-57 -322
h-72l122 694h72z" />
    <glyph glyph-name="Thorn" unicode="&#x42e;" horiz-adv-x="1189" 
d="M1088 460c4.66699 25.333 6.99902 48.667 6.99902 70c0 39.333 -11.5 66.166 -34.5 80.499s-63.167 21.5 -120.5 21.5h-304c-67.333 0 -117.166 -12.167 -149.499 -36.5s-54.5 -69.5 -66.5 -135.5l-39 -222c-4 -23.333 -6 -43.666 -6 -60.999
c0 -41.333 12.333 -69.5 37 -84.5s66 -22.5 124 -22.5h304c72.667 0 122.667 11 150 33s47 67 59 135zM192.999 694.001l-53.002 -302.001h196l11 62c16.667 90.667 46.834 154.667 90.501 192s114.167 56 211.5 56h304c74.667 0 128 -10.667 160 -32
c36.667 -24 55 -66.667 55 -128c0 -25.333 -3 -54.666 -9 -87.999l-38 -216c-16.667 -96 -46.667 -160.333 -90 -193c-39.333 -30 -106.666 -45 -201.999 -45h-304c-78.667 0 -135.5 12.833 -170.5 38.5s-52.5 67.167 -52.5 124.5c0 24 2.33301 49 7 75l15 84h-196l-57 -322
h-72l122 694h72z" />
    <glyph glyph-name="germandbls" unicode="&#xdf;" horiz-adv-x="819" 
d="M693 0h-72l50 287h-346l-272 -287h-100l286 287c-59.333 0 -104 11.667 -134 35s-45 59 -45 107c0 14 1.66699 31 5 51c14 76.667 43 131.5 87 164.5s109 49.5 195 49.5h468zM684 357l47 266.998h-425c-52 0 -90.833 -10.667 -116.5 -32s-43.167 -58.666 -52.5 -111.999
c-2.66699 -15.333 -4 -30.333 -4 -45c0 -31.333 9.83301 -52.166 29.5 -62.499s54.167 -15.5 103.5 -15.5h418z" />
    <glyph glyph-name="germandbls" unicode="&#x42f;" horiz-adv-x="819" 
d="M693 0h-72l50 287h-346l-272 -287h-100l286 287c-59.333 0 -104 11.667 -134 35s-45 59 -45 107c0 14 1.66699 31 5 51c14 76.667 43 131.5 87 164.5s109 49.5 195 49.5h468zM684 357l47 266.998h-425c-52 0 -90.833 -10.667 -116.5 -32s-43.167 -58.666 -52.5 -111.999
c-2.66699 -15.333 -4 -30.333 -4 -45c0 -31.333 9.83301 -52.166 29.5 -62.499s54.167 -15.5 103.5 -15.5h418z" />
    <glyph glyph-name="agrave" unicode="&#xe0;" horiz-adv-x="711" 
d="M37 186c6 35.333 23.001 63.001 51.001 83.001c30.667 22 72 33 124 33h288c27.333 0 48.333 -4 63 -12c9.33301 -4.66699 16.666 -13.667 21.999 -27c2 12.667 4.83301 29.5 8.5 50.5s5.5 34.167 5.5 39.5c0 25.333 -8 44.666 -24 57.999c-18 15.333 -45.333 23 -82 23
h-191c-52.667 0 -89 -8 -109 -24c-14 -10.667 -23 -30 -27 -58h-74c7.33301 42 21 73 41 93c32.667 32.667 86.667 49 162 49h217c55.333 0 95.666 -10.667 120.999 -32s38 -53 38 -95v-28c-2 -8.66699 -3.33301 -15 -4 -19l-57 -320h-68l4 40
c-9.33301 -9.33301 -17.666 -16 -24.999 -20c-22 -13.333 -45.667 -20 -71 -20h-280c-97.333 0 -146 33 -146 99l3 27zM227.001 242.001c-42 0 -72.333 -6.33203 -91 -18.999c-15.333 -10.667 -24.833 -25.5 -28.5 -44.5s-6.16699 -32.833 -7.5 -41.5s-2 -15.334 -2 -20.001
c0 -22 8.5 -37 25.5 -45s40.833 -12 71.5 -12h244c40.667 0 72.167 9.5 94.5 28.5s33.5 47.167 33.5 84.5c0 46 -32 69 -96 69h-244z" />
    <glyph glyph-name="agrave" unicode="&#x430;" horiz-adv-x="711" 
d="M37 186c6 35.333 23.001 63.001 51.001 83.001c30.667 22 72 33 124 33h288c27.333 0 48.333 -4 63 -12c9.33301 -4.66699 16.666 -13.667 21.999 -27c2 12.667 4.83301 29.5 8.5 50.5s5.5 34.167 5.5 39.5c0 25.333 -8 44.666 -24 57.999c-18 15.333 -45.333 23 -82 23
h-191c-52.667 0 -89 -8 -109 -24c-14 -10.667 -23 -30 -27 -58h-74c7.33301 42 21 73 41 93c32.667 32.667 86.667 49 162 49h217c55.333 0 95.666 -10.667 120.999 -32s38 -53 38 -95v-28c-2 -8.66699 -3.33301 -15 -4 -19l-57 -320h-68l4 40
c-9.33301 -9.33301 -17.666 -16 -24.999 -20c-22 -13.333 -45.667 -20 -71 -20h-280c-97.333 0 -146 33 -146 99l3 27zM227.001 242.001c-42 0 -72.333 -6.33203 -91 -18.999c-15.333 -10.667 -24.833 -25.5 -28.5 -44.5s-6.16699 -32.833 -7.5 -41.5s-2 -15.334 -2 -20.001
c0 -22 8.5 -37 25.5 -45s40.833 -12 71.5 -12h244c40.667 0 72.167 9.5 94.5 28.5s33.5 47.167 33.5 84.5c0 46 -32 69 -96 69h-244z" />
    <glyph glyph-name="aacute" unicode="&#xe1;" 
d="M648 695h57.001c-7.33301 -44 -26.666 -75.5 -57.999 -94.5s-78.333 -28.5 -141 -28.5h-211c-48 0 -86.667 -15.667 -116 -47c-25.333 -26.667 -41.333 -60.334 -48 -101.001c15.333 22 34.666 39 57.999 51c27.333 14 59.666 21 96.999 21h198
c65.333 0 113.666 -14.333 144.999 -43c27.333 -24.667 41 -59.667 41 -105v-28c-2 -8 -3.33301 -14 -4 -18l-19 -108c-10 -57.333 -34 -102.666 -72 -135.999c-44 -38.667 -103.667 -58 -179 -58h-198c-62.667 0 -109.167 12.167 -139.5 36.5s-45.5 60.166 -45.5 107.499
c0 14 1.66699 30.333 5 49l33 189c12.667 70.667 36.667 127.667 72 171c42.667 52.667 97.334 79 164.001 79h219c49.333 0 84.5 4.83301 105.5 14.5s33.167 25.834 36.5 48.501zM594.001 302l2.99805 31c0 68.667 -42.667 103 -128 103h-188
c-48.667 0 -87.667 -11.5 -117 -34.5s-47.666 -56.167 -54.999 -99.5l-19 -108l-3 -35c0 -66 42.333 -99 127 -99h188c46.667 0 84.334 10.333 113.001 31c32 22.667 52 57 60 103z" />
    <glyph glyph-name="aacute" unicode="&#x431;" 
d="M648 695h57.001c-7.33301 -44 -26.666 -75.5 -57.999 -94.5s-78.333 -28.5 -141 -28.5h-211c-48 0 -86.667 -15.667 -116 -47c-25.333 -26.667 -41.333 -60.334 -48 -101.001c15.333 22 34.666 39 57.999 51c27.333 14 59.666 21 96.999 21h198
c65.333 0 113.666 -14.333 144.999 -43c27.333 -24.667 41 -59.667 41 -105v-28c-2 -8 -3.33301 -14 -4 -18l-19 -108c-10 -57.333 -34 -102.666 -72 -135.999c-44 -38.667 -103.667 -58 -179 -58h-198c-62.667 0 -109.167 12.167 -139.5 36.5s-45.5 60.166 -45.5 107.499
c0 14 1.66699 30.333 5 49l33 189c12.667 70.667 36.667 127.667 72 171c42.667 52.667 97.334 79 164.001 79h219c49.333 0 84.5 4.83301 105.5 14.5s33.167 25.834 36.5 48.501zM594.001 302l2.99805 31c0 68.667 -42.667 103 -128 103h-188
c-48.667 0 -87.667 -11.5 -117 -34.5s-47.666 -56.167 -54.999 -99.5l-19 -108l-3 -35c0 -66 42.333 -99 127 -99h188c46.667 0 84.334 10.333 113.001 31c32 22.667 52 57 60 103z" />
    <glyph glyph-name="acircumflex" unicode="&#xe2;" horiz-adv-x="738" 
d="M165 436l-27 -156h373c72 0 108 33.333 108 100c0 17.333 -6.66699 31 -20 41s-34.333 15 -63 15h-371zM16 0l88.001 496h433c52.667 0 91.667 -8.83301 117 -26.5s38 -42.834 38 -75.501c0 -34.667 -6.66699 -63.667 -20 -87c-16.667 -30 -43.334 -48.333 -80.001 -55
c27.333 -6.66699 47.333 -18.667 60 -36c9.33301 -13.333 14 -28.333 14 -45c0 -55.333 -16.667 -97.666 -50 -126.999s-85.333 -44 -156 -44h-444zM127.001 220l-27.999 -159.999h370c43.333 0 75.166 8.83301 95.499 26.5s30.5 43.5 30.5 77.5
c0 17.333 -4.66699 29.666 -14 36.999c-16 12.667 -47.667 19 -95 19h-359z" />
    <glyph glyph-name="acircumflex" unicode="&#x432;" horiz-adv-x="738" 
d="M165 436l-27 -156h373c72 0 108 33.333 108 100c0 17.333 -6.66699 31 -20 41s-34.333 15 -63 15h-371zM16 0l88.001 496h433c52.667 0 91.667 -8.83301 117 -26.5s38 -42.834 38 -75.501c0 -34.667 -6.66699 -63.667 -20 -87c-16.667 -30 -43.334 -48.333 -80.001 -55
c27.333 -6.66699 47.333 -18.667 60 -36c9.33301 -13.333 14 -28.333 14 -45c0 -55.333 -16.667 -97.666 -50 -126.999s-85.333 -44 -156 -44h-444zM127.001 220l-27.999 -159.999h370c43.333 0 75.166 8.83301 95.499 26.5s30.5 43.5 30.5 77.5
c0 17.333 -4.66699 29.666 -14 36.999c-16 12.667 -47.667 19 -95 19h-359z" />
    <glyph glyph-name="atilde" unicode="&#xe3;" horiz-adv-x="549" 
d="M74 0h-72l88 494h470l-11 -60h-398z" />
    <glyph glyph-name="atilde" unicode="&#x433;" horiz-adv-x="549" 
d="M74 0h-72l88 494h470l-11 -60h-398z" />
    <glyph glyph-name="adieresis" unicode="&#xe4;" horiz-adv-x="792" 
d="M66 60c28.667 14.667 52.332 38.999 70.999 72.999c16.667 30.667 29.334 69.334 38.001 116.001l43 245h547l-76 -434h57l-44 -248h-68l33 188h-582l-33 -188h-68l44 248h38zM616.998 59.999l66 374h-403l-31 -176c-8 -42.667 -18.333 -79.334 -31 -110.001
c-18 -43.333 -40.333 -72.666 -67 -87.999h466z" />
    <glyph glyph-name="adieresis" unicode="&#x434;" horiz-adv-x="792" 
d="M66 60c28.667 14.667 52.332 38.999 70.999 72.999c16.667 30.667 29.334 69.334 38.001 116.001l43 245h547l-76 -434h57l-44 -248h-68l33 188h-582l-33 -188h-68l44 248h38zM616.998 59.999l66 374h-403l-31 -176c-8 -42.667 -18.333 -79.334 -31 -110.001
c-18 -43.333 -40.333 -72.666 -67 -87.999h466z" />
    <glyph glyph-name="aring" unicode="&#xe5;" horiz-adv-x="728" 
d="M618 302l2.99902 31c0 32.667 -9.66699 58 -29 76s-47.333 27 -84 27h-226c-38 0 -70.667 -12 -98 -36s-44.666 -56.667 -51.999 -98h486zM678.999 242l-557.999 -0.00292969l-9 -48l-3 -36c0 -34.667 10.5 -59.667 31.5 -75s49.5 -23 85.5 -23h234
c38 0 68.167 9 90.5 27s36.166 41.667 41.499 71h72c-8 -43.333 -26.333 -78.666 -55 -105.999c-36.667 -34.667 -86 -52 -148 -52h-243c-122.667 0 -184 45.667 -184 137c0 12.667 1.66699 28.334 5 47.001l23 130c8.66699 48.667 34 90.334 76 125.001
c46 38 101.333 57 166 57h208c60 0 106.333 -14 139 -42c30 -26 45 -60 45 -102l-3 -30z" />
    <glyph glyph-name="aring" unicode="&#x435;" horiz-adv-x="728" 
d="M618 302l2.99902 31c0 32.667 -9.66699 58 -29 76s-47.333 27 -84 27h-226c-38 0 -70.667 -12 -98 -36s-44.666 -56.667 -51.999 -98h486zM678.999 242l-557.999 -0.00292969l-9 -48l-3 -36c0 -34.667 10.5 -59.667 31.5 -75s49.5 -23 85.5 -23h234
c38 0 68.167 9 90.5 27s36.166 41.667 41.499 71h72c-8 -43.333 -26.333 -78.666 -55 -105.999c-36.667 -34.667 -86 -52 -148 -52h-243c-122.667 0 -184 45.667 -184 137c0 12.667 1.66699 28.334 5 47.001l23 130c8.66699 48.667 34 90.334 76 125.001
c46 38 101.333 57 166 57h208c60 0 106.333 -14 139 -42c30 -26 45 -60 45 -102l-3 -30z" />
    <glyph glyph-name="ae" unicode="&#xe6;" horiz-adv-x="977" 
d="M411 0l44 246h-70l-316 -246h-99l359 278l-241 216h106l200 -188h71l34 188h72l-34 -188h71l268 188h106l-319 -216l261 -278h-99l-228 246h-70l-44 -246h-72z" />
    <glyph glyph-name="ae" unicode="&#x436;" horiz-adv-x="977" 
d="M411 0l44 246h-70l-316 -246h-99l359 278l-241 216h106l200 -188h71l34 188h72l-34 -188h71l268 188h106l-319 -216l261 -278h-99l-228 246h-70l-44 -246h-72z" />
    <glyph glyph-name="ccedilla" unicode="&#xe7;" horiz-adv-x="728" 
d="M136 340l-72.002 0.00390625l6 34c6.66699 34 24.334 61 53.001 81c40 27.333 101 41 183 41h221c52.667 0 91.667 -8.83301 117 -26.5s38 -42.834 38 -75.501c0 -33.333 -6.66699 -62 -20 -86c-17.333 -30.667 -44 -49.334 -80 -56.001c28 -6.66699 48 -18.667 60 -36
c9.33301 -13.333 14 -30 14 -50c0 -52 -17.167 -92.667 -51.5 -122s-85.833 -44 -154.5 -44h-274c-56 0 -96.333 9.33301 -121 28c-21.333 16 -32 38.667 -32 68c0 8 0.333008 14.333 1 19c3.33301 15.333 6 29.666 8 42.999h72c-2.66699 -16 -4 -24.333 -4 -25
c-2 -10 -3 -17 -3 -21c0 -14.667 4.66699 -25.667 14 -33c16.667 -12.667 47.334 -19 92.001 -19h256c44.667 0 76.834 8.83301 96.501 26.5s29.5 44.5 29.5 80.5c0 15.333 -4.66699 26.666 -14 33.999c-16.667 12.667 -48.334 19 -95.001 19h-255l11 60h269
c72 0 108 34 108 102c0 16 -6.66699 29 -20 39s-34.333 15 -63 15h-233c-56 0 -97 -8.33301 -123 -25c-16 -10.667 -25.333 -23.667 -28 -39z" />
    <glyph glyph-name="ccedilla" unicode="&#x437;" horiz-adv-x="728" 
d="M136 340l-72.002 0.00390625l6 34c6.66699 34 24.334 61 53.001 81c40 27.333 101 41 183 41h221c52.667 0 91.667 -8.83301 117 -26.5s38 -42.834 38 -75.501c0 -33.333 -6.66699 -62 -20 -86c-17.333 -30.667 -44 -49.334 -80 -56.001c28 -6.66699 48 -18.667 60 -36
c9.33301 -13.333 14 -30 14 -50c0 -52 -17.167 -92.667 -51.5 -122s-85.833 -44 -154.5 -44h-274c-56 0 -96.333 9.33301 -121 28c-21.333 16 -32 38.667 -32 68c0 8 0.333008 14.333 1 19c3.33301 15.333 6 29.666 8 42.999h72c-2.66699 -16 -4 -24.333 -4 -25
c-2 -10 -3 -17 -3 -21c0 -14.667 4.66699 -25.667 14 -33c16.667 -12.667 47.334 -19 92.001 -19h256c44.667 0 76.834 8.83301 96.501 26.5s29.5 44.5 29.5 80.5c0 15.333 -4.66699 26.666 -14 33.999c-16.667 12.667 -48.334 19 -95.001 19h-255l11 60h269
c72 0 108 34 108 102c0 16 -6.66699 29 -20 39s-34.333 15 -63 15h-233c-56 0 -97 -8.33301 -123 -25c-16 -10.667 -25.333 -23.667 -28 -39z" />
    <glyph glyph-name="egrave" unicode="&#xe8;" horiz-adv-x="738" 
d="M14 0l88 494h72l-78 -438h23l485 438h120l-88 -494h-72l78 438h-20l-485 -438h-123z" />
    <glyph glyph-name="egrave" unicode="&#x438;" horiz-adv-x="738" 
d="M14 0l88 494h72l-78 -438h23l485 438h120l-88 -494h-72l78 438h-20l-485 -438h-123z" />
    <glyph glyph-name="eacute" unicode="&#xe9;" horiz-adv-x="738" 
d="M-1 0l87 494h72l-77 -438h23l484 438h120l-87 -494h-72l78 438h-20l-485 -438h-123zM556 667h58c-8 -48 -25.333 -81.333 -52 -100c-33.333 -24 -91 -36 -173 -36c-67.333 0 -113.833 7.83301 -139.5 23.5s-38.5 39.834 -38.5 72.501c0 14 1.33301 27.333 4 40h58l-2 -23
c0 -20 9.16699 -34.167 27.5 -42.5s53.833 -12.5 106.5 -12.5c56 0 93.833 5.66699 113.5 17s32.167 31.666 37.5 60.999z" />
    <glyph glyph-name="eacute" unicode="&#x439;" horiz-adv-x="738" 
d="M-1 0l87 494h72l-77 -438h23l484 438h120l-87 -494h-72l78 438h-20l-485 -438h-123zM556 667h58c-8 -48 -25.333 -81.333 -52 -100c-33.333 -24 -91 -36 -173 -36c-67.333 0 -113.833 7.83301 -139.5 23.5s-38.5 39.834 -38.5 72.501c0 14 1.33301 27.333 4 40h58l-2 -23
c0 -20 9.16699 -34.167 27.5 -42.5s53.833 -12.5 106.5 -12.5c56 0 93.833 5.66699 113.5 17s32.167 31.666 37.5 60.999z" />
    <glyph glyph-name="ecircumflex" unicode="&#xea;" horiz-adv-x="620" 
d="M130 246l-43 -246h-72l87 494h72l-34 -188h78l294 188h115l-351 -220l289 -274h-104l-254 246h-77z" />
    <glyph glyph-name="ecircumflex" unicode="&#x43a;" horiz-adv-x="620" 
d="M130 246l-43 -246h-72l87 494h72l-34 -188h78l294 188h115l-351 -220l289 -274h-104l-254 246h-77z" />
    <glyph glyph-name="edieresis" unicode="&#xeb;" horiz-adv-x="763" 
d="M666 434l-413 0.000976562l-44 -250c-10.667 -61.333 -34 -107.333 -70 -138s-83 -46 -141 -46h-21l11 60h21c36 0 64.5 10.167 85.5 30.5s35.167 52.166 42.5 95.499l55 308h557l-88 -494h-72z" />
    <glyph glyph-name="edieresis" unicode="&#x43b;" horiz-adv-x="763" 
d="M666 434l-413 0.000976562l-44 -250c-10.667 -61.333 -34 -107.333 -70 -138s-83 -46 -141 -46h-21l11 60h21c36 0 64.5 10.167 85.5 30.5s35.167 52.166 42.5 95.499l55 308h557l-88 -494h-72z" />
    <glyph glyph-name="igrave" unicode="&#xec;" horiz-adv-x="869" 
d="M857 494l-88 -494h-72l78 438h-22l-340 -438h-48l-184 438h-22l-78 -438h-72l88 494h130l174 -421l326 421h130z" />
    <glyph glyph-name="igrave" unicode="&#x43c;" horiz-adv-x="869" 
d="M857 494l-88 -494h-72l78 438h-22l-340 -438h-48l-184 438h-22l-78 -438h-72l88 494h130l174 -421l326 421h130z" />
    <glyph glyph-name="iacute" unicode="&#xed;" horiz-adv-x="738" 
d="M127 232l-40 -232h-72l87 494h72l-36 -202h478l36 202h72l-88 -494h-72l41 232h-478z" />
    <glyph glyph-name="iacute" unicode="&#x43d;" horiz-adv-x="738" 
d="M127 232l-40 -232h-72l87 494h72l-36 -202h478l36 202h72l-88 -494h-72l41 232h-478z" />
    <glyph glyph-name="icircumflex" unicode="&#xee;" 
d="M304 496h197.999c65.333 0 113.666 -14.333 144.999 -43c27.333 -24.667 41 -59.667 41 -105v-28c-2 -8 -3.33301 -14 -4 -18l-20 -108c-10.667 -58 -35 -103.667 -73 -137c-43.333 -38 -102.666 -57 -177.999 -57h-197c-124.667 0 -187 48.667 -187 146
c0 13.333 1.66699 29.333 5 48l20 108c10.667 58 35.334 103.667 74.001 137c43.333 38 102 57 176 57zM105.999 194l-2.99805 -33c0 -67.333 43 -101 129 -101h187c47.333 0 85 10 113 30c30.667 22 50.667 56.667 60 104l20 108l3 31c0 68.667 -43 103 -129 103h-188
c-50.667 0 -89.834 -10.333 -117.501 -31s-45.834 -55 -54.501 -103z" />
    <glyph glyph-name="icircumflex" unicode="&#x43e;" 
d="M304 496h197.999c65.333 0 113.666 -14.333 144.999 -43c27.333 -24.667 41 -59.667 41 -105v-28c-2 -8 -3.33301 -14 -4 -18l-20 -108c-10.667 -58 -35 -103.667 -73 -137c-43.333 -38 -102.666 -57 -177.999 -57h-197c-124.667 0 -187 48.667 -187 146
c0 13.333 1.66699 29.333 5 48l20 108c10.667 58 35.334 103.667 74.001 137c43.333 38 102 57 176 57zM105.999 194l-2.99805 -33c0 -67.333 43 -101 129 -101h187c47.333 0 85 10 113 30c30.667 22 50.667 56.667 60 104l20 108l3 31c0 68.667 -43 103 -129 103h-188
c-50.667 0 -89.834 -10.333 -117.501 -31s-45.834 -55 -54.501 -103z" />
    <glyph glyph-name="idieresis" unicode="&#xef;" horiz-adv-x="738" 
d="M86 0h-72l88 494h622l-88 -494h-72l77 434h-478z" />
    <glyph glyph-name="idieresis" unicode="&#x43f;" horiz-adv-x="738" 
d="M86 0h-72l88 494h622l-88 -494h-72l77 434h-478z" />
    <glyph glyph-name="eth" unicode="&#xf0;" 
d="M113 494l72.002 0.000976562l-9 -53c12 14.667 31.667 27.167 59 37.5s56.666 15.5 87.999 15.5h200c62.667 0 109.334 -14 140.001 -42c27.333 -24.667 41 -59.334 41 -104.001c0 -8.66699 -0.333008 -16 -1 -22s-2 -14.667 -4 -26l-19 -108
c-10.667 -58.667 -35.334 -104.667 -74.001 -138c-42.667 -36 -99.334 -54 -170.001 -54h-194c-34 0 -62.833 5 -86.5 15s-39.5 22.667 -47.5 38l-45 -255h-72zM151.002 300.001l-18.999 -108.001l-3 -28c0 -31.333 10.833 -56.5 32.5 -75.5s54.5 -28.5 98.5 -28.5h161
c54.667 0 97.5 10.333 128.5 31s50.5 54.334 58.5 101.001l19 108l3 32c0 68 -47.667 102 -143 102h-160c-50.667 0 -90.834 -12.167 -120.501 -36.5s-48.167 -56.833 -55.5 -97.5z" />
    <glyph glyph-name="eth" unicode="&#x440;" 
d="M113 494l72.002 0.000976562l-9 -53c12 14.667 31.667 27.167 59 37.5s56.666 15.5 87.999 15.5h200c62.667 0 109.334 -14 140.001 -42c27.333 -24.667 41 -59.334 41 -104.001c0 -8.66699 -0.333008 -16 -1 -22s-2 -14.667 -4 -26l-19 -108
c-10.667 -58.667 -35.334 -104.667 -74.001 -138c-42.667 -36 -99.334 -54 -170.001 -54h-194c-34 0 -62.833 5 -86.5 15s-39.5 22.667 -47.5 38l-45 -255h-72zM151.002 300.001l-18.999 -108.001l-3 -28c0 -31.333 10.833 -56.5 32.5 -75.5s54.5 -28.5 98.5 -28.5h161
c54.667 0 97.5 10.333 128.5 31s50.5 54.334 58.5 101.001l19 108l3 32c0 68 -47.667 102 -143 102h-160c-50.667 0 -90.834 -12.167 -120.501 -36.5s-48.167 -56.833 -55.5 -97.5z" />
    <glyph glyph-name="ntilde" unicode="&#xf1;" 
d="M587 174l72.001 -0.00195312c-6.66699 -40 -22.667 -74 -48 -102c-42.667 -48 -106.334 -72 -191.001 -72h-222c-58 0 -101.167 11.833 -129.5 35.5s-42.5 57.834 -42.5 102.501v18c0 5.33301 1.33301 14 4 26l22 124c10 56.667 34.667 101.667 74 135
c42.667 36.667 98 55 166 55h216c68.667 0 118 -16.667 148 -50c21.333 -24 32 -54.667 32 -92l-3 -32h-72l2 23c0 24 -7 43.667 -21 59c-20 21.333 -52.333 32 -97 32h-216c-42.667 0 -77.5 -10.833 -104.5 -32.5s-44.667 -55 -53 -100s-14.333 -79 -18 -102
s-5.5 -37.833 -5.5 -44.5c0 -30.667 10.5 -54.5 31.5 -71.5s47.5 -25.5 79.5 -25.5h219c54.667 0 95.667 14.333 123 43c18 18.667 29.333 42.334 34 71.001z" />
    <glyph glyph-name="ntilde" unicode="&#x441;" 
d="M587 174l72.001 -0.00195312c-6.66699 -40 -22.667 -74 -48 -102c-42.667 -48 -106.334 -72 -191.001 -72h-222c-58 0 -101.167 11.833 -129.5 35.5s-42.5 57.834 -42.5 102.501v18c0 5.33301 1.33301 14 4 26l22 124c10 56.667 34.667 101.667 74 135
c42.667 36.667 98 55 166 55h216c68.667 0 118 -16.667 148 -50c21.333 -24 32 -54.667 32 -92l-3 -32h-72l2 23c0 24 -7 43.667 -21 59c-20 21.333 -52.333 32 -97 32h-216c-42.667 0 -77.5 -10.833 -104.5 -32.5s-44.667 -55 -53 -100s-14.333 -79 -18 -102
s-5.5 -37.833 -5.5 -44.5c0 -30.667 10.5 -54.5 31.5 -71.5s47.5 -25.5 79.5 -25.5h219c54.667 0 95.667 14.333 123 43c18 18.667 29.333 42.334 34 71.001z" />
    <glyph glyph-name="ograve" unicode="&#xf2;" horiz-adv-x="668" 
d="M323 0h-72l77 434h-270l11 60h612l-11 -60h-270z" />
    <glyph glyph-name="ograve" unicode="&#x442;" horiz-adv-x="668" 
d="M323 0h-72l77 434h-270l11 60h612l-11 -60h-270z" />
    <glyph glyph-name="oacute" unicode="&#xf3;" horiz-adv-x="585" 
d="M64 494h74.999l155 -424h14l257 424h75l-346 -559c-34 -54.667 -64.667 -91.667 -92 -111c-34 -24 -80 -36 -138 -36h-24l10 60h42c32.667 0 60.834 10 84.501 30s53.5 60.667 89.5 122h-18z" />
    <glyph glyph-name="oacute" unicode="&#x443;" horiz-adv-x="585" 
d="M64 494h74.999l155 -424h14l257 424h75l-346 -559c-34 -54.667 -64.667 -91.667 -92 -111c-34 -24 -80 -36 -138 -36h-24l10 60h42c32.667 0 60.834 10 84.501 30s53.5 60.667 89.5 122h-18z" />
    <glyph glyph-name="ocircumflex" unicode="&#xf4;" horiz-adv-x="1070" 
d="M421 -201l44.001 253.999c-12 -14 -32.333 -26.333 -61 -37s-59.334 -16 -92.001 -16h-89c-60.667 0 -106.167 13 -136.5 39s-45.5 61.667 -45.5 107v17c0 6 1.33301 15.333 4 28l19 109c10 58 33.333 103.333 70 136c43.333 38.667 102 58 176 58h95
c42.667 0 77 -9 103 -27c8 -6 16.667 -15 26 -27l44 250h72l-44 -249c12 14.667 31.667 27.167 59 37.5s56.666 15.5 87.999 15.5h95c63.333 0 110.333 -14.333 141 -43c27.333 -25.333 41 -60.666 41 -105.999c0 -5.33301 -0.166992 -11.333 -0.5 -18
s-1.5 -15.667 -3.5 -27l-19 -109c-10.667 -59.333 -35.667 -105.333 -75 -138c-42.667 -35.333 -100 -53 -172 -53h-88c-34 0 -63.167 5 -87.5 15s-40.166 22.667 -47.499 38l-44 -254h-72zM757.001 433.999c-102 0 -160.667 -44.334 -176 -133.001l-19 -108l-3 -27
c0 -32.667 10.833 -58.5 32.5 -77.5s55.167 -28.5 100.5 -28.5h56c54.667 0 97.5 10.333 128.5 31s50.5 54.334 58.5 101.001l19 108l3 32c0 68 -47.667 102 -143 102h-57zM509.001 300.998l3.00098 29.001c0 32 -10.667 57.333 -32 76s-54.333 28 -99 28h-57
c-110 0 -172.667 -44.333 -188 -133l-19 -108l-3 -32c0 -34.667 12.5 -60.167 37.5 -76.5s61.5 -24.5 109.5 -24.5h51c51.333 0 92.166 12.167 122.499 36.5s48.833 56.166 55.5 95.499z" />
    <glyph glyph-name="ocircumflex" unicode="&#x444;" horiz-adv-x="1070" 
d="M421 -201l44.001 253.999c-12 -14 -32.333 -26.333 -61 -37s-59.334 -16 -92.001 -16h-89c-60.667 0 -106.167 13 -136.5 39s-45.5 61.667 -45.5 107v17c0 6 1.33301 15.333 4 28l19 109c10 58 33.333 103.333 70 136c43.333 38.667 102 58 176 58h95
c42.667 0 77 -9 103 -27c8 -6 16.667 -15 26 -27l44 250h72l-44 -249c12 14.667 31.667 27.167 59 37.5s56.666 15.5 87.999 15.5h95c63.333 0 110.333 -14.333 141 -43c27.333 -25.333 41 -60.666 41 -105.999c0 -5.33301 -0.166992 -11.333 -0.5 -18
s-1.5 -15.667 -3.5 -27l-19 -109c-10.667 -59.333 -35.667 -105.333 -75 -138c-42.667 -35.333 -100 -53 -172 -53h-88c-34 0 -63.167 5 -87.5 15s-40.166 22.667 -47.499 38l-44 -254h-72zM757.001 433.999c-102 0 -160.667 -44.334 -176 -133.001l-19 -108l-3 -27
c0 -32.667 10.833 -58.5 32.5 -77.5s55.167 -28.5 100.5 -28.5h56c54.667 0 97.5 10.333 128.5 31s50.5 54.334 58.5 101.001l19 108l3 32c0 68 -47.667 102 -143 102h-57zM509.001 300.998l3.00098 29.001c0 32 -10.667 57.333 -32 76s-54.333 28 -99 28h-57
c-110 0 -172.667 -44.333 -188 -133l-19 -108l-3 -32c0 -34.667 12.5 -60.167 37.5 -76.5s61.5 -24.5 109.5 -24.5h51c51.333 0 92.166 12.167 122.499 36.5s48.833 56.166 55.5 95.499z" />
    <glyph glyph-name="otilde" unicode="&#xf5;" horiz-adv-x="637" 
d="M88 494h88l153 -182l215 182h88l-268 -226l220 -268h-90l-182 222l-264 -222h-86l314 268z" />
    <glyph glyph-name="otilde" unicode="&#x445;" horiz-adv-x="637" 
d="M88 494h88l153 -182l215 182h88l-268 -226l220 -268h-90l-182 222l-264 -222h-86l314 268z" />
    <glyph glyph-name="odieresis" unicode="&#xf6;" horiz-adv-x="766" 
d="M114 60h478l76 434h72l-76 -434h58l-44 -248h-68l33 188h-612l87 494h72z" />
    <glyph glyph-name="odieresis" unicode="&#x446;" horiz-adv-x="766" 
d="M114 60h478l76 434h72l-76 -434h58l-44 -248h-68l33 188h-612l87 494h72z" />
    <glyph glyph-name="divide" unicode="&#xf7;" horiz-adv-x="684" 
d="M680 494l-83.999 -494h-76l45 255c-7.33301 -11.333 -24 -23.333 -50 -36c-33.333 -16 -68 -24 -104 -24h-158c-63.333 0 -110.333 12.333 -141 37s-46 60.667 -46 108c0 14 1.66699 30.333 5 49l15 105h76l-20 -111l-3 -30c0 -32.667 10.5 -57.167 31.5 -73.5
s51.833 -24.5 92.5 -24.5h158c40 0 75 10 105 30c33.333 22 53.666 52.667 60.999 92l21 117h72z" />
    <glyph glyph-name="divide" unicode="&#x447;" horiz-adv-x="684" 
d="M680 494l-83.999 -494h-76l45 255c-7.33301 -11.333 -24 -23.333 -50 -36c-33.333 -16 -68 -24 -104 -24h-158c-63.333 0 -110.333 12.333 -141 37s-46 60.667 -46 108c0 14 1.66699 30.333 5 49l15 105h76l-20 -111l-3 -30c0 -32.667 10.5 -57.167 31.5 -73.5
s51.833 -24.5 92.5 -24.5h158c40 0 75 10 105 30c33.333 22 53.666 52.667 60.999 92l21 117h72z" />
    <glyph glyph-name="oslash" unicode="&#xf8;" horiz-adv-x="1088" 
d="M92 494h72l-77 -434h385l77 434h72l-77 -434h385l77 434h72l-88 -494h-986z" />
    <glyph glyph-name="oslash" unicode="&#x448;" horiz-adv-x="1088" 
d="M92 494h72l-77 -434h385l77 434h72l-77 -434h385l77 434h72l-88 -494h-986z" />
    <glyph glyph-name="ugrave" unicode="&#xf9;" horiz-adv-x="1108" 
d="M108 494h72l-76 -434h385l76 434h72l-76 -434h385l76 434h72l-76 -434h57l-44 -248h-68l33 188h-975z" />
    <glyph glyph-name="ugrave" unicode="&#x449;" horiz-adv-x="1108" 
d="M108 494h72l-76 -434h385l76 434h72l-76 -434h385l76 434h72l-76 -434h57l-44 -248h-68l33 188h-975z" />
    <glyph glyph-name="uacute" unicode="&#xfa;" horiz-adv-x="798" 
d="M55 494l214 0.000976562l-34 -192h384c45.333 0 79.166 -8.33301 101.499 -25s33.5 -39.334 33.5 -68.001l-12 -83c-7.33301 -42 -27.166 -73.5 -59.499 -94.5s-75.5 -31.5 -129.5 -31.5h-444l77 434h-142zM224 242.001l-32 -181.999h357c42 0 71.667 6.16699 89 18.5
s28.333 30.833 33 55.5l5 34c2 14 3 21.667 3 23c0 17.333 -7 30.166 -21 38.499s-39.333 12.5 -76 12.5h-358z" />
    <glyph glyph-name="uacute" unicode="&#x44a;" horiz-adv-x="798" 
d="M55 494l214 0.000976562l-34 -192h384c45.333 0 79.166 -8.33301 101.499 -25s33.5 -39.334 33.5 -68.001l-12 -83c-7.33301 -42 -27.166 -73.5 -59.499 -94.5s-75.5 -31.5 -129.5 -31.5h-444l77 434h-142zM224 242.001l-32 -181.999h357c42 0 71.667 6.16699 89 18.5
s28.333 30.833 33 55.5l5 34c2 14 3 21.667 3 23c0 17.333 -7 30.166 -21 38.499s-39.333 12.5 -76 12.5h-358z" />
    <glyph glyph-name="ucircumflex" unicode="&#xfb;" horiz-adv-x="907" 
d="M99 494l72.002 0.000976562l-34 -192h384c45.333 0 79.166 -8.33301 101.499 -25s33.5 -39.334 33.5 -68.001l-12 -83c-6.66699 -42 -26.334 -73.5 -59.001 -94.5s-76 -31.5 -130 -31.5h-444zM126.002 242.001l-32 -181.999h357c42 0 71.667 6.16699 89 18.5
s28.333 30.833 33 55.5l8 57c0 17.333 -7 30.166 -21 38.499s-39.333 12.5 -76 12.5h-358zM891.002 494.002l-87 -494h-72l87 494h72z" />
    <glyph glyph-name="ucircumflex" unicode="&#x44b;" horiz-adv-x="907" 
d="M99 494l72.002 0.000976562l-34 -192h384c45.333 0 79.166 -8.33301 101.499 -25s33.5 -39.334 33.5 -68.001l-12 -83c-6.66699 -42 -26.334 -73.5 -59.001 -94.5s-76 -31.5 -130 -31.5h-444zM126.002 242.001l-32 -181.999h357c42 0 71.667 6.16699 89 18.5
s28.333 30.833 33 55.5l8 57c0 17.333 -7 30.166 -21 38.499s-39.333 12.5 -76 12.5h-358zM891.002 494.002l-87 -494h-72l87 494h72z" />
    <glyph glyph-name="udieresis" unicode="&#xfc;" horiz-adv-x="700" 
d="M99 494l72 0.000976562l-34 -192h384c45.333 0 79.166 -8.33301 101.499 -25s33.5 -39.334 33.5 -68.001l-12 -83c-7.33301 -42 -27.166 -73.5 -59.499 -94.5s-75.5 -31.5 -129.5 -31.5h-444zM126 242.001l-32 -181.999h357c42 0 71.667 6.16699 89 18.5
s28.333 30.833 33 55.5l8 57c0 17.333 -7 30.166 -21 38.499s-39.333 12.5 -76 12.5h-358z" />
    <glyph glyph-name="udieresis" unicode="&#x44c;" horiz-adv-x="700" 
d="M99 494l72 0.000976562l-34 -192h384c45.333 0 79.166 -8.33301 101.499 -25s33.5 -39.334 33.5 -68.001l-12 -83c-7.33301 -42 -27.166 -73.5 -59.499 -94.5s-75.5 -31.5 -129.5 -31.5h-444zM126 242.001l-32 -181.999h357c42 0 71.667 6.16699 89 18.5
s28.333 30.833 33 55.5l8 57c0 17.333 -7 30.166 -21 38.499s-39.333 12.5 -76 12.5h-358z" />
    <glyph glyph-name="yacute" unicode="&#xfd;" 
d="M185 290l421.999 0.000976562c2.66699 14.667 4.33398 25.334 5.00098 32.001s1 12.667 1 18c0 64 -38 96 -114 96h-216c-54.667 0 -95.667 -15 -123 -45c-17.333 -19.333 -28.333 -42.333 -33 -69h-72c9.33301 54 35.5 96.5 78.5 127.5s96.5 46.5 160.5 46.5h216
c58 0 101.833 -13.667 131.5 -41s44.5 -63.333 44.5 -108c0 -14.667 -1.33301 -28.334 -4 -41.001l-22 -124c-10 -58 -34.333 -102.833 -73 -134.5s-91.667 -47.5 -159 -47.5h-222c-68.667 0 -118 16.333 -148 49c-21.333 23.333 -32 53.333 -32 90l3 35h72l-2 -24
c0 -24.667 7 -44.334 21 -59.001c20 -20.667 52.667 -31 98 -31h220c36.667 0 69.167 10.667 97.5 32s45.833 51.333 52.5 90l9 48h-422z" />
    <glyph glyph-name="yacute" unicode="&#x44d;" 
d="M185 290l421.999 0.000976562c2.66699 14.667 4.33398 25.334 5.00098 32.001s1 12.667 1 18c0 64 -38 96 -114 96h-216c-54.667 0 -95.667 -15 -123 -45c-17.333 -19.333 -28.333 -42.333 -33 -69h-72c9.33301 54 35.5 96.5 78.5 127.5s96.5 46.5 160.5 46.5h216
c58 0 101.833 -13.667 131.5 -41s44.5 -63.333 44.5 -108c0 -14.667 -1.33301 -28.334 -4 -41.001l-22 -124c-10 -58 -34.333 -102.833 -73 -134.5s-91.667 -47.5 -159 -47.5h-222c-68.667 0 -118 16.333 -148 49c-21.333 23.333 -32 53.333 -32 90l3 35h72l-2 -24
c0 -24.667 7 -44.334 21 -59.001c20 -20.667 52.667 -31 98 -31h220c36.667 0 69.167 10.667 97.5 32s45.833 51.333 52.5 90l9 48h-422z" />
    <glyph glyph-name="thorn" unicode="&#xfe;" horiz-adv-x="900" 
d="M114 234l-42.001 -234.002h-72l87 494h72l-35 -200h113c10.667 60.667 35.334 108.334 74.001 143.001c44 39.333 103 59 177 59h198c65.333 0 113.666 -14.333 144.999 -43c27.333 -24.667 41 -59.667 41 -105v-28c-2 -8 -3.33301 -14 -4 -18l-20 -108
c-10 -57.333 -33.667 -102.666 -71 -135.999c-43.333 -38.667 -103 -58 -179 -58h-198c-62.667 0 -109.167 12.5 -139.5 37.5s-45.5 61.5 -45.5 109.5c0 12.667 0.333008 21.667 1 27s4.33398 25.333 11.001 60h-113zM415.999 59.998h186.999
c46.667 0 84.334 10.333 113.001 31c31.333 22.667 51.333 57 60 103l20 108l3 30c0 33.333 -11.333 59 -34 77s-54.667 27 -96 27h-187c-49.333 0 -88 -10.5 -116 -31.5s-46.333 -55.167 -55 -102.5l-15.5 -87c-5 -28.667 -7.5 -46.667 -7.5 -54
c0 -67.333 42.667 -101 128 -101z" />
    <glyph glyph-name="thorn" unicode="&#x44e;" horiz-adv-x="900" 
d="M114 234l-42.001 -234.002h-72l87 494h72l-35 -200h113c10.667 60.667 35.334 108.334 74.001 143.001c44 39.333 103 59 177 59h198c65.333 0 113.666 -14.333 144.999 -43c27.333 -24.667 41 -59.667 41 -105v-28c-2 -8 -3.33301 -14 -4 -18l-20 -108
c-10 -57.333 -33.667 -102.666 -71 -135.999c-43.333 -38.667 -103 -58 -179 -58h-198c-62.667 0 -109.167 12.5 -139.5 37.5s-45.5 61.5 -45.5 109.5c0 12.667 0.333008 21.667 1 27s4.33398 25.333 11.001 60h-113zM415.999 59.998h186.999
c46.667 0 84.334 10.333 113.001 31c31.333 22.667 51.333 57 60 103l20 108l3 30c0 33.333 -11.333 59 -34 77s-54.667 27 -96 27h-187c-49.333 0 -88 -10.5 -116 -31.5s-46.333 -55.167 -55 -102.5l-15.5 -87c-5 -28.667 -7.5 -46.667 -7.5 -54
c0 -67.333 42.667 -101 128 -101z" />
    <glyph glyph-name="ydieresis" unicode="&#xff;" horiz-adv-x="703" 
d="M676 494l-88 -494.001h-72l34 192h-278l-234 -192h-102l252 192h-21c-45.333 0 -79.166 8.33301 -101.499 25s-33.5 39.334 -33.5 68.001l12 83c7.33301 42 27.166 73.5 59.499 94.5s75.5 31.5 129.5 31.5h443zM561 251.999l32 181.999h-356c-40.667 0 -71 -7 -91 -21
c-16 -11.333 -26.333 -29 -31 -53l-8 -57c0 -17.333 7 -30.166 21 -38.499s39.333 -12.5 76 -12.5h357z" />
    <glyph glyph-name="ydieresis" unicode="&#x44f;" horiz-adv-x="703" 
d="M676 494l-88 -494.001h-72l34 192h-278l-234 -192h-102l252 192h-21c-45.333 0 -79.166 8.33301 -101.499 25s-33.5 39.334 -33.5 68.001l12 83c7.33301 42 27.166 73.5 59.499 94.5s75.5 31.5 129.5 31.5h443zM561 251.999l32 181.999h-356c-40.667 0 -71 -7 -91 -21
c-16 -11.333 -26.333 -29 -31 -53l-8 -57c0 -17.333 7 -30.166 21 -38.499s39.333 -12.5 76 -12.5h357z" />
    <glyph glyph-name="endash" unicode="&#x2013;" horiz-adv-x="576" 
d="M60 326h458l-12 -66h-457z" />
    <glyph glyph-name="emdash" unicode="&#x2014;" horiz-adv-x="956" 
d="M100 326h762l-11 -66h-762z" />
    <glyph glyph-name="quoteleft" unicode="&#x2018;" horiz-adv-x="186" 
d="M132 621l-14 -77.998h-78l23 130c2 12 6.33301 22.667 13 32s14.667 16.666 24 21.999h38c-10.667 -6.66699 -19 -14.334 -25 -23.001s-10 -19 -12 -31l-9 -52h40z" />
    <glyph glyph-name="quoteright" unicode="&#x2019;" horiz-adv-x="186" 
d="M58 616l14 77.998h78l-23 -130c-2 -12 -6.33301 -22.667 -13 -32s-14.667 -16.666 -24 -21.999h-38c10.667 6.66699 19 14.334 25 23.001s10 19 12 31l9 52h-40z" />
    <glyph glyph-name="quotesinglbase" unicode="&#x201a;" horiz-adv-x="186" 
d="M62 0l14 77.998h78l-23 -130c-2 -12 -6.33301 -22.667 -13 -32s-14.667 -16.666 -24 -21.999h-38c10.667 6.66699 19 14.334 25 23.001s10 19 12 31l9 52h-40z" />
    <glyph glyph-name="quotedblleft" unicode="&#x201c;" horiz-adv-x="348" 
d="M294 624l-14 -77.998h-78l23 130c2 12 6.33301 22.667 13 32s14.667 16.666 24 21.999h38c-10.667 -6.66699 -19 -14.334 -25 -23.001s-10 -19 -12 -31l-9 -52h40zM134 624.002l-14 -77.998h-78l23 130c2 12 6.33301 22.667 13 32s14.667 16.666 24 21.999h38
c-10.667 -6.66699 -19 -14.334 -25 -23.001s-10 -19 -12 -31l-9 -52h40z" />
    <glyph glyph-name="quotedblright" unicode="&#x201d;" horiz-adv-x="358" 
d="M62 616l14 77.998h78l-23 -130c-2 -12 -6.33301 -22.667 -13 -32s-14.667 -16.666 -24 -21.999h-38c10.667 6.66699 19 14.334 25 23.001s10 19 12 31l9 52h-40zM222 615.998l14 77.998h78l-23 -130c-2 -12 -6.33301 -22.667 -13 -32s-14.667 -16.666 -24 -21.999h-38
c10.667 6.66699 19 14.334 25 23.001s10 19 12 31l9 52h-40z" />
    <glyph glyph-name="quotedblbase" unicode="&#x201e;" horiz-adv-x="358" 
d="M62 0l14 77.998h78l-23 -130c-2 -12 -6.33301 -22.667 -13 -32s-14.667 -16.666 -24 -21.999h-38c10.667 6.66699 19 14.334 25 23.001s10 19 12 31l9 52h-40zM222 -0.00195312l14 77.998h78l-23 -130c-2 -12 -6.33301 -22.667 -13 -32s-14.667 -16.666 -24 -21.999h-38
c10.667 6.66699 19 14.334 25 23.001s10 19 12 31l9 52h-40z" />
    <glyph glyph-name="daggerdbl" unicode="&#x2021;" horiz-adv-x="792" 
d="M718 538c0 30.667 -6.99902 53.334 -20.999 68.001s-37.667 22 -71 22h-308c-42 0 -75.5 -11.167 -100.5 -33.5s-37.5 -53.166 -37.5 -92.499c0 -12 10.333 -43.333 31 -94c10.667 -26 16 -51.333 16 -76h434l-12 -72h-426c-6 -32 -21.333 -65.5 -46 -100.5
s-53.334 -64.167 -86.001 -87.5h603l-13 -72h-698l13 72c38 20.667 73 51 105 91c30 37.333 47.333 69.666 52 96.999h-114l12 72h102c0 22 -10.333 52 -31 90c-10.667 20 -16 40.667 -16 62c0 63.333 20.833 114.166 62.5 152.499s95.167 57.5 160.5 57.5h308
c48.667 0 86 -10.333 112 -31s39 -52.667 39 -96l-2 -29h-68z" />
    <glyph glyph-name="bullet" unicode="&#x2022;" horiz-adv-x="478" 
d="M268 442c44.667 0 79.333 -13.001 104 -39.001c22 -23.333 33 -53.666 33 -90.999c0 -48 -17.333 -91 -52 -129c-38 -42 -85 -63 -141 -63c-46.667 0 -82.5 12.5 -107.5 37.5s-37.5 55.833 -37.5 92.5c0 48.667 18 92 54 130c39.333 41.333 88.333 62 147 62z" />
    <glyph glyph-name="ellipsis" unicode="&#x2026;" horiz-adv-x="466" 
d="M53 0l14 78h78l-14 -78h-78zM327 0l14 78h78l-14 -78h-78zM190 0l14 78h78l-14 -78h-78z" />
    <glyph glyph-name="perthousand" unicode="&#x2030;" horiz-adv-x="1640" 
d="M486 536c2.66699 12.667 3.99902 25.002 3.99902 37.002c0 22 -6.16699 37.333 -18.5 46s-33.833 13 -64.5 13h-148c-40 0 -67.667 -6.33301 -83 -19s-26.666 -38.334 -33.999 -77.001l-20 -116l-3 -32c0 -23.333 6.5 -39.833 19.5 -49.5s35.167 -14.5 66.5 -14.5h148
c35.333 0 61.5 7.16699 78.5 21.5s28.5 39.166 34.5 74.499zM526.999 414.002c-9.33301 -53.333 -28.001 -91.668 -56.001 -115.001s-69 -35 -123 -35h-162c-47.333 0 -81.166 7.5 -101.499 22.5s-30.5 40.5 -30.5 76.5c0 12.667 1.66699 29.667 5 51l22 128
c10 56.667 28.167 95.834 54.5 117.501s68.833 32.5 127.5 32.5h161c44.667 0 77.5 -7.33301 98.5 -22s31.5 -40.667 31.5 -78c0 -8.66699 -0.666992 -17.667 -2 -27s-2.33301 -17 -3 -23zM777.998 728l-339 -761h-59l339 761h59zM1036 272
c2.66699 12.667 3.99805 25.001 3.99805 37.001c0 22 -6.16699 37.333 -18.5 46s-33.833 13 -64.5 13h-148c-40 0 -67.667 -6.33301 -83 -19s-26.666 -38.334 -33.999 -77.001l-20 -116l-3 -32c0 -23.333 6.5 -39.833 19.5 -49.5s35.167 -14.5 66.5 -14.5h148
c64.667 0 102.334 32 113.001 96zM1077 150.001c-9.33301 -53.333 -28.001 -91.668 -56.001 -115.001s-69 -35 -123 -35h-162c-47.333 0 -81.166 7.5 -101.499 22.5s-30.5 40.5 -30.5 76.5c0 12.667 1.66699 29.667 5 51l22 128c10 56.667 28.167 95.834 54.5 117.501
s68.833 32.5 127.5 32.5h161c44.667 0 77.5 -7.33301 98.5 -22s31.5 -40.667 31.5 -78c0 -8.66699 -0.666992 -17.667 -2 -27s-2.33301 -17 -3 -23zM1538 271.999c2.66699 12.667 3.99902 25.002 3.99902 37.002c0 22 -6.16699 37.333 -18.5 46s-33.833 13 -64.5 13h-148
c-40 0 -67.667 -6.33301 -83 -19s-26.666 -38.334 -33.999 -77.001l-20 -116l-3 -32c0 -23.333 6.5 -39.833 19.5 -49.5s35.167 -14.5 66.5 -14.5h148c35.333 0 61.5 7.16699 78.5 21.5s28.5 39.166 34.5 74.499zM1578.99 150.001
c-9.33301 -53.333 -28.001 -91.668 -56.001 -115.001s-69 -35 -123 -35h-162c-47.333 0 -81.166 7.5 -101.499 22.5s-30.5 40.5 -30.5 76.5c0 12.667 1.66699 29.667 5 51l22 128c10 56.667 28.167 95.834 54.5 117.501s68.833 32.5 127.5 32.5h161
c44.667 0 77.5 -7.33301 98.5 -22s31.5 -40.667 31.5 -78c0 -8.66699 -0.666992 -17.667 -2 -27s-2.33301 -17 -3 -23z" />
    <glyph glyph-name="guilsinglleft" unicode="&#x2039;" horiz-adv-x="341" 
d="M118 278l140 -168l-40 -34l-166 202l242 206l26 -34z" />
    <glyph glyph-name="guilsinglright" unicode="&#x203a;" horiz-adv-x="339" 
d="M222 278l-143 174l40 32l169 -206l-237 -200l-26 32z" />
    <glyph glyph-name="trademark" unicode="&#x2122;" horiz-adv-x="1167" 
d="M97 833h405l-8 -43h-181l-58 -331h-44l58 331h-180zM564 833h83l133 -320l245 320h84l-66 -374h-44l58 331h-20l-250 -331h-38l-129 331h-20l-58 -331h-44z" />
    <glyph glyph-name=".null" horiz-adv-x="0" 
 />
    <glyph glyph-name="nonmarkingreturn" horiz-adv-x="318" 
 />
    </font>
</defs>
</svg>
