<?xml version="1.0" standalone="no"?>
<!DOCTYPE svg PUBLIC "-//W3C//DTD SVG 1.1//EN" "http://www.w3.org/Graphics/SVG/1.1/DTD/svg11.dtd" >
<svg>
<metadata>
Created by FontForge 20090914 at Thu Mar 28 00:22:31 2013
 By www-data
Copyright (C) 1993; Type Market Ltd. Moscow, 119136, Box 20; phone:(095)1427712; Created by A.Kustov
</metadata>
<defs>
<font id="Glasten" horiz-adv-x="584" >
  <font-face 
    font-family="Glasten"
    font-weight="400"
    font-stretch="normal"
    units-per-em="1000"
    panose-1="0 0 0 0 0 0 0 0 0 0"
    ascent="800"
    descent="-200"
    x-height="650"
    cap-height="651"
    bbox="-30 -178.001 1168 834"
    underline-thickness="50"
    underline-position="-75"
    unicode-range="U+0020-U+2122"
  />
<missing-glyph horiz-adv-x="822" 
d="M51 0v822h720v-822h-720zM720 51v720h-618v-720h618z" />
    <glyph glyph-name=".notdef" horiz-adv-x="822" 
d="M51 0v822h720v-822h-720zM720 51v720h-618v-720h618z" />
    <glyph glyph-name="space" unicode=" " horiz-adv-x="451" 
 />
    <glyph glyph-name="exclam" unicode="!" horiz-adv-x="302" 
d="M73 651h129v-452h-129v452zM73 129h129v-129h-129v129z" />
    <glyph glyph-name="quotedbl" unicode="&#x22;" horiz-adv-x="474" 
d="M253 407v246h89v-246h-89zM89 407v246h89v-246h-89z" />
    <glyph glyph-name="numbersign" unicode="#" horiz-adv-x="556" 
d="M463 263l-11 -82h-88l-25 -181h-86l25 181h-88l-25 -181h-86l26 181h-89l11 82h89l15 109h-88l11 82h88l25 181h86l-25 -181h88l25 181h86l-26 -181h89l-11 -82h-89l-15 -109h88zM305 372h-88l-16 -109h88z" />
    <glyph glyph-name="dollar" unicode="$" horiz-adv-x="516" 
d="M303 386c41.333 -14.667 74.499 -39.498 99.499 -74.498s37.5 -74.833 37.5 -119.5c0 -45.333 -13.5 -86 -40.5 -122s-61.5 -60.667 -103.5 -74v-94h-124v94c-42.667 14.667 -77.167 39.667 -103.5 75s-39.5 75.666 -39.5 120.999h131c0 -21.333 7.33301 -39.333 22 -54
s32.667 -22 54 -22c20.667 0 38.334 7.33301 53.001 22s22 32.667 22 54c0 35.333 -20.333 60.666 -61 75.999zM186.999 298.002c-34 10 -63.667 28 -89 54c-33.333 34.667 -50 77 -50 127c0 40 11.5 76 34.5 108s52.833 54.667 89.5 68v95h124v-95
c36.667 -12 66.834 -34.167 90.501 -66.5s35.5 -68.833 35.5 -109.5h-129c0 16 -5.33301 29.667 -16 41s-24.334 17 -41.001 17c-16 0 -29.667 -5.66699 -41 -17s-17 -25 -17 -41c0 -11.333 3.33301 -22 10 -32s15 -17 25 -21l27 -12z" />
    <glyph glyph-name="percent" unicode="%" horiz-adv-x="889" 
d="M617 646l-362 -663h-68l363 663h67zM25 493c4 40.667 20 75.666 48 104.999c31.333 32 70.666 48 117.999 48c45.333 0 84.333 -15.667 117 -47s49 -66.666 49 -105.999h-94c0 14 -7 27.333 -21 40s-31 19 -51 19c-19.333 0 -36.166 -6.16699 -50.499 -18.5
s-21.5 -25.833 -21.5 -40.5h-94zM25 465.999l94 -0.000976562c0 -13.333 7.16699 -26.5 21.5 -39.5s30.833 -19.5 49.5 -19.5c19.333 0 36.333 6.33301 51 19s22 26 22 40h94c0 -39.333 -16 -74.666 -48 -105.999s-71.333 -47 -118 -47s-85.667 16 -117 48
c-28.667 29.333 -45 64.333 -49 105zM452 168.998c4 40.667 20 75.666 48 104.999c31.333 32 70.666 48 117.999 48c45.333 0 84.333 -15.667 117 -47s49 -66.666 49 -105.999h-94c0 14 -7 27.333 -21 40s-31 19 -51 19c-19.333 0 -36.166 -6.16699 -50.499 -18.5
s-21.5 -25.833 -21.5 -40.5h-94zM452 141.997l94 -0.000976562c0 -13.333 7.16699 -26.5 21.5 -39.5s30.833 -19.5 49.5 -19.5c19.333 0 36.333 6.33301 51 19s22 26 22 40h94c0 -39.333 -16 -74.666 -48 -105.999s-71.333 -47 -118 -47s-85.667 16 -117 48
c-28.667 29.333 -45 64.333 -49 105z" />
    <glyph glyph-name="ampersand" unicode="&#x26;" horiz-adv-x="652" 
d="M322 651l-0.000976562 -130h-77c-15.333 0 -29.666 -6.66699 -42.999 -20s-20 -28.333 -20 -45c0 -16 6.66699 -31 20 -45s27.666 -21 42.999 -21h146v131h130v-131h58v-129h-58v-261h-130v261h-146c-52 0 -97 19.333 -135 58s-57 84.334 -57 137.001
c0 53.333 18.833 99.166 56.5 137.499s82.834 57.5 135.501 57.5h77zM181.999 205c0 -20.667 5.83398 -38.5 17.501 -53.5s28.167 -22.5 49.5 -22.5h73v-129h-77c-56.667 0 -104.334 21 -143.001 63s-58 91 -58 147c0 11.333 1 23 3 35s5.33301 23.667 10 35
c12 -16.667 29.667 -33.667 53 -51c25.333 -16 49.333 -24 72 -24z" />
    <glyph glyph-name="quotesingle" unicode="'" horiz-adv-x="296" 
d="M89 407v246h89v-246h-89z" />
    <glyph glyph-name="parenleft" unicode="(" horiz-adv-x="436" 
d="M50 326c0 84 19 162.666 57 235.999c35.333 68.667 86 128.334 152 179.001l83 -98c-50.667 -36.667 -90.5 -82.5 -119.5 -137.5s-43.5 -115.167 -43.5 -180.5c0 -68 14 -130 42 -186s68.333 -102 121 -138l-83 -100c-64.667 50 -115.667 112 -153 186
s-56 153.667 -56 239z" />
    <glyph glyph-name="parenright" unicode=")" horiz-adv-x="436" 
d="M341 326c0 -84.667 -18.667 -164.169 -56 -238.502s-88.333 -136.5 -153 -186.5l-83 100c51.333 34.667 91.333 80.5 120 137.5s43 119.167 43 186.5c0 64.667 -14.5 124.834 -43.5 180.501s-68.833 101.5 -119.5 137.5l83 98
c65.333 -51.333 116.5 -112.166 153.5 -182.499s55.5 -147.833 55.5 -232.5z" />
    <glyph glyph-name="asterisk" unicode="*" horiz-adv-x="389" 
d="M308 576l21 -66l-95 -30l63 -88l-58 -40l-62 83l-62 -83l-58 40l62 88l-94 30l21 66l92 -31v108h78v-108z" />
    <glyph glyph-name="plus" unicode="+" 
d="M215 281v179h102v-179h178v-102h-178v-179h-102v179h-179v102h179z" />
    <glyph glyph-name="comma" unicode="," horiz-adv-x="278" 
d="M195 133v-115.001c0 -52.667 -12.667 -93 -38 -121c-21.333 -23.333 -54 -40 -98 -50l-1 48c24.667 8.66699 42 18 52 28c16.667 16.667 25 42.334 25 77.001h-77v133h137z" />
    <glyph glyph-name="hyphen" unicode="-" 
d="M495 179h-459v102h459v-102z" />
    <glyph glyph-name="period" unicode="." horiz-adv-x="278" 
d="M58 133h137v-133h-137v133z" />
    <glyph glyph-name="slash" unicode="/" horiz-adv-x="278" 
d="M283 671l-207 -688h-106l207 688h106z" />
    <glyph glyph-name="zero" unicode="0" horiz-adv-x="807" 
d="M161 360h-131.999c9.33301 88.667 45.333 161.667 108 219s139.667 86 231 86c90 0 168.667 -29.333 236 -88s101 -131 101 -217h-132c-6.66699 49.333 -28.334 90.333 -65.001 123c-38.667 34.667 -85.334 52 -140.001 52c-53.333 0 -99.166 -16.833 -137.499 -50.5
s-61.5 -75.167 -69.5 -124.5zM161.001 291c6.66699 -49.333 28.833 -90.833 66.5 -124.5s84.5 -50.5 140.5 -50.5c55.333 0 102.333 18 141 54s60 76.333 64 121h132c0 -85.333 -33.833 -157.5 -101.5 -216.5s-146.167 -88.5 -235.5 -88.5s-165.833 28.833 -229.5 86.5
s-100.167 130.5 -109.5 218.5h132z" />
    <glyph glyph-name="one" unicode="1" horiz-adv-x="314" 
d="M213 665v-665h-130v409l-39 -34v160z" />
    <glyph glyph-name="two" unicode="2" horiz-adv-x="585" 
d="M173 442l-128.999 -0.000976562c0 62.667 21.833 115.5 65.5 158.5s95.167 64.5 154.5 64.5c65.333 0 119.666 -23.333 162.999 -70c40.667 -43.333 61 -94.333 61 -153c0 -22 -3.33301 -44.333 -10 -67s-18.667 -45 -36 -67l-83 -108h-163l145 189
c12 16.667 18 34.334 18 53.001c0 25.333 -9 47.333 -27 66s-40.667 28 -68 28c-25.333 0 -46.833 -9.5 -64.5 -28.5s-26.5 -40.833 -26.5 -65.5zM44.001 -0.000976562l99 130h345v-130h-444z" />
    <glyph glyph-name="three" unicode="3" horiz-adv-x="564" 
d="M291 662c43.333 -4.66699 80.3311 -26.1709 110.998 -64.5039s46 -80.833 46 -127.5c0 -22.667 -3.33301 -42.334 -10 -59.001s-18 -36.667 -34 -60c22 -20 38.5 -43.167 49.5 -69.5s16.5 -53.833 16.5 -82.5c0 -52.667 -16.167 -98.167 -48.5 -136.5
s-75.833 -63.166 -130.5 -74.499v129c20 10.667 33.833 22.834 41.5 36.501s11.5 28.834 11.5 45.501c0 18.667 -6.16699 36.834 -18.5 54.501s-23.833 26.5 -34.5 26.5h-68v130h68c6.66699 0 14.334 7.33301 23.001 22s13 27.334 13 38.001c0 12 -2.66699 23.5 -8 34.5
s-14.666 20.167 -27.999 27.5v130zM66.998 469.996c0 46 15 87.998 45 125.998c32.667 41.333 69.667 63.333 111 66v-130c-12 -7.33301 -20.833 -16.666 -26.5 -27.999s-8.5 -22.666 -8.5 -33.999h-121zM43.998 198.994l125 -0.000976562c0 -16.667 4 -31.667 12 -45
s22 -25.666 42 -36.999v-129c-54 11.333 -97.333 36 -130 74s-49 83.667 -49 137z" />
    <glyph glyph-name="four" unicode="4" horiz-adv-x="668" 
d="M498 665v-363h66v-129h-66v-173h-130v522zM298 173h-254l120 129h134v-129z" />
    <glyph glyph-name="five" unicode="5" horiz-adv-x="564" 
d="M66 650h130.001v-241h69c53.333 0 100.666 -20.333 141.999 -61s62 -90 62 -148c0 -52 -16.333 -97.667 -49 -137s-75.667 -64.666 -129 -75.999v129c18.667 10.667 32 23.167 40 37.5s12 29.166 12 44.499c0 22.667 -5 40.667 -15 54c-13.333 18 -34.333 27 -63 27h-199
v371zM265.001 650h186v-129h-186v129zM222.001 116v-129c-54 12 -97.167 36.833 -129.5 74.5s-48.5 83.167 -48.5 136.5h125c0 -16 4 -31 12 -45s21.667 -26.333 41 -37z" />
    <glyph glyph-name="six" unicode="6" horiz-adv-x="548" 
d="M216 121v-133.001c-56.667 8.66699 -102 33.334 -136 74.001s-51 89 -51 145c0 17.333 2.33301 34.666 7 51.999s11.667 37.666 21 60.999l137 330h137l-160 -392c-8.66699 -22 -13 -39 -13 -51c0 -21.333 4.66699 -38.666 14 -51.999s24 -24.666 44 -33.999z
M284 120.999c18 9.33301 31.833 20.6689 41.5 34.002s14.5 30.666 14.5 51.999c0 24.667 -7.5 45.167 -22.5 61.5s-33.5 26.166 -55.5 29.499l50 122c47.333 -15.333 85.5 -41.5 114.5 -78.5s43.5 -81.833 43.5 -134.5c0 -58 -19 -107.667 -57 -149
c-35.333 -38.667 -78.333 -62 -129 -70v133z" />
    <glyph glyph-name="seven" unicode="7" horiz-adv-x="547" 
d="M412 521h-384v130h441zM184 0h-142l197 451h142z" />
    <glyph glyph-name="eight" unicode="8" horiz-adv-x="532" 
d="M277 532v130.001c42.667 -4.66699 79.167 -26.167 109.5 -64.5s45.5 -80.833 45.5 -127.5c0 -30 -5 -55.333 -15 -76c-4 -8 -13.333 -22.333 -28 -43c22 -20.667 38.5 -44 49.5 -70s16.5 -53.333 16.5 -82c0 -52.667 -16.167 -98.167 -48.5 -136.5
s-75.5 -63.166 -129.5 -74.499v129c19.333 10.667 32.833 23 40.5 37s11.5 29 11.5 45c0 36.667 -17.333 63.334 -52 80.001v131c12 7.33301 20.667 16.166 26 26.499s8 21.5 8 33.5c0 11.333 -2.66699 22.666 -8 33.999s-14 20.666 -26 27.999zM207 532.001
c-12 -7.33301 -20.667 -16.333 -26 -27s-8 -22.334 -8 -35.001c0 -13.333 2.5 -24.666 7.5 -33.999s13.833 -18 26.5 -26v-131c-34.667 -16.667 -52 -43.334 -52 -80.001c0 -16 4 -31 12 -45s21.333 -26.333 40 -37v-129c-53.333 11.333 -96.333 36.166 -129 74.499
s-49 83.833 -49 136.5c0 28.667 5.5 56 16.5 82s27.5 49.333 49.5 70c-15.333 22.667 -26.333 42.334 -33 59.001s-10 36.667 -10 60c0 46 15.167 88.333 45.5 127s66.833 60.334 109.5 65.001v-130z" />
    <glyph glyph-name="nine" unicode="9" horiz-adv-x="548" 
d="M284 528v133c56 -8 101 -32.667 135 -74s51 -90 51 -146c0 -18 -2.33301 -35.333 -7 -52s-12 -36.667 -22 -60l-133 -329h-141l161 391c8 20 12 36.667 12 50c0 40.667 -18.667 69.667 -56 87zM216 528c-18 -9.33301 -31.667 -20 -41 -32
c-11.333 -14.667 -17 -33 -17 -55c0 -24.667 7.5 -45 22.5 -61s33.833 -25.667 56.5 -29l-50 -122c-48 16 -85.667 41.333 -113 76c-30 38 -45 83.333 -45 136c0 58 19.333 108 58 150c35.333 38.667 78.333 62 129 70v-133z" />
    <glyph glyph-name="colon" unicode=":" horiz-adv-x="333" 
d="M84 133h136v-133h-136v133zM84 466h136v-133h-136v133z" />
    <glyph glyph-name="semicolon" unicode=";" horiz-adv-x="333" 
d="M220 133l-0.000976562 -115c0 -52.667 -12.667 -93 -38 -121c-21.333 -23.333 -53.666 -40 -96.999 -50l-1 48c24 8.66699 41 18 51 28c16.667 17.333 25 43 25 77h-76v133h136zM83.999 466h136v-133h-136v133z" />
    <glyph glyph-name="less" unicode="&#x3c;" 
d="M497 91v-98l-462 196v82l462 197v-99l-330 -139z" />
    <glyph glyph-name="equal" unicode="=" 
d="M495 381v-102h-459v102h459zM495 181v-102h-459v102h459z" />
    <glyph glyph-name="greater" unicode="&#x3e;" 
d="M35 91l330 139l-330 139v99l462 -197v-82l-462 -196v98z" />
    <glyph glyph-name="question" unicode="?" horiz-adv-x="576" 
d="M262 200h-104v129h104c28.667 0 53.167 10.167 73.5 30.5s30.5 44.833 30.5 73.5s-10 53 -30 73s-44.667 30 -74 30c-28.667 0 -53.167 -9.83301 -73.5 -29.5s-30.5 -44.167 -30.5 -73.5h-129c0 64 22.333 118.667 67 164s100 68 166 68
c65.333 0 120.5 -22.833 165.5 -68.5s67.5 -100.167 67.5 -163.5c0 -62 -21.333 -115.667 -64 -161c-44.667 -48 -101 -72 -169 -72zM158 129h130v-129h-130v129z" />
    <glyph glyph-name="at" unicode="@" horiz-adv-x="975" 
d="M529 342c0 22.667 -6.66699 41.334 -20 56.001s-31 22 -53 22c-30 0 -55.333 -12.833 -76 -38.5s-31 -53.834 -31 -84.501c0 -24 6.5 -43.5 19.5 -58.5s30.167 -22.5 51.5 -22.5c31.333 0 57.333 13 78 39s31 55 31 87zM556 449l11.999 48h80l-53 -232l-6 -37
c0 -14 4.33301 -21 13 -21c26 0 49.667 14.833 71 44.5s32 68.5 32 116.5c0 72 -23.167 128.333 -69.5 169s-105.833 61 -178.5 61c-77.333 0 -140 -25.667 -188 -77s-72 -116.666 -72 -195.999c0 -80 25.5 -144.833 76.5 -194.5s116.5 -74.5 196.5 -74.5
c36 0 70.5 6.5 103.5 19.5s62.167 30.833 87.5 53.5h81c-66 -97.333 -158.667 -146 -278 -146c-99.333 0 -183.666 32.667 -252.999 98s-104 147.333 -104 246c0 96.667 34.333 178.167 103 244.5s151.667 99.5 249 99.5c85.333 0 159 -25.667 221 -77
c66 -54.667 99 -123 99 -205c0 -86 -30.667 -154.333 -92 -205c-47.333 -39.333 -94 -59 -140 -59c-14.667 0 -27 4 -37 12s-15 20 -15 36c-14 -14.667 -29.167 -26.334 -45.5 -35.001s-33.5 -13 -51.5 -13c-40 0 -74.5 15.5 -103.5 46.5s-43.5 68.167 -43.5 111.5
c0 60 17.667 111.667 53 155c38 46.667 85.333 70 142 70c24 0 45.167 -4.66699 63.5 -14s33.833 -24.333 46.5 -45z" />
    <glyph glyph-name="A" unicode="A" horiz-adv-x="780" 
d="M492 110h-199l66 129h69l-147 283l74 143l340 -665h-145zM160 0h-145l229 448l73 -143z" />
    <glyph glyph-name="B" unicode="B" horiz-adv-x="652" 
d="M202 651v-651h-129v651h129zM272 651h77.001c52 0 97 -19.333 135 -58s57 -84 57 -136c0 -52.667 -18.833 -98.5 -56.5 -137.5s-82.834 -58.5 -135.501 -58.5h-77v129h77c16 0 30.333 7 43 21s19 29 19 45s-6.5 30.833 -19.5 44.5s-27.167 20.5 -42.5 20.5h-77v130z
M413.001 204c22 0 45.168 7.99902 69.501 23.999s42.5 33.333 54.5 52c8.66699 -21.333 13 -44.666 13 -69.999c0 -55.333 -19.333 -104.166 -58 -146.499s-86.334 -63.5 -143.001 -63.5h-77v129h73c20.667 0 37.167 7.16699 49.5 21.5s18.5 32.166 18.5 53.499z" />
    <glyph glyph-name="C" unicode="C" horiz-adv-x="708" 
d="M615 562l-95.998 -89c-14 14 -29.667 25.667 -47 35c-20.667 11.333 -43.334 19.333 -68.001 24v130c39.333 -3.33301 77.666 -14 114.999 -32s69.333 -40.667 96 -68zM615.002 89c-26 -26.667 -56.667 -49.334 -92 -68.001c-42 -22 -81.667 -33 -119 -33v129
c44.667 8.66699 83 28.334 115 59.001zM335.002 117l0.00195312 -129c-94.667 10.667 -169.334 47 -224.001 109s-82 138.333 -82 229c0 92.667 27.667 169.334 83 230.001s129.666 96 222.999 106v-130c-48.667 -8 -89 -29 -121 -63c-35.333 -38 -53 -85.667 -53 -143
c0 -58.667 16.333 -106.334 49 -143.001c30 -33.333 71.667 -55.333 125 -66z" />
    <glyph glyph-name="D" unicode="D" horiz-adv-x="785" 
d="M217 651v-651h-130v651h130zM348 0l-61.999 -0.000976562v129h62c54.667 0 100.5 18.833 137.5 56.5s55.5 82.834 55.5 135.501c0 55.333 -18.833 102.5 -56.5 141.5s-83.834 58.5 -138.501 58.5h-60v130h62c89.333 0 165.333 -31.667 228 -95s94 -141.333 94 -234
c0 -88 -31.333 -163.667 -94 -227s-138.667 -95 -228 -95z" />
    <glyph glyph-name="E" unicode="E" horiz-adv-x="674" 
d="M287 651h268v-130h-268v130zM287 390h268v-129h-268v129zM217 651v-651h-130v651h130zM287 129h268v-129h-268v129z" />
    <glyph glyph-name="F" unicode="F" horiz-adv-x="658" 
d="M272 651h269v-130h-269v130zM272 390h269v-129h-269v129zM202 651v-651h-129v651h129z" />
    <glyph glyph-name="G" unicode="G" horiz-adv-x="807" 
d="M683 201c-20 -62 -59.834 -113.334 -119.501 -154.001s-124.5 -61 -194.5 -61c-96.667 0 -177.5 32.167 -242.5 96.5s-97.5 145.5 -97.5 243.5c0 97.333 31.833 178.166 95.5 242.499s144.834 96.5 243.501 96.5c46 0 90.333 -8.66699 133 -26
s78.667 -41.666 108 -72.999l-95 -89c-40.667 39.333 -89.667 59 -147 59c-54 0 -100.667 -17.667 -140 -53c-44 -39.333 -66 -91.666 -66 -156.999s20.667 -117.333 62 -156c38.667 -36 87 -54 145 -54c33.333 0 65 7.33301 95 22s54.667 35.667 74 63h146z
M393.999 398.999l300 0.00292969c2.66699 -6.66699 5.16699 -17.334 7.5 -32.001s3.5 -25.334 3.5 -32.001c0 -13.333 -1 -26.333 -3 -39s-4.33301 -21.334 -7 -26.001h-301v129z" />
    <glyph glyph-name="H" unicode="H" horiz-adv-x="739" 
d="M202 651v-651h-129v651h129zM609 651v-651h-129v651h129zM255 261v129h171v-129h-171z" />
    <glyph glyph-name="I" unicode="I" horiz-adv-x="302" 
d="M202 651v-651h-129v651h129z" />
    <glyph glyph-name="J" unicode="J" horiz-adv-x="596" 
d="M340 207l0.000976562 443h130v-443c0 -60 -19 -110.333 -57 -151c-34.667 -37.333 -77.667 -60 -129 -68v133c15.333 6.66699 27.666 16 36.999 28c12.667 16 19 35.333 19 58zM29.001 207l129 -0.000976562c0 -22 6 -41 18 -57c10 -13.333 23.333 -23 40 -29v-133
c-54 8.66699 -98.667 33.334 -134 74.001s-53 89 -53 145z" />
    <glyph glyph-name="K" unicode="K" horiz-adv-x="688" 
d="M200 651v-651h-129v651h129zM446 651h156l-175 -263l-81 113zM460 0l-233 324l78 115l314 -439h-159z" />
    <glyph glyph-name="L" unicode="L" horiz-adv-x="526" 
d="M202 651v-651h-129v651h129zM271 0v130h179v-130h-179z" />
    <glyph glyph-name="M" unicode="M" horiz-adv-x="854" 
d="M202 285v-285h-129v400zM389 211l-316 281v173l316 -281l315 281v-665h-129v378z" />
    <glyph glyph-name="N" unicode="N" horiz-adv-x="697" 
d="M202 249v-249h-129v380zM561 -15l-488 495v185l358 -364v350h130v-666z" />
    <glyph glyph-name="O" unicode="O" horiz-adv-x="807" 
d="M161 360h-131.998c9.33301 88.667 45.333 161.667 108 219s139.667 86 231 86c90 0 168.667 -29.333 236 -88s101 -131 101 -217h-132c-6.66699 49.333 -28.667 91 -66 125s-83.333 51 -138 51s-100.834 -17 -138.501 -51s-60.834 -75.667 -69.501 -125zM161.002 294
c6.66699 -49.333 28.833 -91.168 66.5 -125.501s84.5 -51.5 140.5 -51.5c55.333 0 102.333 17.5 141 52.5s60 76.5 64 124.5h132c0 -86 -33.833 -158.5 -101.5 -217.5s-146.167 -88.5 -235.5 -88.5s-165.833 28.833 -229.5 86.5s-100.167 130.834 -109.5 219.501h132z" />
    <glyph glyph-name="P" unicode="P" horiz-adv-x="628" 
d="M273 651h76c52.667 0 97.834 -19.167 135.501 -57.5s56.5 -83.833 56.5 -136.5s-18.833 -98.5 -56.5 -137.5s-82.834 -58.5 -135.501 -58.5h-76v129h76c15.333 0 29.666 7 42.999 21s20 29 20 45c0 15.333 -6.66699 30 -20 44s-27.666 21 -42.999 21h-76v130zM203 651
v-651h-129v651h129z" />
    <glyph glyph-name="Q" unicode="Q" horiz-adv-x="807" 
d="M161 360l-131.998 0.00195312c9.33301 88.667 45.333 161.667 108 219s139.667 86 231 86c92.667 0 171 -30.333 235 -91c68 -64 102 -146.667 102 -248c0 -36 -2.33301 -64.333 -7 -85s-11.334 -39.334 -20.001 -56.001h-138c12 16 20.5 34.5 25.5 55.5
s7.5 49.5 7.5 85.5c0 65.333 -21.667 117.666 -65 156.999c-39.333 35.333 -85.666 53 -138.999 53c-54.667 0 -100.834 -17 -138.501 -51s-60.834 -75.667 -69.501 -125zM368.002 116.002l337 -0.000976562v-130h-339c-102.667 0 -187 37 -253 111
c-56 62.667 -84 127.334 -84 194.001h132c0 -38 17.667 -75 53 -111c42 -42.667 93.333 -64 154 -64z" />
    <glyph glyph-name="R" unicode="R" horiz-adv-x="626" 
d="M271 651l78 0.00195312c52 0 97 -19.333 135 -58s57 -84.334 57 -137.001s-19 -98.334 -57 -137.001s-83 -58 -135 -58h-78v129h78c14.667 0 28.667 7 42 21s20 29 20 45s-6.5 30.833 -19.5 44.5s-27.167 20.5 -42.5 20.5h-78v130zM202 651.002v-651h-129v651h129z
M558 0.00195312h-146.999l-83 200c24.667 0 48.167 3 70.5 9s41.166 14 56.499 24z" />
    <glyph glyph-name="S" unicode="S" horiz-adv-x="516" 
d="M303 387c41.333 -14.667 74.501 -39.499 99.501 -74.499s37.5 -74.833 37.5 -119.5c0 -57.333 -19.833 -105.833 -59.5 -145.5s-87.834 -59.5 -144.501 -59.5s-105.334 20 -146.001 60s-61 88.333 -61 145h131c0 -21.333 7.33301 -39.333 22 -54s32.667 -22 54 -22
c20.667 0 38.334 7.33301 53.001 22s22 32.667 22 54c0 35.333 -20.333 60.666 -61 75.999zM187.001 298.001c-34.667 10 -64.3311 27.667 -88.998 53c-33.333 34 -50 76.333 -50 127c0 51.333 18.333 95.333 55 132s81 55 133 55c51.333 0 95.166 -18.167 131.499 -54.5
s54.5 -80.5 54.5 -132.5h-129c0 16 -5.33301 29.667 -16 41s-24.334 17 -41.001 17c-15.333 0 -29 -5.66699 -41 -17s-18 -25 -18 -41c0 -26 12 -43.667 36 -53l27 -12z" />
    <glyph glyph-name="T" unicode="T" horiz-adv-x="512" 
d="M168 451h130v-451h-130v451zM29 651h408v-130h-408v130z" />
    <glyph glyph-name="U" unicode="U" horiz-adv-x="692" 
d="M427 651h128.999v-424c0 -65.333 -23 -122.333 -69 -171c-42.667 -45.333 -88.667 -68 -138 -68v133c20.667 6 38.834 19 54.501 39s23.5 42.333 23.5 67v424zM201.999 651v-423.001c0 -27.333 8.33301 -51 25 -71c14 -17.333 31.667 -29.333 53 -36v-133
c-52 6.66699 -98.333 30.667 -139 72c-45.333 46.667 -68 102.334 -68 167.001v424h129z" />
    <glyph glyph-name="V" unicode="V" horiz-adv-x="760" 
d="M539 651h145l-226 -444l-73 142zM153 651l266 -523l-73 -143l-339 666h146z" />
    <glyph glyph-name="W" unicode="W" horiz-adv-x="900" 
d="M410 665l203 -506l-70 -174l-133 332l-27 -66l-73 169zM672 651h140l-161 -399l-68 168zM7 651h140l199 -493l-70 -173z" />
    <glyph glyph-name="X" unicode="X" horiz-adv-x="722" 
d="M471 0l-442 651h157l442 -651h-157zM449 385l-79 117l101 149h157zM288 148l-102 -148h-157l180 265z" />
    <glyph glyph-name="Y" unicode="Y" horiz-adv-x="672" 
d="M186 386l-179 265h157l100 -149zM360 290v-290h-129v328l217 323h156z" />
    <glyph glyph-name="Z" unicode="Z" horiz-adv-x="724" 
d="M40 0l78 130h497v-130h-575zM313 199h-152l154 252h153zM510 521h-466v130h544z" />
    <glyph glyph-name="bracketleft" unicode="[" horiz-adv-x="333" 
d="M168 570v-661h113v-87h-224v835h224v-87h-113z" />
    <glyph glyph-name="backslash" unicode="\" horiz-adv-x="278" 
d="M177 -17l-207 688h106l207 -688h-106z" />
    <glyph glyph-name="bracketright" unicode="]" horiz-adv-x="343" 
d="M151 570h-113v87h224v-835h-224v87h113v661z" />
    <glyph glyph-name="asciicircum" unicode="^" 
d="M156 294h-100l164 341h91l164 -341h-100l-109 239z" />
    <glyph glyph-name="underscore" unicode="_" horiz-adv-x="556" 
d="M506 -114h-506v46h506v-46z" />
    <glyph glyph-name="grave" unicode="`" horiz-adv-x="333" 
d="M113 550l-134 133h140l86 -133h-92z" />
    <glyph glyph-name="a" unicode="a" horiz-adv-x="780" 
d="M492 110h-199l66 129h69l-147 283l74 143l340 -665h-145zM160 0h-145l229 448l73 -143z" />
    <glyph glyph-name="b" unicode="b" horiz-adv-x="652" 
d="M202 651v-651h-129v651h129zM272 651h77.001c52 0 97 -19.333 135 -58s57 -84 57 -136c0 -52.667 -18.833 -98.5 -56.5 -137.5s-82.834 -58.5 -135.501 -58.5h-77v129h77c16 0 30.333 7 43 21s19 29 19 45s-6.5 30.833 -19.5 44.5s-27.167 20.5 -42.5 20.5h-77v130z
M413.001 204c22 0 45.168 7.99902 69.501 23.999s42.5 33.333 54.5 52c8.66699 -21.333 13 -44.666 13 -69.999c0 -55.333 -19.333 -104.166 -58 -146.499s-86.334 -63.5 -143.001 -63.5h-77v129h73c20.667 0 37.167 7.16699 49.5 21.5s18.5 32.166 18.5 53.499z" />
    <glyph glyph-name="c" unicode="c" horiz-adv-x="708" 
d="M615 562l-95.998 -89c-14 14 -29.667 25.667 -47 35c-20.667 11.333 -43.334 19.333 -68.001 24v130c39.333 -3.33301 77.666 -14 114.999 -32s69.333 -40.667 96 -68zM615.002 89c-26 -26.667 -56.667 -49.334 -92 -68.001c-42 -22 -81.667 -33 -119 -33v129
c44.667 8.66699 83 28.334 115 59.001zM335.002 117l0.00195312 -129c-94.667 10.667 -169.334 47 -224.001 109s-82 138.333 -82 229c0 92.667 27.667 169.334 83 230.001s129.666 96 222.999 106v-130c-48.667 -8 -89 -29 -121 -63c-35.333 -38 -53 -85.667 -53 -143
c0 -58.667 16.333 -106.334 49 -143.001c30 -33.333 71.667 -55.333 125 -66z" />
    <glyph glyph-name="d" unicode="d" horiz-adv-x="785" 
d="M217 651v-651h-130v651h130zM348 0l-61.999 -0.000976562v129h62c54.667 0 100.5 18.833 137.5 56.5s55.5 82.834 55.5 135.501c0 55.333 -18.833 102.5 -56.5 141.5s-83.834 58.5 -138.501 58.5h-60v130h62c89.333 0 165.333 -31.667 228 -95s94 -141.333 94 -234
c0 -88 -31.333 -163.667 -94 -227s-138.667 -95 -228 -95z" />
    <glyph glyph-name="e" unicode="e" horiz-adv-x="674" 
d="M287 651h268v-130h-268v130zM287 390h268v-129h-268v129zM217 651v-651h-130v651h130zM287 129h268v-129h-268v129z" />
    <glyph glyph-name="f" unicode="f" horiz-adv-x="658" 
d="M272 651h269v-130h-269v130zM272 390h269v-129h-269v129zM202 651v-651h-129v651h129z" />
    <glyph glyph-name="g" unicode="g" horiz-adv-x="807" 
d="M683 201c-20 -62 -59.834 -113.334 -119.501 -154.001s-124.5 -61 -194.5 -61c-96.667 0 -177.5 32.167 -242.5 96.5s-97.5 145.5 -97.5 243.5c0 97.333 31.833 178.166 95.5 242.499s144.834 96.5 243.501 96.5c46 0 90.333 -8.66699 133 -26
s78.667 -41.666 108 -72.999l-95 -89c-40.667 39.333 -89.667 59 -147 59c-54 0 -100.667 -17.667 -140 -53c-44 -39.333 -66 -91.666 -66 -156.999s20.667 -117.333 62 -156c38.667 -36 87 -54 145 -54c33.333 0 65 7.33301 95 22s54.667 35.667 74 63h146z
M393.999 398.999l300 0.00292969c2.66699 -6.66699 5.16699 -17.334 7.5 -32.001s3.5 -25.334 3.5 -32.001c0 -13.333 -1 -26.333 -3 -39s-4.33301 -21.334 -7 -26.001h-301v129z" />
    <glyph glyph-name="h" unicode="h" horiz-adv-x="739" 
d="M202 651v-651h-129v651h129zM609 651v-651h-129v651h129zM255 261v129h171v-129h-171z" />
    <glyph glyph-name="i" unicode="i" horiz-adv-x="302" 
d="M202 651v-651h-129v651h129z" />
    <glyph glyph-name="j" unicode="j" horiz-adv-x="596" 
d="M340 207l0.000976562 444h130v-444c0 -60 -19 -110.333 -57 -151c-34.667 -37.333 -77.667 -60 -129 -68v133c15.333 6.66699 27.666 16 36.999 28c12.667 16 19 35.333 19 58zM29.001 207l129 -0.000976562c0 -22 6 -41 18 -57c10 -13.333 23.333 -23 40 -29v-133
c-54 8.66699 -98.667 33.334 -134 74.001s-53 89 -53 145z" />
    <glyph glyph-name="k" unicode="k" horiz-adv-x="688" 
d="M200 651v-651h-129v651h129zM446 651h156l-175 -263l-81 113zM460 0l-233 324l78 115l314 -439h-159z" />
    <glyph glyph-name="l" unicode="l" horiz-adv-x="526" 
d="M202 651v-651h-129v651h129zM271 0v130h179v-130h-179z" />
    <glyph glyph-name="m" unicode="m" horiz-adv-x="854" 
d="M202 285v-285h-129v400zM389 211l-316 281v173l316 -281l315 281v-665h-129v378z" />
    <glyph glyph-name="n" unicode="n" horiz-adv-x="697" 
d="M202 249v-249h-129v380zM561 -15l-488 495v185l358 -364v350h130v-666z" />
    <glyph glyph-name="o" unicode="o" horiz-adv-x="807" 
d="M161 360h-131.998c9.33301 88.667 45.333 161.667 108 219s139.667 86 231 86c90 0 168.667 -29.333 236 -88s101 -131 101 -217h-132c-6.66699 49.333 -28.667 91 -66 125s-83.333 51 -138 51s-100.834 -17 -138.501 -51s-60.834 -75.667 -69.501 -125zM161.002 294
c6.66699 -49.333 28.833 -91.168 66.5 -125.501s84.5 -51.5 140.5 -51.5c55.333 0 102.333 17.5 141 52.5s60 76.5 64 124.5h132c0 -86 -33.833 -158.5 -101.5 -217.5s-146.167 -88.5 -235.5 -88.5s-165.833 28.833 -229.5 86.5s-100.167 130.834 -109.5 219.501h132z" />
    <glyph glyph-name="p" unicode="p" horiz-adv-x="628" 
d="M273 651h76c52.667 0 97.834 -19.167 135.501 -57.5s56.5 -83.833 56.5 -136.5s-18.833 -98.5 -56.5 -137.5s-82.834 -58.5 -135.501 -58.5h-76v129h76c15.333 0 29.666 7 42.999 21s20 29 20 45c0 15.333 -6.66699 30 -20 44s-27.666 21 -42.999 21h-76v130zM203 651
v-651h-129v651h129z" />
    <glyph glyph-name="q" unicode="q" horiz-adv-x="807" 
d="M161 360l-131.998 0.00195312c9.33301 88.667 45.333 161.667 108 219s139.667 86 231 86c92.667 0 171 -30.333 235 -91c68 -64 102 -146.667 102 -248c0 -36 -2.33301 -64.333 -7 -85s-11.334 -39.334 -20.001 -56.001h-138c12 16 20.5 34.5 25.5 55.5
s7.5 49.5 7.5 85.5c0 65.333 -21.667 117.666 -65 156.999c-39.333 35.333 -85.666 53 -138.999 53c-54.667 0 -100.834 -17 -138.501 -51s-60.834 -75.667 -69.501 -125zM368.002 116.002l337 -0.000976562v-130h-339c-102.667 0 -187 37 -253 111
c-56 62.667 -84 127.334 -84 194.001h132c0 -38 17.667 -75 53 -111c42 -42.667 93.333 -64 154 -64z" />
    <glyph glyph-name="r" unicode="r" horiz-adv-x="626" 
d="M271 651l78 0.00195312c52 0 97 -19.333 135 -58s57 -84.334 57 -137.001s-19 -98.334 -57 -137.001s-83 -58 -135 -58h-78v129h78c14.667 0 28.667 7 42 21s20 29 20 45s-6.5 30.833 -19.5 44.5s-27.167 20.5 -42.5 20.5h-78v130zM202 651.002v-651h-129v651h129z
M558 0.00195312h-146.999l-83 200c24.667 0 48.167 3 70.5 9s41.166 14 56.499 24z" />
    <glyph glyph-name="s" unicode="s" horiz-adv-x="516" 
d="M303 387c41.333 -14.667 74.501 -39.499 99.501 -74.499s37.5 -74.833 37.5 -119.5c0 -57.333 -19.833 -105.833 -59.5 -145.5s-87.834 -59.5 -144.501 -59.5s-105.334 20 -146.001 60s-61 88.333 -61 145h131c0 -21.333 7.33301 -39.333 22 -54s32.667 -22 54 -22
c20.667 0 38.334 7.33301 53.001 22s22 32.667 22 54c0 35.333 -20.333 60.666 -61 75.999zM187.001 298.001c-34.667 10 -64.3311 27.667 -88.998 53c-33.333 34 -50 76.333 -50 127c0 51.333 18.333 95.333 55 132s81 55 133 55c51.333 0 95.166 -18.167 131.499 -54.5
s54.5 -80.5 54.5 -132.5h-129c0 16 -5.33301 29.667 -16 41s-24.334 17 -41.001 17c-15.333 0 -29 -5.66699 -41 -17s-18 -25 -18 -41c0 -26 12 -43.667 36 -53l27 -12z" />
    <glyph glyph-name="t" unicode="t" horiz-adv-x="512" 
d="M168 451h130v-451h-130v451zM29 651h408v-130h-408v130z" />
    <glyph glyph-name="u" unicode="u" horiz-adv-x="692" 
d="M427 650h128.999v-423c0 -65.333 -23 -122.333 -69 -171c-42.667 -45.333 -88.667 -68 -138 -68v133c20.667 6 38.834 19 54.501 39s23.5 42.333 23.5 67v423zM201.999 650v-422.001c0 -27.333 8.33301 -51 25 -71c14 -17.333 31.667 -29.333 53 -36v-133
c-52 6.66699 -98.333 30.667 -139 72c-45.333 46.667 -68 102.334 -68 167.001v423h129z" />
    <glyph glyph-name="v" unicode="v" horiz-adv-x="760" 
d="M539 651h145l-226 -444l-73 142zM153 651l266 -523l-73 -143l-339 666h146z" />
    <glyph glyph-name="w" unicode="w" horiz-adv-x="900" 
d="M410 665l203 -506l-70 -174l-133 332l-27 -66l-73 169zM672 651h140l-161 -399l-68 168zM7 651h140l199 -493l-70 -173z" />
    <glyph glyph-name="x" unicode="x" horiz-adv-x="722" 
d="M471 0l-442 651h157l442 -651h-157zM449 385l-79 117l101 149h157zM288 148l-102 -148h-157l180 265z" />
    <glyph glyph-name="y" unicode="y" horiz-adv-x="672" 
d="M186 386l-179 265h157l100 -149zM360 290v-290h-129v328l217 323h156z" />
    <glyph glyph-name="z" unicode="z" horiz-adv-x="724" 
d="M40 0l78 130h497v-130h-575zM313 199h-152l154 252h153zM510 521h-466v130h544z" />
    <glyph glyph-name="braceleft" unicode="{" horiz-adv-x="389" 
d="M332 -98v-79.998h-75c-32.667 0 -61.334 10 -86.001 30c-28 22.667 -42 54 -42 94v182c0 25.333 -11 44 -33 56c-15.333 8.66699 -32.666 13 -51.999 13v84c19.333 0 36.666 4.33301 51.999 13c22 12 33 30.667 33 56v182c0 40 14 71.667 42 95c24 20 52.667 30 86 30h75
v-80h-41c-20.667 0 -35 -6.66699 -43 -20c-5.33301 -8.66699 -8 -22 -8 -40v-178c0 -32.667 -13.333 -58 -40 -76c-18.667 -12.667 -39.667 -20.334 -63 -23.001c30 -2 56 -14.667 78 -38c16.667 -17.333 25 -38 25 -62v-178c0 -22.667 4.33301 -38.334 13 -47.001
s21.334 -13 38.001 -13h41z" />
    <glyph glyph-name="bar" unicode="|" horiz-adv-x="280" 
d="M76 -17v688h102v-688h-102z" />
    <glyph glyph-name="braceright" unicode="}" horiz-adv-x="389" 
d="M310 281v-84.002c-18.667 0 -36 -4.33301 -52 -13c-22 -12 -33 -30.667 -33 -56v-182c0 -39.333 -14 -70.666 -42 -93.999c-24 -20 -52.667 -30 -86 -30h-75v80h41c20.667 0 35 6.33301 43 19c5.33301 8.66699 8 22.334 8 41.001v178c0 32.667 13.333 58.334 40 77.001
c20 14 41 21 63 21c-23.333 4 -44 12.333 -62 25c-27.333 19.333 -41 44.666 -41 75.999v178c0 18 -2.66699 31.333 -8 40c-8 13.333 -22.333 20 -43 20h-41v80h75c33.333 0 62 -10 86 -30c28 -23.333 42 -55 42 -95v-182c0 -24 11 -42.333 33 -55
c16.667 -9.33301 34 -14 52 -14z" />
    <glyph glyph-name="asciitilde" unicode="~" 
d="M443 312l33 -82.001c-18 -25.333 -33 -43 -45 -53c-20 -16.667 -43 -25 -69 -25c-18 0 -57.333 14.333 -118 43c-28 13.333 -54.333 20 -79 20c-18.667 0 -34.667 -7 -48 -21c-9.33301 -10 -19 -25.333 -29 -46l-32 82c12 22.667 25.667 40.334 41 53.001
c20 16.667 44 25 72 25c24 0 59.333 -10.333 106 -31s76 -31 88 -31c15.333 0 30.333 7 45 21c10 10 21.667 25 35 45z" />
    <glyph glyph-name="nonbreakingspace" unicode="&#xa0;" horiz-adv-x="500" 
 />
    <glyph glyph-name="exclamdown" unicode="&#xa1;" horiz-adv-x="740" 
d="M160 652l132 -253l-70 -137l-214 390h152zM499 652h145l-331 -652h-146zM251 652h170l-64 -130h-43z" />
    <glyph glyph-name="exclamdown" unicode="&#x40e;" horiz-adv-x="740" 
d="M160 652l132 -253l-70 -137l-214 390h152zM499 652h145l-331 -652h-146zM251 652h170l-64 -130h-43z" />
    <glyph glyph-name="cent" unicode="&#xa2;" horiz-adv-x="740" 
d="M160 652l132 -253l-70 -137l-214 390h152zM499 652h145l-331 -652h-146zM251 652h170l-64 -130h-43z" />
    <glyph glyph-name="cent" unicode="&#x45e;" horiz-adv-x="740" 
d="M160 652l132 -253l-70 -137l-214 390h152zM499 652h145l-331 -652h-146zM251 652h170l-64 -130h-43z" />
    <glyph glyph-name="sterling" unicode="&#xa3;" horiz-adv-x="544" 
d="M435 458h-130c0 15.333 -6.66699 29.666 -20 42.999s-28.333 20 -45 20c-15.333 0 -30 -6.66699 -44 -20s-21 -27.666 -21 -42.999v-68h197v-129h-197v-66h-129v263c0 52 19.5 97.167 58.5 135.5s84.5 57.5 136.5 57.5s97.333 -19 136 -57s58 -83.333 58 -136zM454 128
v-128h-408v128h408z" />
    <glyph glyph-name="sterling" unicode="&#x408;" horiz-adv-x="544" 
d="M435 458h-130c0 15.333 -6.66699 29.666 -20 42.999s-28.333 20 -45 20c-15.333 0 -30 -6.66699 -44 -20s-21 -27.666 -21 -42.999v-68h197v-129h-197v-66h-129v263c0 52 19.5 97.167 58.5 135.5s84.5 57.5 136.5 57.5s97.333 -19 136 -57s58 -83.333 58 -136zM454 128
v-128h-408v128h408z" />
    <glyph glyph-name="brokenbar" unicode="&#xa6;" horiz-adv-x="280" 
d="M76 -17v264h102v-264h-102zM76 407v264h102v-264h-102z" />
    <glyph glyph-name="dieresis" unicode="&#xa8;" horiz-adv-x="674" 
d="M149 833h137v-133h-137v133zM287 651h268v-130h-268v130zM287 390h268v-129h-268v129zM217 651v-651h-130v651h130zM287 129h268v-129h-268v129zM345 833h136v-133h-136v133z" />
    <glyph glyph-name="dieresis" unicode="&#x401;" horiz-adv-x="674" 
d="M149 833h137v-133h-137v133zM287 651h268v-130h-268v130zM287 390h268v-129h-268v129zM217 651v-651h-130v651h130zM287 129h268v-129h-268v129zM345 833h136v-133h-136v133z" />
    <glyph glyph-name="copyright" unicode="&#xa9;" horiz-adv-x="816" 
d="M26 328c0 104.667 34.668 189 104.001 253c65.333 60 146 90 242 90c95.333 0 175.666 -30 240.999 -90c70 -64.667 105 -149 105 -253c0 -105.333 -34.667 -190 -104 -254c-65.333 -60.667 -146 -91 -242 -91s-176.333 30 -241 90c-70 64.667 -105 149.667 -105 255z
M107.001 328c0 -77.333 27.334 -141.668 82.001 -193.001c52 -48.667 114 -73 186 -73c70 0 131 24.667 183 74c54.667 52 82 116.333 82 193s-27.667 140.334 -83 191.001c-52.667 48 -114.334 72 -185.001 72s-131.667 -24 -183 -72
c-54.667 -51.333 -82 -115.333 -82 -192zM529.002 467.998c-17.333 17.333 -36.667 31.333 -58 42s-43.333 16 -66 16v-76c15.333 -2.66699 28.333 -7 39 -13s20 -13.333 28 -22zM529.001 189.998l-57.001 50.001c-8.66699 -8 -18.667 -14.833 -30 -20.5
s-23.666 -9.83398 -36.999 -12.501v-74c22 0 44 5.5 66 16.5s41.333 24.5 58 40.5zM365 206.999c-32 5.33301 -56.999 18.001 -74.999 38.001s-27 48 -27 84c0 34 9.5 61.5 28.5 82.5s43.5 33.833 73.5 38.5v76c-54.667 -6 -98.334 -26.667 -131.001 -62
s-49 -80.333 -49 -135c0 -52.667 16 -97.334 48 -134.001s76 -58 132 -64v76z" />
    <glyph glyph-name="ordfeminine" unicode="&#xaa;" horiz-adv-x="695" 
d="M515 176l86.999 -96.999c-30 -30 -66.333 -53.167 -109 -69.5s-85 -24.5 -127 -24.5c-91.333 0 -170.5 30.167 -237.5 90.5s-100.5 132.166 -100.5 215.499h132c0 -45.333 19.833 -85.833 59.5 -121.5s88.834 -53.5 147.501 -53.5c29.333 0 56.833 5 82.5 15
s47.5 25 65.5 45zM432.999 393.001v-130h-207v130h207zM514.999 475.001c-38 40 -87.333 60 -148 60c-58 0 -107 -17.667 -147 -53s-60 -76 -60 -122h-132c0 83.333 33.333 155 100 215s146 90 238 90c43.333 0 85.5 -7.83301 126.5 -23.5s77.5 -39.167 109.5 -70.5z" />
    <glyph glyph-name="ordfeminine" unicode="&#x404;" horiz-adv-x="695" 
d="M515 176l86.999 -96.999c-30 -30 -66.333 -53.167 -109 -69.5s-85 -24.5 -127 -24.5c-91.333 0 -170.5 30.167 -237.5 90.5s-100.5 132.166 -100.5 215.499h132c0 -45.333 19.833 -85.833 59.5 -121.5s88.834 -53.5 147.501 -53.5c29.333 0 56.833 5 82.5 15
s47.5 25 65.5 45zM432.999 393.001v-130h-207v130h207zM514.999 475.001c-38 40 -87.333 60 -148 60c-58 0 -107 -17.667 -147 -53s-60 -76 -60 -122h-132c0 83.333 33.333 155 100 215s146 90 238 90c43.333 0 85.5 -7.83301 126.5 -23.5s77.5 -39.167 109.5 -70.5z" />
    <glyph glyph-name="guillemotleft" unicode="&#xab;" horiz-adv-x="556" 
d="M232 335l-91 -80l91 -80v-106l-152 131v109l152 131v-105zM426 335l-91 -80l91 -80v-106l-152 131v109l152 131v-105z" />
    <glyph glyph-name="logicalnot" unicode="&#xac;" 
d="M393 98v181h-357v102h459v-283h-102z" />
    <glyph glyph-name="minus" unicode="&#xad;" horiz-adv-x="333" 
d="M278 314v-118h-253v118h253z" />
    <glyph glyph-name="registered" unicode="&#xae;" horiz-adv-x="816" 
d="M26 328c0 104.667 34.668 189 104.001 253c65.333 60 146 90 242 90c95.333 0 175.666 -30 240.999 -90c70 -64.667 105 -149 105 -253c0 -105.333 -34.667 -190 -104 -254c-65.333 -60.667 -146 -91 -242 -91s-176.333 30 -241 90c-70 64.667 -105 149.667 -105 255z
M107.001 328c0 -77.333 27.334 -141.668 82.001 -193.001c52 -48.667 113.333 -73 184 -73c70 0 131.333 24.667 184 74c55.333 52 83 116.333 83 193s-27.667 140.334 -83 191.001c-52.667 48 -114.334 72 -185.001 72s-131.667 -24 -183 -72
c-54.667 -51.333 -82 -115.333 -82 -192zM352.002 448.998l0.000976562 79h47c32 0 59.333 -11.667 82 -35s34 -51 34 -83c0 -32.667 -11.333 -60.667 -34 -84s-50 -35 -82 -35h-47v78h47c9.33301 0 18.166 4.16699 26.499 12.5s12.5 17.833 12.5 28.5c0 10 -4 19 -12 27
s-17 12 -27 12h-47zM309.003 527.998h-78v-395h78v395zM526.003 132.998l-62 140c-19.333 -12.667 -45.333 -19 -78 -19l52 -121h88z" />
    <glyph glyph-name="macron" unicode="&#xaf;" horiz-adv-x="398" 
d="M18 834h137v-132h-137v132zM251 651v-651h-129v651h129zM210 834h137v-132h-137v132z" />
    <glyph glyph-name="macron" unicode="&#x407;" horiz-adv-x="398" 
d="M18 834h137v-132h-137v132zM251 651v-651h-129v651h129zM210 834h137v-132h-137v132z" />
    <glyph glyph-name="degree" unicode="&#xb0;" horiz-adv-x="400" 
d="M52 518c0 36 12.667 66.667 38 92s56 38 92 38s66.667 -12.667 92 -38s38 -56 38 -92s-12.667 -66.667 -38 -92s-56 -38 -92 -38s-66.667 12.667 -92 38s-38 56 -38 92zM103 518c0 -22 7.66699 -40.667 23 -56s34 -23 56 -23s40.667 7.66699 56 23s23 34 23 56
c0 21.333 -7.5 39.833 -22.5 55.5s-33.833 23.5 -56.5 23.5c-22 0 -40.667 -7.66699 -56 -23s-23 -34 -23 -56z" />
    <glyph glyph-name="plusminus" unicode="&#xb1;" 
d="M215 347v113h102v-113h178v-102h-178v-115h-102v115h-179v102h179zM36 0v102h459v-102h-459z" />
    <glyph glyph-name="twosuperior" unicode="&#xb2;" horiz-adv-x="302" 
d="M202 651v-651h-129v651h129z" />
    <glyph glyph-name="twosuperior" unicode="&#x406;" horiz-adv-x="302" 
d="M202 651v-651h-129v651h129z" />
    <glyph glyph-name="threesuperior" unicode="&#xb3;" horiz-adv-x="302" 
d="M202 651v-651h-129v651h129z" />
    <glyph glyph-name="threesuperior" unicode="&#x456;" horiz-adv-x="302" 
d="M202 651v-651h-129v651h129z" />
    <glyph glyph-name="acute" unicode="&#xb4;" horiz-adv-x="333" 
d="M324 683l-134 -133h-92l86 133h140z" />
    <glyph glyph-name="acute" unicode="&#x491;" horiz-adv-x="333" 
d="M324 683l-134 -133h-92l86 133h140z" />
    <glyph glyph-name="paragraph" unicode="&#xb6;" horiz-adv-x="623" 
d="M244 0v483h112v-483h-112zM420 0v483h112v-483h-112zM532 652l-0.000976562 -113.001h-327c-20 0 -36 -8.16699 -48 -24.5s-18 -33.166 -18 -50.499c0 -21.333 5.83301 -40.5 17.5 -57.5s24.834 -25.5 39.501 -25.5v-112c-50 0 -90.667 22 -122 66
c-27.333 38.667 -41 81.667 -41 129c0 50 18.167 93.833 54.5 131.5s79.5 56.5 129.5 56.5h315z" />
    <glyph glyph-name="periodcentered" unicode="&#xb7;" horiz-adv-x="278" 
d="M53 157v147h147v-147h-147z" />
    <glyph glyph-name="periodcentered" unicode="&#x2219;" horiz-adv-x="278" 
d="M53 157v147h147v-147h-147z" />
    <glyph glyph-name="cedilla" unicode="&#xb8;" horiz-adv-x="674" 
d="M149 833h137v-133h-137v133zM287 651h268v-130h-268v130zM287 390h268v-129h-268v129zM217 651v-651h-130v651h130zM287 129h268v-129h-268v129zM345 833h136v-133h-136v133z" />
    <glyph glyph-name="cedilla" unicode="&#x451;" horiz-adv-x="674" 
d="M149 833h137v-133h-137v133zM287 651h268v-130h-268v130zM287 390h268v-129h-268v129zM217 651v-651h-130v651h130zM287 129h268v-129h-268v129zM345 833h136v-133h-136v133z" />
    <glyph glyph-name="onesuperior" unicode="&#xb9;" horiz-adv-x="1022" 
d="M191 249v-249h-129v380zM551 -15l-489 495v185l358 -364v350h131v-666zM595 442c3.33301 36.667 17 67.333 41 92c27.333 28 62 42 104 42c40 0 74.167 -13.833 102.5 -41.5s42.5 -58.5 42.5 -92.5h-81c0 11.333 -6.66699 22.833 -20 34.5s-28 17.5 -44 17.5
c-16.667 0 -31.5 -5.66699 -44.5 -17s-19.5 -23 -19.5 -35h-81zM595 418.999h80.999c0 -11.333 6.66699 -22.833 20 -34.5s28 -17.5 44 -17.5c16.667 0 31.5 5.5 44.5 16.5s19.5 22.833 19.5 35.5h81c0 -34.667 -14 -65.667 -42 -93s-62.333 -41 -103 -41
c-41.333 0 -75.666 14 -102.999 42c-24.667 25.333 -38.667 56 -42 92zM884.999 197.999v-78h-290v78h290z" />
    <glyph glyph-name="onesuperior" unicode="&#x2116;" horiz-adv-x="1022" 
d="M191 249v-249h-129v380zM551 -15l-489 495v185l358 -364v350h131v-666zM595 442c3.33301 36.667 17 67.333 41 92c27.333 28 62 42 104 42c40 0 74.167 -13.833 102.5 -41.5s42.5 -58.5 42.5 -92.5h-81c0 11.333 -6.66699 22.833 -20 34.5s-28 17.5 -44 17.5
c-16.667 0 -31.5 -5.66699 -44.5 -17s-19.5 -23 -19.5 -35h-81zM595 418.999h80.999c0 -11.333 6.66699 -22.833 20 -34.5s28 -17.5 44 -17.5c16.667 0 31.5 5.5 44.5 16.5s19.5 22.833 19.5 35.5h81c0 -34.667 -14 -65.667 -42 -93s-62.333 -41 -103 -41
c-41.333 0 -75.666 14 -102.999 42c-24.667 25.333 -38.667 56 -42 92zM884.999 197.999v-78h-290v78h290z" />
    <glyph glyph-name="ordmasculine" unicode="&#xba;" horiz-adv-x="695" 
d="M515 176l86.999 -96.999c-30 -30 -66.333 -53.167 -109 -69.5s-85 -24.5 -127 -24.5c-91.333 0 -170.5 30.167 -237.5 90.5s-100.5 132.166 -100.5 215.499h132c0 -45.333 19.833 -85.833 59.5 -121.5s88.834 -53.5 147.501 -53.5c29.333 0 56.833 5 82.5 15
s47.5 25 65.5 45zM432.999 393.001v-130h-207v130h207zM514.999 475.001c-38 40 -87.333 60 -148 60c-58 0 -107 -17.667 -147 -53s-60 -76 -60 -122h-132c0 83.333 33.333 155 100 215s146 90 238 90c43.333 0 85.5 -7.83301 126.5 -23.5s77.5 -39.167 109.5 -70.5z" />
    <glyph glyph-name="ordmasculine" unicode="&#x454;" horiz-adv-x="695" 
d="M515 176l86.999 -96.999c-30 -30 -66.333 -53.167 -109 -69.5s-85 -24.5 -127 -24.5c-91.333 0 -170.5 30.167 -237.5 90.5s-100.5 132.166 -100.5 215.499h132c0 -45.333 19.833 -85.833 59.5 -121.5s88.834 -53.5 147.501 -53.5c29.333 0 56.833 5 82.5 15
s47.5 25 65.5 45zM432.999 393.001v-130h-207v130h207zM514.999 475.001c-38 40 -87.333 60 -148 60c-58 0 -107 -17.667 -147 -53s-60 -76 -60 -122h-132c0 83.333 33.333 155 100 215s146 90 238 90c43.333 0 85.5 -7.83301 126.5 -23.5s77.5 -39.167 109.5 -70.5z" />
    <glyph glyph-name="guillemotright" unicode="&#xbb;" horiz-adv-x="556" 
d="M274 335v105l152 -131v-109l-152 -131v106l91 80zM80 335v105l152 -131v-109l-152 -131v106l91 80z" />
    <glyph glyph-name="onequarter" unicode="&#xbc;" horiz-adv-x="491" 
d="M165 133h136v-133h-136v133zM165 466h136v-133h-136v133zM437 182h-423v102h423v-102z" />
    <glyph glyph-name="onequarter" unicode="&#x458;" horiz-adv-x="491" 
d="M165 133h136v-133h-136v133zM165 466h136v-133h-136v133zM437 182h-423v102h423v-102z" />
    <glyph glyph-name="onehalf" unicode="&#xbd;" 
d="M266 302l126 127l72 -72l-126 -127l126 -126l-72 -72l-126 126l-127 -126l-72 72l127 126l-127 127l72 72z" />
    <glyph glyph-name="onehalf" unicode="&#x405;" 
d="M266 302l126 127l72 -72l-126 -127l126 -126l-72 -72l-126 126l-127 -126l-72 72l127 126l-127 127l72 72z" />
    <glyph glyph-name="questiondown" unicode="&#xbf;" horiz-adv-x="398" 
d="M18 834h137v-132h-137v132zM251 651v-651h-129v651h129zM210 834h137v-132h-137v132z" />
    <glyph glyph-name="questiondown" unicode="&#x457;" horiz-adv-x="398" 
d="M18 834h137v-132h-137v132zM251 651v-651h-129v651h129zM210 834h137v-132h-137v132z" />
    <glyph glyph-name="Agrave" unicode="&#xc0;" horiz-adv-x="780" 
d="M492 110h-199l66 129h69l-147 283l74 143l340 -665h-145zM160 0h-145l229 448l73 -143z" />
    <glyph glyph-name="Agrave" unicode="&#x410;" horiz-adv-x="780" 
d="M492 110h-199l66 129h69l-147 283l74 143l340 -665h-145zM160 0h-145l229 448l73 -143z" />
    <glyph glyph-name="Aacute" unicode="&#xc1;" horiz-adv-x="643" 
d="M202 651v-651h-129v651h129zM272 651h223v-130h-223v130zM272 390h77.001c52 0 97 -19.333 135 -58s57 -84 57 -136c0 -52.667 -18.833 -98.5 -56.5 -137.5s-82.834 -58.5 -135.501 -58.5h-77v129h77c16 0 30.333 7 43 21s19 29.333 19 46c0 16 -6.5 30.833 -19.5 44.5
s-27.167 20.5 -42.5 20.5h-77v129z" />
    <glyph glyph-name="Aacute" unicode="&#x411;" horiz-adv-x="643" 
d="M202 651v-651h-129v651h129zM272 651h223v-130h-223v130zM272 390h77.001c52 0 97 -19.333 135 -58s57 -84 57 -136c0 -52.667 -18.833 -98.5 -56.5 -137.5s-82.834 -58.5 -135.501 -58.5h-77v129h77c16 0 30.333 7 43 21s19 29.333 19 46c0 16 -6.5 30.833 -19.5 44.5
s-27.167 20.5 -42.5 20.5h-77v129z" />
    <glyph glyph-name="Acircumflex" unicode="&#xc2;" horiz-adv-x="652" 
d="M202 651v-651h-129v651h129zM272 651h77.001c52 0 97 -19.333 135 -58s57 -84 57 -136c0 -52.667 -18.833 -98.5 -56.5 -137.5s-82.834 -58.5 -135.501 -58.5h-77v129h77c16 0 30.333 7 43 21s19 29 19 45s-6.5 30.833 -19.5 44.5s-27.167 20.5 -42.5 20.5h-77v130z
M413.001 204c22 0 45.168 7.99902 69.501 23.999s42.5 33.333 54.5 52c8.66699 -21.333 13 -44.666 13 -69.999c0 -55.333 -19.333 -104.166 -58 -146.499s-86.334 -63.5 -143.001 -63.5h-77v129h73c20.667 0 37.167 7.16699 49.5 21.5s18.5 32.166 18.5 53.499z" />
    <glyph glyph-name="Acircumflex" unicode="&#x412;" horiz-adv-x="652" 
d="M202 651v-651h-129v651h129zM272 651h77.001c52 0 97 -19.333 135 -58s57 -84 57 -136c0 -52.667 -18.833 -98.5 -56.5 -137.5s-82.834 -58.5 -135.501 -58.5h-77v129h77c16 0 30.333 7 43 21s19 29 19 45s-6.5 30.833 -19.5 44.5s-27.167 20.5 -42.5 20.5h-77v130z
M413.001 204c22 0 45.168 7.99902 69.501 23.999s42.5 33.333 54.5 52c8.66699 -21.333 13 -44.666 13 -69.999c0 -55.333 -19.333 -104.166 -58 -146.499s-86.334 -63.5 -143.001 -63.5h-77v129h73c20.667 0 37.167 7.16699 49.5 21.5s18.5 32.166 18.5 53.499z" />
    <glyph glyph-name="Atilde" unicode="&#xc3;" horiz-adv-x="542" 
d="M202 651v-651h-129v651h129zM271 651h179v-130h-179v130z" />
    <glyph glyph-name="Atilde" unicode="&#x413;" horiz-adv-x="542" 
d="M202 651v-651h-129v651h129zM271 651h179v-130h-179v130z" />
    <glyph glyph-name="Adieresis" unicode="&#xc4;" horiz-adv-x="764" 
d="M348 665l238 -465h-146l-166 322zM219 130h448v-130h-667v130h73l164 318l72 -143z" />
    <glyph glyph-name="Adieresis" unicode="&#x414;" horiz-adv-x="764" 
d="M348 665l238 -465h-146l-166 322zM219 130h448v-130h-667v130h73l164 318l72 -143z" />
    <glyph glyph-name="Aring" unicode="&#xc5;" horiz-adv-x="674" 
d="M287 651h268v-130h-268v130zM287 390h268v-129h-268v129zM217 651v-651h-130v651h130zM287 129h268v-129h-268v129z" />
    <glyph glyph-name="Aring" unicode="&#x415;" horiz-adv-x="674" 
d="M287 651h268v-130h-268v130zM287 390h268v-129h-268v129zM217 651v-651h-130v651h130zM287 129h268v-129h-268v129z" />
    <glyph glyph-name="AE" unicode="&#xc6;" horiz-adv-x="1024" 
d="M180 651l88 -164l-78 -113l-156 277h146zM305 422l72 -122l-204 -300h-158zM531 651v-651h-129v651h129zM752 651h147l-156 -277l-79 113zM628 422l290 -422h-158l-205 300z" />
    <glyph glyph-name="AE" unicode="&#x416;" horiz-adv-x="1024" 
d="M180 651l88 -164l-78 -113l-156 277h146zM305 422l72 -122l-204 -300h-158zM531 651v-651h-129v651h129zM752 651h147l-156 -277l-79 113zM628 422l290 -422h-158l-205 300z" />
    <glyph glyph-name="Ccedilla" unicode="&#xc7;" horiz-adv-x="649" 
d="M258 662l0.000976562 -130c-22.667 0 -39.5 -6.16699 -50.5 -18.5s-16.5 -28.833 -16.5 -49.5h-129c0 58.667 14 104.667 42 138c33.333 40 84.666 60 153.999 60zM328.001 662c66 0 115.668 -18.332 149.001 -54.999c30 -33.333 45 -78 45 -134
c0 -24.667 -6.33301 -47.667 -19 -69s-29 -37.333 -49 -48c29.333 -14 52 -35 68 -63s24 -58 24 -90c0 -66 -18 -117.667 -54 -155c-38 -40 -92.667 -60 -164 -60v129c32 0 55.667 9.66699 71 29c12 15.333 18 34.333 18 57c0 26 -8.16699 46.167 -24.5 60.5
s-37.833 21.5 -64.5 21.5h-70v125h70c21.333 0 37.166 5.16699 47.499 15.5s15.5 25.166 15.5 44.499c0 21.333 -3.33301 36.333 -10 45c-9.33301 11.333 -27 17 -53 17v130zM44.002 203.001h129c0 -26.667 7.16699 -47.667 21.5 -63s35.5 -23 63.5 -23v-129
c-75.333 0 -131.333 21.667 -168 65c-30.667 36.667 -46 86.667 -46 150z" />
    <glyph glyph-name="Ccedilla" unicode="&#x417;" horiz-adv-x="649" 
d="M258 662l0.000976562 -130c-22.667 0 -39.5 -6.16699 -50.5 -18.5s-16.5 -28.833 -16.5 -49.5h-129c0 58.667 14 104.667 42 138c33.333 40 84.666 60 153.999 60zM328.001 662c66 0 115.668 -18.332 149.001 -54.999c30 -33.333 45 -78 45 -134
c0 -24.667 -6.33301 -47.667 -19 -69s-29 -37.333 -49 -48c29.333 -14 52 -35 68 -63s24 -58 24 -90c0 -66 -18 -117.667 -54 -155c-38 -40 -92.667 -60 -164 -60v129c32 0 55.667 9.66699 71 29c12 15.333 18 34.333 18 57c0 26 -8.16699 46.167 -24.5 60.5
s-37.833 21.5 -64.5 21.5h-70v125h70c21.333 0 37.166 5.16699 47.499 15.5s15.5 25.166 15.5 44.499c0 21.333 -3.33301 36.333 -10 45c-9.33301 11.333 -27 17 -53 17v130zM44.002 203.001h129c0 -26.667 7.16699 -47.667 21.5 -63s35.5 -23 63.5 -23v-129
c-75.333 0 -131.333 21.667 -168 65c-30.667 36.667 -46 86.667 -46 150z" />
    <glyph glyph-name="Egrave" unicode="&#xc8;" horiz-adv-x="697" 
d="M432 251l129 130v-381h-129v251zM73 -15v666h129v-350l359 364v-185z" />
    <glyph glyph-name="Egrave" unicode="&#x418;" horiz-adv-x="697" 
d="M432 251l129 130v-381h-129v251zM73 -15v666h129v-350l359 364v-185z" />
    <glyph glyph-name="Eacute" unicode="&#xc9;" horiz-adv-x="697" 
d="M202 400l-129 -131v382h129v-251zM561 665v-665h-129v350l-359 -365v186zM447 651l-176 -181v181h176z" />
    <glyph glyph-name="Eacute" unicode="&#x419;" horiz-adv-x="697" 
d="M202 400l-129 -131v382h129v-251zM561 665v-665h-129v350l-359 -365v186zM447 651l-176 -181v181h176z" />
    <glyph glyph-name="Ecircumflex" unicode="&#xca;" horiz-adv-x="688" 
d="M200 651v-651h-129v651h129zM446 651h156l-175 -263l-81 113zM460 0l-233 324l78 115l314 -439h-159z" />
    <glyph glyph-name="Ecircumflex" unicode="&#x41a;" horiz-adv-x="688" 
d="M200 651v-651h-129v651h129zM446 651h156l-175 -263l-81 113zM460 0l-233 324l78 115l314 -439h-159z" />
    <glyph glyph-name="Edieresis" unicode="&#xcb;" horiz-adv-x="764" 
d="M274 522l74 143l340 -665h-146zM153 0h-146l230 448l72 -143z" />
    <glyph glyph-name="Edieresis" unicode="&#x41b;" horiz-adv-x="764" 
d="M274 522l74 143l340 -665h-146zM153 0h-146l230 448l72 -143z" />
    <glyph glyph-name="Igrave" unicode="&#xcc;" horiz-adv-x="854" 
d="M202 285v-285h-129v400zM389 211l-316 281v173l316 -281l315 281v-665h-129v378z" />
    <glyph glyph-name="Igrave" unicode="&#x41c;" horiz-adv-x="854" 
d="M202 285v-285h-129v400zM389 211l-316 281v173l316 -281l315 281v-665h-129v378z" />
    <glyph glyph-name="Iacute" unicode="&#xcd;" horiz-adv-x="739" 
d="M202 651v-651h-129v651h129zM609 651v-651h-129v651h129zM255 261v129h171v-129h-171z" />
    <glyph glyph-name="Iacute" unicode="&#x41d;" horiz-adv-x="739" 
d="M202 651v-651h-129v651h129zM609 651v-651h-129v651h129zM255 261v129h171v-129h-171z" />
    <glyph glyph-name="Icircumflex" unicode="&#xce;" horiz-adv-x="807" 
d="M161 360h-131.998c9.33301 88.667 45.333 161.667 108 219s139.667 86 231 86c90 0 168.667 -29.333 236 -88s101 -131 101 -217h-132c-6.66699 49.333 -28.667 91 -66 125s-83.333 51 -138 51s-100.834 -17 -138.501 -51s-60.834 -75.667 -69.501 -125zM161.002 294
c6.66699 -49.333 28.833 -91.168 66.5 -125.501s84.5 -51.5 140.5 -51.5c55.333 0 102.333 17.5 141 52.5s60 76.5 64 124.5h132c0 -86 -33.833 -158.5 -101.5 -217.5s-146.167 -88.5 -235.5 -88.5s-165.833 28.833 -229.5 86.5s-100.167 130.834 -109.5 219.501h132z" />
    <glyph glyph-name="Icircumflex" unicode="&#x41e;" horiz-adv-x="807" 
d="M161 360h-131.998c9.33301 88.667 45.333 161.667 108 219s139.667 86 231 86c90 0 168.667 -29.333 236 -88s101 -131 101 -217h-132c-6.66699 49.333 -28.667 91 -66 125s-83.333 51 -138 51s-100.834 -17 -138.501 -51s-60.834 -75.667 -69.501 -125zM161.002 294
c6.66699 -49.333 28.833 -91.168 66.5 -125.501s84.5 -51.5 140.5 -51.5c55.333 0 102.333 17.5 141 52.5s60 76.5 64 124.5h132c0 -86 -33.833 -158.5 -101.5 -217.5s-146.167 -88.5 -235.5 -88.5s-165.833 28.833 -229.5 86.5s-100.167 130.834 -109.5 219.501h132z" />
    <glyph glyph-name="Idieresis" unicode="&#xcf;" horiz-adv-x="721" 
d="M73 0v451h129v-451h-129zM454 0v451h129v-451h-129zM73 521v130h510v-130h-510z" />
    <glyph glyph-name="Idieresis" unicode="&#x41f;" horiz-adv-x="721" 
d="M73 0v451h129v-451h-129zM454 0v451h129v-451h-129zM73 521v130h510v-130h-510z" />
    <glyph glyph-name="Eth" unicode="&#xd0;" horiz-adv-x="628" 
d="M273 651h76c52.667 0 97.834 -19.167 135.501 -57.5s56.5 -83.833 56.5 -136.5s-18.833 -98.5 -56.5 -137.5s-82.834 -58.5 -135.501 -58.5h-76v129h76c15.333 0 29.666 7 42.999 21s20 29 20 45c0 15.333 -6.66699 30 -20 44s-27.666 21 -42.999 21h-76v130zM203 651
v-651h-129v651h129z" />
    <glyph glyph-name="Eth" unicode="&#x420;" horiz-adv-x="628" 
d="M273 651h76c52.667 0 97.834 -19.167 135.501 -57.5s56.5 -83.833 56.5 -136.5s-18.833 -98.5 -56.5 -137.5s-82.834 -58.5 -135.501 -58.5h-76v129h76c15.333 0 29.666 7 42.999 21s20 29 20 45c0 15.333 -6.66699 30 -20 44s-27.666 21 -42.999 21h-76v130zM203 651
v-651h-129v651h129z" />
    <glyph glyph-name="Ntilde" unicode="&#xd1;" horiz-adv-x="708" 
d="M615 562l-95.998 -89c-14 14 -29.667 25.667 -47 35c-20.667 11.333 -43.334 19.333 -68.001 24v130c39.333 -3.33301 77.666 -14 114.999 -32s69.333 -40.667 96 -68zM615.002 89c-26 -26.667 -56.667 -49.334 -92 -68.001c-42 -22 -81.667 -33 -119 -33v129
c44.667 8.66699 83 28.334 115 59.001zM335.002 117l0.00195312 -129c-94.667 10.667 -169.334 47 -224.001 109s-82 138.333 -82 229c0 92.667 27.667 169.334 83 230.001s129.666 96 222.999 106v-130c-48.667 -8 -89 -29 -121 -63c-35.333 -38 -53 -85.667 -53 -143
c0 -58.667 16.333 -106.334 49 -143.001c30 -33.333 71.667 -55.333 125 -66z" />
    <glyph glyph-name="Ntilde" unicode="&#x421;" horiz-adv-x="708" 
d="M615 562l-95.998 -89c-14 14 -29.667 25.667 -47 35c-20.667 11.333 -43.334 19.333 -68.001 24v130c39.333 -3.33301 77.666 -14 114.999 -32s69.333 -40.667 96 -68zM615.002 89c-26 -26.667 -56.667 -49.334 -92 -68.001c-42 -22 -81.667 -33 -119 -33v129
c44.667 8.66699 83 28.334 115 59.001zM335.002 117l0.00195312 -129c-94.667 10.667 -169.334 47 -224.001 109s-82 138.333 -82 229c0 92.667 27.667 169.334 83 230.001s129.666 96 222.999 106v-130c-48.667 -8 -89 -29 -121 -63c-35.333 -38 -53 -85.667 -53 -143
c0 -58.667 16.333 -106.334 49 -143.001c30 -33.333 71.667 -55.333 125 -66z" />
    <glyph glyph-name="Ograve" unicode="&#xd2;" horiz-adv-x="512" 
d="M168 451h130v-451h-130v451zM29 651h408v-130h-408v130z" />
    <glyph glyph-name="Ograve" unicode="&#x422;" horiz-adv-x="512" 
d="M168 451h130v-451h-130v451zM29 651h408v-130h-408v130z" />
    <glyph glyph-name="Oacute" unicode="&#xd3;" horiz-adv-x="740" 
d="M160 652l132 -253l-70 -137l-214 390h152zM499 652h145l-331 -652h-146z" />
    <glyph glyph-name="Oacute" unicode="&#x423;" horiz-adv-x="740" 
d="M160 652l132 -253l-70 -137l-214 390h152zM499 652h145l-331 -652h-146z" />
    <glyph glyph-name="Ocircumflex" unicode="&#xd4;" horiz-adv-x="950" 
d="M294 224v-129h-26c-64 0 -119.833 23.167 -167.5 69.5s-71.5 102.5 -71.5 168.5c0 66.667 23.333 123 70 169s103 69 169 69h26v-129h-26c-30 0 -55.833 -10.5 -77.5 -31.5s-32.5 -46.833 -32.5 -77.5c0 -30 10.667 -55.667 32 -77s47.333 -32 78 -32h26zM565 224h27
c30 0 55.667 10.667 77 32s32 47 32 77s-10.667 55.667 -32 77s-47 32 -77 32h-27v129h27c65.333 0 121.333 -23 168 -69s70 -102.333 70 -169c0 -65.333 -23.667 -121.333 -71 -168s-103 -70 -167 -70h-27v129zM494 651v-651h-129v651h129z" />
    <glyph glyph-name="Ocircumflex" unicode="&#x424;" horiz-adv-x="950" 
d="M294 224v-129h-26c-64 0 -119.833 23.167 -167.5 69.5s-71.5 102.5 -71.5 168.5c0 66.667 23.333 123 70 169s103 69 169 69h26v-129h-26c-30 0 -55.833 -10.5 -77.5 -31.5s-32.5 -46.833 -32.5 -77.5c0 -30 10.667 -55.667 32 -77s47.333 -32 78 -32h26zM565 224h27
c30 0 55.667 10.667 77 32s32 47 32 77s-10.667 55.667 -32 77s-47 32 -77 32h-27v129h27c65.333 0 121.333 -23 168 -69s70 -102.333 70 -169c0 -65.333 -23.667 -121.333 -71 -168s-103 -70 -167 -70h-27v129zM494 651v-651h-129v651h129z" />
    <glyph glyph-name="Otilde" unicode="&#xd5;" horiz-adv-x="722" 
d="M471 0l-442 651h157l442 -651h-157zM449 385l-79 117l101 149h157zM288 148l-102 -148h-157l180 265z" />
    <glyph glyph-name="Otilde" unicode="&#x425;" horiz-adv-x="722" 
d="M471 0l-442 651h157l442 -651h-157zM449 385l-79 117l101 149h157zM288 148l-102 -148h-157l180 265z" />
    <glyph glyph-name="Odieresis" unicode="&#xd6;" horiz-adv-x="752" 
d="M73 129h596v-129h-596v129zM453 651h129v-452h-129v452zM73 651h129v-452h-129v452z" />
    <glyph glyph-name="Odieresis" unicode="&#x426;" horiz-adv-x="752" 
d="M73 129h596v-129h-596v129zM453 651h129v-452h-129v452zM73 651h129v-452h-129v452z" />
    <glyph glyph-name="multiply" unicode="&#xd7;" horiz-adv-x="643" 
d="M44 651h129v-172c0 -38.667 6.83301 -63.167 20.5 -73.5s44.834 -15.5 93.501 -15.5h26v-129h-54c-76.667 0 -132.334 19 -167.001 57c-32 34.667 -48 88 -48 160v173zM511 651v-651h-129v651h129z" />
    <glyph glyph-name="multiply" unicode="&#x427;" horiz-adv-x="643" 
d="M44 651h129v-172c0 -38.667 6.83301 -63.167 20.5 -73.5s44.834 -15.5 93.501 -15.5h26v-129h-54c-76.667 0 -132.334 19 -167.001 57c-32 34.667 -48 88 -48 160v173zM511 651v-651h-129v651h129z" />
    <glyph glyph-name="Oslash" unicode="&#xd8;" horiz-adv-x="932" 
d="M73 651h129v-452h-129v452zM359 651h130v-452h-130v452zM646 651h129v-452h-129v452zM73 129h702v-129h-702v129z" />
    <glyph glyph-name="Oslash" unicode="&#x428;" horiz-adv-x="932" 
d="M73 651h129v-452h-129v452zM359 651h130v-452h-130v452zM646 651h129v-452h-129v452zM73 129h702v-129h-702v129z" />
    <glyph glyph-name="Ugrave" unicode="&#xd9;" horiz-adv-x="967" 
d="M73 651h129v-452h-129v452zM359 651h130v-452h-130v452zM646 651h129v-452h-129v452zM73 129h793v-129h-793v129z" />
    <glyph glyph-name="Ugrave" unicode="&#x429;" horiz-adv-x="967" 
d="M73 651h129v-452h-129v452zM359 651h130v-452h-130v452zM646 651h129v-452h-129v452zM73 129h793v-129h-793v129z" />
    <glyph glyph-name="Uacute" unicode="&#xda;" horiz-adv-x="666" 
d="M293 390h76.001c52.667 0 97.834 -19.167 135.501 -57.5s56.5 -83.833 56.5 -136.5s-18.833 -98.5 -56.5 -137.5s-82.834 -58.5 -135.501 -58.5h-76v129h76c15.333 0 29.666 7 42.999 21s20 29.333 20 46c0 16 -6.5 30.833 -19.5 44.5s-27.5 20.5 -43.5 20.5h-76v129z
M94.001 521h-89v130h218v-651h-129v521z" />
    <glyph glyph-name="Uacute" unicode="&#x42a;" horiz-adv-x="666" 
d="M293 390h76.001c52.667 0 97.834 -19.167 135.501 -57.5s56.5 -83.833 56.5 -136.5s-18.833 -98.5 -56.5 -137.5s-82.834 -58.5 -135.501 -58.5h-76v129h76c15.333 0 29.666 7 42.999 21s20 29.333 20 46c0 16 -6.5 30.833 -19.5 44.5s-27.5 20.5 -43.5 20.5h-76v129z
M94.001 521h-89v130h218v-651h-129v521z" />
    <glyph glyph-name="Ucircumflex" unicode="&#xdb;" horiz-adv-x="878" 
d="M202 651v-651h-129v651h129zM272 390h77.001c52 0 97 -19 135 -57s57 -83.333 57 -136c0 -53.333 -18.833 -99.5 -56.5 -138.5s-82.834 -58.5 -135.501 -58.5h-77v129h77c16 0 30.333 7 43 21s19 29.333 19 46c0 16 -6.5 30.833 -19.5 44.5s-27.167 20.5 -42.5 20.5h-77
v129zM729.001 651v-651h-129v651h129z" />
    <glyph glyph-name="Ucircumflex" unicode="&#x42b;" horiz-adv-x="878" 
d="M202 651v-651h-129v651h129zM272 390h77.001c52 0 97 -19 135 -57s57 -83.333 57 -136c0 -53.333 -18.833 -99.5 -56.5 -138.5s-82.834 -58.5 -135.501 -58.5h-77v129h77c16 0 30.333 7 43 21s19 29.333 19 46c0 16 -6.5 30.833 -19.5 44.5s-27.167 20.5 -42.5 20.5h-77
v129zM729.001 651v-651h-129v651h129z" />
    <glyph glyph-name="Udieresis" unicode="&#xdc;" horiz-adv-x="643" 
d="M272 390h77.001c52 0 97 -19.333 135 -58s57 -84 57 -136c0 -52.667 -18.833 -98.5 -56.5 -137.5s-82.834 -58.5 -135.501 -58.5h-77v129h77c16 0 30.333 7 43 21s19 29.333 19 46c0 16 -6.5 30.833 -19.5 44.5s-27.167 20.5 -42.5 20.5h-77v129zM202.001 651v-651h-129
v651h129z" />
    <glyph glyph-name="Udieresis" unicode="&#x42c;" horiz-adv-x="643" 
d="M272 390h77.001c52 0 97 -19.333 135 -58s57 -84 57 -136c0 -52.667 -18.833 -98.5 -56.5 -137.5s-82.834 -58.5 -135.501 -58.5h-77v129h77c16 0 30.333 7 43 21s19 29.333 19 46c0 16 -6.5 30.833 -19.5 44.5s-27.167 20.5 -42.5 20.5h-77v129zM202.001 651v-651h-129
v651h129z" />
    <glyph glyph-name="Yacute" unicode="&#xdd;" horiz-adv-x="695" 
d="M116 178c17.333 -18 39.501 -32.667 66.501 -44s54.5 -17 82.5 -17c56.667 0 105 18.667 145 56c36.667 34 57 74.333 61 121h132c0 -84 -33.333 -156 -100 -216s-145.667 -90 -237 -90c-42.667 0 -84.834 7.83301 -126.501 23.5s-78.5 39.167 -110.5 70.5zM197.001 393
h208v-130h-208v130zM116.001 475l-87 96c31.333 30 68 53.167 110 69.5s84.333 24.5 127 24.5c91.333 0 170.333 -30 237 -90s100 -131.667 100 -215h-132c-4 46.667 -24.333 87 -61 121c-39.333 36.667 -87.666 55 -144.999 55c-29.333 0 -56.833 -5.33301 -82.5 -16
s-47.834 -25.667 -66.501 -45z" />
    <glyph glyph-name="Yacute" unicode="&#x42d;" horiz-adv-x="695" 
d="M116 178c17.333 -18 39.501 -32.667 66.501 -44s54.5 -17 82.5 -17c56.667 0 105 18.667 145 56c36.667 34 57 74.333 61 121h132c0 -84 -33.333 -156 -100 -216s-145.667 -90 -237 -90c-42.667 0 -84.834 7.83301 -126.501 23.5s-78.5 39.167 -110.5 70.5zM197.001 393
h208v-130h-208v130zM116.001 475l-87 96c31.333 30 68 53.167 110 69.5s84.333 24.5 127 24.5c91.333 0 170.333 -30 237 -90s100 -131.667 100 -215h-132c-4 46.667 -24.333 87 -61 121c-39.333 36.667 -87.666 55 -144.999 55c-29.333 0 -56.833 -5.33301 -82.5 -16
s-47.834 -25.667 -66.501 -45z" />
    <glyph glyph-name="Thorn" unicode="&#xde;" horiz-adv-x="1037" 
d="M370 360h-131.997c10 88 46.167 160.833 108.5 218.5s139.166 86.5 230.499 86.5c90 0 168.833 -29.5 236.5 -88.5s101.5 -131.167 101.5 -216.5h-132c-7.33301 49.333 -29.833 91 -67.5 125s-83.834 51 -138.501 51c-54 0 -99.833 -17 -137.5 -51
s-60.834 -75.667 -69.501 -125zM370.003 293c6.66699 -50 28.8311 -91.833 66.498 -125.5s84.5 -50.5 140.5 -50.5c55.333 0 102.333 17.5 141 52.5s60.334 76.167 65.001 123.5h132c0 -86 -34.167 -158.333 -102.5 -217s-147.166 -88 -236.499 -88
c-90 0 -166.333 28.5 -229 85.5s-99 130.167 -109 219.5h132zM202 651v-651h-129v651h129z" />
    <glyph glyph-name="Thorn" unicode="&#x42e;" horiz-adv-x="1037" 
d="M370 360h-131.997c10 88 46.167 160.833 108.5 218.5s139.166 86.5 230.499 86.5c90 0 168.833 -29.5 236.5 -88.5s101.5 -131.167 101.5 -216.5h-132c-7.33301 49.333 -29.833 91 -67.5 125s-83.834 51 -138.501 51c-54 0 -99.833 -17 -137.5 -51
s-60.834 -75.667 -69.501 -125zM370.003 293c6.66699 -50 28.8311 -91.833 66.498 -125.5s84.5 -50.5 140.5 -50.5c55.333 0 102.333 17.5 141 52.5s60.334 76.167 65.001 123.5h132c0 -86 -34.167 -158.333 -102.5 -217s-147.166 -88 -236.499 -88
c-90 0 -166.333 28.5 -229 85.5s-99 130.167 -109 219.5h132zM202 651v-651h-129v651h129z" />
    <glyph glyph-name="germandbls" unicode="&#xdf;" horiz-adv-x="642" 
d="M313 651l-0.000976562 -130h-77c-15.333 0 -29.666 -6.66699 -42.999 -20s-20 -28.333 -20 -45c0 -16 6.66699 -31 20 -45s27.666 -21 42.999 -21h77v-129h-77c-52 0 -97 19.333 -135 58s-57 84.334 -57 137.001c0 53.333 18.833 99.166 56.5 137.499
s82.834 57.5 135.501 57.5h77zM510.999 651v-651h-129v651h129zM25.999 0l99 232c30.667 -21.333 74.667 -32 132 -32l-84 -200h-147z" />
    <glyph glyph-name="germandbls" unicode="&#x42f;" horiz-adv-x="642" 
d="M313 651l-0.000976562 -130h-77c-15.333 0 -29.666 -6.66699 -42.999 -20s-20 -28.333 -20 -45c0 -16 6.66699 -31 20 -45s27.666 -21 42.999 -21h77v-129h-77c-52 0 -97 19.333 -135 58s-57 84.334 -57 137.001c0 53.333 18.833 99.166 56.5 137.499
s82.834 57.5 135.501 57.5h77zM510.999 651v-651h-129v651h129zM25.999 0l99 232c30.667 -21.333 74.667 -32 132 -32l-84 -200h-147z" />
    <glyph glyph-name="agrave" unicode="&#xe0;" horiz-adv-x="780" 
d="M492 110h-199l66 129h69l-147 283l74 143l340 -665h-145zM160 0h-145l229 448l73 -143z" />
    <glyph glyph-name="agrave" unicode="&#x430;" horiz-adv-x="780" 
d="M492 110h-199l66 129h69l-147 283l74 143l340 -665h-145zM160 0h-145l229 448l73 -143z" />
    <glyph glyph-name="aacute" unicode="&#xe1;" horiz-adv-x="643" 
d="M202 651v-651h-129v651h129zM272 651h223v-130h-223v130zM272 390h77.001c52 0 97 -19.333 135 -58s57 -84 57 -136c0 -52.667 -18.833 -98.5 -56.5 -137.5s-82.834 -58.5 -135.501 -58.5h-77v129h77c16 0 30.333 7 43 21s19 29.333 19 46c0 16 -6.5 30.833 -19.5 44.5
s-27.167 20.5 -42.5 20.5h-77v129z" />
    <glyph glyph-name="aacute" unicode="&#x431;" horiz-adv-x="643" 
d="M202 651v-651h-129v651h129zM272 651h223v-130h-223v130zM272 390h77.001c52 0 97 -19.333 135 -58s57 -84 57 -136c0 -52.667 -18.833 -98.5 -56.5 -137.5s-82.834 -58.5 -135.501 -58.5h-77v129h77c16 0 30.333 7 43 21s19 29.333 19 46c0 16 -6.5 30.833 -19.5 44.5
s-27.167 20.5 -42.5 20.5h-77v129z" />
    <glyph glyph-name="acircumflex" unicode="&#xe2;" horiz-adv-x="652" 
d="M202 651v-651h-129v651h129zM272 651h77.001c52 0 97 -19.333 135 -58s57 -84 57 -136c0 -52.667 -18.833 -98.5 -56.5 -137.5s-82.834 -58.5 -135.501 -58.5h-77v129h77c16 0 30.333 7 43 21s19 29 19 45s-6.5 30.833 -19.5 44.5s-27.167 20.5 -42.5 20.5h-77v130z
M413.001 204c22 0 45.168 7.99902 69.501 23.999s42.5 33.333 54.5 52c8.66699 -21.333 13 -44.666 13 -69.999c0 -55.333 -19.333 -104.166 -58 -146.499s-86.334 -63.5 -143.001 -63.5h-77v129h73c20.667 0 37.167 7.16699 49.5 21.5s18.5 32.166 18.5 53.499z" />
    <glyph glyph-name="acircumflex" unicode="&#x432;" horiz-adv-x="652" 
d="M202 651v-651h-129v651h129zM272 651h77.001c52 0 97 -19.333 135 -58s57 -84 57 -136c0 -52.667 -18.833 -98.5 -56.5 -137.5s-82.834 -58.5 -135.501 -58.5h-77v129h77c16 0 30.333 7 43 21s19 29 19 45s-6.5 30.833 -19.5 44.5s-27.167 20.5 -42.5 20.5h-77v130z
M413.001 204c22 0 45.168 7.99902 69.501 23.999s42.5 33.333 54.5 52c8.66699 -21.333 13 -44.666 13 -69.999c0 -55.333 -19.333 -104.166 -58 -146.499s-86.334 -63.5 -143.001 -63.5h-77v129h73c20.667 0 37.167 7.16699 49.5 21.5s18.5 32.166 18.5 53.499z" />
    <glyph glyph-name="atilde" unicode="&#xe3;" horiz-adv-x="542" 
d="M202 651v-651h-129v651h129zM271 651h179v-130h-179v130z" />
    <glyph glyph-name="atilde" unicode="&#x433;" horiz-adv-x="542" 
d="M202 651v-651h-129v651h129zM271 651h179v-130h-179v130z" />
    <glyph glyph-name="adieresis" unicode="&#xe4;" horiz-adv-x="764" 
d="M348 665l238 -465h-146l-166 322zM219 130h448v-130h-667v130h73l164 318l72 -143z" />
    <glyph glyph-name="adieresis" unicode="&#x434;" horiz-adv-x="764" 
d="M348 665l238 -465h-146l-166 322zM219 130h448v-130h-667v130h73l164 318l72 -143z" />
    <glyph glyph-name="aring" unicode="&#xe5;" horiz-adv-x="674" 
d="M287 651h268v-130h-268v130zM287 390h268v-129h-268v129zM217 651v-651h-130v651h130zM287 129h268v-129h-268v129z" />
    <glyph glyph-name="aring" unicode="&#x435;" horiz-adv-x="674" 
d="M287 651h268v-130h-268v130zM287 390h268v-129h-268v129zM217 651v-651h-130v651h130zM287 129h268v-129h-268v129z" />
    <glyph glyph-name="ae" unicode="&#xe6;" horiz-adv-x="1024" 
d="M180 651l88 -164l-78 -113l-156 277h146zM305 422l72 -122l-204 -300h-158zM531 651v-651h-129v651h129zM752 651h147l-156 -277l-79 113zM628 422l290 -422h-158l-205 300z" />
    <glyph glyph-name="ae" unicode="&#x436;" horiz-adv-x="1024" 
d="M180 651l88 -164l-78 -113l-156 277h146zM305 422l72 -122l-204 -300h-158zM531 651v-651h-129v651h129zM752 651h147l-156 -277l-79 113zM628 422l290 -422h-158l-205 300z" />
    <glyph glyph-name="ccedilla" unicode="&#xe7;" horiz-adv-x="649" 
d="M258 662l0.000976562 -130c-22.667 0 -39.5 -6.16699 -50.5 -18.5s-16.5 -28.833 -16.5 -49.5h-129c0 58.667 14 104.667 42 138c33.333 40 84.666 60 153.999 60zM328.001 662c66 0 115.668 -18.332 149.001 -54.999c30 -33.333 45 -78 45 -134
c0 -24.667 -6.33301 -47.667 -19 -69s-29 -37.333 -49 -48c29.333 -14 52 -35 68 -63s24 -58 24 -90c0 -66 -18 -117.667 -54 -155c-38 -40 -92.667 -60 -164 -60v129c32 0 55.667 9.66699 71 29c12 15.333 18 34.333 18 57c0 26 -8.16699 46.167 -24.5 60.5
s-37.833 21.5 -64.5 21.5h-70v125h70c21.333 0 37.166 5.16699 47.499 15.5s15.5 25.166 15.5 44.499c0 21.333 -3.33301 36.333 -10 45c-9.33301 11.333 -27 17 -53 17v130zM44.002 203.001h129c0 -26.667 7.16699 -47.667 21.5 -63s35.5 -23 63.5 -23v-129
c-75.333 0 -131.333 21.667 -168 65c-30.667 36.667 -46 86.667 -46 150z" />
    <glyph glyph-name="ccedilla" unicode="&#x437;" horiz-adv-x="649" 
d="M258 662l0.000976562 -130c-22.667 0 -39.5 -6.16699 -50.5 -18.5s-16.5 -28.833 -16.5 -49.5h-129c0 58.667 14 104.667 42 138c33.333 40 84.666 60 153.999 60zM328.001 662c66 0 115.668 -18.332 149.001 -54.999c30 -33.333 45 -78 45 -134
c0 -24.667 -6.33301 -47.667 -19 -69s-29 -37.333 -49 -48c29.333 -14 52 -35 68 -63s24 -58 24 -90c0 -66 -18 -117.667 -54 -155c-38 -40 -92.667 -60 -164 -60v129c32 0 55.667 9.66699 71 29c12 15.333 18 34.333 18 57c0 26 -8.16699 46.167 -24.5 60.5
s-37.833 21.5 -64.5 21.5h-70v125h70c21.333 0 37.166 5.16699 47.499 15.5s15.5 25.166 15.5 44.499c0 21.333 -3.33301 36.333 -10 45c-9.33301 11.333 -27 17 -53 17v130zM44.002 203.001h129c0 -26.667 7.16699 -47.667 21.5 -63s35.5 -23 63.5 -23v-129
c-75.333 0 -131.333 21.667 -168 65c-30.667 36.667 -46 86.667 -46 150z" />
    <glyph glyph-name="egrave" unicode="&#xe8;" horiz-adv-x="697" 
d="M432 251l129 130v-381h-129v251zM73 -15v666h129v-350l359 364v-185z" />
    <glyph glyph-name="egrave" unicode="&#x438;" horiz-adv-x="697" 
d="M432 251l129 130v-381h-129v251zM73 -15v666h129v-350l359 364v-185z" />
    <glyph glyph-name="eacute" unicode="&#xe9;" horiz-adv-x="697" 
d="M202 400l-129 -131v382h129v-251zM561 665v-665h-129v350l-359 -365v186zM447 651l-176 -181v181h176z" />
    <glyph glyph-name="eacute" unicode="&#x439;" horiz-adv-x="697" 
d="M202 400l-129 -131v382h129v-251zM561 665v-665h-129v350l-359 -365v186zM447 651l-176 -181v181h176z" />
    <glyph glyph-name="ecircumflex" unicode="&#xea;" horiz-adv-x="688" 
d="M200 651v-651h-129v651h129zM446 651h156l-175 -263l-81 113zM460 0l-233 324l78 115l314 -439h-159z" />
    <glyph glyph-name="ecircumflex" unicode="&#x43a;" horiz-adv-x="688" 
d="M200 651v-651h-129v651h129zM446 651h156l-175 -263l-81 113zM460 0l-233 324l78 115l314 -439h-159z" />
    <glyph glyph-name="edieresis" unicode="&#xeb;" horiz-adv-x="764" 
d="M274 522l74 143l340 -665h-146zM153 0h-146l230 448l72 -143z" />
    <glyph glyph-name="edieresis" unicode="&#x43b;" horiz-adv-x="764" 
d="M274 522l74 143l340 -665h-146zM153 0h-146l230 448l72 -143z" />
    <glyph glyph-name="igrave" unicode="&#xec;" horiz-adv-x="854" 
d="M202 285v-285h-129v400zM389 211l-316 281v173l316 -281l315 281v-665h-129v378z" />
    <glyph glyph-name="igrave" unicode="&#x43c;" horiz-adv-x="854" 
d="M202 285v-285h-129v400zM389 211l-316 281v173l316 -281l315 281v-665h-129v378z" />
    <glyph glyph-name="iacute" unicode="&#xed;" horiz-adv-x="739" 
d="M202 651v-651h-129v651h129zM609 651v-651h-129v651h129zM255 261v129h171v-129h-171z" />
    <glyph glyph-name="iacute" unicode="&#x43d;" horiz-adv-x="739" 
d="M202 651v-651h-129v651h129zM609 651v-651h-129v651h129zM255 261v129h171v-129h-171z" />
    <glyph glyph-name="icircumflex" unicode="&#xee;" horiz-adv-x="807" 
d="M161 360h-131.998c9.33301 88.667 45.333 161.667 108 219s139.667 86 231 86c90 0 168.667 -29.333 236 -88s101 -131 101 -217h-132c-6.66699 49.333 -28.667 91 -66 125s-83.333 51 -138 51s-100.834 -17 -138.501 -51s-60.834 -75.667 -69.501 -125zM161.002 294
c6.66699 -49.333 28.833 -91.168 66.5 -125.501s84.5 -51.5 140.5 -51.5c55.333 0 102.333 17.5 141 52.5s60 76.5 64 124.5h132c0 -86 -33.833 -158.5 -101.5 -217.5s-146.167 -88.5 -235.5 -88.5s-165.833 28.833 -229.5 86.5s-100.167 130.834 -109.5 219.501h132z" />
    <glyph glyph-name="icircumflex" unicode="&#x43e;" horiz-adv-x="807" 
d="M161 360h-131.998c9.33301 88.667 45.333 161.667 108 219s139.667 86 231 86c90 0 168.667 -29.333 236 -88s101 -131 101 -217h-132c-6.66699 49.333 -28.667 91 -66 125s-83.333 51 -138 51s-100.834 -17 -138.501 -51s-60.834 -75.667 -69.501 -125zM161.002 294
c6.66699 -49.333 28.833 -91.168 66.5 -125.501s84.5 -51.5 140.5 -51.5c55.333 0 102.333 17.5 141 52.5s60 76.5 64 124.5h132c0 -86 -33.833 -158.5 -101.5 -217.5s-146.167 -88.5 -235.5 -88.5s-165.833 28.833 -229.5 86.5s-100.167 130.834 -109.5 219.501h132z" />
    <glyph glyph-name="idieresis" unicode="&#xef;" horiz-adv-x="721" 
d="M73 0v451h129v-451h-129zM454 0v451h129v-451h-129zM73 521v130h510v-130h-510z" />
    <glyph glyph-name="idieresis" unicode="&#x43f;" horiz-adv-x="721" 
d="M73 0v451h129v-451h-129zM454 0v451h129v-451h-129zM73 521v130h510v-130h-510z" />
    <glyph glyph-name="eth" unicode="&#xf0;" horiz-adv-x="628" 
d="M273 651h76c52.667 0 97.834 -19.167 135.501 -57.5s56.5 -83.833 56.5 -136.5s-18.833 -98.5 -56.5 -137.5s-82.834 -58.5 -135.501 -58.5h-76v129h76c15.333 0 29.666 7 42.999 21s20 29 20 45c0 15.333 -6.66699 30 -20 44s-27.666 21 -42.999 21h-76v130zM203 651
v-651h-129v651h129z" />
    <glyph glyph-name="eth" unicode="&#x440;" horiz-adv-x="628" 
d="M273 651h76c52.667 0 97.834 -19.167 135.501 -57.5s56.5 -83.833 56.5 -136.5s-18.833 -98.5 -56.5 -137.5s-82.834 -58.5 -135.501 -58.5h-76v129h76c15.333 0 29.666 7 42.999 21s20 29 20 45c0 15.333 -6.66699 30 -20 44s-27.666 21 -42.999 21h-76v130zM203 651
v-651h-129v651h129z" />
    <glyph glyph-name="ntilde" unicode="&#xf1;" horiz-adv-x="708" 
d="M615 562l-95.998 -89c-14 14 -29.667 25.667 -47 35c-20.667 11.333 -43.334 19.333 -68.001 24v130c39.333 -3.33301 77.666 -14 114.999 -32s69.333 -40.667 96 -68zM615.002 89c-26 -26.667 -56.667 -49.334 -92 -68.001c-42 -22 -81.667 -33 -119 -33v129
c44.667 8.66699 83 28.334 115 59.001zM335.002 117l0.00195312 -129c-94.667 10.667 -169.334 47 -224.001 109s-82 138.333 -82 229c0 92.667 27.667 169.334 83 230.001s129.666 96 222.999 106v-130c-48.667 -8 -89 -29 -121 -63c-35.333 -38 -53 -85.667 -53 -143
c0 -58.667 16.333 -106.334 49 -143.001c30 -33.333 71.667 -55.333 125 -66z" />
    <glyph glyph-name="ntilde" unicode="&#x441;" horiz-adv-x="708" 
d="M615 562l-95.998 -89c-14 14 -29.667 25.667 -47 35c-20.667 11.333 -43.334 19.333 -68.001 24v130c39.333 -3.33301 77.666 -14 114.999 -32s69.333 -40.667 96 -68zM615.002 89c-26 -26.667 -56.667 -49.334 -92 -68.001c-42 -22 -81.667 -33 -119 -33v129
c44.667 8.66699 83 28.334 115 59.001zM335.002 117l0.00195312 -129c-94.667 10.667 -169.334 47 -224.001 109s-82 138.333 -82 229c0 92.667 27.667 169.334 83 230.001s129.666 96 222.999 106v-130c-48.667 -8 -89 -29 -121 -63c-35.333 -38 -53 -85.667 -53 -143
c0 -58.667 16.333 -106.334 49 -143.001c30 -33.333 71.667 -55.333 125 -66z" />
    <glyph glyph-name="ograve" unicode="&#xf2;" horiz-adv-x="512" 
d="M168 451h130v-451h-130v451zM29 651h408v-130h-408v130z" />
    <glyph glyph-name="ograve" unicode="&#x442;" horiz-adv-x="512" 
d="M168 451h130v-451h-130v451zM29 651h408v-130h-408v130z" />
    <glyph glyph-name="oacute" unicode="&#xf3;" horiz-adv-x="740" 
d="M160 652l132 -253l-70 -137l-214 390h152zM499 652h145l-331 -652h-146z" />
    <glyph glyph-name="oacute" unicode="&#x443;" horiz-adv-x="740" 
d="M160 652l132 -253l-70 -137l-214 390h152zM499 652h145l-331 -652h-146z" />
    <glyph glyph-name="ocircumflex" unicode="&#xf4;" horiz-adv-x="950" 
d="M294 224v-129h-26c-64 0 -119.833 23.167 -167.5 69.5s-71.5 102.5 -71.5 168.5c0 66.667 23.333 123 70 169s103 69 169 69h26v-129h-26c-30 0 -55.833 -10.5 -77.5 -31.5s-32.5 -46.833 -32.5 -77.5c0 -30 10.667 -55.667 32 -77s47.333 -32 78 -32h26zM565 224h27
c30 0 55.667 10.667 77 32s32 47 32 77s-10.667 55.667 -32 77s-47 32 -77 32h-27v129h27c65.333 0 121.333 -23 168 -69s70 -102.333 70 -169c0 -65.333 -23.667 -121.333 -71 -168s-103 -70 -167 -70h-27v129zM494 651v-651h-129v651h129z" />
    <glyph glyph-name="ocircumflex" unicode="&#x444;" horiz-adv-x="950" 
d="M294 224v-129h-26c-64 0 -119.833 23.167 -167.5 69.5s-71.5 102.5 -71.5 168.5c0 66.667 23.333 123 70 169s103 69 169 69h26v-129h-26c-30 0 -55.833 -10.5 -77.5 -31.5s-32.5 -46.833 -32.5 -77.5c0 -30 10.667 -55.667 32 -77s47.333 -32 78 -32h26zM565 224h27
c30 0 55.667 10.667 77 32s32 47 32 77s-10.667 55.667 -32 77s-47 32 -77 32h-27v129h27c65.333 0 121.333 -23 168 -69s70 -102.333 70 -169c0 -65.333 -23.667 -121.333 -71 -168s-103 -70 -167 -70h-27v129zM494 651v-651h-129v651h129z" />
    <glyph glyph-name="otilde" unicode="&#xf5;" horiz-adv-x="722" 
d="M471 0l-442 651h157l442 -651h-157zM449 385l-79 117l101 149h157zM288 148l-102 -148h-157l180 265z" />
    <glyph glyph-name="otilde" unicode="&#x445;" horiz-adv-x="722" 
d="M471 0l-442 651h157l442 -651h-157zM449 385l-79 117l101 149h157zM288 148l-102 -148h-157l180 265z" />
    <glyph glyph-name="odieresis" unicode="&#xf6;" horiz-adv-x="752" 
d="M73 129h596v-129h-596v129zM453 651h129v-452h-129v452zM73 651h129v-452h-129v452z" />
    <glyph glyph-name="odieresis" unicode="&#x446;" horiz-adv-x="752" 
d="M73 129h596v-129h-596v129zM453 651h129v-452h-129v452zM73 651h129v-452h-129v452z" />
    <glyph glyph-name="divide" unicode="&#xf7;" horiz-adv-x="643" 
d="M44 651h129v-172c0 -38.667 6.83301 -63.167 20.5 -73.5s44.834 -15.5 93.501 -15.5h26v-129h-54c-76.667 0 -132.334 19 -167.001 57c-32 34.667 -48 88 -48 160v173zM511 651v-651h-129v651h129z" />
    <glyph glyph-name="divide" unicode="&#x447;" horiz-adv-x="643" 
d="M44 651h129v-172c0 -38.667 6.83301 -63.167 20.5 -73.5s44.834 -15.5 93.501 -15.5h26v-129h-54c-76.667 0 -132.334 19 -167.001 57c-32 34.667 -48 88 -48 160v173zM511 651v-651h-129v651h129z" />
    <glyph glyph-name="oslash" unicode="&#xf8;" horiz-adv-x="932" 
d="M73 651h129v-452h-129v452zM359 651h130v-452h-130v452zM646 651h129v-452h-129v452zM73 129h702v-129h-702v129z" />
    <glyph glyph-name="oslash" unicode="&#x448;" horiz-adv-x="932" 
d="M73 651h129v-452h-129v452zM359 651h130v-452h-130v452zM646 651h129v-452h-129v452zM73 129h702v-129h-702v129z" />
    <glyph glyph-name="ugrave" unicode="&#xf9;" horiz-adv-x="967" 
d="M73 651h129v-452h-129v452zM359 651h130v-452h-130v452zM646 651h129v-452h-129v452zM73 129h793v-129h-793v129z" />
    <glyph glyph-name="ugrave" unicode="&#x449;" horiz-adv-x="967" 
d="M73 651h129v-452h-129v452zM359 651h130v-452h-130v452zM646 651h129v-452h-129v452zM73 129h793v-129h-793v129z" />
    <glyph glyph-name="uacute" unicode="&#xfa;" horiz-adv-x="666" 
d="M293 390h76.001c52.667 0 97.834 -19.167 135.501 -57.5s56.5 -83.833 56.5 -136.5s-18.833 -98.5 -56.5 -137.5s-82.834 -58.5 -135.501 -58.5h-76v129h76c15.333 0 29.666 7 42.999 21s20 29.333 20 46c0 16 -6.5 30.833 -19.5 44.5s-27.5 20.5 -43.5 20.5h-76v129z
M94.001 521h-89v130h218v-651h-129v521z" />
    <glyph glyph-name="uacute" unicode="&#x44a;" horiz-adv-x="666" 
d="M293 390h76.001c52.667 0 97.834 -19.167 135.501 -57.5s56.5 -83.833 56.5 -136.5s-18.833 -98.5 -56.5 -137.5s-82.834 -58.5 -135.501 -58.5h-76v129h76c15.333 0 29.666 7 42.999 21s20 29.333 20 46c0 16 -6.5 30.833 -19.5 44.5s-27.5 20.5 -43.5 20.5h-76v129z
M94.001 521h-89v130h218v-651h-129v521z" />
    <glyph glyph-name="ucircumflex" unicode="&#xfb;" horiz-adv-x="878" 
d="M202 651v-651h-129v651h129zM272 390h77.001c52 0 97 -19 135 -57s57 -83.333 57 -136c0 -53.333 -18.833 -99.5 -56.5 -138.5s-82.834 -58.5 -135.501 -58.5h-77v129h77c16 0 30.333 7 43 21s19 29.333 19 46c0 16 -6.5 30.833 -19.5 44.5s-27.167 20.5 -42.5 20.5h-77
v129zM729.001 651v-651h-129v651h129z" />
    <glyph glyph-name="ucircumflex" unicode="&#x44b;" horiz-adv-x="878" 
d="M202 651v-651h-129v651h129zM272 390h77.001c52 0 97 -19 135 -57s57 -83.333 57 -136c0 -53.333 -18.833 -99.5 -56.5 -138.5s-82.834 -58.5 -135.501 -58.5h-77v129h77c16 0 30.333 7 43 21s19 29.333 19 46c0 16 -6.5 30.833 -19.5 44.5s-27.167 20.5 -42.5 20.5h-77
v129zM729.001 651v-651h-129v651h129z" />
    <glyph glyph-name="udieresis" unicode="&#xfc;" horiz-adv-x="643" 
d="M272 390h77.001c52 0 97 -19.333 135 -58s57 -84 57 -136c0 -52.667 -18.833 -98.5 -56.5 -137.5s-82.834 -58.5 -135.501 -58.5h-77v129h77c16 0 30.333 7 43 21s19 29.333 19 46c0 16 -6.5 30.833 -19.5 44.5s-27.167 20.5 -42.5 20.5h-77v129zM202.001 651v-651h-129
v651h129z" />
    <glyph glyph-name="udieresis" unicode="&#x44c;" horiz-adv-x="643" 
d="M272 390h77.001c52 0 97 -19.333 135 -58s57 -84 57 -136c0 -52.667 -18.833 -98.5 -56.5 -137.5s-82.834 -58.5 -135.501 -58.5h-77v129h77c16 0 30.333 7 43 21s19 29.333 19 46c0 16 -6.5 30.833 -19.5 44.5s-27.167 20.5 -42.5 20.5h-77v129zM202.001 651v-651h-129
v651h129z" />
    <glyph glyph-name="yacute" unicode="&#xfd;" horiz-adv-x="695" 
d="M116 178c17.333 -18 39.501 -32.667 66.501 -44s54.5 -17 82.5 -17c56.667 0 105 18.667 145 56c36.667 34 57 74.333 61 121h132c0 -84 -33.333 -156 -100 -216s-145.667 -90 -237 -90c-42.667 0 -84.834 7.83301 -126.501 23.5s-78.5 39.167 -110.5 70.5zM197.001 393
h208v-130h-208v130zM116.001 475l-87 96c31.333 30 68 53.167 110 69.5s84.333 24.5 127 24.5c91.333 0 170.333 -30 237 -90s100 -131.667 100 -215h-132c-4 46.667 -24.333 87 -61 121c-39.333 36.667 -87.666 55 -144.999 55c-29.333 0 -56.833 -5.33301 -82.5 -16
s-47.834 -25.667 -66.501 -45z" />
    <glyph glyph-name="yacute" unicode="&#x44d;" horiz-adv-x="695" 
d="M116 178c17.333 -18 39.501 -32.667 66.501 -44s54.5 -17 82.5 -17c56.667 0 105 18.667 145 56c36.667 34 57 74.333 61 121h132c0 -84 -33.333 -156 -100 -216s-145.667 -90 -237 -90c-42.667 0 -84.834 7.83301 -126.501 23.5s-78.5 39.167 -110.5 70.5zM197.001 393
h208v-130h-208v130zM116.001 475l-87 96c31.333 30 68 53.167 110 69.5s84.333 24.5 127 24.5c91.333 0 170.333 -30 237 -90s100 -131.667 100 -215h-132c-4 46.667 -24.333 87 -61 121c-39.333 36.667 -87.666 55 -144.999 55c-29.333 0 -56.833 -5.33301 -82.5 -16
s-47.834 -25.667 -66.501 -45z" />
    <glyph glyph-name="thorn" unicode="&#xfe;" horiz-adv-x="1037" 
d="M370 360h-131.997c10 88 46.167 160.833 108.5 218.5s139.166 86.5 230.499 86.5c90 0 168.833 -29.5 236.5 -88.5s101.5 -131.167 101.5 -216.5h-132c-7.33301 49.333 -29.833 91 -67.5 125s-83.834 51 -138.501 51c-54 0 -99.833 -17 -137.5 -51
s-60.834 -75.667 -69.501 -125zM370.003 293c6.66699 -50 28.8311 -91.833 66.498 -125.5s84.5 -50.5 140.5 -50.5c55.333 0 102.333 17.5 141 52.5s60.334 76.167 65.001 123.5h132c0 -86 -34.167 -158.333 -102.5 -217s-147.166 -88 -236.499 -88
c-90 0 -166.333 28.5 -229 85.5s-99 130.167 -109 219.5h132zM202 651v-651h-129v651h129z" />
    <glyph glyph-name="thorn" unicode="&#x44e;" horiz-adv-x="1037" 
d="M370 360h-131.997c10 88 46.167 160.833 108.5 218.5s139.166 86.5 230.499 86.5c90 0 168.833 -29.5 236.5 -88.5s101.5 -131.167 101.5 -216.5h-132c-7.33301 49.333 -29.833 91 -67.5 125s-83.834 51 -138.501 51c-54 0 -99.833 -17 -137.5 -51
s-60.834 -75.667 -69.501 -125zM370.003 293c6.66699 -50 28.8311 -91.833 66.498 -125.5s84.5 -50.5 140.5 -50.5c55.333 0 102.333 17.5 141 52.5s60.334 76.167 65.001 123.5h132c0 -86 -34.167 -158.333 -102.5 -217s-147.166 -88 -236.499 -88
c-90 0 -166.333 28.5 -229 85.5s-99 130.167 -109 219.5h132zM202 651v-651h-129v651h129z" />
    <glyph glyph-name="ydieresis" unicode="&#xff;" horiz-adv-x="642" 
d="M313 651l-0.000976562 -130h-77c-15.333 0 -29.666 -6.66699 -42.999 -20s-20 -28.333 -20 -45c0 -16 6.66699 -31 20 -45s27.666 -21 42.999 -21h77v-129h-77c-52 0 -97 19.333 -135 58s-57 84.334 -57 137.001c0 53.333 18.833 99.166 56.5 137.499
s82.834 57.5 135.501 57.5h77zM510.999 651v-651h-129v651h129zM25.999 0l99 232c30.667 -21.333 74.667 -32 132 -32l-84 -200h-147z" />
    <glyph glyph-name="ydieresis" unicode="&#x44f;" horiz-adv-x="642" 
d="M313 651l-0.000976562 -130h-77c-15.333 0 -29.666 -6.66699 -42.999 -20s-20 -28.333 -20 -45c0 -16 6.66699 -31 20 -45s27.666 -21 42.999 -21h77v-129h-77c-52 0 -97 19.333 -135 58s-57 84.334 -57 137.001c0 53.333 18.833 99.166 56.5 137.499
s82.834 57.5 135.501 57.5h77zM510.999 651v-651h-129v651h129zM25.999 0l99 232c30.667 -21.333 74.667 -32 132 -32l-84 -200h-147z" />
    <glyph glyph-name="tilde" unicode="&#x2dc;" horiz-adv-x="333" 
d="M259 671h60.0029c-6.66699 -36.667 -18.5 -64.167 -35.5 -82.5s-38.5 -27.5 -64.5 -27.5c-14.667 0 -33 3.33301 -55 10c-50 15.333 -76 23 -78 23c-14.667 0 -25.667 -5 -33 -15c-4.66699 -6 -8 -14 -10 -24h-58c2 10.667 5 22.167 9 34.5s10 24.333 18 36
s19.167 21.5 33.5 29.5s30.833 12 49.5 12c11.333 0 32.166 -5.5 62.499 -16.5s50.166 -16.5 59.499 -16.5c13.333 0 23.166 3.5 29.499 10.5s10.5 15.833 12.5 26.5z" />
    <glyph glyph-name="endash" unicode="&#x2013;" horiz-adv-x="556" 
d="M506 303v-96h-506v96h506z" />
    <glyph glyph-name="emdash" unicode="&#x2014;" horiz-adv-x="1000" 
d="M910 303v-96h-910v96h910z" />
    <glyph glyph-name="quoteleft" unicode="&#x2018;" horiz-adv-x="278" 
d="M190 529v-116.001h-127v93c0 50.667 14.333 89.667 43 117c19.333 18.667 46.333 31.667 81 39v-47c-27.333 -8.66699 -46 -21 -56 -37c-7.33301 -11.333 -11 -27.666 -11 -48.999h70z" />
    <glyph glyph-name="quoteright" unicode="&#x2019;" horiz-adv-x="278" 
d="M63 538v115h127v-92c0 -50.667 -14.333 -89.667 -43 -117c-19.333 -18.667 -46.333 -31.667 -81 -39v46c27.333 8.66699 46 21 56 37c7.33301 12 11 28.667 11 50h-70z" />
    <glyph glyph-name="quotesinglbase" unicode="&#x201a;" horiz-adv-x="278" 
d="M195 133v-115.001c0 -52.667 -12.667 -93 -38 -121c-21.333 -23.333 -54 -40 -98 -50l-1 48c24.667 8.66699 42 18 52 28c16.667 16.667 25 42.334 25 77.001h-77v133h137z" />
    <glyph glyph-name="quotedblleft" unicode="&#x201c;" horiz-adv-x="500" 
d="M186 529l0.000976562 -116.001h-128v93c0 50.667 14.333 89.667 43 117c19.333 18.667 46.666 31.667 81.999 39v-47c-27.333 -8.66699 -46 -21 -56 -37c-7.33301 -11.333 -11 -27.666 -11 -48.999h70zM397.001 528.999l0.000976562 -116.001h-128v93
c0 50.667 14.333 89.667 43 117c19.333 18.667 46.666 31.667 81.999 39v-47c-27.333 -8.66699 -46 -21 -56 -37c-7.33301 -11.333 -11 -27.666 -11 -48.999h70z" />
    <glyph glyph-name="quotedblright" unicode="&#x201d;" horiz-adv-x="500" 
d="M58 538l-0.000976562 115h128v-92c0 -50.667 -14.333 -89.667 -43 -117c-19.333 -18.667 -46.666 -31.667 -81.999 -39v46c27.333 8.66699 46 21 56 37c7.33301 12 11 28.667 11 50h-70zM268.999 538l-0.000976562 115h128v-92c0 -50.667 -14.333 -89.667 -43 -117
c-19.333 -18.667 -46.666 -31.667 -81.999 -39v46c27.333 8.66699 46 21 56 37c7.33301 12 11 28.667 11 50h-70z" />
    <glyph glyph-name="quotedblbase" unicode="&#x201e;" horiz-adv-x="500" 
d="M186 133l-0.000976562 -115.001c0 -52.667 -13 -93 -39 -121c-21.333 -23.333 -53.666 -40 -96.999 -50l-1 48c24.667 8.66699 42 18 52 28c16.667 16.667 25 42.334 25 77.001h-77v133h137zM396.999 132.999v-115.001c0 -52.667 -12.667 -93 -38 -121
c-21.333 -23.333 -54 -40 -98 -50l-1 48c24.667 8.66699 42 18 52 28c16.667 16.667 25 42.334 25 77.001h-77v133h137z" />
    <glyph glyph-name="daggerdbl" unicode="&#x2021;" horiz-adv-x="544" 
d="M435 458h-130c0 15.333 -6.66699 29.666 -20 42.999s-28.333 20 -45 20c-15.333 0 -30 -6.66699 -44 -20s-21 -27.666 -21 -42.999v-68h197v-129h-197v-66h-129v263c0 52 19.5 97.167 58.5 135.5s84.5 57.5 136.5 57.5s97.333 -19 136 -57s58 -83.333 58 -136zM454 128
v-128h-408v128h408z" />
    <glyph glyph-name="bullet" unicode="&#x2022;" horiz-adv-x="350" 
d="M9 177v300h300v-300h-300z" />
    <glyph glyph-name="ellipsis" unicode="&#x2026;" horiz-adv-x="1000" 
d="M387 133h136v-133h-136v133zM84 133h136v-133h-136v133zM690 133h136v-133h-136v133z" />
    <glyph glyph-name="perthousand" unicode="&#x2030;" horiz-adv-x="1309" 
d="M617 646l-362 -663h-68l363 663h67zM25 493c4 40.667 20 75.666 48 104.999c31.333 32 70.666 48 117.999 48c45.333 0 84.333 -15.667 117 -47s49 -66.666 49 -105.999h-94c0 14 -7 27.333 -21 40s-31 19 -51 19c-19.333 0 -36.166 -6.16699 -50.499 -18.5
s-21.5 -25.833 -21.5 -40.5h-94zM25 465.999l94 -0.000976562c0 -13.333 7.16699 -26.5 21.5 -39.5s30.833 -19.5 49.5 -19.5c19.333 0 36.333 6.33301 51 19s22 26 22 40h94c0 -39.333 -16 -74.666 -48 -105.999s-71.333 -47 -118 -47s-85.667 16 -117 48
c-28.667 29.333 -45 64.333 -49 105zM452 168.998c4 40.667 20 75.666 48 104.999c31.333 32 70.666 48 117.999 48c45.333 0 84.333 -15.667 117 -47s49 -66.666 49 -105.999h-94c0 14 -7 27.333 -21 40s-31 19 -51 19c-19.333 0 -36.166 -6.16699 -50.499 -18.5
s-21.5 -25.833 -21.5 -40.5h-94zM452 141.997l94 -0.000976562c0 -13.333 7.16699 -26.5 21.5 -39.5s30.833 -19.5 49.5 -19.5c19.333 0 36.333 6.33301 51 19s22 26 22 40h94c0 -39.333 -16 -74.666 -48 -105.999s-71.333 -47 -118 -47s-85.667 16 -117 48
c-28.667 29.333 -45 64.333 -49 105zM837 168.996c4 40.667 20 75.666 48 104.999c31.333 32 70.666 48 117.999 48c46 0 85 -15.667 117 -47s48 -66.666 48 -105.999h-93c0 14 -7 27.333 -21 40s-31 19 -51 19c-19.333 0 -36.166 -6.16699 -50.499 -18.5
s-21.5 -25.833 -21.5 -40.5h-94zM837 141.995l94 -0.000976562c0 -13.333 7.16699 -26.5 21.5 -39.5s30.833 -19.5 49.5 -19.5c19.333 0 36.333 6.33301 51 19s22 26 22 40h93c0 -39.333 -16 -74.666 -48 -105.999s-71 -47 -117 -47c-46.667 0 -85.667 16 -117 48
c-28.667 29.333 -45 64.333 -49 105z" />
    <glyph glyph-name="guilsinglleft" unicode="&#x2039;" horiz-adv-x="333" 
d="M228 440v-105l-91 -80l91 -80v-106l-152 131v109z" />
    <glyph glyph-name="guilsinglright" unicode="&#x203a;" horiz-adv-x="333" 
d="M75 440l152 -131v-109l-152 -131v106l91 80l-91 80v105z" />
    <glyph glyph-name="trademark" unicode="&#x2122;" horiz-adv-x="914" 
d="M123 551h78v-272h-78v272zM39 670h246v-78h-246v78zM452 451v-172h-78v242zM565 407l-191 170v105l191 -171l191 171v-403h-78v228z" />
    <glyph glyph-name=".null" horiz-adv-x="0" 
 />
    <glyph glyph-name="nonmarkingreturn" horiz-adv-x="451" 
 />
  </font>
</defs>
</svg>
