<?xml version="1.0" standalone="no"?>
<!DOCTYPE svg PUBLIC "-//W3C//DTD SVG 1.1//EN" "http://www.w3.org/Graphics/SVG/1.1/DTD/svg11.dtd" >
<svg>
<metadata>
Created by FontForge 20090914 at Wed Mar 27 12:46:36 2013
 By www-data
&#194;&#169;1997 Patrick Broderick/rotodesign. For more info, write to info@rotodesign.com, http://www.rotodesign.com
</metadata>
<defs>
<font id="DSZombieCyr" horiz-adv-x="584" >
  <font-face 
    font-family="DS Zombie Cyr"
    font-weight="700"
    font-stretch="normal"
    units-per-em="1000"
    panose-1="2 11 8 0 0 0 0 0 0 0"
    ascent="800"
    descent="-200"
    x-height="735"
    cap-height="724"
    bbox="0.00195312 -143.042 4110 899.996"
    underline-thickness="10"
    underline-position="-61"
    unicode-range="U+0020-U+F101"
  />
<missing-glyph horiz-adv-x="658" 
d="M40 0v763h578v-763h-578zM80 40h498v683h-498v-683z" />
    <glyph glyph-name=".notdef" horiz-adv-x="658" 
d="M40 0v763h578v-763h-578zM80 40h498v683h-498v-683z" />
    <glyph glyph-name="space" unicode=" " horiz-adv-x="500" 
 />
    <glyph glyph-name="exclam" unicode="!" horiz-adv-x="302" 
d="M186 775l4.00195 -18.9961c1.33301 -3.33301 3.66602 -5.83301 6.99902 -7.5s5.66602 -2.5 6.99902 -2.5c2.66699 0 7.83398 2.66699 15.501 8s13.167 8 16.5 8s7.66602 -2.66699 12.999 -8h16c6.66699 0 11 -2 13 -6v-2c0 -18.667 -2.66699 -30 -8 -34
s-8 -8.66699 -8 -14c0 -6 1.33301 -15 4 -27s4 -21.333 4 -28c0 -4 -0.333008 -9.66699 -1 -17s-1.16699 -14.833 -1.5 -22.5s-0.833008 -14.834 -1.5 -21.501s-1 -11.334 -1 -14.001l-1 -164c0 -38.667 -12 -68 -36 -88l10.5 -22.5l14.5 -30.5l25 -52
c2.66699 -4.66699 4 -11 4 -19c0 -4.66699 -2.83301 -9.33398 -8.5 -14.001s-12.667 -9 -21 -13s-17 -7.33301 -26 -10s-16.5 -4.33398 -22.5 -5.00098c-1.33301 -16.667 -7 -31.5 -17 -44.5s-24.333 -23.167 -43 -30.5c1.33301 0 -0.166992 2.33301 -4.5 7l-15.5 16.5
l-18.5 20c-6.33301 7 -11.166 12.5 -14.499 16.5l-59 78c-0.666992 0.666992 -1.16699 1.66699 -1.5 3l-0.5 2c0 3.33301 3.66699 8.33301 11 15s12.333 15 15 25c5.33301 24.667 8 53 8 85v40c0 100 -14.667 200 -44 300c0.666992 0.666992 1.5 3.33398 2.5 8.00098
s2 9.66699 3 15s2.33301 10.166 4 14.499s3.5 6.83301 5.5 7.5c3.33301 1.33301 8.66602 -0.5 15.999 -5.5s13.333 -7.5 18 -7.5c4 0 11.667 0.833008 23 2.5s23 4.16699 35 7.5s22.5 7.5 31.5 12.5s13.5 11.167 13.5 18.5v12c0 2.66699 4.66699 5 14 7z" />
    <glyph glyph-name="FLW34" unicode="&#x22;" horiz-adv-x="450" 
d="M203 729c0 -7.33301 -1.83301 -20.501 -5.5 -39.501s-5.5 -37.5 -5.5 -55.5c0 -10 0.833008 -18.667 2.5 -26s3.83398 -14.333 6.50098 -21c8 6 16.5 19.667 25.5 41s18.167 40.666 27.5 57.999l40 16c6.66699 -2.66699 13.667 -5.66699 21 -9
s14.333 -5.66602 21 -6.99902c1.33301 0 6.33301 2 15 6l28.5 13.5c10.333 5 19.833 9.83301 28.5 14.5s13.334 7.33398 14.001 8.00098h2c4 0 6 -3 6 -9v-4c0 -12.667 -2 -29.5 -6 -50.5s-8.66699 -41.833 -14 -62.5s-10.833 -38.667 -16.5 -54s-10.167 -24 -13.5 -26h-12
c-7.33301 0 -16.333 -1.66699 -27 -5s-21 -6 -31 -8c-10.667 -2 -21.667 -3.5 -33 -4.5s-23.666 -3.5 -36.999 -7.5c-9.33301 0 -21.666 2.5 -36.999 7.5s-30.333 7.5 -45 7.5c-4 0 -10.833 1.16699 -20.5 3.5s-16.834 3.5 -21.501 3.5c-12.667 0 -24.834 -4 -36.501 -12
s-22.834 -12 -33.501 -12c-17.333 0 -26 10.667 -26 32c0 10 1.5 24.5 4.5 43.5s7.33301 38.167 13 57.5s12.167 36.5 19.5 51.5s15 23.5 23 25.5c9.33301 2 17.666 4.16699 24.999 6.5s13.666 3.5 18.999 3.5c8 0 14.667 -4.66699 20 -14l12 1l4 7c14 24 24.667 36 32 36
c4.66699 0 8.33398 -5.33301 11.001 -16z" />
    <glyph glyph-name="dollar" unicode="$" horiz-adv-x="310" 
d="M204 734c0 -3.33301 -0.668945 -6.8291 -2.00195 -10.4961s-2 -8.83398 -2 -15.501c0 -2.66699 0.833008 -6.16699 2.5 -10.5s4.16699 -7.16602 7.5 -8.49902h39c13.333 0 21.833 -1.83301 25.5 -5.5s5.5 -12.167 5.5 -25.5c0 -9.33301 -1.33301 -18.333 -4 -27
s-6 -13 -10 -13h-6c-10 0 -17.5 -0.666992 -22.5 -2s-8.83301 -3 -11.5 -5s-5.5 -4.33301 -8.5 -7s-7.5 -5.33398 -13.5 -8.00098c-5.33301 -2.66699 -11.5 -5.33398 -18.5 -8.00098s-10.167 -4.66699 -9.5 -6c1.33301 -7.33301 8 -14.333 20 -21l39 -22.5
c14 -8.33301 26.667 -18.333 38 -30s17 -26.167 17 -43.5c0 -18.667 -6 -37 -18 -55c-4.66699 -1.33301 -9.16699 -4.33301 -13.5 -9l-15.5 -17c-6 -6.66699 -13.667 -13.834 -23 -21.501s-21.333 -14.834 -36 -21.501c-11.333 -4.66699 -19.5 -13 -24.5 -25
s-8.16699 -18 -9.5 -18l-11.5 4l-10.5 4c-5.33301 4 -9.33301 6 -12 6s-4.66699 -0.833008 -6 -2.5l-4 -5c-1.33301 -1.66699 -3 -2.5 -5 -2.5c-6 0 -9 8.66699 -9 26c0 2.66699 -3 6.5 -9 11.5l-20 17.5c-7.33301 6.66699 -14 13.5 -20 20.5s-9 13.833 -9 20.5
c0 6 -2.33301 11.667 -7 17s-7 8.66602 -7 9.99902c0 4 3.5 6.66699 10.5 8s9.5 5.66602 7.5 12.999c-2 8.66699 -4 15.167 -6 19.5s-3 6.83301 -3 7.5c-3.33301 12 1 16.667 13 14s26 -7 42 -13s30.833 -11.167 44.5 -15.5s20.5 -2.16602 20.5 6.50098
c0 10.667 -6.16699 19.167 -18.5 25.5s-25.666 12.333 -39.999 18s-27.666 12.334 -39.999 20.001s-18.5 18.5 -18.5 32.5c0 35.333 29.667 77 89 125c0.666992 0.666992 2 4 4 10l6.5 19l6.5 18.5c2 5.66699 3.33301 8.5 4 8.5h6c6.66699 -16.667 12 -25 16 -25
c2 0 3.83301 1.66699 5.5 5l5.5 10.5c2 3.66699 4.33301 7.16699 7 10.5s6 5 10 5s8 -4.66699 12 -14z" />
    <glyph glyph-name="percent" unicode="%" horiz-adv-x="983" 
d="M264 715l10 0.000976562l17 -4.5c11.333 -3 23.833 -6.5 37.5 -10.5s26.167 -7.5 37.5 -10.5l17 -4.5c40.667 -22.667 61 -62.667 61 -120c0.666992 -0.666992 1.66699 -1 3 -1c3.33301 0 8 3.33301 14 10s12.333 14.834 19 24.501s13.167 20 19.5 31l16.5 28.5l10 19
c3.33301 6.66699 5.83301 13 7.5 19s3.5 9 5.5 9c2.66699 0 7.33398 -6.66699 14.001 -20c4 -7.33301 7.5 -9.5 10.5 -6.5s6.16699 7.66699 9.5 14s7 12.833 11 19.5s8.66699 10 14 10c1.33301 0 6 -1.66699 14 -5v-7c0 -4.66699 2 -7.16699 6 -7.5
s8.33301 0.333984 13 2.00098s8.83398 3.33398 12.501 5.00098s5.16699 2.5 4.5 2.5h4c-2 0 1.33301 -7 10 -21h2c4.66699 0 9.5 4 14.5 12s9.83301 12 14.5 12c3.33301 0 5 -2.33301 5 -7c0 -1.33301 -0.666992 -5.33301 -2 -12l-2 -9
c-0.666992 -2.66699 0 -4.83398 2 -6.50098s4 -3.16699 6 -4.5h2c2.66699 0 7.33398 1.66699 14.001 5s10.334 5 11.001 5h2l-1 -22l-21 -36.5l-29 -51.5l-34 -58l-26 -43v-3c0 -4 2.33301 -5.83301 7 -5.5s10 1.66602 16 3.99902s12 5 18 8l13 6.5l48 22
c6.66699 -2.66699 14.834 -6.33398 24.501 -11.001s17.834 -7 24.501 -7c4.66699 0 9 1 13 3c17.333 0 33.166 -0.666992 47.499 -2s27.166 -3.33301 38.499 -6c50.667 -12 76 -44 76 -96v-16c0 -11.333 1.16699 -23.166 3.5 -35.499s4.83301 -24 7.5 -35s4.5 -21 5.5 -30
s0.166992 -16.167 -2.5 -21.5l-38 -73l-19.5 -15.5c-9.66699 -7.66699 -20.667 -15.834 -33 -24.501s-24.666 -16.334 -36.999 -23.001s-23.166 -10 -32.499 -10c-4.66699 0 -11.667 3 -21 9s-15.333 9 -18 9c-6.66699 0 -16.834 -1.33301 -30.501 -4s-23.834 -4 -30.501 -4
c-8 0 -14.833 2 -20.5 6s-10.667 8.33301 -15 13l-12 13c-3.66699 4 -7.5 6 -11.5 6c-2.66699 0 -7.5 2.16699 -14.5 6.5s-11.833 6.5 -14.5 6.5h-2c-2.66699 0 -7.33398 2.66699 -14.001 8s-13.834 11.833 -21.501 19.5s-15.334 16 -23.001 25s-14.167 17.167 -19.5 24.5
l-6 -4c-2 -1.33301 -5.33301 -5 -10 -11s-10 -13.333 -16 -22s-12 -17.834 -18 -27.501s-11.333 -18.834 -16 -27.501c-5.33301 0 -11.166 4.83301 -17.499 14.5s-11.833 14.5 -16.5 14.5c-2.66699 -2.66699 -9.33398 -15 -20.001 -37
c-4.66699 -10 -9.33398 -17.333 -14.001 -22h-6c-5.33301 0 -13 1.83301 -23 5.5s-17 5.5 -21 5.5c-8.66699 0 -16 -4.33301 -22 -13c-12 6 -18 14.667 -18 26l3 7c10 20.667 15 39 15 55v2c-1.33301 2.66699 -4.33301 1.16699 -9 -4.5s-10.167 -13.167 -16.5 -22.5
s-12.666 -19.333 -18.999 -30l-15.5 -26c-2.66699 0.666992 -6.66699 2.33398 -12 5.00098s-8 3.33398 -8 2.00098v12c0 7.33301 5.5 19.833 16.5 37.5s20.167 35.167 27.5 52.5l40 92c2 4.66699 -0.666992 7.5 -8 8.5s-15.333 1 -24 0s-16.167 -2.33301 -22.5 -4
s-7.5 -2.5 -3.5 -2.5c-17.333 0 -31.333 6.33301 -42 19h-25c-48 0 -78.333 11 -91 33c-2 3.33301 -6.16699 8 -12.5 14l-22 20.5l-26 23.5c-9 8 -17.5 16 -25.5 24c0 4 -0.333008 10.333 -1 19l-2 26.5c-0.666992 9 -1.5 17.333 -2.5 25s-1.5 12.5 -1.5 14.5
c-0.666992 4.66699 -1 9 -1 13v10c0 44 13.333 75.333 40 94c11.333 1.33301 22.666 6 33.999 14l35 26c30.667 22.667 62.334 34 95.001 34c6.66699 0 13.667 -3.83301 21 -11.5s13.666 -11.5 18.999 -11.5zM225 590.001c-8 -2 -17.668 -6.66699 -29.001 -14v-8
c0 -4 -0.666992 -10 -2 -18s-2 -14 -2 -18c0 -21.333 10.333 -32 31 -32c12.667 0 26.334 4.83301 41.001 14.5s22 20.5 22 32.5c0 14 -6.83301 24.667 -20.5 32s-27.167 11 -40.5 11zM731.999 364.001c-8.66699 -6 -12.998 -16.665 -12.998 -31.998c0 -9.33301 1 -23 3 -41
c6.66699 -11.333 19.667 -16.333 39 -15l31 2c7.33301 1.33301 11 5 11 11c0 3.33301 -2 8.66602 -6 15.999s-9.33301 15.166 -16 23.499s-14.334 16 -23.001 23s-17.334 11.167 -26.001 12.5z" />
    <glyph glyph-name="ampersand" unicode="&#x26;" horiz-adv-x="666" 
d="M287 731l18.9971 -9.99316c8.66699 -4.66699 20.167 -9.16699 34.5 -13.5s30.5 -10.166 48.5 -17.499c1.33301 -0.666992 6.83301 -3.83398 16.5 -9.50098s22.834 -13.834 39.501 -24.501c28.667 -18.667 40.334 -28 35.001 -28c-2 0 -5.33301 -1.33301 -10 -4
s-8.33398 -4 -11.001 -4s-5.83398 1 -9.50098 3s-7.5 3 -11.5 3h-6c-2 0 -3 -0.666992 -3 -2v-2c0 -3.33301 3.5 -7.16602 10.5 -11.499s12.5 -6.5 16.5 -6.5c2 0 4 0.666992 6 2s4 2 6 2c12 0 18 -10 18 -30c0 -8 -4 -16.5 -12 -25.5l-26 -28
c-9.33301 -9.66699 -18 -19.5 -26 -29.5s-12 -19.333 -12 -28c0 -6.66699 4 -14 12 -22s15.333 -12 22 -12h2c4.66699 0 12 3.83301 22 11.5s21.167 17.5 33.5 29.5l38.5 38.5c13.333 13.667 25.333 26.5 36 38.5h4c5.33301 0 8.33301 -2.33301 9 -7
c-2.66699 -6 -5.5 -13.5 -8.5 -22.5l-10.5 -31.5c3.33301 -5.33301 7 -6.66602 11 -3.99902s8 6.66699 12 12s8.33301 10.666 13 15.999s9.33398 8 14.001 8c8 0 12 -5.33301 12 -16c0 -4 -1 -9.5 -3 -16.5s-3 -12.5 -3 -16.5s2.33301 -7.83301 7 -11.5s7 -7.5 7 -11.5
c0 -2.66699 -1 -6.83398 -3 -12.501s-4.33301 -11.334 -7 -17.001s-5 -11 -7 -16s-3 -8.5 -3 -10.5c0 -7.33301 2.66699 -13.666 8 -18.999c-1.33301 -12.667 -18 -35.334 -50 -68.001l2 -14l40 -35c15.333 -13.333 24 -27 26 -41c-8.66699 -8.66699 -13 -15.667 -13 -21
c0 -3.33301 1.66699 -7.33301 5 -12s5 -8 5 -10c0 -7.33301 -3.66699 -11 -11 -11c-6 0 -14.833 3.16699 -26.5 9.5s-17.834 9.5 -18.501 9.5c-3.33301 0 -5.83301 -1.33301 -7.5 -4s-3.16699 -5.33398 -4.5 -8.00098s-2.83301 -5.33398 -4.5 -8.00098s-4.5 -4 -8.5 -4
c-2 0 -5.33301 0.666992 -10 2s-8 2 -10 2c-3.33301 0 -6.66602 -1.33301 -9.99902 -4l2 -8c0.666992 -2.66699 1.33398 -4.66699 2.00098 -6v-4c0 -3.33301 -2.83301 -7.16602 -8.5 -11.499s-10.834 -8.5 -15.501 -12.5l4 -22c0 -0.666992 -1.33301 -1 -4 -1h-5
c-10.667 0 -21.667 3.66699 -33 11c-38 25.333 -60 38.666 -66 39.999l-142 -36c-25.333 0 -48.666 8.33301 -69.999 25c-25.333 7.33301 -51.5 17 -78.5 29s-51.167 27 -72.5 45c-7.33301 6 -12.333 12.667 -15 20s-4 11.666 -4 12.999c0 4 1.33301 8.33301 4 13
s4 8.66699 4 12c0 5.33301 -2.33301 10.666 -7 15.999s-7 10.666 -7 15.999c0 20 24.667 68.333 74 145c0 14 -5.33301 27.333 -16 40c-24.667 30.667 -37 58.667 -37 84c0 9.33301 5.66699 20.833 17 34.5s25.5 28.167 42.5 43.5s35.833 31.333 56.5 48l59 48
c4 -1.33301 6.66699 -2 8 -2c4.66699 0 12.334 2 23.001 6s17.667 6 21 6c8.66699 0 15 -6.33301 19 -19zM281.997 580.007l-7.99902 -0.000976562c-7.33301 -4 -10.333 -8.66699 -9 -14c3.33301 -15.333 10.666 -20.333 21.999 -15c4.66699 0.666992 7 6.33398 7 17.001
c0 8 -4 12 -12 12zM265.998 280.006l-14.999 19c-6.66699 0 -11.834 -4.16699 -15.501 -12.5s-5.5 -14.833 -5.5 -19.5c0 -8 4.33301 -11.667 13 -11c16.667 2 25 8 25 18c0 1.33301 -0.666992 3.33301 -2 6z" />
    <glyph glyph-name="FLW39" unicode="'" horiz-adv-x="304" 
d="M190 715c0 -4 1.00098 -9.99805 3.00098 -17.998s3 -14 3 -18c0 -7.33301 -2.66699 -13.666 -8 -18.999c2.66699 -2.66699 7.33398 -4 14.001 -4s13.667 1 21 3l11 3l8 -2c26.667 -8.66699 40 -17.667 40 -27v-5l-80 -42c-4 -2 -8.5 -6.83301 -13.5 -14.5
s-9.66699 -16 -14 -25s-8 -17.667 -11 -26s-4.5 -14.833 -4.5 -19.5c0 -26.667 18.333 -48.334 55 -65.001c-1.33301 0 1.66699 -1.5 9 -4.5l24.5 -10.5c9 -4 17.333 -8.33301 25 -13s11.5 -8.66699 11.5 -12c0 -2 -3.33301 -3 -10 -3c-8 0 -19.333 1 -34 3
c-2.66699 -2.66699 -4 -5 -4 -7c0 -7.33301 6.66699 -11 20 -11h16c4 0 6 -3.33301 6 -10c0 -6 -3.33301 -10.167 -10 -12.5s-10 -6.5 -10 -12.5c0 -2.66699 0.333008 -4.33398 1 -5.00098v-2c0 -8 -4.66699 -12 -14 -12h-13c-10.667 0 -17.667 -2.83301 -21 -8.5
s-6.5 -11.667 -9.5 -18s-7.16699 -12.333 -12.5 -18s-15 -8.5 -29 -8.5c-17.333 0 -31.333 6 -42 18s-16 27.333 -16 46c0 2 -4.33301 9.33301 -13 22l-28 42l-28 43.5c-8.66699 13.667 -13 22.5 -13 26.5c0 8 1.33301 19.833 4 35.5s4 27.5 4 35.5
c0 13.333 5.66699 26.666 17 39.999l39 44c1.33301 1.33301 5.16602 7.33301 11.499 18l20 35l19.5 34c6 10 9.66699 15 11 15c3.33301 0 8 0.5 14 1.5s10.667 1.5 14 1.5c7.33301 0 12.666 -4.66699 15.999 -14z" />
    <glyph glyph-name="parenleft" unicode="(" horiz-adv-x="420" 
d="M364 624c-2 2 -6.16992 -0.999023 -12.5029 -8.99902s-13 -17 -20 -27s-13.167 -19.5 -18.5 -28.5s-7.66602 -13.5 -6.99902 -13.5c3.33301 0 8.16602 2.5 14.499 7.5s10.5 7.5 12.5 7.5l11 12c2.66699 2.66699 5.33398 4 8.00098 4
c6.66699 0 8.16699 -4.83301 4.5 -14.5s-9.16699 -20.834 -16.5 -33.501s-15.166 -25.167 -23.499 -37.5s-13.833 -21.5 -16.5 -27.5c-16.667 -32 -28.834 -60.5 -36.501 -85.5s-11.5 -45.5 -11.5 -61.5c0 -12.667 3.33301 -27.5 10 -44.5s14.834 -34.333 24.501 -52
s20 -34.5 31 -50.5l28.5 -40c2 -2.66699 6.33301 -7.83398 13 -15.501s12.5 -15.667 17.5 -24s7.5 -15.833 7.5 -22.5s-5.33301 -10 -16 -10c-3.33301 0 -6.83301 0.166992 -10.5 0.5s-6.83398 0.5 -9.50098 0.5c-7.33301 0 -12.666 -2.66699 -15.999 -8
c-62 0 -121 30 -177 90c-44 46.667 -79.667 104.667 -107 174c0 0.666992 -1.5 3.33398 -4.5 8.00098l-9.5 15.5l-9.5 16.5c-3 5.33301 -4.5 9.33301 -4.5 12s0.666992 6 2 10c48 114.667 111.333 197.334 190 248.001c6.66699 0 16.667 2.16699 30 6.5
s29.666 10.166 48.999 17.499c9.33301 0 18.333 -3.33301 27 -10c5.33301 0 11.833 2 19.5 6s15.334 8.5 23.001 13.5l21.5 13.5c6.66699 4 11.334 6 14.001 6s4 -2 4 -6c0 -10.667 -12 -26.667 -36 -48z" />
    <glyph glyph-name="FLW41" unicode=")" horiz-adv-x="394" 
d="M189 679c38.667 -20.667 72.998 -52.667 102.998 -96c30.667 -46 54.667 -89 72 -129c6.66699 -17.333 10 -33 10 -47c0 -7.33301 -0.333008 -15 -1 -23s-1.66699 -16.667 -3 -26c0 -26 -14 -63.667 -42 -113l-40 -70c-9.33301 -16.667 -25.833 -32.334 -49.5 -47.001
s-48.5 -22 -74.5 -22h-7c4.66699 0 -3.66602 -2 -24.999 -6l-10.5 -2c-3.66699 -0.666992 -6.83398 -1.33398 -9.50098 -2.00098l-9 -2c-7.33301 -1.33301 -13.166 -2.66602 -17.499 -3.99902s-8.16602 -5 -11.499 -11h-23c-15.333 0 -25.666 4.66699 -30.999 14
c60 62.667 113.333 142.667 160 240c0 3.33301 1.5 9 4.5 17s4.5 14.333 4.5 19c0 2.66699 -0.666992 6.33398 -2 11.001s-2 8.33398 -2 11.001c0 5.33301 -1 10.666 -3 15.999l-39 79.5l-57 110.5l-57 99c4 4 10.333 6 19 6c3.33301 0 7 -0.166992 11 -0.5s8 -0.5 12 -0.5
v0c5.33301 0 10.833 1.33301 16.5 4s10.5 4 14.5 4c5.33301 0 12.166 -1.5 20.499 -4.5s16.833 -6.5 25.5 -10.5s16.667 -7.5 24 -10.5s13 -4.5 17 -4.5z" />
    <glyph glyph-name="FLW42" unicode="*" horiz-adv-x="406" 
d="M277 693l0.00195312 -3.99902c0 -7.33301 2.33301 -12.166 7 -14.499s10 -3.5 16 -3.5c8 0 15 1.16699 21 3.5s7.33301 3.5 4 3.5c2 0 5.33301 -2.16699 10 -6.5s9.33398 -9.5 14.001 -15.5s8.66699 -12.5 12 -19.5s5 -12.833 5 -17.5c0 -8 0.833008 -13.667 2.5 -17
s3.66699 -6 6 -8s4.66602 -3.83301 6.99902 -5.5s3.83301 -4.5 4.5 -8.5c0 -9.33301 -2.66699 -19 -8 -29s-11.333 -19.167 -18 -27.5s-12.667 -15.5 -18 -21.5l-8 -9v-2c0 -0.666992 3.83301 -3.83398 11.5 -9.50098s11.5 -11.167 11.5 -16.5
c0 -3.33301 -0.333008 -5.33301 -1 -6l-45 -6c-4.66699 -0.666992 -9.16699 -2.66699 -13.5 -6l-14 -10.5c-5 -3.66699 -10 -7 -15 -10s-10.5 -4.5 -16.5 -4.5c-3.33301 0 -7.83301 0.5 -13.5 1.5s-10.167 1.5 -13.5 1.5c-2 0 -5.83301 -1.16699 -11.5 -3.5l-18 -7.5
l-18 -7.5c-5.66699 -2.33301 -9.5 -3.5 -11.5 -3.5c-8.66699 0 -15.834 1.5 -21.501 4.5s-11 6.5 -16 10.5s-10 7.66699 -15 11s-11.5 5.33301 -19.5 6l-50 26c-1.33301 1.33301 -2 3.66602 -2 6.99902c0 4.66699 3.33301 12.667 10 24l6 12c2 2.66699 3 5 3 7
c0 4 -2.16699 7.33301 -6.5 10l-14 8.5c-5 3 -9.66699 6.33301 -14 10s-6.5 8.83398 -6.5 15.501l16 77c10 7.33301 17.167 13.5 21.5 18.5l11 12.5c3 3.33301 6.5 5.66602 10.5 6.99902s10.667 2 20 2c6.66699 0 11 3.33301 13 10v11c0 6 3.83301 11.167 11.5 15.5
s17.167 8 28.5 11s23.666 5.33301 36.999 7s26 2.5 38 2.5c11.333 0 21.5 -3.5 30.5 -10.5s15.5 -15.5 19.5 -25.5z" />
    <glyph glyph-name="FLW44" unicode="," horiz-adv-x="332" 
d="M260 324c2 -1.33301 4.33203 -7.49902 6.99902 -18.499s6 -17.167 10 -18.5c2.66699 0 6.83398 3 12.501 9s9.83398 9 12.501 9c6.66699 0 10 -8.33301 10 -25c0 -6 -3.5 -18.167 -10.5 -36.5s-15.667 -38.333 -26 -60l-32.5 -65c-11.333 -21.667 -21 -39.167 -29 -52.5
c-6.66699 -12 -27.667 -18 -63 -18c-2.66699 0 -6.16699 -0.333008 -10.5 -1s-7.83301 -1 -10.5 -1c-2 0 -5.66699 0.833008 -11 2.5l-17 5.5l-16 5.5c-4.66699 1.66699 -7.66699 2.5 -9 2.5c-8.66699 0 -16.334 -4.33301 -23.001 -13c-22.667 0 -34 6.66699 -34 20
c0 7.33301 2.5 16.166 7.5 26.499l18.5 37.5l100 193h2c2 0 5.83301 -2.33301 11.5 -7s10.5 -7 14.5 -7h2l5 7c3.33301 4.66699 7.33301 9.66699 12 15s9.66699 10.333 15 15s10 7 14 7h6z" />
    <glyph glyph-name="hyphen" unicode="-" horiz-adv-x="422" 
d="M78 526l314.001 -18c4 0 6.66699 -2 8 -6s2 -8.66699 2 -14c0 -9.33301 -5 -22.333 -15 -39s-20.333 -29.667 -31 -39v-2c0 -2.66699 2.33301 -5 7 -7s7 -4.66699 7 -8s-2 -6.5 -6 -9.5l-12.5 -9c-4.33301 -3 -8.16602 -5.83301 -11.499 -8.5s-4.33301 -5 -3 -7
c0 -0.666992 1.33301 -2.66699 4 -6s4 -6.33301 4 -9c0 -12 -23 -18 -69 -18h-30c-22.667 0 -50.667 -3.33301 -84 -10s-66.333 -10 -99 -10c-10.667 0 -19.834 1.33301 -27.501 4s-12.834 7.33398 -15.501 14.001v2c0 3.33301 3.5 8.83301 10.5 16.5
s10.5 12.834 10.5 15.501c0 2 -0.666992 4.66699 -2 8s-2 6 -2 8c0 7.33301 2 11.833 6 13.5s8.33301 2.66699 13 3s9 1.16602 13 2.49902s6 5.66602 6 12.999c0 10.667 2.5 19.5 7.5 26.5s7.5 12.167 7.5 15.5c0 1.33301 -0.666992 4 -2 8l-6 38
c-0.666992 3.33301 -2.66699 7.83301 -6 13.5s-5 9.16699 -5 10.5c0 3.33301 2.33301 6 7 8z" />
    <glyph glyph-name="period" unicode="." horiz-adv-x="386" 
d="M198 326c2.66699 0 7 1.49902 13 4.49902s10.667 4.5 14 4.5c2.66699 0 7.66699 -3.5 15 -10.5s12.666 -10.5 15.999 -10.5c2.66699 0 5.66699 1.33301 9 4s6.33301 4 9 4l12 -3c7.33301 -2 11 -6.33301 11 -13v-5c0 -10.667 4.5 -17.667 13.5 -21
s13.5 -6.66602 13.5 -9.99902v-6c0 -9.33301 -2.16699 -17.666 -6.5 -24.999s-2.83301 -11 4.5 -11c1.33301 0 6 2.66699 14 8s13.667 8 17 8c8.66699 0 13 -6 13 -18c0 -14 -10.667 -31.667 -32 -53l-126 -123c-2.66699 -2 -8.66699 -3 -18 -3
c-6.66699 0 -14.167 2.33301 -22.5 7s-16.5 10.5 -24.5 17.5s-14.833 14.167 -20.5 21.5s-9.16699 14 -10.5 20c-1.33301 1.33301 -7 5.66602 -17 12.999s-20.5 15.5 -31.5 24.5s-21 18 -30 27s-13.5 15.833 -13.5 20.5c0 4 0.666992 7.33301 2 10l12 18l124 126
c5.33301 5.33301 11 8 17 8c8.66699 0 14.334 -3 17.001 -9s4.66699 -14.333 6 -25z" />
    <glyph glyph-name="slash" unicode="/" horiz-adv-x="567" 
d="M378 744c1.33301 -5.33301 1.99707 -9.66699 1.99707 -13l-3 -14.5c-1.33301 -6.33301 -3 -14.833 -5 -25.5l6 1c3.33301 1.33301 8 4.83301 14 10.5s12.333 12 19 19s13.334 13.167 20.001 18.5s12.334 8 17.001 8c-2.66699 -10.667 -4 -19 -4 -25
c0 -5.33301 2 -9 6 -11h2c2 0 5.66699 2.33301 11 7s9.33301 7 12 7h2c3.33301 0 8 0.666992 14 2s10.333 2 13 2c6.66699 0 10.334 -2.33301 11.001 -7s0 -10.334 -2 -17.001s-4.33301 -13.667 -7 -21s-4 -13.666 -4 -18.999l4 -2c1.33301 -0.666992 3.66602 0 6.99902 2
l11 6.5l11.5 6.5c3.66699 2 6.5 3 8.5 3s3 -1.33301 3 -4c0 -2 -1.5 -6.16699 -4.5 -12.5s-6.5 -13.333 -10.5 -21s-8.33301 -15.334 -13 -23.001s-9 -14.167 -13 -19.5l-20 -28c-18.667 -26 -35.667 -54.333 -51 -85s-29.5 -62.334 -42.5 -95.001
s-25.167 -65.5 -36.5 -98.5l-32 -95.5l-10 -20l-10 -20c-4 -7.33301 -8.83301 -15.166 -14.5 -23.499s-11.667 -15.833 -18 -22.5s-12.5 -12.167 -18.5 -16.5s-11 -6.5 -15 -6.5c-9.33301 0 -18.666 4.83301 -27.999 14.5s-18.666 17.834 -27.999 24.501
c-17.333 -17.333 -34 -28 -50 -32c-2 4 -3 8 -3 12c0 2.66699 0.833008 7.5 2.5 14.5s2.5 12.167 2.5 15.5c0 8 -5.33301 12 -16 12c-3.33301 0 -7.33301 3.16699 -12 9.5s-9 9.5 -13 9.5h-2c-1.33301 0 -4.66602 -2 -9.99902 -6l-18 -14l-21.5 -17.5
c-7.66699 -6.33301 -14.834 -11.5 -21.501 -15.5c0 4 4 14.667 12 32c4 9.33301 5.66699 16 5 20s-2.16699 7.16699 -4.5 9.5s-5 4.83301 -8 7.5s-4.5 7 -4.5 13c0 4 2 8 6 12l98 178c48 87.333 90.667 199 128 335c2 3.33301 4.66699 5 8 5c7.33301 0 17 -6.33301 29 -19
l12 -13c3.33301 -4 6.66602 -6 9.99902 -6h4c2 0 4.83301 3 8.5 9l12 20c4.33301 7.33301 8.83301 14 13.5 20s9 9 13 9c6 0 11.333 -2 16 -6z" />
    <glyph glyph-name="zero" unicode="0" horiz-adv-x="661" 
d="M308 698l41.999 2.00293c2.66699 0 6.33398 0.666992 11.001 2s10 2 16 2c4.66699 0 11.334 -1.33301 20.001 -4s17.334 -5.5 26.001 -8.5s16.667 -6 24 -9s11.666 -4.5 12.999 -4.5l33 -9c12 -3.33301 22.833 -8.66602 32.5 -15.999s18.167 -15.333 25.5 -24
s13.5 -17.334 18.5 -26.001s9.16699 -15.334 12.5 -20.001c17.333 -24.667 28.333 -45.667 33 -63c0.666992 -2.66699 2.5 -9 5.5 -19s6 -21.5 9 -34.5s5.66699 -26.667 8 -41s3.5 -27.5 3.5 -39.5c0 -32 -4 -65.333 -12 -100l-26 -44.5
c-6 -10.333 -9.33301 -15.833 -10 -16.5l-18.5 -29.5c-5 -8.33301 -10.833 -15.333 -17.5 -21s-14.667 -9.83398 -24 -12.501s-21.666 -4 -36.999 -4c-14 -12 -35.333 -27.333 -64 -46c-0.666992 0 -4 -0.666992 -10 -2l-21 -4.5c-8 -1.66699 -16.333 -3 -25 -4
s-16 -1.5 -22 -1.5h-21c-46 0 -83.667 9.66699 -113 29l-40 28c-14.667 10 -27.667 16 -39 18c-70.667 42.667 -106 110.667 -106 204c0 11.333 -5 27.333 -15 48c0 96.667 27.667 161 83 193c3.33301 10 11.666 20.833 24.999 32.5s28.166 22.167 44.499 31.5
s32.666 17.166 48.999 23.499s29.5 9.5 39.5 9.5c18.667 0 34.334 -6.33301 47.001 -19zM283.999 503.003l-10.5 -22.502l-13 -28l-13 -28l-10.5 -22.5c1.33301 -6.66699 5 -15.167 11 -25.5s13 -20.333 21 -30s16.5 -17.834 25.5 -24.501s17.167 -10 24.5 -10
c3.33301 0 10.5 2.83301 21.5 8.5s16.833 8.83398 17.5 9.50098c21.333 4.66699 36.166 18.334 44.499 41.001s11.5 50.334 9.5 83.001c-1.33301 17.333 -12.166 31 -32.499 41s-40.833 15 -61.5 15c-16 0 -27.333 -2.33301 -34 -7z" />
    <glyph glyph-name="one" unicode="1" horiz-adv-x="396" 
d="M342 723c1.33301 -1.33301 2 -3.00391 2 -5.00391s-0.666992 -5 -2 -9s-2 -7 -2 -9c0 -6 5.16699 -11.667 15.5 -17s17.166 -11.666 20.499 -18.999c0 -29.333 -2 -61.333 -6 -96c-10 -89.333 -15 -144 -15 -164v-28v-35c-0.666992 -10.667 -1 -20 -1 -28v-20l-1 -111
c-5.33301 -4.66699 -12.333 -7 -21 -7c-5.33301 0 -15.333 1 -30 3c-11.333 0 -19.5 -6.66699 -24.5 -20s-7.5 -25.666 -7.5 -36.999c0 -2 0.166992 -6.16699 0.5 -12.5s0.5 -10.833 0.5 -13.5c0 -20.667 -8.33301 -31 -25 -31c-2 0.666992 -6 5.66699 -12 15s-12 14 -18 14
h-3c-4.66699 0 -9.33398 2.83301 -14.001 8.5s-9 12 -13 19l-11 19c-3.33301 5.66699 -6.33301 8.5 -9 8.5c-4.66699 0 -9.16699 -3.5 -13.5 -10.5s-10.166 -10.5 -17.499 -10.5c-4 0 -8.33301 1.33301 -13 4l-6 13c-1.33301 4 -2 8.66699 -2 14v32
c0 24.667 -5.33301 42 -16 52l-3 162c0 5.33301 0.166992 11.333 0.5 18s0.833008 13.334 1.5 20.001l7 65c2.66699 22 -6 33 -26 33c-2 0 -5.33301 -0.333008 -10 -1s-8 -1 -10 -1c-14.667 0 -22 7.33301 -22 22c0 4 -2.66699 9.16699 -8 15.5s-8 11.5 -8 15.5v2l198 89
c6.66699 2.66699 16.834 9.33398 30.501 20.001l39.5 31h2c6 0 10 -1.33301 12 -4s3.16699 -5.66699 3.5 -9s0.5 -6.33301 0.5 -9s1.33301 -4 4 -4c5.33301 0 16 5.33301 32 16z" />
    <glyph glyph-name="two" unicode="2" horiz-adv-x="600" 
d="M326 710c30 -4 54.6689 -18.665 74.002 -43.998c2 -2 5.16699 -9.83301 9.5 -23.5s8.5 -28.5 12.5 -44.5s7.5 -31 10.5 -45s4.5 -22.333 4.5 -25v-12c0 -26.667 -6 -53.334 -18 -80.001s-26 -54 -42 -82l-39 -68c-0.666992 -0.666992 -1 -2 -1 -4
c0 -4 3.33301 -7.33301 10 -10l225 6c6.66699 0 9 -1.5 7 -4.5s-5.83301 -6.83301 -11.5 -11.5s-12 -9 -19 -13s-11.833 -7 -14.5 -9c2.66699 -7.33301 3.33398 -13.166 2.00098 -17.499s-3.33301 -8.5 -6 -12.5s-5.16699 -8.66699 -7.5 -14s-3.5 -12.333 -3.5 -21
c0 -4 -3.5 -7.33301 -10.5 -10s-14.667 -5 -23 -7s-16 -4 -23 -6s-10.5 -4 -10.5 -6s4.66699 -5.66699 14 -11c6 -3.33301 7.5 -6.5 4.5 -9.5s-7.33301 -6 -13 -9s-11.5 -6.33301 -17.5 -10s-9 -7.5 -9 -11.5c0 -13.333 -23 -20 -69 -20
c-9.33301 0 -23.333 0.166992 -42 0.5s-42.334 0.833008 -71.001 1.5l-85 2c-8 0 -38.667 -1 -92 -3c-18.667 -0.666992 -28 6.66602 -28 21.999c0 4 -8 11.333 -24 22l144 240c3.33301 5.33301 -1.66699 10.666 -15 15.999c-32 13.333 -50.333 33 -55 59
c-34.667 24 -52 66.667 -52 128c0 -0.666992 0.5 5 1.5 17s2.16699 30.333 3.5 55c3.33301 3.33301 7.66602 4.5 12.999 3.5s10 -1.5 14 -1.5c3.33301 0 10.666 5.16699 21.999 15.5l37.5 34c13.667 12.333 27 23.666 40 33.999s23.167 15.5 30.5 15.5
c6.66699 0 16 -1.66699 28 -5l78 -23c4.66699 -1.33301 10 -0.666016 16 2.00098zM194.002 530.002c0 -3.33301 -1 -8.66797 -3 -16.001s-3 -12.666 -3 -15.999c0 -7.33301 3.33301 -13.833 10 -19.5s13.667 -8.5 21 -8.5c4.66699 0 9.16699 2.33301 13.5 7
s8.16602 10 11.499 16s5.83301 11.833 7.5 17.5s2.5 9.16699 2.5 10.5c0 11.333 -12.667 17 -38 17c-9.33301 0 -16.666 -2.66699 -21.999 -8z" />
    <glyph glyph-name="three" unicode="3" horiz-adv-x="427" 
d="M279 690c53.333 -20.667 89.668 -44.667 109.001 -72c11.333 -17.333 17 -40.666 17 -69.999c0 -48 -19.667 -95.333 -59 -142c0 -4.66699 4.16699 -11 12.5 -19s12.5 -13 12.5 -15c12.667 -11.333 21.834 -24.833 27.501 -40.5s8.5 -31.834 8.5 -48.501
c0 -18 -2.66699 -36.5 -8 -55.5s-12 -37.833 -20 -56.5c0 -26.667 -18.667 -47 -56 -61l-36 -14c-20.667 -8 -47 -12 -79 -12c-30 0 -53 9.33301 -69 28c-19.333 2 -33.333 5 -42 9c-2 0.666992 -6.33301 3.66699 -13 9s-13.5 11.166 -20.5 17.499
s-13.167 12.833 -18.5 19.5s-8 12.334 -8 17.001c0 4 4 6 12 6c3.33301 0 7.5 -0.333008 12.5 -1s10.167 -1.66699 15.5 -3l53 12c32.667 6.66699 49 23.667 49 51c0 2.66699 -5.66699 25 -17 67l-9.5 5l-22 12c-8.33301 4.66699 -16.166 9.66699 -23.499 15s-12 10 -14 14
c-32.667 0 -53.334 6 -62.001 18v3c0 8.66699 6 13 18 13h14c-3.33301 0 -1.66602 1.5 5.00098 4.5s14.5 6 23.5 9l25 8.5c7.66699 2.66699 10.5 3.33398 8.5 2.00098c45.333 20 68 40.667 68 62c0 12.667 -6.66699 29.667 -20 51c-18 27.333 -38 41 -60 41
c-4.66699 0 -11.334 0.666992 -20.001 2s-15.334 2 -20.001 2c-6.66699 0 -12.5 -2.33301 -17.5 -7s-10.833 -7 -17.5 -7c-11.333 0 -17 2.66699 -17 8c0 2 4.5 9.83301 13.5 23.5s20.667 28.5 35 44.5s30.666 31.167 48.999 45.5s36.5 23.166 54.5 26.499l23.5 -3
c10.333 -1.33301 21 -3 32 -5s21.167 -4.16699 30.5 -6.5s16 -4.83301 20 -7.5z" />
    <glyph glyph-name="four" unicode="4" horiz-adv-x="599" 
d="M544 736l-6.00684 -55.9932l-40 -160c-0.666992 -2 -2.5 -7 -5.5 -15s-6.16699 -17 -9.5 -27l-9.5 -29.5c-3 -9.66699 -4.5 -16.5 -4.5 -20.5c0 -4.66699 -0.5 -11.334 -1.5 -20.001s-1.5 -15.334 -1.5 -20.001c0 -25.333 14.667 -38 44 -38c2.66699 0 7 0.666992 13 2
s12 2.5 18 3.5s11.333 1.5 16 1.5s7 -1 7 -3c0 -2.66699 -2.33301 -6.83398 -7 -12.501s-7 -9.16699 -7 -10.5c0 -4.66699 2.83301 -6.66699 8.5 -6s9.83398 1 12.501 1c8 0 10.333 -2.5 7 -7.5s-7.83301 -10.5 -13.5 -16.5s-10 -11.5 -13 -16.5s-0.5 -7.5 7.5 -7.5h9
c0 -8 -3 -16.167 -9 -24.5s-12.833 -16 -20.5 -23l-20.5 -19c-6 -5.66699 -9 -10.5 -9 -14.5c0 -3.33301 2 -5.83301 6 -7.5s8.16699 -3.16699 12.5 -4.5s8 -3 11 -5s3.5 -4.66699 1.5 -8c-1.33301 -2 -8.33301 -3 -21 -3h-19c-12 0 -20 -3.66699 -24 -11v-18
c0 -18 3.33301 -29.333 10 -34v-2c0 -5.33301 -3.66699 -8 -11 -8s-14.333 6 -21 18c-4.66699 6 -8.5 9.33301 -11.5 10s-5.83301 0.166992 -8.5 -1.5s-5.16699 -3.5 -7.5 -5.5s-5.16602 -3 -8.49902 -3c-1.33301 0 -4.66602 0.666992 -9.99902 2
c-5.33301 5.33301 -9.66602 7.66602 -12.999 6.99902s-7 -2.33398 -11 -5.00098l-14 -9c-5.33301 -3.33301 -13 -5 -23 -5h-21l-23 -2c-5.33301 -0.666992 -13.666 0.666016 -24.999 3.99902l-7 4c-1.33301 1.33301 -2 4 -2 8v10l1 28
c0.666992 12 -3.66602 20.167 -12.999 24.5s-20.666 6.5 -33.999 6.5c-15.333 0 -31.333 -1.33301 -48 -4s-31.667 -4 -45 -4c-26 0 -44 2.33301 -54 7l-8 14l-18 31l-19 32c-6 10 -9.66699 15.667 -11 17c0 17.333 6.5 32 19.5 44s26.5 22.667 40.5 32
c22.667 14.667 41.834 31 57.501 49s27.167 39 34.5 63l62 66.5l74 83.5l80 92c0 0.666992 2.83301 6.16699 8.5 16.5s10.834 15.5 15.501 15.5c3.33301 0 7 -3.16699 11 -9.5l11 -17.5h2c2 0 5 1.5 9 4.5s8 6.33301 12 10l10.5 10l4.5 4.5c4 0 8 -3.66699 12 -11v-2
c0 -1.33301 -2 -7.33301 -6 -18l-11.5 -29.5c-3.66699 -9 -5.83398 -14.167 -6.50098 -15.5c0 -10 8 -17 24 -21c5.33301 7.33301 12.666 21.166 21.999 41.499l28 59.5h2c5.33301 0 8 -4 8 -12zM253.993 396.007c-6.66699 -5.33301 -15 -13.167 -25 -23.5
s-15 -16.833 -15 -19.5c0 -5.33301 6 -8 18 -8h10c16 0 24 8.33301 24 25v14c0 8 -4 12 -12 12z" />
    <glyph glyph-name="five" unicode="5" horiz-adv-x="506" 
d="M486 717c-0.666992 -4.66699 -5.5 -11.001 -14.5 -19.001s-13.5 -14.333 -13.5 -19v-2c0 -4.66699 -7 -13.334 -21 -26.001l-16 -14l-9 -9l6 -6h5c3.33301 0 13 2 29 6c8 0 12 -1.33301 12 -4c0 -2 -5.33301 -7 -16 -15s-23.667 -16.667 -39 -26s-31.166 -18 -47.499 -26
s-30.166 -13 -41.499 -15l-60 -12c-4 -1.33301 -7 -3.66602 -9 -6.99902s-3 -5.66602 -3 -6.99902c0 -4 2.83301 -7.83301 8.5 -11.5s12.334 -7.33398 20.001 -11.001l24 -11.5c8.33301 -4 15.166 -8.66699 20.499 -14l31 -30c28.667 -27.333 51.667 -44.666 69 -51.999
c9.33301 -22.667 14 -44 14 -64c0 -42 -18 -86.667 -54 -134c-40.667 -52 -90.334 -87.333 -149.001 -106c-22.667 0 -45.167 3.33301 -67.5 10s-42.833 16 -61.5 28s-35.167 26.333 -49.5 43s-25.5 35.667 -33.5 57c0 9.33301 3.66699 15.333 11 18s16 4 26 4
c7.33301 0 14.666 -0.333008 21.999 -1s14 -1 20 -1h15c1.33301 0 4.33301 -1.33301 9 -4l16.5 -9c6.33301 -3.33301 12.333 -6.33301 18 -9s10.167 -4 13.5 -4c15.333 0 23 19.333 23 58c0 25.333 -6.33301 51 -19 77c-26.667 20.667 -54.334 32.334 -83.001 35.001
c-10 -8 -24 -13.333 -42 -16c0 23.333 1 53.666 3 90.999c3.33301 52.667 5.33301 83 6 91c0.666992 12.667 1 23.167 1 31.5v19.5v13c0 26.667 -2 53 -6 79c10.667 6 23.334 9 38.001 9c-1.33301 0 3 -0.5 13 -1.5s26.333 -2.83301 49 -5.5c2.66699 -0.666992 5 -1 7 -1h4
c4.66699 0 9.66699 0.666992 15 2l170 4c6.66699 0 16.667 1 30 3l41.5 6l39.5 5.5c12 1.66699 20.333 2.5 25 2.5z" />
    <glyph glyph-name="six" unicode="6" horiz-adv-x="565" 
d="M545 348c0 1.33301 -2.99609 -26.666 -8.99609 -83.999c-2.66699 -26.667 -13.5 -51 -32.5 -73s-42.833 -41.333 -71.5 -58c-0.666992 -2 -5.83398 -4.83301 -15.501 -8.5s-20.167 -7.33398 -31.5 -11.001s-22 -6.83398 -32 -9.50098s-15.333 -4 -16 -4
c-4.66699 0 -11.334 1.66699 -20.001 5s-17.334 5 -26.001 5h-22c-9.33301 0 -16 0.666992 -20 2l-94 23c-12.667 3.33301 -29.334 14.333 -50.001 33c-13.333 2.66699 -24 9 -32 19s-14.833 22.333 -20.5 37s-10.834 30.834 -15.501 48.501s-10.334 35.5 -17.001 53.5
c0 23.333 13.333 66.666 40 129.999l-9 32c6.66699 20 21.667 42.667 45 68l101 111c0.666992 0.666992 3.5 3.33398 8.5 8.00098s10.333 9.16699 16 13.5s10.667 7.66602 15 9.99902s6.5 1.83301 6.5 -1.5v-7c0 -2.66699 1.33301 -5 4 -7
c8.66699 2.66699 29.334 14 62.001 34c7.33301 4 16.666 7.66699 27.999 11l4 -6c0.666992 -1.33301 -1.16602 -5.83301 -5.49902 -13.5s-6.5 -11.834 -6.5 -12.501c0 -4 2 -6.33301 6 -7c8.66699 2.66699 19 5.66699 31 9l43 12c1.33301 -1.33301 2.83301 -5.5 4.5 -12.5
s4.16699 -10.5 7.5 -10.5s8.5 1.16699 15.5 3.5s11.5 3.5 13.5 3.5c5.33301 0 8 -1.33301 8 -4s-2.16699 -7.33398 -6.5 -14.001s-6.5 -12 -6.5 -16c0 -7.33301 4 -11 12 -11c4 0 7.83301 1 11.5 3s7.33398 3.83301 11.001 5.5s6.83398 2.16699 9.50098 1.5
s4.66699 -4 6 -10l-3 -10l-121 -92c0 -7.33301 3.33301 -13 10 -17c25.333 -4 48.166 -12.667 68.499 -26s37.5 -28.666 51.5 -45.999s24.833 -35.666 32.5 -54.999s11.5 -37.666 11.5 -54.999zM333.004 280.001c4 10.667 6 21.3311 6 31.998c0 5.33301 -2 13 -6 23
s-9 20 -15 30s-12.5 18.667 -19.5 26s-13.5 11 -19.5 11c-11.333 0 -23.5 -2.33301 -36.5 -7s-25 -10.667 -36 -18s-20 -15.666 -27 -24.999s-10.5 -18.666 -10.5 -27.999c0 -14 6.5 -28.333 19.5 -43s27.167 -22 42.5 -22c4 0 10.333 0.333008 19 1s15 1 19 1
c32 0 53.333 6.33301 64 19z" />
    <glyph glyph-name="seven" unicode="7" horiz-adv-x="574" 
d="M341 662l172.001 0.00488281c12.667 6.66699 21 10 25 10c10.667 0 16 -8.33301 16 -25c0 -8 -1.5 -16 -4.5 -24s-6.5 -15.833 -10.5 -23.5s-7.5 -15 -10.5 -22s-4.5 -13.167 -4.5 -18.5c0 -2.66699 0.166992 -6.83398 0.5 -12.501s0.5 -9.83398 0.5 -12.501v-10
c0 -5.33301 -2.5 -13.833 -7.5 -25.5s-9.5 -24.167 -13.5 -37.5l-49 -162l-10.5 -33.5c-3 -9.66699 -5.83301 -17.5 -8.5 -23.5c-6 -2 -10 -5.33301 -12 -10s-3 -9.66699 -3 -15s0.5 -10.833 1.5 -16.5s1.5 -11.167 1.5 -16.5c0 -1.33301 -3.5 -6 -10.5 -14
s-15 -16.667 -24 -26s-17.667 -17.666 -26 -24.999s-13.833 -11 -16.5 -11h-4c3.33301 0 2.83301 2.16699 -1.5 6.5s-8.16602 7.16602 -11.499 8.49902l-20 7c-0.666992 0.666992 -2 1 -4 1c-2.66699 0 -6.33398 -2.5 -11.001 -7.5s-7.66699 -7.5 -9 -7.5l-11.5 5
c-7.66699 3.33301 -14.167 5 -19.5 5h-17c-8 0 -14 2.5 -18 7.5s-7 11.167 -9 18.5s-3.33301 15.166 -4 23.499s-1.66699 15.833 -3 22.5c6.66699 25.333 13.667 48.666 21 69.999s14.333 40.666 21 57.999c17.333 40 34.333 82 51 126c0 8 -4.33301 12 -13 12
c-64 -12 -142.667 -18 -236 -18c-18.667 4 -28 10 -28 18c0.666992 2 4.5 5.33301 11.5 10s14.833 9.5 23.5 14.5s16.5 9.83301 23.5 14.5s10.5 8 10.5 10c-1.33301 4.66699 -1.16602 10.5 0.500977 17.5s4.66699 13.667 9 20s9.33301 11.833 15 16.5s11.834 7 18.501 7h6
l4 2c2 0.666992 0.833008 1.83398 -3.5 3.50098s-7.5 2.5 -9.5 2.5c0.666992 -4.66699 -5.5 -5.33398 -18.5 -2.00098s-26.333 8 -40 14s-25 11.833 -34 17.5s-9.16699 8.5 -0.5 8.5c3.33301 0 8.66602 -0.666992 15.999 -2s12.666 -2 15.999 -2
c9.33301 0 14.166 1.33301 14.499 4s-1 6 -4 10s-6.66699 8.33301 -11 13s-6.5 9.66699 -6.5 15c0 14.667 4.33301 22 13 22c70 -12 159 -18 267 -18z" />
    <glyph glyph-name="eight" unicode="8" horiz-adv-x="514" 
d="M370 706c3.33301 0 7.49707 3.83496 12.4971 11.502s8.5 11.5 10.5 11.5c6 0 11.333 -2.33301 16 -7s9.33398 -10.5 14.001 -17.5l15.5 -22.5c5.66699 -8 12.167 -15.333 19.5 -22c14.667 -13.333 23.667 -27 27 -41s5 -33.333 5 -58
c0 -51.333 -12.667 -94.666 -38 -129.999v-8c0 -6.66699 2.66699 -13.667 8 -21c22.667 -26.667 34 -58.334 34 -95.001c0 -48.667 -22 -99.667 -66 -153c-42 -38 -66 -58.667 -72 -62c-17.333 -10 -34.333 -15 -51 -15c-24 0 -57 9 -99 27
c-22 9.33301 -43.833 20.166 -65.5 32.499s-43.167 26.166 -64.5 41.499c-6 4.66699 -12.333 13.167 -19 25.5s-12.667 25.833 -18 40.5s-9.83301 29.167 -13.5 43.5s-5.5 25.833 -5.5 34.5c0 38 14 83.333 42 136c0 5.33301 -1.33301 12.833 -4 22.5s-5.66699 19.5 -9 29.5
l-9 27c-2.66699 8 -4 12.333 -4 13c0 4 -0.333008 10 -1 18s-1 14 -1 18c0 28.667 21 62.334 63 101.001h3c2.66699 0 6.66699 -0.833008 12 -2.5s9.33301 -2.5 12 -2.5c6 0 9 5.33301 9 16c0 9.33301 5 17.166 15 23.499s22.333 11.5 37 15.5s30.334 6.83301 47.001 8.5
s31.334 2.5 44.001 2.5c40.667 0 72 -14 94 -42zM285.997 520.002l-21 33.999c-0.666992 0.666992 -2.16699 1.16699 -4.5 1.5s-3.83301 0.5 -4.5 0.5c-3.33301 0 -9.83301 -3.33301 -19.5 -10s-16.834 -10.667 -21.501 -12c0.666992 -1.33301 2.83398 -4.5 6.50098 -9.5
s7.66699 -10 12 -15s9 -9.5 14 -13.5s9.5 -6 13.5 -6c1.33301 0 6.33301 2.33301 15 7s13 10.334 13 17.001c0 2 -1 4 -3 6zM222.997 354.001c-8.66699 -25.333 -12.999 -41.999 -12.999 -49.999c0 -21.333 12.667 -32 38 -32c34.667 0 52 10.667 52 32
c0 5.33301 -1.33301 11.333 -4 18s-6.33398 13.167 -11.001 19.5s-10 11.666 -16 15.999s-12.333 6.5 -19 6.5c-11.333 0 -20.333 -3.33301 -27 -10z" />
    <glyph glyph-name="nine" unicode="9" horiz-adv-x="597" 
d="M340 725l24.998 5.00391c6.66699 1.33301 16.167 -0.833984 28.5 -6.50098s25 -12.334 38 -20.001l35 -21c10.333 -6.33301 17.166 -9.5 20.499 -9.5l27.5 -33c11 -13.333 22.5 -29.333 34.5 -48c10 -15.333 17.167 -31.5 21.5 -48.5s6.5 -33.5 6.5 -49.5
c0 -32 -7.66699 -62.167 -23 -90.5s-33 -58.833 -53 -91.5c0 -9.33301 -8.33301 -25.5 -25 -48.5s-36.5 -46.5 -59.5 -70.5s-46.833 -45.167 -71.5 -63.5s-45.334 -27.5 -62.001 -27.5c1.33301 -1.33301 -2.83398 -0.666016 -12.501 2.00098s-19.167 4 -28.5 4h-11
c-4 0 -9 -1 -15 -3s-11.667 -3.66699 -17 -5s-9.83301 -2.16602 -13.5 -2.49902s-5.5 1.16699 -5.5 4.5c0 1.33301 1 3.66602 3 6.99902s3 7.33301 3 12c0 3.33301 -4.66699 7.16602 -14 11.499s-19.666 8.5 -30.999 12.5s-22 7.5 -32 10.5s-16 4.5 -18 4.5
c-6 0 -13.833 -1.5 -23.5 -4.5s-16.5 -4.5 -20.5 -4.5c-5.33301 0 -10.666 1.66699 -15.999 5l2 7c1.33301 5.33301 17.333 19 48 41c2 1.33301 8.66699 5.16602 20 11.499s23.5 14.333 36.5 24s19.5 16.834 19.5 21.501c0 2 -4.16699 6.16699 -12.5 12.5l-29 22l-33.5 26
c-11.333 9 -19.666 17.5 -24.999 25.5c-18.667 25.333 -30 68.666 -34 129.999l-2 30c-1.33301 17.333 4.33398 32.333 17.001 45c-3.33301 10 -5 18.667 -5 26c0 23.333 22 58.666 66 105.999c30.667 32.667 79.334 49 146.001 49c11.333 0 25 -0.666992 41 -2
s34 -3.33301 54 -6zM314.998 574.004c-19.333 -6.66699 -33.3301 -11.668 -41.9971 -15.001c-32.667 -16 -49 -32 -49 -48c0 -7.33301 2.33301 -16 7 -26s10.667 -19.5 18 -28.5s15.166 -16.667 23.499 -23s16.166 -9.5 23.499 -9.5c6 0 10.667 1.66699 14 5h4
c15.333 0 29.333 7.83301 42 23.5s19 31.5 19 47.5c0 8 -3.33301 15.333 -10 22l-26 28c-4 4.66699 -7.83301 9.83398 -11.5 15.501s-7.83398 8.5 -12.501 8.5z" />
    <glyph glyph-name="FLW58" unicode=":" horiz-adv-x="386" 
d="M182 747c-2 -8 -2.99707 -14.001 -2.99707 -18.001c0 -6.66699 4.5 -8 13.5 -4s18.667 9 29 15s20 10.667 29 14s13.5 1 13.5 -7v-14c0 -5.33301 3.66699 -9.33301 11 -12s11 -7 11 -13c-9.33301 -9.33301 -14 -21.333 -14 -36c0 -11.333 3.33301 -21.166 10 -29.499
s15.667 -12.5 27 -12.5c1.33301 0 4.33301 1.5 9 4.5s10 4.5 16 4.5h2c2.66699 0 4.66699 -1.66699 6 -5s2 -6 2 -8c0 -10.667 -6.33301 -23.667 -19 -39s-27.334 -30.333 -44.001 -45s-33.334 -28 -50.001 -40s-29 -20.333 -37 -25c6 0 4.33301 2.83301 -5 8.5
s-20.5 11.834 -33.5 18.501s-24.833 12.167 -35.5 16.5s-14.334 5.5 -11.001 3.5c-59.333 37.333 -89 69.666 -89 96.999c0 3.33301 7.16699 12.333 21.5 27s30.5 30.167 48.5 46.5s35 31 51 44s25.667 19.5 29 19.5c4 0 8 -3.66699 12 -11zM198.003 364.999
c2.66699 0 7 1.49902 13 4.49902s10.667 4.5 14 4.5c2.66699 0 7.66699 -3.5 15 -10.5s12.666 -10.5 15.999 -10.5c2.66699 0 5.66699 1.33301 9 4s6.33301 4 9 4l12 -3c7.33301 -2 11 -6.33301 11 -13v-5c0 -10.667 4.5 -17.667 13.5 -21s13.5 -6.66602 13.5 -9.99902v-6
c0 -9.33301 -2.16699 -17.666 -6.5 -24.999s-2.83301 -11 4.5 -11c1.33301 0 6 2.66699 14 8s13.667 8 17 8c8.66699 0 13 -6 13 -18c0 -14 -10.667 -31.667 -32 -53l-126 -123c-2.66699 -2 -8.66699 -3 -18 -3c-6.66699 0 -14.167 2.33301 -22.5 7s-16.5 10.5 -24.5 17.5
s-14.833 14.167 -20.5 21.5s-9.16699 14 -10.5 20c-1.33301 1.33301 -7 5.66602 -17 12.999s-20.5 15.5 -31.5 24.5s-21 18 -30 27s-13.5 15.833 -13.5 20.5c0 4 0.666992 7.33301 2 10l12 18l124 126c5.33301 5.33301 11 8 17 8c8.66699 0 14.334 -2.83301 17.001 -8.5
s4.66699 -14.167 6 -25.5z" />
    <glyph glyph-name="FLW59" unicode=";" horiz-adv-x="337" 
d="M212 723c0 -0.666992 -0.994141 -3 -2.99414 -7s-3.83301 -8.33301 -5.5 -13s-2.83398 -8.83398 -3.50098 -12.501s0 -5.5 2 -5.5s5 1 9 3s7 3 9 3c5.33301 0 11.333 -9.33301 18 -28h2c4 0 8.83301 2.5 14.5 7.5s9.5 7.5 11.5 7.5c7.33301 0 11 -6.33301 11 -19
c0 -4 -1.66699 -8.83301 -5 -14.5l-10 -17c-3.33301 -5.66699 -5.83301 -10.5 -7.5 -14.5s-1.16699 -6 1.5 -6c4 0 13.667 5 29 15c5.33301 4 9.66602 5 12.999 3s6.16602 -5.5 8.49902 -10.5s4.16602 -10.833 5.49902 -17.5s3 -13.334 5 -20.001
c0 -11.333 -5.16699 -24.166 -15.5 -38.499s-22.833 -28.666 -37.5 -42.999s-30 -27.666 -46 -39.999s-29.333 -21.833 -40 -28.5c-4.66699 0 -11.834 3.83301 -21.501 11.5s-20.334 17.5 -32.001 29.5s-23.667 25.167 -36 39.5s-23.5 28.5 -33.5 42.5l-10 11
c-10 11.333 -15 18.666 -15 21.999c0 8.66699 6 19.667 18 33s26.5 27 43.5 41s35.167 27.5 54.5 40.5l50 33.5c8 -1.33301 13.333 -4 16 -8zM270.006 399c0.666992 -2 1.00293 -6.66602 1.00293 -13.999v-14c0 -18.667 -2.16699 -38.167 -6.5 -58.5s-10 -40.333 -17 -60
s-14.833 -38.5 -23.5 -56.5s-17.667 -34 -27 -48c-10 -13.333 -29.667 -29.333 -59 -48c-14.667 -8.66699 -23.167 -7.66699 -25.5 3s-3.5 24.667 -3.5 42c0 4.66699 -2.33301 7 -7 7c-1.33301 0 -4.33301 -0.833008 -9 -2.5s-9.83398 -3.66699 -15.501 -6
s-11.334 -4.33301 -17.001 -6s-10.5 -2.5 -14.5 -2.5c-9.33301 0 -18 2 -26 6l56 248c14 4.66699 27.667 7.16699 41 7.5s28.333 0.5 45 0.5c5.33301 0 12.166 0.666992 20.499 2l26 4c9 1.33301 17.5 2.66602 25.5 3.99902s14.667 2 20 2c8 0 13.333 -3.33301 16 -10z" />
    <glyph glyph-name="FLW61" unicode="=" horiz-adv-x="423" 
d="M79 526l313.996 -17.999c4 0 6.66699 -2 8 -6s2 -8.66699 2 -14c0 -9.33301 -5 -22.333 -15 -39s-20.333 -29.667 -31 -39v-2c0 -2.66699 2.33301 -5 7 -7s7 -4.66699 7 -8s-2 -6.5 -6 -9.5l-12.5 -9c-4.33301 -3 -8.16602 -5.83301 -11.499 -8.5s-4.33301 -5 -3 -7
c0 -0.666992 1.33301 -2.66699 4 -6s4 -6.33301 4 -9c0 -12 -23 -18 -69 -18h-30c-5.33301 0 -15.166 -1 -29.499 -3s-30.666 -4.16699 -48.999 -6.5s-37.166 -4.5 -56.499 -6.5s-37 -3 -53 -3c-8.66699 0 -16.5 1.16699 -23.5 3.5s-11.833 6.83301 -14.5 13.5v2
c0 3.33301 3.5 8.83301 10.5 16.5s10.5 12.834 10.5 15.501c0 2 -0.666992 4.66699 -2 8s-2 6 -2 8c0 7.33301 2 11.833 6 13.5s8.33301 2.66699 13 3s9 1.16602 13 2.49902s6 5.66602 6 12.999c0 10.667 2.5 19.5 7.5 26.5s7.5 12.167 7.5 15.5c0 1.33301 -0.666992 4 -2 8
l-6 38c-0.666992 3.33301 -2.66699 7.83301 -6 13.5s-5 9.16699 -5 10.5c0 3.33301 2.33301 6 7 8zM77.9961 284.001l314.001 -18c4 0 6.66699 -2 8 -6s2 -8.66699 2 -14c0 -9.33301 -5 -22.333 -15 -39s-20.333 -29.667 -31 -39v-2c0 -2.66699 2.33301 -5 7 -7
s7 -4.66699 7 -8s-2 -6.5 -6 -9.5l-12.5 -9c-4.33301 -3 -8.16602 -5.83301 -11.499 -8.5s-4.33301 -5 -3 -7c0 -0.666992 1.33301 -2.66699 4 -6s4 -6.33301 4 -9c0 -12 -23 -18 -69 -18h-30c-22.667 0 -50.667 -3.33301 -84 -10s-66.333 -10 -99 -10
c-10.667 0 -19.834 1.33301 -27.501 4s-12.834 7.33398 -15.501 14.001v2c0 3.33301 3.5 8.83301 10.5 16.5s10.5 12.834 10.5 15.501c0 2 -0.666992 4.66699 -2 8s-2 6 -2 8c0 7.33301 2 11.833 6 13.5s8.33301 2.66699 13 3s9 1.16602 13 2.49902s6 5.66602 6 12.999
c0 10.667 2.5 19.5 7.5 26.5s7.5 12.167 7.5 15.5c0 1.33301 -0.666992 4 -2 8l-6 38c-0.666992 3.33301 -2.66699 7.83301 -6 13.5s-5 9.16699 -5 10.5c0 3.33301 2.33301 6 7 8z" />
    <glyph glyph-name="question" unicode="?" horiz-adv-x="431" 
d="M320 686c28 -26 41.998 -74.6689 41.998 -146.002v-46l-8.5 -13.5l-18 -29.5l-18 -30c-5.66699 -9.33301 -8.5 -14.333 -8.5 -15c0 -34.667 18.333 -52 55 -52h19c9.33301 0 17.5 -2 24.5 -6s4.83301 -10 -6.5 -18l-16 -12c-4 -3.33301 -10.333 -6 -19 -8
s-17.334 -4.33301 -26.001 -7s-16.167 -5.66699 -22.5 -9s-9.5 -8.33301 -9.5 -15c0 -4.66699 1.66699 -9.83398 5 -15.501l12 -19.5l18 -25.5c4.66699 -6.33301 8.33398 -11.833 11.001 -16.5s4.33398 -9.16699 5.00098 -13.5s1 -10.166 1 -17.499
c0 -10.667 -8.66699 -22.667 -26 -36l-48 -37c-13.333 -10.667 -36.666 -16 -69.999 -16c-15.333 0 -28 2.33301 -38 7l-4 35c2 2 4.83301 5.33301 8.5 10s6.66699 9.16699 9 13.5s2.66602 8.16602 0.999023 11.499s-6.83398 5 -15.501 5s-17.5 -1.33301 -26.5 -4
s-11.167 -4 -6.5 -4c-11.333 0 -19.166 2.66699 -23.499 8s-9.16602 8 -14.499 8c-2.66699 0 -6 -1 -10 -3s-8 -3 -12 -3c-12.667 0 -19 3 -19 9c0 4.66699 2.83301 10.5 8.5 17.5s12.667 14.833 21 23.5l27.5 28c10 10 19.333 20 28 30v2
c0 2.66699 -2.33301 7.16699 -7 13.5l-16 21.5c-6 8 -11.833 16.333 -17.5 25s-9.5 17 -11.5 25c-4 6.66699 -9.5 11.5 -16.5 14.5s-10.833 5.16699 -11.5 6.5c0 16.667 2.33301 33.167 7 49.5s12.667 31.833 24 46.5c3.33301 4.66699 8.66602 10.834 15.999 18.501
l22.5 24.5c7.66699 8.66699 14.334 16.834 20.001 24.501s8.5 13.5 8.5 17.5c0 7.33301 -8 14.333 -24 21s-31 11.334 -45 14.001l-13 2c-18.667 2.66699 -32 8.83398 -40 18.501s-8.66699 16.5 -2 20.5h16l-6 2.5c-4 1.66699 -8.5 3.83398 -13.5 6.50098l-14 7.5
c-4.33301 2.33301 -6.5 4.16602 -6.5 5.49902c0 3.33301 2.16699 5.5 6.5 6.5s9.83301 1.5 16.5 1.5c6 0 12 -0.166992 18 -0.5s11 -0.5 15 -0.5c16.667 0 28 7 34 21c6.66699 0 15.334 -0.666992 26.001 -2l33 -4l33 -4c10.667 -1.33301 19 -2 25 -2
c-6 3.33301 -25.333 11.666 -58 24.999c-0.666992 0 -5.33398 2 -14.001 6s-17.5 8.33301 -26.5 13s-16 9 -21 13s-4.16699 6 2.5 6c3.33301 0 8 -0.666992 14 -2s10.667 -2 14 -2l90.5 -25.5z" />
    <glyph glyph-name="A" unicode="A" horiz-adv-x="757" 
d="M426 740c-4 -8 -5.99414 -16.334 -5.99414 -25.001v-7c0 -4 2.66699 -6.16699 8 -6.5s11.333 0 18 1s13 2.16699 19 3.5s9.33301 2 10 2c2.66699 0 7.16699 -1.33301 13.5 -4s10.833 -4 13.5 -4c4.66699 0 8.5 2.33301 11.5 7s7.5 7 13.5 7
c15.333 0 27.666 -8 36.999 -24s17.5 -36.333 24.5 -61s13.167 -52 18.5 -82s11 -59 17 -87l18 -78l10.5 -53c4.33301 -22 11.166 -46 20.499 -72l63 -174c2 -5.33301 0.833008 -9.5 -3.5 -12.5s-7.83301 -4.5 -10.5 -4.5s-6.83398 1.5 -12.501 4.5l-17.5 9.5
c-6 3.33301 -11.333 6.5 -16 9.5s-7.33398 4.5 -8.00098 4.5c-6.66699 0 -13.667 -5.66699 -21 -17c-2.66699 0 -6.16699 2.66699 -10.5 8s-8.66602 10.333 -12.999 15s-8.16602 7.66699 -11.499 9s-5 -1.66699 -5 -9c0 0.666992 0.666992 -2.33301 2 -9v-3
c0 -6 -3.33301 -9.83301 -10 -11.5s-13 -3.16699 -19 -4.5c-4 0 -8 2.16699 -12 6.5s-8 9 -12 14l-11 14c-3.33301 4.33301 -6 6.5 -8 6.5c-3.33301 0 -5.5 -1.83301 -6.5 -5.5s-1.66699 -7.5 -2 -11.5s-0.833008 -7.83301 -1.5 -11.5s-2.33398 -5.5 -5.00098 -5.5
s-6 4 -10 12s-8.5 17.833 -13.5 29.5l-15 36.5c-5 12.667 -9.83301 23.667 -14.5 33c-27.333 0 -53.333 -0.666992 -78 -2s-48.334 -3.33301 -71.001 -6c-4 -2.66699 -7.5 -9.66699 -10.5 -21s-7.33301 -23.166 -13 -35.499s-13.5 -23.333 -23.5 -33
s-23.667 -14.5 -41 -14.5c-6 0 -11.333 -2 -16 -6h-2c-4 0 -6.66699 1.66699 -8 5l-8 7c-30 -12 -53.667 -27.667 -71 -47l-7 -1c0.666992 6.66699 1.16699 12.334 1.5 17.001s0.5 8.33398 0.5 11.001c0 9.33301 -2 13.333 -6 12s-8 -2 -12 -2s-6.66699 1.66699 -8 5v2
c0 3.33301 1.33301 7.66602 4 12.999s4 8.66602 4 9.99902c0 7.33301 -2.66699 10 -8 8c-8 -2.66699 -19.667 -11.667 -35 -27l-10 -10l-31 1c0 11.333 15.333 37.333 46 78c13.333 5.33301 24.5 18 33.5 38l27.5 59l16 83c38.667 94.667 67 182 85 262
c18.667 46 42 89 70 129h2c3.33301 0 8.16602 -0.833008 14.499 -2.5s10.833 -2.5 13.5 -2.5c1.33301 1.33301 4.66602 5.33301 9.99902 12s10.333 10 15 10h4c2 -16.667 5.66699 -25 11 -25c2.66699 0 5.66699 1.83301 9 5.5l10.5 12c3.66699 4.33301 7.5 8.33301 11.5 12
s7.66699 5.5 11 5.5c4.66699 0 10 -4 16 -12zM414.006 474.999c-3.33301 -4 -15.332 -30.334 -35.999 -79.001c0 -12 3 -20.667 9 -26h8c1.33301 0 3.16602 0.333008 5.49902 1s4.83301 0.333984 7.5 -0.999023h16c10 0 17.167 2.66699 21.5 8s6.5 11.666 6.5 18.999
c0 8 -2.66699 17.333 -8 28l-9 19l-6 20c-2 6.66699 -7 10.334 -15 11.001z" />
    <glyph glyph-name="B" unicode="B" 
d="M260 704l159 -4.00684c-5.33301 0 -3.33301 -3.66699 6 -11c15.333 -11.333 30 -23.5 44 -36.5s26.333 -25.833 37 -38.5l17 -19c10 -12 19.333 -23.833 28 -35.5s13 -22.167 13 -31.5s-4 -21.666 -12 -36.999s-16 -27.666 -24 -36.999l-60 -71v-2
c0 -8 12.667 -27.667 38 -59c22.667 -26.667 34 -58.667 34 -96c-17.333 -59.333 -45 -100.666 -83 -123.999c-15.333 -9.33301 -30.666 -14 -45.999 -14c-18 0 -34.667 1.33301 -50 4l-7 1h-17c-2 0 -4.16699 -0.666992 -6.5 -2s-3.83301 -2 -4.5 -2
c-9.33301 0 -19.833 1.16699 -31.5 3.5s-23.5 5 -35.5 8s-23.333 5.66699 -34 8s-19.667 3.5 -27 3.5l-5.5 -3.5c-3.66699 -2.33301 -7.83398 -4.66602 -12.501 -6.99902s-9.5 -4.5 -14.5 -6.5s-8.83301 -3 -11.5 -3h-2l-10 16c-3.33301 5.33301 -7.33301 8 -12 8h-3
l-15 -24c-5.33301 -8 -17.666 -12.667 -36.999 -14l-19 -1c-8 -0.666992 -13.5 2.33301 -16.5 9s-4.5 15.334 -4.5 26.001c0 12.667 1.16699 26.834 3.5 42.501s3.5 30.167 3.5 43.5v60c0 8 0.666992 18.333 2 31s3 26 5 40s3.66699 27.333 5 40s2 23 2 31
c0 7.33301 -1.5 17.666 -4.5 30.999s-4.83301 23 -5.5 29c-2.66699 13.333 -4 44 -4 92v76c0 2 -3.66699 5.66699 -11 11s-11 9.66602 -11 12.999c0 1.33301 3.16699 4.5 9.5 9.5s11.166 8.5 14.499 10.5l2 30c5.33301 0 17.666 2.66699 36.999 8c26 -14 45.667 -21 59 -21
c1.33301 -1.33301 3.33301 -0.333008 6 3s4 6 4 8c0 8.66699 2.66699 12.834 8 12.501s11.666 -2.33301 18.999 -6s14.166 -7.66699 20.499 -12s10.5 -6.5 12.5 -6.5c2.66699 0 4.83398 1.83301 6.50098 5.5s3.33398 7.83398 5.00098 12.501s3.33398 8.83398 5.00098 12.501
s4.16699 5.5 7.5 5.5s7.33301 -2.5 12 -7.5zM264 555.993c-4 -4 -5.99707 -10.667 -5.99707 -20c0 -4.66699 1 -11 3 -19s3 -14.333 3 -19v-16c0 -6 2.16699 -8.33301 6.5 -7s9.16602 4.33301 14.499 9s10.166 10.5 14.499 17.5s6.5 12.833 6.5 17.5
c0 8.66699 -4.83301 17 -14.5 25s-18.834 12 -27.501 12zM260.003 321.993v-23c0 -2 -0.333008 -5.16699 -1 -9.5s-1 -7.5 -1 -9.5c0 -10.667 1.33301 -21.167 4 -31.5s8 -15.5 16 -15.5c7.33301 0 14.833 3.5 22.5 10.5s11.5 14.167 11.5 21.5c0 4 -1.83301 9.5 -5.5 16.5
s-8 13.833 -13 20.5s-10.5 12 -16.5 16s-11.667 5.33301 -17 4z" />
    <glyph glyph-name="C" unicode="C" horiz-adv-x="569" 
d="M424 710l0.000976562 -4.00195c0 -1.33301 -3.5 -4.16602 -10.5 -8.49902s-13.667 -9 -20 -14s-10.5 -9.5 -12.5 -13.5s2 -6 12 -6c3.33301 0 8.33301 0.5 15 1.5s12 1.5 16 1.5c3.33301 0 5 -0.666992 5 -2c0 -0.666992 -1.5 -2.33398 -4.5 -5.00098s-8.5 -6 -16.5 -10
c-8 -5.33301 -13.167 -10.666 -15.5 -15.999s3.5 -8 17.5 -8c6.66699 0 16.334 1.5 29.001 4.5s22.334 4.5 29.001 4.5c1.33301 -1.33301 2 -6.33301 2 -15c0 -4 1.66699 -6.66699 5 -8h25c-1.33301 -3.33301 -7.33301 -8 -18 -14s-20 -12 -28 -18
c0 -3.33301 3.16699 -6.33301 9.5 -9s9.83301 -4.33398 10.5 -5.00098v-2c0 -2 -1 -4.33301 -3 -7s-3 -5 -3 -7c0 -6 6.66699 -9 20 -9c2 0 5.66699 0.166992 11 0.5s9 0.5 11 0.5c6 0 9 -1 9 -3s-1.33301 -4.16699 -4 -6.5s-5.5 -4.66602 -8.5 -6.99902
s-4.5 -4.16602 -4.5 -5.49902c0 -5.33301 11 -9.33301 33 -12c11.333 -1.33301 16 -3 14 -5s-7 -3.83301 -15 -5.5s-17.333 -3.33398 -28 -5.00098s-19.334 -3.16699 -26.001 -4.5c-12.667 -2 -29.667 -6.16699 -51 -12.5s-42.166 -14.166 -62.499 -23.499
s-37.833 -20.333 -52.5 -33s-22 -27 -22 -43c0 -9.33301 3.5 -18.333 10.5 -27s15.5 -16.667 25.5 -24s20.833 -14 32.5 -20s22.167 -10.667 31.5 -14c10 -3.33301 49.333 -13.333 118 -30c-9.33301 -9.33301 -14 -15 -14 -17c0 -4 0.666992 -10 2 -18s2 -15 2 -21
c0 -4 -2.66699 -8.5 -8 -13.5s-8 -8.83301 -8 -11.5v-2c0 -2 -5.33301 -3 -16 -3h-7c-4 0 -7 0.333008 -9 1l-17 2c-14 1.33301 -21 0 -21 -4c0 -2.66699 2.16699 -5.83398 6.5 -9.50098s9.83301 -7.33398 16.5 -11.001s13.5 -7.16699 20.5 -10.5s13.167 -6 18.5 -8v-2
c2 -6 -8 -11.667 -30 -17l-29 -8c-10.667 -2.66699 -19.334 -6 -26.001 -10l23 -30l-6 -6c-14.667 0 -27.834 2 -39.501 6s-25.167 9 -40.5 15c-10.667 4 -23.667 10.833 -39 20.5l-48 29.5c-16.667 10 -33 19.167 -49 27.5s-30.333 13.5 -43 15.5
c-11.333 8 -21.333 15.833 -30 23.5s-17.334 16.5 -26.001 26.5l-29 34.5l-38 46.5c-4 12 -6 24.333 -6 37c0 8.66699 1.66699 20.334 5 35.001s7.5 30 12.5 46s10.333 31.333 16 46s11.167 26.667 16.5 36c36 68.667 72.667 103 110 103c57.333 49.333 114.333 82 171 98
c-14.667 -4.66699 -23 -12.334 -25 -23.001l6 -4l38 13c7.33301 2.66699 15.5 5.33398 24.5 8.00098s18.833 5.33398 29.5 8.00098z" />
    <glyph glyph-name="D" unicode="D" horiz-adv-x="684" 
d="M456 658h2.00293c6 0 11.167 -4.16699 15.5 -12.5s8.16602 -13.5 11.499 -15.5l82 -81.5c28.667 -29 50.667 -57.5 66 -85.5c12.667 -22.667 23 -46 31 -70c0 -3.33301 -3.66699 -7.16602 -11 -11.499s-11.333 -7.5 -12 -9.5c2 -10 3 -20.333 3 -31
c0 -48.667 -30 -102 -90 -160c-57.333 -54 -103.333 -81 -138 -81c-1.33301 0 -4.83301 -0.333008 -10.5 -1s-13.834 -2 -24.501 -4l-130 -23l-13.5 -2l-12.5 -2h-61c-60 0 -102.667 14 -128 42c2.66699 6 15.667 13.667 39 23c8.66699 3.33301 12.167 6.33301 10.5 9
s-5.33398 5 -11.001 7s-11.5 3.83301 -17.5 5.5s-9 3.83398 -9 6.50098c0 3.33301 8.66699 7.33301 26 12c8.66699 2 11.667 5.16699 9 9.5s-7.16699 9.16602 -13.5 14.499s-12.833 11.166 -19.5 17.499s-10 12.833 -10 19.5c0 2 2.33301 6.16699 7 12.5s7 11.5 7 15.5
c0 7.33301 3.66699 12.333 11 15s11.666 7.33398 12.999 14.001l-12 203c0 2 -2.66699 5.16699 -8 9.5s-8 8.16602 -8 11.499c0 4 3.33301 8.33301 10 13s10 8.66699 10 12v2c0 3.33301 -3.16699 8.33301 -9.5 15s-9.5 11.667 -9.5 15c0 8 -4.16699 14.667 -12.5 20
s-12.5 9.33301 -12.5 12c0 4 1.66699 8.66699 5 14s5 11.333 5 18c-1.33301 4.66699 -6.66602 14.667 -15.999 30c6.66699 8.66699 20.167 14 40.5 16s38.166 3 53.499 3c5.33301 0 12.833 -0.166992 22.5 -0.5s21.834 -0.833008 36.501 -1.5l44 -2
c0.666992 0 6.5 2.83301 17.5 8.5s24.167 8.5 39.5 8.5h26c2.66699 0 7 0.333008 13 1s10.333 1 13 1c60 0 103.333 -14 130 -42zM312.003 463l-0.999023 -168l7 -9c5.33301 1.33301 13.833 4.66602 25.5 9.99902s23.667 12 36 20s23.166 16.833 32.499 26.5
s14 19.167 14 28.5c0 8.66699 -3.83301 16.334 -11.5 23.001l-30.5 27l-52 46l-8 2c-6 0 -10 -2 -12 -6z" />
    <glyph glyph-name="E" unicode="E" horiz-adv-x="510" 
d="M142 687c1.33301 0 7.33887 0.501953 18.0059 1.50195s25.334 2.16699 44.001 3.5l37 3c5.33301 0.666992 10.166 1 14.499 1h10.5c3.33301 0 6.66602 -0.166992 9.99902 -0.5s6.66602 -0.833008 9.99902 -1.5h8c4 0 9.33301 0.666992 16 2l44 6
c11.333 1.33301 22.666 -3 33.999 -13c10 0.666992 21 2.16699 33 4.5s24.667 5.16602 38 8.49902h5c5.33301 0 8.66602 -2 9.99902 -6v-2c0 -4.66699 -3.66699 -10.5 -11 -17.5s-11 -11.167 -11 -12.5c0 -2.66699 3.66699 -6 11 -10h4c1.33301 0 2.5 0.166992 3.5 0.5
s1.83301 0.5 2.5 0.5c3.33301 0 4.16602 -1.16699 2.49902 -3.5s-4.33398 -5.33301 -8.00098 -9l-10.5 -11c-3.33301 -3.66699 -5 -6.83398 -5 -9.50098v-2c0 -2 4.66699 -5 14 -9s14 -8.33301 14 -13c-2 -2.66699 -7.83301 -5.66699 -17.5 -9s-14.167 -7 -13.5 -11
c0.666992 -3.33301 6.66699 -6.66602 18 -9.99902c12 -5.33301 16.333 -9.5 13 -12.5s-9.33301 -5.33301 -18 -7s-17.667 -3.16699 -27 -4.5s-14 -3.33301 -14 -6c0 -2 3.33301 -4.33301 10 -7s14.167 -5.5 22.5 -8.5s15.833 -6 22.5 -9s10 -5.83301 10 -8.5v-2
c0 -2.66699 -3.33301 -4.5 -10 -5.5s-15.334 -1.5 -26.001 -1.5c-16.667 0 -35.167 0.666992 -55.5 2s-37.166 2 -50.499 2h-9c-3.33301 0 -7 0.333008 -11 1c-34.667 2.66699 -52 -4.33301 -52 -21v-6l14 -9l99 8c8.66699 0.666992 19.667 1.16699 33 1.5
s29.333 0.5 48 0.5c0 -3.33301 3.33301 -8.33301 10 -15s8.66699 -11.667 6 -15l-11.5 -5.5c-6.33301 -3 -13.333 -7 -21 -12s-11.5 -9.5 -11.5 -13.5c0 -3.33301 1.33301 -7.33301 4 -12c0 -4 -4.33301 -9 -13 -15s-13 -11 -13 -15
c0.666992 -1.33301 5.16699 -4.83301 13.5 -10.5s12.5 -10.5 12.5 -14.5c0 -1.33301 -0.666992 -3.16602 -2 -5.49902s-2 -4.16602 -2 -5.49902s1.33301 -4 4 -8s4 -6.66699 4 -8v-2l-22 -12l-142 -5c-4 0 -6 -5 -6 -15c0 -3.33301 0.666992 -7.83301 2 -13.5
s2 -10.167 2 -13.5l10 -8c10.667 -0.666992 20.167 -1.16699 28.5 -1.5s15.5 -0.5 21.5 -0.5h10.5c4.33301 0 9.83301 0.333008 16.5 1l40 2c7.33301 0.666992 14 1 20 1h17c10.667 0 16 -1 16 -3s-0.666992 -4.5 -2 -7.5s-2 -5.16699 -2 -6.5
c0 -4.66699 4.33301 -6.5 13 -5.5s13.667 1.5 15 1.5c4 0 6 -1.66699 6 -5s-1.16699 -7.5 -3.5 -12.5s-5.5 -10.333 -9.5 -16l-11 -15.5c-6 -8 -9.5 -13.167 -10.5 -15.5s-1.16699 -4 -0.5 -5s2 -2.33301 4 -4s3 -5.83398 3 -12.501v-4l-37 -19
c-0.666992 -0.666992 1.33301 -3.16699 6 -7.5s7 -7.5 7 -9.5c0 -4 -2.33301 -7.5 -7 -10.5s-10.334 -5.5 -17.001 -7.5s-13.334 -3.5 -20.001 -4.5s-12.334 -1.5 -17.001 -1.5c-3.33301 0 -12.666 1.16699 -27.999 3.5s-33.666 3.5 -54.999 3.5h-12
c-4 0 -9.66699 -0.5 -17 -1.5s-13 -1.5 -17 -1.5c-5.33301 0 -13.166 0.333008 -23.499 1s-18.166 1 -23.499 1c-20 0 -37 -4 -51 -12h-4c-4 0 -9.66699 1 -17 3s-11.666 3 -12.999 3c-6.66699 0 -11.334 -3.33301 -14.001 -10c-3.33301 0.666992 -9.33301 3.5 -18 8.5
s-17.667 11.167 -27 18.5s-17.5 14.5 -24.5 21.5s-10.5 12.833 -10.5 17.5c0 1.33301 0.666992 7.83301 2 19.5s2.66602 26.167 3.99902 43.5s2.66602 36.666 3.99902 57.999s2 42.333 2 63c0 37.333 -1.66699 71.666 -5 102.999s-5.66602 65.666 -6.99902 102.999l-2 54
c4 10 6 24 6 42c0 8 -0.666992 20 -2 36s-2 28 -2 36v12c0 1.33301 0.333008 3.5 1 6.5s1 5.16699 1 6.5l6 6h2c5.33301 0 14 -3.16699 26 -9.5s19.667 -9.5 23 -9.5c6.66699 0 11.667 3.66699 15 11l4 19c4.66699 0 8.66699 -2.5 12 -7.5s6.5 -10.667 9.5 -17
s6.16699 -12.166 9.5 -17.499s7 -8.33301 11 -9z" />
    <glyph glyph-name="F" unicode="F" horiz-adv-x="541" 
d="M118 721c2 -1.33301 5.66211 -6.49512 10.9951 -15.4951s9.66602 -13.5 12.999 -13.5h2c3.33301 0 7 3.33301 11 10s7 10 9 10c8 -5.33301 17.833 -9 29.5 -11s24.5 -3 38.5 -3c16.667 0 33.834 0.666992 51.501 2s34.167 2 49.5 2h18c3.33301 0 8 -0.333008 14 -1
s10.667 -1 14 -1c4.66699 0 12.167 1.66699 22.5 5s17.833 5 22.5 5c14.667 0 22 -14.667 22 -44c0 -2 -2 -3.83301 -6 -5.5s-8.66699 -3.33398 -14 -5.00098s-10 -3.83398 -14 -6.50098s-6 -6 -6 -10c8 -3.33301 16 -5 24 -5h12c3.33301 0 8.16602 0.666992 14.499 2
s11.166 2 14.499 2h3c0.666992 0 1 -1.66699 1 -5c0 -2 -1.66699 -5 -5 -9s-7.16602 -8.16699 -11.499 -12.5s-8.16602 -8.5 -11.499 -12.5s-5 -7.33301 -5 -10c0 -4 1 -8.83301 3 -14.5s3 -14.167 3 -25.5c0 -2.66699 4.5 -6 13.5 -10s16.5 -8.33301 22.5 -13v0
c0 -2 -2.66699 -5.16699 -8 -9.5s-8 -8.16602 -8 -11.499c0 -7.33301 17.333 -19 52 -35l1 -8c0 -0.666992 -1.66699 -1 -5 -1h-10c-8 0 -19.5 1.33301 -34.5 4s-26.5 4 -34.5 4c-3.33301 -3.33301 -4.66602 -6.5 -3.99902 -9.5s1 -6.16699 1 -9.5
c0 -4.66699 -4 -9.83398 -12 -15.501s-12.333 -8.83398 -13 -9.50098c-0.666992 -2 0.333008 -3.5 3 -4.5s5.83398 -2 9.50098 -3s7.33398 -2.33301 11.001 -4s6.16699 -4.16699 7.5 -7.5v-2c0 -4.66699 -2 -11.167 -6 -19.5s-6 -13.833 -6 -16.5
c0 -6.66699 3.33301 -12.334 10 -17.001v-3c0 -9.33301 -4.33301 -14.333 -13 -15s-14.334 -3.66699 -17.001 -9v0c0 -4 4.66699 -9.16699 14 -15.5l14 -9.5c0 -4.66699 -5.5 -7.66699 -16.5 -9s-20.833 -2 -29.5 -2c-6.66699 0 -15.5 0.666992 -26.5 2l-41.5 5l-34 4
c-5.33301 0.666992 -9.66602 1.16699 -12.999 1.5s-5.66602 0.5 -6.99902 0.5l-9 -12c0 -8 0.5 -18.167 1.5 -30.5s1.83301 -25 2.5 -38s1.5 -25.5 2.5 -37.5s1.5 -21.667 1.5 -29c0 -14 -1 -28 -3 -42c-3.33301 -3.33301 -6 -5 -8 -5c-10 0 -17.167 4.16699 -21.5 12.5
s-11.166 18.833 -20.499 31.5c-1.33301 0.666992 -7.5 0.333984 -18.5 -0.999023s-24.5 -3.83301 -40.5 -7.5s-33.167 -8.5 -51.5 -14.5s-35.166 -13.333 -50.499 -22c-7.33301 0 -12.166 7 -14.499 21s-3.5 30.667 -3.5 50c0 22.667 0.833008 46.167 2.5 70.5
s2.5 44.166 2.5 59.499c0 24.667 -0.666992 48 -2 70s-3.33301 43 -6 63l3 10c0 90 -5 165.333 -15 226c0.666992 2 1.16699 4.5 1.5 7.5s0.166016 6.5 -0.500977 10.5c-0.666992 3.33301 -1 6.16602 -1 8.49902v5.5c0 12.667 2.5 17.5 7.5 14.5s10.167 -4.5 15.5 -4.5
c3.33301 0 9.33301 2.16699 18 6.5s13.667 6.5 15 6.5c6 -1.33301 13.167 -1.83301 21.5 -1.5s15.166 -2.5 20.499 -8.5zM265.995 496.005l-22 -0.000976562l-6 -4v-2c0 -12.667 12.667 -19 38 -19h20c-0.666992 0 0.5 0 3.5 0s7.83301 0.333008 14.5 1l39 2l11 4v4
c0 2.66699 -3.66699 4.83398 -11 6.50098s-16 3 -26 4s-20.667 1.83301 -32 2.5s-21 1 -29 1z" />
    <glyph glyph-name="G" unicode="G" horiz-adv-x="674" 
d="M436 706l2.00488 -4.00195v-2c0 -2.66699 -2.66699 -7.66699 -8 -15s-8 -11.666 -8 -12.999c0 -2 3.33301 -4 10 -6l81 6c2 0 3.5 -4.33301 4.5 -13s3.83301 -13.667 8.5 -15l52 5v-2c0 -2.66699 -2.33301 -7.16699 -7 -13.5s-7 -10.166 -7 -11.499c0 -2 2 -4.66699 6 -8
h16c6 0 9.66699 -1 11 -3s1.16602 -4.5 -0.500977 -7.5s-4.33398 -5.66699 -8.00098 -8s-7.16699 -4.16602 -10.5 -5.49902l-146 -50c-11.333 -4 -17 -10.667 -17 -20c0 -10 7 -15 21 -15c4 0 7.5 2 10.5 6s7.5 6 13.5 6c2 0 8 -3 18 -9l2 -2
c2.66699 -2.66699 5.33398 -4 8.00098 -4h2c2.66699 0 4.83398 2.16699 6.50098 6.5s3.83398 6.5 6.50098 6.5c4.66699 0 9 -7 13 -21c6 -10.667 10.5 -14.5 13.5 -11.5s8.16699 11.167 15.5 24.5c3.33301 4.66699 12.666 8.5 27.999 11.5s26.333 4.5 33 4.5
c14.667 0 23.834 -8.83301 27.501 -26.5s5.5 -37.167 5.5 -58.5c0 0.666992 -0.5 -2.83301 -1.5 -10.5s-2 -18 -3 -31s-2 -27.667 -3 -44s-1.5 -33.166 -1.5 -50.499c0 -22.667 2.66699 -51.5 8 -86.5s10.666 -68.167 15.999 -99.5c-1.33301 -4 -3.33301 -6 -6 -6
c-0.666992 0 -2.66699 2.66699 -6 8s-7.16602 11.166 -11.499 17.499l-12 17.5c-3.66699 5.33301 -6.5 8 -8.5 8c-2.66699 0 -4 -6.33301 -4 -19c0 -4 0.666992 -10 2 -18s2 -14 2 -18v-6c0 -4.66699 -1.33301 -6.16699 -4 -4.5s-5.83398 4.33398 -9.50098 8.00098l-11 11
c-3.66699 3.66699 -6.83398 5.5 -9.50098 5.5c-3.33301 0 -6.66602 -2.66699 -9.99902 -8v-4c0 -10.667 -4.33301 -18.334 -13 -23.001h-2c-3.33301 0 -7.33301 2.16699 -12 6.5s-8.66699 6.5 -12 6.5c-4 0 -9.33301 -2.16699 -16 -6.5s-12.334 -6.5 -17.001 -6.5l-4 21
c-0.666992 6 -3.33398 11.333 -8.00098 16h-2c-2.66699 0 -7.66699 -2.16699 -15 -6.5s-12.333 -6.83301 -15 -7.5c-4.66699 0 -11.834 -0.333008 -21.501 -1l-29.5 -2c-10 -0.666992 -19.167 -1.5 -27.5 -2.5s-13.5 -1.5 -15.5 -1.5c-5.33301 -0.666992 -10 -1 -14 -1h-11
c-19.333 0 -36.833 2.66699 -52.5 8s-30.834 13 -45.501 23c-24.667 16.667 -51.834 39 -81.501 67s-58.834 62.333 -87.501 103c-29.333 40.667 -44 71 -44 91c0 10.667 8 24 24 40c12.667 35.333 31.334 70.666 56.001 105.999c10 13.333 22 28 36 44s30 32.667 48 50
c9.33301 9.33301 24.5 18.333 45.5 27s44 16.5 69 23.5s49.833 12.667 74.5 17s45.667 6.5 63 6.5zM378.005 506.998l-1.99707 -0.00195312c-8.66699 0 -18.334 -5.83301 -29.001 -17.5s-20.834 -24.667 -30.501 -39s-17.667 -28.166 -24 -41.499s-9.5 -21.666 -9.5 -24.999
c0 -4 0.666992 -8 2 -12l49 -52c2 -2.66699 5.66699 -4 11 -4s7.66602 0 6.99902 0h10c33.333 0 50 14 50 42c0 6 -3.66699 29.333 -11 70l-7 40c-1.33301 6 -2.33301 11.167 -3 15.5s-1 7.83301 -1 10.5v2c0 7.33301 -4 11 -12 11z" />
    <glyph glyph-name="H" unicode="H" horiz-adv-x="614" 
d="M374 702l11.9951 -28.0039h2c2.66699 0 5.5 2.33301 8.5 7s5.16699 7 6.5 7c4.66699 0 9.16699 -5 13.5 -15s8.16602 -15 11.499 -15c-0.666992 0 4 4.16699 14 12.5s22.333 12.5 37 12.5c2 0 4.33301 1.16699 7 3.5s5.33398 3.5 8.00098 3.5
c10 -5.33301 17.667 -7 23 -5s9.33301 9.33301 12 22c2.66699 12 7.83398 16 15.501 12s11.5 -11 11.5 -21v-17l-2 -19c-1.33301 -9.33301 1 -17 7 -23l21 15l6 -7c1.33301 -2 2.16602 -10.667 2.49902 -26s0.833008 -32.333 1.5 -51l2 -54v-32
c0 -10 -0.333008 -24.667 -1 -44s-1 -33.666 -1 -42.999v-29c0 -9.33301 -4 -19.166 -12 -29.499s-12 -19.166 -12 -26.499v-14c0 -4.66699 1 -14 3 -28l5 -46c2.66699 -22.667 4.66699 -41.334 6 -56.001s2 -25.334 2 -32.001c0 -10.667 -3.66699 -23.834 -11 -39.501
s-11 -29.834 -11 -42.501v-18c0 -1.33301 -1.66699 -2.66602 -5 -3.99902l-5 -2c-2 -0.666992 -4.66699 0.333008 -8 3s-6.66602 5.83398 -9.99902 9.50098s-6.33301 7.16699 -9 10.5l-4 5c-4 0 -8 -1.66699 -12 -5s-6.33301 -5 -7 -5c-2.66699 0 -5.16699 2.5 -7.5 7.5
s-4.66602 10.333 -6.99902 16s-5 10.834 -8 15.501s-6.5 6.66699 -10.5 6c-5.33301 -1.33301 -12.5 -3 -21.5 -5s-19.5 -3.66699 -31.5 -5l-4.5 15c-1.66699 5.33301 -4.83398 8 -9.50098 8c-11.333 -19.333 -20.666 -31.333 -27.999 -36c-6.66699 0 -11 2.33301 -13 7
s-2.66699 9.5 -2 14.5s1.66699 9 3 12s2 3.16699 2 0.5c0 6 -2 18.667 -6 38l-5 19c-2 7.33301 -2.33301 15 -1 23s2 15.333 2 22c0 16 -2.66699 33 -8 51c-6 6 -13.333 9 -22 9l-24 -3c-8 -0.666992 -13.167 -4.83398 -15.5 -12.501s-3.5 -16.167 -3.5 -25.5
c0 -4.66699 0.166992 -9 0.5 -13s0.5 -7.33301 0.5 -10c0 -4 -0.333008 -10.5 -1 -19.5s-2.66699 -20.5 -6 -34.5c-2 -10.667 -8.16699 -21 -18.5 -31s-17.166 -18.333 -20.499 -25h-2c-1.33301 0 -4.33301 1.66699 -9 5s-8.33398 5 -11.001 5
c-1.33301 0 -6.66602 -4.66699 -15.999 -14c-4.66699 -2 -8.16699 -2.16699 -10.5 -0.5s-4.16602 3.83398 -5.49902 6.50098s-3 5.33398 -5 8.00098s-5 4 -9 4c-2 0 -4.83301 -1.66699 -8.5 -5s-6.83398 -5 -9.50098 -5c-0.666992 0 -6.83398 4.5 -18.501 13.5
s-20.5 17.167 -26.5 24.5h-11l-27 -30c-15.333 -16 -25.666 -24 -30.999 -24c-4 0 -8.66699 1.33301 -14 4l-2 5l9 80c0.666992 6.66699 1.33398 14.5 2.00098 23.5s1.66699 18.833 3 29.5c2.66699 28.667 4.33398 54 5.00098 76s1 41.333 1 58l-2 193
c0 5.33301 -0.333008 13.833 -1 25.5s-1 20.5 -1 26.5l-4 37c5.33301 2.66699 8.66602 6.33398 9.99902 11.001s2 9 2 13c0 8 0.833008 12.333 2.5 13s3.83398 -0.166016 6.50098 -2.49902s5.66699 -5.16602 9 -8.49902s6.66602 -5 9.99902 -5c6 0 10.167 4.33301 12.5 13
s5.5 19.334 9.5 32.001h4c5.33301 0 9.5 -2.33301 12.5 -7s5.33301 -10 7 -16s3.33398 -11.333 5.00098 -16s3.5 -7 5.5 -7c4 0 9 4.66699 15 14s11.667 16.666 17 21.999l8 14c4 6.66699 7.5 10 10.5 10s5.5 -2.16699 7.5 -6.5s3.5 -10 4.5 -17s1.5 -13.5 1.5 -19.5
c0 -11.333 3.33301 -16.666 10 -15.999s13.667 1 21 1c13.333 0 21.333 10.333 24 31c1.33301 9.33301 3 14.666 5 15.999s4 0.333008 6 -3s3.66699 -8.5 5 -15.5s2.33301 -13.833 3 -20.5l1 -12v-15c0 -8 -0.333008 -19.5 -1 -34.5s-1 -26.5 -1 -34.5
c0 -25.333 2.66699 -45.333 8 -60c3.33301 -3.33301 7.66602 -5 12.999 -5c14.667 0 24.167 3.33301 28.5 10s6.5 17.667 6.5 33v16c0 2 -0.166992 4.66699 -0.5 8s-0.5 6 -0.5 8v19c0 -0.666992 0 0.666016 0 3.99902s0.333008 8.33301 1 15l2 40l2 2h1
c2 0 4.83301 -1.33301 8.5 -4s6.16699 -4 7.5 -4c2.66699 0 5 2 7 6v18c0 2 -0.166992 4.66699 -0.5 8s-0.5 5.66602 -0.5 6.99902c0 18 3 27 9 27c6.66699 0 12.334 -6 17.001 -18z" />
    <glyph glyph-name="I" unicode="I" horiz-adv-x="312" 
d="M242 692c1.33301 1.33301 4.16797 4.99902 8.50098 10.999s8.83301 9 13.5 9h3c2.66699 0 4 -8.66699 4 -26c0 -4 -1.16699 -16.5 -3.5 -37.5s-5 -43.833 -8 -68.5s-5.66699 -47.5 -8 -68.5s-3.5 -33.5 -3.5 -37.5v-22c29.333 -86 44 -181.333 44 -286
c-2 -11.333 -10.667 -20.333 -26 -27s-34 -8.66699 -56 -6c-2 -12.667 -8.5 -21.667 -19.5 -27s-27.167 -11.666 -48.5 -18.999h-2c-2.66699 0 -5.5 2.16699 -8.5 6.5s-5.83301 9 -8.5 14s-5 9.66699 -7 14s-4 6.5 -6 6.5c-3.33301 0 -8.83301 -2.66699 -16.5 -8
s-12.834 -8 -15.501 -8c-0.666992 0 -2.83398 2 -6.50098 6s-8 8.33301 -13 13s-10 9 -15 13s-8.83301 6 -11.5 6c0 16.667 0.166992 33.5 0.5 50.5s0.833008 34.5 1.5 52.5v27v12c0 30 -2 60 -6 90c1.33301 18 2.33301 35.167 3 51.5s1 31.833 1 46.5v54
c0 7.33301 -0.166992 14.833 -0.5 22.5s-0.833008 14.834 -1.5 21.501l-4 47l-6 51l4 9c0 0.666992 1.33301 -0.833008 4 -4.5l9.5 -12.5l10.5 -14c3.33301 -4.66699 6 -8 8 -10l18 66c2 0 4.83301 -3.33301 8.5 -10l12 -22c4.33301 -8 8.5 -15.167 12.5 -21.5
s7.66699 -9.5 11 -9.5c9.33301 0 15.666 7.16699 18.999 21.5s7.33301 28.166 12 41.499h5c8.66699 0 15.334 -3.33301 20.001 -10v-9c0 -14.667 2 -22 6 -22c2 0 4.66699 2.83301 8 8.5l11 19c4 7 7.83301 13.333 11.5 19s6.5 8.5 8.5 8.5c3.33301 0 6.33301 -3 9 -9
s7.33398 -13.667 14.001 -23z" />
    <glyph glyph-name="J" unicode="J" horiz-adv-x="488" 
d="M224 710c4.66699 -6.66699 7.33203 -14.0059 7.99902 -22.0059l4 -27c2.66699 -22 10.667 -35 24 -39l5 4c1.33301 1.33301 2 5 2 11v9c0 4.66699 -0.333008 11.167 -1 19.5s-1 14.833 -1 19.5c0 10 1 17.667 3 23h4c5.33301 0 9.66602 -3 12.999 -9
s6.33301 -13.333 9 -22s5.16699 -18.167 7.5 -28.5s4.83301 -19.833 7.5 -28.5h2c2.66699 0 4.66699 1.83301 6 5.5s2.33301 5.83398 3 6.50098l7 38c2.66699 0 7.5 -3 14.5 -9s11.833 -9 14.5 -9c4.66699 0 8.83398 4.83301 12.501 14.5s8.83398 14.5 15.501 14.5h4
c1.33301 0 3 -0.333008 5 -1s3.66699 -1 5 -1c7.33301 0 13.333 7.33301 18 22l6 17c2 4.66699 4.66699 8.66699 8 12h18c6 0 9.66699 -6.33301 11 -19s2 -25 2 -37v-22l-2 -49c-0.666992 -16 0.666016 -33 3.99902 -51s5 -40 5 -66c0 -23.333 -2 -66.666 -6 -129.999
l-5 -65c-0.666992 -9.33301 -1.16699 -16.833 -1.5 -22.5s-0.5 -8.83398 -0.5 -9.50098c-3.33301 -4.66699 -7.5 -11.667 -12.5 -21l-15 -29l-14 -28c-4.33301 -8.66699 -7.83301 -15 -10.5 -19c-26 -40 -59.667 -60 -101 -60h-25c-8.66699 0 -20.667 -1.16699 -36 -3.5
s-27 -3.5 -35 -3.5c-60 0 -106.333 18.333 -139 55c-18 10.667 -27 17.667 -27 21c0 2.66699 4.33301 5.33398 13 8.00098s13 8.33398 13 17.001c0 3.33301 -1.33301 7 -4 11s-4 8 -4 12c0 4.66699 2.66699 13 8 25c-5.33301 4.66699 -9.66602 16.667 -12.999 36
c-2 10.667 -8 19.334 -18 26.001s-15 15.334 -15 26.001c0 14.667 7.33301 22 22 22c1.33301 0 4.66602 -1 9.99902 -3l17 -6.5c6 -2.33301 11.333 -4.66602 16 -6.99902l7 -3.5l145 -33c1.33301 -0.666992 2.5 1 3.5 5s1.5 6.66699 1.5 8c0 2.66699 -1.16699 7.5 -3.5 14.5
s-3.5 12.167 -3.5 15.5c0 2.66699 0.333008 4.33398 1 5.00098c0 32.667 -1 64.667 -3 96s-5.33301 62.333 -10 93c-4 29.333 -8.5 59.166 -13.5 89.499s-10.833 61.5 -17.5 93.5l6 11c12.667 0 21.334 -7.33301 26.001 -22z" />
    <glyph glyph-name="K" unicode="K" horiz-adv-x="594" 
d="M423 738c0.666992 -3.33301 1.17285 -6.16895 1.50586 -8.50195s0.5 -3.83301 0.5 -4.5c0 -4.66699 -1.16699 -11.334 -3.5 -20.001s-3.5 -15.334 -3.5 -20.001c0 -10.667 4 -16 12 -16c4 0 8.5 0.666992 13.5 2s9.83301 2 14.5 2c7.33301 0 16.166 -1.83301 26.499 -5.5
s18.833 -5.5 25.5 -5.5c12.667 0 18 -5.33301 16 -16c-0.666992 -2.66699 -1.16699 -5 -1.5 -7s-0.833008 -4.33301 -1.5 -7c-0.666992 -4.66699 1 -8 5 -10l8 6c5.33301 4 10.333 6 15 6s8.66699 -2.66699 12 -8l2 -2c0.666992 -1.33301 -2.83301 -8.33301 -10.5 -21
l-29 -46l-36.5 -57l-33 -52v-26l100 -144c12 -17.333 18 -28.666 18 -33.999s-2.33301 -10 -7 -14l-19 -30c-6.66699 -10.667 -16 -17 -28 -19c0 -3.33301 -4.33301 -11 -13 -23s-16.334 -23.667 -23.001 -35h-4c-3.33301 0 -9 -2.16699 -17 -6.5s-13 -6.5 -15 -6.5
s-4.66699 1.83301 -8 5.5s-6.66602 5.5 -9.99902 5.5c-2.66699 0 -7.83398 -3.16699 -15.501 -9.5s-13.167 -9.5 -16.5 -9.5h-2l-29 45c-4.66699 6.66699 -8.5 12.5 -11.5 17.5s-5.83301 8.83301 -8.5 11.5c-12.667 18 -24.667 32 -36 42h-2
c-6.66699 0 -10.834 -4.83301 -12.501 -14.5s-3.33398 -20.167 -5.00098 -31.5s-4.33398 -21.833 -8.00098 -31.5s-11.167 -14.5 -22.5 -14.5c-2 0 -6.83301 -3.66699 -14.5 -11s-13.167 -11 -16.5 -11c-4 0 -9 2 -15 6s-12.333 6 -19 6
c-8.66699 0 -17.334 -1.33301 -26.001 -4l-22 -6c-16.667 1.33301 -29.667 2.33301 -39 3s-14.666 1.33398 -15.999 2.00098c-21.333 4 -37.333 12.333 -48 25c0 22 0.166992 44.667 0.5 68s0.833008 47.333 1.5 72v36v79c0 12.667 -0.5 25.667 -1.5 39
s-2.16699 27.666 -3.5 42.999v3c0 2 -1.16699 5.33301 -3.5 10l-7.5 14.5l-7.5 14c-2.33301 4.33301 -3.5 7.5 -3.5 9.5c0 4 4 9 12 15s12 15.667 12 29c1.33301 -1.33301 1.5 0.333984 0.5 5.00098l-4 19.5c-1.66699 8.33301 -3.16699 17.833 -4.5 28.5s-2 21 -2 31
c0 8.66699 -1.33301 21.834 -4 39.501s-4 30.834 -4 39.501c0 12.667 4.66699 19 14 19c10 0 17.667 -2.5 23 -7.5s9.16602 -11.167 11.499 -18.5s3.83301 -15.333 4.5 -24s1.66699 -16.667 3 -24c0.666992 1.33301 2 5 4 11l6.5 20c2.33301 7.33301 5 13.833 8 19.5
s5.5 8.5 7.5 8.5c2.66699 0 7 -0.833008 13 -2.5s10.333 -2.5 13 -2.5c4.66699 0 8.66699 2.66699 12 8h2c2 0 4.83301 -1.5 8.5 -4.5s7.33398 -6.5 11.001 -10.5l10 -10.5c3 -3 4.83301 -4.5 5.5 -4.5s2.5 2 5.5 6s6.83301 8.33301 11.5 13s9.66699 9 15 13s11 6 17 6
c25.333 0 41.666 -8.66699 48.999 -26s11 -40 11 -68v-30c6 -4 9.66699 -6 11 -6v0l42 58.5l59 81.5c8.66699 -0.666992 15 -6.66699 19 -18z" />
    <glyph glyph-name="L" unicode="L" horiz-adv-x="484" 
d="M128 658c0.666992 -2 1.99414 -3.32812 3.99414 -3.99512h2c1.33301 0 4 3.66699 8 11s8.33301 11 13 11c10.667 0 19.667 -2 27 -6s13.666 -8.33301 18.999 -13s9.83301 -9 13.5 -13s6.83398 -6 9.50098 -6c4.66699 0 8.83398 2 12.501 6s7.5 6 11.5 6
c6 0 9.33301 -0.333008 10 -1l4 -10l-8 -213c0 4 0.333008 4.5 1 1.5s1.16699 -7.83301 1.5 -14.5l1 -21c0.333008 -7.33301 0.5 -13 0.5 -17v-11c0 -9.33301 -0.333008 -16.333 -1 -21s5.66602 -7 18.999 -7c4.66699 0 12.334 1.5 23.001 4.5s18.667 4.5 24 4.5l56 10
c8.66699 1.33301 17.667 2.83301 27 4.5s18.666 3.16699 27.999 4.5h12c6.66699 0 10.667 -2 12 -6c-1.33301 -5.33301 -4.33301 -10 -9 -14s-9.66699 -7.5 -15 -10.5s-10 -5.5 -14 -7.5s-6 -3.66699 -6 -5c0 -2 8.33301 -3 25 -3c10 0 14.5 -1.16699 13.5 -3.5
s-4.16699 -5.16602 -9.5 -8.49902s-11.166 -7.33301 -17.499 -12s-9.5 -9.33398 -9.5 -14.001c0 -2.66699 2 -6 6 -10h16c15.333 0 24 -3.66699 26 -11c-3.33301 -2.66699 -9.16602 -5 -17.499 -7s-17.833 -4 -28.5 -6l-33 -6c-11.333 -2 -21.666 -4 -30.999 -6v0
c0 -3.33301 2.83301 -6 8.5 -8s12.334 -3.83301 20.001 -5.5s15.5 -2.83398 23.5 -3.50098s14.667 -1.33398 20 -2.00098v-2c0 -0.666992 -4 -2.83398 -12 -6.50098s-16.5 -7.33398 -25.5 -11.001s-17.333 -6.83398 -25 -9.50098s-10.834 -3.33398 -9.50098 -2.00098
c0 -2 2.33301 -4 7 -6s9.83398 -3.66699 15.501 -5s11 -2.5 16 -3.5s7.83301 -1.5 8.5 -1.5c-39.333 -36 -79.666 -54 -120.999 -54c-13.333 0 -27 -1.33301 -41 -4s-28.667 -4 -44 -4c-11.333 0 -22 0.333008 -32 1s-19 1.66699 -27 3l-8.5 15
c-3 5.33301 -6.83301 8 -11.5 8c-6 0 -15 -2 -27 -6s-21 -6 -27 -6c-6.66699 0 -12.667 1.66699 -18 5v22c0 2 -1.16699 15 -3.5 39s-4.66602 50.167 -6.99902 78.5s-4.66602 54.333 -6.99902 78s-3.5 36.167 -3.5 37.5c0 21.333 2 40.833 6 58.5s6 35.834 6 54.501
c0 4 -0.166992 8.16699 -0.5 12.5s-0.833008 8.83301 -1.5 13.5l-7 46l-2.5 15.5c-1 6.33301 -1.66699 12.5 -2 18.5s-0.5 11.167 -0.5 15.5s0.666992 6.5 2 6.5c6.66699 0 12.167 4.66699 16.5 14l13.5 30c4.66699 10.667 10 20.667 16 30s14 14 24 14
c3.33301 0 6.66602 -2 9.99902 -6s6.83301 -8.83301 10.5 -14.5s6.66699 -11.5 9 -17.5z" />
    <glyph glyph-name="M" unicode="M" horiz-adv-x="875" 
d="M186 742l11.998 2.00098l11 -23l7 -5l15.5 -11c5.66699 -4 11.167 -7.66699 16.5 -11s8.66602 -5 9.99902 -5l21.5 7c8.33301 2.66699 17.166 5.33398 26.499 8.00098h6l109 -220c2 -4.66699 5.66699 -7 11 -7s10.5 3.16699 15.5 9.5s9.66699 13.666 14 21.999
s8.5 17.166 12.5 26.499l10 23l23 48c1.33301 1.33301 4.33301 2 9 2c2 0 4.5 -4.16699 7.5 -12.5s5.16699 -14.833 6.5 -19.5c8 1.33301 13.5 7.5 16.5 18.5s5.5 23.167 7.5 36.5s4.16699 26.5 6.5 39.5s6.83301 22.167 13.5 27.5v24c0 8 2.66699 14 8 18h2
c2.66699 0 6.33398 -1.66699 11.001 -5l15.5 -11c5.66699 -4 11.334 -7.66699 17.001 -11s11.167 -5 16.5 -5c3.33301 0 10.666 4.66699 21.999 14c1.33301 0 4.16602 -1 8.49902 -3s9.33301 -4.16699 15 -6.5s11.834 -4.66602 18.501 -6.99902s12.334 -3.5 17.001 -3.5
c7.33301 0 13.5 -4.66699 18.5 -14s9.66699 -20.833 14 -34.5s8.16602 -28.5 11.499 -44.5l9 -44l30 -134l9 -24c8.66699 -23.333 15.834 -44.166 21.501 -62.499s10.167 -34.166 13.5 -47.499c2 -7.33301 3 -13 3 -17c0 -5.33301 -1.66699 -8 -5 -8c-6 0 -12.333 5 -19 15
s-13.5 22.5 -20.5 37.5s-14 31.333 -21 49l-19.5 49.5c-4.66699 -0.666992 -7 -3.33398 -7 -8.00098c0 -2 0.5 -5.83301 1.5 -11.5s2.16699 -11.667 3.5 -18s2.66602 -12.333 3.99902 -18s2 -9.5 2 -11.5l45 -114c2.66699 -6.66699 9.33398 -22 20.001 -46
s16 -54.667 16 -92c0 -1.33301 -0.666992 -2 -2 -2c-0.666992 0 -4.16699 1.33301 -10.5 4s-12.5 4 -18.5 4h-23c-0.666992 -1.33301 -3.33398 -2.66602 -8.00098 -3.99902s-9.83398 -3.16602 -15.501 -5.49902s-10.667 -5 -15 -8s-6.5 -6.5 -6.5 -10.5v-3
c0 -1.33301 -1.33301 -1.83301 -4 -1.5s-5.66699 1 -9 2l-8.5 2.5c-2.33301 0.666992 -3.16602 0.666992 -2.49902 0l-28 6l-75 78l-40 82l-4 1c-2 0.666992 -4.33301 1 -7 1l-19 -32c-21.333 -36.667 -39.333 -63.334 -54 -80.001c-10.667 -12.667 -20 -21.334 -28 -26.001
v-4c0 -3.33301 2.16699 -8.5 6.5 -15.5s6.5 -12.167 6.5 -15.5c0 -8 -8.66699 -5 -26 9s-37 31.667 -59 53l-64 64.5l-42 44.5c-9.33301 0 -16.666 -8.83301 -21.999 -26.5s-11.333 -34.834 -18 -51.501l-21 -54c-12 -12.667 -20.333 -19 -25 -19
c-3.33301 0 -5.5 2.16699 -6.5 6.5l-3 13.5c-1 4.66699 -2.66699 9.16699 -5 13.5s-6.5 6.5 -12.5 6.5h-4c-4 0 -8.66699 -3.5 -14 -10.5l-17 -22.5c-6 -8 -12.167 -15.5 -18.5 -22.5s-12.5 -10.5 -18.5 -10.5c-3.33301 0 -6.16602 2.83301 -8.49902 8.5
s-3.5 15.834 -3.5 30.501v2c0 4.66699 -5.33301 7 -16 7l-7 -4.5l-15 -9.5c-5.33301 -3.33301 -10.666 -6.5 -15.999 -9.5s-9 -4.5 -11 -4.5c-11.333 0 -17 10 -17 30c0 16.667 3.33301 37.5 10 62.5s13.667 46.5 21 64.5l9 22c1.33301 3.33301 2 5.66602 2 6.99902
s-0.333008 3.33301 -1 6s-1 7.66699 -1 15c0 6 7.66699 37 23 93l2 7l17.5 80.5c7 32.333 15.833 69.833 26.5 112.5c0 0.666992 2 8.66699 6 24s8.66699 32.333 14 51s11.333 35.667 18 51s13 23.666 19 24.999z" />
    <glyph glyph-name="N" unicode="N" horiz-adv-x="739" 
d="M139 700l19.0039 0.00390625c9.33301 0 18.333 4.16699 27 12.5s17 12.5 25 12.5c12 0 21.833 -6.33301 29.5 -19s16.167 -26 25.5 -40l185 -182c10 2 18.167 8.16699 24.5 18.5s11.166 22.666 14.499 36.999s5.66602 29.666 6.99902 45.999s2 32.166 2 47.499
c0 16 -1.83301 20 -5.5 12s-7.83398 -19 -12.501 -33c-2 -6.66699 -3.83301 -10 -5.5 -10s-3 1.83301 -4 5.5s-1.66699 8 -2 13s-0.5 8.83301 -0.5 11.5l1 10c1.33301 18.667 3.66602 32 6.99902 40c1.33301 4.66699 3 7 5 7s4 -0.833008 6 -2.5s4 -3.66699 6 -6
s3.33301 -3.5 4 -3.5c1.33301 0 3.5 4.16699 6.5 12.5s8.16699 12.5 15.5 12.5c2.66699 0 5.66699 -1 9 -3s6 -3 8 -3c2.66699 0 7.66699 4.66699 15 14s13.666 14 18.999 14c-2 0 4.5 -0.333008 19.5 -1s34.167 -1 57.5 -1c12.667 0 22.334 2.66699 29.001 8
s14.334 8 23.001 8c8 0 13.333 -5 16 -15s4 -22.333 4 -37c0 -18.667 -1.16699 -40 -3.5 -64s-3.5 -45.333 -3.5 -64v-39c0 -4.66699 -0.166992 -11 -0.5 -19s-0.833008 -17.667 -1.5 -29l-4 -71c-4 -73.333 -6 -106.333 -6 -99c0 -37.333 2 -65.666 6 -84.999
c2 -3.33301 5.33301 -32 10 -86c-3.33301 -10 -8.5 -13.333 -15.5 -10s-13.833 5 -20.5 5c-0.666992 0 -6.33398 -3.83301 -17.001 -11.5s-23.667 -11.5 -39 -11.5c-4.66699 0 -11.334 2.33301 -20.001 7s-14 7 -16 7c-4 0 -8 -2.66699 -12 -8l-36 32
c-10.667 0 -16 -3.33301 -16 -10v-6c0 -10 -3.33301 -15 -10 -15c-5.33301 0 -11.5 2 -18.5 6s-14.5 9 -22.5 15l-23.5 18.5l-19.5 16.5l-18 16l-53 55c-19.333 19.333 -38.666 35.333 -57.999 48c-1.33301 1.33301 -2.66602 2 -3.99902 2c-10 0 -15 -11.333 -15 -34v-14
c0 -42 -5.33301 -69.333 -16 -82h-3c-2.66699 0 -7 1.33301 -13 4s-10 4 -12 4c-0.666992 -0.666992 -2.83398 -4.16699 -6.50098 -10.5s-8.33398 -13.833 -14.001 -22.5s-10.834 -14.667 -15.501 -18l-22 -16c-7.33301 -5.33301 -12.666 -11.666 -15.999 -18.999
c-1.33301 0 -4.5 2 -9.5 6s-11.333 8.33301 -19 13s-15.5 9 -23.5 13s-15.667 6 -23 6c-4 0 -9.5 -0.333008 -16.5 -1s-12.5 -1 -16.5 -1c-1.33301 0 -3.33301 0.166992 -6 0.5s-6 0.833008 -10 1.5l-10 30c0 -1.33301 1 32 3 100l2 66c0.666992 10.667 1 19.667 1 27v19v12
c0 16 -0.333008 30.667 -1 44s-1.66699 25.333 -3 36c-4 16 -6 36.667 -6 62c0 8 0.333008 20.333 1 37s1 29 1 37v18c0 2 -0.333008 5 -1 9s-1 7 -1 9c0 7.33301 -1 18.166 -3 32.499s-3 25.166 -3 32.499c0 18 3.33301 27 10 27c2.66699 0 6.33398 -1.66699 11.001 -5
s7.33398 -5 8.00098 -5c4.66699 1.33301 10 2.66602 16 3.99902s13.333 3.33301 22 6c14 5.33301 23 14.666 27 27.999c1.33301 0 3 -2 5 -6l6.5 -13.5c2.33301 -5 4.66602 -9.66699 6.99902 -14s4.5 -7.16602 6.5 -8.49902z" />
    <glyph glyph-name="O" unicode="O" horiz-adv-x="688" 
d="M398 734l19.002 -15.001c81.333 -14.667 143.666 -45.667 186.999 -93c16 -18 24 -33.333 24 -46c0 -4 -0.333008 -6.66699 -1 -8c27.333 -89.333 41 -179.666 41 -270.999c-6.66699 -32 -11.667 -53 -15 -63c-6.66699 -23.333 -14.167 -42.833 -22.5 -58.5
s-17.833 -28.834 -28.5 -39.501c-6.66699 -1.33301 -13.5 -1.66602 -20.5 -0.999023s-13.5 1 -19.5 1c-2 0 -5.66699 -0.666992 -11 -2c-88 -30 -165.667 -45 -233 -45c-17.333 7.33301 -30.666 16.666 -39.999 27.999c-30 0 -57.5 7.83301 -82.5 23.5
s-53.833 37.5 -86.5 65.5c-2.66699 2 -8.33398 6.83301 -17.001 14.5s-17.5 17 -26.5 28s-17.167 23 -24.5 36s-11 26.167 -11 39.5c0 3.33301 0.166992 9 0.5 17s0.5 13.667 0.5 17c0 17.333 -3.66699 30.666 -11 39.999c7.33301 54.667 17.333 99.334 30 134.001
c32 86 92.667 147.667 182 185h2c6 0 11.667 -3 17 -9c4.66699 -5.33301 12.667 -7.16602 24 -5.49902s23.833 4.66699 37.5 9l40.5 13c13.333 4.33301 24 6.5 32 6.5c7.33301 0 11.666 -0.333008 12.999 -1zM434.002 474.999l-43.999 41.9971
c-18.667 0 -38 -2.66699 -58 -8c-6.66699 -2 -15.167 -4.33301 -25.5 -7s-20.333 -6.83398 -30 -12.501s-17.834 -13.667 -24.501 -24s-10 -24.5 -10 -42.5c0 -10 2.16699 -19.833 6.5 -29.5s9.83301 -18.5 16.5 -26.5s13.667 -15.167 21 -21.5s14 -10.833 20 -13.5h14
c2.66699 0 6 0.333008 10 1s7.66699 0.333984 11 -0.999023l26 -2c10 -0.666992 19.5 0.333008 28.5 3s16.167 7.33398 21.5 14.001l21 55c4 10.667 6 22.334 6 35.001c0 14.667 -3.33301 27.334 -10 38.001zM608.003 275.996l-6 -3.99902l-42 -74
c2.66699 -4 6.66699 -6 12 -6h7c10.667 0 16.167 2.66699 16.5 8s2.5 9.66602 6.5 12.999l10 47c1.33301 6 0 11.333 -4 16z" />
    <glyph glyph-name="P" unicode="P" horiz-adv-x="566" 
d="M160 725l3.99219 -0.00292969c2.66699 0 6.83398 -0.666992 12.501 -2s9.83398 -2 12.501 -2c7.33301 0 11.333 4.5 12 13.5s3 14.167 7 15.5h2c6 0 10.333 -1.33301 13 -4l13 -10c45.333 0 90.666 -6.66699 135.999 -20c3.33301 -2.66699 6.5 -5.66699 9.5 -9
s7 -7.16602 12 -11.499s11.667 -9.83301 20 -16.5s19.833 -14.667 34.5 -24l50 -33l16.5 -10.5c3.66699 -2.33301 6.33398 -4.66602 8.00098 -6.99902s2.83398 -5.16602 3.50098 -8.49902s1.66699 -8.66602 3 -15.999l7 -39c6.66699 -33.333 10 -56.333 10 -69
c0 -26.667 -6.33301 -50.667 -19 -72c-2 -1.33301 -4.5 -5.5 -7.5 -12.5l-10 -23.5c-3.66699 -8.66699 -7.33398 -16.667 -11.001 -24s-7.16699 -12 -10.5 -14c-11.333 -19.333 -32.666 -36 -63.999 -50c-77.333 -34 -117.333 -53 -120 -57
c0 -5.33301 0.666992 -13.333 2 -24l5 -40l4 -34c0.666992 -5.33301 1.16699 -9.5 1.5 -12.5s0.5 -5.16699 0.5 -6.5c-6.66699 -6.66699 -11.667 -10 -15 -10h-2c-4.66699 0 -9.66699 4.33301 -15 13s-9.33301 13 -12 13c-1.33301 0 -3.33301 -0.666992 -6 -2s-5 -2 -7 -2
c-2.66699 0 -5.66699 1 -9 3s-5.66602 3 -6.99902 3h-3c-0.666992 0 -3.66699 -5 -9 -15s-10 -15 -14 -15c-5.33301 0 -9.66602 2 -12.999 6s-6 8.66699 -8 14s-4 10 -6 14s-4.66699 6 -8 6c-5.33301 0 -11.666 -5.33301 -18.999 -16
c-4.66699 -4.66699 -14.667 -7.83398 -30 -9.50098s-31.333 -2.5 -48 -2.5c-5.33301 0 -8 5.66699 -8 17c0 5.33301 -2.33301 9.33301 -7 12h-2c-5.33301 0 -10.5 -4.16699 -15.5 -12.5s-9.5 -12.5 -13.5 -12.5h-2c2 0 4.16699 8.16699 6.5 24.5l7.5 55
c2.66699 20.333 4.83398 39.833 6.50098 58.5s2.5 30 2.5 34c-2 6.66699 -4.33301 20.667 -7 42s-5.16699 44.166 -7.5 68.499s-4.33301 47.5 -6 69.5s-2.5 37.333 -2.5 46c0 14 1.33301 24.667 4 32l-22 178v26l39 2c6 -4.66699 11.333 -12 16 -22l12 -26
c3.33301 -8.66699 5.5 -10 6.5 -4s1.5 16.667 1.5 32c0 6.66699 1 9.83398 3 9.50098s4.5 -2 7.5 -5l10 -10.5c3.66699 -4 6.83398 -6 9.50098 -6c4.66699 0 7 8.33301 7 25s2 25 6 25c3.33301 0 6.83301 -4.5 10.5 -13.5s7.5 -16.167 11.5 -21.5zM361.992 485.997
l-54.002 41.998c-2.66699 2.66699 -5.66699 4.33398 -9 5.00098s-5.66602 1 -6.99902 1c-10 0 -15 -12 -15 -36c0 -6.66699 0.333008 -14.167 1 -22.5s1.83398 -16.333 3.50098 -24s3.5 -14 5.5 -19s4.33301 -7.5 7 -7.5l11 5c38.667 16.667 58 33.334 58 50.001
c0 3.33301 -0.333008 5.33301 -1 6z" />
    <glyph glyph-name="Q" unicode="Q" horiz-adv-x="729" 
d="M363 742l22.002 -13c61.333 0 115.333 -11.667 162 -35c11.333 -5.33301 23.333 -12.5 36 -21.5s24.667 -19 36 -30s20.666 -22.833 27.999 -35.5s11 -25.334 11 -38.001v-5c0 -4.66699 2.16699 -14.5 6.5 -29.5l14.5 -48l14.5 -48c4.33301 -15 6.5 -25.167 6.5 -30.5
c0 -10 -3.16699 -20.333 -9.5 -31s-13.5 -21.167 -21.5 -31.5s-15.167 -20.333 -21.5 -30s-9.5 -18.167 -9.5 -25.5c0 -12 3 -24.333 9 -37s13 -25.667 21 -39l24 -41c8 -14 13.333 -28.333 16 -43c1.33301 -9.33301 -5.66699 -14 -21 -14l-16.5 8l-33 15.5
c-12.333 5.66699 -19.833 8.5 -22.5 8.5s-4 -1.33301 -4 -4c0 -3.33301 2 -8.16602 6 -14.499s6 -10.833 6 -13.5c0 -4 -3 -6 -9 -6c0.666992 0 -1.16602 1.33301 -5.49902 4s-9.33301 5.5 -15 8.5s-10.834 5 -15.501 6s-7 0.166992 -7 -2.5s0.5 -6.16699 1.5 -10.5
s1.5 -7.5 1.5 -9.5c0 -1.33301 -1 -2.66602 -3 -3.99902h-2c-2.66699 0 -8.66699 3.16699 -18 9.5s-17 12.5 -23 18.5l-5 5c-12.667 10 -24.334 15 -35.001 15h-6c-10 0 -22.167 -1.33301 -36.5 -4s-28.666 -5.5 -42.999 -8.5l-42 -8.5
c-13.667 -2.66699 -24.834 -4 -33.501 -4c-81.333 0 -150 25 -206 75c-28 24.667 -46 52 -54 82l-23 36c-4 6 -9 15.167 -15 27.5s-9 24.833 -9 37.5c0 16 5 30.333 15 43l-6 32l17 44c7.33301 18.667 15.666 38.167 24.999 58.5s19.5 39.666 30.5 57.999
s22.167 33.166 33.5 44.499s24 18.833 38 22.5s28.667 9.83398 44 18.501c44.667 25.333 93.334 38 146.001 38zM314.002 546l-10 -13.001c-38 -48.667 -57 -89.667 -57 -123c0 -4 3.5 -11.333 10.5 -22s13.167 -18.667 18.5 -24l7 -8c7.33301 -10 21.333 -15 42 -15
c8 0 19.5 1.16699 34.5 3.5s26.5 3.5 34.5 3.5c12.667 8.66699 25.667 21.334 39 38.001l14.5 19l19.5 25l2 18c-4 8.66699 -10.167 19.167 -18.5 31.5l-31.5 44.5c-2 0 -8.16699 1.16699 -18.5 3.5l-34 7.5l-34.5 7.5c-10.667 2.33301 -16.667 3.5 -18 3.5z" />
    <glyph glyph-name="R" unicode="R" horiz-adv-x="533" 
d="M250 772l92.0059 -54.9971c10.667 -6.66699 23.667 -16.334 39 -29.001l53 -42c45.333 -34.667 71.666 -72 78.999 -112c-6.66699 -5.33301 -13 -17.333 -19 -36s-12.333 -35.334 -19 -50.001l-65 -80c0 -9.33301 0.5 -16.833 1.5 -22.5s2.83301 -11.5 5.5 -17.5
s6.5 -12.833 11.5 -20.5s11.5 -18.167 19.5 -31.5l59 -98l4 -24c-7.33301 -2.66699 -17.666 -4 -30.999 -4c-18 0 -36.333 3.66699 -55 11c-2.66699 -0.666992 -6.66699 -6 -12 -16s-10.333 -15 -15 -15c-28 8.66699 -43.667 13 -47 13
c-6.66699 0 -12.334 -2.16699 -17.001 -6.5s-10 -6.5 -16 -6.5c-12.667 0 -24.334 9.5 -35.001 28.5s-22.334 37.5 -35.001 55.5c-8 -1.33301 -12 -7.33301 -12 -18v-16c0 -4 -1.16699 -10.667 -3.5 -20s-4.83301 -14 -7.5 -14c-6 0 -9 3.33301 -9 10v8
c0 9.33301 -2 12.666 -6 9.99902s-8.66699 -4 -14 -4c-2.66699 0 -5.33398 0.166992 -8.00098 0.5s-5.66699 0.833008 -9 1.5c-1.33301 -0.666992 -4.33301 -3.33398 -9 -8.00098l-15 -15.5c-5.33301 -5.66699 -10.333 -10.667 -15 -15s-7.66699 -6.5 -9 -6.5
c-2.66699 0 -6 1.83301 -10 5.5l-13 12.5c-4.66699 4.66699 -9.33398 8.83398 -14.001 12.501s-9 5.5 -13 5.5l-9 -2l-38 -19l-4 8c-2 4 -3.16699 9.83301 -3.5 17.5s-0.5 15.834 -0.5 24.501v29v22c0 8 0.333008 17 1 27c0.666992 25.333 1.66699 41.666 3 48.999
c0 14.667 -0.666992 25.5 -2 32.5s-2 18.167 -2 33.5c0 9.33301 0.666992 23.5 2 42.5s2 33.167 2 42.5v26c0 2.66699 -0.666992 6 -2 10s-2 6.66699 -2 8c0.666992 6 1.16699 11.167 1.5 15.5s0.5 7.83301 0.5 10.5c0 8.66699 -0.333008 18.167 -1 28.5
s-1.66699 20.166 -3 29.499s-2.33301 17.833 -3 25.5s-1 12.834 -1 15.501c0 18.667 2.66699 35 8 49c0 12.667 -1.33301 26 -4 40c0 17.333 8.66699 26 26 26c2 0 6 -0.833008 12 -2.5l19 -5.5c6.66699 -2 12.5 -3.83301 17.5 -5.5l7.5 -2.5c2 0 5.66699 2.33301 11 7
s9.66602 7 12.999 7c4 0 8.33301 -3 13 -9l13 -16h4c10 0 17 2.5 21 7.5s7.66699 10.667 11 17s7.5 12 12.5 17s13.5 7.5 25.5 7.5h8c1.33301 0 5.33301 -1.33301 12 -4zM230.006 572.003c-3.33301 -11.333 -5.00098 -24.667 -5.00098 -40c0 -21.333 1 -44.333 3 -69l4 -7
c1.33301 -3.33301 5.5 -2.33301 12.5 3s14.333 12 22 20s14.667 16 21 24s9.5 13 9.5 15c-19.333 31.333 -41.666 49.333 -66.999 54z" />
    <glyph glyph-name="S" unicode="S" horiz-adv-x="511" 
d="M268 750l4.00195 -0.00390625l2 -15c0.666992 -5.33301 1.5 -9.16602 2.5 -11.499s1.66699 -4.33301 2 -6s0 -4 -1 -7s-2.83301 -7.83301 -5.5 -14.5c1.33301 0 5.33301 2 12 6s13.667 8.5 21 13.5s14.333 9.5 21 13.5s10.667 6 12 6c11.333 0 25.666 -2.66699 42.999 -8
s39 -8 65 -8c1.33301 0 3.33301 0.666992 6 2c1.33301 1.33301 2 0 2 -4c0 -2 -1.66699 -5.83301 -5 -11.5l-11 -18l-11 -17c-3.33301 -5 -5 -7.83301 -5 -8.5h4c1.33301 0 6.83301 1.33301 16.5 4s18.5 5 26.5 7s12.667 3.33301 14 4c10.667 0 11.5 -4.16699 2.5 -12.5
s-20.667 -18.333 -35 -30l-42 -35.5c-13.667 -12 -19.834 -21.667 -18.501 -29l12 -70c2.66699 -20 16 -39.333 40 -58c7.33301 -32.667 11 -63.334 11 -92.001c0 -39.333 -4.66699 -69.333 -14 -90c-6.66699 -14 -14.834 -29 -24.501 -45s-20 -30.833 -31 -44.5
s-22.5 -25 -34.5 -34s-24 -13.5 -36 -13.5c-6 0 -9.66699 2.16699 -11 6.5s-1.5 9 -0.5 14s2.33301 9.66699 4 14s2.5 6.83301 2.5 7.5c0 4 -2 6.33301 -6 7s-10.667 1 -20 1c-7.33301 0 -18.5 -2.5 -33.5 -7.5s-25.833 -7.5 -32.5 -7.5c-5.33301 0 -9.5 2.33301 -12.5 7
s-5.83301 9.83398 -8.5 15.501s-5.5 10.834 -8.5 15.501s-7.16699 7 -12.5 7c-6 0 -14.667 -1.83301 -26 -5.5s-20 -5.5 -26 -5.5c-14 0 -21 1.33301 -21 4c0 1.33301 2.33301 4.33301 7 9s7 8.33398 7 11.001v2l-6 4c-4 2.66699 -12.167 1.66699 -24.5 -3
s-24.5 -7 -36.5 -7c-9.33301 0 -18.666 2.66699 -27.999 8v4l116 54c43.333 20 71.333 51.333 84 94v5c0 6.66699 -4.5 16.834 -13.5 30.501s-16.833 27.167 -23.5 40.5l-26 21l-14 92c36.667 68.667 59.667 109.667 69 123l26.5 33.5c9 11 18.833 21.833 29.5 32.5z" />
    <glyph glyph-name="T" unicode="T" horiz-adv-x="602" 
d="M542 726c-0.666992 -2 -2.33594 -6.00391 -5.00293 -12.0039s-4 -10 -4 -12c0 -3.33301 2 -6 6 -8l14 -2v-2c0 -7.33301 -1.66699 -17 -5 -29s-5 -19.333 -5 -22c-4.66699 -13.333 -16.667 -21.666 -36 -24.999s-39 -7.66602 -59 -12.999v-2c0 -6 3.66699 -9 11 -9
c16 0 36 -2 60 -6l60 -10c0.666992 0 1 -1.33301 1 -4c6.66699 -14 -10.666 -21 -51.999 -21h-31c-8.66699 0 -16.5 -1.16699 -23.5 -3.5s-10.5 -4.83301 -10.5 -7.5c0 -5.33301 7.33301 -9.33301 22 -12c10 -2 15 -4.66699 15 -8s-2.83301 -6.5 -8.5 -9.5
s-12.667 -5.5 -21 -7.5s-15.5 -3 -21.5 -3h-16c-3.33301 0 -6.66602 0.166992 -9.99902 0.5s-6.66602 0.833008 -9.99902 1.5l-28 2c-4.66699 -7.33301 -7.83398 -18.333 -9.50098 -33s-2.5 -30.667 -2.5 -48c0 -15.333 0.333008 -31.166 1 -47.499s1 -31.5 1 -45.5v-44.5
c0 -15 -0.333008 -30.5 -1 -46.5c-0.666992 -5.33301 -1 -10 -1 -14v-10c0 -6 0.333008 -15.167 1 -27.5s1 -21.5 1 -27.5c0 2.66699 -2.5 0.333984 -7.5 -6.99902l-18 -26c-7 -10 -14.333 -19.333 -22 -28s-14.167 -13 -19.5 -13c-11.333 0 -20.333 14.333 -27 43
c-22.667 28.667 -46.667 43 -72 43c-6 -2.66699 -16 -5.66699 -30 -9c-3.33301 0 -7.33301 3 -12 9l-7 9c-2 2.66699 -3.33301 5.66699 -4 9s-1 5.33301 -1 6c0 3.33301 0.333008 5.33301 1 6l5 158c0 2.66699 -0.166992 7.16699 -0.5 13.5s-0.833008 14.833 -1.5 25.5
l-4 53c0 4.66699 -0.333008 10.667 -1 18l-2 21.5c-0.666992 7 -1.33398 12.833 -2.00098 17.5s-1 6.66699 -1 6l-6 5c-1.33301 1.33301 -4.5 1.83301 -9.5 1.5s-11 -1 -18 -2l-21.5 -3c-7.33301 -1 -14 -1.5 -20 -1.5c-36 0 -54 7 -54 21c0 6 3.16699 12 9.5 18
s9.5 14 9.5 24c0 4.66699 1.83301 8.66699 5.5 12s7.83398 6 12.501 8s9 3.5 13 4.5s6 2.16699 6 3.5s-2.83301 3.33301 -8.5 6l-18.5 8.5c-6.66699 3 -12.834 6.16699 -18.501 9.5s-8.5 6 -8.5 8c0 4.66699 3.5 10.334 10.5 17.001s10.5 11 10.5 13
c0 -2.66699 -2 2.66602 -6 15.999c-1.33301 1.33301 -2 3 -2 5c0 4 2 10.667 6 20s6 15.666 6 18.999l8 5l328 -4c14.667 1.33301 32.834 2.83301 54.501 4.5s46.834 2.83398 75.501 3.50098c12 -0.666992 21.667 -3.66699 29 -9z" />
    <glyph glyph-name="U" unicode="U" horiz-adv-x="636" 
d="M543 782c0 -4 0.50293 -9.6709 1.50293 -17.0039s2.5 -14.666 4.5 -21.999s4.33301 -13.833 7 -19.5s5.66699 -8.5 9 -8.5s8.33301 0.5 15 1.5s11.667 1.5 15 1.5c9.33301 0 16.333 -3.33301 21 -10l-9 -178c-4 -82.667 -6 -135.334 -6 -158.001l2 -222
c-14.667 -8.66699 -22 -21.334 -22 -38.001c0 -2.66699 0.666992 -7.16699 2 -13.5s2 -11.166 2 -14.499v-3c0 -2 -1.33301 -3 -4 -3c-6 0 -13.667 6.33301 -23 19s-17 22.667 -23 30c-2 -10.667 -5.66699 -16 -11 -16c-2.66699 0 -6.33398 2.5 -11.001 7.5l-14.5 16
l-14.5 16c-4.66699 5 -8.33398 7.5 -11.001 7.5c-3.33301 0 -6 -2.5 -8 -7.5s-3.5 -11.167 -4.5 -18.5s-1.5 -15 -1.5 -23v-21v-24c0 -0.666992 -1.33301 -1.16699 -4 -1.5s-4.33398 -0.5 -5.00098 -0.5c-1.33301 0 -4 4.66699 -8 14s-9 14 -15 14
c-8.66699 0 -14 -5.33301 -16 -16l-3 -13c-0.666992 -4 -2.33398 -7.33301 -5.00098 -10c-11.333 0 -18.833 5.83301 -22.5 17.5s-6.33398 24.667 -8.00098 39s-3.83398 27.333 -6.50098 39s-8.66699 17.5 -18 17.5c-6 0 -15.667 -4 -29 -12
c-39.333 -24 -60.666 -36 -63.999 -36c-74 0 -136 20 -186 60c-32.667 26 -49 65.667 -49 119c0 0.666992 0.5 5 1.5 13s2 18 3 30s2 25.167 3 39.5s1.5 28.5 1.5 42.5v13c0 2.66699 -0.166992 5.66699 -0.5 9s-0.833008 7.33301 -1.5 12
c0.666992 5.33301 1.16699 10.333 1.5 15s0.5 9.66699 0.5 15v27v13c0 5.33301 -0.333008 11.333 -1 18l-4 87c-0.666992 7.33301 -1 13.5 -1 18.5v12.5v35c0 22 5.33301 33 16 33c2.66699 0 6.83398 -1 12.501 -3s9.83398 -3 12.501 -3c6 0 11.167 -3 15.5 -9
s8 -13.667 11 -23s5.83301 -19.666 8.5 -30.999s5.66699 -22.333 9 -33c4 2.66699 7 9.33398 9 20.001s4.66699 20.667 8 30l13 45c5.33301 16 12.333 29 21 39l10 -1v-29c0 -41.333 4 -70.666 12 -87.999c0.666992 1.33301 2.66699 8.5 6 21.5s7.33301 27.167 12 42.5
s10 29.333 16 42s12 19 18 19c3.33301 0 5.33301 -0.333008 6 -1l4 -5c0.666992 -0.666992 0.833984 -3 0.500977 -7s-0.833008 -8.33301 -1.5 -13l-2 -35c-0.666992 -6.66699 -1 -11 -1 -13s0 -2.33301 0 -1v-22l6 -4l42 32c1.33301 1.33301 2 -1.33398 2 -8.00098
c0 -3.33301 -0.666992 -8.16602 -2 -14.499s-2 -10.833 -2 -13.5v-2c0 -4.66699 -1 -19 -3 -43l-7 -82c-3.33301 -38.667 -5.83301 -71.667 -7.5 -99s-2.5 -49.333 -2.5 -66c7.33301 -6 18.833 -10.833 34.5 -14.5l41.5 -9.5c16 2 24 14 24 36c0 18 -2 36.833 -6 56.5
s-6.33301 37.834 -7 54.501l-4 94c-0.666992 7.33301 -1 13.833 -1 19.5v13.5c0 46 4.33301 82 13 108c2 6 6.33301 9.33301 13 10h12l2 -18c1.33301 -13.333 3.33301 -26 6 -38s5.66699 -18 9 -18c4 0 6.83301 4.33301 8.5 13s3.66699 18 6 28s5.83301 19.333 10.5 28
s11.667 13 21 13s22 -3.66699 38 -11c0 -34 4.33301 -58.333 13 -73c6.66699 0 10 5 10 15c0 16 1.33301 30.333 4 43l5 26c1.33301 7.33301 4.66602 14.333 9.99902 21s10.333 11.667 15 15z" />
    <glyph glyph-name="V" unicode="V" horiz-adv-x="748" 
d="M306 674l63.9941 -179.996h2c6.66699 0 11.334 5 14.001 15l91 267c0.666992 3.33301 3.16699 4 7.5 2s9 -5.16699 14 -9.5s9.33301 -9.16602 13 -14.499s5.5 -10 5.5 -14v-8c0 -3.33301 2.33301 -5 7 -5c2.66699 0 6 2.33301 10 7s8 10 12 16s8.33301 11.333 13 16
s9 7 13 7h4c4 0 6 -3.33301 6 -10c0 -3.33301 -1 -8.33301 -3 -15s-0.333008 -10 5 -10c6 0 14 4.66699 24 14s18.667 14.666 26 15.999v-5c0 -6 -2.33301 -15.333 -7 -28s-7 -20.334 -7 -23.001c0 -10.667 4 -13.334 12 -8.00098s16.833 12.833 26.5 22.5l26.5 26
c8 7.66699 12 8.16699 12 1.5c0 -2.66699 -1 -6.66699 -3 -12s-3 -8.66602 -3 -9.99902c0 -3.33301 2 -5.83301 6 -7.5s8.16699 -3.16699 12.5 -4.5s8.5 -3.33301 12.5 -6s6 -7 6 -13c0 -13.333 -5.16699 -28.333 -15.5 -45s-19.166 -33.667 -26.499 -51l-81 -185l-59 -155
c-6 -15.333 -12.5 -34.666 -19.5 -57.999l-24.5 -81v-16c0 -15.333 -6.33301 -23 -19 -23c-6.66699 0 -10 2 -10 6v15c0 8 -3.33301 11.667 -10 11l-11 -3c-5.33301 -1.33301 -9.16602 0 -11.499 4s-3.5 8.33301 -3.5 13c0 4 0.666992 9.66699 2 17s2 13 2 17
c0 7.33301 -1 11 -3 11c-1.33301 0 -3.16602 -2.33301 -5.49902 -7s-4.83301 -10 -7.5 -16s-5.16699 -12.167 -7.5 -18.5s-4.16602 -11.166 -5.49902 -14.499l-6 -16c-2.66699 0 -5.33398 1.83301 -8.00098 5.5s-5.16699 7.5 -7.5 11.5s-5 7.83301 -8 11.5
s-5.83301 5.5 -8.5 5.5c-0.666992 -0.666992 -4.16699 -3 -10.5 -7l-20.5 -13.5c-7.33301 -5 -11.666 -7.5 -12.999 -7.5c-2.66699 0 -6.66699 1.5 -12 4.5s-8.66602 4.5 -9.99902 4.5l-10 -17c-2.66699 -4 -5.33398 -6 -8.00098 -6c-14 0 -25.833 4.66699 -35.5 14
s-18.167 21.666 -25.5 36.999s-14.5 32.666 -21.5 51.999s-14.5 39 -22.5 59c-14.667 59.333 -39.667 130.666 -75 213.999l-88 210l-2 6c0 13.333 1.66699 20 5 20c2 0 4.83301 -2.33301 8.5 -7l12 -16c4.33301 -6 9 -11.333 14 -16s9.83301 -7 14.5 -7
c2 0 6.16699 2.66699 12.5 8l20 17l19 16c5.66699 4.66699 8.5 6.66699 8.5 6c-0.666992 3.33301 -1 8.66602 -1 15.999c0 5.33301 0.666992 8.5 2 9.5s3.16602 1 5.49902 0s4.83301 -2.5 7.5 -4.5s5.33398 -3 8.00098 -3s7.66699 2.5 15 7.5s12 7.5 14 7.5
c6 0 10.333 -6 13 -18c-2 2 -0.166992 0.833008 5.5 -3.5l20 -16l21 -18c6.33301 -5.66699 9.16602 -8.5 8.49902 -8.5c2.66699 0 4 3.66699 4 11c0 4.66699 -1.16699 11 -3.5 19s-5 16.167 -8 24.5l-8 23c-2.33301 7 -3.5 11.833 -3.5 14.5c0 7.33301 3.33301 7.5 10 0.5
s14.334 -16.833 23.001 -29.5s16.834 -25.834 24.501 -39.501s12.5 -23.5 14.5 -29.5z" />
    <glyph glyph-name="W" unicode="W" horiz-adv-x="973" 
d="M756 761l-4.99805 -68.9961c4 -4 7.66699 -6 11 -6c2.66699 0 8.16699 3.33301 16.5 10s13.833 10 16.5 10h2c2 0 5 1 9 3s7 3 9 3c5.33301 0 8 -3.33301 8 -10c0 -2.66699 -0.666992 -6.33398 -2 -11.001s-2 -8.33398 -2 -11.001c0 -5.33301 4 -8 12 -8h2
c1.33301 0 3.66602 3.33301 6.99902 10l11.5 22.5c4.33301 8.33301 8.66602 15.833 12.999 22.5s8.16602 10 11.499 10c4 0 6 -7 6 -21c0 -11.333 1 -17 3 -17s5 2.5 9 7.5s9.16699 10.5 15.5 16.5s13.5 9 21.5 9c10.667 0 18 -5 22 -15l-4 -19l-64 -160l-85 -228l-45 -196
c-3.33301 -12 -7.83301 -22.333 -13.5 -31s-14.5 -13 -26.5 -13c-10.667 0 -18 4.66699 -22 14c0 13.333 -6.16699 23.833 -18.5 31.5s-25.5 11.5 -39.5 11.5c-6 0 -12.333 3.5 -19 10.5s-13.167 15.833 -19.5 26.5s-12.833 22.5 -19.5 35.5l-20 38.5l-58 108
c-3.33301 5.33301 -6.66602 8 -9.99902 8s-6 -1.66699 -8 -5l-16 -23l-94 -192l-10 -7c-0.666992 -0.666992 -2 -1 -4 -1c-7.33301 0 -10.5 4.33301 -9.5 13s1.5 14.334 1.5 17.001c0 4.66699 -3 7 -9 7h-2l-10 -10l-22 -22.5c-8 -8.33301 -15.667 -15.833 -23 -22.5
s-11.333 -10 -12 -10c-4 0 -10.667 -2.5 -20 -7.5s-14.666 -7.5 -15.999 -7.5s-3.5 2.16699 -6.5 6.5s-6.5 9.83301 -10.5 16.5l-12.5 21l-11.5 19l-45 123l-22.5 62l-19.5 57c-3.33301 8.66699 -7.66602 21.667 -12.999 39s-12.333 38.666 -21 63.999l-46 141l-6 47
c-0.666992 4.66699 -0.166992 9.66699 1.5 15s3.16699 9.33301 4.5 12h3c3.33301 0 6.66602 -2.16699 9.99902 -6.5s5.66602 -6.83301 6.99902 -7.5l20 1c3.33301 0 9.33301 -10.333 18 -31l12 -25c6 -12.667 12.167 -25 18.5 -37s12.166 -21.333 17.499 -28
s8 -5.33398 8 3.99902c0 10 -1.33301 20.667 -4 32s-5.5 22.333 -8.5 33s-5.83301 20 -8.5 28s-4 14 -4 18c0 16.667 3.66699 25 11 25c6 0 11.5 -3.66699 16.5 -11s10.167 -11 15.5 -11c6.66699 0 12.334 -2.33301 17.001 -7l13.5 -14
c4.33301 -4.66699 8.5 -7.66699 12.5 -9s9 1.33398 15 8.00098c5.33301 6.66699 9.66602 10.167 12.999 10.5s6.16602 -1.33398 8.49902 -5.00098s4.5 -8.33398 6.5 -14.001s5 -11.167 9 -16.5h2c3.33301 0 10.333 4.33301 21 13c4.66699 -6.66699 10.5 -21.667 17.5 -45
s14.5 -45.666 22.5 -66.999h2c4.66699 0 12.167 9.66699 22.5 29l34.5 64c12.667 23.333 25.667 44.666 39 63.999s25.333 29 36 29c3.33301 0 7.5 -1.66699 12.5 -5s8.83301 -5 11.5 -5c0.666992 0.666992 4.16699 3.5 10.5 8.5s13.833 10.5 22.5 16.5s15 9 19 9
c5.33301 0 11.333 -3.33301 18 -10s13.5 -15 20.5 -25s13.833 -20.667 20.5 -32s12.334 -21.666 17.001 -30.999c0 -1.33301 2.5 -7.83301 7.5 -19.5s10.833 -24.334 17.5 -38.001s13.167 -26.167 19.5 -37.5s10.833 -17 13.5 -17h2c4.66699 0 13.334 29 26.001 87l17 75
c9.33301 37.333 23.333 56 42 56c3.33301 0 6 -0.333008 8 -1z" />
    <glyph glyph-name="X" unicode="X" horiz-adv-x="736" 
d="M557 750l5.00195 -5.99609v-2c0 -2 -1.33301 -4.83301 -4 -8.5s-4 -6.16699 -4 -7.5c0 -2.66699 2.33301 -4.33398 7 -5.00098c1.33301 8 13 17 35 27h11c6 0 9 -2 9 -6c0 -2 -1.16699 -6.5 -3.5 -13.5s-3.5 -11.833 -3.5 -14.5c0 -3.33301 7.33301 -12.333 22 -27
l-7.5 -11c-3.66699 -5.33301 -7.5 -11.5 -11.5 -18.5s-7.5 -14.333 -10.5 -22s-4.5 -14.834 -4.5 -21.501c0 -5.33301 4.66699 -4 14 4l22 16c20.667 16 33 24 37 24c6.66699 0 16 -4.33301 28 -13s18 -16.334 18 -23.001l-2 -6l-168 -188l3 -18l115 -134
c5.33301 -6.66699 8 -14 8 -22v-4c0 -3.33301 -3.5 -6.33301 -10.5 -9s-10.5 -6.33398 -10.5 -11.001c0 -2 1.16699 -5.33301 3.5 -10s3.5 -9 3.5 -13c0 -26 -12 -39 -36 -39c-6 0 -20 3.66699 -42 11c-2.66699 -2.66699 -4 -6.66699 -4 -12c0 -2 0.333008 -4.83301 1 -8.5
s1 -6.5 1 -8.5v-4h-2c-4.66699 0 -11.667 -2.83301 -21 -8.5s-15 -8.5 -17 -8.5c-6.66699 0 -14.334 4.33301 -23.001 13l-17 15c-4 3.33301 -8.66699 6.5 -14 9.5s-8 1.5 -8 -4.5c0 -1.33301 1.33301 -4.66602 4 -9.99902s4 -9.33301 4 -12
c0 -4.66699 -2.5 -8.83398 -7.5 -12.501s-9.83301 -5.5 -14.5 -5.5l-83 108c-3.33301 4 -7 6 -11 6s-7.33301 -1.33301 -10 -4l-108 -130c-6.66699 16 -16.334 24 -29.001 24c-3.33301 0 -10.166 1.16699 -20.499 3.5s-18.166 3.5 -23.499 3.5c-7.33301 0 -14 -0.5 -20 -1.5
s-9 4.5 -9 16.5c0 4 1.66699 8.83301 5 14.5s5 8.83398 5 9.50098v2c0 2 -3.33301 3 -10 3c-4.66699 0 -12.5 -4.5 -23.5 -13.5s-19.833 -13.5 -26.5 -13.5h-6l-10 2c1.33301 0 2 4 2 12c0 5.33301 -2 12.666 -6 21.999s-6 16.666 -6 21.999
c0 4.66699 1.66699 9.33398 5 14.001l94 138c24 34.667 36 57.334 36 68.001v5c0 11.333 -5.83301 25.333 -17.5 42s-26.334 35 -44.001 55s-37.167 40.667 -58.5 62l-61 62c-8 8 -8.5 11.167 -1.5 9.5s16.5 -5.33398 28.5 -11.001l35.5 -17.5c11.667 -6 18.167 -9 19.5 -9
c1.33301 8.66699 3 13.834 5 15.501s4.66699 1.66699 8 0s7.33301 -4 12 -7s9.66699 -4.5 15 -4.5c2.66699 0 4 2 4 6c0 2.66699 -0.666992 6.5 -2 11.5s-2 8.5 -2 10.5c0 6 2.16699 9.16699 6.5 9.5s9 -0.5 14 -2.5s9.83301 -4.33301 14.5 -7l7 -4c8 0 11 3.5 9 10.5
s-3 12.167 -3 15.5c0 4 2 7.33301 6 10h2c4.66699 0 10 5 16 15s9.33301 15 10 15c5.33301 -4.66699 12.666 -10.334 21.999 -17.001s16.666 -10 21.999 -10h4l5.5 11c3.66699 7.33301 5.83398 11.333 6.50098 12l9 -4c11.333 -5.33301 23.333 -18 36 -38l41 -62l8 2
c6 1.33301 22.333 22.333 49 63c35.333 51.333 68.333 77 99 77c8.66699 0 17 -1.33301 25 -4z" />
    <glyph glyph-name="Y" unicode="Y" horiz-adv-x="632" 
d="M583 761l24.0068 0.00292969c3.33301 -6.66699 5 -13.667 5 -21c0 -6 -1 -14 -3 -24c-0.666992 -4.66699 -1.5 -12 -2.5 -22s-2.5 -21.667 -4.5 -35s-4.83301 -27.833 -8.5 -43.5s-8.5 -30.834 -14.5 -45.501l-30.5 -66c-13 -28 -28.167 -62.667 -45.5 -104
c-7.33301 -18 -18.333 -41.333 -33 -70s-27.667 -62 -39 -100l-16 -54c-4.66699 -16.667 -12 -32.334 -22 -47.001c-6 0 -12 4.16699 -18 12.5s-11 12.5 -15 12.5s-7.83301 -3 -11.5 -9l-11.5 -19c-4 -6.66699 -8.5 -13 -13.5 -19s-10.833 -9 -17.5 -9h-5
c0.666992 5.33301 1.16699 9.83301 1.5 13.5s0.5 6.83398 0.5 9.50098c0 9.33301 -0.833008 16.166 -2.5 20.499s-4.16699 7.16602 -7.5 8.49902s-7.33301 1.83301 -12 1.5s-10 -0.5 -16 -0.5c-13.333 0 -24.833 3.5 -34.5 10.5s-20.834 10.5 -33.501 10.5
c-0.666992 0 -10.667 -3 -30 -9c-2 -1.33301 -4.83301 -3 -8.5 -5s-7.16699 -3.33301 -10.5 -4s-6.33301 -0.166992 -9 1.5s-4 5.83398 -4 12.501c0 8 4.66699 19 14 33s18 27.667 26 41l54 94l-4 18l-119 121l-82 97c0.666992 -0.666992 1.66699 0.333008 3 3s2 5 2 7
c0 0.666992 -0.666992 4.33398 -2 11.001l-6 12c-0.666992 2 -0.333984 3.66699 0.999023 5s5 3.33301 11 6h2c2 0 4.83301 -1.83301 8.5 -5.5s6.16699 -5.5 7.5 -5.5c4 0 5.33301 2 4 6c-0.666992 3.33301 -1.83398 7.33301 -3.50098 12s-3.83398 9.66699 -6.50098 15l-4 6
l7.5 6c5 4 10.667 8.83301 17 14.5s12.333 11.667 18 18s9.5 12.166 11.5 17.499c2 0 7.16699 -3.33301 15.5 -10s14.5 -10 18.5 -10s6.16699 2 6.5 6s0.166016 8.16699 -0.500977 12.5s-1.83398 8.16602 -3.50098 11.499s-2.5 4 -2.5 2c0 2.66699 2.33301 6 7 10h2
c2.66699 0 8 -2.66699 16 -8s14.333 -8 19 -8c5.33301 0 10 4.16699 14 12.5s8.66699 12.5 14 12.5c10 0 20.333 -6.16699 31 -18.5s21.167 -26.166 31.5 -41.499l29 -44.5c9 -14.333 16.833 -23.833 23.5 -28.5c12 2 26 16 42 42l63 104c4 6.66699 9 10 15 10
c5.33301 0 8.66602 -3 9.99902 -9s5 -9 11 -9h4c3.33301 0 8 0.666992 14 2s10.333 2 13 2c8.66699 0 14.334 -4.33301 17.001 -13c0.666992 1.33301 4.16699 5.16602 10.5 11.499s14.666 13.333 24.999 21s19.5 11.5 27.5 11.5c6 0 11 -3.33301 15 -10z" />
    <glyph glyph-name="Z" unicode="Z" horiz-adv-x="750" 
d="M730 726l-7.00098 -22.001l-31 -35c-12 -14 -25.333 -31 -40 -51l-23 -33l-29 -41l-23.5 -33.5l-25.5 -36.5l-51 -72c-3.33301 -5.33301 -9.33301 -14.166 -18 -26.499s-13 -23.833 -13 -34.5c0 -6 2.33301 -11 7 -15s13.334 -6 26.001 -6c6 0 15 0.666992 27 2
s21 2 27 2c5.33301 0 13.333 0.166992 24 0.5s24 0.833008 40 1.5l48 2h19c10.667 0 16 -1 16 -3s-5.33301 -5 -16 -9s-22.834 -8 -36.501 -12s-27 -7.66699 -40 -11s-21.833 -5.66602 -26.5 -6.99902c6 -2.66699 19.167 -5.16699 39.5 -7.5
s39.166 -5.16602 56.499 -8.49902l1 -7l-45.5 -13c-13.667 -4 -25.834 -7.33301 -36.501 -10c2.66699 -1.33301 7.5 -2.83301 14.5 -4.5s15.167 -3.5 24.5 -5.5l29.5 -6.5c10.333 -2.33301 19.5 -4.83301 27.5 -7.5v-2c0 -2.66699 -6.66699 -5 -20 -7
s-27.833 -3.66699 -43.5 -5s-30.167 -3 -43.5 -5s-20 -4.33301 -20 -7c0 -6 12.333 -9 37 -9h23c8 0 15.667 -1 23 -3c10 -5.33301 14.167 -10 12.5 -14s-5.83398 -7.83301 -12.501 -11.5s-13.5 -7.83398 -20.5 -12.501s-10.5 -10 -10.5 -16v-16c0 -4 -7.33301 -6 -22 -6
c-5.33301 0 -13.666 1 -24.999 3s-19.666 3 -24.999 3c-10 0 -25 -1 -45 -3s-35 -3 -45 -3c-31.333 0 -54 3.33301 -68 10c-11.333 1.33301 -24.333 2.33301 -39 3s-30.667 1 -48 1c-9.33301 0 -22.333 -0.166992 -39 -0.5s-36.667 -0.833008 -60 -1.5l-70 -2
c-2.66699 0 -7.16699 1.5 -13.5 4.5s-12.666 6.5 -18.999 10.5s-11.833 8.16699 -16.5 12.5s-7 7.83301 -7 10.5l2 8l114 166l86 184c1.33301 1.33301 2 3 2 5v3c0 6 -5.66699 9.66699 -17 11c-9.33301 0 -21.5 -1.33301 -36.5 -4s-31.5 -7 -49.5 -13l-36 -12l-66 -23
l-57 -21v2c0 3.33301 2 9.16602 6 17.499s6 14.5 6 18.5c0 5.33301 -3.33301 10 -10 14v6c0 1.33301 2.33301 3.66602 7 6.99902l17 12c6.66699 4.66699 13.834 9.33398 21.501 14.001s14.5 9 20.5 13l12 7c0.666992 0 -0.5 2.5 -3.5 7.5s-4.5 8.16699 -4.5 9.5
c0 2.66699 14 8.66699 42 18l33 10c5.33301 1.33301 9.83301 2.66602 13.5 3.99902s6.83398 2.66602 9.50098 3.99902v2c0 2 -3.33301 3.5 -10 4.5s-10.334 1.5 -11.001 1.5c0.666992 0 -2.66602 -0.5 -9.99902 -1.5s-19.333 -2.83301 -36 -5.5
c-3.33301 -0.666992 -6.33301 -1 -9 -1c-16.667 0 -25 1.66699 -25 5c0 2 2 4.33301 6 7l12.5 8.5c4.33301 3 8.5 6.33301 12.5 10s6 7.5 6 11.5c0 2 -1 4.66699 -3 8s-3 6 -3 8s1.66699 3.83301 5 5.5s7 3.33398 11 5.00098s7.66699 3.5 11 5.5s5 4.66699 5 8
c-25.333 13.333 -38 24.333 -38 33v9l12 2l196 -11h144l173 -4c11.333 -6.66699 19.666 -10 24.999 -10s10.833 3.83301 16.5 11.5s14.167 12.834 25.5 15.501h4c6 0 12.667 -6.66699 20 -20z" />
    <glyph glyph-name="bracketleft" unicode="[" horiz-adv-x="430" 
d="M148 688c0.666992 0 2.82617 1.83203 6.49316 5.49902l12 12l12.5 12c4 3.66699 7 5.5 9 5.5c4.66699 -10 9.33398 -15 14.001 -15c5.33301 0 11 2.66699 17 8s14.333 8 25 8c6.66699 0 13 -3.5 19 -10.5l17 -19.5l94 10c7.33301 -4 11 -7.66699 11 -11l-5 -4
c-0.666992 -0.666992 -2.66699 -2.16699 -6 -4.5s-6.66602 -4.83301 -9.99902 -7.5l-9.5 -7.5c-3 -2.33301 -4.5 -4.16602 -4.5 -5.49902c12.667 -3.33301 19 -7.33301 19 -12c0 -5.33301 -4.83301 -10.5 -14.5 -15.5s-14.5 -10.5 -14.5 -16.5v-2c0 -2 10 -5.66699 30 -11
l24 -6c4 -0.666992 7.33301 -1.5 10 -2.5s4.66699 -1.83301 6 -2.5v-5c-26.667 -4 -40 -16 -40 -36c0 -4 -4.83301 -7.33301 -14.5 -10s-20.5 -5.33398 -32.5 -8.00098s-23.667 -5.66699 -35 -9s-18.666 -7.66602 -21.999 -12.999c0 -4.66699 -0.5 -12.5 -1.5 -23.5
s-2.16699 -22.333 -3.5 -34l-3.5 -31.5c-1 -9.33301 -1.5 -14.666 -1.5 -15.999c-3.33301 -36.667 -5.83301 -66 -7.5 -88s-2.5 -37.333 -2.5 -46l6 -6h72c5.33301 0 13 -1 23 -3s19 -4.5 27 -7.5s13 -6 15 -9s-2.66699 -5.5 -14 -7.5l-32 -5
c-2.66699 -0.666992 -4.66699 -2 -6 -4s-2 -3.33301 -2 -4c0 -6 7.16699 -11 21.5 -15s26.5 -7.66699 36.5 -11v0c0 -6 -2.83301 -10.167 -8.5 -12.5s-12.167 -4 -19.5 -5s-13.833 -2 -19.5 -3s-8.5 -3.5 -8.5 -7.5s5 -10.667 15 -20
c-4.66699 -10.667 -14 -15.334 -28 -14.001l-27 2c-18.667 0.666992 -28 -4.33301 -28 -15c0 -0.666992 2.66699 -2.16699 8 -4.5l18.5 -8c7 -3 14.333 -6.33301 22 -10s13.834 -7.16699 18.501 -10.5l-6 -3l-8 0.5c-5.33301 0.333008 -12 0.5 -20 0.5
c-8.66699 -0.666992 -20.5 -1 -35.5 -1s-33.5 -0.333008 -55.5 -1l-122 -1c-30 0 -45 10.667 -45 32c0 6.66699 1.33301 13.667 4 21l1 190c0 10.667 -0.833008 26.167 -2.5 46.5s-2.5 35.5 -2.5 45.5v30c0 38 -2.33301 66.667 -7 86c0.666992 2 1 8.33301 1 19
c0 6.66699 -0.5 14.834 -1.5 24.501l-3.5 34.5l-3 28c-0.666992 6.66699 -2.16699 13.5 -4.5 20.5s-4.16602 15.167 -5.49902 24.5c0 12.667 10.333 19 31 19h21c6.66699 0 11.5 2.5 14.5 7.5s6.83301 7.5 11.5 7.5h4c6.66699 0 14.334 -4.83301 23.001 -14.5
s16.334 -17.834 23.001 -24.501z" />
    <glyph glyph-name="backslash" unicode="\" horiz-adv-x="567" 
d="M191 744c-1.33301 -2.66699 -2.00098 -7.00098 -2.00098 -13.001c0 -4 1 -10.167 3 -18.5s3 -14.5 3 -18.5v-3l-4 1c-4.66699 1.33301 -10 5 -16 11s-11.833 12.5 -17.5 19.5s-11 13.167 -16 18.5s-8.83301 8 -11.5 8c-4 0 -6 -8.66699 -6 -26
c0 -5.33301 -1.66699 -9 -5 -11h-2c-3.33301 0 -7.5 2.33301 -12.5 7s-8.5 7 -10.5 7h-2c-3.33301 0 -8.16602 0.666992 -14.499 2s-11.166 2 -14.499 2c-7.33301 0 -10.666 -3.33301 -9.99902 -10c1.33301 -5.33301 3.16602 -11.833 5.49902 -19.5l7.5 -25.5
c2 -7.33301 0.333008 -11 -5 -11c-2 0 -7.66699 3 -17 9s-16.333 9 -21 9c-2 0 -3 -1 -3 -3c0 -4.66699 2.33301 -11.167 7 -19.5s10.167 -17.5 16.5 -27.5l20 -30.5l18.5 -27.5c10.667 -18 24.334 -46.167 41.001 -84.5l52 -121.5l51 -122
c16 -38.667 29 -67.334 39 -86.001l9 -14c4.66699 -7.33301 10 -15 16 -23s12 -15.333 18 -22s11 -10 15 -10c6 0 12 1.83301 18 5.5s11.833 7.83398 17.5 12.501l15.5 13c4.66699 4 8.33398 6.66699 11.001 8l26 -21c1.33301 -1.33301 3.5 -3 6.5 -5s6.16699 -3.5 9.5 -4.5
s6.16602 -0.833008 8.49902 0.5s3.5 4.66602 3.5 9.99902c0 3.33301 -0.833008 8.33301 -2.5 15s-2.5 11.667 -2.5 15c0 8 5 12 15 12c3.33301 0 7.66602 3.16699 12.999 9.5s9.66602 9.5 12.999 9.5h2c0.666992 -0.666992 2 -1.5 4 -2.5s4.66699 -2.5 8 -4.5l43 -34
c8 -6.66699 12.5 -8.66699 13.5 -6s0.333008 7.33398 -2 14.001s-5.33301 14.167 -9 22.5s-6.16699 14.833 -7.5 19.5c13.333 3.33301 20 10 20 20c0 4 -2 8 -6 12l-96 178c-13.333 25.333 -26.5 51.666 -39.5 78.999s-24.5 55.333 -34.5 84
c-0.666992 2 -3.66699 12.333 -9 31s-11.5 38.834 -18.5 60.501s-13.833 41.334 -20.5 59.001s-11.667 26.5 -15 26.5c-2.66699 0 -6.16699 -2 -10.5 -6s-8.66602 -8.33301 -12.999 -13s-9 -9 -14 -13s-9.5 -6 -13.5 -6h-4c-4 0 -7.83301 3 -11.5 9
s-7.33398 12.667 -11.001 20s-7.5 14 -11.5 20s-8 9 -12 9c-6.66699 0 -12 -2 -16 -6z" />
    <glyph glyph-name="bracketright" unicode="]" horiz-adv-x="474" 
d="M427 702l4.99609 -39c2 -14 6.16699 -24.5 12.5 -31.5s9.5 -15.5 9.5 -25.5c0 -4 -0.333008 -10.167 -1 -18.5s-1.5 -17 -2.5 -26s-1.83301 -17.333 -2.5 -25s-1.33398 -12.834 -2.00098 -15.501l-16 -237c0 -2 -0.833008 -4.83301 -2.5 -8.5
s-2.5 -6.83398 -2.5 -9.50098c0 -5.33301 1.33301 -12.666 4 -21.999s4 -16.666 4 -21.999c0 -8.66699 -4 -16 -12 -22c0 -20.667 -4.33301 -54 -13 -100l-20 -9h-57c-19.333 0 -39.666 -0.333008 -60.999 -1l-116 -1c-6.66699 0 -12.5 1.5 -17.5 4.5s-7.5 6.16699 -7.5 9.5
l8 13c4 6.66699 -11.333 12 -46 16h-9c-18 0 -27 2.33301 -27 7c0 2.66699 2.5 6 7.5 10s11 8.16699 18 12.5l21.5 13l19 11.5l-25.5 12.5l-19.5 9.5c0 18 -4.66699 28 -14 30l-10 2c12.667 12.667 46 24 100 34l32 6c5.33301 1.33301 8.83301 8.33301 10.5 21
s2.5 27 2.5 43c0 12 -0.333008 24.167 -1 36.5s-1.5 22.5 -2.5 30.5s-1.83301 13.333 -2.5 16s-1 0.666992 -1 -6c0 -0.666992 0.166992 4.83301 0.5 16.5l1.5 52.5l2 70l-10 8h-61c-0.666992 0 -3.66699 0.166992 -9 0.5l-25 1.5c-15.333 0.666992 -30.666 3 -45.999 7
s-23 9.66699 -23 17c0 4.66699 7.83301 7.83398 23.5 9.50098s29.834 5.16699 42.501 10.5l2 17c4.66699 0 15.334 0.666992 32.001 2s34 3 52 5s34.167 4.5 48.5 7.5s21.5 6.16699 21.5 9.5c0 5.33301 -7.33301 7.66602 -22 6.99902l-28 -2c-5.33301 -0.666992 -29 2 -71 8
c-27.333 4 -47.666 14.667 -60.999 32l212 2c2 0 44 4 126 12c16 0 25.667 -4 29 -12z" />
    <glyph glyph-name="FLW95" unicode="_" horiz-adv-x="578" 
d="M101 294l443.001 -18.001c5.33301 0 9 -2 11 -6s3 -8.66699 3 -14c0 -4.66699 -2.16699 -10.667 -6.5 -18s-9.83301 -14.833 -16.5 -22.5s-13.834 -14.834 -21.501 -21.501s-14.5 -12 -20.5 -16v-2c0 -2.66699 3.33301 -5 10 -7s10 -4.66699 10 -8s-2.66699 -6.5 -8 -9.5
s-11.166 -6 -17.499 -9s-11.833 -5.83301 -16.5 -8.5s-6 -5 -4 -7c0 -0.666992 1.83301 -2.66699 5.5 -6s5.5 -6.33301 5.5 -9c0 -12 -32.333 -18 -97 -18h-43c-16 0 -35 -0.666992 -57 -2s-46.667 -3.33301 -74 -6c-15.333 -1.33301 -35 -3.66602 -59 -6.99902
s-46.333 -5 -67 -5c-14.667 0 -27.5 1.33301 -38.5 4s-18.5 7.33398 -22.5 14.001v2c0 2 1.5 4.5 4.5 7.5s6.33301 6.16699 10 9.5l10 9c3 2.66699 4.5 4.66699 4.5 6c0 2 -0.833008 4.66699 -2.5 8s-2.5 6 -2.5 8c0 7.33301 2.66699 11.833 8 13.5s11.333 2.66699 18 3
s12.667 1.16602 18 2.49902s8 5.66602 8 12.999c0 8 1.16699 14.167 3.5 18.5s4.83301 7.83301 7.5 10.5s5.16699 4.83398 7.5 6.50098s3.5 3.83398 3.5 6.50098c0 1.33301 -0.666992 4 -2 8l-9 38c-0.666992 3.33301 -3.33398 7.83301 -8.00098 13.5s-7 9.16699 -7 10.5
c0 3.33301 3 6 9 8z" />
    <glyph glyph-name="a" unicode="a" horiz-adv-x="757" 
d="M426 740c-4 -8 -5.99414 -16.334 -5.99414 -25.001v-7c0 -4 2.66699 -6.16699 8 -6.5s11.333 0 18 1s13 2.16699 19 3.5s9.33301 2 10 2c2.66699 0 7.16699 -1.33301 13.5 -4s10.833 -4 13.5 -4c4.66699 0 8.5 2.33301 11.5 7s7.5 7 13.5 7
c15.333 0 27.666 -8 36.999 -24s17.5 -36.333 24.5 -61s13.167 -52 18.5 -82s11 -59 17 -87l18 -78l10.5 -53c4.33301 -22 11.166 -46 20.499 -72l63 -174c2 -5.33301 0.833008 -9.5 -3.5 -12.5s-7.83301 -4.5 -10.5 -4.5s-6.83398 1.5 -12.501 4.5l-17.5 9.5
c-6 3.33301 -11.333 6.5 -16 9.5s-7.33398 4.5 -8.00098 4.5c-6.66699 0 -13.667 -5.66699 -21 -17c-2.66699 0 -6.16699 2.66699 -10.5 8s-8.66602 10.333 -12.999 15s-8.16602 7.66699 -11.499 9s-5 -1.66699 -5 -9c0 0.666992 0.666992 -2.33301 2 -9v-3
c0 -6 -3.33301 -9.83301 -10 -11.5s-13 -3.16699 -19 -4.5c-4 0 -8 2.16699 -12 6.5s-8 9 -12 14l-11 14c-3.33301 4.33301 -6 6.5 -8 6.5c-3.33301 0 -5.5 -1.83301 -6.5 -5.5s-1.66699 -7.5 -2 -11.5s-0.833008 -7.83301 -1.5 -11.5s-2.33398 -5.5 -5.00098 -5.5
s-6 4 -10 12s-8.5 17.833 -13.5 29.5l-15 36.5c-5 12.667 -9.83301 23.667 -14.5 33c-27.333 0 -53.333 -0.666992 -78 -2s-48.334 -3.33301 -71.001 -6c-4 -2.66699 -7.5 -9.66699 -10.5 -21s-7.33301 -23.166 -13 -35.499s-13.5 -23.333 -23.5 -33
s-23.667 -14.5 -41 -14.5c-6 0 -11.333 -2 -16 -6h-2c-4 0 -6.66699 1.66699 -8 5l-8 7c-30 -12 -53.667 -27.667 -71 -47l-7 -1c0.666992 6.66699 1.16699 12.334 1.5 17.001s0.5 8.33398 0.5 11.001c0 9.33301 -2 13.333 -6 12s-8 -2 -12 -2s-6.66699 1.66699 -8 5v2
c0 3.33301 1.33301 7.66602 4 12.999s4 8.66602 4 9.99902c0 7.33301 -2.66699 10 -8 8c-8 -2.66699 -19.667 -11.667 -35 -27l-10 -10l-31 1c0 11.333 15.333 37.333 46 78c13.333 5.33301 24.5 18 33.5 38l27.5 59l16 83c38.667 94.667 67 182 85 262
c18.667 46 42 89 70 129h2c3.33301 0 8.16602 -0.833008 14.499 -2.5s10.833 -2.5 13.5 -2.5c1.33301 1.33301 4.66602 5.33301 9.99902 12s10.333 10 15 10h4c2 -16.667 5.66699 -25 11 -25c2.66699 0 5.66699 1.83301 9 5.5l10.5 12c3.66699 4.33301 7.5 8.33301 11.5 12
s7.66699 5.5 11 5.5c4.66699 0 10 -4 16 -12zM414.006 474.999c-3.33301 -4 -15.332 -30.334 -35.999 -79.001c0 -12 3 -20.667 9 -26h8c1.33301 0 3.16602 0.333008 5.49902 1s4.83301 0.333984 7.5 -0.999023h16c10 0 17.167 2.66699 21.5 8s6.5 11.666 6.5 18.999
c0 8 -2.66699 17.333 -8 28l-9 19l-6 20c-2 6.66699 -7 10.334 -15 11.001z" />
    <glyph glyph-name="b" unicode="b" 
d="M260 704l159 -4.00684c-5.33301 0 -3.33301 -3.66699 6 -11c15.333 -11.333 30 -23.5 44 -36.5s26.333 -25.833 37 -38.5l17 -19c10 -12 19.333 -23.833 28 -35.5s13 -22.167 13 -31.5s-4 -21.666 -12 -36.999s-16 -27.666 -24 -36.999l-60 -71v-2
c0 -8 12.667 -27.667 38 -59c22.667 -26.667 34 -58.667 34 -96c-17.333 -59.333 -45 -100.666 -83 -123.999c-15.333 -9.33301 -30.666 -14 -45.999 -14c-18 0 -34.667 1.33301 -50 4l-7 1h-17c-2 0 -4.16699 -0.666992 -6.5 -2s-3.83301 -2 -4.5 -2
c-9.33301 0 -19.833 1.16699 -31.5 3.5s-23.5 5 -35.5 8s-23.333 5.66699 -34 8s-19.667 3.5 -27 3.5l-5.5 -3.5c-3.66699 -2.33301 -7.83398 -4.66602 -12.501 -6.99902s-9.5 -4.5 -14.5 -6.5s-8.83301 -3 -11.5 -3h-2l-10 16c-3.33301 5.33301 -7.33301 8 -12 8h-3
l-15 -24c-5.33301 -8 -17.666 -12.667 -36.999 -14l-19 -1c-8 -0.666992 -13.5 2.33301 -16.5 9s-4.5 15.334 -4.5 26.001c0 12.667 1.16699 26.834 3.5 42.501s3.5 30.167 3.5 43.5v60c0 8 0.666992 18.333 2 31s3 26 5 40s3.66699 27.333 5 40s2 23 2 31
c0 7.33301 -1.5 17.666 -4.5 30.999s-4.83301 23 -5.5 29c-2.66699 13.333 -4 44 -4 92v76c0 2 -3.66699 5.66699 -11 11s-11 9.66602 -11 12.999c0 1.33301 3.16699 4.5 9.5 9.5s11.166 8.5 14.499 10.5l2 30c5.33301 0 17.666 2.66699 36.999 8c26 -14 45.667 -21 59 -21
c1.33301 -1.33301 3.33301 -0.333008 6 3s4 6 4 8c0 8.66699 2.66699 12.834 8 12.501s11.666 -2.33301 18.999 -6s14.166 -7.66699 20.499 -12s10.5 -6.5 12.5 -6.5c2.66699 0 4.83398 1.83301 6.50098 5.5s3.33398 7.83398 5.00098 12.501s3.33398 8.83398 5.00098 12.501
s4.16699 5.5 7.5 5.5s7.33301 -2.5 12 -7.5zM264 555.993c-4 -4 -5.99707 -10.667 -5.99707 -20c0 -4.66699 1 -11 3 -19s3 -14.333 3 -19v-16c0 -6 2.16699 -8.33301 6.5 -7s9.16602 4.33301 14.499 9s10.166 10.5 14.499 17.5s6.5 12.833 6.5 17.5
c0 8.66699 -4.83301 17 -14.5 25s-18.834 12 -27.501 12zM260.003 321.993v-23c0 -2 -0.333008 -5.16699 -1 -9.5s-1 -7.5 -1 -9.5c0 -10.667 1.33301 -21.167 4 -31.5s8 -15.5 16 -15.5c7.33301 0 14.833 3.5 22.5 10.5s11.5 14.167 11.5 21.5c0 4 -1.83301 9.5 -5.5 16.5
s-8 13.833 -13 20.5s-10.5 12 -16.5 16s-11.667 5.33301 -17 4z" />
    <glyph glyph-name="c" unicode="c" horiz-adv-x="569" 
d="M424 710l0.000976562 -4.00195c0 -1.33301 -3.5 -4.16602 -10.5 -8.49902s-13.667 -9 -20 -14s-10.5 -9.5 -12.5 -13.5s2 -6 12 -6c3.33301 0 8.33301 0.5 15 1.5s12 1.5 16 1.5c3.33301 0 5 -0.666992 5 -2c0 -0.666992 -1.5 -2.33398 -4.5 -5.00098s-8.5 -6 -16.5 -10
c-8 -5.33301 -13.167 -10.666 -15.5 -15.999s3.5 -8 17.5 -8c6.66699 0 16.334 1.5 29.001 4.5s22.334 4.5 29.001 4.5c1.33301 -1.33301 2 -6.33301 2 -15c0 -4 1.66699 -6.66699 5 -8h25c-1.33301 -3.33301 -7.33301 -8 -18 -14s-20 -12 -28 -18
c0 -3.33301 3.16699 -6.33301 9.5 -9s9.83301 -4.33398 10.5 -5.00098v-2c0 -2 -1 -4.33301 -3 -7s-3 -5 -3 -7c0 -6 6.66699 -9 20 -9c2 0 5.66699 0.166992 11 0.5s9 0.5 11 0.5c6 0 9 -1 9 -3s-1.33301 -4.16699 -4 -6.5s-5.5 -4.66602 -8.5 -6.99902
s-4.5 -4.16602 -4.5 -5.49902c0 -5.33301 11 -9.33301 33 -12c11.333 -1.33301 16 -3 14 -5s-7 -3.83301 -15 -5.5s-17.333 -3.33398 -28 -5.00098s-19.334 -3.16699 -26.001 -4.5c-12.667 -2 -29.667 -6.16699 -51 -12.5s-42.166 -14.166 -62.499 -23.499
s-37.833 -20.333 -52.5 -33s-22 -27 -22 -43c0 -9.33301 3.5 -18.333 10.5 -27s15.5 -16.667 25.5 -24s20.833 -14 32.5 -20s22.167 -10.667 31.5 -14c10 -3.33301 49.333 -13.333 118 -30c-9.33301 -9.33301 -14 -15 -14 -17c0 -4 0.666992 -10 2 -18s2 -15 2 -21
c0 -4 -2.66699 -8.5 -8 -13.5s-8 -8.83301 -8 -11.5v-2c0 -2 -5.33301 -3 -16 -3h-7c-4 0 -7 0.333008 -9 1l-17 2c-14 1.33301 -21 0 -21 -4c0 -2.66699 2.16699 -5.83398 6.5 -9.50098s9.83301 -7.33398 16.5 -11.001s13.5 -7.16699 20.5 -10.5s13.167 -6 18.5 -8v-2
c2 -6 -8 -11.667 -30 -17l-29 -8c-10.667 -2.66699 -19.334 -6 -26.001 -10l23 -30l-6 -6c-14.667 0 -27.834 2 -39.501 6s-25.167 9 -40.5 15c-10.667 4 -23.667 10.833 -39 20.5l-48 29.5c-16.667 10 -33 19.167 -49 27.5s-30.333 13.5 -43 15.5
c-11.333 8 -21.333 15.833 -30 23.5s-17.334 16.5 -26.001 26.5l-29 34.5l-38 46.5c-4 12 -6 24.333 -6 37c0 8.66699 1.66699 20.334 5 35.001s7.5 30 12.5 46s10.333 31.333 16 46s11.167 26.667 16.5 36c36 68.667 72.667 103 110 103c57.333 49.333 114.333 82 171 98
c-14.667 -4.66699 -23 -12.334 -25 -23.001l6 -4l38 13c7.33301 2.66699 15.5 5.33398 24.5 8.00098s18.833 5.33398 29.5 8.00098z" />
    <glyph glyph-name="d" unicode="d" horiz-adv-x="684" 
d="M456 658h2.00293c6 0 11.167 -4.16699 15.5 -12.5s8.16602 -13.5 11.499 -15.5l82 -81.5c28.667 -29 50.667 -57.5 66 -85.5c12.667 -22.667 23 -46 31 -70c0 -3.33301 -3.66699 -7.16602 -11 -11.499s-11.333 -7.5 -12 -9.5c2 -10 3 -20.333 3 -31
c0 -48.667 -30 -102 -90 -160c-57.333 -54 -103.333 -81 -138 -81c-1.33301 0 -4.83301 -0.333008 -10.5 -1s-13.834 -2 -24.501 -4l-130 -23l-13.5 -2l-12.5 -2h-61c-60 0 -102.667 14 -128 42c2.66699 6 15.667 13.667 39 23c8.66699 3.33301 12.167 6.33301 10.5 9
s-5.33398 5 -11.001 7s-11.5 3.83301 -17.5 5.5s-9 3.83398 -9 6.50098c0 3.33301 8.66699 7.33301 26 12c8.66699 2 11.667 5.16699 9 9.5s-7.16699 9.16602 -13.5 14.499s-12.833 11.166 -19.5 17.499s-10 12.833 -10 19.5c0 2 2.33301 6.16699 7 12.5s7 11.5 7 15.5
c0 7.33301 3.66699 12.333 11 15s11.666 7.33398 12.999 14.001l-12 203c0 2 -2.66699 5.16699 -8 9.5s-8 8.16602 -8 11.499c0 4 3.33301 8.33301 10 13s10 8.66699 10 12v2c0 3.33301 -3.16699 8.33301 -9.5 15s-9.5 11.667 -9.5 15c0 8 -4.16699 14.667 -12.5 20
s-12.5 9.33301 -12.5 12c0 4 1.66699 8.66699 5 14s5 11.333 5 18c-1.33301 4.66699 -6.66602 14.667 -15.999 30c6.66699 8.66699 20.167 14 40.5 16s38.166 3 53.499 3c5.33301 0 12.833 -0.166992 22.5 -0.5s21.834 -0.833008 36.501 -1.5l44 -2
c0.666992 0 6.5 2.83301 17.5 8.5s24.167 8.5 39.5 8.5h26c2.66699 0 7 0.333008 13 1s10.333 1 13 1c60 0 103.333 -14 130 -42zM312.003 463l-0.999023 -168l7 -9c5.33301 1.33301 13.833 4.66602 25.5 9.99902s23.667 12 36 20s23.166 16.833 32.499 26.5
s14 19.167 14 28.5c0 8.66699 -3.83301 16.334 -11.5 23.001l-30.5 27l-52 46l-8 2c-6 0 -10 -2 -12 -6z" />
    <glyph glyph-name="e" unicode="e" horiz-adv-x="510" 
d="M142 687c1.33301 0 7.33887 0.501953 18.0059 1.50195s25.334 2.16699 44.001 3.5l37 3c5.33301 0.666992 10.166 1 14.499 1h10.5c3.33301 0 6.66602 -0.166992 9.99902 -0.5s6.66602 -0.833008 9.99902 -1.5h8c4 0 9.33301 0.666992 16 2l44 6
c11.333 1.33301 22.666 -3 33.999 -13c10 0.666992 21 2.16699 33 4.5s24.667 5.16602 38 8.49902h5c5.33301 0 8.66602 -2 9.99902 -6v-2c0 -4.66699 -3.66699 -10.5 -11 -17.5s-11 -11.167 -11 -12.5c0 -2.66699 3.66699 -6 11 -10h4c1.33301 0 2.5 0.166992 3.5 0.5
s1.83301 0.5 2.5 0.5c3.33301 0 4.16602 -1.16699 2.49902 -3.5s-4.33398 -5.33301 -8.00098 -9l-10.5 -11c-3.33301 -3.66699 -5 -6.83398 -5 -9.50098v-2c0 -2 4.66699 -5 14 -9s14 -8.33301 14 -13c-2 -2.66699 -7.83301 -5.66699 -17.5 -9s-14.167 -7 -13.5 -11
c0.666992 -3.33301 6.66699 -6.66602 18 -9.99902c12 -5.33301 16.333 -9.5 13 -12.5s-9.33301 -5.33301 -18 -7s-17.667 -3.16699 -27 -4.5s-14 -3.33301 -14 -6c0 -2 3.33301 -4.33301 10 -7s14.167 -5.5 22.5 -8.5s15.833 -6 22.5 -9s10 -5.83301 10 -8.5v-2
c0 -2.66699 -3.33301 -4.5 -10 -5.5s-15.334 -1.5 -26.001 -1.5c-16.667 0 -35.167 0.666992 -55.5 2s-37.166 2 -50.499 2h-9c-3.33301 0 -7 0.333008 -11 1c-34.667 2.66699 -52 -4.33301 -52 -21v-6l14 -9l99 8c8.66699 0.666992 19.667 1.16699 33 1.5
s29.333 0.5 48 0.5c0 -3.33301 3.33301 -8.33301 10 -15s8.66699 -11.667 6 -15l-11.5 -5.5c-6.33301 -3 -13.333 -7 -21 -12s-11.5 -9.5 -11.5 -13.5c0 -3.33301 1.33301 -7.33301 4 -12c0 -4 -4.33301 -9 -13 -15s-13 -11 -13 -15
c0.666992 -1.33301 5.16699 -4.83301 13.5 -10.5s12.5 -10.5 12.5 -14.5c0 -1.33301 -0.666992 -3.16602 -2 -5.49902s-2 -4.16602 -2 -5.49902s1.33301 -4 4 -8s4 -6.66699 4 -8v-2l-22 -12l-142 -5c-4 0 -6 -5 -6 -15c0 -3.33301 0.666992 -7.83301 2 -13.5
s2 -10.167 2 -13.5l10 -8c10.667 -0.666992 20.167 -1.16699 28.5 -1.5s15.5 -0.5 21.5 -0.5h10.5c4.33301 0 9.83301 0.333008 16.5 1l40 2c7.33301 0.666992 14 1 20 1h17c10.667 0 16 -1 16 -3s-0.666992 -4.5 -2 -7.5s-2 -5.16699 -2 -6.5
c0 -4.66699 4.33301 -6.5 13 -5.5s13.667 1.5 15 1.5c4 0 6 -1.66699 6 -5s-1.16699 -7.5 -3.5 -12.5s-5.5 -10.333 -9.5 -16l-11 -15.5c-6 -8 -9.5 -13.167 -10.5 -15.5s-1.16699 -4 -0.5 -5s2 -2.33301 4 -4s3 -5.83398 3 -12.501v-4l-37 -19
c-0.666992 -0.666992 1.33301 -3.16699 6 -7.5s7 -7.5 7 -9.5c0 -4 -2.33301 -7.5 -7 -10.5s-10.334 -5.5 -17.001 -7.5s-13.334 -3.5 -20.001 -4.5s-12.334 -1.5 -17.001 -1.5c-3.33301 0 -12.666 1.16699 -27.999 3.5s-33.666 3.5 -54.999 3.5h-12
c-4 0 -9.66699 -0.5 -17 -1.5s-13 -1.5 -17 -1.5c-5.33301 0 -13.166 0.333008 -23.499 1s-18.166 1 -23.499 1c-20 0 -37 -4 -51 -12h-4c-4 0 -9.66699 1 -17 3s-11.666 3 -12.999 3c-6.66699 0 -11.334 -3.33301 -14.001 -10c-3.33301 0.666992 -9.33301 3.5 -18 8.5
s-17.667 11.167 -27 18.5s-17.5 14.5 -24.5 21.5s-10.5 12.833 -10.5 17.5c0 1.33301 0.666992 7.83301 2 19.5s2.66602 26.167 3.99902 43.5s2.66602 36.666 3.99902 57.999s2 42.333 2 63c0 37.333 -1.66699 71.666 -5 102.999s-5.66602 65.666 -6.99902 102.999l-2 54
c4 10 6 24 6 42c0 8 -0.666992 20 -2 36s-2 28 -2 36v12c0 1.33301 0.333008 3.5 1 6.5s1 5.16699 1 6.5l6 6h2c5.33301 0 14 -3.16699 26 -9.5s19.667 -9.5 23 -9.5c6.66699 0 11.667 3.66699 15 11l4 19c4.66699 0 8.66699 -2.5 12 -7.5s6.5 -10.667 9.5 -17
s6.16699 -12.166 9.5 -17.499s7 -8.33301 11 -9z" />
    <glyph glyph-name="f" unicode="f" horiz-adv-x="541" 
d="M118 721c2 -1.33301 5.66211 -6.49512 10.9951 -15.4951s9.66602 -13.5 12.999 -13.5h2c3.33301 0 7 3.33301 11 10s7 10 9 10c8 -5.33301 17.833 -9 29.5 -11s24.5 -3 38.5 -3c16.667 0 33.834 0.666992 51.501 2s34.167 2 49.5 2h18c3.33301 0 8 -0.333008 14 -1
s10.667 -1 14 -1c4.66699 0 12.167 1.66699 22.5 5s17.833 5 22.5 5c14.667 0 22 -14.667 22 -44c0 -2 -2 -3.83301 -6 -5.5s-8.66699 -3.33398 -14 -5.00098s-10 -3.83398 -14 -6.50098s-6 -6 -6 -10c8 -3.33301 16 -5 24 -5h12c3.33301 0 8.16602 0.666992 14.499 2
s11.166 2 14.499 2h3c0.666992 0 1 -1.66699 1 -5c0 -2 -1.66699 -5 -5 -9s-7.16602 -8.16699 -11.499 -12.5s-8.16602 -8.5 -11.499 -12.5s-5 -7.33301 -5 -10c0 -4 1 -8.83301 3 -14.5s3 -14.167 3 -25.5c0 -2.66699 4.5 -6 13.5 -10s16.5 -8.33301 22.5 -13v0
c0 -2 -2.66699 -5.16699 -8 -9.5s-8 -8.16602 -8 -11.499c0 -7.33301 17.333 -19 52 -35l1 -8c0 -0.666992 -1.66699 -1 -5 -1h-10c-8 0 -19.5 1.33301 -34.5 4s-26.5 4 -34.5 4c-3.33301 -3.33301 -4.66602 -6.5 -3.99902 -9.5s1 -6.16699 1 -9.5
c0 -4.66699 -4 -9.83398 -12 -15.501s-12.333 -8.83398 -13 -9.50098c-0.666992 -2 0.333008 -3.5 3 -4.5s5.83398 -2 9.50098 -3s7.33398 -2.33301 11.001 -4s6.16699 -4.16699 7.5 -7.5v-2c0 -4.66699 -2 -11.167 -6 -19.5s-6 -13.833 -6 -16.5
c0 -6.66699 3.33301 -12.334 10 -17.001v-3c0 -9.33301 -4.33301 -14.333 -13 -15s-14.334 -3.66699 -17.001 -9v0c0 -4 4.66699 -9.16699 14 -15.5l14 -9.5c0 -4.66699 -5.5 -7.66699 -16.5 -9s-20.833 -2 -29.5 -2c-6.66699 0 -15.5 0.666992 -26.5 2l-41.5 5l-34 4
c-5.33301 0.666992 -9.66602 1.16699 -12.999 1.5s-5.66602 0.5 -6.99902 0.5l-9 -12c0 -8 0.5 -18.167 1.5 -30.5s1.83301 -25 2.5 -38s1.5 -25.5 2.5 -37.5s1.5 -21.667 1.5 -29c0 -14 -1 -28 -3 -42c-3.33301 -3.33301 -6 -5 -8 -5c-10 0 -17.167 4.16699 -21.5 12.5
s-11.166 18.833 -20.499 31.5c-1.33301 0.666992 -7.5 0.333984 -18.5 -0.999023s-24.5 -3.83301 -40.5 -7.5s-33.167 -8.5 -51.5 -14.5s-35.166 -13.333 -50.499 -22c-7.33301 0 -12.166 7 -14.499 21s-3.5 30.667 -3.5 50c0 22.667 0.833008 46.167 2.5 70.5
s2.5 44.166 2.5 59.499c0 24.667 -0.666992 48 -2 70s-3.33301 43 -6 63l3 10c0 90 -5 165.333 -15 226c0.666992 2 1.16699 4.5 1.5 7.5s0.166016 6.5 -0.500977 10.5c-0.666992 3.33301 -1 6.16602 -1 8.49902v5.5c0 12.667 2.5 17.5 7.5 14.5s10.167 -4.5 15.5 -4.5
c3.33301 0 9.33301 2.16699 18 6.5s13.667 6.5 15 6.5c6 -1.33301 13.167 -1.83301 21.5 -1.5s15.166 -2.5 20.499 -8.5zM265.995 496.005l-22 -0.000976562l-6 -4v-2c0 -12.667 12.667 -19 38 -19h20c-0.666992 0 0.5 0 3.5 0s7.83301 0.333008 14.5 1l39 2l11 4v4
c0 2.66699 -3.66699 4.83398 -11 6.50098s-16 3 -26 4s-20.667 1.83301 -32 2.5s-21 1 -29 1z" />
    <glyph glyph-name="g" unicode="g" horiz-adv-x="674" 
d="M436 704l2.00488 -4.00195v-2c0 -2.66699 -2.66699 -7.66699 -8 -15s-8 -11.666 -8 -12.999c0 -2 3.33301 -4 10 -6l81 6c2 0 3.5 -4.33301 4.5 -13s3.83301 -13.667 8.5 -15l52 5v-2c0 -2.66699 -2.33301 -7.16699 -7 -13.5s-7 -10.166 -7 -11.499c0 -2 2 -4.66699 6 -8
h16c6 0 9.66699 -1 11 -3s1.16602 -4.5 -0.500977 -7.5s-4.33398 -5.66699 -8.00098 -8s-7.16699 -4.16602 -10.5 -5.49902l-146 -50c-11.333 -4 -17 -10.667 -17 -20c0 -10 7 -15 21 -15c4 0 7.5 2 10.5 6s7.5 6 13.5 6c2 0 8 -3 18 -9l2 -2
c2.66699 -2.66699 5.33398 -4 8.00098 -4h2c2.66699 0 4.83398 2.16699 6.50098 6.5s3.83398 6.5 6.50098 6.5c4.66699 0 9 -7 13 -21c6 -10.667 10.5 -14.5 13.5 -11.5s8.16699 11.167 15.5 24.5c3.33301 4.66699 12.666 8.5 27.999 11.5s26.333 4.5 33 4.5
c14.667 0 23.834 -8.83301 27.501 -26.5s5.5 -37.167 5.5 -58.5c0 0.666992 -0.5 -2.83301 -1.5 -10.5s-2 -18 -3 -31s-2 -27.667 -3 -44s-1.5 -33.166 -1.5 -50.499c0 -22.667 2.66699 -51.5 8 -86.5s10.666 -68.167 15.999 -99.5c-1.33301 -4 -3.33301 -6 -6 -6
c-0.666992 0 -2.66699 2.66699 -6 8s-7.16602 11.166 -11.499 17.499l-12 17.5c-3.66699 5.33301 -6.5 8 -8.5 8c-2.66699 0 -4 -6.33301 -4 -19c0 -4 0.666992 -10 2 -18s2 -14 2 -18v-6c0 -4.66699 -1.33301 -6.16699 -4 -4.5s-5.83398 4.33398 -9.50098 8.00098l-11 11
c-3.66699 3.66699 -6.83398 5.5 -9.50098 5.5c-3.33301 0 -6.66602 -2.66699 -9.99902 -8v-4c0 -10.667 -4.33301 -18.334 -13 -23.001h-2c-3.33301 0 -7.33301 2.16699 -12 6.5s-8.66699 6.5 -12 6.5c-4 0 -9.33301 -2.16699 -16 -6.5s-12.334 -6.5 -17.001 -6.5l-4 21
c-0.666992 6 -3.33398 11.333 -8.00098 16h-2c-2.66699 0 -7.66699 -2.16699 -15 -6.5s-12.333 -6.83301 -15 -7.5c-4.66699 0 -11.834 -0.333008 -21.501 -1l-29.5 -2c-10 -0.666992 -19.167 -1.5 -27.5 -2.5s-13.5 -1.5 -15.5 -1.5c-5.33301 -0.666992 -10 -1 -14 -1h-11
c-19.333 0 -36.833 2.66699 -52.5 8s-30.834 13 -45.501 23c-24.667 16.667 -51.834 39 -81.501 67s-58.834 62.333 -87.501 103c-29.333 40.667 -44 71 -44 91c0 10.667 8 24 24 40c12.667 35.333 31.334 70.666 56.001 105.999c10 13.333 22 28 36 44s30 32.667 48 50
c9.33301 9.33301 24.5 18.333 45.5 27s44 16.5 69 23.5s49.833 12.667 74.5 17s45.667 6.5 63 6.5zM378.005 504.998l-1.99707 -0.00195312c-8.66699 0 -18.334 -5.83301 -29.001 -17.5s-20.834 -24.667 -30.501 -39s-17.667 -28.166 -24 -41.499s-9.5 -21.666 -9.5 -24.999
c0 -4 0.666992 -8 2 -12l49 -52c2 -2.66699 5.66699 -4 11 -4s7.66602 0 6.99902 0h10c33.333 0 50 14 50 42c0 6 -3.66699 29.333 -11 70l-7 40c-1.33301 6 -2.33301 11.167 -3 15.5s-1 7.83301 -1 10.5v2c0 7.33301 -4 11 -12 11z" />
    <glyph glyph-name="h" unicode="h" horiz-adv-x="614" 
d="M374 702l11.9951 -28.0039h2c2.66699 0 5.5 2.33301 8.5 7s5.16699 7 6.5 7c4.66699 0 9.16699 -5 13.5 -15s8.16602 -15 11.499 -15c-0.666992 0 4 4.16699 14 12.5s22.333 12.5 37 12.5c2 0 4.33301 1.16699 7 3.5s5.33398 3.5 8.00098 3.5
c10 -5.33301 17.667 -7 23 -5s9.33301 9.33301 12 22c2.66699 12 7.83398 16 15.501 12s11.5 -11 11.5 -21v-17l-2 -19c-1.33301 -9.33301 1 -17 7 -23l21 15l6 -7c1.33301 -2 2.16602 -10.667 2.49902 -26s0.833008 -32.333 1.5 -51l2 -54v-32
c0 -10 -0.333008 -24.667 -1 -44s-1 -33.666 -1 -42.999v-29c0 -9.33301 -4 -19.166 -12 -29.499s-12 -19.166 -12 -26.499v-14c0 -4.66699 1 -14 3 -28l5 -46c2.66699 -22.667 4.66699 -41.334 6 -56.001s2 -25.334 2 -32.001c0 -10.667 -3.66699 -23.834 -11 -39.501
s-11 -29.834 -11 -42.501v-18c0 -1.33301 -1.66699 -2.66602 -5 -3.99902l-5 -2c-2 -0.666992 -4.66699 0.333008 -8 3s-6.66602 5.83398 -9.99902 9.50098s-6.33301 7.16699 -9 10.5l-4 5c-4 0 -8 -1.66699 -12 -5s-6.33301 -5 -7 -5c-2.66699 0 -5.16699 2.5 -7.5 7.5
s-4.66602 10.333 -6.99902 16s-5 10.834 -8 15.501s-6.5 6.66699 -10.5 6c-5.33301 -1.33301 -12.5 -3 -21.5 -5s-19.5 -3.66699 -31.5 -5l-4.5 15c-1.66699 5.33301 -4.83398 8 -9.50098 8c-11.333 -19.333 -20.666 -31.333 -27.999 -36c-6.66699 0 -11 2.33301 -13 7
s-2.66699 9.5 -2 14.5s1.66699 9 3 12s2 3.16699 2 0.5c0 6 -2 18.667 -6 38l-5 19c-2 7.33301 -2.33301 15 -1 23s2 15.333 2 22c0 16 -2.66699 33 -8 51c-6 6 -13.333 9 -22 9l-24 -3c-8 -0.666992 -13.167 -4.83398 -15.5 -12.501s-3.5 -16.167 -3.5 -25.5
c0 -4.66699 0.166992 -9 0.5 -13s0.5 -7.33301 0.5 -10c0 -4 -0.333008 -10.5 -1 -19.5s-2.66699 -20.5 -6 -34.5c-2 -10.667 -8.16699 -21 -18.5 -31s-17.166 -18.333 -20.499 -25h-2c-1.33301 0 -4.33301 1.66699 -9 5s-8.33398 5 -11.001 5
c-1.33301 0 -6.66602 -4.66699 -15.999 -14c-4.66699 -2 -8.16699 -2.16699 -10.5 -0.5s-4.16602 3.83398 -5.49902 6.50098s-3 5.33398 -5 8.00098s-5 4 -9 4c-2 0 -4.83301 -1.66699 -8.5 -5s-6.83398 -5 -9.50098 -5c-0.666992 0 -6.83398 4.5 -18.501 13.5
s-20.5 17.167 -26.5 24.5h-11l-27 -30c-15.333 -16 -25.666 -24 -30.999 -24c-4 0 -8.66699 1.33301 -14 4l-2 5l9 80c0.666992 6.66699 1.33398 14.5 2.00098 23.5s1.66699 18.833 3 29.5c2.66699 28.667 4.33398 54 5.00098 76s1 41.333 1 58l-2 193
c0 5.33301 -0.333008 13.833 -1 25.5s-1 20.5 -1 26.5l-4 37c5.33301 2.66699 8.66602 6.33398 9.99902 11.001s2 9 2 13c0 8 0.833008 12.333 2.5 13s3.83398 -0.166016 6.50098 -2.49902s5.66699 -5.16602 9 -8.49902s6.66602 -5 9.99902 -5c6 0 10.167 4.33301 12.5 13
s5.5 19.334 9.5 32.001h4c5.33301 0 9.5 -2.33301 12.5 -7s5.33301 -10 7 -16s3.33398 -11.333 5.00098 -16s3.5 -7 5.5 -7c4 0 9 4.66699 15 14s11.667 16.666 17 21.999l8 14c4 6.66699 7.5 10 10.5 10s5.5 -2.16699 7.5 -6.5s3.5 -10 4.5 -17s1.5 -13.5 1.5 -19.5
c0 -11.333 3.33301 -16.666 10 -15.999s13.667 1 21 1c13.333 0 21.333 10.333 24 31c1.33301 9.33301 3 14.666 5 15.999s4 0.333008 6 -3s3.66699 -8.5 5 -15.5s2.33301 -13.833 3 -20.5l1 -12v-15c0 -8 -0.333008 -19.5 -1 -34.5s-1 -26.5 -1 -34.5
c0 -25.333 2.66699 -45.333 8 -60c3.33301 -3.33301 7.66602 -5 12.999 -5c14.667 0 24.167 3.33301 28.5 10s6.5 17.667 6.5 33v16c0 2 -0.166992 4.66699 -0.5 8s-0.5 6 -0.5 8v19c0 -0.666992 0 0.666016 0 3.99902s0.333008 8.33301 1 15l2 40l2 2h1
c2 0 4.83301 -1.33301 8.5 -4s6.16699 -4 7.5 -4c2.66699 0 5 2 7 6v18c0 2 -0.166992 4.66699 -0.5 8s-0.5 5.66602 -0.5 6.99902c0 18 3 27 9 27c6.66699 0 12.334 -6 17.001 -18z" />
    <glyph glyph-name="i" unicode="i" horiz-adv-x="312" 
d="M242 692c1.33301 1.33301 4.16797 4.99902 8.50098 10.999s8.83301 9 13.5 9h3c2.66699 0 4 -8.66699 4 -26c0 -4 -1.16699 -16.5 -3.5 -37.5s-5 -43.833 -8 -68.5s-5.66699 -47.5 -8 -68.5s-3.5 -33.5 -3.5 -37.5v-22c29.333 -86 44 -181.333 44 -286
c-2 -11.333 -10.667 -20.333 -26 -27s-34 -8.66699 -56 -6c-2 -12.667 -8.5 -21.667 -19.5 -27s-27.167 -11.666 -48.5 -18.999h-2c-2.66699 0 -5.5 2.16699 -8.5 6.5s-5.83301 9 -8.5 14s-5 9.66699 -7 14s-4 6.5 -6 6.5c-3.33301 0 -8.83301 -2.66699 -16.5 -8
s-12.834 -8 -15.501 -8c-0.666992 0 -2.83398 2 -6.50098 6s-8 8.33301 -13 13s-10 9 -15 13s-8.83301 6 -11.5 6c0 16.667 0.166992 33.5 0.5 50.5s0.833008 34.5 1.5 52.5v27v12c0 30 -2 60 -6 90c1.33301 18 2.33301 35.167 3 51.5s1 31.833 1 46.5v54
c0 7.33301 -0.166992 14.833 -0.5 22.5s-0.833008 14.834 -1.5 21.501l-4 47l-6 51l4 9c0 0.666992 1.33301 -0.833008 4 -4.5l9.5 -12.5l10.5 -14c3.33301 -4.66699 6 -8 8 -10l18 66c2 0 4.83301 -3.33301 8.5 -10l12 -22c4.33301 -8 8.5 -15.167 12.5 -21.5
s7.66699 -9.5 11 -9.5c9.33301 0 15.666 7.16699 18.999 21.5s7.33301 28.166 12 41.499h5c8.66699 0 15.334 -3.33301 20.001 -10v-9c0 -14.667 2 -22 6 -22c2 0 4.66699 2.83301 8 8.5l11 19c4 7 7.83301 13.333 11.5 19s6.5 8.5 8.5 8.5c3.33301 0 6.33301 -3 9 -9
s7.33398 -13.667 14.001 -23z" />
    <glyph glyph-name="j" unicode="j" horiz-adv-x="488" 
d="M224 710c4.66699 -6.66699 7.33203 -14.0059 7.99902 -22.0059l4 -27c2.66699 -22 10.667 -35 24 -39l5 4c1.33301 1.33301 2 5 2 11v9c0 4.66699 -0.333008 11.167 -1 19.5s-1 14.833 -1 19.5c0 10 1 17.667 3 23h4c5.33301 0 9.66602 -3 12.999 -9
s6.33301 -13.333 9 -22s5.16699 -18.167 7.5 -28.5s4.83301 -19.833 7.5 -28.5h2c2.66699 0 4.66699 1.83301 6 5.5s2.33301 5.83398 3 6.50098l7 38c2.66699 0 7.5 -3 14.5 -9s11.833 -9 14.5 -9c4.66699 0 8.83398 4.83301 12.501 14.5s8.83398 14.5 15.501 14.5h4
c1.33301 0 3 -0.333008 5 -1s3.66699 -1 5 -1c7.33301 0 13.333 7.33301 18 22l6 17c2 4.66699 4.66699 8.66699 8 12h18c6 0 9.66699 -6.33301 11 -19s2 -25 2 -37v-22l-2 -49c-0.666992 -16 0.666016 -33 3.99902 -51s5 -40 5 -66c0 -23.333 -2 -66.666 -6 -129.999
l-5 -65c-0.666992 -9.33301 -1.16699 -16.833 -1.5 -22.5s-0.5 -8.83398 -0.5 -9.50098c-3.33301 -4.66699 -7.5 -11.667 -12.5 -21l-15 -29l-14 -28c-4.33301 -8.66699 -7.83301 -15 -10.5 -19c-26 -40 -59.667 -60 -101 -60h-25c-8.66699 0 -20.667 -1.16699 -36 -3.5
s-27 -3.5 -35 -3.5c-60 0 -106.333 18.333 -139 55c-18 10.667 -27 17.667 -27 21c0 2.66699 4.33301 5.33398 13 8.00098s13 8.33398 13 17.001c0 3.33301 -1.33301 7 -4 11s-4 8 -4 12c0 4.66699 2.66699 13 8 25c-5.33301 4.66699 -9.66602 16.667 -12.999 36
c-2 10.667 -8 19.334 -18 26.001s-15 15.334 -15 26.001c0 14.667 7.33301 22 22 22c1.33301 0 4.66602 -1 9.99902 -3l17 -6.5c6 -2.33301 11.333 -4.66602 16 -6.99902l7 -3.5l145 -33c1.33301 -0.666992 2.5 1 3.5 5s1.5 6.66699 1.5 8c0 2.66699 -1.16699 7.5 -3.5 14.5
s-3.5 12.167 -3.5 15.5c0 2.66699 0.333008 4.33398 1 5.00098c0 32.667 -1 64.667 -3 96s-5.33301 62.333 -10 93c-4 29.333 -8.5 59.166 -13.5 89.499s-10.833 61.5 -17.5 93.5l6 11c12.667 0 21.334 -7.33301 26.001 -22z" />
    <glyph glyph-name="k" unicode="k" horiz-adv-x="594" 
d="M423 738c0.666992 -3.33301 1.17285 -6.16895 1.50586 -8.50195s0.5 -3.83301 0.5 -4.5c0 -4.66699 -1.16699 -11.334 -3.5 -20.001s-3.5 -15.334 -3.5 -20.001c0 -10.667 4 -16 12 -16c4 0 8.5 0.666992 13.5 2s9.83301 2 14.5 2c7.33301 0 16.166 -1.83301 26.499 -5.5
s18.833 -5.5 25.5 -5.5c12.667 0 18 -5.33301 16 -16c-0.666992 -2.66699 -1.16699 -5 -1.5 -7s-0.833008 -4.33301 -1.5 -7c-0.666992 -4.66699 1 -8 5 -10l8 6c5.33301 4 10.333 6 15 6s8.66699 -2.66699 12 -8l2 -2c0.666992 -1.33301 -2.83301 -8.33301 -10.5 -21
l-29 -46l-36.5 -57l-33 -52v-26l100 -144c12 -17.333 18 -28.666 18 -33.999s-2.33301 -10 -7 -14l-19 -30c-6.66699 -10.667 -16 -17 -28 -19c0 -3.33301 -4.33301 -11 -13 -23s-16.334 -23.667 -23.001 -35h-4c-3.33301 0 -9 -2.16699 -17 -6.5s-13 -6.5 -15 -6.5
s-4.66699 1.83301 -8 5.5s-6.66602 5.5 -9.99902 5.5c-2.66699 0 -7.83398 -3.16699 -15.501 -9.5s-13.167 -9.5 -16.5 -9.5h-2l-29 45c-4.66699 6.66699 -8.5 12.5 -11.5 17.5s-5.83301 8.83301 -8.5 11.5c-12.667 18 -24.667 32 -36 42h-2
c-6.66699 0 -10.834 -4.83301 -12.501 -14.5s-3.33398 -20.167 -5.00098 -31.5s-4.33398 -21.833 -8.00098 -31.5s-11.167 -14.5 -22.5 -14.5c-2 0 -6.83301 -3.66699 -14.5 -11s-13.167 -11 -16.5 -11c-4 0 -9 2 -15 6s-12.333 6 -19 6
c-8.66699 0 -17.334 -1.33301 -26.001 -4l-22 -6c-16.667 1.33301 -29.667 2.33301 -39 3s-14.666 1.33398 -15.999 2.00098c-21.333 4 -37.333 12.333 -48 25c0 22 0.166992 44.667 0.5 68s0.833008 47.333 1.5 72v36v79c0 12.667 -0.5 25.667 -1.5 39
s-2.16699 27.666 -3.5 42.999v3c0 2 -1.16699 5.33301 -3.5 10l-7.5 14.5l-7.5 14c-2.33301 4.33301 -3.5 7.5 -3.5 9.5c0 4 4 9 12 15s12 15.667 12 29c1.33301 -1.33301 1.5 0.333984 0.5 5.00098l-4 19.5c-1.66699 8.33301 -3.16699 17.833 -4.5 28.5s-2 21 -2 31
c0 8.66699 -1.33301 21.834 -4 39.501s-4 30.834 -4 39.501c0 12.667 4.66699 19 14 19c10 0 17.667 -2.5 23 -7.5s9.16602 -11.167 11.499 -18.5s3.83301 -15.333 4.5 -24s1.66699 -16.667 3 -24c0.666992 1.33301 2 5 4 11l6.5 20c2.33301 7.33301 5 13.833 8 19.5
s5.5 8.5 7.5 8.5c2.66699 0 7 -0.833008 13 -2.5s10.333 -2.5 13 -2.5c4.66699 0 8.66699 2.66699 12 8h2c2 0 4.83301 -1.5 8.5 -4.5s7.33398 -6.5 11.001 -10.5l10 -10.5c3 -3 4.83301 -4.5 5.5 -4.5s2.5 2 5.5 6s6.83301 8.33301 11.5 13s9.66699 9 15 13s11 6 17 6
c25.333 0 41.666 -8.66699 48.999 -26s11 -40 11 -68v-30c6 -4 9.66699 -6 11 -6v0l42 58.5l59 81.5c8.66699 -0.666992 15 -6.66699 19 -18z" />
    <glyph glyph-name="l" unicode="l" horiz-adv-x="484" 
d="M128 658c0.666992 -2 1.99414 -3.32812 3.99414 -3.99512h2c1.33301 0 4 3.66699 8 11s8.33301 11 13 11c10.667 0 19.667 -2 27 -6s13.666 -8.33301 18.999 -13s9.83301 -9 13.5 -13s6.83398 -6 9.50098 -6c4.66699 0 8.83398 2 12.501 6s7.5 6 11.5 6
c6 0 9.33301 -0.333008 10 -1l4 -10l-8 -213c0 4 0.333008 4.5 1 1.5s1.16699 -7.83301 1.5 -14.5l1 -21c0.333008 -7.33301 0.5 -13 0.5 -17v-11c0 -9.33301 -0.333008 -16.333 -1 -21s5.66602 -7 18.999 -7c4.66699 0 12.334 1.5 23.001 4.5s18.667 4.5 24 4.5l56 10
c8.66699 1.33301 17.667 2.83301 27 4.5s18.666 3.16699 27.999 4.5h12c6.66699 0 10.667 -2 12 -6c-1.33301 -5.33301 -4.33301 -10 -9 -14s-9.66699 -7.5 -15 -10.5s-10 -5.5 -14 -7.5s-6 -3.66699 -6 -5c0 -2 8.33301 -3 25 -3c10 0 14.5 -1.16699 13.5 -3.5
s-4.16699 -5.16602 -9.5 -8.49902s-11.166 -7.33301 -17.499 -12s-9.5 -9.33398 -9.5 -14.001c0 -2.66699 2 -6 6 -10h16c15.333 0 24 -3.66699 26 -11c-3.33301 -2.66699 -9.16602 -5 -17.499 -7s-17.833 -4 -28.5 -6l-33 -6c-11.333 -2 -21.666 -4 -30.999 -6v0
c0 -3.33301 2.83301 -6 8.5 -8s12.334 -3.83301 20.001 -5.5s15.5 -2.83398 23.5 -3.50098s14.667 -1.33398 20 -2.00098v-2c0 -0.666992 -4 -2.83398 -12 -6.50098s-16.5 -7.33398 -25.5 -11.001s-17.333 -6.83398 -25 -9.50098s-10.834 -3.33398 -9.50098 -2.00098
c0 -2 2.33301 -4 7 -6s9.83398 -3.66699 15.501 -5s11 -2.5 16 -3.5s7.83301 -1.5 8.5 -1.5c-39.333 -36 -79.666 -54 -120.999 -54c-13.333 0 -27 -1.33301 -41 -4s-28.667 -4 -44 -4c-11.333 0 -22 0.333008 -32 1s-19 1.66699 -27 3l-8.5 15
c-3 5.33301 -6.83301 8 -11.5 8c-6 0 -15 -2 -27 -6s-21 -6 -27 -6c-6.66699 0 -12.667 1.66699 -18 5v22c0 2 -1.16699 15 -3.5 39s-4.66602 50.167 -6.99902 78.5s-4.66602 54.333 -6.99902 78s-3.5 36.167 -3.5 37.5c0 21.333 2 40.833 6 58.5s6 35.834 6 54.501
c0 4 -0.166992 8.16699 -0.5 12.5s-0.833008 8.83301 -1.5 13.5l-7 46l-2.5 15.5c-1 6.33301 -1.66699 12.5 -2 18.5s-0.5 11.167 -0.5 15.5s0.666992 6.5 2 6.5c6.66699 0 12.167 4.66699 16.5 14l13.5 30c4.66699 10.667 10 20.667 16 30s14 14 24 14
c3.33301 0 6.66602 -2 9.99902 -6s6.83301 -8.83301 10.5 -14.5s6.66699 -11.5 9 -17.5z" />
    <glyph glyph-name="m" unicode="m" horiz-adv-x="875" 
d="M186 742l11.998 2.00098l11 -23l7 -5l15.5 -11c5.66699 -4 11.167 -7.66699 16.5 -11s8.66602 -5 9.99902 -5l21.5 7c8.33301 2.66699 17.166 5.33398 26.499 8.00098h6l109 -220c2 -4.66699 5.66699 -7 11 -7s10.5 3.16699 15.5 9.5s9.66699 13.666 14 21.999
s8.5 17.166 12.5 26.499l10 23l23 48c1.33301 1.33301 4.33301 2 9 2c2 0 4.5 -4.16699 7.5 -12.5s5.16699 -14.833 6.5 -19.5c8 1.33301 13.5 7.5 16.5 18.5s5.5 23.167 7.5 36.5s4.16699 26.5 6.5 39.5s6.83301 22.167 13.5 27.5v24c0 8 2.66699 14 8 18h2
c2.66699 0 6.33398 -1.66699 11.001 -5l15.5 -11c5.66699 -4 11.334 -7.66699 17.001 -11s11.167 -5 16.5 -5c3.33301 0 10.666 4.66699 21.999 14c1.33301 0 4.16602 -1 8.49902 -3s9.33301 -4.16699 15 -6.5s11.834 -4.66602 18.501 -6.99902s12.334 -3.5 17.001 -3.5
c7.33301 0 13.5 -4.66699 18.5 -14s9.66699 -20.833 14 -34.5s8.16602 -28.5 11.499 -44.5l9 -44l30 -134l9 -24c8.66699 -23.333 15.834 -44.166 21.501 -62.499s10.167 -34.166 13.5 -47.499c2 -7.33301 3 -13 3 -17c0 -5.33301 -1.66699 -8 -5 -8c-6 0 -12.333 5 -19 15
s-13.5 22.5 -20.5 37.5s-14 31.333 -21 49l-19.5 49.5c-4.66699 -0.666992 -7 -3.33398 -7 -8.00098c0 -2 0.5 -5.83301 1.5 -11.5s2.16699 -11.667 3.5 -18s2.66602 -12.333 3.99902 -18s2 -9.5 2 -11.5l45 -114c2.66699 -6.66699 9.33398 -22 20.001 -46
s16 -54.667 16 -92c0 -1.33301 -0.666992 -2 -2 -2c-0.666992 0 -4.16699 1.33301 -10.5 4s-12.5 4 -18.5 4h-23c-0.666992 -1.33301 -3.33398 -2.66602 -8.00098 -3.99902s-9.83398 -3.16602 -15.501 -5.49902s-10.667 -5 -15 -8s-6.5 -6.5 -6.5 -10.5v-3
c0 -1.33301 -1.33301 -1.83301 -4 -1.5s-5.66699 1 -9 2l-8.5 2.5c-2.33301 0.666992 -3.16602 0.666992 -2.49902 0l-28 6l-75 78l-40 82l-4 1c-2 0.666992 -4.33301 1 -7 1l-19 -32c-21.333 -36.667 -39.333 -63.334 -54 -80.001c-10.667 -12.667 -20 -21.334 -28 -26.001
v-4c0 -3.33301 2.16699 -8.5 6.5 -15.5s6.5 -12.167 6.5 -15.5c0 -8 -8.66699 -5 -26 9s-37 31.667 -59 53l-64 64.5l-42 44.5c-9.33301 0 -16.666 -8.83301 -21.999 -26.5s-11.333 -34.834 -18 -51.501l-21 -54c-12 -12.667 -20.333 -19 -25 -19
c-3.33301 0 -5.5 2.16699 -6.5 6.5l-3 13.5c-1 4.66699 -2.66699 9.16699 -5 13.5s-6.5 6.5 -12.5 6.5h-4c-4 0 -8.66699 -3.5 -14 -10.5l-17 -22.5c-6 -8 -12.167 -15.5 -18.5 -22.5s-12.5 -10.5 -18.5 -10.5c-3.33301 0 -6.16602 2.83301 -8.49902 8.5
s-3.5 15.834 -3.5 30.501v2c0 4.66699 -5.33301 7 -16 7l-7 -4.5l-15 -9.5c-5.33301 -3.33301 -10.666 -6.5 -15.999 -9.5s-9 -4.5 -11 -4.5c-11.333 0 -17 10 -17 30c0 16.667 3.33301 37.5 10 62.5s13.667 46.5 21 64.5l9 22c1.33301 3.33301 2 5.66602 2 6.99902
s-0.333008 3.33301 -1 6s-1 7.66699 -1 15c0 6 7.66699 37 23 93l2 7l17.5 80.5c7 32.333 15.833 69.833 26.5 112.5c0 0.666992 2 8.66699 6 24s8.66699 32.333 14 51s11.333 35.667 18 51s13 23.666 19 24.999z" />
    <glyph glyph-name="n" unicode="n" horiz-adv-x="739" 
d="M139 700l19.0039 0.00390625c9.33301 0 18.333 4.16699 27 12.5s17 12.5 25 12.5c12 0 21.833 -6.33301 29.5 -19s16.167 -26 25.5 -40l185 -182c10 2 18.167 8.16699 24.5 18.5s11.166 22.666 14.499 36.999s5.66602 29.666 6.99902 45.999s2 32.166 2 47.499
c0 16 -1.83301 20 -5.5 12s-7.83398 -19 -12.501 -33c-2 -6.66699 -3.83301 -10 -5.5 -10s-3 1.83301 -4 5.5s-1.66699 8 -2 13s-0.5 8.83301 -0.5 11.5l1 10c1.33301 18.667 3.66602 32 6.99902 40c1.33301 4.66699 3 7 5 7s4 -0.833008 6 -2.5s4 -3.66699 6 -6
s3.33301 -3.5 4 -3.5c1.33301 0 3.5 4.16699 6.5 12.5s8.16699 12.5 15.5 12.5c2.66699 0 5.66699 -1 9 -3s6 -3 8 -3c2.66699 0 7.66699 4.66699 15 14s13.666 14 18.999 14c-2 0 4.5 -0.333008 19.5 -1s34.167 -1 57.5 -1c12.667 0 22.334 2.66699 29.001 8
s14.334 8 23.001 8c8 0 13.333 -5 16 -15s4 -22.333 4 -37c0 -18.667 -1.16699 -40 -3.5 -64s-3.5 -45.333 -3.5 -64v-39c0 -4.66699 -0.166992 -11 -0.5 -19s-0.833008 -17.667 -1.5 -29l-4 -71c-4 -73.333 -6 -106.333 -6 -99c0 -37.333 2 -65.666 6 -84.999
c2 -3.33301 5.33301 -32 10 -86c-3.33301 -10 -8.5 -13.333 -15.5 -10s-13.833 5 -20.5 5c-0.666992 0 -6.33398 -3.83301 -17.001 -11.5s-23.667 -11.5 -39 -11.5c-4.66699 0 -11.334 2.33301 -20.001 7s-14 7 -16 7c-4 0 -8 -2.66699 -12 -8l-36 32
c-10.667 0 -16 -3.33301 -16 -10v-6c0 -10 -3.33301 -15 -10 -15c-5.33301 0 -11.5 2 -18.5 6s-14.5 9 -22.5 15l-23.5 18.5l-19.5 16.5l-18 16l-53 55c-19.333 19.333 -38.666 35.333 -57.999 48c-1.33301 1.33301 -2.66602 2 -3.99902 2c-10 0 -15 -11.333 -15 -34v-14
c0 -42 -5.33301 -69.333 -16 -82h-3c-2.66699 0 -7 1.33301 -13 4s-10 4 -12 4c-0.666992 -0.666992 -2.83398 -4.16699 -6.50098 -10.5s-8.33398 -13.833 -14.001 -22.5s-10.834 -14.667 -15.501 -18l-22 -16c-7.33301 -5.33301 -12.666 -11.666 -15.999 -18.999
c-1.33301 0 -4.5 2 -9.5 6s-11.333 8.33301 -19 13s-15.5 9 -23.5 13s-15.667 6 -23 6c-4 0 -9.5 -0.333008 -16.5 -1s-12.5 -1 -16.5 -1c-1.33301 0 -3.33301 0.166992 -6 0.5s-6 0.833008 -10 1.5l-10 30c0 -1.33301 1 32 3 100l2 66c0.666992 10.667 1 19.667 1 27v19v12
c0 16 -0.333008 30.667 -1 44s-1.66699 25.333 -3 36c-4 16 -6 36.667 -6 62c0 8 0.333008 20.333 1 37s1 29 1 37v18c0 2 -0.333008 5 -1 9s-1 7 -1 9c0 7.33301 -1 18.166 -3 32.499s-3 25.166 -3 32.499c0 18 3.33301 27 10 27c2.66699 0 6.33398 -1.66699 11.001 -5
s7.33398 -5 8.00098 -5c4.66699 1.33301 10 2.66602 16 3.99902s13.333 3.33301 22 6c14 5.33301 23 14.666 27 27.999c1.33301 0 3 -2 5 -6l6.5 -13.5c2.33301 -5 4.66602 -9.66699 6.99902 -14s4.5 -7.16602 6.5 -8.49902z" />
    <glyph glyph-name="o" unicode="o" horiz-adv-x="688" 
d="M398 734l19.002 -15.001c81.333 -14.667 143.666 -45.667 186.999 -93c16 -18 24 -33.333 24 -46c0 -4 -0.333008 -6.66699 -1 -8c27.333 -89.333 41 -179.666 41 -270.999c-6.66699 -32 -11.667 -53 -15 -63c-6.66699 -23.333 -14.167 -42.833 -22.5 -58.5
s-17.833 -28.834 -28.5 -39.501c-6.66699 -1.33301 -13.5 -1.66602 -20.5 -0.999023s-13.5 1 -19.5 1c-2 0 -5.66699 -0.666992 -11 -2c-88 -30 -165.667 -45 -233 -45c-17.333 7.33301 -30.666 16.666 -39.999 27.999c-30 0 -57.5 7.83301 -82.5 23.5
s-53.833 37.5 -86.5 65.5c-2.66699 2 -8.33398 6.83301 -17.001 14.5s-17.5 17 -26.5 28s-17.167 23 -24.5 36s-11 26.167 -11 39.5c0 3.33301 0.166992 9 0.5 17s0.5 13.667 0.5 17c0 17.333 -3.66699 30.666 -11 39.999c7.33301 54.667 17.333 99.334 30 134.001
c32 86 92.667 147.667 182 185h2c6 0 11.667 -3 17 -9c4.66699 -5.33301 12.667 -7.16602 24 -5.49902s23.833 4.66699 37.5 9l40.5 13c13.333 4.33301 24 6.5 32 6.5c7.33301 0 11.666 -0.333008 12.999 -1zM434.002 474.999l-43.999 41.9971
c-18.667 0 -38 -2.66699 -58 -8c-6.66699 -2 -15.167 -4.33301 -25.5 -7s-20.333 -6.83398 -30 -12.501s-17.834 -13.667 -24.501 -24s-10 -24.5 -10 -42.5c0 -10 2.16699 -19.833 6.5 -29.5s9.83301 -18.5 16.5 -26.5s13.667 -15.167 21 -21.5s14 -10.833 20 -13.5h14
c2.66699 0 6 0.333008 10 1s7.66699 0.333984 11 -0.999023l26 -2c10 -0.666992 19.5 0.333008 28.5 3s16.167 7.33398 21.5 14.001l21 55c4 10.667 6 22.334 6 35.001c0 14.667 -3.33301 27.334 -10 38.001zM608.003 275.996l-6 -3.99902l-42 -74
c2.66699 -4 6.66699 -6 12 -6h7c10.667 0 16.167 2.66699 16.5 8s2.5 9.66602 6.5 12.999l10 47c1.33301 6 0 11.333 -4 16z" />
    <glyph glyph-name="p" unicode="p" horiz-adv-x="566" 
d="M160 725l3.99219 -0.00292969c2.66699 0 6.83398 -0.666992 12.501 -2s9.83398 -2 12.501 -2c7.33301 0 11.333 4.5 12 13.5s3 14.167 7 15.5h2c6 0 10.333 -1.33301 13 -4l13 -10c45.333 0 90.666 -6.66699 135.999 -20c3.33301 -2.66699 6.5 -5.66699 9.5 -9
s7 -7.16602 12 -11.499s11.667 -9.83301 20 -16.5s19.833 -14.667 34.5 -24l50 -33l16.5 -10.5c3.66699 -2.33301 6.33398 -4.66602 8.00098 -6.99902s2.83398 -5.16602 3.50098 -8.49902s1.66699 -8.66602 3 -15.999l7 -39c6.66699 -33.333 10 -56.333 10 -69
c0 -26.667 -6.33301 -50.667 -19 -72c-2 -1.33301 -4.5 -5.5 -7.5 -12.5l-10 -23.5c-3.66699 -8.66699 -7.33398 -16.667 -11.001 -24s-7.16699 -12 -10.5 -14c-11.333 -19.333 -32.666 -36 -63.999 -50c-77.333 -34 -117.333 -53 -120 -57
c0 -5.33301 0.666992 -13.333 2 -24l5 -40l4 -34c0.666992 -5.33301 1.16699 -9.5 1.5 -12.5s0.5 -5.16699 0.5 -6.5c-6.66699 -6.66699 -11.667 -10 -15 -10h-2c-4.66699 0 -9.66699 4.33301 -15 13s-9.33301 13 -12 13c-1.33301 0 -3.33301 -0.666992 -6 -2s-5 -2 -7 -2
c-2.66699 0 -5.66699 1 -9 3s-5.66602 3 -6.99902 3h-3c-0.666992 0 -3.66699 -5 -9 -15s-10 -15 -14 -15c-5.33301 0 -9.66602 2 -12.999 6s-6 8.66699 -8 14s-4 10 -6 14s-4.66699 6 -8 6c-5.33301 0 -11.666 -5.33301 -18.999 -16
c-4.66699 -4.66699 -14.667 -7.83398 -30 -9.50098s-31.333 -2.5 -48 -2.5c-5.33301 0 -8 5.66699 -8 17c0 5.33301 -2.33301 9.33301 -7 12h-2c-5.33301 0 -10.5 -4.16699 -15.5 -12.5s-9.5 -12.5 -13.5 -12.5h-2c2 0 4.16699 8.16699 6.5 24.5l7.5 55
c2.66699 20.333 4.83398 39.833 6.50098 58.5s2.5 30 2.5 34c-2 6.66699 -4.33301 20.667 -7 42s-5.16699 44.166 -7.5 68.499s-4.33301 47.5 -6 69.5s-2.5 37.333 -2.5 46c0 14 1.33301 24.667 4 32l-22 178v26l39 2c6 -4.66699 11.333 -12 16 -22l12 -26
c3.33301 -8.66699 5.5 -10 6.5 -4s1.5 16.667 1.5 32c0 6.66699 1 9.83398 3 9.50098s4.5 -2 7.5 -5l10 -10.5c3.66699 -4 6.83398 -6 9.50098 -6c4.66699 0 7 8.33301 7 25s2 25 6 25c3.33301 0 6.83301 -4.5 10.5 -13.5s7.5 -16.167 11.5 -21.5zM361.992 485.997
l-54.002 41.998c-2.66699 2.66699 -5.66699 4.33398 -9 5.00098s-5.66602 1 -6.99902 1c-10 0 -15 -12 -15 -36c0 -6.66699 0.333008 -14.167 1 -22.5s1.83398 -16.333 3.50098 -24s3.5 -14 5.5 -19s4.33301 -7.5 7 -7.5l11 5c38.667 16.667 58 33.334 58 50.001
c0 3.33301 -0.333008 5.33301 -1 6z" />
    <glyph glyph-name="q" unicode="q" horiz-adv-x="729" 
d="M363 742l22.002 -13c61.333 0 115.333 -11.667 162 -35c11.333 -5.33301 23.333 -12.5 36 -21.5s24.667 -19 36 -30s20.666 -22.833 27.999 -35.5s11 -25.334 11 -38.001v-5c0 -4.66699 2.16699 -14.5 6.5 -29.5l14.5 -48l14.5 -48c4.33301 -15 6.5 -25.167 6.5 -30.5
c0 -10 -3.16699 -20.333 -9.5 -31s-13.5 -21.167 -21.5 -31.5s-15.167 -20.333 -21.5 -30s-9.5 -18.167 -9.5 -25.5c0 -12 3 -24.333 9 -37s13 -25.667 21 -39l24 -41c8 -14 13.333 -28.333 16 -43c1.33301 -9.33301 -5.66699 -14 -21 -14l-16.5 8l-33 15.5
c-12.333 5.66699 -19.833 8.5 -22.5 8.5s-4 -1.33301 -4 -4c0 -3.33301 2 -8.16602 6 -14.499s6 -10.833 6 -13.5c0 -4 -3 -6 -9 -6c0.666992 0 -1.16602 1.33301 -5.49902 4s-9.33301 5.5 -15 8.5s-10.834 5 -15.501 6s-7 0.166992 -7 -2.5s0.5 -6.16699 1.5 -10.5
s1.5 -7.5 1.5 -9.5c0 -1.33301 -1 -2.66602 -3 -3.99902h-2c-2.66699 0 -8.66699 3.16699 -18 9.5s-17 12.5 -23 18.5l-5 5c-12.667 10 -24.334 15 -35.001 15h-6c-10 0 -22.167 -1.33301 -36.5 -4s-28.666 -5.5 -42.999 -8.5l-42 -8.5
c-13.667 -2.66699 -24.834 -4 -33.501 -4c-81.333 0 -150 25 -206 75c-28 24.667 -46 52 -54 82l-23 36c-4 6 -9 15.167 -15 27.5s-9 24.833 -9 37.5c0 16 5 30.333 15 43l-6 32l17 44c7.33301 18.667 15.666 38.167 24.999 58.5s19.5 39.666 30.5 57.999
s22.167 33.166 33.5 44.499s24 18.833 38 22.5s28.667 9.83398 44 18.501c44.667 25.333 93.334 38 146.001 38zM314.002 546l-10 -13.001c-38 -48.667 -57 -89.667 -57 -123c0 -4 3.5 -11.333 10.5 -22s13.167 -18.667 18.5 -24l7 -8c7.33301 -10 21.333 -15 42 -15
c8 0 19.5 1.16699 34.5 3.5s26.5 3.5 34.5 3.5c12.667 8.66699 25.667 21.334 39 38.001l14.5 19l19.5 25l2 18c-4 8.66699 -10.167 19.167 -18.5 31.5l-31.5 44.5c-2 0 -8.16699 1.16699 -18.5 3.5l-34 7.5l-34.5 7.5c-10.667 2.33301 -16.667 3.5 -18 3.5z" />
    <glyph glyph-name="r" unicode="r" horiz-adv-x="533" 
d="M250 772l92.0059 -54.9971c10.667 -6.66699 23.667 -16.334 39 -29.001l53 -42c45.333 -34.667 71.666 -72 78.999 -112c-6.66699 -5.33301 -13 -17.333 -19 -36s-12.333 -35.334 -19 -50.001l-65 -80c0 -9.33301 0.5 -16.833 1.5 -22.5s2.83301 -11.5 5.5 -17.5
s6.5 -12.833 11.5 -20.5s11.5 -18.167 19.5 -31.5l59 -98l4 -24c-7.33301 -2.66699 -17.666 -4 -30.999 -4c-18 0 -36.333 3.66699 -55 11c-2.66699 -0.666992 -6.66699 -6 -12 -16s-10.333 -15 -15 -15c-28 8.66699 -43.667 13 -47 13
c-6.66699 0 -12.334 -2.16699 -17.001 -6.5s-10 -6.5 -16 -6.5c-12.667 0 -24.334 9.5 -35.001 28.5s-22.334 37.5 -35.001 55.5c-8 -1.33301 -12 -7.33301 -12 -18v-16c0 -4 -1.16699 -10.667 -3.5 -20s-4.83301 -14 -7.5 -14c-6 0 -9 3.33301 -9 10v8
c0 9.33301 -2 12.666 -6 9.99902s-8.66699 -4 -14 -4c-2.66699 0 -5.33398 0.166992 -8.00098 0.5s-5.66699 0.833008 -9 1.5c-1.33301 -0.666992 -4.33301 -3.33398 -9 -8.00098l-15 -15.5c-5.33301 -5.66699 -10.333 -10.667 -15 -15s-7.66699 -6.5 -9 -6.5
c-2.66699 0 -6 1.83301 -10 5.5l-13 12.5c-4.66699 4.66699 -9.33398 8.83398 -14.001 12.501s-9 5.5 -13 5.5l-9 -2l-38 -19l-4 8c-2 4 -3.16699 9.83301 -3.5 17.5s-0.5 15.834 -0.5 24.501v29v22c0 8 0.333008 17 1 27c0.666992 25.333 1.66699 41.666 3 48.999
c0 14.667 -0.666992 25.5 -2 32.5s-2 18.167 -2 33.5c0 9.33301 0.666992 23.5 2 42.5s2 33.167 2 42.5v26c0 2.66699 -0.666992 6 -2 10s-2 6.66699 -2 8c0.666992 6 1.16699 11.167 1.5 15.5s0.5 7.83301 0.5 10.5c0 8.66699 -0.333008 18.167 -1 28.5
s-1.66699 20.166 -3 29.499s-2.33301 17.833 -3 25.5s-1 12.834 -1 15.501c0 18.667 2.66699 35 8 49c0 12.667 -1.33301 26 -4 40c0 17.333 8.66699 26 26 26c2 0 6 -0.833008 12 -2.5l19 -5.5c6.66699 -2 12.5 -3.83301 17.5 -5.5l7.5 -2.5c2 0 5.66699 2.33301 11 7
s9.66602 7 12.999 7c4 0 8.33301 -3 13 -9l13 -16h4c10 0 17 2.5 21 7.5s7.66699 10.667 11 17s7.5 12 12.5 17s13.5 7.5 25.5 7.5h8c1.33301 0 5.33301 -1.33301 12 -4zM230.006 572.003c-3.33301 -11.333 -5.00098 -24.667 -5.00098 -40c0 -21.333 1 -44.333 3 -69l4 -7
c1.33301 -3.33301 5.5 -2.33301 12.5 3s14.333 12 22 20s14.667 16 21 24s9.5 13 9.5 15c-19.333 31.333 -41.666 49.333 -66.999 54z" />
    <glyph glyph-name="s" unicode="s" horiz-adv-x="511" 
d="M268 750l4.00195 -0.00390625l2 -15c0.666992 -5.33301 1.5 -9.16602 2.5 -11.499s1.66699 -4.33301 2 -6s0 -4 -1 -7s-2.83301 -7.83301 -5.5 -14.5c1.33301 0 5.33301 2 12 6s13.667 8.5 21 13.5s14.333 9.5 21 13.5s10.667 6 12 6c11.333 0 25.666 -2.66699 42.999 -8
s39 -8 65 -8c1.33301 0 3.33301 0.666992 6 2c1.33301 1.33301 2 0 2 -4c0 -2 -1.66699 -5.83301 -5 -11.5l-11 -18l-11 -17c-3.33301 -5 -5 -7.83301 -5 -8.5h4c1.33301 0 6.83301 1.33301 16.5 4s18.5 5 26.5 7s12.667 3.33301 14 4c10.667 0 11.5 -4.16699 2.5 -12.5
s-20.667 -18.333 -35 -30l-42 -35.5c-13.667 -12 -19.834 -21.667 -18.501 -29l12 -70c2.66699 -20 16 -39.333 40 -58c7.33301 -32.667 11 -63.334 11 -92.001c0 -39.333 -4.66699 -69.333 -14 -90c-6.66699 -14 -14.834 -29 -24.501 -45s-20 -30.833 -31 -44.5
s-22.5 -25 -34.5 -34s-24 -13.5 -36 -13.5c-6 0 -9.66699 2.16699 -11 6.5s-1.5 9 -0.5 14s2.33301 9.66699 4 14s2.5 6.83301 2.5 7.5c0 4 -2 6.33301 -6 7s-10.667 1 -20 1c-7.33301 0 -18.5 -2.5 -33.5 -7.5s-25.833 -7.5 -32.5 -7.5c-5.33301 0 -9.5 2.33301 -12.5 7
s-5.83301 9.83398 -8.5 15.501s-5.5 10.834 -8.5 15.501s-7.16699 7 -12.5 7c-6 0 -14.667 -1.83301 -26 -5.5s-20 -5.5 -26 -5.5c-14 0 -21 1.33301 -21 4c0 1.33301 2.33301 4.33301 7 9s7 8.33398 7 11.001v2l-6 4c-4 2.66699 -12.167 1.66699 -24.5 -3
s-24.5 -7 -36.5 -7c-9.33301 0 -18.666 2.66699 -27.999 8v4l116 54c43.333 20 71.333 51.333 84 94v5c0 6.66699 -4.5 16.834 -13.5 30.501s-16.833 27.167 -23.5 40.5l-26 21l-14 92c36.667 68.667 59.667 109.667 69 123l26.5 33.5c9 11 18.833 21.833 29.5 32.5z" />
    <glyph glyph-name="t" unicode="t" horiz-adv-x="602" 
d="M542 726c-0.666992 -2 -2.33594 -6.00391 -5.00293 -12.0039s-4 -10 -4 -12c0 -3.33301 2 -6 6 -8l14 -2v-2c0 -7.33301 -1.66699 -17 -5 -29s-5 -19.333 -5 -22c-4.66699 -13.333 -16.667 -21.666 -36 -24.999s-39 -7.66602 -59 -12.999v-2c0 -6 3.66699 -9 11 -9
c16 0 36 -2 60 -6l60 -10c0.666992 0 1 -1.33301 1 -4c6.66699 -14 -10.666 -21 -51.999 -21h-31c-8.66699 0 -16.5 -1.16699 -23.5 -3.5s-10.5 -4.83301 -10.5 -7.5c0 -5.33301 7.33301 -9.33301 22 -12c10 -2 15 -4.66699 15 -8s-2.83301 -6.5 -8.5 -9.5
s-12.667 -5.5 -21 -7.5s-15.5 -3 -21.5 -3h-16c-3.33301 0 -6.66602 0.166992 -9.99902 0.5s-6.66602 0.833008 -9.99902 1.5l-28 2c-4.66699 -7.33301 -7.83398 -18.333 -9.50098 -33s-2.5 -30.667 -2.5 -48c0 -15.333 0.333008 -31.166 1 -47.499s1 -31.5 1 -45.5v-44.5
c0 -15 -0.333008 -30.5 -1 -46.5c-0.666992 -5.33301 -1 -10 -1 -14v-10c0 -6 0.333008 -15.167 1 -27.5s1 -21.5 1 -27.5c0 2.66699 -2.5 0.333984 -7.5 -6.99902l-18 -26c-7 -10 -14.333 -19.333 -22 -28s-14.167 -13 -19.5 -13c-11.333 0 -20.333 14.333 -27 43
c-22.667 28.667 -46.667 43 -72 43c-6 -2.66699 -16 -5.66699 -30 -9c-3.33301 0 -7.33301 3 -12 9l-7 9c-2 2.66699 -3.33301 5.66699 -4 9s-1 5.33301 -1 6c0 3.33301 0.333008 5.33301 1 6l5 158c0 2.66699 -0.166992 7.16699 -0.5 13.5s-0.833008 14.833 -1.5 25.5
l-4 53c0 4.66699 -0.333008 10.667 -1 18l-2 21.5c-0.666992 7 -1.33398 12.833 -2.00098 17.5s-1 6.66699 -1 6l-6 5c-1.33301 1.33301 -4.5 1.83301 -9.5 1.5s-11 -1 -18 -2l-21.5 -3c-7.33301 -1 -14 -1.5 -20 -1.5c-36 0 -54 7 -54 21c0 6 3.16699 12 9.5 18
s9.5 14 9.5 24c0 4.66699 1.83301 8.66699 5.5 12s7.83398 6 12.501 8s9 3.5 13 4.5s6 2.16699 6 3.5s-2.83301 3.33301 -8.5 6l-18.5 8.5c-6.66699 3 -12.834 6.16699 -18.501 9.5s-8.5 6 -8.5 8c0 4.66699 3.5 10.334 10.5 17.001s10.5 11 10.5 13
c0 -2.66699 -2 2.66602 -6 15.999c-1.33301 1.33301 -2 3 -2 5c0 4 2 10.667 6 20s6 15.666 6 18.999l8 5l328 -4c14.667 1.33301 32.834 2.83301 54.501 4.5s46.834 2.83398 75.501 3.50098c12 -0.666992 21.667 -3.66699 29 -9z" />
    <glyph glyph-name="u" unicode="u" horiz-adv-x="636" 
d="M543 782c0 -4 0.50293 -9.6709 1.50293 -17.0039s2.5 -14.666 4.5 -21.999s4.33301 -13.833 7 -19.5s5.66699 -8.5 9 -8.5s8.33301 0.5 15 1.5s11.667 1.5 15 1.5c9.33301 0 16.333 -3.33301 21 -10l-9 -178c-4 -82.667 -6 -135.334 -6 -158.001l2 -222
c-14.667 -8.66699 -22 -21.334 -22 -38.001c0 -2.66699 0.666992 -7.16699 2 -13.5s2 -11.166 2 -14.499v-3c0 -2 -1.33301 -3 -4 -3c-6 0 -13.667 6.33301 -23 19s-17 22.667 -23 30c-2 -10.667 -5.66699 -16 -11 -16c-2.66699 0 -6.33398 2.5 -11.001 7.5l-14.5 16
l-14.5 16c-4.66699 5 -8.33398 7.5 -11.001 7.5c-3.33301 0 -6 -2.5 -8 -7.5s-3.5 -11.167 -4.5 -18.5s-1.5 -15 -1.5 -23v-21v-24c0 -0.666992 -1.33301 -1.16699 -4 -1.5s-4.33398 -0.5 -5.00098 -0.5c-1.33301 0 -4 4.66699 -8 14s-9 14 -15 14
c-8.66699 0 -14 -5.33301 -16 -16l-3 -13c-0.666992 -4 -2.33398 -7.33301 -5.00098 -10c-11.333 0 -18.833 5.83301 -22.5 17.5s-6.33398 24.667 -8.00098 39s-3.83398 27.333 -6.50098 39s-8.66699 17.5 -18 17.5c-6 0 -15.667 -4 -29 -12
c-39.333 -24 -60.666 -36 -63.999 -36c-74 0 -136 20 -186 60c-32.667 26 -49 65.667 -49 119c0 0.666992 0.5 5 1.5 13s2 18 3 30s2 25.167 3 39.5s1.5 28.5 1.5 42.5v13c0 2.66699 -0.166992 5.66699 -0.5 9s-0.833008 7.33301 -1.5 12
c0.666992 5.33301 1.16699 10.333 1.5 15s0.5 9.66699 0.5 15v27v13c0 5.33301 -0.333008 11.333 -1 18l-4 87c-0.666992 7.33301 -1 13.5 -1 18.5v12.5v35c0 22 5.33301 33 16 33c2.66699 0 6.83398 -1 12.501 -3s9.83398 -3 12.501 -3c6 0 11.167 -3 15.5 -9
s8 -13.667 11 -23s5.83301 -19.666 8.5 -30.999s5.66699 -22.333 9 -33c4 2.66699 7 9.33398 9 20.001s4.66699 20.667 8 30l13 45c5.33301 16 12.333 29 21 39l10 -1v-29c0 -41.333 4 -70.666 12 -87.999c0.666992 1.33301 2.66699 8.5 6 21.5s7.33301 27.167 12 42.5
s10 29.333 16 42s12 19 18 19c3.33301 0 5.33301 -0.333008 6 -1l4 -5c0.666992 -0.666992 0.833984 -3 0.500977 -7s-0.833008 -8.33301 -1.5 -13l-2 -35c-0.666992 -6.66699 -1 -11 -1 -13s0 -2.33301 0 -1v-22l6 -4l42 32c1.33301 1.33301 2 -1.33398 2 -8.00098
c0 -3.33301 -0.666992 -8.16602 -2 -14.499s-2 -10.833 -2 -13.5v-2c0 -4.66699 -1 -19 -3 -43l-7 -82c-3.33301 -38.667 -5.83301 -71.667 -7.5 -99s-2.5 -49.333 -2.5 -66c7.33301 -6 18.833 -10.833 34.5 -14.5l41.5 -9.5c16 2 24 14 24 36c0 18 -2 36.833 -6 56.5
s-6.33301 37.834 -7 54.501l-4 94c-0.666992 7.33301 -1 13.833 -1 19.5v13.5c0 46 4.33301 82 13 108c2 6 6.33301 9.33301 13 10h12l2 -18c1.33301 -13.333 3.33301 -26 6 -38s5.66699 -18 9 -18c4 0 6.83301 4.33301 8.5 13s3.66699 18 6 28s5.83301 19.333 10.5 28
s11.667 13 21 13s22 -3.66699 38 -11c0 -34 4.33301 -58.333 13 -73c6.66699 0 10 5 10 15c0 16 1.33301 30.333 4 43l5 26c1.33301 7.33301 4.66602 14.333 9.99902 21s10.333 11.667 15 15z" />
    <glyph glyph-name="v" unicode="v" horiz-adv-x="748" 
d="M306 674l63.9941 -179.996h2c6.66699 0 11.334 5 14.001 15l91 267c0.666992 3.33301 3.16699 4 7.5 2s9 -5.16699 14 -9.5s9.33301 -9.16602 13 -14.499s5.5 -10 5.5 -14v-8c0 -3.33301 2.33301 -5 7 -5c2.66699 0 6 2.33301 10 7s8 10 12 16s8.33301 11.333 13 16
s9 7 13 7h4c4 0 6 -3.33301 6 -10c0 -3.33301 -1 -8.33301 -3 -15s-0.333008 -10 5 -10c6 0 14 4.66699 24 14s18.667 14.666 26 15.999v-5c0 -6 -2.33301 -15.333 -7 -28s-7 -20.334 -7 -23.001c0 -10.667 4 -13.334 12 -8.00098s16.833 12.833 26.5 22.5l26.5 26
c8 7.66699 12 8.16699 12 1.5c0 -2.66699 -1 -6.66699 -3 -12s-3 -8.66602 -3 -9.99902c0 -3.33301 2 -5.83301 6 -7.5s8.16699 -3.16699 12.5 -4.5s8.5 -3.33301 12.5 -6s6 -7 6 -13c0 -13.333 -5.16699 -28.333 -15.5 -45s-19.166 -33.667 -26.499 -51l-81 -185l-59 -155
c-6 -15.333 -12.5 -34.666 -19.5 -57.999l-24.5 -81v-16c0 -15.333 -6.33301 -23 -19 -23c-6.66699 0 -10 2 -10 6v15c0 8 -3.33301 11.667 -10 11l-11 -3c-5.33301 -1.33301 -9.16602 0 -11.499 4s-3.5 8.33301 -3.5 13c0 4 0.666992 9.66699 2 17s2 13 2 17
c0 7.33301 -1 11 -3 11c-1.33301 0 -3.16602 -2.33301 -5.49902 -7s-4.83301 -10 -7.5 -16s-5.16699 -12.167 -7.5 -18.5s-4.16602 -11.166 -5.49902 -14.499l-6 -16c-2.66699 0 -5.33398 1.83301 -8.00098 5.5s-5.16699 7.5 -7.5 11.5s-5 7.83301 -8 11.5
s-5.83301 5.5 -8.5 5.5c-0.666992 -0.666992 -4.16699 -3 -10.5 -7l-20.5 -13.5c-7.33301 -5 -11.666 -7.5 -12.999 -7.5c-2.66699 0 -6.66699 1.5 -12 4.5s-8.66602 4.5 -9.99902 4.5l-10 -17c-2.66699 -4 -5.33398 -6 -8.00098 -6c-14 0 -25.833 4.66699 -35.5 14
s-18.167 21.666 -25.5 36.999s-14.5 32.666 -21.5 51.999s-14.5 39 -22.5 59c-14.667 59.333 -39.667 130.666 -75 213.999l-88 210l-2 6c0 13.333 1.66699 20 5 20c2 0 4.83301 -2.33301 8.5 -7l12 -16c4.33301 -6 9 -11.333 14 -16s9.83301 -7 14.5 -7
c2 0 6.16699 2.66699 12.5 8l20 17l19 16c5.66699 4.66699 8.5 6.66699 8.5 6c-0.666992 3.33301 -1 8.66602 -1 15.999c0 5.33301 0.666992 8.5 2 9.5s3.16602 1 5.49902 0s4.83301 -2.5 7.5 -4.5s5.33398 -3 8.00098 -3s7.66699 2.5 15 7.5s12 7.5 14 7.5
c6 0 10.333 -6 13 -18c-2 2 -0.166992 0.833008 5.5 -3.5l20 -16l21 -18c6.33301 -5.66699 9.16602 -8.5 8.49902 -8.5c2.66699 0 4 3.66699 4 11c0 4.66699 -1.16699 11 -3.5 19s-5 16.167 -8 24.5l-8 23c-2.33301 7 -3.5 11.833 -3.5 14.5c0 7.33301 3.33301 7.5 10 0.5
s14.334 -16.833 23.001 -29.5s16.834 -25.834 24.501 -39.501s12.5 -23.5 14.5 -29.5z" />
    <glyph glyph-name="w" unicode="w" horiz-adv-x="973" 
d="M756 761l-4.99805 -68.9961c4 -4 7.66699 -6 11 -6c2.66699 0 8.16699 3.33301 16.5 10s13.833 10 16.5 10h2c2 0 5 1 9 3s7 3 9 3c5.33301 0 8 -3.33301 8 -10c0 -2.66699 -0.666992 -6.33398 -2 -11.001s-2 -8.33398 -2 -11.001c0 -5.33301 4 -8 12 -8h2
c1.33301 0 3.66602 3.33301 6.99902 10l11.5 22.5c4.33301 8.33301 8.66602 15.833 12.999 22.5s8.16602 10 11.499 10c4 0 6 -7 6 -21c0 -11.333 1 -17 3 -17s5 2.5 9 7.5s9.16699 10.5 15.5 16.5s13.5 9 21.5 9c10.667 0 18 -5 22 -15l-4 -19l-64 -160l-85 -228l-45 -196
c-3.33301 -12 -7.83301 -22.333 -13.5 -31s-14.5 -13 -26.5 -13c-10.667 0 -18 4.66699 -22 14c0 13.333 -6.16699 23.833 -18.5 31.5s-25.5 11.5 -39.5 11.5c-6 0 -12.333 3.5 -19 10.5s-13.167 15.833 -19.5 26.5s-12.833 22.5 -19.5 35.5l-20 38.5l-58 108
c-3.33301 5.33301 -6.66602 8 -9.99902 8s-6 -1.66699 -8 -5l-16 -23l-94 -192l-10 -7c-0.666992 -0.666992 -2 -1 -4 -1c-7.33301 0 -10.5 4.33301 -9.5 13s1.5 14.334 1.5 17.001c0 4.66699 -3 7 -9 7h-2l-10 -10l-22 -22.5c-8 -8.33301 -15.667 -15.833 -23 -22.5
s-11.333 -10 -12 -10c-4 0 -10.667 -2.5 -20 -7.5s-14.666 -7.5 -15.999 -7.5s-3.5 2.16699 -6.5 6.5s-6.5 9.83301 -10.5 16.5l-12.5 21l-11.5 19l-45 123l-22.5 62l-19.5 57c-3.33301 8.66699 -7.66602 21.667 -12.999 39s-12.333 38.666 -21 63.999l-46 141l-6 47
c-0.666992 4.66699 -0.166992 9.66699 1.5 15s3.16699 9.33301 4.5 12h3c3.33301 0 6.66602 -2.16699 9.99902 -6.5s5.66602 -6.83301 6.99902 -7.5l20 1c3.33301 0 9.33301 -10.333 18 -31l12 -25c6 -12.667 12.167 -25 18.5 -37s12.166 -21.333 17.499 -28
s8 -5.33398 8 3.99902c0 10 -1.33301 20.667 -4 32s-5.5 22.333 -8.5 33s-5.83301 20 -8.5 28s-4 14 -4 18c0 16.667 3.66699 25 11 25c6 0 11.5 -3.66699 16.5 -11s10.167 -11 15.5 -11c6.66699 0 12.334 -2.33301 17.001 -7l13.5 -14
c4.33301 -4.66699 8.5 -7.66699 12.5 -9s9 1.33398 15 8.00098c5.33301 6.66699 9.66602 10.167 12.999 10.5s6.16602 -1.33398 8.49902 -5.00098s4.5 -8.33398 6.5 -14.001s5 -11.167 9 -16.5h2c3.33301 0 10.333 4.33301 21 13c4.66699 -6.66699 10.5 -21.667 17.5 -45
s14.5 -45.666 22.5 -66.999h2c4.66699 0 12.167 9.66699 22.5 29l34.5 64c12.667 23.333 25.667 44.666 39 63.999s25.333 29 36 29c3.33301 0 7.5 -1.66699 12.5 -5s8.83301 -5 11.5 -5c0.666992 0.666992 4.16699 3.5 10.5 8.5s13.833 10.5 22.5 16.5s15 9 19 9
c5.33301 0 11.333 -3.33301 18 -10s13.5 -15 20.5 -25s13.833 -20.667 20.5 -32s12.334 -21.666 17.001 -30.999c0 -1.33301 2.5 -7.83301 7.5 -19.5s10.833 -24.334 17.5 -38.001s13.167 -26.167 19.5 -37.5s10.833 -17 13.5 -17h2c4.66699 0 13.334 29 26.001 87l17 75
c9.33301 37.333 23.333 56 42 56c3.33301 0 6 -0.333008 8 -1z" />
    <glyph glyph-name="x" unicode="x" horiz-adv-x="736" 
d="M557 750l5.00195 -5.99609v-2c0 -2 -1.33301 -4.83301 -4 -8.5s-4 -6.16699 -4 -7.5c0 -2.66699 2.33301 -4.33398 7 -5.00098c1.33301 8 13 17 35 27h11c6 0 9 -2 9 -6c0 -2 -1.16699 -6.5 -3.5 -13.5s-3.5 -11.833 -3.5 -14.5c0 -3.33301 7.33301 -12.333 22 -27
l-7.5 -11c-3.66699 -5.33301 -7.5 -11.5 -11.5 -18.5s-7.5 -14.333 -10.5 -22s-4.5 -14.834 -4.5 -21.501c0 -5.33301 4.66699 -4 14 4l22 16c20.667 16 33 24 37 24c6.66699 0 16 -4.33301 28 -13s18 -16.334 18 -23.001l-2 -6l-168 -188l3 -18l115 -134
c5.33301 -6.66699 8 -14 8 -22v-4c0 -3.33301 -3.5 -6.33301 -10.5 -9s-10.5 -6.33398 -10.5 -11.001c0 -2 1.16699 -5.33301 3.5 -10s3.5 -9 3.5 -13c0 -26 -12 -39 -36 -39c-6 0 -20 3.66699 -42 11c-2.66699 -2.66699 -4 -6.66699 -4 -12c0 -2 0.333008 -4.83301 1 -8.5
s1 -6.5 1 -8.5v-4h-2c-4.66699 0 -11.667 -2.83301 -21 -8.5s-15 -8.5 -17 -8.5c-6.66699 0 -14.334 4.33301 -23.001 13l-17 15c-4 3.33301 -8.66699 6.5 -14 9.5s-8 1.5 -8 -4.5c0 -1.33301 1.33301 -4.66602 4 -9.99902s4 -9.33301 4 -12
c0 -4.66699 -2.5 -8.83398 -7.5 -12.501s-9.83301 -5.5 -14.5 -5.5l-83 108c-3.33301 4 -7 6 -11 6s-7.33301 -1.33301 -10 -4l-108 -130c-6.66699 16 -16.334 24 -29.001 24c-3.33301 0 -10.166 1.16699 -20.499 3.5s-18.166 3.5 -23.499 3.5c-7.33301 0 -14 -0.5 -20 -1.5
s-9 4.5 -9 16.5c0 4 1.66699 8.83301 5 14.5s5 8.83398 5 9.50098v2c0 2 -3.33301 3 -10 3c-4.66699 0 -12.5 -4.5 -23.5 -13.5s-19.833 -13.5 -26.5 -13.5h-6l-10 2c1.33301 0 2 4 2 12c0 5.33301 -2 12.666 -6 21.999s-6 16.666 -6 21.999
c0 4.66699 1.66699 9.33398 5 14.001l94 138c24 34.667 36 57.334 36 68.001v5c0 11.333 -5.83301 25.333 -17.5 42s-26.334 35 -44.001 55s-37.167 40.667 -58.5 62l-61 62c-8 8 -8.5 11.167 -1.5 9.5s16.5 -5.33398 28.5 -11.001l35.5 -17.5c11.667 -6 18.167 -9 19.5 -9
c1.33301 8.66699 3 13.834 5 15.501s4.66699 1.66699 8 0s7.33301 -4 12 -7s9.66699 -4.5 15 -4.5c2.66699 0 4 2 4 6c0 2.66699 -0.666992 6.5 -2 11.5s-2 8.5 -2 10.5c0 6 2.16699 9.16699 6.5 9.5s9 -0.5 14 -2.5s9.83301 -4.33301 14.5 -7l7 -4c8 0 11 3.5 9 10.5
s-3 12.167 -3 15.5c0 4 2 7.33301 6 10h2c4.66699 0 10 5 16 15s9.33301 15 10 15c5.33301 -4.66699 12.666 -10.334 21.999 -17.001s16.666 -10 21.999 -10h4l5.5 11c3.66699 7.33301 5.83398 11.333 6.50098 12l9 -4c11.333 -5.33301 23.333 -18 36 -38l41 -62l8 2
c6 1.33301 22.333 22.333 49 63c35.333 51.333 68.333 77 99 77c8.66699 0 17 -1.33301 25 -4z" />
    <glyph glyph-name="y" unicode="y" horiz-adv-x="632" 
d="M583 761l24.0068 0.00292969c3.33301 -6.66699 5 -13.667 5 -21c0 -6 -1 -14 -3 -24c-0.666992 -4.66699 -1.5 -12 -2.5 -22s-2.5 -21.667 -4.5 -35s-4.83301 -27.833 -8.5 -43.5s-8.5 -30.834 -14.5 -45.501l-30.5 -66c-13 -28 -28.167 -62.667 -45.5 -104
c-7.33301 -18 -18.333 -41.333 -33 -70s-27.667 -62 -39 -100l-16 -54c-4.66699 -16.667 -12 -32.334 -22 -47.001c-6 0 -12 4.16699 -18 12.5s-11 12.5 -15 12.5s-7.83301 -3 -11.5 -9l-11.5 -19c-4 -6.66699 -8.5 -13 -13.5 -19s-10.833 -9 -17.5 -9h-5
c0.666992 5.33301 1.16699 9.83301 1.5 13.5s0.5 6.83398 0.5 9.50098c0 9.33301 -0.833008 16.166 -2.5 20.499s-4.16699 7.16602 -7.5 8.49902s-7.33301 1.83301 -12 1.5s-10 -0.5 -16 -0.5c-13.333 0 -24.833 3.5 -34.5 10.5s-20.834 10.5 -33.501 10.5
c-0.666992 0 -10.667 -3 -30 -9c-2 -1.33301 -4.83301 -3 -8.5 -5s-7.16699 -3.33301 -10.5 -4s-6.33301 -0.166992 -9 1.5s-4 5.83398 -4 12.501c0 8 4.66699 19 14 33s18 27.667 26 41l54 94l-4 18l-119 121l-82 97c0.666992 -0.666992 1.66699 0.333008 3 3s2 5 2 7
c0 0.666992 -0.666992 4.33398 -2 11.001l-6 12c-0.666992 2 -0.333984 3.66699 0.999023 5s5 3.33301 11 6h2c2 0 4.83301 -1.83301 8.5 -5.5s6.16699 -5.5 7.5 -5.5c4 0 5.33301 2 4 6c-0.666992 3.33301 -1.83398 7.33301 -3.50098 12s-3.83398 9.66699 -6.50098 15l-4 6
l7.5 6c5 4 10.667 8.83301 17 14.5s12.333 11.667 18 18s9.5 12.166 11.5 17.499c2 0 7.16699 -3.33301 15.5 -10s14.5 -10 18.5 -10s6.16699 2 6.5 6s0.166016 8.16699 -0.500977 12.5s-1.83398 8.16602 -3.50098 11.499s-2.5 4 -2.5 2c0 2.66699 2.33301 6 7 10h2
c2.66699 0 8 -2.66699 16 -8s14.333 -8 19 -8c5.33301 0 10 4.16699 14 12.5s8.66699 12.5 14 12.5c10 0 20.333 -6.16699 31 -18.5s21.167 -26.166 31.5 -41.499l29 -44.5c9 -14.333 16.833 -23.833 23.5 -28.5c12 2 26 16 42 42l63 104c4 6.66699 9 10 15 10
c5.33301 0 8.66602 -3 9.99902 -9s5 -9 11 -9h4c3.33301 0 8 0.666992 14 2s10.333 2 13 2c8.66699 0 14.334 -4.33301 17.001 -13c0.666992 1.33301 4.16699 5.16602 10.5 11.499s14.666 13.333 24.999 21s19.5 11.5 27.5 11.5c6 0 11 -3.33301 15 -10z" />
    <glyph glyph-name="z" unicode="z" horiz-adv-x="750" 
d="M730 726l-7.00098 -22.001l-31 -35c-12 -14 -25.333 -31 -40 -51l-23 -33l-29 -41l-23.5 -33.5l-25.5 -36.5l-51 -72c-3.33301 -5.33301 -9.33301 -14.166 -18 -26.499s-13 -23.833 -13 -34.5c0 -6 2.33301 -11 7 -15s13.334 -6 26.001 -6c6 0 15 0.666992 27 2
s21 2 27 2c5.33301 0 13.333 0.166992 24 0.5s24 0.833008 40 1.5l48 2h19c10.667 0 16 -1 16 -3s-5.33301 -5 -16 -9s-22.834 -8 -36.501 -12s-27 -7.66699 -40 -11s-21.833 -5.66602 -26.5 -6.99902c6 -2.66699 19.167 -5.16699 39.5 -7.5
s39.166 -5.16602 56.499 -8.49902l1 -7l-45.5 -13c-13.667 -4 -25.834 -7.33301 -36.501 -10c2.66699 -1.33301 7.5 -2.83301 14.5 -4.5s15.167 -3.5 24.5 -5.5l29.5 -6.5c10.333 -2.33301 19.5 -4.83301 27.5 -7.5v-2c0 -2.66699 -6.66699 -5 -20 -7
s-27.833 -3.66699 -43.5 -5s-30.167 -3 -43.5 -5s-20 -4.33301 -20 -7c0 -6 12.333 -9 37 -9h23c8 0 15.667 -1 23 -3c10 -5.33301 14.167 -10 12.5 -14s-5.83398 -7.83301 -12.501 -11.5s-13.5 -7.83398 -20.5 -12.501s-10.5 -10 -10.5 -16v-16c0 -4 -7.33301 -6 -22 -6
c-5.33301 0 -13.666 1 -24.999 3s-19.666 3 -24.999 3c-10 0 -25 -1 -45 -3s-35 -3 -45 -3c-31.333 0 -54 3.33301 -68 10c-11.333 1.33301 -24.333 2.33301 -39 3s-30.667 1 -48 1c-9.33301 0 -22.333 -0.166992 -39 -0.5s-36.667 -0.833008 -60 -1.5l-70 -2
c-2.66699 0 -7.16699 1.5 -13.5 4.5s-12.666 6.5 -18.999 10.5s-11.833 8.16699 -16.5 12.5s-7 7.83301 -7 10.5l2 8l114 166l86 184c1.33301 1.33301 2 3 2 5v3c0 6 -5.66699 9.66699 -17 11c-9.33301 0 -21.5 -1.33301 -36.5 -4s-31.5 -7 -49.5 -13l-36 -12l-66 -23
l-57 -21v2c0 3.33301 2 9.16602 6 17.499s6 14.5 6 18.5c0 5.33301 -3.33301 10 -10 14v6c0 1.33301 2.33301 3.66602 7 6.99902l17 12c6.66699 4.66699 13.834 9.33398 21.501 14.001s14.5 9 20.5 13l12 7c0.666992 0 -0.5 2.5 -3.5 7.5s-4.5 8.16699 -4.5 9.5
c0 2.66699 14 8.66699 42 18l33 10c5.33301 1.33301 9.83301 2.66602 13.5 3.99902s6.83398 2.66602 9.50098 3.99902v2c0 2 -3.33301 3.5 -10 4.5s-10.334 1.5 -11.001 1.5c0.666992 0 -2.66602 -0.5 -9.99902 -1.5s-19.333 -2.83301 -36 -5.5
c-3.33301 -0.666992 -6.33301 -1 -9 -1c-16.667 0 -25 1.66699 -25 5c0 2 2 4.33301 6 7l12.5 8.5c4.33301 3 8.5 6.33301 12.5 10s6 7.5 6 11.5c0 2 -1 4.66699 -3 8s-3 6 -3 8s1.66699 3.83301 5 5.5s7 3.33398 11 5.00098s7.66699 3.5 11 5.5s5 4.66699 5 8
c-25.333 13.333 -38 24.333 -38 33v9l12 2l196 -11h144l173 -4c11.333 -6.66699 19.666 -10 24.999 -10s10.833 3.83301 16.5 11.5s14.167 12.834 25.5 15.501h4c6 0 12.667 -6.66699 20 -20z" />
    <glyph glyph-name="FLW123" unicode="{" horiz-adv-x="420" 
d="M364 624c-2 2 -6.16992 -0.999023 -12.5029 -8.99902s-13 -17 -20 -27s-13.167 -19.5 -18.5 -28.5s-7.66602 -13.5 -6.99902 -13.5c3.33301 0 8.16602 2.5 14.499 7.5s10.5 7.5 12.5 7.5l11 12c2.66699 2.66699 5.33398 4 8.00098 4
c6.66699 0 8.16699 -4.83301 4.5 -14.5s-9.16699 -20.834 -16.5 -33.501s-15.166 -25.167 -23.499 -37.5s-13.833 -21.5 -16.5 -27.5c-16.667 -32 -28.834 -60.5 -36.501 -85.5s-11.5 -45.5 -11.5 -61.5c0 -12.667 3.33301 -27.5 10 -44.5s14.834 -34.333 24.501 -52
s20 -34.5 31 -50.5l28.5 -40c2 -2.66699 6.33301 -7.83398 13 -15.501s12.5 -15.667 17.5 -24s7.5 -15.833 7.5 -22.5s-5.33301 -10 -16 -10c-3.33301 0 -6.83301 0.166992 -10.5 0.5s-6.83398 0.5 -9.50098 0.5c-7.33301 0 -12.666 -2.66699 -15.999 -8
c-62 0 -121 30 -177 90c-44 46.667 -79.667 104.667 -107 174c0 0.666992 -1.5 3.33398 -4.5 8.00098l-9.5 15.5l-9.5 16.5c-3 5.33301 -4.5 9.33301 -4.5 12s0.666992 6 2 10c48 114.667 111.333 197.334 190 248.001c6.66699 0 16.667 2.16699 30 6.5
s29.666 10.166 48.999 17.499c9.33301 0 18.333 -3.33301 27 -10c5.33301 0 11.833 2 19.5 6s15.334 8.5 23.001 13.5l21.5 13.5c6.66699 4 11.334 6 14.001 6s4 -2 4 -6c0 -10.667 -12 -26.667 -36 -48z" />
    <glyph glyph-name="FLW124" unicode="|" horiz-adv-x="250" 
d="M230 -2v819h-210v-819h210z" />
    <glyph glyph-name="FLW125" unicode="}" horiz-adv-x="394" 
d="M189 679c38.667 -20.667 72.998 -52.667 102.998 -96c30.667 -46 54.667 -89 72 -129c6.66699 -17.333 10 -33 10 -47c0 -7.33301 -0.333008 -15 -1 -23s-1.66699 -16.667 -3 -26c0 -26 -14 -63.667 -42 -113l-40 -70c-9.33301 -16.667 -25.833 -32.334 -49.5 -47.001
s-48.5 -22 -74.5 -22h-7c4.66699 0 -3.66602 -2 -24.999 -6l-10.5 -2c-3.66699 -0.666992 -6.83398 -1.33398 -9.50098 -2.00098l-9 -2c-7.33301 -1.33301 -13.166 -2.66602 -17.499 -3.99902s-8.16602 -5 -11.499 -11h-23c-15.333 0 -25.666 4.66699 -30.999 14
c60 62.667 113.333 142.667 160 240c0 3.33301 1.5 9 4.5 17s4.5 14.333 4.5 19c0 2.66699 -0.666992 6.33398 -2 11.001s-2 8.33398 -2 11.001c0 5.33301 -1 10.666 -3 15.999l-39 79.5l-57 110.5l-57 99c4 4 10.333 6 19 6c3.33301 0 7 -0.166992 11 -0.5s8 -0.5 12 -0.5
v0c5.33301 0 10.833 1.33301 16.5 4s10.5 4 14.5 4c5.33301 0 12.166 -1.5 20.499 -4.5s16.833 -6.5 25.5 -10.5s16.667 -7.5 24 -10.5s13 -4.5 17 -4.5z" />
    <glyph glyph-name="nonbreakingspace" unicode="&#xa0;" horiz-adv-x="316" 
 />
    <glyph glyph-name="exclamdown" unicode="&#xa1;" horiz-adv-x="302" 
d="M116 77l-4 19.002c-1.33301 3.33301 -3.66602 5.83301 -6.99902 7.5s-5.66602 2.5 -6.99902 2.5c-2.66699 0 -7.83398 -2.66699 -15.501 -8s-13.167 -8 -16.5 -8c-2.66699 0 -7.33398 1.33301 -14.001 4s-12 4 -16 4c-6 0 -10 1.33301 -12 4v4
c0 5.33301 2.66699 13.166 8 23.499s8 17.833 8 22.5c0 6 -1.66699 14.833 -5 26.5s-5 20.834 -5 27.501c0 8.66699 1 21.5 3 38.5s3 29.5 3 37.5l2 166c0.666992 38.667 12.667 68 36 88l-12 23.5c-4.66699 9 -9.66699 19.5 -15 31.5l-23 50
c-2.66699 5.33301 -4 11.666 -4 18.999c0 6 2 11 6 15l36 12c17.333 4.66699 29.333 9.66699 36 15l10 21c4 8.66699 8.5 17 13.5 25s10.667 14.833 17 20.5s12.833 8.5 19.5 8.5l8 -8l5 -5.5l12 -13.5l15 -17.5c5.33301 -6.33301 9.66602 -11.833 12.999 -16.5l59 -78
c0.666992 -1.33301 1.16699 -2.5 1.5 -3.5l0.5 -1.5c0 -5.33301 -4 -11 -12 -17c-8.66699 -6.66699 -14.5 -21.667 -17.5 -45s-4.5 -44.666 -4.5 -63.999v-39c0 -100.667 14.667 -200.667 44 -300l-1.5 -7.5c-1 -5 -2.33301 -10.333 -4 -16s-3.5 -10.834 -5.5 -15.501
s-4 -7 -6 -7c-4.66699 0 -10.667 3.33301 -18 10s-15.666 10 -24.999 10c-2 -0.666992 -6.5 -1.83398 -13.5 -3.50098s-16.833 -4.5 -29.5 -8.5c-33.333 -10 -50 -21.667 -50 -35v-11c0 -2.66699 -4.33301 -5 -13 -7z" />
    <glyph glyph-name="exclamdown" unicode="&#x40e;" horiz-adv-x="302" 
d="M116 77l-4 19.002c-1.33301 3.33301 -3.66602 5.83301 -6.99902 7.5s-5.66602 2.5 -6.99902 2.5c-2.66699 0 -7.83398 -2.66699 -15.501 -8s-13.167 -8 -16.5 -8c-2.66699 0 -7.33398 1.33301 -14.001 4s-12 4 -16 4c-6 0 -10 1.33301 -12 4v4
c0 5.33301 2.66699 13.166 8 23.499s8 17.833 8 22.5c0 6 -1.66699 14.833 -5 26.5s-5 20.834 -5 27.501c0 8.66699 1 21.5 3 38.5s3 29.5 3 37.5l2 166c0.666992 38.667 12.667 68 36 88l-12 23.5c-4.66699 9 -9.66699 19.5 -15 31.5l-23 50
c-2.66699 5.33301 -4 11.666 -4 18.999c0 6 2 11 6 15l36 12c17.333 4.66699 29.333 9.66699 36 15l10 21c4 8.66699 8.5 17 13.5 25s10.667 14.833 17 20.5s12.833 8.5 19.5 8.5l8 -8l5 -5.5l12 -13.5l15 -17.5c5.33301 -6.33301 9.66602 -11.833 12.999 -16.5l59 -78
c0.666992 -1.33301 1.16699 -2.5 1.5 -3.5l0.5 -1.5c0 -5.33301 -4 -11 -12 -17c-8.66699 -6.66699 -14.5 -21.667 -17.5 -45s-4.5 -44.666 -4.5 -63.999v-39c0 -100.667 14.667 -200.667 44 -300l-1.5 -7.5c-1 -5 -2.33301 -10.333 -4 -16s-3.5 -10.834 -5.5 -15.501
s-4 -7 -6 -7c-4.66699 0 -10.667 3.33301 -18 10s-15.666 10 -24.999 10c-2 -0.666992 -6.5 -1.83398 -13.5 -3.50098s-16.833 -4.5 -29.5 -8.5c-33.333 -10 -50 -21.667 -50 -35v-11c0 -2.66699 -4.33301 -5 -13 -7z" />
    <glyph glyph-name="cent" unicode="&#xa2;" horiz-adv-x="304" 
d="M190 715c0 -4 1.00098 -9.99805 3.00098 -17.998s3 -14 3 -18c0 -7.33301 -2.66699 -13.666 -8 -18.999c2.66699 -2.66699 7.33398 -4 14.001 -4s13.667 1 21 3l11 3l8 -2c26.667 -8.66699 40 -17.667 40 -27v-5l-80 -42c-4 -2 -8.5 -6.83301 -13.5 -14.5
s-9.66699 -16 -14 -25s-8 -17.667 -11 -26s-4.5 -14.833 -4.5 -19.5c0 -26.667 18.333 -48.334 55 -65.001c-1.33301 0 1.66699 -1.5 9 -4.5l24.5 -10.5c9 -4 17.333 -8.33301 25 -13s11.5 -8.66699 11.5 -12c0 -2 -3.33301 -3 -10 -3c-8 0 -19.333 1 -34 3
c-2.66699 -2.66699 -4 -5 -4 -7c0 -7.33301 6.66699 -11 20 -11h16c4 0 6 -3.33301 6 -10c0 -6 -3.33301 -10.167 -10 -12.5s-10 -6.5 -10 -12.5c0 -2.66699 0.333008 -4.33398 1 -5.00098v-2c0 -8 -4.66699 -12 -14 -12h-13c-10.667 0 -17.667 -2.83301 -21 -8.5
s-6.5 -11.667 -9.5 -18s-7.16699 -12.333 -12.5 -18s-15 -8.5 -29 -8.5c-17.333 0 -31.333 6 -42 18s-16 27.333 -16 46c0 2 -4.33301 9.33301 -13 22l-28 42l-28 43.5c-8.66699 13.667 -13 22.5 -13 26.5c0 8 1.33301 19.833 4 35.5s4 27.5 4 35.5
c0 13.333 5.66699 26.666 17 39.999l39 44c1.33301 1.33301 5.16602 7.33301 11.499 18l20 35l19.5 34c6 10 9.66699 15 11 15c3.33301 0 8 0.5 14 1.5s10.667 1.5 14 1.5c7.33301 0 12.666 -4.66699 15.999 -14z" />
    <glyph glyph-name="cent" unicode="&#x45e;" horiz-adv-x="304" 
d="M190 715c0 -4 1.00098 -9.99805 3.00098 -17.998s3 -14 3 -18c0 -7.33301 -2.66699 -13.666 -8 -18.999c2.66699 -2.66699 7.33398 -4 14.001 -4s13.667 1 21 3l11 3l8 -2c26.667 -8.66699 40 -17.667 40 -27v-5l-80 -42c-4 -2 -8.5 -6.83301 -13.5 -14.5
s-9.66699 -16 -14 -25s-8 -17.667 -11 -26s-4.5 -14.833 -4.5 -19.5c0 -26.667 18.333 -48.334 55 -65.001c-1.33301 0 1.66699 -1.5 9 -4.5l24.5 -10.5c9 -4 17.333 -8.33301 25 -13s11.5 -8.66699 11.5 -12c0 -2 -3.33301 -3 -10 -3c-8 0 -19.333 1 -34 3
c-2.66699 -2.66699 -4 -5 -4 -7c0 -7.33301 6.66699 -11 20 -11h16c4 0 6 -3.33301 6 -10c0 -6 -3.33301 -10.167 -10 -12.5s-10 -6.5 -10 -12.5c0 -2.66699 0.333008 -4.33398 1 -5.00098v-2c0 -8 -4.66699 -12 -14 -12h-13c-10.667 0 -17.667 -2.83301 -21 -8.5
s-6.5 -11.667 -9.5 -18s-7.16699 -12.333 -12.5 -18s-15 -8.5 -29 -8.5c-17.333 0 -31.333 6 -42 18s-16 27.333 -16 46c0 2 -4.33301 9.33301 -13 22l-28 42l-28 43.5c-8.66699 13.667 -13 22.5 -13 26.5c0 8 1.33301 19.833 4 35.5s4 27.5 4 35.5
c0 13.333 5.66699 26.666 17 39.999l39 44c1.33301 1.33301 5.16602 7.33301 11.499 18l20 35l19.5 34c6 10 9.66699 15 11 15c3.33301 0 8 0.5 14 1.5s10.667 1.5 14 1.5c7.33301 0 12.666 -4.66699 15.999 -14z" />
    <glyph glyph-name="FLW166" unicode="&#xa6;" horiz-adv-x="386" 
d="M182 747c-2 -8 -2.99707 -14.001 -2.99707 -18.001c0 -6.66699 4.5 -8 13.5 -4s18.667 9 29 15s20 10.667 29 14s13.5 1 13.5 -7v-14c0 -5.33301 3.66699 -9.33301 11 -12s11 -7 11 -13c-9.33301 -9.33301 -14 -21.333 -14 -36c0 -11.333 3.33301 -21.166 10 -29.499
s15.667 -12.5 27 -12.5c1.33301 0 4.33301 1.5 9 4.5s10 4.5 16 4.5h2c2.66699 0 4.66699 -1.66699 6 -5s2 -6 2 -8c0 -10.667 -6.33301 -23.667 -19 -39s-27.334 -30.333 -44.001 -45s-33.334 -28 -50.001 -40s-29 -20.333 -37 -25c6 0 4.33301 2.83301 -5 8.5
s-20.5 11.834 -33.5 18.501s-24.833 12.167 -35.5 16.5s-14.334 5.5 -11.001 3.5c-59.333 37.333 -89 69.666 -89 96.999c0 3.33301 7.16699 12.333 21.5 27s30.5 30.167 48.5 46.5s35 31 51 44s25.667 19.5 29 19.5c4 0 8 -3.66699 12 -11zM198.003 364.999
c2.66699 0 7 1.49902 13 4.49902s10.667 4.5 14 4.5c2.66699 0 7.66699 -3.5 15 -10.5s12.666 -10.5 15.999 -10.5c2.66699 0 5.66699 1.33301 9 4s6.33301 4 9 4l12 -3c7.33301 -2 11 -6.33301 11 -13v-5c0 -10.667 4.5 -17.667 13.5 -21s13.5 -6.66602 13.5 -9.99902v-6
c0 -9.33301 -2.16699 -17.666 -6.5 -24.999s-2.83301 -11 4.5 -11c1.33301 0 6 2.66699 14 8s13.667 8 17 8c8.66699 0 13 -6 13 -18c0 -14 -10.667 -31.667 -32 -53l-126 -123c-2.66699 -2 -8.66699 -3 -18 -3c-6.66699 0 -14.167 2.33301 -22.5 7s-16.5 10.5 -24.5 17.5
s-14.833 14.167 -20.5 21.5s-9.16699 14 -10.5 20c-1.33301 1.33301 -7 5.66602 -17 12.999s-20.5 15.5 -31.5 24.5s-21 18 -30 27s-13.5 15.833 -13.5 20.5c0 4 0.666992 7.33301 2 10l12 18l124 126c5.33301 5.33301 11 8 17 8c8.66699 0 14.334 -2.83301 17.001 -8.5
s4.66699 -14.167 6 -25.5z" />
    <glyph glyph-name="FLW168" unicode="&#xa8;" horiz-adv-x="510" 
d="M142 687c1.33301 0 7.33887 0.501953 18.0059 1.50195s25.334 2.16699 44.001 3.5l37 3c5.33301 0.666992 10.166 1 14.499 1h10.5c3.33301 0 6.66602 -0.166992 9.99902 -0.5s6.66602 -0.833008 9.99902 -1.5h8c4 0 9.33301 0.666992 16 2l44 6
c11.333 1.33301 22.666 -3 33.999 -13c10 0.666992 21 2.16699 33 4.5s24.667 5.16602 38 8.49902h5c5.33301 0 8.66602 -2 9.99902 -6v-2c0 -4.66699 -3.66699 -10.5 -11 -17.5s-11 -11.167 -11 -12.5c0 -2.66699 3.66699 -6 11 -10h4c1.33301 0 2.5 0.166992 3.5 0.5
s1.83301 0.5 2.5 0.5c3.33301 0 4.16602 -1.16699 2.49902 -3.5s-4.33398 -5.33301 -8.00098 -9l-10.5 -11c-3.33301 -3.66699 -5 -6.83398 -5 -9.50098v-2c0 -2 4.66699 -5 14 -9s14 -8.33301 14 -13c-2 -2.66699 -7.83301 -5.66699 -17.5 -9s-14.167 -7 -13.5 -11
c0.666992 -3.33301 6.66699 -6.66602 18 -9.99902c12 -5.33301 16.333 -9.5 13 -12.5s-9.33301 -5.33301 -18 -7s-17.667 -3.16699 -27 -4.5s-14 -3.33301 -14 -6c0 -2 3.33301 -4.33301 10 -7s14.167 -5.5 22.5 -8.5s15.833 -6 22.5 -9s10 -5.83301 10 -8.5v-2
c0 -2.66699 -3.33301 -4.5 -10 -5.5s-15.334 -1.5 -26.001 -1.5c-16.667 0 -35.167 0.666992 -55.5 2s-37.166 2 -50.499 2h-9c-3.33301 0 -7 0.333008 -11 1c-34.667 2.66699 -52 -4.33301 -52 -21v-6l14 -9l99 8c8.66699 0.666992 19.667 1.16699 33 1.5
s29.333 0.5 48 0.5c0 -3.33301 3.33301 -8.33301 10 -15s8.66699 -11.667 6 -15l-11.5 -5.5c-6.33301 -3 -13.333 -7 -21 -12s-11.5 -9.5 -11.5 -13.5c0 -3.33301 1.33301 -7.33301 4 -12c0 -4 -4.33301 -9 -13 -15s-13 -11 -13 -15
c0.666992 -1.33301 5.16699 -4.83301 13.5 -10.5s12.5 -10.5 12.5 -14.5c0 -1.33301 -0.666992 -3.16602 -2 -5.49902s-2 -4.16602 -2 -5.49902s1.33301 -4 4 -8s4 -6.66699 4 -8v-2l-22 -12l-142 -5c-4 0 -6 -5 -6 -15c0 -3.33301 0.666992 -7.83301 2 -13.5
s2 -10.167 2 -13.5l10 -8c10.667 -0.666992 20.167 -1.16699 28.5 -1.5s15.5 -0.5 21.5 -0.5h10.5c4.33301 0 9.83301 0.333008 16.5 1l40 2c7.33301 0.666992 14 1 20 1h17c10.667 0 16 -1 16 -3s-0.666992 -4.5 -2 -7.5s-2 -5.16699 -2 -6.5
c0 -4.66699 4.33301 -6.5 13 -5.5s13.667 1.5 15 1.5c4 0 6 -1.66699 6 -5s-1.16699 -7.5 -3.5 -12.5s-5.5 -10.333 -9.5 -16l-11 -15.5c-6 -8 -9.5 -13.167 -10.5 -15.5s-1.16699 -4 -0.5 -5s2 -2.33301 4 -4s3 -5.83398 3 -12.501v-4l-37 -19
c-0.666992 -0.666992 1.33301 -3.16699 6 -7.5s7 -7.5 7 -9.5c0 -4 -2.33301 -7.5 -7 -10.5s-10.334 -5.5 -17.001 -7.5s-13.334 -3.5 -20.001 -4.5s-12.334 -1.5 -17.001 -1.5c-3.33301 0 -12.666 1.16699 -27.999 3.5s-33.666 3.5 -54.999 3.5h-12
c-4 0 -9.66699 -0.5 -17 -1.5s-13 -1.5 -17 -1.5c-5.33301 0 -13.166 0.333008 -23.499 1s-18.166 1 -23.499 1c-20 0 -37 -4 -51 -12h-4c-4 0 -9.66699 1 -17 3s-11.666 3 -12.999 3c-6.66699 0 -11.334 -3.33301 -14.001 -10c-3.33301 0.666992 -9.33301 3.5 -18 8.5
s-17.667 11.167 -27 18.5s-17.5 14.5 -24.5 21.5s-10.5 12.833 -10.5 17.5c0 1.33301 0.666992 7.83301 2 19.5s2.66602 26.167 3.99902 43.5s2.66602 36.666 3.99902 57.999s2 42.333 2 63c0 37.333 -1.66699 71.666 -5 102.999s-5.66602 65.666 -6.99902 102.999l-2 54
c4 10 6 24 6 42c0 8 -0.666992 20 -2 36s-2 28 -2 36v12c0 1.33301 0.333008 3.5 1 6.5s1 5.16699 1 6.5l6 6h2c5.33301 0 14 -3.16699 26 -9.5s19.667 -9.5 23 -9.5c6.66699 0 11.667 3.66699 15 11l4 19c4.66699 0 8.66699 -2.5 12 -7.5s6.5 -10.667 9.5 -17
s6.16699 -12.166 9.5 -17.499s7 -8.33301 11 -9z" />
    <glyph glyph-name="FLW168" unicode="&#x401;" horiz-adv-x="510" 
d="M142 687c1.33301 0 7.33887 0.501953 18.0059 1.50195s25.334 2.16699 44.001 3.5l37 3c5.33301 0.666992 10.166 1 14.499 1h10.5c3.33301 0 6.66602 -0.166992 9.99902 -0.5s6.66602 -0.833008 9.99902 -1.5h8c4 0 9.33301 0.666992 16 2l44 6
c11.333 1.33301 22.666 -3 33.999 -13c10 0.666992 21 2.16699 33 4.5s24.667 5.16602 38 8.49902h5c5.33301 0 8.66602 -2 9.99902 -6v-2c0 -4.66699 -3.66699 -10.5 -11 -17.5s-11 -11.167 -11 -12.5c0 -2.66699 3.66699 -6 11 -10h4c1.33301 0 2.5 0.166992 3.5 0.5
s1.83301 0.5 2.5 0.5c3.33301 0 4.16602 -1.16699 2.49902 -3.5s-4.33398 -5.33301 -8.00098 -9l-10.5 -11c-3.33301 -3.66699 -5 -6.83398 -5 -9.50098v-2c0 -2 4.66699 -5 14 -9s14 -8.33301 14 -13c-2 -2.66699 -7.83301 -5.66699 -17.5 -9s-14.167 -7 -13.5 -11
c0.666992 -3.33301 6.66699 -6.66602 18 -9.99902c12 -5.33301 16.333 -9.5 13 -12.5s-9.33301 -5.33301 -18 -7s-17.667 -3.16699 -27 -4.5s-14 -3.33301 -14 -6c0 -2 3.33301 -4.33301 10 -7s14.167 -5.5 22.5 -8.5s15.833 -6 22.5 -9s10 -5.83301 10 -8.5v-2
c0 -2.66699 -3.33301 -4.5 -10 -5.5s-15.334 -1.5 -26.001 -1.5c-16.667 0 -35.167 0.666992 -55.5 2s-37.166 2 -50.499 2h-9c-3.33301 0 -7 0.333008 -11 1c-34.667 2.66699 -52 -4.33301 -52 -21v-6l14 -9l99 8c8.66699 0.666992 19.667 1.16699 33 1.5
s29.333 0.5 48 0.5c0 -3.33301 3.33301 -8.33301 10 -15s8.66699 -11.667 6 -15l-11.5 -5.5c-6.33301 -3 -13.333 -7 -21 -12s-11.5 -9.5 -11.5 -13.5c0 -3.33301 1.33301 -7.33301 4 -12c0 -4 -4.33301 -9 -13 -15s-13 -11 -13 -15
c0.666992 -1.33301 5.16699 -4.83301 13.5 -10.5s12.5 -10.5 12.5 -14.5c0 -1.33301 -0.666992 -3.16602 -2 -5.49902s-2 -4.16602 -2 -5.49902s1.33301 -4 4 -8s4 -6.66699 4 -8v-2l-22 -12l-142 -5c-4 0 -6 -5 -6 -15c0 -3.33301 0.666992 -7.83301 2 -13.5
s2 -10.167 2 -13.5l10 -8c10.667 -0.666992 20.167 -1.16699 28.5 -1.5s15.5 -0.5 21.5 -0.5h10.5c4.33301 0 9.83301 0.333008 16.5 1l40 2c7.33301 0.666992 14 1 20 1h17c10.667 0 16 -1 16 -3s-0.666992 -4.5 -2 -7.5s-2 -5.16699 -2 -6.5
c0 -4.66699 4.33301 -6.5 13 -5.5s13.667 1.5 15 1.5c4 0 6 -1.66699 6 -5s-1.16699 -7.5 -3.5 -12.5s-5.5 -10.333 -9.5 -16l-11 -15.5c-6 -8 -9.5 -13.167 -10.5 -15.5s-1.16699 -4 -0.5 -5s2 -2.33301 4 -4s3 -5.83398 3 -12.501v-4l-37 -19
c-0.666992 -0.666992 1.33301 -3.16699 6 -7.5s7 -7.5 7 -9.5c0 -4 -2.33301 -7.5 -7 -10.5s-10.334 -5.5 -17.001 -7.5s-13.334 -3.5 -20.001 -4.5s-12.334 -1.5 -17.001 -1.5c-3.33301 0 -12.666 1.16699 -27.999 3.5s-33.666 3.5 -54.999 3.5h-12
c-4 0 -9.66699 -0.5 -17 -1.5s-13 -1.5 -17 -1.5c-5.33301 0 -13.166 0.333008 -23.499 1s-18.166 1 -23.499 1c-20 0 -37 -4 -51 -12h-4c-4 0 -9.66699 1 -17 3s-11.666 3 -12.999 3c-6.66699 0 -11.334 -3.33301 -14.001 -10c-3.33301 0.666992 -9.33301 3.5 -18 8.5
s-17.667 11.167 -27 18.5s-17.5 14.5 -24.5 21.5s-10.5 12.833 -10.5 17.5c0 1.33301 0.666992 7.83301 2 19.5s2.66602 26.167 3.99902 43.5s2.66602 36.666 3.99902 57.999s2 42.333 2 63c0 37.333 -1.66699 71.666 -5 102.999s-5.66602 65.666 -6.99902 102.999l-2 54
c4 10 6 24 6 42c0 8 -0.666992 20 -2 36s-2 28 -2 36v12c0 1.33301 0.333008 3.5 1 6.5s1 5.16699 1 6.5l6 6h2c5.33301 0 14 -3.16699 26 -9.5s19.667 -9.5 23 -9.5c6.66699 0 11.667 3.66699 15 11l4 19c4.66699 0 8.66699 -2.5 12 -7.5s6.5 -10.667 9.5 -17
s6.16699 -12.166 9.5 -17.499s7 -8.33301 11 -9z" />
    <glyph glyph-name="FLW176" unicode="&#xb0;" horiz-adv-x="406" 
d="M277 693l0.00195312 -3.99902c0 -7.33301 2.33301 -12.166 7 -14.499s10 -3.5 16 -3.5c8 0 15 1.16699 21 3.5s7.33301 3.5 4 3.5c2 0 5.33301 -2.16699 10 -6.5s9.33398 -9.5 14.001 -15.5s8.66699 -12.5 12 -19.5s5 -12.833 5 -17.5c0 -8 0.833008 -13.667 2.5 -17
s3.66699 -6 6 -8s4.66602 -3.83301 6.99902 -5.5s3.83301 -4.5 4.5 -8.5c0 -9.33301 -2.66699 -19 -8 -29s-11.333 -19.167 -18 -27.5s-12.667 -15.5 -18 -21.5l-8 -9v-2c0 -0.666992 3.83301 -3.83398 11.5 -9.50098s11.5 -11.167 11.5 -16.5
c0 -3.33301 -0.333008 -5.33301 -1 -6l-45 -6c-4.66699 -0.666992 -9.16699 -2.66699 -13.5 -6l-14 -10.5c-5 -3.66699 -10 -7 -15 -10s-10.5 -4.5 -16.5 -4.5c-3.33301 0 -7.83301 0.5 -13.5 1.5s-10.167 1.5 -13.5 1.5c-2 0 -5.83301 -1.16699 -11.5 -3.5l-18 -7.5
l-18 -7.5c-5.66699 -2.33301 -9.5 -3.5 -11.5 -3.5c-8.66699 0 -15.834 1.5 -21.501 4.5s-11 6.5 -16 10.5s-10 7.66699 -15 11s-11.5 5.33301 -19.5 6l-50 26c-1.33301 1.33301 -2 3.66602 -2 6.99902c0 4.66699 3.33301 12.667 10 24l6 12c2 2.66699 3 5 3 7
c0 4 -2.16699 7.33301 -6.5 10l-14 8.5c-5 3 -9.66699 6.33301 -14 10s-6.5 8.83398 -6.5 15.501l16 77c10 7.33301 17.167 13.5 21.5 18.5l11 12.5c3 3.33301 6.5 5.66602 10.5 6.99902s10.667 2 20 2c6.66699 0 11 3.33301 13 10v11c0 6 3.83301 11.167 11.5 15.5
s17.167 8 28.5 11s23.666 5.33301 36.999 7s26 2.5 38 2.5c11.333 0 21.5 -3.5 30.5 -10.5s15.5 -15.5 19.5 -25.5z" />
    <glyph glyph-name="FLW183" unicode="&#xb7;" horiz-adv-x="282" 
d="M196 322l79.999 -118.001c1.33301 -2.66699 2 -5 2 -7v-7c0 -8 -2 -12 -6 -12c-1.33301 0 -4.5 1 -9.5 3s-9.5 3 -13.5 3c-7.33301 0 -17.666 -2.33301 -30.999 -7l-4 -5c-18 -20 -31.667 -30 -41 -30c-2 0 -5.33301 1.33301 -10 4s-9.83398 5.33398 -15.501 8.00098
l-17.5 8c-6 2.66699 -11.333 4 -16 4s-8.66699 -2.66699 -12 -8c-5.33301 0 -12.666 3.5 -21.999 10.5s-18.5 15.167 -27.5 24.5s-16.667 18.833 -23 28.5s-9.5 17.167 -9.5 22.5c12 7.33301 30.667 28 56 62c1.33301 1.33301 16 6 44 14l31 8
c8.66699 2.66699 15.334 4 20.001 4c9.33301 0 17.666 -3.33301 24.999 -10z" />
    <glyph glyph-name="questiondown" unicode="&#xbf;" horiz-adv-x="431" 
d="M111 132c-28 26 -42 76.667 -42 152v38c0 1.33301 2.66699 6.5 8 15.5l18 29.5l18 29.5c5.33301 9 8 14.167 8 15.5c0 35.333 -18 53 -54 53h-19c-12.667 0 -22 2 -28 6c0 7.33301 4.83301 13.833 14.5 19.5s20.5 11 32.5 16s23.667 9.5 35 13.5s19 8 23 12l-29 55
c-5.33301 8.66699 -10.333 17.667 -15 27l-14 27c2 12 8.16699 23.667 18.5 35s22.833 21.5 37.5 30.5s30.167 16.167 46.5 21.5s31.166 8 44.499 8c15.333 0 26.333 -2.5 33 -7.5s10 -15.167 10 -30.5v-4c0 -10 -3.83301 -18.167 -11.5 -24.5s-11.5 -10.833 -11.5 -13.5
c2 0 8.16699 0.5 18.5 1.5l30 3c9.66699 1 10.5 1.5 2.5 1.5h10c8 0 13.167 -2.83301 15.5 -8.5s7.16602 -8.5 14.499 -8.5c4 0 7.5 1.16699 10.5 3.5s6.83301 3.5 11.5 3.5c12 0 18 -4 18 -12c0 -2 -11.333 -15.333 -34 -40l-28 -30l-12.5 -14.5l-9.5 -11.5v-2
c0 0.666992 2.83301 -3.83301 8.5 -13.5l20 -33.5c7.66699 -12.667 15.167 -24.334 22.5 -35.001s13 -16.667 17 -18c10 -2 15 -7.66699 15 -17s-3.66699 -21.166 -11 -35.499s-16.166 -29.333 -26.499 -45s-21.333 -31 -33 -46l-29.5 -37.5l-2 -6
c0 -8.66699 11.333 -17 34 -25c4 -1.33301 12.5 -4.33301 25.5 -9s25.833 -9.83398 38.5 -15.501s22.334 -11.167 29.001 -16.5s5.66699 -8.66602 -3 -9.99902c-10.667 0 -15.5 -0.5 -14.5 -1.5s4.5 -2.5 10.5 -4.5s12.333 -4.33301 19 -7s10 -6 10 -10v-2
c0 -5.33301 -9 -8 -27 -8c-3.33301 0 -8.33301 0.333008 -15 1s-11.667 1 -15 1c-16 0 -27.667 -6.66699 -35 -20c-6.66699 0 -15.334 0.666992 -26.001 2l-33 4l-32.5 4c-10.333 1.33301 -18.5 2 -24.5 2c10.667 -8.66699 37.334 -20.667 80.001 -36l17 -7
c6.66699 -2.66699 12.5 -5.5 17.5 -8.5s8.16699 -5.5 9.5 -7.5s-0.666992 -3 -6 -3c-3.33301 0 -8 0.666992 -14 2s-10.667 2 -14 2l-91.5 24.5z" />
    <glyph glyph-name="questiondown" unicode="&#x457;" horiz-adv-x="431" 
d="M111 132c-28 26 -42 76.667 -42 152v38c0 1.33301 2.66699 6.5 8 15.5l18 29.5l18 29.5c5.33301 9 8 14.167 8 15.5c0 35.333 -18 53 -54 53h-19c-12.667 0 -22 2 -28 6c0 7.33301 4.83301 13.833 14.5 19.5s20.5 11 32.5 16s23.667 9.5 35 13.5s19 8 23 12l-29 55
c-5.33301 8.66699 -10.333 17.667 -15 27l-14 27c2 12 8.16699 23.667 18.5 35s22.833 21.5 37.5 30.5s30.167 16.167 46.5 21.5s31.166 8 44.499 8c15.333 0 26.333 -2.5 33 -7.5s10 -15.167 10 -30.5v-4c0 -10 -3.83301 -18.167 -11.5 -24.5s-11.5 -10.833 -11.5 -13.5
c2 0 8.16699 0.5 18.5 1.5l30 3c9.66699 1 10.5 1.5 2.5 1.5h10c8 0 13.167 -2.83301 15.5 -8.5s7.16602 -8.5 14.499 -8.5c4 0 7.5 1.16699 10.5 3.5s6.83301 3.5 11.5 3.5c12 0 18 -4 18 -12c0 -2 -11.333 -15.333 -34 -40l-28 -30l-12.5 -14.5l-9.5 -11.5v-2
c0 0.666992 2.83301 -3.83301 8.5 -13.5l20 -33.5c7.66699 -12.667 15.167 -24.334 22.5 -35.001s13 -16.667 17 -18c10 -2 15 -7.66699 15 -17s-3.66699 -21.166 -11 -35.499s-16.166 -29.333 -26.499 -45s-21.333 -31 -33 -46l-29.5 -37.5l-2 -6
c0 -8.66699 11.333 -17 34 -25c4 -1.33301 12.5 -4.33301 25.5 -9s25.833 -9.83398 38.5 -15.501s22.334 -11.167 29.001 -16.5s5.66699 -8.66602 -3 -9.99902c-10.667 0 -15.5 -0.5 -14.5 -1.5s4.5 -2.5 10.5 -4.5s12.333 -4.33301 19 -7s10 -6 10 -10v-2
c0 -5.33301 -9 -8 -27 -8c-3.33301 0 -8.33301 0.333008 -15 1s-11.667 1 -15 1c-16 0 -27.667 -6.66699 -35 -20c-6.66699 0 -15.334 0.666992 -26.001 2l-33 4l-32.5 4c-10.333 1.33301 -18.5 2 -24.5 2c10.667 -8.66699 37.334 -20.667 80.001 -36l17 -7
c6.66699 -2.66699 12.5 -5.5 17.5 -8.5s8.16699 -5.5 9.5 -7.5s-0.666992 -3 -6 -3c-3.33301 0 -8 0.666992 -14 2s-10.667 2 -14 2l-91.5 24.5z" />
    <glyph glyph-name="FLW192" unicode="&#xc0;" horiz-adv-x="757" 
d="M426 740c-4 -8 -5.99414 -16.334 -5.99414 -25.001v-7c0 -4 2.66699 -6.16699 8 -6.5s11.333 0 18 1s13 2.16699 19 3.5s9.33301 2 10 2c2.66699 0 7.16699 -1.33301 13.5 -4s10.833 -4 13.5 -4c4.66699 0 8.5 2.33301 11.5 7s7.5 7 13.5 7
c15.333 0 27.666 -8 36.999 -24s17.5 -36.333 24.5 -61s13.167 -52 18.5 -82s11 -59 17 -87l18 -78l10.5 -53c4.33301 -22 11.166 -46 20.499 -72l63 -174c2 -5.33301 0.833008 -9.5 -3.5 -12.5s-7.83301 -4.5 -10.5 -4.5s-6.83398 1.5 -12.501 4.5l-17.5 9.5
c-6 3.33301 -11.333 6.5 -16 9.5s-7.33398 4.5 -8.00098 4.5c-6.66699 0 -13.667 -5.66699 -21 -17c-2.66699 0 -6.16699 2.66699 -10.5 8s-8.66602 10.333 -12.999 15s-8.16602 7.66699 -11.499 9s-5 -1.66699 -5 -9c0 0.666992 0.666992 -2.33301 2 -9v-3
c0 -6 -3.33301 -9.83301 -10 -11.5s-13 -3.16699 -19 -4.5c-4 0 -8 2.16699 -12 6.5s-8 9 -12 14l-11 14c-3.33301 4.33301 -6 6.5 -8 6.5c-3.33301 0 -5.5 -1.83301 -6.5 -5.5s-1.66699 -7.5 -2 -11.5s-0.833008 -7.83301 -1.5 -11.5s-2.33398 -5.5 -5.00098 -5.5
s-6 4 -10 12s-8.5 17.833 -13.5 29.5l-15 36.5c-5 12.667 -9.83301 23.667 -14.5 33c-27.333 0 -53.333 -0.666992 -78 -2s-48.334 -3.33301 -71.001 -6c-4 -2.66699 -7.5 -9.66699 -10.5 -21s-7.33301 -23.166 -13 -35.499s-13.5 -23.333 -23.5 -33
s-23.667 -14.5 -41 -14.5c-6 0 -11.333 -2 -16 -6h-2c-4 0 -6.66699 1.66699 -8 5l-8 7c-30 -12 -53.667 -27.667 -71 -47l-7 -1c0.666992 6.66699 1.16699 12.334 1.5 17.001s0.5 8.33398 0.5 11.001c0 9.33301 -2 13.333 -6 12s-8 -2 -12 -2s-6.66699 1.66699 -8 5v2
c0 3.33301 1.33301 7.66602 4 12.999s4 8.66602 4 9.99902c0 7.33301 -2.66699 10 -8 8c-8 -2.66699 -19.667 -11.667 -35 -27l-10 -10l-31 1c0 11.333 15.333 37.333 46 78c13.333 5.33301 24.5 18 33.5 38l27.5 59l16 83c38.667 94.667 67 182 85 262
c18.667 46 42 89 70 129h2c3.33301 0 8.16602 -0.833008 14.499 -2.5s10.833 -2.5 13.5 -2.5c1.33301 1.33301 4.66602 5.33301 9.99902 12s10.333 10 15 10h4c2 -16.667 5.66699 -25 11 -25c2.66699 0 5.66699 1.83301 9 5.5l10.5 12c3.66699 4.33301 7.5 8.33301 11.5 12
s7.66699 5.5 11 5.5c4.66699 0 10 -4 16 -12zM414.006 474.999c-3.33301 -4 -15.332 -30.334 -35.999 -79.001c0 -12 3 -20.667 9 -26h8c1.33301 0 3.16602 0.333008 5.49902 1s4.83301 0.333984 7.5 -0.999023h16c10 0 17.167 2.66699 21.5 8s6.5 11.666 6.5 18.999
c0 8 -2.66699 17.333 -8 28l-9 19l-6 20c-2 6.66699 -7 10.334 -15 11.001z" />
    <glyph glyph-name="FLW192" unicode="&#x410;" horiz-adv-x="757" 
d="M426 740c-4 -8 -5.99414 -16.334 -5.99414 -25.001v-7c0 -4 2.66699 -6.16699 8 -6.5s11.333 0 18 1s13 2.16699 19 3.5s9.33301 2 10 2c2.66699 0 7.16699 -1.33301 13.5 -4s10.833 -4 13.5 -4c4.66699 0 8.5 2.33301 11.5 7s7.5 7 13.5 7
c15.333 0 27.666 -8 36.999 -24s17.5 -36.333 24.5 -61s13.167 -52 18.5 -82s11 -59 17 -87l18 -78l10.5 -53c4.33301 -22 11.166 -46 20.499 -72l63 -174c2 -5.33301 0.833008 -9.5 -3.5 -12.5s-7.83301 -4.5 -10.5 -4.5s-6.83398 1.5 -12.501 4.5l-17.5 9.5
c-6 3.33301 -11.333 6.5 -16 9.5s-7.33398 4.5 -8.00098 4.5c-6.66699 0 -13.667 -5.66699 -21 -17c-2.66699 0 -6.16699 2.66699 -10.5 8s-8.66602 10.333 -12.999 15s-8.16602 7.66699 -11.499 9s-5 -1.66699 -5 -9c0 0.666992 0.666992 -2.33301 2 -9v-3
c0 -6 -3.33301 -9.83301 -10 -11.5s-13 -3.16699 -19 -4.5c-4 0 -8 2.16699 -12 6.5s-8 9 -12 14l-11 14c-3.33301 4.33301 -6 6.5 -8 6.5c-3.33301 0 -5.5 -1.83301 -6.5 -5.5s-1.66699 -7.5 -2 -11.5s-0.833008 -7.83301 -1.5 -11.5s-2.33398 -5.5 -5.00098 -5.5
s-6 4 -10 12s-8.5 17.833 -13.5 29.5l-15 36.5c-5 12.667 -9.83301 23.667 -14.5 33c-27.333 0 -53.333 -0.666992 -78 -2s-48.334 -3.33301 -71.001 -6c-4 -2.66699 -7.5 -9.66699 -10.5 -21s-7.33301 -23.166 -13 -35.499s-13.5 -23.333 -23.5 -33
s-23.667 -14.5 -41 -14.5c-6 0 -11.333 -2 -16 -6h-2c-4 0 -6.66699 1.66699 -8 5l-8 7c-30 -12 -53.667 -27.667 -71 -47l-7 -1c0.666992 6.66699 1.16699 12.334 1.5 17.001s0.5 8.33398 0.5 11.001c0 9.33301 -2 13.333 -6 12s-8 -2 -12 -2s-6.66699 1.66699 -8 5v2
c0 3.33301 1.33301 7.66602 4 12.999s4 8.66602 4 9.99902c0 7.33301 -2.66699 10 -8 8c-8 -2.66699 -19.667 -11.667 -35 -27l-10 -10l-31 1c0 11.333 15.333 37.333 46 78c13.333 5.33301 24.5 18 33.5 38l27.5 59l16 83c38.667 94.667 67 182 85 262
c18.667 46 42 89 70 129h2c3.33301 0 8.16602 -0.833008 14.499 -2.5s10.833 -2.5 13.5 -2.5c1.33301 1.33301 4.66602 5.33301 9.99902 12s10.333 10 15 10h4c2 -16.667 5.66699 -25 11 -25c2.66699 0 5.66699 1.83301 9 5.5l10.5 12c3.66699 4.33301 7.5 8.33301 11.5 12
s7.66699 5.5 11 5.5c4.66699 0 10 -4 16 -12zM414.006 474.999c-3.33301 -4 -15.332 -30.334 -35.999 -79.001c0 -12 3 -20.667 9 -26h8c1.33301 0 3.16602 0.333008 5.49902 1s4.83301 0.333984 7.5 -0.999023h16c10 0 17.167 2.66699 21.5 8s6.5 11.666 6.5 18.999
c0 8 -2.66699 17.333 -8 28l-9 19l-6 20c-2 6.66699 -7 10.334 -15 11.001z" />
    <glyph glyph-name="FLW193" unicode="&#xc1;" horiz-adv-x="560" 
d="M264 556c-4 -4 -6.00098 -10.6719 -6.00098 -20.0049c0 -4.66699 1 -11 3 -19s3 -14.333 3 -19v-16c0 -5.33301 1.83301 -8.16602 5.5 -8.49902s8 0.166992 13 1.5s10.5 2.5 16.5 3.5s11.333 0.5 16 -1.5l34 -15.5c11.333 -5 23 -11 35 -18s24.833 -15.333 38.5 -25
s28.834 -21.5 45.501 -35.5l22 -31l16 -25c8.66699 -13.333 16.5 -28.833 23.5 -46.5s10.5 -35.834 10.5 -54.501c-17.333 -59.333 -45 -100.666 -83 -123.999c-15.333 -9.33301 -30.666 -14 -45.999 -14c-18 0 -34.667 1.33301 -50 4l-7 1h-17
c-2 0 -4.16699 -0.666992 -6.5 -2s-3.83301 -2 -4.5 -2c-9.33301 0 -19.833 1.16699 -31.5 3.5s-23.5 5 -35.5 8s-23.333 5.66699 -34 8s-19.667 3.5 -27 3.5l-5.5 -3.5c-3.66699 -2.33301 -7.83398 -4.66602 -12.501 -6.99902s-9.5 -4.5 -14.5 -6.5s-8.83301 -3 -11.5 -3
h-2l-10 16c-3.33301 5.33301 -7.33301 8 -12 8h-3l-15 -24c-5.33301 -8 -17.666 -12.667 -36.999 -14l-19 -1c-8 -0.666992 -13.5 2.33301 -16.5 9s-4.5 15.334 -4.5 26.001c0 12.667 1.16699 26.834 3.5 42.501s3.5 30.167 3.5 43.5v60c0 8 0.666992 18.333 2 31s3 26 5 40
s3.66699 27.333 5 40s2 23 2 31c0 7.33301 -1.5 17.666 -4.5 30.999s-4.83301 23 -5.5 29c-2.66699 13.333 -4 44 -4 92v76c0 2 -3.66699 5.66699 -11 11s-11 9.66602 -11 12.999c0 1.33301 3.16699 4.5 9.5 9.5s11.166 8.5 14.499 10.5l2 30
c5.33301 0 17.666 2.66699 36.999 8c26 -14 45.667 -21 59 -21c1.33301 -1.33301 3.33301 -0.333008 6 3s4 6 4 8c0 8.66699 2.66699 12.834 8 12.501s11.666 -2.33301 18.999 -6s14.166 -7.66699 20.499 -12s10.5 -6.5 12.5 -6.5c2.66699 0 4.83398 1.83301 6.50098 5.5
s3.33398 7.83398 5.00098 12.501s3.33398 8.83398 5.00098 12.501s4.16699 5.5 7.5 5.5s7.33301 -2.5 12 -7.5l12 -12.5l157 -4c-1.33301 0 -1.16602 -1.16699 0.500977 -3.5s4.16699 -4.83301 7.5 -7.5c7.33301 -5.33301 9.33301 -9.5 6 -12.5s-8 -5.83301 -14 -8.5
s-11.333 -5.66699 -16 -9s-4 -8 2 -14l25 -27c4.66699 -5.33301 5.83398 -9.33301 3.50098 -12s-5.83301 -5.16699 -10.5 -7.5s-9.33398 -4.33301 -14.001 -6s-7 -4.16699 -7 -7.5c0 -4 6.33301 -9.66699 19 -17c0 -8 -5.33301 -12 -16 -12c-9.33301 0 -20.333 2 -33 6
s-21.334 6 -26.001 6c-16 0 -32 -2 -48 -6s-26.667 -6 -32 -6zM259.999 321.995v-23c0 -2 -0.333008 -5.16699 -1 -9.5s-1 -7.5 -1 -9.5c0 -10.667 1.33301 -21.167 4 -31.5s8 -15.5 16 -15.5c7.33301 0 14.833 3.5 22.5 10.5s11.5 14.167 11.5 21.5
c0 4 -1.83301 9.5 -5.5 16.5s-8 13.833 -13 20.5s-10.5 12 -16.5 16s-11.667 5.33301 -17 4z" />
    <glyph glyph-name="FLW193" unicode="&#x411;" horiz-adv-x="560" 
d="M264 556c-4 -4 -6.00098 -10.6719 -6.00098 -20.0049c0 -4.66699 1 -11 3 -19s3 -14.333 3 -19v-16c0 -5.33301 1.83301 -8.16602 5.5 -8.49902s8 0.166992 13 1.5s10.5 2.5 16.5 3.5s11.333 0.5 16 -1.5l34 -15.5c11.333 -5 23 -11 35 -18s24.833 -15.333 38.5 -25
s28.834 -21.5 45.501 -35.5l22 -31l16 -25c8.66699 -13.333 16.5 -28.833 23.5 -46.5s10.5 -35.834 10.5 -54.501c-17.333 -59.333 -45 -100.666 -83 -123.999c-15.333 -9.33301 -30.666 -14 -45.999 -14c-18 0 -34.667 1.33301 -50 4l-7 1h-17
c-2 0 -4.16699 -0.666992 -6.5 -2s-3.83301 -2 -4.5 -2c-9.33301 0 -19.833 1.16699 -31.5 3.5s-23.5 5 -35.5 8s-23.333 5.66699 -34 8s-19.667 3.5 -27 3.5l-5.5 -3.5c-3.66699 -2.33301 -7.83398 -4.66602 -12.501 -6.99902s-9.5 -4.5 -14.5 -6.5s-8.83301 -3 -11.5 -3
h-2l-10 16c-3.33301 5.33301 -7.33301 8 -12 8h-3l-15 -24c-5.33301 -8 -17.666 -12.667 -36.999 -14l-19 -1c-8 -0.666992 -13.5 2.33301 -16.5 9s-4.5 15.334 -4.5 26.001c0 12.667 1.16699 26.834 3.5 42.501s3.5 30.167 3.5 43.5v60c0 8 0.666992 18.333 2 31s3 26 5 40
s3.66699 27.333 5 40s2 23 2 31c0 7.33301 -1.5 17.666 -4.5 30.999s-4.83301 23 -5.5 29c-2.66699 13.333 -4 44 -4 92v76c0 2 -3.66699 5.66699 -11 11s-11 9.66602 -11 12.999c0 1.33301 3.16699 4.5 9.5 9.5s11.166 8.5 14.499 10.5l2 30
c5.33301 0 17.666 2.66699 36.999 8c26 -14 45.667 -21 59 -21c1.33301 -1.33301 3.33301 -0.333008 6 3s4 6 4 8c0 8.66699 2.66699 12.834 8 12.501s11.666 -2.33301 18.999 -6s14.166 -7.66699 20.499 -12s10.5 -6.5 12.5 -6.5c2.66699 0 4.83398 1.83301 6.50098 5.5
s3.33398 7.83398 5.00098 12.501s3.33398 8.83398 5.00098 12.501s4.16699 5.5 7.5 5.5s7.33301 -2.5 12 -7.5l12 -12.5l157 -4c-1.33301 0 -1.16602 -1.16699 0.500977 -3.5s4.16699 -4.83301 7.5 -7.5c7.33301 -5.33301 9.33301 -9.5 6 -12.5s-8 -5.83301 -14 -8.5
s-11.333 -5.66699 -16 -9s-4 -8 2 -14l25 -27c4.66699 -5.33301 5.83398 -9.33301 3.50098 -12s-5.83301 -5.16699 -10.5 -7.5s-9.33398 -4.33301 -14.001 -6s-7 -4.16699 -7 -7.5c0 -4 6.33301 -9.66699 19 -17c0 -8 -5.33301 -12 -16 -12c-9.33301 0 -20.333 2 -33 6
s-21.334 6 -26.001 6c-16 0 -32 -2 -48 -6s-26.667 -6 -32 -6zM259.999 321.995v-23c0 -2 -0.333008 -5.16699 -1 -9.5s-1 -7.5 -1 -9.5c0 -10.667 1.33301 -21.167 4 -31.5s8 -15.5 16 -15.5c7.33301 0 14.833 3.5 22.5 10.5s11.5 14.167 11.5 21.5
c0 4 -1.83301 9.5 -5.5 16.5s-8 13.833 -13 20.5s-10.5 12 -16.5 16s-11.667 5.33301 -17 4z" />
    <glyph glyph-name="FLW194" unicode="&#xc2;" 
d="M260 704l159 -4.00684c-5.33301 0 -3.33301 -3.66699 6 -11c15.333 -11.333 30 -23.5 44 -36.5s26.333 -25.833 37 -38.5l17 -19c10 -12 19.333 -23.833 28 -35.5s13 -22.167 13 -31.5s-4 -21.666 -12 -36.999s-16 -27.666 -24 -36.999l-60 -71v-2
c0 -8 12.667 -27.667 38 -59c22.667 -26.667 34 -58.667 34 -96c-17.333 -59.333 -45 -100.666 -83 -123.999c-15.333 -9.33301 -30.666 -14 -45.999 -14c-18 0 -34.667 1.33301 -50 4l-7 1h-17c-2 0 -4.16699 -0.666992 -6.5 -2s-3.83301 -2 -4.5 -2
c-9.33301 0 -19.833 1.16699 -31.5 3.5s-23.5 5 -35.5 8s-23.333 5.66699 -34 8s-19.667 3.5 -27 3.5l-5.5 -3.5c-3.66699 -2.33301 -7.83398 -4.66602 -12.501 -6.99902s-9.5 -4.5 -14.5 -6.5s-8.83301 -3 -11.5 -3h-2l-10 16c-3.33301 5.33301 -7.33301 8 -12 8h-3
l-15 -24c-5.33301 -8 -17.666 -12.667 -36.999 -14l-19 -1c-8 -0.666992 -13.5 2.33301 -16.5 9s-4.5 15.334 -4.5 26.001c0 12.667 1.16699 26.834 3.5 42.501s3.5 30.167 3.5 43.5v60c0 8 0.666992 18.333 2 31s3 26 5 40s3.66699 27.333 5 40s2 23 2 31
c0 7.33301 -1.5 17.666 -4.5 30.999s-4.83301 23 -5.5 29c-2.66699 13.333 -4 44 -4 92v76c0 2 -3.66699 5.66699 -11 11s-11 9.66602 -11 12.999c0 1.33301 3.16699 4.5 9.5 9.5s11.166 8.5 14.499 10.5l2 30c5.33301 0 17.666 2.66699 36.999 8c26 -14 45.667 -21 59 -21
c1.33301 -1.33301 3.33301 -0.333008 6 3s4 6 4 8c0 8.66699 2.66699 12.834 8 12.501s11.666 -2.33301 18.999 -6s14.166 -7.66699 20.499 -12s10.5 -6.5 12.5 -6.5c2.66699 0 4.83398 1.83301 6.50098 5.5s3.33398 7.83398 5.00098 12.501s3.33398 8.83398 5.00098 12.501
s4.16699 5.5 7.5 5.5s7.33301 -2.5 12 -7.5zM264 555.993c-4 -4 -5.99707 -10.667 -5.99707 -20c0 -4.66699 1 -11 3 -19s3 -14.333 3 -19v-16c0 -6 2.16699 -8.33301 6.5 -7s9.16602 4.33301 14.499 9s10.166 10.5 14.499 17.5s6.5 12.833 6.5 17.5
c0 8.66699 -4.83301 17 -14.5 25s-18.834 12 -27.501 12zM260.003 321.993v-23c0 -2 -0.333008 -5.16699 -1 -9.5s-1 -7.5 -1 -9.5c0 -10.667 1.33301 -21.167 4 -31.5s8 -15.5 16 -15.5c7.33301 0 14.833 3.5 22.5 10.5s11.5 14.167 11.5 21.5c0 4 -1.83301 9.5 -5.5 16.5
s-8 13.833 -13 20.5s-10.5 12 -16.5 16s-11.667 5.33301 -17 4z" />
    <glyph glyph-name="FLW194" unicode="&#x412;" 
d="M260 704l159 -4.00684c-5.33301 0 -3.33301 -3.66699 6 -11c15.333 -11.333 30 -23.5 44 -36.5s26.333 -25.833 37 -38.5l17 -19c10 -12 19.333 -23.833 28 -35.5s13 -22.167 13 -31.5s-4 -21.666 -12 -36.999s-16 -27.666 -24 -36.999l-60 -71v-2
c0 -8 12.667 -27.667 38 -59c22.667 -26.667 34 -58.667 34 -96c-17.333 -59.333 -45 -100.666 -83 -123.999c-15.333 -9.33301 -30.666 -14 -45.999 -14c-18 0 -34.667 1.33301 -50 4l-7 1h-17c-2 0 -4.16699 -0.666992 -6.5 -2s-3.83301 -2 -4.5 -2
c-9.33301 0 -19.833 1.16699 -31.5 3.5s-23.5 5 -35.5 8s-23.333 5.66699 -34 8s-19.667 3.5 -27 3.5l-5.5 -3.5c-3.66699 -2.33301 -7.83398 -4.66602 -12.501 -6.99902s-9.5 -4.5 -14.5 -6.5s-8.83301 -3 -11.5 -3h-2l-10 16c-3.33301 5.33301 -7.33301 8 -12 8h-3
l-15 -24c-5.33301 -8 -17.666 -12.667 -36.999 -14l-19 -1c-8 -0.666992 -13.5 2.33301 -16.5 9s-4.5 15.334 -4.5 26.001c0 12.667 1.16699 26.834 3.5 42.501s3.5 30.167 3.5 43.5v60c0 8 0.666992 18.333 2 31s3 26 5 40s3.66699 27.333 5 40s2 23 2 31
c0 7.33301 -1.5 17.666 -4.5 30.999s-4.83301 23 -5.5 29c-2.66699 13.333 -4 44 -4 92v76c0 2 -3.66699 5.66699 -11 11s-11 9.66602 -11 12.999c0 1.33301 3.16699 4.5 9.5 9.5s11.166 8.5 14.499 10.5l2 30c5.33301 0 17.666 2.66699 36.999 8c26 -14 45.667 -21 59 -21
c1.33301 -1.33301 3.33301 -0.333008 6 3s4 6 4 8c0 8.66699 2.66699 12.834 8 12.501s11.666 -2.33301 18.999 -6s14.166 -7.66699 20.499 -12s10.5 -6.5 12.5 -6.5c2.66699 0 4.83398 1.83301 6.50098 5.5s3.33398 7.83398 5.00098 12.501s3.33398 8.83398 5.00098 12.501
s4.16699 5.5 7.5 5.5s7.33301 -2.5 12 -7.5zM264 555.993c-4 -4 -5.99707 -10.667 -5.99707 -20c0 -4.66699 1 -11 3 -19s3 -14.333 3 -19v-16c0 -6 2.16699 -8.33301 6.5 -7s9.16602 4.33301 14.499 9s10.166 10.5 14.499 17.5s6.5 12.833 6.5 17.5
c0 8.66699 -4.83301 17 -14.5 25s-18.834 12 -27.501 12zM260.003 321.993v-23c0 -2 -0.333008 -5.16699 -1 -9.5s-1 -7.5 -1 -9.5c0 -10.667 1.33301 -21.167 4 -31.5s8 -15.5 16 -15.5c7.33301 0 14.833 3.5 22.5 10.5s11.5 14.167 11.5 21.5c0 4 -1.83301 9.5 -5.5 16.5
s-8 13.833 -13 20.5s-10.5 12 -16.5 16s-11.667 5.33301 -17 4z" />
    </font>
</defs>
</svg>
