<?xml version="1.0" standalone="no"?>
<!DOCTYPE svg PUBLIC "-//W3C//DTD SVG 1.1//EN" "http://www.w3.org/Graphics/SVG/1.1/DTD/svg11.dtd" >
<svg>
<metadata>
Created by FontForge 20090914 at Thu Mar 28 00:46:53 2013
 By www-data
TrueType font: Copyright &#194;&#169; 1991, 1994 ParaGraph. Technical realization by TeamAXis Corp. Hinted with AXisType ToolKit: Copyright &#194;&#169; 1992, 1994 by Dmitry Komissarov. Bauhaus is a registered trade mark of International Typeface Corporation.
</metadata>
<defs>
<font id="BauhausCTT" horiz-adv-x="554" >
  <font-face 
    font-family="BauhausCTT"
    font-weight="400"
    font-stretch="normal"
    units-per-em="1000"
    panose-1="0 0 0 0 0 0 0 0 0 0"
    ascent="800"
    descent="-200"
    x-height="480"
    cap-height="700"
    bbox="-65 -231.001 1055 901"
    underline-thickness="50"
    underline-position="-75"
    unicode-range="U+0020-U+2219"
  />
<missing-glyph horiz-adv-x="901" 
d="M56 0v901h789v-901h-789zM789 56v789h-677v-789h677z" />
    <glyph glyph-name=".notdef" horiz-adv-x="901" 
d="M56 0v901h789v-901h-789zM789 56v789h-677v-789h677z" />
    <glyph glyph-name="space" unicode=" " horiz-adv-x="233" 
 />
    <glyph glyph-name="exclam" unicode="!" horiz-adv-x="222" 
d="M152 160h-88v540h88v-540zM170 52c0 -17.333 -6 -32 -18 -44s-26.667 -18 -44 -18s-32 6 -44 18s-18 26.667 -18 44s6 32 18 44s26.667 18 44 18s32 -6 44 -18s18 -26.667 18 -44z" />
    <glyph glyph-name="quotedbl" unicode="&#x22;" horiz-adv-x="333" 
d="M279 430h-82v270h82v-270zM137 430h-82v270h82v-270z" />
    <glyph glyph-name="numbersign" unicode="#" horiz-adv-x="556" 
d="M524 486l-3 -64h-97l-20 -144h91l-3 -64h-97l-30 -214h-72l30 214h-119l-30 -214h-72l30 214h-100l3 64h106l20 144h-100l3 64h106l30 214h72l-30 -214h119l30 214h72l-30 -214h91zM352 422h-119l-20 -144h119z" />
    <glyph glyph-name="dollar" unicode="$" horiz-adv-x="559" 
d="M486 240c0 -46 -13.5 -81.501 -40.5 -106.501s-64.833 -37.5 -113.5 -37.5h-14v-108h-76v108h-160v84h160v192l-36 22c-52.667 31.333 -83 51 -91 59c-28.667 26.667 -43 61.334 -43 104.001c0 40 12.333 73 37 99c28 29.333 68 44 120 44h13v82h76v-82h135v-84h-135
v-177l43 -29c50 -33.333 76.333 -51.333 79 -54c30.667 -30 46 -68.667 46 -116zM242 469.999v146h-12c-19.333 0 -34.833 -5.16699 -46.5 -15.5s-17.5 -23.833 -17.5 -40.5c0 -18.667 7.33301 -36 22 -52c9.33301 -10.667 23.333 -21 42 -31zM392 243.999
c0 18.667 -6 35 -18 49c-6.66699 8 -20.667 19.333 -42 34l-14 10v-157h9c19.333 0 35 6 47 18s18 27.333 18 46z" />
    <glyph glyph-name="percent" unicode="%" horiz-adv-x="871" 
d="M821 152c0 -46.667 -16 -85.667 -48 -117s-70.667 -47 -116 -47c-44.667 0 -83.167 15.833 -115.5 47.5s-48.5 70.5 -48.5 116.5c0 46.667 16 85.667 48 117s70.667 47 116 47c44.667 0 83.167 -15.833 115.5 -47.5s48.5 -70.5 48.5 -116.5zM698 712l-465 -724h-62
l465 724h62zM377 548c0 -46.667 -16 -85.667 -48 -117s-70.667 -47 -116 -47c-44.667 0 -83.167 15.833 -115.5 47.5s-48.5 70.5 -48.5 116.5c0 46.667 16 85.667 48 117s70.667 47 116 47c44.667 0 83.167 -15.833 115.5 -47.5s48.5 -70.5 48.5 -116.5zM743 152
c0 25.333 -8.33301 46 -25 62s-37 24 -61 24c-23.333 0 -43.5 -8.16699 -60.5 -24.5s-25.5 -36.833 -25.5 -61.5c0 -25.333 8.33301 -46 25 -62s37 -24 61 -24c23.333 0 43.5 8.16699 60.5 24.5s25.5 36.833 25.5 61.5zM299 548c0 24.667 -8.5 45.167 -25.5 61.5
s-37.5 24.5 -61.5 24.5c-22.667 0 -42.5 -8.16699 -59.5 -24.5s-25.5 -36.833 -25.5 -61.5c0 -25.333 8.33301 -46 25 -62s37 -24 61 -24c23.333 0 43.5 8.16699 60.5 24.5s25.5 36.833 25.5 61.5z" />
    <glyph glyph-name="ampersand" unicode="&#x26;" horiz-adv-x="648" 
d="M651 0h-109.999l-29 45c-24.667 -18 -51.834 -32 -81.501 -42s-64.5 -15 -104.5 -15c-83.333 0 -153.333 26.667 -210 80s-85 121.666 -85 204.999c0 49.333 10 93.833 30 133.5s50 72.834 90 99.501l-17 23c-10 13.333 -17.333 25.333 -22 36
c-6.66699 14.667 -10 30 -10 46c0 24 8 43.667 24 59c20.667 20 53 30 97 30h271v-88h-265h-15c-12 0 -18 -4 -18 -12c0 -4.66699 1.5 -10.167 4.5 -16.5s8.83301 -14.833 17.5 -25.5l290 -375c7.33301 11.333 13 23.5 17 36.5s6 28.5 6 46.5c0 27.333 -3.66699 51 -11 71
c-10 26.667 -28.333 55.667 -55 87l64 66c38.667 -36 65.667 -77 81 -123c10 -30 15 -60.667 15 -92c0 -39.333 -6.66699 -75.333 -20 -108c-8.66699 -21.333 -20.667 -42 -36 -62zM454.001 116l-247 319.002c-28.667 -21.333 -49.5 -46.333 -62.5 -75
s-19.5 -57.334 -19.5 -86.001c0 -56.667 19.167 -103.834 57.5 -141.501s87.5 -56.5 147.5 -56.5c25.333 0 48.333 3.5 69 10.5s39 16.833 55 29.5z" />
    <glyph glyph-name="quotesingle" unicode="'" horiz-adv-x="222" 
d="M152 430h-82v270h82v-270z" />
    <glyph glyph-name="parenleft" unicode="(" horiz-adv-x="399" 
d="M338 -128l-46 -60.001c-78 58 -135.667 131 -173 219c-31.333 73.333 -47 151.333 -47 234c0 80.667 15.333 157.334 46 230.001c37.333 88.667 94 161 170 217l50 -54c-50.667 -39.333 -90.334 -85 -119.001 -137c-39.333 -71.333 -59 -155 -59 -251
c0 -102 21.667 -191 65 -267c28.667 -50 66.334 -93.667 113.001 -131z" />
    <glyph glyph-name="parenright" unicode=")" horiz-adv-x="399" 
d="M327 259c0 -80.667 -15.334 -157.334 -46.001 -230.001c-37.333 -88.667 -94 -161 -170 -217l-50 54c66.667 52 114.334 114.667 143.001 188c23.333 58.667 35 125.334 35 200.001c0 102 -21.667 191 -65 267c-29.333 51.333 -67 95 -113 131l46 60
c78 -58 135.667 -131 173 -219c31.333 -73.333 47 -151.333 47 -234z" />
    <glyph glyph-name="asterisk" unicode="*" horiz-adv-x="500" 
d="M438 436l-38 -62l-124 80l12 -140h-76l12 140l-124 -80l-38 62l132 71l-132 69l38 62l124 -84l-12 146h76l-12 -146l124 84l38 -62l-132 -69z" />
    <glyph glyph-name="plus" unicode="+" horiz-adv-x="580" 
d="M530 201h-201v-201h-78v201h-201v78h201v201h78v-201h201v-78z" />
    <glyph glyph-name="comma" unicode="," horiz-adv-x="320" 
d="M198 96l-58 -196h-78l42 196h94z" />
    <glyph glyph-name="hyphen" unicode="-" horiz-adv-x="278" 
d="M251 200h-224v80h224v-80z" />
    <glyph glyph-name="period" unicode="." horiz-adv-x="278" 
d="M198 53c0 -16 -5.83301 -29.833 -17.5 -41.5s-25.5 -17.5 -41.5 -17.5s-29.833 5.83301 -41.5 17.5s-17.5 25.5 -17.5 41.5s5.83301 29.833 17.5 41.5s25.5 17.5 41.5 17.5s29.833 -5.83301 41.5 -17.5s17.5 -25.5 17.5 -41.5z" />
    <glyph glyph-name="slash" unicode="/" horiz-adv-x="356" 
d="M340 712l-324 -724h-78l324 724h78z" />
    <glyph glyph-name="zero" unicode="0" horiz-adv-x="540" 
d="M507 263c0 -62 -11.3311 -113.5 -33.998 -154.5s-54.667 -72.167 -96 -93.5c-32.667 -16.667 -68.334 -25 -107.001 -25s-74.334 8.33301 -107.001 25c-53.333 27.333 -90.333 69.333 -111 126c-12.667 34.667 -19 75.334 -19 122.001v188c0 64 16.333 118.333 49 163
c22 30 49.167 53.5 81.5 70.5s67.833 25.5 106.5 25.5s74.167 -8.33301 106.5 -25s59.5 -40.334 81.5 -71.001c32.667 -45.333 49 -101 49 -167v-184zM413.002 244v203c0 60 -12.5 104.167 -37.5 132.5s-60.167 42.5 -105.5 42.5c-56.667 0 -96.667 -22.333 -120 -67
c-15.333 -30 -23 -68 -23 -114v-197c0 -52.667 12.5 -93.5 37.5 -122.5s60.167 -43.5 105.5 -43.5s80.5 14.5 105.5 43.5s37.5 69.833 37.5 122.5z" />
    <glyph glyph-name="one" unicode="1" 
d="M331 0h-94v612h-126l26 88h194v-700z" />
    <glyph glyph-name="two" unicode="2" 
d="M511 489c0 -54.667 -16.334 -103 -49.001 -145c-18.667 -24.667 -55.667 -58.667 -111 -102l-195 -154h354v-88h-384c-32 0 -55.667 7.16699 -71 21.5s-23 31.833 -23 52.5c0 15.333 3.33301 28.333 10 39c4.66699 8 20 21.667 46 41l234 183
c30 23.333 51.333 43.333 64 60c20.667 27.333 31 57.666 31 90.999c0 36.667 -11 67.334 -33 92.001c-24.667 28 -59.667 42 -105 42c-43.333 0 -77.833 -13.5 -103.5 -40.5s-38.5 -60.5 -38.5 -100.5c0 -40.667 15 -74 45 -100c25.333 -22 55 -35 89 -39l-82 -65
c-46 16.667 -81.833 43.167 -107.5 79.5s-38.5 77.833 -38.5 124.5c0 70 25 126.333 75 169c46.667 40 102.667 60 168 60c64.667 0 118.334 -21 161.001 -63s64 -94.667 64 -158z" />
    <glyph glyph-name="three" unicode="3" 
d="M509 223c0 -22.667 -2.49902 -44.168 -7.49902 -64.501s-12.833 -39.5 -23.5 -57.5c-26 -43.333 -60 -72.333 -102 -87c-27.333 -9.33301 -67.333 -14 -120 -14h-211v88h215c30 0 54 3 72 9c28.667 9.33301 50.667 27 66 53c5.33301 9.33301 9.5 20.333 12.5 33
s4.5 25 4.5 37c0 19.333 -5.33301 38 -16 56c-16.667 28 -42.334 46.667 -77.001 56c-19.333 5.33301 -46 8 -80 8h-100v70l219 202h-300v88h286c33.333 0 58 -3.33301 74 -10c27.333 -11.333 41 -33.666 41 -66.999c0 -20.667 -7.66699 -40 -23 -58
c-6.66699 -8 -21.667 -22 -45 -42l-111 -95c47.333 0 89 -10 125 -30c28.667 -16 51.334 -36 68.001 -60c11.333 -16 19.666 -33.833 24.999 -53.5s8 -40.167 8 -61.5z" />
    <glyph glyph-name="four" unicode="4" 
d="M526 162h-105v-162h-94v162h-243c-49.333 0 -74 18.333 -74 55c0 16 9.66699 41 29 75l227 408h103l-252 -450h210v302l87 148h7v-450h105v-88z" />
    <glyph glyph-name="five" unicode="5" 
d="M516 214c0 -35.333 -6.66602 -67.333 -19.999 -96c-22.667 -48.667 -57.334 -82 -104.001 -100c-30.667 -12 -71 -18 -121 -18h-215v88h219c30 0 53.333 2.66699 70 8c26.667 8.66699 47 25 61 49c5.33301 8.66699 9.33301 19.167 12 31.5s4 24.166 4 35.499
c0 15.333 -1.16699 28.333 -3.5 39s-6.5 21.334 -12.5 32.001c-14.667 25.333 -36.667 42.333 -66 51c-18 5.33301 -43.667 8 -77 8h-169v358h364v-88h-270v-182h67c47.333 0 85.333 -4.33301 114 -13c48 -14 85.333 -40.667 112 -80c11.333 -16 20 -35 26 -57s9 -44 9 -66z
" />
    <glyph glyph-name="six" unicode="6" horiz-adv-x="552" 
d="M528 249c0 -72 -24.5 -133.166 -73.5 -183.499s-109.833 -75.5 -182.5 -75.5c-68.667 0 -127.167 23.833 -175.5 71.5s-72.5 106.834 -72.5 177.501c0 38.667 8.33301 76 25 112c12 26 33.333 60.667 64 104l173 245h114l-218 -306
c-26 -36.667 -43.167 -65.834 -51.5 -87.501s-12.5 -43.834 -12.5 -66.501c0 -48 15.667 -87 47 -117s68 -45 110 -45c44 0 81.5 15.5 112.5 46.5s46.5 70.167 46.5 117.5c0 57.333 -22 101 -66 131c-36 24.667 -78.667 37 -128 37l53 80c67.333 0 123.333 -22.667 168 -68
s67 -103 67 -173z" />
    <glyph glyph-name="seven" unicode="7" horiz-adv-x="555" 
d="M502 629c0 -20.667 -7 -46.333 -21 -77l-23 -48l-224 -504h-108l274 612h-356v88h356c28 0 48.667 -2.66699 62 -8c26.667 -10.667 40 -31.667 40 -63z" />
    <glyph glyph-name="eight" unicode="8" horiz-adv-x="540" 
d="M511 212c0 -63.333 -21.833 -116.167 -65.5 -158.5s-102.167 -63.5 -175.5 -63.5c-72 0 -130.167 21.167 -174.5 63.5s-66.5 95.166 -66.5 158.499c0 38 10 73.167 30 105.5s47.333 58.5 82 78.5c-20 16.667 -36 36.667 -48 60s-18 50 -18 80
c0 48.667 18.167 89.834 54.5 123.501s82.833 50.5 139.5 50.5c62 0 110.333 -18 145 -54c31.333 -32 47 -72 47 -120c0 -26 -5 -51 -15 -75s-25.667 -45.667 -47 -65c37.333 -18 65.333 -43.167 84 -75.5s28 -68.5 28 -108.5zM367 526.999c0 27.333 -9.33301 50 -28 68
s-42 27 -70 27c-28.667 0 -52.5 -8.83301 -71.5 -26.5s-28.5 -40.5 -28.5 -68.5s9.16699 -50.833 27.5 -68.5s42.166 -26.5 71.499 -26.5c28.667 0 52.334 8.66699 71.001 26s28 40.333 28 69zM417 212.999c0 40.667 -13.667 73.334 -41 98.001s-62.666 37 -105.999 37
s-78.666 -12.333 -105.999 -37s-41 -57.334 -41 -98.001s13.667 -73.334 41 -98.001s62.666 -37 105.999 -37s78.666 12.333 105.999 37s41 57.334 41 98.001z" />
    <glyph glyph-name="nine" unicode="9" horiz-adv-x="553" 
d="M529 452c0 -47.333 -12.333 -90.9971 -37 -130.997l-53 -76l-173 -245h-114l218 306c28.667 40 46.667 69.333 54 88s11 39 11 61c0 50 -15.333 90.333 -46 121s-67.667 46 -111 46c-44.667 0 -82.5 -15.5 -113.5 -46.5s-46.5 -71.167 -46.5 -120.5
c0 -50.667 14.667 -91.334 44 -122.001s69 -46 119 -46l33 1l-55 -80c-66 0 -121.667 23 -167 69s-68 104.333 -68 175c0 71.333 24.5 132.166 73.5 182.499s109.833 75.5 182.5 75.5c70 0 129 -24.333 177 -73s72 -110.334 72 -185.001z" />
    <glyph glyph-name="colon" unicode=":" horiz-adv-x="278" 
d="M198 341c0 -16 -5.83301 -29.833 -17.5 -41.5s-25.5 -17.5 -41.5 -17.5s-29.833 5.83301 -41.5 17.5s-17.5 25.5 -17.5 41.5s5.83301 29.833 17.5 41.5s25.5 17.5 41.5 17.5s29.833 -5.83301 41.5 -17.5s17.5 -25.5 17.5 -41.5zM198 53
c0 -16 -5.83301 -29.833 -17.5 -41.5s-25.5 -17.5 -41.5 -17.5s-29.833 5.83301 -41.5 17.5s-17.5 25.5 -17.5 41.5s5.83301 29.833 17.5 41.5s25.5 17.5 41.5 17.5s29.833 -5.83301 41.5 -17.5s17.5 -25.5 17.5 -41.5z" />
    <glyph glyph-name="semicolon" unicode=";" horiz-adv-x="296" 
d="M198 341c0 -16 -5.83301 -29.833 -17.5 -41.5s-25.5 -17.5 -41.5 -17.5s-29.833 5.83301 -41.5 17.5s-17.5 25.5 -17.5 41.5s5.83301 29.833 17.5 41.5s25.5 17.5 41.5 17.5s29.833 -5.83301 41.5 -17.5s17.5 -25.5 17.5 -41.5zM198 96l-58 -196h-78l42 196h94z" />
    <glyph glyph-name="less" unicode="&#x3c;" horiz-adv-x="580" 
d="M530 -8l-480 214v68l480 214v-78l-383 -170l383 -170v-78z" />
    <glyph glyph-name="equal" unicode="=" horiz-adv-x="580" 
d="M530 300h-480v78h480v-78zM530 102h-480v78h480v-78z" />
    <glyph glyph-name="greater" unicode="&#x3e;" horiz-adv-x="580" 
d="M530 206l-480 -214v78l382 170l-382 170v78l480 -214v-68z" />
    <glyph glyph-name="question" unicode="?" horiz-adv-x="444" 
d="M438 503c0 -54 -16.332 -99.666 -48.999 -136.999s-75 -60.666 -127 -69.999v-136h-88v220h35c41.333 0 74.166 11.167 98.499 33.5s36.5 51.833 36.5 88.5c0 34.667 -10 63.667 -30 87s-47.667 35 -83 35c-40 0 -69.667 -16 -89 -48
c-14.667 -24.667 -22 -53.334 -22 -86.001h-94c0 63.333 19.5 116.166 58.5 158.499s88.167 63.5 147.5 63.5c58.667 0 107.667 -20 147 -60s59 -89.667 59 -149zM280.001 52.001c0 -17.333 -6 -32 -18 -44s-26.667 -18 -44 -18s-32 6 -44 18s-18 26.667 -18 44s6 32 18 44
s26.667 18 44 18s32 -6 44 -18s18 -26.667 18 -44z" />
    <glyph glyph-name="at" unicode="@" horiz-adv-x="752" 
d="M712 413c0 -65.333 -15.166 -120.829 -45.499 -166.496s-65.833 -68.5 -106.5 -68.5c-28.667 0 -48.667 11.667 -60 35c-7.33301 15.333 -11 34.666 -11 57.999v49c0 35.333 -4.33301 63.333 -13 84c-16.667 40 -48 60 -94 60c-32.667 0 -58.334 -11 -77.001 -33
s-28 -49.333 -28 -82c0 -31.333 10.667 -57 32 -77s47.333 -30 78 -30c26 0 51.333 13.333 76 40v-72c-10 -10 -22.5 -17.833 -37.5 -23.5s-30.833 -8.5 -47.5 -8.5c-47.333 0 -87.333 15.667 -120 47s-49 73.333 -49 126c0 39.333 10 73.333 30 102
c16.667 24 38 42.5 64 55.5s54.333 19.5 85 19.5c28 0 53.5 -5.66699 76.5 -17s41.833 -26.666 56.5 -45.999s24.334 -41.333 29.001 -66s7 -52 7 -82v-37c0 -12 1 -20.667 3 -26s8 -8 18 -8c16 0 31 16.167 45 48.5s21 68.833 21 109.5c0 55.333 -13 102.333 -39 141
c-19.333 29.333 -45.333 53 -78 71c-18.667 10 -40.5 17.833 -65.5 23.5s-49.5 8.5 -73.5 8.5c-52 0 -99.833 -12.667 -143.5 -38s-78.167 -60 -103.5 -104c-27.333 -46.667 -41 -99.667 -41 -159c0 -86 28 -156.667 84 -212s127 -83 213 -83
c38.667 0 75.667 6.66699 111 20c46 17.333 84 44 114 80l7 -77c-30.667 -28.667 -65.667 -50.334 -105 -65.001s-80.333 -22 -123 -22c-102.667 0 -189.834 35.167 -261.501 105.5s-107.5 156.166 -107.5 257.499c0 74.667 20 141.334 60 200.001
c35.333 51.333 81.333 91.666 138 120.999c52 26.667 107.333 40 166 40c26.667 0 52.167 -2.5 76.5 -7.5s47.833 -12.833 70.5 -23.5c48 -22.667 86.667 -54.334 116 -95.001c35.333 -48.667 53 -106.334 53 -173.001z" />
    <glyph glyph-name="A" unicode="A" horiz-adv-x="594" 
d="M536 0l-94 -0.000976562v318h-254v88h254v36c0 54.667 -13 98.334 -39 131.001s-61.333 49 -106 49c-39.333 0 -72 -13.333 -98 -40c-31.333 -32 -47 -78.667 -47 -140v-442h-94v450c0 72.667 22.167 134.167 66.5 184.5s101.833 75.5 172.5 75.5
c70 0 127.333 -25.333 172 -76s67 -112 67 -184v-450z" />
    <glyph glyph-name="B" unicode="B" horiz-adv-x="579" 
d="M539 198c0 -55.333 -16.668 -100.667 -50.001 -136c-39.333 -41.333 -98 -62 -176 -62h-125v88h120c36 0 63.333 4.33301 82 13c36.667 17.333 55 51.333 55 102c0 35.333 -11.667 63.333 -35 84s-54.333 31 -93 31h-129v88h94c36 0 66.833 9 92.5 27
s38.5 43.667 38.5 77c0 30.667 -10.333 56.334 -31 77.001c-23.333 23.333 -54.666 35 -93.999 35c-37.333 0 -68.666 -11.667 -93.999 -35c-28.667 -26.667 -43 -64 -43 -112l1 -475h-94l1 477c0 69.333 20.833 125.5 62.5 168.5s94.5 64.5 158.5 64.5
c72 0 129 -21 171 -63c37.333 -37.333 56 -82.333 56 -135c0 -36.667 -7 -66.667 -21 -90c-10.667 -18.667 -27.334 -34.334 -50.001 -47.001c32.667 -16.667 58 -40.5 76 -71.5s27 -66.167 27 -105.5z" />
    <glyph glyph-name="C" unicode="C" horiz-adv-x="502" 
d="M476 0h-64.999c-66 -0 -121 8.33301 -165 25c-67.333 25.333 -121 71.333 -161 138c-16 26.667 -28.167 56.334 -36.5 89.001s-12.5 65.334 -12.5 98.001c0 67.333 17 127.666 51 180.999c28 44 65.333 80.333 112 109c31.333 20 66.333 35 105 45s78 15 118 15h54v-88
h-66c-58.667 0 -111 -14.667 -157 -44c-38.667 -24.667 -68.167 -56 -88.5 -94s-30.5 -79.333 -30.5 -124c0 -28.667 3.5 -56 10.5 -82s18.167 -50.333 33.5 -73c28.667 -42.667 65 -72.334 109 -89.001c31.333 -12 68.666 -18 111.999 -18h77v-88z" />
    <glyph glyph-name="D" unicode="D" horiz-adv-x="614" 
d="M578 350c0 -57.333 -12.332 -110.334 -36.999 -159.001c-26.667 -53.333 -64.334 -97 -113.001 -131c-56.667 -40 -119.334 -60 -188.001 -60h-48v88h37c77.333 0 139.333 27 186 81c43.333 50 65 110.333 65 181s-21.667 130.334 -65 179.001
c-49.333 55.333 -117 83 -203 83h-60v-612h-94v700h143c70.667 0 130.334 -10.667 179.001 -32c69.333 -30.667 123 -83.667 161 -159c24.667 -49.333 37 -102.333 37 -159z" />
    <glyph glyph-name="E" unicode="E" horiz-adv-x="508" 
d="M472 0h-70c-114 -0 -205.333 37.333 -274 112c-61.333 66.667 -92 146 -92 238s30.333 171 91 237c68.667 75.333 161 113 277 113h68v-88h-59c-72.667 0 -134.667 -18.667 -186 -56s-82.333 -87.333 -93 -150h338v-88h-338c6.66699 -66.667 34 -121.667 82 -165
s108.333 -65 181 -65h75v-88z" />
    <glyph glyph-name="F" unicode="F" horiz-adv-x="417" 
d="M391 304h-239v-304h-94v467c0 65.333 14 116.333 42 153c40.667 53.333 109.667 80 207 80h84v-88h-95c-43.333 0 -75 -6.66699 -95 -20c-32.667 -22 -49 -63 -49 -123v-77h239v-88z" />
    <glyph glyph-name="G" unicode="G" horiz-adv-x="793" 
d="M757 336c0 -104 -37.332 -189.002 -111.999 -255.002c-68.667 -60.667 -149.667 -91 -243 -91c-98.667 0 -184.334 35.333 -257.001 106s-109 155.334 -109 254.001c0 66 18 128.167 54 186.5s84.667 102.833 146 133.5c53.333 26.667 112 40 176 40
c35.333 0 69 -4.5 101 -13.5s63.333 -23.167 94 -42.5s58.667 -42.666 84 -69.999l-63 -68c-18.667 18 -40.667 35.667 -66 53s-49 30 -71 38c-28 10 -57.667 15 -89 15c-45.333 0 -87.833 -10.667 -127.5 -32s-72.167 -51.666 -97.5 -90.999
c-28.667 -44.667 -43 -94.334 -43 -149.001c0 -75.333 25.5 -139.5 76.5 -192.5s114.833 -79.5 191.5 -79.5c64 0 119.667 18.333 167 55c53.333 41.333 83.333 99 90 173h-244v88h342v-58z" />
    <glyph glyph-name="H" unicode="H" horiz-adv-x="608" 
d="M550 0h-94v318h-304v-318h-94v700h94v-294h304v294h94v-700z" />
    <glyph glyph-name="I" unicode="I" horiz-adv-x="210" 
d="M152 0h-94v700h94v-700z" />
    <glyph glyph-name="J" unicode="J" horiz-adv-x="347" 
d="M289 226c0 -70 -20.168 -125.166 -60.501 -165.499s-98.833 -60.5 -175.5 -60.5h-55v88h51c60.667 0 102.334 17.333 125.001 52c14 21.333 21 51.666 21 90.999v469h94v-474z" />
    <glyph glyph-name="K" unicode="K" horiz-adv-x="576" 
d="M540 700l-78.001 -171c-19.333 -42 -34.666 -71.667 -45.999 -89c-13.333 -20.667 -30 -38 -50 -52c38 -8 68.333 -24.667 91 -50c32.667 -36.667 49 -89.667 49 -159v-179h-94v180c0 38 -5.33301 66.667 -16 86c-18.667 34.667 -54 52 -106 52h-138v-318h-94v700h94
v-294h63c29.333 0 53 5.66699 71 17c22.667 14 42.667 40.333 60 79l89 198h105z" />
    <glyph glyph-name="L" unicode="L" horiz-adv-x="383" 
d="M385 0l-84.999 -0.000976562c-30.667 0 -57.667 2.33301 -81 7s-46 14.334 -68 29.001c-36.667 24.667 -62.334 58.667 -77.001 102c-10.667 31.333 -16 67.333 -16 108v454h94v-454c0 -25.333 2 -46 6 -62c6.66699 -26 19 -47.333 37 -64c15.333 -14 33 -23.333 53 -28
c12 -2.66699 28.667 -4 50 -4h87v-88z" />
    <glyph glyph-name="M" unicode="M" horiz-adv-x="786" 
d="M782 0l-97.999 -0.000976562l-69 568l-150 -496c-10.667 -35.333 -21.167 -57.833 -31.5 -67.5s-24.166 -14.5 -41.499 -14.5c-20.667 0 -36.334 7.66699 -47.001 23c-7.33301 10.667 -15.333 30.334 -24 59.001l-150 496l-69 -568h-98l77 611
c3.33301 28 9.33301 49 18 63c14 24 35.667 36 65 36c25.333 0 45.333 -10.333 60 -31c9.33301 -12.667 18.666 -34.667 27.999 -66l141 -463l139 463c12 39.333 24.667 65.333 38 78s30 19 50 19c29.333 0 51 -11.667 65 -35c8 -14 14 -35.333 18 -64z" />
    <glyph glyph-name="N" unicode="N" horiz-adv-x="626" 
d="M568 92c0 -30 -3 -52 -9 -66c-10.667 -24 -31.667 -36 -63 -36c-20 0 -37 4.5 -51 13.5s-29.333 30.833 -46 65.5l-245 505l-2 -574h-94v598c0 33.333 3.66699 57.666 11 72.999c12 26 35.667 39 71 39c25.333 0 46 -9 62 -27c12 -13.333 27 -38.666 45 -75.999l225 -469
l2 562h94v-608z" />
    <glyph glyph-name="O" unicode="O" horiz-adv-x="800" 
d="M764 350c0 -99.333 -36.167 -184.166 -108.5 -254.499s-157.5 -105.5 -255.5 -105.5s-183.167 35.167 -255.5 105.5s-108.5 155.166 -108.5 254.499s36.167 184.166 108.5 254.499s157.5 105.5 255.5 105.5s183.167 -35.167 255.5 -105.5s108.5 -155.166 108.5 -254.499z
M666 350c0 74.667 -25.5 138.667 -76.5 192s-114.167 80 -189.5 80s-138.5 -26.667 -189.5 -80s-76.5 -117.333 -76.5 -192s25.5 -138.667 76.5 -192s114.167 -80 189.5 -80s138.5 26.667 189.5 80s76.5 117.333 76.5 192z" />
    <glyph glyph-name="P" unicode="P" horiz-adv-x="561" 
d="M525 474c0 -39.333 -9 -76.001 -27 -110.001c-24.667 -46 -59.334 -77 -104.001 -93c-29.333 -10.667 -70.333 -16 -123 -16h-83v88h94c44.667 0 79.834 12.167 105.501 36.5s38.5 56.5 38.5 96.5c0 40.667 -11 74.334 -33 101.001c-25.333 30 -60 45 -104 45
c-42.667 0 -76.167 -14.5 -100.5 -43.5s-36.5 -67.167 -36.5 -114.5v-464h-94v460c0 78.667 21 140 63 184s98.333 66 169 66c74 0 132.333 -23.333 175 -70c40 -44 60 -99.333 60 -166z" />
    <glyph glyph-name="Q" unicode="Q" horiz-adv-x="804" 
d="M768 348c0 -80.667 -25.667 -153.666 -77 -218.999c-56 -71.333 -130 -115.666 -222 -132.999v-140h-94v372h94v-144c67.333 17.333 119 53.333 155 108c30.667 46.667 46 98.667 46 156c0 75.333 -25.5 139.833 -76.5 193.5s-114.833 80.5 -191.5 80.5
c-75.333 0 -138.833 -26.833 -190.5 -80.5s-77.5 -118.167 -77.5 -193.5c0 -58 17 -110.667 51 -158c38 -52.667 89.333 -87.334 154 -104.001v-90c-96.667 19.333 -173 65.666 -229 138.999c-49.333 64.667 -74 135.667 -74 213c0 99.333 36.167 184.5 108.5 255.5
s158.166 106.5 257.499 106.5c98.667 0 184.334 -35.333 257.001 -106s109 -156 109 -256z" />
    <glyph glyph-name="R" unicode="R" 
d="M518 0l-94 0.000976562v185c0 49.333 -14.667 83.666 -44 102.999c-18.667 12 -44 18 -76 18h-116v88h79c50.667 0 88.667 12.333 114 37c20.667 20 31 45.667 31 77c0 28 -7.66699 51.667 -23 71c-11.333 14 -25.333 24.667 -42 32s-35.667 11 -57 11
c-16.667 0 -28.167 -0.666992 -34.5 -2s-14.833 -4.66602 -25.5 -9.99902c-34 -15.333 -56.667 -41 -68 -77c-6.66699 -20.667 -10 -51.334 -10 -92.001v-441h-94v443c0 52 5 93 15 123c16 48 46.333 85.667 91 113c17.333 10.667 36.833 18.5 58.5 23.5
s44.167 7.5 67.5 7.5c42.667 0 82 -10 118 -30c28 -16 50.333 -36.333 67 -61c20.667 -30.667 31 -66.667 31 -108c0 -26 -3.66699 -49.333 -11 -70c-12.667 -36 -36 -64 -70 -84c38.667 -14.667 65 -38.667 79 -72c9.33301 -22.667 14 -56 14 -100v-185z" />
    <glyph glyph-name="S" unicode="S" horiz-adv-x="503" 
d="M477 181c0 -36 -8.66406 -67.999 -25.9971 -95.999c-21.333 -35.333 -50 -59.333 -86 -72c-24.667 -8.66699 -58.334 -13 -101.001 -13h-238v88h229c34 0 61 4.33301 81 13c31.333 14 47 37.667 47 71c0 26 -8.5 48.5 -25.5 67.5s-59.167 44.5 -126.5 76.5
c-42.667 20 -73 35.333 -91 46c-33.333 20 -58.333 41.333 -75 64c-22.667 31.333 -34 65.333 -34 102c0 37.333 9 69.333 27 96c20.667 30.667 49.667 52 87 64c25.333 8 55.666 12 90.999 12h210v-88h-216c-25.333 0 -45 -1.83301 -59 -5.5s-26 -14.167 -36 -31.5
c-6.66699 -10.667 -10 -23 -10 -37c0 -20.667 5.33301 -38.334 16 -53.001c8 -11.333 21.5 -23 40.5 -35s47.5 -27 85.5 -45c44.667 -21.333 76 -37.333 94 -48c35.333 -21.333 61.666 -43.333 78.999 -66c24.667 -33.333 37 -70 37 -110z" />
    <glyph glyph-name="T" unicode="T" horiz-adv-x="444" 
d="M442 612h-173v-612h-94v612h-173v88h440v-88z" />
    <glyph glyph-name="U" unicode="U" horiz-adv-x="579" 
d="M521 260c0 -68 -11.666 -121.668 -34.999 -161.001c-20 -33.333 -49.667 -60.666 -89 -81.999c-33.333 -18 -69.333 -27 -108 -27s-74.667 9 -108 27c-48.667 26.667 -82.667 64.667 -102 114c-14 35.333 -21 78.333 -21 129v440h94v-446c0 -40 5.66699 -73 17 -99
c22 -51.333 62 -77 120 -77c45.333 0 79.666 15.667 102.999 47s35 74.333 35 129v446h94v-440z" />
    <glyph glyph-name="V" unicode="V" horiz-adv-x="576" 
d="M580 700l-195.998 -589.999c-12.667 -38.667 -21 -62.334 -25 -71.001c-14.667 -32.667 -38.334 -49 -71.001 -49c-23.333 0 -40.833 7.16699 -52.5 21.5s-24.834 43.5 -39.501 87.5l-200 601h98l194 -581l194 581h98z" />
    <glyph glyph-name="W" unicode="W" horiz-adv-x="906" 
d="M848 255c0 -59.333 -5.33398 -103.997 -16.001 -133.997c-17.333 -48.667 -51 -85.334 -101 -110.001c-29.333 -14 -62.333 -21 -99 -21c-23.333 0 -47.166 3.33301 -71.499 10s-44.833 16.5 -61.5 29.5s-32 30.167 -46 51.5c-12.667 -20 -28 -36.833 -46 -50.5
s-38.833 -23.834 -62.5 -30.501s-46.5 -10 -68.5 -10c-38 0 -72 7 -102 21c-48.667 24 -81.667 60.667 -99 110c-11.333 32.667 -17 77.334 -17 134.001v445h94v-451c0 -40 2 -68 6 -84c7.33301 -29.333 24.333 -52.333 51 -69c10.667 -6.66699 21.5 -11.334 32.5 -14.001
s23.5 -4 37.5 -4c28.667 0 53 6.33301 73 19c26 16.667 42.333 39 49 67c3.33301 14 5 42.333 5 85v451h94v-451c0 -42 1.66699 -70 5 -84c6.66699 -28.667 23 -51.334 49 -68.001c19.333 -12.667 43.333 -19 72 -19c28 0 51.667 6 71 18c26 16 42.667 38.333 50 67
c4.66699 18 7 46.667 7 86v451h94v-445z" />
    <glyph glyph-name="X" unicode="X" horiz-adv-x="557" 
d="M553 0c-69.333 0 -128.999 19.333 -178.999 58c-46.667 36 -78.334 83.333 -95.001 142c-17.333 -57.333 -49.333 -104.333 -96 -141c-50.667 -39.333 -110.334 -59 -179.001 -59v88c66.667 0 121.334 25 164.001 75s64 112.333 64 187s-21 137 -63 187
s-96.667 75 -164 75v88c61.333 0 116.333 -16 165 -48c54.667 -36 91 -86.667 109 -152c16.667 64.667 52.667 115 108 151c49.333 32.667 104.333 49 165 49v-88c-66.667 0 -121 -25 -163 -75s-63 -112.333 -63 -187c0 -73.333 21.333 -135.333 64 -186s97 -76 163 -76v-88
z" />
    <glyph glyph-name="Y" unicode="Y" horiz-adv-x="508" 
d="M480 498c0 -56 -15 -103.667 -45 -143c-32 -42 -76.667 -69 -134 -81v-274h-94v274c-58 12 -102.333 38.167 -133 78.5s-46 88.833 -46 145.5v202h94v-203c0 -42 11 -75 33 -99s55 -36 99 -36s77 12 99 36s33 57 33 99v203h94v-202z" />
    <glyph glyph-name="Z" unicode="Z" horiz-adv-x="492" 
d="M480 0h-350c-36 -0 -60.667 2.33301 -74 7c-29.333 10.667 -44 33 -44 67c0 18 5 36.667 15 56c5.33301 10 15 24.667 29 44l315 438h-321v88h313c34 0 57.667 -2.66699 71 -8c25.333 -10 38 -30.667 38 -62c0 -12.667 -2 -24 -6 -34c-6 -16 -18.667 -37.333 -38 -64
l-315 -444h367v-88z" />
    <glyph glyph-name="bracketleft" unicode="[" horiz-adv-x="389" 
d="M286 -176h-174v876h174v-46h-86v-784h86v-46z" />
    <glyph glyph-name="backslash" unicode="\" horiz-adv-x="356" 
d="M340 -12h-78l-324 724h78z" />
    <glyph glyph-name="bracketright" unicode="]" horiz-adv-x="389" 
d="M277 -176h-174v46h86v784h-86v46h174v-876z" />
    <glyph glyph-name="asciicircum" unicode="^" horiz-adv-x="602" 
d="M545 286h-84l-160 328l-160 -328h-84l206 414h76z" />
    <glyph glyph-name="underscore" unicode="_" 
d="M527 -125h-500v50h500v-50z" />
    <glyph glyph-name="grave" unicode="`" horiz-adv-x="439" 
d="M258 538h-68l-130 142h108z" />
    <glyph glyph-name="a" unicode="a" horiz-adv-x="572" 
d="M532 0l-87.999 -0.000976562v215c0 72 -19 124 -57 156c-27.333 23.333 -63 35 -107 35c-46.667 0 -85.667 -15 -117 -45s-47 -70.667 -47 -122c0 -55.333 18.667 -98 56 -128c30.667 -24.667 67.334 -37 110.001 -37c24 0 46.167 4.5 66.5 13.5s40.166 22.5 59.499 40.5
v-92c-38.667 -30.667 -85 -46 -139 -46c-68.667 0 -126.334 22.333 -173.001 67s-70 103.334 -70 176.001c0 76 24.833 137.833 74.5 185.5s110.5 71.5 182.5 71.5c70 0 127 -21 171 -63c52 -49.333 78 -121 78 -215v-212z" />
    <glyph glyph-name="b" unicode="b" horiz-adv-x="568" 
d="M542 245c0 -67.333 -21.3301 -125.334 -63.9971 -174.001c-47.333 -54 -110.333 -81 -189 -81c-34.667 0 -65.834 5.5 -93.501 16.5s-51.5 25.5 -71.5 43.5c-37.333 33.333 -62 76.333 -74 129c-6.66699 29.333 -10 72.333 -10 129v392h88v-416
c0 -44 4.33301 -79 13 -105c15.333 -46 44.666 -77.333 87.999 -94c20 -7.33301 40 -11 60 -11c47.333 0 86.333 15.667 117 47s46 71.333 46 120c0 48 -14.5 87.5 -43.5 118.5s-68.167 46.5 -117.5 46.5c-25.333 0 -50 -4.66699 -74 -14
c-14.667 -5.33301 -32.334 -14.666 -53.001 -27.999v92c45.333 22.667 88 34 128 34c24 0 45 -1.83301 63 -5.5s37 -10.5 57 -20.5c40 -20.667 71.667 -50.167 95 -88.5s35 -81.833 35 -130.5z" />
    <glyph glyph-name="c" unicode="c" horiz-adv-x="371" 
d="M349 0h-62.999c-82 -0 -147 25.333 -195 76c-43.333 45.333 -65 100 -65 164c0 36.667 7.33301 71 22 103c17.333 38 44 69 80 93c25.333 16.667 51.666 28.167 78.999 34.5s55 9.5 83 9.5h59v-84h-63c-58 0 -102.333 -17.667 -133 -53c-24.667 -28.667 -37 -63 -37 -103
c0 -43.333 14 -79.333 42 -108c31.333 -32 75 -48 131 -48h60v-84z" />
    <glyph glyph-name="d" unicode="d" horiz-adv-x="568" 
d="M542 270c0 -83.333 -22.5 -150.831 -67.5 -202.498s-105.5 -77.5 -181.5 -77.5c-78.667 0 -141.667 26.667 -189 80c-42.667 48.667 -64 107 -64 175c0 48.667 11.667 92.167 35 130.5s55 67.833 95 88.5c17.333 8.66699 36.5 15.167 57.5 19.5s42.167 6.5 63.5 6.5
c18 0 37.667 -2.5 59 -7.5s44 -13.833 68 -26.5v-92c-15.333 10 -33 19 -53 27c-25.333 10 -49.333 15 -72 15c-16.667 0 -32.334 -1.66699 -47.001 -5s-29 -9.33301 -43 -18c-20.667 -12.667 -38 -31.334 -52 -56.001s-21 -53.334 -21 -86.001
c0 -48.667 15.333 -88.667 46 -120s70.334 -47 119.001 -47c12.667 0 25.167 1.33301 37.5 4s23.833 7 34.5 13c35.333 19.333 60 50 74 92c8.66699 26.667 13 55.667 13 87v430h88v-430z" />
    <glyph glyph-name="e" unicode="e" horiz-adv-x="551" 
d="M525 213c-4.66699 -50.667 -21.3301 -94.332 -49.9971 -130.999c-18.667 -24 -42.334 -44 -71.001 -60c-18 -10.667 -38.333 -18.667 -61 -24s-45.334 -8 -68.001 -8c-38.667 0 -76 8.66699 -112 26c-42 20.667 -75.333 50.5 -100 89.5s-37 83.833 -37 134.5
c0 71.333 23.833 130.833 71.5 178.5s106.834 71.5 177.501 71.5c49.333 0 94.666 -12.667 135.999 -38s73.333 -63.333 96 -114l-324 -180l-36 70l237 132c-16 17.333 -33.667 29.333 -53 36s-38.666 10 -57.999 10c-46.667 0 -84.5 -15.5 -113.5 -46.5
s-43.5 -70.833 -43.5 -119.5c0 -32.667 6.66699 -61.334 20 -86.001s30.666 -43.667 51.999 -57c12 -7.33301 25.333 -13 40 -17s29.667 -6 45 -6c18 0 34.167 1.5 48.5 4.5s28.5 8.5 42.5 16.5c21.333 12.667 38.666 30.5 51.999 53.5s20 48.167 20 75.5z" />
    <glyph glyph-name="f" unicode="f" horiz-adv-x="266" 
d="M284 616h-49.001c-46 0 -76.667 -10.667 -92 -32c-10 -14 -15 -39 -15 -75v-29h144v-84h-144v-396h-88v490c0 40 1.66699 68.333 5 85c6.66699 33.333 21.334 61 44.001 83c18.667 18 39.667 29.5 63 34.5s50.333 7.5 81 7.5h51v-84z" />
    <glyph glyph-name="g" unicode="g" horiz-adv-x="572" 
d="M532 47c0 -46 -3.99707 -83.3311 -11.9971 -111.998c-10.667 -37.333 -30.334 -70 -59.001 -98c-19.333 -18.667 -41.333 -33.334 -66 -44.001c-32.667 -14 -70.334 -21 -113.001 -21c-20 0 -42.5 1.83301 -67.5 5.5s-55.5 11.167 -91.5 22.5l21 80
c27.333 -7.33301 51.833 -13.166 73.5 -17.499s41.5 -6.5 59.5 -6.5c52 0 91.667 12 119 36c32 28 48 72.667 48 134v165c0 44.667 -3.66699 79 -11 103c-14 45.333 -41 77.666 -81 96.999c-21.333 10 -44.333 15 -69 15c-47.333 0 -87 -15.667 -119 -47
s-48 -72.333 -48 -123c0 -46.667 13.667 -85.334 41 -116.001s64.666 -46 111.999 -46c54.667 0 101 18 139 54v-92c-40 -30.667 -83.667 -46 -131 -46c-65.333 0 -121.333 19 -168 57c-55.333 44.667 -83 107.667 -83 189c0 74 25.167 134.833 75.5 182.5
s110.833 71.5 181.5 71.5c34 0 65.667 -5.33301 95 -16c44 -16 78.667 -43.333 104 -82c33.333 -50.667 50 -117.667 50 -201v-144z" />
    <glyph glyph-name="h" unicode="h" horiz-adv-x="490" 
d="M450 0h-87.998v258c0 48 -9.66699 84.667 -29 110s-47.333 38 -84 38s-65.334 -12.667 -86.001 -38c-23.333 -28.667 -35 -69.667 -35 -123v-245h-88v700h88v-263c19.333 19.333 39.666 33 60.999 41s43.333 12 66 12c21.333 0 39.5 -1.5 54.5 -4.5
s30.167 -8.83301 45.5 -17.5c39.333 -21.333 66.333 -53 81 -95c9.33301 -27.333 14 -64 14 -110v-263z" />
    <glyph glyph-name="i" unicode="i" horiz-adv-x="186" 
d="M146 587c0 -13.333 -3.66699 -24.666 -11 -33.999c-10 -12.667 -24 -19 -42 -19s-31.333 5.5 -40 16.5s-13 23.167 -13 36.5s3.66699 24.666 11 33.999c10 12.667 24 19 42 19s31.333 -5.5 40 -16.5s13 -23.167 13 -36.5zM137 0h-88v480h88v-480z" />
    <glyph glyph-name="j" unicode="j" horiz-adv-x="205" 
d="M165 587c0 -13.333 -3.66699 -24.666 -11 -33.999c-10 -12.667 -24 -19 -42 -19s-31.333 5.5 -40 16.5s-13 23.167 -13 36.5s3.66699 24.666 11 33.999c10 12.667 24 19 42 19s31.333 -5.5 40 -16.5s13 -23.167 13 -36.5zM156 -5c0 -61.333 -7.66699 -106 -23 -134
c-28.667 -52.667 -86 -79 -172 -79h-26v84h23c46.667 0 78 9.33301 94 28c11.333 13.333 17 35.333 17 66c0 6 -0.166992 12.167 -0.5 18.5s-0.5 12.5 -0.5 18.5v483h88v-485z" />
    <glyph glyph-name="k" unicode="k" horiz-adv-x="454" 
d="M422 480l-63.001 -108.002l-25 -44c-14 -22 -30.667 -37.333 -50 -46c49.333 -7.33301 82 -32 98 -74c8 -21.333 12 -55.666 12 -102.999v-105h-88v104c0 54 -10.333 88 -31 102c-11.333 8 -36.666 12 -75.999 12h-71v-218h-88v700h88v-398h26
c24 0 42.333 2.83301 55 8.5s22.667 14.834 30 27.501l83 142h100z" />
    <glyph glyph-name="l" unicode="l" horiz-adv-x="168" 
d="M128 0h-88v700h88v-700z" />
    <glyph glyph-name="m" unicode="m" horiz-adv-x="704" 
d="M664 0l-88.001 0.00195312v285c0 26.667 -2 46.667 -6 60c-6.66699 22 -20 38.667 -40 50c-12 7.33301 -26.333 11 -43 11s-32 -4 -46 -12c-18.667 -11.333 -30.834 -26 -36.501 -44s-8.5 -40 -8.5 -66v-18v-266h-88v266v18c0 27.333 -2 47.666 -6 60.999
c-6.66699 21.333 -19.667 37.666 -39 48.999c-13.333 8 -28 12 -44 12c-17.333 0 -32.333 -3.66699 -45 -11c-20 -11.333 -33.333 -28 -40 -50c-4 -13.333 -6 -33.333 -6 -60v-285h-88v278c0 45.333 4 79.666 12 102.999c11.333 34.667 34 62.334 68 83.001
c28.667 17.333 59.334 26 92.001 26c6.66699 0 14.334 -0.166992 23.001 -0.5s19.667 -2.83301 33 -7.5c34.667 -10.667 62.667 -30.667 84 -60c21.333 29.333 49.333 49.333 84 60c18 5.33301 36.333 8 55 8c34 0 64.667 -8.33301 92 -25
c34.667 -20.667 57.667 -47.667 69 -81c8 -23.333 12 -58.333 12 -105v-279z" />
    <glyph glyph-name="n" unicode="n" horiz-adv-x="490" 
d="M450 0l-88 0.000976562v257c0 28.667 -3 52 -9 70c-10 29.333 -28.333 51.333 -55 66c-15.333 8.66699 -33 13 -53 13c-8.66699 0 -17.667 -1 -27 -3s-18 -5.33301 -26 -10c-27.333 -14.667 -45.666 -36.334 -54.999 -65.001c-6 -18 -9 -41.667 -9 -71v-257h-88v257
c0 42.667 5.33301 78.667 16 108c14.667 40.667 41 72.667 79 96c32 19.333 68.667 29 110 29s78 -9.66699 110 -29c37.333 -23.333 63.666 -55.333 78.999 -96c10.667 -28.667 16 -64.667 16 -108v-257z" />
    <glyph glyph-name="o" unicode="o" horiz-adv-x="552" 
d="M526 240c0 -69.333 -24.333 -128.333 -73 -177s-107.667 -73 -177 -73s-128.333 24.333 -177 73s-73 107.667 -73 177s24.333 128.333 73 177s107.667 73 177 73s128.333 -24.333 177 -73s73 -107.667 73 -177zM436 240c0 48.667 -14.833 88.5 -44.5 119.5
s-68.167 46.5 -115.5 46.5c-46.667 0 -85 -15.333 -115 -46s-45 -70.667 -45 -120s14.667 -89.333 44 -120s68 -46 116 -46s86.667 15.333 116 46s44 70.667 44 120z" />
    <glyph glyph-name="p" unicode="p" horiz-adv-x="572" 
d="M546 233c0 -74 -25.667 -134 -77 -180c-46.667 -42 -103.667 -63 -171 -63c-24.667 0 -48.667 3.83301 -72 11.5s-44 19.167 -62 34.5v92c20.667 -19.333 41 -33.166 61 -41.499s40.667 -12.5 62 -12.5c50 0 90.667 15 122 45s47 68.667 47 116c0 50 -15.667 91 -47 123
s-70.333 48 -117 48c-44 0 -80 -13 -108 -39c-37.333 -34.667 -56 -90 -56 -166v-419h-88v426c0 101.333 28 176.333 84 225c44 38 99.667 57 167 57c70 0 129.333 -23 178 -69c51.333 -48.667 77 -111.334 77 -188.001z" />
    <glyph glyph-name="q" unicode="q" horiz-adv-x="572" 
d="M546 -218l-87.998 0.00292969v413c0 46.667 -4.33301 82.667 -13 108c-14 42 -40.667 71.667 -80 89c-22 9.33301 -44 14 -66 14c-48 0 -88.167 -15.833 -120.5 -47.5s-48.5 -72.834 -48.5 -123.501c0 -52.667 18 -93.667 54 -123c31.333 -25.333 69.666 -38 114.999 -38
c22 0 42.667 4 62 12s39.666 22 60.999 42v-92c-16 -14 -35.333 -25.167 -58 -33.5s-47 -12.5 -73 -12.5c-68.667 0 -126.667 21 -174 63c-51.333 45.333 -77 105.333 -77 180c0 53.333 13 100.666 39 141.999c24 37.333 56.667 66.666 98 87.999c36 18 76.667 27 122 27
c35.333 0 68.666 -6.33301 99.999 -19c60.667 -24.667 102.334 -67.667 125.001 -129c14.667 -40 22 -90.667 22 -152v-408z" />
    <glyph glyph-name="r" unicode="r" horiz-adv-x="274" 
d="M276 406h-12c-44.667 0 -78 -14.333 -100 -43c-24 -31.333 -36 -76.333 -36 -135v-228h-88v480h84v-55c18 26.667 40.667 45 68 55c18 6.66699 41 10 69 10h15v-84z" />
    <glyph glyph-name="s" unicode="s" horiz-adv-x="445" 
d="M419 134c0 -14.667 -1.83398 -28.6641 -5.50098 -41.9971s-9.16699 -25.333 -16.5 -36c-16.667 -23.333 -39 -39.333 -67 -48c-18 -5.33301 -41 -8 -69 -8h-235v84h230c22.667 0 37.334 1 44.001 3c19.333 5.33301 29 17.666 29 36.999c0 14.667 -5.33301 26.667 -16 36
c-8 6.66699 -20.667 13 -38 19l-131 41c-45.333 16.667 -76.333 36.167 -93 58.5s-25 46.166 -25 71.499c0 12 1 24 3 36s8 24.667 18 38c17.333 23.333 41.333 39.333 72 48c19.333 5.33301 45 8 77 8h201v-84h-226c-16.667 0 -30 -3.16699 -40 -9.5s-15 -15.5 -15 -27.5
c0 -14 5.66699 -25.667 17 -35c7.33301 -6 19 -11.667 35 -17l129 -39c46.667 -16.667 78.667 -36.334 96 -59.001s26 -47.667 26 -75z" />
    <glyph glyph-name="t" unicode="t" horiz-adv-x="314" 
d="M300 0l-107.999 -0.000976562c-38 0 -68 6.66699 -90 20c-41.333 25.333 -62 72.333 -62 141v439h88v-120h172v-84h-172v-228c0 -33.333 2.33301 -53.666 7 -60.999c9.33301 -15.333 33.666 -23 72.999 -23h92v-84z" />
    <glyph glyph-name="u" unicode="u" horiz-adv-x="490" 
d="M450 223c0 -42.667 -5.33301 -78.668 -16 -108.001c-14.667 -40.667 -41 -72.667 -79 -96c-32 -19.333 -68.667 -29 -110 -29s-78 9.66699 -110 29c-37.333 23.333 -63.666 55.333 -78.999 96c-10.667 28.667 -16 64.667 -16 108v257h88v-257c0 -28.667 3 -52 9 -70
c10 -29.333 28.333 -51.333 55 -66c15.333 -8.66699 33 -13 53 -13c8.66699 0 17.667 1 27 3s18 5.33301 26 10c27.333 14.667 45.666 36.334 54.999 65.001c6 18 9 41.667 9 71v257h88v-257z" />
    <glyph glyph-name="v" unicode="v" horiz-adv-x="444" 
d="M458 480l-164.999 -429c-8 -21.333 -14.667 -35 -20 -41c-11.333 -13.333 -28.333 -20 -51 -20c-17.333 0 -30.833 3.5 -40.5 10.5s-19.834 23.833 -30.501 50.5l-165 429h96l140 -370l140 370h96z" />
    <glyph glyph-name="w" unicode="w" horiz-adv-x="704" 
d="M664 197c0 -45.333 -3.33398 -78.332 -10.001 -98.999c-10.667 -34 -33.667 -61.667 -69 -83c-14 -8.66699 -30.167 -15 -48.5 -19s-36.166 -6 -53.499 -6c-15.333 0 -31 2.66699 -47 8c-34.667 10.667 -62.667 30.667 -84 60c-21.333 -29.333 -49.333 -49.333 -84 -60
c-7.33301 -2.66699 -16 -4.66699 -26 -6s-19.667 -2 -29 -2c-34.667 0 -65.667 8.33301 -93 25c-34 20.667 -56.667 48 -68 82c-8 23.333 -12 56.666 -12 99.999v283h88v-285c0 -28 1.33301 -47.333 4 -58c5.33301 -20.667 17 -37 35 -49c13.333 -9.33301 30 -14 50 -14
c18.667 0 35 4.33301 49 13c16.667 10.667 28.334 26.667 35.001 48c4.66699 15.333 7 35.333 7 60v285h88v-285c0 -26 2.5 -47.667 7.5 -65s16.5 -31.666 34.5 -42.999c13.333 -8.66699 29.333 -13 48 -13c20 0 37 4.66699 51 14
c17.333 11.333 28.666 27.666 33.999 48.999c3.33301 12.667 5 32 5 58v285h88v-283z" />
    <glyph glyph-name="x" unicode="x" horiz-adv-x="388" 
d="M382 0h-5.99805c-38 -0 -73.167 9.83301 -105.5 29.5s-57.833 47.167 -76.5 82.5c-18.667 -34.667 -44 -62 -76 -82s-67.333 -30 -106 -30h-6v84c28.667 0 54 7.16699 76 21.5s39.667 35.5 53 63.5c10 20 15 43.667 15 71c0 28 -5 52.5 -15 73.5s-25.667 39.5 -47 55.5
c-24 18 -50.333 27 -79 27l-3 84h4c39.333 0 75.166 -9.83301 107.499 -29.5s57.833 -47.167 76.5 -82.5c18.667 34.667 44 62 76 82s67.333 30 106 30h6v-84h-4c-26.667 0 -52 -8.66699 -76 -26c-21.333 -15.333 -37.333 -33.833 -48 -55.5s-16 -46.5 -16 -74.5
c0 -27.333 5.16699 -51.5 15.5 -72.5s26.166 -39.5 47.499 -55.5c24.667 -18.667 50 -28 76 -28h5v-84z" />
    <glyph glyph-name="y" unicode="y" horiz-adv-x="480" 
d="M440 203c0 -61.333 -13.668 -109.667 -41.001 -145s-65.666 -58 -114.999 -68v-208h-88v208c-63.333 13.333 -107.333 45.333 -132 96c-16 32.667 -24 71.667 -24 117v277h88v-274c0 -30.667 5 -56.334 15 -77.001c18 -36.667 50.333 -55 97 -55
c36 0 63.667 11.333 83 34s29 55.334 29 98.001v274h88v-277z" />
    <glyph glyph-name="z" unicode="z" horiz-adv-x="382" 
d="M364 0l-257.999 -0.000976562c-24 0 -41.667 2.33301 -53 7c-23.333 10 -35 29 -35 57c0 13.333 3.66699 26.833 11 40.5s19.666 30.834 36.999 51.501l196 240h-227v84h238c24.667 0 43.334 -2.66699 56.001 -8c21.333 -9.33301 32 -27 32 -53
c0 -14.667 -3.33301 -28.5 -10 -41.5s-19.334 -30.833 -38.001 -53.5l-197 -240h248v-84z" />
    <glyph glyph-name="braceleft" unicode="{" horiz-adv-x="389" 
d="M291 -176l-79 -0.000976562c-29.333 0 -53.333 11.833 -72 35.5s-28 52.5 -28 86.5v174c0 29.333 -6.66699 54.666 -20 75.999s-33 33.333 -59 36v60c25.333 2.66699 44.833 14.667 58.5 36s20.5 47 20.5 77v173c0 38 10.167 67.833 30.5 89.5s47.5 32.5 81.5 32.5h67
v-46h-43c-14.667 0 -25.334 -3.33301 -32.001 -10c-10.667 -11.333 -16 -34.666 -16 -69.999v-186c0 -26 -4.33301 -48 -13 -66c-12.667 -26 -34.667 -46 -66 -60c23.333 -6.66699 42.333 -21.167 57 -43.5s22 -50.166 22 -83.499v-185c0 -27.333 3.33301 -47.5 10 -60.5
s18.334 -19.5 35.001 -19.5h46v-46z" />
    <glyph glyph-name="bar" unicode="|" horiz-adv-x="222" 
d="M150 0h-78v700h78v-700z" />
    <glyph glyph-name="braceright" unicode="}" horiz-adv-x="389" 
d="M291 232c-24.667 -2.66699 -43.999 -14.6689 -57.999 -36.002s-21 -45.666 -21 -72.999v-177c0 -32.667 -9.5 -61.167 -28.5 -85.5s-42.833 -36.5 -71.5 -36.5h-79v46h46c16 0 27.5 6.66699 34.5 20s10.5 33.333 10.5 60v181c0 38 7.33301 67.333 22 88
c12 17.333 31 31.666 57 42.999c-25.333 8 -44.833 23.833 -58.5 47.5s-20.5 52.834 -20.5 87.501v177c0 27.333 -3.33301 47.5 -10 60.5s-18.334 19.5 -35.001 19.5h-46v46h79c29.333 0 53.333 -11.833 72 -35.5s28 -52.5 28 -86.5v-174
c0 -29.333 6.66699 -54.666 20 -75.999s33 -33.333 59 -36v-60z" />
    <glyph glyph-name="asciitilde" unicode="~" horiz-adv-x="600" 
d="M531 254c-35.333 -57.333 -77.334 -86.002 -126.001 -86.002c-16.667 0 -33.334 3 -50.001 9c-10 3.33301 -26.167 10.833 -48.5 22.5s-39.833 19.834 -52.5 24.501c-22 8 -42.333 12 -61 12c-19.333 0 -36.333 -5.5 -51 -16.5s-27 -29.5 -37 -55.5l-36 62
c12 24.667 26.667 44 44 58c23.333 18.667 50.333 28 81 28c20 0 40.333 -3.66699 61 -11c10.667 -3.33301 32.334 -12.666 65.001 -27.999c18 -8 30.667 -13.333 38 -16c20.667 -8.66699 36.334 -13 47.001 -13c20 0 39 8.66699 57 26c12.667 12 23.667 27.333 33 46z" />
    <glyph glyph-name="c128" horiz-adv-x="685" 
d="M627 225c0 -71.333 -19.666 -126.667 -58.999 -166s-98 -59 -176 -59h-41v88h36c43.333 0 77.666 9.33301 102.999 28c28.667 21.333 43 52.333 43 93v103c0 40.667 -12 72.667 -36 96s-55 35 -93 35c-45.333 0 -81.5 -15.167 -108.5 -45.5s-40.5 -69.833 -40.5 -118.5
v-279h-94v622h-159v78h523v-78h-270v-170c12.667 19.333 28.667 35.333 48 48c32 20.667 71.667 31 119 31c67.333 0 118.333 -20 153 -60s52 -93.333 52 -160v-86z" />
    <glyph glyph-name="c128" unicode="&#x402;" horiz-adv-x="685" 
d="M627 225c0 -71.333 -19.666 -126.667 -58.999 -166s-98 -59 -176 -59h-41v88h36c43.333 0 77.666 9.33301 102.999 28c28.667 21.333 43 52.333 43 93v103c0 40.667 -12 72.667 -36 96s-55 35 -93 35c-45.333 0 -81.5 -15.167 -108.5 -45.5s-40.5 -69.833 -40.5 -118.5
v-279h-94v622h-159v78h523v-78h-270v-170c12.667 19.333 28.667 35.333 48 48c32 20.667 71.667 31 119 31c67.333 0 118.333 -20 153 -60s52 -93.333 52 -160v-86z" />
    <glyph glyph-name="c129" horiz-adv-x="488" 
d="M482 901l-130 -142h-68l90 142h108zM445 612h-138c-32 0 -56.833 -1.5 -74.5 -4.5s-33.667 -12 -48 -27s-23.333 -32.667 -27 -53s-5.5 -42.833 -5.5 -67.5v-460h-94v462c0 55.333 4.83301 96.833 14.5 124.5s24.5 50.5 44.5 68.5c23.333 20.667 54 34 92 40
c20.667 3.33301 53 5 97 5h139v-88z" />
    <glyph glyph-name="c129" unicode="&#x403;" horiz-adv-x="488" 
d="M482 901l-130 -142h-68l90 142h108zM445 612h-138c-32 0 -56.833 -1.5 -74.5 -4.5s-33.667 -12 -48 -27s-23.333 -32.667 -27 -53s-5.5 -42.833 -5.5 -67.5v-460h-94v462c0 55.333 4.83301 96.833 14.5 124.5s24.5 50.5 44.5 68.5c23.333 20.667 54 34 92 40
c20.667 3.33301 53 5 97 5h139v-88z" />
    <glyph glyph-name="c141" horiz-adv-x="576" 
d="M450 901l-130 -142h-68l90 142h108zM540 700l-78.001 -171c-19.333 -42 -34.666 -71.667 -45.999 -89c-13.333 -20.667 -30 -38 -50 -52c38 -8 68.333 -24.667 91 -50c32.667 -36.667 49 -89.667 49 -159v-179h-94v180c0 38 -5.33301 66.667 -16 86
c-18.667 34.667 -54 52 -106 52h-138v-318h-94v700h94v-294h63c29.333 0 53 5.66699 71 17c22.667 14 42.667 40.333 60 79l89 198h105z" />
    <glyph glyph-name="c141" unicode="&#x40c;" horiz-adv-x="576" 
d="M450 901l-130 -142h-68l90 142h108zM540 700l-78.001 -171c-19.333 -42 -34.666 -71.667 -45.999 -89c-13.333 -20.667 -30 -38 -50 -52c38 -8 68.333 -24.667 91 -50c32.667 -36.667 49 -89.667 49 -159v-179h-94v180c0 38 -5.33301 66.667 -16 86
c-18.667 34.667 -54 52 -106 52h-138v-318h-94v700h94v-294h63c29.333 0 53 5.66699 71 17c22.667 14 42.667 40.333 60 79l89 198h105z" />
    <glyph glyph-name="c142" horiz-adv-x="667" 
d="M627 0h-94v296c0 44 -13.5 79.5 -40.5 106.5s-59.833 40.5 -98.5 40.5s-71.5 -13.5 -98.5 -40.5s-40.5 -62.5 -40.5 -106.5v-296h-94v622h-159v78h523v-78h-270v-170c20 31.333 48 53.333 84 66c24 8.66699 49.667 13 77 13c63.333 0 114.333 -19.667 153 -59
s58 -93.333 58 -162v-310z" />
    <glyph glyph-name="c142" unicode="&#x40b;" horiz-adv-x="667" 
d="M627 0h-94v296c0 44 -13.5 79.5 -40.5 106.5s-59.833 40.5 -98.5 40.5s-71.5 -13.5 -98.5 -40.5s-40.5 -62.5 -40.5 -106.5v-296h-94v622h-159v78h523v-78h-270v-170c20 31.333 48 53.333 84 66c24 8.66699 49.667 13 77 13c63.333 0 114.333 -19.667 153 -59
s58 -93.333 58 -162v-310z" />
    <glyph glyph-name="c143" horiz-adv-x="548" 
d="M520 0h-184v-226h-94v226h-184v700h94v-612h274v612h94v-700z" />
    <glyph glyph-name="c143" unicode="&#x40f;" horiz-adv-x="548" 
d="M520 0h-184v-226h-94v226h-184v700h94v-612h274v612h94v-700z" />
    <glyph glyph-name="c144" horiz-adv-x="587" 
d="M547 0h-87.998v258c0 48 -9.66699 84.667 -29 110s-47.333 38 -84 38s-65.334 -12.667 -86.001 -38c-23.333 -28.667 -35 -69.667 -35 -123v-245h-88v578h-100v64h100v58h88v-58h250v-64h-250v-141c19.333 19.333 39.666 33 60.999 41s43.333 12 66 12
c21.333 0 39.5 -1.5 54.5 -4.5s30.167 -8.83301 45.5 -17.5c39.333 -21.333 66.333 -53 81 -95c9.33301 -27.333 14 -64 14 -110v-263z" />
    <glyph glyph-name="c144" unicode="&#x452;" horiz-adv-x="587" 
d="M547 0h-87.998v258c0 48 -9.66699 84.667 -29 110s-47.333 38 -84 38s-65.334 -12.667 -86.001 -38c-23.333 -28.667 -35 -69.667 -35 -123v-245h-88v578h-100v64h100v58h88v-58h250v-64h-250v-141c19.333 19.333 39.666 33 60.999 41s43.333 12 66 12
c21.333 0 39.5 -1.5 54.5 -4.5s30.167 -8.83301 45.5 -17.5c39.333 -21.333 66.333 -53 81 -95c9.33301 -27.333 14 -64 14 -110v-263z" />
    <glyph glyph-name="c157" horiz-adv-x="460" 
d="M379 680l-130 -142h-68l90 142h108zM424 480l-52.002 -98.999l-33 -64c-13.333 -22 -30.666 -41 -51.999 -57c20.667 -2.66699 39.334 -9 56.001 -19s29.667 -21.667 39 -35c12.667 -16.667 20.667 -35.5 24 -56.5s5 -46.833 5 -77.5v-72h-88v73
c0 37.333 -5 65.666 -15 84.999c-16 31.333 -46 47 -90 47h-94v-205h-88v480h88v-191h56c34 0 68 32.667 102 98l48 93h94z" />
    <glyph glyph-name="c157" unicode="&#x45c;" horiz-adv-x="460" 
d="M379 680l-130 -142h-68l90 142h108zM424 480l-52.002 -98.999l-33 -64c-13.333 -22 -30.666 -41 -51.999 -57c20.667 -2.66699 39.334 -9 56.001 -19s29.667 -21.667 39 -35c12.667 -16.667 20.667 -35.5 24 -56.5s5 -46.833 5 -77.5v-72h-88v73
c0 37.333 -5 65.666 -15 84.999c-16 31.333 -46 47 -90 47h-94v-205h-88v480h88v-191h56c34 0 68 32.667 102 98l48 93h94z" />
    <glyph glyph-name="c158" horiz-adv-x="490" 
d="M450 0h-87.998v258c0 48 -9.66699 84.667 -29 110s-47.333 38 -84 38s-65.334 -12.667 -86.001 -38c-23.333 -28.667 -35 -69.667 -35 -123v-245h-88v700h88v-263c19.333 19.333 39.666 33 60.999 41s43.333 12 66 12c21.333 0 39.5 -1.5 54.5 -4.5
s30.167 -8.83301 45.5 -17.5c39.333 -21.333 66.333 -53 81 -95c9.33301 -27.333 14 -64 14 -110v-263z" />
    <glyph glyph-name="c158" unicode="&#x45b;" horiz-adv-x="490" 
d="M450 0h-87.998v258c0 48 -9.66699 84.667 -29 110s-47.333 38 -84 38s-65.334 -12.667 -86.001 -38c-23.333 -28.667 -35 -69.667 -35 -123v-245h-88v700h88v-263c19.333 19.333 39.666 33 60.999 41s43.333 12 66 12c21.333 0 39.5 -1.5 54.5 -4.5
s30.167 -8.83301 45.5 -17.5c39.333 -21.333 66.333 -53 81 -95c9.33301 -27.333 14 -64 14 -110v-263z" />
    <glyph glyph-name="nonbreakingspace" unicode="&#xa0;" horiz-adv-x="500" 
 />
    <glyph glyph-name="exclamdown" unicode="&#xa1;" horiz-adv-x="605" 
d="M455 899c0 -38 -11.6689 -69 -35.002 -93c-27.333 -28 -67 -42 -119 -42c-51.333 0 -90.666 14 -117.999 42c-24 24.667 -36 55.667 -36 93h50c3.33301 -26 14.333 -45.333 33 -58s42.334 -19 71.001 -19c36.667 0 64 9.66699 82 29c12.667 13.333 20 29.333 22 48h50z
M416.998 261h-99c-34.667 0 -62 1.33301 -82 4c-34.667 4.66699 -63.667 14 -87 28c-38 22.667 -64 56 -78 100c-8.66699 27.333 -13 62.333 -13 105v201h94v-218c0 -22.667 2.83301 -43 8.5 -61s18.167 -33.667 37.5 -47c14 -10 30.333 -16.5 49 -19.5s41.667 -4.5 69 -4.5
h101v-88zM546.998 257c0 -50.667 -3.33496 -88.332 -10.002 -112.999c-11.333 -40.667 -35 -74 -71 -100c-26.667 -18.667 -58.334 -31.334 -95.001 -38.001c-23.333 -4 -56.666 -6 -99.999 -6h-171v88h171c38.667 0 67.334 2 86.001 6s34.334 10 47.001 18
c20.667 14 34.667 33.333 42 58c4.66699 16 7 36.667 7 62v467h94v-442z" />
    <glyph glyph-name="exclamdown" unicode="&#x40e;" horiz-adv-x="605" 
d="M455 899c0 -38 -11.6689 -69 -35.002 -93c-27.333 -28 -67 -42 -119 -42c-51.333 0 -90.666 14 -117.999 42c-24 24.667 -36 55.667 -36 93h50c3.33301 -26 14.333 -45.333 33 -58s42.334 -19 71.001 -19c36.667 0 64 9.66699 82 29c12.667 13.333 20 29.333 22 48h50z
M416.998 261h-99c-34.667 0 -62 1.33301 -82 4c-34.667 4.66699 -63.667 14 -87 28c-38 22.667 -64 56 -78 100c-8.66699 27.333 -13 62.333 -13 105v201h94v-218c0 -22.667 2.83301 -43 8.5 -61s18.167 -33.667 37.5 -47c14 -10 30.333 -16.5 49 -19.5s41.667 -4.5 69 -4.5
h101v-88zM546.998 257c0 -50.667 -3.33496 -88.332 -10.002 -112.999c-11.333 -40.667 -35 -74 -71 -100c-26.667 -18.667 -58.334 -31.334 -95.001 -38.001c-23.333 -4 -56.666 -6 -99.999 -6h-171v88h171c38.667 0 67.334 2 86.001 6s34.334 10 47.001 18
c20.667 14 34.667 33.333 42 58c4.66699 16 7 36.667 7 62v467h94v-442z" />
    <glyph glyph-name="cent" unicode="&#xa2;" horiz-adv-x="491" 
d="M398 678c0 -38 -11.6689 -69 -35.002 -93c-27.333 -28 -67 -42 -119 -42c-51.333 0 -90.666 14 -117.999 42c-24 24.667 -36 55.667 -36 93h50c3.33301 -26 14.333 -45.333 33 -58s42.334 -19 71.001 -19c36.667 0 64 9.66699 82 29c12.667 13.333 20 29.333 22 48h50z
M450.998 5c0 -42.667 -3.66797 -76.001 -11.001 -100.001c-10 -33.333 -29.333 -61.666 -58 -84.999c-20 -16.667 -45 -29.334 -75 -38.001s-59.333 -13 -88 -13c-30.667 0 -59.667 3 -87 9s-56.666 14.667 -87.999 26l9 87c26 -12.667 51.5 -22.167 76.5 -28.5
s50.5 -9.5 76.5 -9.5s47.667 2 65 6c25.333 6 45.5 16 60.5 30s24.5 32 28.5 54c2 10.667 3 29.667 3 57v55c-8.66699 -13.333 -18.334 -24.333 -29.001 -33c-16 -12.667 -35.667 -21.667 -59 -27c-8.66699 -2 -17.5 -3.33301 -26.5 -4s-19.167 -1 -30.5 -1
c-10 0 -20.5 0.5 -31.5 1.5s-23.5 4.16699 -37.5 9.5c-46 16 -77.333 47.333 -94 94c-11.333 31.333 -17 74.333 -17 129v256h88v-240c0 -40 1.66699 -67.333 5 -82c6.66699 -30.667 22 -53.667 46 -69c8.66699 -5.33301 18 -9.16602 28 -11.499s21.333 -3.5 34 -3.5
c26.667 0 50.834 8 72.501 24s36.5 39.667 44.5 71c4.66699 18 7 41.667 7 71v240h88v-475z" />
    <glyph glyph-name="cent" unicode="&#x45e;" horiz-adv-x="491" 
d="M398 678c0 -38 -11.6689 -69 -35.002 -93c-27.333 -28 -67 -42 -119 -42c-51.333 0 -90.666 14 -117.999 42c-24 24.667 -36 55.667 -36 93h50c3.33301 -26 14.333 -45.333 33 -58s42.334 -19 71.001 -19c36.667 0 64 9.66699 82 29c12.667 13.333 20 29.333 22 48h50z
M450.998 5c0 -42.667 -3.66797 -76.001 -11.001 -100.001c-10 -33.333 -29.333 -61.666 -58 -84.999c-20 -16.667 -45 -29.334 -75 -38.001s-59.333 -13 -88 -13c-30.667 0 -59.667 3 -87 9s-56.666 14.667 -87.999 26l9 87c26 -12.667 51.5 -22.167 76.5 -28.5
s50.5 -9.5 76.5 -9.5s47.667 2 65 6c25.333 6 45.5 16 60.5 30s24.5 32 28.5 54c2 10.667 3 29.667 3 57v55c-8.66699 -13.333 -18.334 -24.333 -29.001 -33c-16 -12.667 -35.667 -21.667 -59 -27c-8.66699 -2 -17.5 -3.33301 -26.5 -4s-19.167 -1 -30.5 -1
c-10 0 -20.5 0.5 -31.5 1.5s-23.5 4.16699 -37.5 9.5c-46 16 -77.333 47.333 -94 94c-11.333 31.333 -17 74.333 -17 129v256h88v-240c0 -40 1.66699 -67.333 5 -82c6.66699 -30.667 22 -53.667 46 -69c8.66699 -5.33301 18 -9.16602 28 -11.499s21.333 -3.5 34 -3.5
c26.667 0 50.834 8 72.501 24s36.5 39.667 44.5 71c4.66699 18 7 41.667 7 71v240h88v-475z" />
    <glyph glyph-name="sterling" unicode="&#xa3;" horiz-adv-x="347" 
d="M289 226c0 -70 -20.168 -125.166 -60.501 -165.499s-98.833 -60.5 -175.5 -60.5h-55v88h51c60.667 0 102.334 17.333 125.001 52c14 21.333 21 51.666 21 90.999v469h94v-474z" />
    <glyph glyph-name="sterling" unicode="&#x408;" horiz-adv-x="347" 
d="M289 226c0 -70 -20.168 -125.166 -60.501 -165.499s-98.833 -60.5 -175.5 -60.5h-55v88h51c60.667 0 102.334 17.333 125.001 52c14 21.333 21 51.666 21 90.999v469h94v-474z" />
    <glyph glyph-name="currency" unicode="&#xa4;" horiz-adv-x="583" 
d="M544 145l-48 -48l-55 58c-18.667 -16 -40.5 -28.833 -65.5 -38.5s-53.167 -14.5 -84.5 -14.5c-25.333 0 -47.666 2.66699 -66.999 8c-30 8 -57.667 23 -83 45l-55 -58l-48 48l55 58c-17.333 21.333 -30 45 -38 71s-12 51.333 -12 76c0 26.667 3.66699 52 11 76
s20.333 47.667 39 71l-55 58l48 48l55 -58c18.667 16 39.334 28.333 62.001 37c27.333 10.667 56.666 16 87.999 16c25.333 0 47.666 -2.66699 66.999 -8c30 -8 57.667 -23 83 -45l55 58l48 -48l-55 -58c17.333 -21.333 30 -45 38 -71s12 -51.333 12 -76
c0 -26.667 -3.66699 -52 -11 -76s-20.333 -47.667 -39 -71zM457 350c0 48 -16 88.667 -48 122s-71.333 50 -118 50s-86 -16.667 -118 -50s-48 -74 -48 -122s16 -88.667 48 -122s71.333 -50 118 -50s86 16.667 118 50s48 74 48 122z" />
    <glyph glyph-name="yen" unicode="&#xa5;" horiz-adv-x="451" 
d="M445 612h-138c-32 0 -56.833 -1.5 -74.5 -4.5s-33.667 -12 -48 -27s-23.333 -32.667 -27 -53s-5.5 -42.833 -5.5 -67.5v-460h-94v462c0 55.333 4.83301 96.833 14.5 124.5s24.5 50.5 44.5 68.5c23.333 20.667 54 34 92 40c20.667 3.33301 53 5 97 5h61v71h78v-159z" />
    <glyph glyph-name="yen" unicode="&#x490;" horiz-adv-x="451" 
d="M445 612h-138c-32 0 -56.833 -1.5 -74.5 -4.5s-33.667 -12 -48 -27s-23.333 -32.667 -27 -53s-5.5 -42.833 -5.5 -67.5v-460h-94v462c0 55.333 4.83301 96.833 14.5 124.5s24.5 50.5 44.5 68.5c23.333 20.667 54 34 92 40c20.667 3.33301 53 5 97 5h61v71h78v-159z" />
    <glyph glyph-name="brokenbar" unicode="&#xa6;" horiz-adv-x="222" 
d="M150 438h-78v262h78v-262zM150 0h-78v262h78v-262z" />
    <glyph glyph-name="section" unicode="&#xa7;" horiz-adv-x="503" 
d="M443 309c0 -32 -8.50098 -59.3291 -25.501 -81.9961s-41.167 -36.334 -72.5 -41.001c24.667 -13.333 43.667 -30.5 57 -51.5s20 -43.5 20 -67.5c0 -32 -9.66699 -58.333 -29 -79c-26.667 -28.667 -69.667 -43 -129 -43h-204v84h199c22.667 0 37.334 1 44.001 3
c19.333 5.33301 29 17.666 29 36.999c0 16.667 -7 31 -21 43c-3.33301 2.66699 -35.666 21 -96.999 55c-39.333 22 -70.333 44.667 -93 68c-32 34 -48 70.667 -48 110c0 34 10.5 62.167 31.5 84.5s47.833 33.5 80.5 33.5c-31.333 17.333 -54 36 -68 56s-21 44.333 -21 73
c0 33.333 11.667 60.666 35 81.999c28 25.333 68.667 38 122 38h173v-84h-185c-14.667 0 -25.667 -1.33301 -33 -4c-14.667 -5.33301 -22 -16.333 -22 -33c0 -22.667 18.333 -44.334 55 -65.001c28 -14.667 49 -26 63 -34c45.333 -25.333 78.666 -50.666 99.999 -75.999
c26 -30.667 39 -66.334 39 -107.001zM357.999 303.004c0 25.333 -11.334 49.333 -34.001 72c-20 20 -42.667 34 -68 42c-6.66699 2 -11.667 3.33301 -15 4s-8.33301 1 -15 1c-21.333 0 -38.333 -6.66699 -51 -20s-19 -30.333 -19 -51c0 -28.667 16.333 -56 49 -82
c30 -24 57.667 -36 83 -36c18.667 0 34.334 5.33301 47.001 16c15.333 12.667 23 30.667 23 54z" />
    <glyph glyph-name="dieresis" unicode="&#xa8;" horiz-adv-x="493" 
d="M429 801c0 -16 -5.33301 -29.333 -16 -40s-24 -16 -40 -16s-29.333 5.33301 -40 16s-16 24 -16 40s5.33301 29.333 16 40s24 16 40 16s29.333 -5.33301 40 -16s16 -24 16 -40zM267 801c0 -16 -5.33301 -29.333 -16 -40s-24 -16 -40 -16s-29.333 5.33301 -40 16
s-16 24 -16 40s5.33301 29.333 16 40s24 16 40 16s29.333 -5.33301 40 -16s16 -24 16 -40zM457 0l-182.999 0.000976562c-43.333 0 -77.333 3.66699 -102 11c-34.667 10 -64.667 29.667 -90 59c-16.667 18.667 -28.5 38.5 -35.5 59.5s-10.5 44.167 -10.5 69.5
c0 42.667 9.66699 79 29 109s46.333 52 81 66c-27.333 16.667 -48.833 38.667 -64.5 66s-23.5 58.333 -23.5 93c0 23.333 3.66699 44.666 11 63.999s19.333 37 36 53c24 22.667 53.667 37.334 89 44.001c21.333 4 55.666 6 102.999 6h160v-88h-166h-21
c-21.333 0 -39.5 -1.83301 -54.5 -5.5s-28.5 -11.5 -40.5 -23.5c-6.66699 -6.66699 -12.167 -15.167 -16.5 -25.5s-6.5 -22.833 -6.5 -37.5c0 -16 3.33301 -30.667 10 -44c13.333 -26.667 33.666 -44.334 60.999 -53.001c15.333 -4.66699 39.333 -7 72 -7h162v-88h-153
c-32.667 0 -58.667 -1.5 -78 -4.5s-37.666 -11.5 -54.999 -25.5c-12 -10 -21.833 -22.833 -29.5 -38.5s-11.5 -33.5 -11.5 -53.5s4.33301 -38.333 13 -55c14 -26.667 35.333 -44.667 64 -54c18.667 -6 44.667 -9 78 -9h172v-88z" />
    <glyph glyph-name="dieresis" unicode="&#x401;" horiz-adv-x="493" 
d="M429 801c0 -16 -5.33301 -29.333 -16 -40s-24 -16 -40 -16s-29.333 5.33301 -40 16s-16 24 -16 40s5.33301 29.333 16 40s24 16 40 16s29.333 -5.33301 40 -16s16 -24 16 -40zM267 801c0 -16 -5.33301 -29.333 -16 -40s-24 -16 -40 -16s-29.333 5.33301 -40 16
s-16 24 -16 40s5.33301 29.333 16 40s24 16 40 16s29.333 -5.33301 40 -16s16 -24 16 -40zM457 0l-182.999 0.000976562c-43.333 0 -77.333 3.66699 -102 11c-34.667 10 -64.667 29.667 -90 59c-16.667 18.667 -28.5 38.5 -35.5 59.5s-10.5 44.167 -10.5 69.5
c0 42.667 9.66699 79 29 109s46.333 52 81 66c-27.333 16.667 -48.833 38.667 -64.5 66s-23.5 58.333 -23.5 93c0 23.333 3.66699 44.666 11 63.999s19.333 37 36 53c24 22.667 53.667 37.334 89 44.001c21.333 4 55.666 6 102.999 6h160v-88h-166h-21
c-21.333 0 -39.5 -1.83301 -54.5 -5.5s-28.5 -11.5 -40.5 -23.5c-6.66699 -6.66699 -12.167 -15.167 -16.5 -25.5s-6.5 -22.833 -6.5 -37.5c0 -16 3.33301 -30.667 10 -44c13.333 -26.667 33.666 -44.334 60.999 -53.001c15.333 -4.66699 39.333 -7 72 -7h162v-88h-153
c-32.667 0 -58.667 -1.5 -78 -4.5s-37.666 -11.5 -54.999 -25.5c-12 -10 -21.833 -22.833 -29.5 -38.5s-11.5 -33.5 -11.5 -53.5s4.33301 -38.333 13 -55c14 -26.667 35.333 -44.667 64 -54c18.667 -6 44.667 -9 78 -9h172v-88z" />
    <glyph glyph-name="copyright" unicode="&#xa9;" horiz-adv-x="761" 
d="M740 350c0 -103.333 -34.5 -189.5 -103.5 -258.5s-152.5 -103.5 -250.5 -103.5c-97.333 0 -180.666 34.333 -249.999 103s-104 155 -104 259c0 103.333 34.5 189.5 103.5 258.5s152.5 103.5 250.5 103.5c97.333 0 180.666 -34.333 249.999 -103s104 -155 104 -259z
M670 350c0 82.667 -26 152.333 -78 209c-54 59.333 -122.667 89 -206 89c-82 0 -149.833 -29.167 -203.5 -87.5s-80.5 -128.5 -80.5 -210.5c0 -82.667 26.667 -153 80 -211s121.333 -87 204 -87s150.667 29 204 87s80 128.333 80 211zM479 125.999l-56.002 -0.000976562
c-72.667 0 -130 22 -172 66c-38 40 -57 88.333 -57 145c0 34.667 7.83301 67.334 23.5 98.001s37.834 55.667 66.501 75c22.667 15.333 45.834 25.333 69.501 30s50.834 7 81.501 7h44v-74h-44c-24 0 -44.333 -1.66699 -61 -5s-32.834 -11 -48.501 -23s-28 -27.333 -37 -46
s-13.5 -39.334 -13.5 -62.001c0 -37.333 12.333 -68.666 37 -93.999c28 -28.667 65.667 -43 113 -43h54v-74z" />
    <glyph glyph-name="ordfeminine" unicode="&#xaa;" horiz-adv-x="508" 
d="M472 0h-70c-114 -0 -205.333 37.333 -274 112c-61.333 66.667 -92 146 -92 238s30.333 171 91 237c68.667 75.333 161 113 277 113h68v-88h-59c-72.667 0 -134.667 -18.667 -186 -56s-82.333 -87.333 -93 -150h338v-88h-338c6.66699 -66.667 34 -121.667 82 -165
s108.333 -65 181 -65h75v-88z" />
    <glyph glyph-name="ordfeminine" unicode="&#x404;" horiz-adv-x="508" 
d="M472 0h-70c-114 -0 -205.333 37.333 -274 112c-61.333 66.667 -92 146 -92 238s30.333 171 91 237c68.667 75.333 161 113 277 113h68v-88h-59c-72.667 0 -134.667 -18.667 -186 -56s-82.333 -87.333 -93 -150h338v-88h-338c6.66699 -66.667 34 -121.667 82 -165
s108.333 -65 181 -65h75v-88z" />
    <glyph glyph-name="guillemotleft" unicode="&#xab;" horiz-adv-x="495" 
d="M435 86h-76l-125 154l125 154h76l-125 -154zM265 86h-76l-125 154l125 154h76l-125 -154z" />
    <glyph glyph-name="logicalnot" unicode="&#xac;" horiz-adv-x="600" 
d="M540 102h-78v198h-402v78h480v-276z" />
    <glyph glyph-name="minus" unicode="&#xad;" horiz-adv-x="278" 
d="M251 200h-224v80h224v-80z" />
    <glyph glyph-name="registered" unicode="&#xae;" horiz-adv-x="786" 
d="M740 350c0 -103.333 -34.5 -189.5 -103.5 -258.5s-152.5 -103.5 -250.5 -103.5c-97.333 0 -180.666 34.333 -249.999 103s-104 155 -104 259c0 103.333 34.5 189.5 103.5 258.5s152.5 103.5 250.5 103.5c97.333 0 180.666 -34.333 249.999 -103s104 -155 104 -259z
M670 350c0 82.667 -26 152.333 -78 209c-54 59.333 -122.667 89 -206 89c-82 0 -149.833 -29.167 -203.5 -87.5s-80.5 -128.5 -80.5 -210.5c0 -82.667 26.667 -153 80 -211s121.333 -87 204 -87s150.667 29 204 87s80 128.333 80 211zM517 146.999l-56.0039 0.000976562v107
c0 30 -8.33301 50.667 -25 62c-12 8 -28.667 12 -50 12h-64v52h47c30 0 52.333 7.33301 67 22c12 12 18 27.667 18 47c0 20 -6.83301 36.167 -20.5 48.5s-32.167 18.5 -55.5 18.5c-24.667 0 -43.667 -8.33301 -57 -25s-20 -40.334 -20 -71.001v-273h-56v263
c0 31.333 3 56 9 74c9.33301 28.667 27.333 50.667 54 66c10.667 6.66699 21.834 11.334 33.501 14.001s24.167 4 37.5 4c15.333 0 29.833 -1.66699 43.5 -5s26.834 -9.33301 39.501 -18s23.834 -21.5 33.501 -38.5s14.5 -37.5 14.5 -61.5c0 -36.667 -16 -65.667 -48 -87
c22.667 -8.66699 38.334 -23.334 47.001 -44.001c5.33301 -13.333 8 -32.333 8 -57v-17v-93z" />
    <glyph glyph-name="macron" unicode="&#xaf;" horiz-adv-x="217" 
d="M248 821c0 -16 -5.33301 -29.333 -16 -40s-24 -16 -40 -16s-29.333 5.33301 -40 16s-16 24 -16 40s5.33301 29.333 16 40s24 16 40 16s29.333 -5.33301 40 -16s16 -24 16 -40zM88 821c0 -16 -5.33301 -29.333 -16 -40s-24 -16 -40 -16s-29.333 5.33301 -40 16
s-16 24 -16 40s5.33301 29.333 16 40s24 16 40 16s29.333 -5.33301 40 -16s16 -24 16 -40zM159 0h-94v700h94v-700z" />
    <glyph glyph-name="macron" unicode="&#x407;" horiz-adv-x="217" 
d="M248 821c0 -16 -5.33301 -29.333 -16 -40s-24 -16 -40 -16s-29.333 5.33301 -40 16s-16 24 -16 40s5.33301 29.333 16 40s24 16 40 16s29.333 -5.33301 40 -16s16 -24 16 -40zM88 821c0 -16 -5.33301 -29.333 -16 -40s-24 -16 -40 -16s-29.333 5.33301 -40 16
s-16 24 -16 40s5.33301 29.333 16 40s24 16 40 16s29.333 -5.33301 40 -16s16 -24 16 -40zM159 0h-94v700h94v-700z" />
    <glyph glyph-name="degree" unicode="&#xb0;" horiz-adv-x="352" 
d="M326 562c0 -41.333 -14.667 -76.666 -44 -105.999s-64.666 -44 -105.999 -44s-76.666 14.667 -105.999 44s-44 64.666 -44 105.999s14.667 76.666 44 105.999s64.666 44 105.999 44s76.666 -14.667 105.999 -44s44 -64.666 44 -105.999zM272 562
c0 32.667 -9.5 57.5 -28.5 74.5s-41.5 25.5 -67.5 25.5s-47.667 -7.66699 -65 -23c-20.667 -18 -31 -43.667 -31 -77c0 -32.667 10 -58 30 -76c18 -16 40 -24 66 -24s47.667 7.66699 65 23c20.667 18 31 43.667 31 77z" />
    <glyph glyph-name="plusminus" unicode="&#xb1;" horiz-adv-x="580" 
d="M530 257h-201v-145h-78v145h-201v78h201v145h78v-145h201v-78zM530 0h-480v78h480v-78z" />
    <glyph glyph-name="twosuperior" unicode="&#xb2;" horiz-adv-x="210" 
d="M152 0h-94v700h94v-700z" />
    <glyph glyph-name="twosuperior" unicode="&#x406;" horiz-adv-x="210" 
d="M152 0h-94v700h94v-700z" />
    <glyph glyph-name="threesuperior" unicode="&#xb3;" horiz-adv-x="213" 
d="M127 587c0 -13.333 -3.66699 -24.666 -11 -33.999c-10 -12.667 -24 -19 -42 -19s-31.333 5.5 -40 16.5s-13 23.167 -13 36.5s3.66699 24.666 11 33.999c10 12.667 24 19 42 19s31.333 -5.5 40 -16.5s13 -23.167 13 -36.5zM118 0h-88v480h88v-480z" />
    <glyph glyph-name="threesuperior" unicode="&#x456;" horiz-adv-x="213" 
d="M127 587c0 -13.333 -3.66699 -24.666 -11 -33.999c-10 -12.667 -24 -19 -42 -19s-31.333 5.5 -40 16.5s-13 23.167 -13 36.5s3.66699 24.666 11 33.999c10 12.667 24 19 42 19s31.333 -5.5 40 -16.5s13 -23.167 13 -36.5zM118 0h-88v480h88v-480z" />
    <glyph glyph-name="acute" unicode="&#xb4;" horiz-adv-x="327" 
d="M345 396l-101 -0.000976562c-56 0 -91.667 -11.667 -107 -35c-8.66699 -13.333 -13 -42.666 -13 -87.999v-273h-88v273c0 90 22.333 149.667 67 179c28 18.667 75 28 141 28h13v116h88v-200z" />
    <glyph glyph-name="acute" unicode="&#x491;" horiz-adv-x="327" 
d="M345 396l-101 -0.000976562c-56 0 -91.667 -11.667 -107 -35c-8.66699 -13.333 -13 -42.666 -13 -87.999v-273h-88v273c0 90 22.333 149.667 67 179c28 18.667 75 28 141 28h13v116h88v-200z" />
    <glyph glyph-name="mu" unicode="&#xb5;" horiz-adv-x="476" 
d="M436 0l-88.001 -0.000976562v62c-13.333 -24 -31 -42 -53 -54s-44.667 -18 -68 -18c-44 0 -79.667 18 -107 54v-216h-88v652h88v-280c0 -29.333 5.33301 -53.333 16 -72c8.66699 -15.333 21.834 -28.166 39.501 -38.499s36.5 -15.5 56.5 -15.5c20.667 0 39.667 5 57 15
c25.333 14 42.333 35.333 51 64c5.33301 17.333 8 39.333 8 66v261h88v-480z" />
    <glyph glyph-name="paragraph" unicode="&#xb6;" horiz-adv-x="586" 
d="M544 -191h-93.999v803h-97v-803h-94v537h-15c-88 0 -151 23 -189 69c-24.667 30 -37 65.667 -37 107c0 71.333 27.333 121 82 149c37.333 19.333 89.666 29 156.999 29h287v-891z" />
    <glyph glyph-name="cedilla" unicode="&#xb8;" horiz-adv-x="551" 
d="M429 611c0 -15.333 -5 -28 -15 -38s-22.667 -15 -38 -15s-28 5 -38 15s-15 22.667 -15 38s5 28 15 38s22.667 15 38 15s28 -5 38 -15s15 -22.667 15 -38zM230 611c0 -15.333 -5 -28 -15 -38s-22.667 -15 -38 -15s-28 5 -38 15s-15 22.667 -15 38s5 28 15 38
s22.667 15 38 15s28 -5 38 -15s15 -22.667 15 -38zM525 213c-4.66699 -50.667 -21.3311 -94.332 -49.998 -130.999c-18.667 -24 -42.334 -44 -71.001 -60c-18 -10.667 -38.333 -18.667 -61 -24s-45.334 -8 -68.001 -8c-38.667 0 -76 8.66699 -112 26
c-42 20.667 -75.333 50.5 -100 89.5s-37 83.833 -37 134.5c0 71.333 23.833 130.833 71.5 178.5s106.834 71.5 177.501 71.5c49.333 0 94.5 -12.667 135.5 -38s73.167 -63.333 96.5 -114l-324 -180l-36 70l237 132c-16 17.333 -33.667 29.333 -53 36s-38.666 10 -57.999 10
c-46.667 0 -84.5 -15.5 -113.5 -46.5s-43.5 -70.833 -43.5 -119.5c0 -32.667 6.66699 -61.334 20 -86.001s30.666 -43.667 51.999 -57c12 -7.33301 25.333 -13 40 -17s29.667 -6 45 -6c18 0 34.167 1.5 48.5 4.5s28.5 8.5 42.5 16.5c21.333 12.667 38.666 30.5 51.999 53.5
s20 48.167 20 75.5z" />
    <glyph glyph-name="cedilla" unicode="&#x451;" horiz-adv-x="551" 
d="M429 611c0 -15.333 -5 -28 -15 -38s-22.667 -15 -38 -15s-28 5 -38 15s-15 22.667 -15 38s5 28 15 38s22.667 15 38 15s28 -5 38 -15s15 -22.667 15 -38zM230 611c0 -15.333 -5 -28 -15 -38s-22.667 -15 -38 -15s-28 5 -38 15s-15 22.667 -15 38s5 28 15 38
s22.667 15 38 15s28 -5 38 -15s15 -22.667 15 -38zM525 213c-4.66699 -50.667 -21.3311 -94.332 -49.998 -130.999c-18.667 -24 -42.334 -44 -71.001 -60c-18 -10.667 -38.333 -18.667 -61 -24s-45.334 -8 -68.001 -8c-38.667 0 -76 8.66699 -112 26
c-42 20.667 -75.333 50.5 -100 89.5s-37 83.833 -37 134.5c0 71.333 23.833 130.833 71.5 178.5s106.834 71.5 177.501 71.5c49.333 0 94.5 -12.667 135.5 -38s73.167 -63.333 96.5 -114l-324 -180l-36 70l237 132c-16 17.333 -33.667 29.333 -53 36s-38.666 10 -57.999 10
c-46.667 0 -84.5 -15.5 -113.5 -46.5s-43.5 -70.833 -43.5 -119.5c0 -32.667 6.66699 -61.334 20 -86.001s30.666 -43.667 51.999 -57c12 -7.33301 25.333 -13 40 -17s29.667 -6 45 -6c18 0 34.167 1.5 48.5 4.5s28.5 8.5 42.5 16.5c21.333 12.667 38.666 30.5 51.999 53.5
s20 48.167 20 75.5z" />
    <glyph glyph-name="onesuperior" unicode="&#xb9;" horiz-adv-x="945" 
d="M911 557c0 -39.333 -14 -73 -42 -101s-61.667 -42 -101 -42s-73 14 -101 42s-42 61.667 -42 101s14 73 42 101s61.667 42 101 42s73 -14 101 -42s42 -61.667 42 -101zM911 286h-286v64h286v-64zM564 96c0 -30 -3 -52.001 -9 -66.001c-10.667 -24 -31.667 -36 -63 -36
c-20 0 -37 4.5 -51 13.5s-29.333 30.833 -46 65.5l-245 501l-2 -574h-94v594c0 30 3 52.333 9 67c12 30 36.333 45 73 45c25.333 0 46 -9 62 -27c12 -13.333 27 -38.666 45 -75.999l225 -465l2 562h94v-604zM843 556.999c0 23.333 -6.66699 42.333 -20 57
s-31.666 22 -54.999 22c-22.667 0 -40.834 -7.16699 -54.501 -21.5s-20.5 -33.5 -20.5 -57.5c0 -23.333 6.66699 -42.333 20 -57s31.666 -22 54.999 -22c22.667 0 40.834 7.16699 54.501 21.5s20.5 33.5 20.5 57.5z" />
    <glyph glyph-name="onesuperior" unicode="&#x2116;" horiz-adv-x="945" 
d="M911 557c0 -39.333 -14 -73 -42 -101s-61.667 -42 -101 -42s-73 14 -101 42s-42 61.667 -42 101s14 73 42 101s61.667 42 101 42s73 -14 101 -42s42 -61.667 42 -101zM911 286h-286v64h286v-64zM564 96c0 -30 -3 -52.001 -9 -66.001c-10.667 -24 -31.667 -36 -63 -36
c-20 0 -37 4.5 -51 13.5s-29.333 30.833 -46 65.5l-245 501l-2 -574h-94v594c0 30 3 52.333 9 67c12 30 36.333 45 73 45c25.333 0 46 -9 62 -27c12 -13.333 27 -38.666 45 -75.999l225 -465l2 562h94v-604zM843 556.999c0 23.333 -6.66699 42.333 -20 57
s-31.666 22 -54.999 22c-22.667 0 -40.834 -7.16699 -54.501 -21.5s-20.5 -33.5 -20.5 -57.5c0 -23.333 6.66699 -42.333 20 -57s31.666 -22 54.999 -22c22.667 0 40.834 7.16699 54.501 21.5s20.5 33.5 20.5 57.5z" />
    <glyph glyph-name="ordmasculine" unicode="&#xba;" horiz-adv-x="384" 
d="M354 0l-62.0039 -0.000976562c-39.333 0 -71.666 3.33301 -96.999 10c-41.333 10.667 -77 31.334 -107 62.001c-19.333 20 -34.333 42 -45 66c-14 31.333 -21 66 -21 104c0 56.667 15 105 45 145c18.667 24.667 40.334 43.834 65.001 57.501s51.667 23 81 28
s58 7.5 86 7.5h55v-84h-54c-32.667 0 -59 -2.16699 -79 -6.5s-35.333 -9.5 -46 -15.5c-33.333 -18.667 -54.666 -48.334 -63.999 -89.001h243v-84h-243c4 -23.333 12.333 -43.333 25 -60c10.667 -14 24 -25.667 40 -35c12.667 -7.33301 28.834 -12.833 48.501 -16.5
s45.167 -5.5 76.5 -5.5h53v-84z" />
    <glyph glyph-name="ordmasculine" unicode="&#x454;" horiz-adv-x="384" 
d="M354 0l-62.0039 -0.000976562c-39.333 0 -71.666 3.33301 -96.999 10c-41.333 10.667 -77 31.334 -107 62.001c-19.333 20 -34.333 42 -45 66c-14 31.333 -21 66 -21 104c0 56.667 15 105 45 145c18.667 24.667 40.334 43.834 65.001 57.501s51.667 23 81 28
s58 7.5 86 7.5h55v-84h-54c-32.667 0 -59 -2.16699 -79 -6.5s-35.333 -9.5 -46 -15.5c-33.333 -18.667 -54.666 -48.334 -63.999 -89.001h243v-84h-243c4 -23.333 12.333 -43.333 25 -60c10.667 -14 24 -25.667 40 -35c12.667 -7.33301 28.834 -12.833 48.501 -16.5
s45.167 -5.5 76.5 -5.5h53v-84z" />
    <glyph glyph-name="guillemotright" unicode="&#xbb;" horiz-adv-x="495" 
d="M431 240l-125 -154h-76l125 154l-125 154h76zM261 240l-125 -154h-76l125 154l-125 154h76z" />
    <glyph glyph-name="onequarter" unicode="&#xbc;" horiz-adv-x="222" 
d="M165 587c0 -13.333 -3.66699 -24.666 -11 -33.999c-10 -12.667 -24 -19 -42 -19s-31.333 5.5 -40 16.5s-13 23.167 -13 36.5s3.66699 24.666 11 33.999c10 12.667 24 19 42 19s31.333 -5.5 40 -16.5s13 -23.167 13 -36.5zM156 -3c0 -61.333 -7.66699 -106 -23 -134
c-28.667 -52.667 -86 -79 -172 -79h-26v84h23c46.667 0 78 9.33301 94 28c11.333 13.333 17 35.333 17 66c0 6 -0.166992 12.167 -0.5 18.5s-0.5 12.5 -0.5 18.5v481h88v-483z" />
    <glyph glyph-name="onequarter" unicode="&#x458;" horiz-adv-x="222" 
d="M165 587c0 -13.333 -3.66699 -24.666 -11 -33.999c-10 -12.667 -24 -19 -42 -19s-31.333 5.5 -40 16.5s-13 23.167 -13 36.5s3.66699 24.666 11 33.999c10 12.667 24 19 42 19s31.333 -5.5 40 -16.5s13 -23.167 13 -36.5zM156 -3c0 -61.333 -7.66699 -106 -23 -134
c-28.667 -52.667 -86 -79 -172 -79h-26v84h23c46.667 0 78 9.33301 94 28c11.333 13.333 17 35.333 17 66c0 6 -0.166992 12.167 -0.5 18.5s-0.5 12.5 -0.5 18.5v481h88v-483z" />
    <glyph glyph-name="onehalf" unicode="&#xbd;" horiz-adv-x="503" 
d="M477 181c0 -36 -8.66406 -67.999 -25.9971 -95.999c-21.333 -35.333 -50 -59.333 -86 -72c-24.667 -8.66699 -58.334 -13 -101.001 -13h-238v88h229c34 0 61 4.33301 81 13c31.333 14 47 37.667 47 71c0 26 -8.5 48.5 -25.5 67.5s-59.167 44.5 -126.5 76.5
c-42.667 20 -73 35.333 -91 46c-33.333 20 -58.333 41.333 -75 64c-22.667 31.333 -34 65.333 -34 102c0 37.333 9 69.333 27 96c20.667 30.667 49.667 52 87 64c25.333 8 55.666 12 90.999 12h210v-88h-216c-25.333 0 -45 -1.83301 -59 -5.5s-26 -14.167 -36 -31.5
c-6.66699 -10.667 -10 -23 -10 -37c0 -20.667 5.33301 -38.334 16 -53.001c8 -11.333 21.5 -23 40.5 -35s47.5 -27 85.5 -45c44.667 -21.333 76 -37.333 94 -48c35.333 -21.333 61.666 -43.333 78.999 -66c24.667 -33.333 37 -70 37 -110z" />
    <glyph glyph-name="onehalf" unicode="&#x405;" horiz-adv-x="503" 
d="M477 181c0 -36 -8.66406 -67.999 -25.9971 -95.999c-21.333 -35.333 -50 -59.333 -86 -72c-24.667 -8.66699 -58.334 -13 -101.001 -13h-238v88h229c34 0 61 4.33301 81 13c31.333 14 47 37.667 47 71c0 26 -8.5 48.5 -25.5 67.5s-59.167 44.5 -126.5 76.5
c-42.667 20 -73 35.333 -91 46c-33.333 20 -58.333 41.333 -75 64c-22.667 31.333 -34 65.333 -34 102c0 37.333 9 69.333 27 96c20.667 30.667 49.667 52 87 64c25.333 8 55.666 12 90.999 12h210v-88h-216c-25.333 0 -45 -1.83301 -59 -5.5s-26 -14.167 -36 -31.5
c-6.66699 -10.667 -10 -23 -10 -37c0 -20.667 5.33301 -38.334 16 -53.001c8 -11.333 21.5 -23 40.5 -35s47.5 -27 85.5 -45c44.667 -21.333 76 -37.333 94 -48c35.333 -21.333 61.666 -43.333 78.999 -66c24.667 -33.333 37 -70 37 -110z" />
    <glyph glyph-name="threequarters" unicode="&#xbe;" horiz-adv-x="444" 
d="M423 134c0 -36 -9.99902 -65.334 -29.999 -88.001c-27.333 -30.667 -70 -46 -128 -46h-237v84h230c22 0 37.667 1.66699 47 5c17.333 6 26 19 26 39c0 22 -15.667 38.667 -47 50c-28 8.66699 -50.667 15.334 -68 20.001c-64.667 18.667 -107.334 34.334 -128.001 47.001
c-40 24.667 -60 59.667 -60 105c0 35.333 10 63.666 30 84.999c28 30 75.333 45 142 45h199v-84h-209c-21.333 0 -35.333 -1 -42 -3c-18.667 -5.33301 -28 -18.333 -28 -39c0 -18 11.667 -32 35 -42l76 -23c65.333 -19.333 108.333 -35 129 -47
c42 -24.667 63 -60.667 63 -108z" />
    <glyph glyph-name="threequarters" unicode="&#x455;" horiz-adv-x="444" 
d="M423 134c0 -36 -9.99902 -65.334 -29.999 -88.001c-27.333 -30.667 -70 -46 -128 -46h-237v84h230c22 0 37.667 1.66699 47 5c17.333 6 26 19 26 39c0 22 -15.667 38.667 -47 50c-28 8.66699 -50.667 15.334 -68 20.001c-64.667 18.667 -107.334 34.334 -128.001 47.001
c-40 24.667 -60 59.667 -60 105c0 35.333 10 63.666 30 84.999c28 30 75.333 45 142 45h199v-84h-209c-21.333 0 -35.333 -1 -42 -3c-18.667 -5.33301 -28 -18.333 -28 -39c0 -18 11.667 -32 35 -42l76 -23c65.333 -19.333 108.333 -35 129 -47
c42 -24.667 63 -60.667 63 -108z" />
    <glyph glyph-name="questiondown" unicode="&#xbf;" horiz-adv-x="250" 
d="M248 600c0 -16 -5.33301 -29.333 -16 -40s-24 -16 -40 -16s-29.333 5.33301 -40 16s-16 24 -16 40s5.33301 29.333 16 40s24 16 40 16s29.333 -5.33301 40 -16s16 -24 16 -40zM88 600c0 -16 -5.33301 -29.333 -16 -40s-24 -16 -40 -16s-29.333 5.33301 -40 16
s-16 24 -16 40s5.33301 29.333 16 40s24 16 40 16s29.333 -5.33301 40 -16s16 -24 16 -40zM153 0h-88v480h88v-480z" />
    <glyph glyph-name="questiondown" unicode="&#x457;" horiz-adv-x="250" 
d="M248 600c0 -16 -5.33301 -29.333 -16 -40s-24 -16 -40 -16s-29.333 5.33301 -40 16s-16 24 -16 40s5.33301 29.333 16 40s24 16 40 16s29.333 -5.33301 40 -16s16 -24 16 -40zM88 600c0 -16 -5.33301 -29.333 -16 -40s-24 -16 -40 -16s-29.333 5.33301 -40 16
s-16 24 -16 40s5.33301 29.333 16 40s24 16 40 16s29.333 -5.33301 40 -16s16 -24 16 -40zM153 0h-88v480h88v-480z" />
    <glyph glyph-name="Agrave" unicode="&#xc0;" horiz-adv-x="594" 
d="M536 0l-93.998 -0.000976562v318h-254v88h254v44c0 49.333 -13.333 90.333 -40 123s-61.667 49 -105 49c-40 0 -73.333 -14 -100 -42c-30 -31.333 -45 -74.666 -45 -129.999v-450h-94v452c0 70 21.333 129.667 64 179c45.333 52.667 103.666 79 174.999 79
s129.666 -26 174.999 -78c42.667 -49.333 64 -109.333 64 -180v-452z" />
    <glyph glyph-name="Agrave" unicode="&#x410;" horiz-adv-x="594" 
d="M536 0l-93.998 -0.000976562v318h-254v88h254v44c0 49.333 -13.333 90.333 -40 123s-61.667 49 -105 49c-40 0 -73.333 -14 -100 -42c-30 -31.333 -45 -74.666 -45 -129.999v-450h-94v452c0 70 21.333 129.667 64 179c45.333 52.667 103.666 79 174.999 79
s129.666 -26 174.999 -78c42.667 -49.333 64 -109.333 64 -180v-452z" />
    <glyph glyph-name="Aacute" unicode="&#xc1;" horiz-adv-x="578" 
d="M546 235c0 -72.667 -23.6631 -131.666 -70.9961 -176.999s-108.333 -68 -183 -68c-42.667 0 -81.334 8.66699 -116.001 26c-46 23.333 -78.333 56 -97 98c-14 31.333 -21 71.333 -21 120v466h409v-88h-315v-372c0 -34.667 3.66699 -61.334 11 -80.001
c11.333 -28.667 32.666 -51 63.999 -67c19.333 -10 42 -15 68 -15c22 0 42.667 3.16699 62 9.5s36.166 16 50.499 29s25.333 27.833 33 44.5s11.5 37 11.5 61c0 40 -13.333 72.667 -40 98s-61.334 38 -104.001 38c-40.667 0 -80.667 -9 -120 -27v89
c44.667 17.333 88 26 130 26c66 0 120.5 -19.5 163.5 -58.5s64.5 -89.833 64.5 -152.5z" />
    <glyph glyph-name="Aacute" unicode="&#x411;" horiz-adv-x="578" 
d="M546 235c0 -72.667 -23.6631 -131.666 -70.9961 -176.999s-108.333 -68 -183 -68c-42.667 0 -81.334 8.66699 -116.001 26c-46 23.333 -78.333 56 -97 98c-14 31.333 -21 71.333 -21 120v466h409v-88h-315v-372c0 -34.667 3.66699 -61.334 11 -80.001
c11.333 -28.667 32.666 -51 63.999 -67c19.333 -10 42 -15 68 -15c22 0 42.667 3.16699 62 9.5s36.166 16 50.499 29s25.333 27.833 33 44.5s11.5 37 11.5 61c0 40 -13.333 72.667 -40 98s-61.334 38 -104.001 38c-40.667 0 -80.667 -9 -120 -27v89
c44.667 17.333 88 26 130 26c66 0 120.5 -19.5 163.5 -58.5s64.5 -89.833 64.5 -152.5z" />
    <glyph glyph-name="Acircumflex" unicode="&#xc2;" horiz-adv-x="579" 
d="M539 198c0 -55.333 -16.666 -100.666 -49.999 -135.999c-39.333 -41.333 -98 -62 -176 -62h-125v88h120c36 0 63.333 4.33301 82 13c36.667 17.333 55 51.333 55 102c0 35.333 -11.667 63.333 -35 84s-54.333 31 -93 31h-129v88h94c36 0 66.833 9 92.5 27
s38.5 43.667 38.5 77s-12 60.333 -36 81s-53.667 31 -89 31c-37.333 0 -68.333 -11.667 -93 -35c-28.667 -26.667 -43 -64 -43 -112v-475h-94v477c0 68.667 21 124.667 63 168s95 65 159 65c72 0 129 -21 171 -63c37.333 -37.333 56 -82.333 56 -135
c0 -36.667 -7 -66.667 -21 -90c-10.667 -18.667 -27.334 -34.334 -50.001 -47.001c32.667 -16.667 58 -40.5 76 -71.5s27 -66.167 27 -105.5z" />
    <glyph glyph-name="Acircumflex" unicode="&#x412;" horiz-adv-x="579" 
d="M539 198c0 -55.333 -16.666 -100.666 -49.999 -135.999c-39.333 -41.333 -98 -62 -176 -62h-125v88h120c36 0 63.333 4.33301 82 13c36.667 17.333 55 51.333 55 102c0 35.333 -11.667 63.333 -35 84s-54.333 31 -93 31h-129v88h94c36 0 66.833 9 92.5 27
s38.5 43.667 38.5 77s-12 60.333 -36 81s-53.667 31 -89 31c-37.333 0 -68.333 -11.667 -93 -35c-28.667 -26.667 -43 -64 -43 -112v-475h-94v477c0 68.667 21 124.667 63 168s95 65 159 65c72 0 129 -21 171 -63c37.333 -37.333 56 -82.333 56 -135
c0 -36.667 -7 -66.667 -21 -90c-10.667 -18.667 -27.334 -34.334 -50.001 -47.001c32.667 -16.667 58 -40.5 76 -71.5s27 -66.167 27 -105.5z" />
    <glyph glyph-name="Atilde" unicode="&#xc3;" horiz-adv-x="451" 
d="M445 612h-138c-32 0 -56.833 -1.5 -74.5 -4.5s-33.667 -12 -48 -27s-23.333 -32.667 -27 -53s-5.5 -42.833 -5.5 -67.5v-460h-94v462c0 55.333 4.83301 96.833 14.5 124.5s24.5 50.5 44.5 68.5c23.333 20.667 54 34 92 40c20.667 3.33301 53 5 97 5h139v-88z" />
    <glyph glyph-name="Atilde" unicode="&#x413;" horiz-adv-x="451" 
d="M445 612h-138c-32 0 -56.833 -1.5 -74.5 -4.5s-33.667 -12 -48 -27s-23.333 -32.667 -27 -53s-5.5 -42.833 -5.5 -67.5v-460h-94v462c0 55.333 4.83301 96.833 14.5 124.5s24.5 50.5 44.5 68.5c23.333 20.667 54 34 92 40c20.667 3.33301 53 5 97 5h139v-88z" />
    <glyph glyph-name="Adieresis" unicode="&#xc4;" horiz-adv-x="674" 
d="M664 -142l-88.001 -0.00195312v142h-478v-142h-88v230h472v524h-40c-42.667 0 -76.334 -3.33301 -101.001 -10c-41.333 -11.333 -74.666 -32.333 -99.999 -63c-19.333 -24 -33 -54 -41 -90c-5.33301 -24.667 -8 -53 -8 -85v-240h-94v240c0 48 3 85.667 9 113
c10 46.667 30 87.334 60 122.001c36.667 42.667 83.334 71.334 140.001 86.001c38 10 88.667 15 152 15h117v-612h88v-230z" />
    <glyph glyph-name="Adieresis" unicode="&#x414;" horiz-adv-x="674" 
d="M664 -142l-88.001 -0.00195312v142h-478v-142h-88v230h472v524h-40c-42.667 0 -76.334 -3.33301 -101.001 -10c-41.333 -11.333 -74.666 -32.333 -99.999 -63c-19.333 -24 -33 -54 -41 -90c-5.33301 -24.667 -8 -53 -8 -85v-240h-94v240c0 48 3 85.667 9 113
c10 46.667 30 87.334 60 122.001c36.667 42.667 83.334 71.334 140.001 86.001c38 10 88.667 15 152 15h117v-612h88v-230z" />
    <glyph glyph-name="Aring" unicode="&#xc5;" horiz-adv-x="493" 
d="M457 0l-192.999 0.000976562c-37.333 0 -68 3.66699 -92 11c-34.667 10.667 -64.667 30.334 -90 59.001c-16.667 18.667 -28.5 38.5 -35.5 59.5s-10.5 44.167 -10.5 69.5c0 42.667 9.66699 79 29 109s46.333 52 81 66c-27.333 17.333 -48.666 39.5 -63.999 66.5
s-23 57.833 -23 92.5c0 27.333 5 52 15 74c8 17.333 18.667 32.333 32 45c21.333 20.667 45.166 33.834 71.499 39.501s59.166 8.5 98.499 8.5h181v-88h-165h-21c-21.333 0 -39.5 -1.83301 -54.5 -5.5s-28.5 -11.5 -40.5 -23.5
c-6.66699 -6.66699 -12.167 -15.167 -16.5 -25.5s-6.5 -22.833 -6.5 -37.5c0 -16 3.33301 -30.667 10 -44c13.333 -26.667 33.666 -44.334 60.999 -53.001c15.333 -4.66699 39.333 -7 72 -7h161v-88h-153c-32.667 0 -58.667 -1.5 -78 -4.5s-37.666 -11.5 -54.999 -25.5
c-11.333 -8.66699 -20.333 -19.334 -27 -32.001c-9.33301 -17.333 -14 -37.333 -14 -60c0 -20.667 4.33301 -39.334 13 -56.001c14 -25.333 34.667 -43 62 -53c17.333 -6 39 -9 65 -9h187v-88z" />
    <glyph glyph-name="Aring" unicode="&#x415;" horiz-adv-x="493" 
d="M457 0l-192.999 0.000976562c-37.333 0 -68 3.66699 -92 11c-34.667 10.667 -64.667 30.334 -90 59.001c-16.667 18.667 -28.5 38.5 -35.5 59.5s-10.5 44.167 -10.5 69.5c0 42.667 9.66699 79 29 109s46.333 52 81 66c-27.333 17.333 -48.666 39.5 -63.999 66.5
s-23 57.833 -23 92.5c0 27.333 5 52 15 74c8 17.333 18.667 32.333 32 45c21.333 20.667 45.166 33.834 71.499 39.501s59.166 8.5 98.499 8.5h181v-88h-165h-21c-21.333 0 -39.5 -1.83301 -54.5 -5.5s-28.5 -11.5 -40.5 -23.5
c-6.66699 -6.66699 -12.167 -15.167 -16.5 -25.5s-6.5 -22.833 -6.5 -37.5c0 -16 3.33301 -30.667 10 -44c13.333 -26.667 33.666 -44.334 60.999 -53.001c15.333 -4.66699 39.333 -7 72 -7h161v-88h-153c-32.667 0 -58.667 -1.5 -78 -4.5s-37.666 -11.5 -54.999 -25.5
c-11.333 -8.66699 -20.333 -19.334 -27 -32.001c-9.33301 -17.333 -14 -37.333 -14 -60c0 -20.667 4.33301 -39.334 13 -56.001c14 -25.333 34.667 -43 62 -53c17.333 -6 39 -9 65 -9h187v-88z" />
    <glyph glyph-name="AE" unicode="&#xc6;" horiz-adv-x="874" 
d="M836 700l-91.002 -216.002c-12 -28.667 -22.333 -48.667 -31 -60c-12.667 -17.333 -31.334 -31.333 -56.001 -42c66.667 -9.33301 113 -42.666 139 -99.999c15.333 -34 23 -75.667 23 -125v-157h-94v168c0 36 -7 65.667 -21 89c-24 40.667 -66.333 61 -127 61h-94v-318
h-94v318h-97c-59.333 0 -100.666 -19.667 -123.999 -59c-14 -23.333 -21 -53.666 -21 -90.999v-168h-94v157c0 50 7.33301 91.333 22 124c26 58 72.667 91.667 140 101c-22.667 10 -41 24 -55 42c-9.33301 12.667 -20 32.667 -32 60l-91 216h98l65 -161
c8 -18.667 16 -35.667 24 -51c10.667 -19.333 20.667 -34.333 30 -45c14 -15.333 28.833 -25.333 44.5 -30s31.834 -7 48.501 -7h42v294h94v-294h42c18.667 0 33.334 1.66699 44.001 5c18 5.33301 34.333 16 49 32c8.66699 9.33301 18.167 23.5 28.5 42.5
s18.833 36.833 25.5 53.5l65 161h98z" />
    <glyph glyph-name="AE" unicode="&#x416;" horiz-adv-x="874" 
d="M836 700l-91.002 -216.002c-12 -28.667 -22.333 -48.667 -31 -60c-12.667 -17.333 -31.334 -31.333 -56.001 -42c66.667 -9.33301 113 -42.666 139 -99.999c15.333 -34 23 -75.667 23 -125v-157h-94v168c0 36 -7 65.667 -21 89c-24 40.667 -66.333 61 -127 61h-94v-318
h-94v318h-97c-59.333 0 -100.666 -19.667 -123.999 -59c-14 -23.333 -21 -53.666 -21 -90.999v-168h-94v157c0 50 7.33301 91.333 22 124c26 58 72.667 91.667 140 101c-22.667 10 -41 24 -55 42c-9.33301 12.667 -20 32.667 -32 60l-91 216h98l65 -161
c8 -18.667 16 -35.667 24 -51c10.667 -19.333 20.667 -34.333 30 -45c14 -15.333 28.833 -25.333 44.5 -30s31.834 -7 48.501 -7h42v294h94v-294h42c18.667 0 33.334 1.66699 44.001 5c18 5.33301 34.333 16 49 32c8.66699 9.33301 18.167 23.5 28.5 42.5
s18.833 36.833 25.5 53.5l65 161h98z" />
    <glyph glyph-name="Ccedilla" unicode="&#xc7;" horiz-adv-x="493" 
d="M457 199c0 -24.667 -3.50098 -47.666 -10.501 -68.999s-18.833 -41.333 -35.5 -60c-26.667 -30.667 -59.667 -51 -99 -61c-23.333 -6 -56.666 -9 -99.999 -9h-176v88h173c34.667 0 60.334 2.66699 77.001 8c28 8.66699 49.333 27 64 55c8.66699 16.667 13 35 13 55
s-3.66699 37.667 -11 53s-17.333 28.333 -30 39c-16.667 13.333 -35.667 21.666 -57 24.999s-46.666 5 -75.999 5h-117v88h125c34 0 57.667 2 71 6c28 8 48.667 26 62 54c6.66699 13.333 10 28 10 44c0 14 -2.16699 26.333 -6.5 37s-9.83301 19.334 -16.5 26.001
c-12 12.667 -25.833 20.667 -41.5 24s-36.167 5 -61.5 5h-178v88h177c53.333 0 90.833 -3.33301 112.5 -10s42.167 -19.334 61.5 -38.001c14 -13.333 24.667 -28 32 -44c10 -22 15 -47 15 -75c0 -33.333 -7.83301 -63.833 -23.5 -91.5s-36.834 -50.167 -63.501 -67.5
c23.333 -9.33301 43.333 -22.333 60 -39c13.333 -14 23.666 -28.833 30.999 -44.5s12.333 -30.667 15 -45s4 -29.833 4 -46.5z" />
    <glyph glyph-name="Ccedilla" unicode="&#x417;" horiz-adv-x="493" 
d="M457 199c0 -24.667 -3.50098 -47.666 -10.501 -68.999s-18.833 -41.333 -35.5 -60c-26.667 -30.667 -59.667 -51 -99 -61c-23.333 -6 -56.666 -9 -99.999 -9h-176v88h173c34.667 0 60.334 2.66699 77.001 8c28 8.66699 49.333 27 64 55c8.66699 16.667 13 35 13 55
s-3.66699 37.667 -11 53s-17.333 28.333 -30 39c-16.667 13.333 -35.667 21.666 -57 24.999s-46.666 5 -75.999 5h-117v88h125c34 0 57.667 2 71 6c28 8 48.667 26 62 54c6.66699 13.333 10 28 10 44c0 14 -2.16699 26.333 -6.5 37s-9.83301 19.334 -16.5 26.001
c-12 12.667 -25.833 20.667 -41.5 24s-36.167 5 -61.5 5h-178v88h177c53.333 0 90.833 -3.33301 112.5 -10s42.167 -19.334 61.5 -38.001c14 -13.333 24.667 -28 32 -44c10 -22 15 -47 15 -75c0 -33.333 -7.83301 -63.833 -23.5 -91.5s-36.834 -50.167 -63.501 -67.5
c23.333 -9.33301 43.333 -22.333 60 -39c13.333 -14 23.666 -28.833 30.999 -44.5s12.333 -30.667 15 -45s4 -29.833 4 -46.5z" />
    <glyph glyph-name="Egrave" unicode="&#xc8;" horiz-adv-x="624" 
d="M566 0l-93.998 -0.000976562v546c0 12.667 -2.66699 19 -8 19c-4.66699 0 -11.667 -9.66699 -21 -29l-11 -22l-205 -431c-15.333 -32.667 -28.333 -54.667 -39 -66c-16 -18 -36 -27 -60 -27c-28 0 -47.333 10.667 -58 32c-8 16 -12 41.667 -12 77v601h94l-1 -548v-12
c1.33301 -4.66699 4 -7 8 -7s14 17 30 51l205 433c15.333 32.667 30.666 56.334 45.999 71.001s33.666 22 54.999 22c26.667 0 45.667 -10.667 57 -32c9.33301 -18 14 -43.667 14 -77v-601z" />
    <glyph glyph-name="Egrave" unicode="&#x418;" horiz-adv-x="624" 
d="M566 0l-93.998 -0.000976562v546c0 12.667 -2.66699 19 -8 19c-4.66699 0 -11.667 -9.66699 -21 -29l-11 -22l-205 -431c-15.333 -32.667 -28.333 -54.667 -39 -66c-16 -18 -36 -27 -60 -27c-28 0 -47.333 10.667 -58 32c-8 16 -12 41.667 -12 77v601h94l-1 -548v-12
c1.33301 -4.66699 4 -7 8 -7s14 17 30 51l205 433c15.333 32.667 30.666 56.334 45.999 71.001s33.666 22 54.999 22c26.667 0 45.667 -10.667 57 -32c9.33301 -18 14 -43.667 14 -77v-601z" />
    <glyph glyph-name="Eacute" unicode="&#xc9;" horiz-adv-x="624" 
d="M479 847c-4.66699 -40.667 -22 -72.667 -52 -96s-67.333 -35 -112 -35c-44 0 -81.167 11.833 -111.5 35.5s-47.833 55.5 -52.5 95.5h70c8.66699 -47.333 40 -71 94 -71c25.333 0 46.333 6.33301 63 19s27 30 31 52h70zM566 0l-93.999 -0.00195312v546
c0 12.667 -2.66699 19 -8 19c-4.66699 0 -11.667 -9.66699 -21 -29l-11 -22l-205 -431c-16 -33.333 -31.167 -57.166 -45.5 -71.499s-32.166 -21.5 -53.499 -21.5c-24 0 -41.667 8.16699 -53 24.5s-17 44.5 -17 84.5v601h94l-1 -548v-12c1.33301 -4.66699 4 -7 8 -7
s14 17 30 51l205 433c15.333 32.667 30.666 56.334 45.999 71.001s33.666 22 54.999 22c29.333 0 49.333 -12.333 60 -37c7.33301 -17.333 11 -41.333 11 -72v-601z" />
    <glyph glyph-name="Eacute" unicode="&#x419;" horiz-adv-x="624" 
d="M479 847c-4.66699 -40.667 -22 -72.667 -52 -96s-67.333 -35 -112 -35c-44 0 -81.167 11.833 -111.5 35.5s-47.833 55.5 -52.5 95.5h70c8.66699 -47.333 40 -71 94 -71c25.333 0 46.333 6.33301 63 19s27 30 31 52h70zM566 0l-93.999 -0.00195312v546
c0 12.667 -2.66699 19 -8 19c-4.66699 0 -11.667 -9.66699 -21 -29l-11 -22l-205 -431c-16 -33.333 -31.167 -57.166 -45.5 -71.499s-32.166 -21.5 -53.499 -21.5c-24 0 -41.667 8.16699 -53 24.5s-17 44.5 -17 84.5v601h94l-1 -548v-12c1.33301 -4.66699 4 -7 8 -7
s14 17 30 51l205 433c15.333 32.667 30.666 56.334 45.999 71.001s33.666 22 54.999 22c29.333 0 49.333 -12.333 60 -37c7.33301 -17.333 11 -41.333 11 -72v-601z" />
    <glyph glyph-name="Ecircumflex" unicode="&#xca;" horiz-adv-x="576" 
d="M540 700l-78.001 -171c-19.333 -42 -34.666 -71.667 -45.999 -89c-13.333 -20.667 -30 -38 -50 -52c38 -8 68.333 -24.667 91 -50c32.667 -36.667 49 -89.667 49 -159v-179h-94v180c0 38 -5.33301 66.667 -16 86c-18.667 34.667 -54 52 -106 52h-138v-318h-94v700h94
v-294h63c29.333 0 53 5.66699 71 17c22.667 14 42.667 40.333 60 79l89 198h105z" />
    <glyph glyph-name="Ecircumflex" unicode="&#x41a;" horiz-adv-x="576" 
d="M540 700l-78.001 -171c-19.333 -42 -34.666 -71.667 -45.999 -89c-13.333 -20.667 -30 -38 -50 -52c38 -8 68.333 -24.667 91 -50c32.667 -36.667 49 -89.667 49 -159v-179h-94v180c0 38 -5.33301 66.667 -16 86c-18.667 34.667 -54 52 -106 52h-138v-318h-94v700h94
v-294h63c29.333 0 53 5.66699 71 17c22.667 14 42.667 40.333 60 79l89 198h105z" />
    <glyph glyph-name="Edieresis" unicode="&#xcb;" horiz-adv-x="604" 
d="M546 0l-94 -0.000976562v612h-46c-38.667 0 -70.667 -3.33301 -96 -10c-42.667 -11.333 -76.667 -32.666 -102 -63.999c-18.667 -23.333 -31.167 -50.333 -37.5 -81s-9.5 -63.667 -9.5 -99v-358h-171v88h77v270c0 51.333 4.33301 93.666 13 126.999
c11.333 44 32.333 83 63 117c36.667 40.667 80 68.334 130 83.001c34 10 77.667 15 131 15h142v-700z" />
    <glyph glyph-name="Edieresis" unicode="&#x41b;" horiz-adv-x="604" 
d="M546 0l-94 -0.000976562v612h-46c-38.667 0 -70.667 -3.33301 -96 -10c-42.667 -11.333 -76.667 -32.666 -102 -63.999c-18.667 -23.333 -31.167 -50.333 -37.5 -81s-9.5 -63.667 -9.5 -99v-358h-171v88h77v270c0 51.333 4.33301 93.666 13 126.999
c11.333 44 32.333 83 63 117c36.667 40.667 80 68.334 130 83.001c34 10 77.667 15 131 15h142v-700z" />
    <glyph glyph-name="Igrave" unicode="&#xcc;" horiz-adv-x="786" 
d="M782 0l-97.999 0.000976562l-69 568l-150 -496c-8.66699 -28.667 -16.667 -48 -24 -58c-11.333 -16 -27.333 -24 -48 -24c-20 0 -35.667 8 -47 24c-8 11.333 -16.333 30.666 -25 57.999l-150 496l-69 -568h-98l77 611c3.33301 28 9.33301 49 18 63c14 24 35.667 36 65 36
c25.333 0 45.333 -10.333 60 -31c9.33301 -12.667 18.666 -34.667 27.999 -66l141 -463l141 463c12 39.333 24.667 65.333 38 78s30 19 50 19c29.333 0 51 -11.667 65 -35c8 -14 14 -35.333 18 -64z" />
    <glyph glyph-name="Igrave" unicode="&#x41c;" horiz-adv-x="786" 
d="M782 0l-97.999 0.000976562l-69 568l-150 -496c-8.66699 -28.667 -16.667 -48 -24 -58c-11.333 -16 -27.333 -24 -48 -24c-20 0 -35.667 8 -47 24c-8 11.333 -16.333 30.666 -25 57.999l-150 496l-69 -568h-98l77 611c3.33301 28 9.33301 49 18 63c14 24 35.667 36 65 36
c25.333 0 45.333 -10.333 60 -31c9.33301 -12.667 18.666 -34.667 27.999 -66l141 -463l141 463c12 39.333 24.667 65.333 38 78s30 19 50 19c29.333 0 51 -11.667 65 -35c8 -14 14 -35.333 18 -64z" />
    <glyph glyph-name="Iacute" unicode="&#xcd;" horiz-adv-x="608" 
d="M550 0h-94v318h-304v-318h-94v700h94v-294h304v294h94v-700z" />
    <glyph glyph-name="Iacute" unicode="&#x41d;" horiz-adv-x="608" 
d="M550 0h-94v318h-304v-318h-94v700h94v-294h304v294h94v-700z" />
    <glyph glyph-name="Icircumflex" unicode="&#xce;" horiz-adv-x="800" 
d="M764 350c0 -99.333 -36.167 -184.166 -108.5 -254.499s-157.5 -105.5 -255.5 -105.5s-183.167 35.167 -255.5 105.5s-108.5 155.166 -108.5 254.499s36.167 184.166 108.5 254.499s157.5 105.5 255.5 105.5s183.167 -35.167 255.5 -105.5s108.5 -155.166 108.5 -254.499z
M666 350c0 74.667 -25.5 138.667 -76.5 192s-114.167 80 -189.5 80s-138.5 -26.667 -189.5 -80s-76.5 -117.333 -76.5 -192s25.5 -138.667 76.5 -192s114.167 -80 189.5 -80s138.5 26.667 189.5 80s76.5 117.333 76.5 192z" />
    <glyph glyph-name="Icircumflex" unicode="&#x41e;" horiz-adv-x="800" 
d="M764 350c0 -99.333 -36.167 -184.166 -108.5 -254.499s-157.5 -105.5 -255.5 -105.5s-183.167 35.167 -255.5 105.5s-108.5 155.166 -108.5 254.499s36.167 184.166 108.5 254.499s157.5 105.5 255.5 105.5s183.167 -35.167 255.5 -105.5s108.5 -155.166 108.5 -254.499z
M666 350c0 74.667 -25.5 138.667 -76.5 192s-114.167 80 -189.5 80s-138.5 -26.667 -189.5 -80s-76.5 -117.333 -76.5 -192s25.5 -138.667 76.5 -192s114.167 -80 189.5 -80s138.5 26.667 189.5 80s76.5 117.333 76.5 192z" />
    <glyph glyph-name="Idieresis" unicode="&#xcf;" horiz-adv-x="608" 
d="M550 0h-94v612h-304v-612h-94v700h492v-700z" />
    <glyph glyph-name="Idieresis" unicode="&#x41f;" horiz-adv-x="608" 
d="M550 0h-94v612h-304v-612h-94v700h492v-700z" />
    <glyph glyph-name="Eth" unicode="&#xd0;" horiz-adv-x="560" 
d="M524 474c0 -40.667 -8.66797 -77.335 -26.001 -110.002c-24.667 -46 -59.667 -77 -105 -93c-29.333 -10.667 -70 -16 -122 -16h-83v88h94c44.667 0 79.834 12.167 105.501 36.5s38.5 56.5 38.5 96.5c0 40.667 -11 74.334 -33 101.001c-25.333 30 -60 45 -104 45
c-42.667 0 -76.167 -14.5 -100.5 -43.5s-36.5 -67.167 -36.5 -114.5v-464h-94v460c0 78.667 21 140 63 184s98.333 66 169 66c74 0 132.333 -23.333 175 -70c39.333 -43.333 59 -98.666 59 -165.999z" />
    <glyph glyph-name="Eth" unicode="&#x420;" horiz-adv-x="560" 
d="M524 474c0 -40.667 -8.66797 -77.335 -26.001 -110.002c-24.667 -46 -59.667 -77 -105 -93c-29.333 -10.667 -70 -16 -122 -16h-83v88h94c44.667 0 79.834 12.167 105.501 36.5s38.5 56.5 38.5 96.5c0 40.667 -11 74.334 -33 101.001c-25.333 30 -60 45 -104 45
c-42.667 0 -76.167 -14.5 -100.5 -43.5s-36.5 -67.167 -36.5 -114.5v-464h-94v460c0 78.667 21 140 63 184s98.333 66 169 66c74 0 132.333 -23.333 175 -70c39.333 -43.333 59 -98.666 59 -165.999z" />
    <glyph glyph-name="Ntilde" unicode="&#xd1;" horiz-adv-x="502" 
d="M476 0h-64.999c-66 -0 -121 8.33301 -165 25c-67.333 25.333 -121 71.333 -161 138c-16 26.667 -28.167 56.334 -36.5 89.001s-12.5 65.334 -12.5 98.001c0 67.333 17 127.666 51 180.999c28 44 65.333 80.333 112 109c31.333 20 66.333 35 105 45s78 15 118 15h54v-88
h-66c-58.667 0 -111 -14.667 -157 -44c-38.667 -24.667 -68.167 -56 -88.5 -94s-30.5 -79.333 -30.5 -124c0 -28.667 3.5 -56 10.5 -82s18.167 -50.333 33.5 -73c28.667 -42.667 65 -72.334 109 -89.001c31.333 -12 68.666 -18 111.999 -18h77v-88z" />
    <glyph glyph-name="Ntilde" unicode="&#x421;" horiz-adv-x="502" 
d="M476 0h-64.999c-66 -0 -121 8.33301 -165 25c-67.333 25.333 -121 71.333 -161 138c-16 26.667 -28.167 56.334 -36.5 89.001s-12.5 65.334 -12.5 98.001c0 67.333 17 127.666 51 180.999c28 44 65.333 80.333 112 109c31.333 20 66.333 35 105 45s78 15 118 15h54v-88
h-66c-58.667 0 -111 -14.667 -157 -44c-38.667 -24.667 -68.167 -56 -88.5 -94s-30.5 -79.333 -30.5 -124c0 -28.667 3.5 -56 10.5 -82s18.167 -50.333 33.5 -73c28.667 -42.667 65 -72.334 109 -89.001c31.333 -12 68.666 -18 111.999 -18h77v-88z" />
    <glyph glyph-name="Ograve" unicode="&#xd2;" horiz-adv-x="436" 
d="M439 612h-174v-612h-94v612h-174v88h442v-88z" />
    <glyph glyph-name="Ograve" unicode="&#x422;" horiz-adv-x="436" 
d="M439 612h-174v-612h-94v612h-174v88h442v-88z" />
    <glyph glyph-name="Oacute" unicode="&#xd3;" horiz-adv-x="605" 
d="M417 261h-99c-34.667 0 -62 1.33301 -82 4c-34.667 4.66699 -63.667 14 -87 28c-38 22.667 -64 56 -78 100c-8.66699 27.333 -13 62.333 -13 105v201h94v-218c0 -22.667 2.83301 -43 8.5 -61s18.167 -33.667 37.5 -47c14 -10 30.333 -16.5 49 -19.5s41.667 -4.5 69 -4.5
h101v-88zM547 257c0 -50.667 -3.33496 -88.332 -10.002 -112.999c-11.333 -40.667 -35 -74 -71 -100c-26.667 -18.667 -58.334 -31.334 -95.001 -38.001c-23.333 -4 -56.666 -6 -99.999 -6h-171v88h171c38.667 0 67.334 2 86.001 6s34.334 10 47.001 18
c20.667 14 34.667 33.333 42 58c4.66699 16 7 36.667 7 62v467h94v-442z" />
    <glyph glyph-name="Oacute" unicode="&#x423;" horiz-adv-x="605" 
d="M417 261h-99c-34.667 0 -62 1.33301 -82 4c-34.667 4.66699 -63.667 14 -87 28c-38 22.667 -64 56 -78 100c-8.66699 27.333 -13 62.333 -13 105v201h94v-218c0 -22.667 2.83301 -43 8.5 -61s18.167 -33.667 37.5 -47c14 -10 30.333 -16.5 49 -19.5s41.667 -4.5 69 -4.5
h101v-88zM547 257c0 -50.667 -3.33496 -88.332 -10.002 -112.999c-11.333 -40.667 -35 -74 -71 -100c-26.667 -18.667 -58.334 -31.334 -95.001 -38.001c-23.333 -4 -56.666 -6 -99.999 -6h-171v88h171c38.667 0 67.334 2 86.001 6s34.334 10 47.001 18
c20.667 14 34.667 33.333 42 58c4.66699 16 7 36.667 7 62v467h94v-442z" />
    <glyph glyph-name="Ocircumflex" unicode="&#xd4;" horiz-adv-x="860" 
d="M824 378c0 -82 -25.999 -153.331 -77.999 -213.998c-59.333 -69.333 -137.333 -104 -234 -104v94c64 0 116.333 23.333 157 70c38 43.333 57 94.666 57 153.999c0 62.667 -21.667 115.667 -65 159c-46 46 -105.667 69 -179 69h-5v-633h-94v87h-12
c-96.667 0 -176.667 30.667 -240 92s-95 137 -95 227c0 81.333 26.333 152.666 79 213.999c59.333 69.333 136.666 104 231.999 104v-94c-64 0 -116.333 -23.667 -157 -71c-37.333 -43.333 -56 -94.333 -56 -153c0 -63.333 21 -116.333 63 -159
c45.333 -46 105.333 -69 180 -69h6v630h94v-84h10c99.333 0 180.333 -30.667 243 -92s94 -137 94 -227z" />
    <glyph glyph-name="Ocircumflex" unicode="&#x424;" horiz-adv-x="860" 
d="M824 378c0 -82 -25.999 -153.331 -77.999 -213.998c-59.333 -69.333 -137.333 -104 -234 -104v94c64 0 116.333 23.333 157 70c38 43.333 57 94.666 57 153.999c0 62.667 -21.667 115.667 -65 159c-46 46 -105.667 69 -179 69h-5v-633h-94v87h-12
c-96.667 0 -176.667 30.667 -240 92s-95 137 -95 227c0 81.333 26.333 152.666 79 213.999c59.333 69.333 136.666 104 231.999 104v-94c-64 0 -116.333 -23.667 -157 -71c-37.333 -43.333 -56 -94.333 -56 -153c0 -63.333 21 -116.333 63 -159
c45.333 -46 105.333 -69 180 -69h6v630h94v-84h10c99.333 0 180.333 -30.667 243 -92s94 -137 94 -227z" />
    <glyph glyph-name="Otilde" unicode="&#xd5;" 
d="M550 0c-60 0 -114.667 16.333 -164 49c-54 36 -90.333 86.333 -109 151c-18.667 -64.667 -55 -115 -109 -151c-48.667 -32.667 -103.334 -49 -164.001 -49v88c38 0 72.333 8.33301 103 25c44 24 77.667 63.667 101 119c8 18 13.667 36.833 17 56.5s5 40.167 5 61.5
s-1.66699 41.666 -5 60.999s-9 38.333 -17 57c-23.333 56 -56.666 95.667 -99.999 119c-30.667 16.667 -65.334 25 -104.001 25v88c60 0 114.667 -16.333 164 -49c54 -36 90.333 -86.333 109 -151c18.667 64.667 55 115 109 151c48.667 32.667 103.334 49 164.001 49v-88
c-38 0 -72.333 -8.33301 -103 -25c-44 -24 -77.667 -63.667 -101 -119c-8 -18 -13.667 -36.833 -17 -56.5s-5 -40.167 -5 -61.5s1.66699 -41.666 5 -60.999s9 -38.333 17 -57c23.333 -56 56.666 -95.667 99.999 -119c30.667 -16.667 65.334 -25 104.001 -25v-88z" />
    <glyph glyph-name="Otilde" unicode="&#x425;" 
d="M550 0c-60 0 -114.667 16.333 -164 49c-54 36 -90.333 86.333 -109 151c-18.667 -64.667 -55 -115 -109 -151c-48.667 -32.667 -103.334 -49 -164.001 -49v88c38 0 72.333 8.33301 103 25c44 24 77.667 63.667 101 119c8 18 13.667 36.833 17 56.5s5 40.167 5 61.5
s-1.66699 41.666 -5 60.999s-9 38.333 -17 57c-23.333 56 -56.666 95.667 -99.999 119c-30.667 16.667 -65.334 25 -104.001 25v88c60 0 114.667 -16.333 164 -49c54 -36 90.333 -86.333 109 -151c18.667 64.667 55 115 109 151c48.667 32.667 103.334 49 164.001 49v-88
c-38 0 -72.333 -8.33301 -103 -25c-44 -24 -77.667 -63.667 -101 -119c-8 -18 -13.667 -36.833 -17 -56.5s-5 -40.167 -5 -61.5s1.66699 -41.666 5 -60.999s9 -38.333 17 -57c23.333 -56 56.666 -95.667 99.999 -119c30.667 -16.667 65.334 -25 104.001 -25v-88z" />
    <glyph glyph-name="Odieresis" unicode="&#xd6;" horiz-adv-x="648" 
d="M550 124h-94v576h94v-576zM638 -142l-88.0029 0.000976562v142h-242c-41.333 0 -72.666 2.33301 -93.999 7c-35.333 8 -65.666 23.667 -90.999 47s-42.5 50.166 -51.5 80.499s-13.5 65.5 -13.5 105.5v460h94v-446c0 -30 1 -50.667 3 -62
c4.66699 -26.667 14.834 -48.5 30.501 -65.5s35.5 -28.167 59.5 -33.5c14.667 -3.33301 38.667 -5 72 -5h321v-230z" />
    <glyph glyph-name="Odieresis" unicode="&#x426;" horiz-adv-x="648" 
d="M550 124h-94v576h94v-576zM638 -142l-88.0029 0.000976562v142h-242c-41.333 0 -72.666 2.33301 -93.999 7c-35.333 8 -65.666 23.667 -90.999 47s-42.5 50.166 -51.5 80.499s-13.5 65.5 -13.5 105.5v460h94v-446c0 -30 1 -50.667 3 -62
c4.66699 -26.667 14.834 -48.5 30.501 -65.5s35.5 -28.167 59.5 -33.5c14.667 -3.33301 38.667 -5 72 -5h321v-230z" />
    <glyph glyph-name="multiply" unicode="&#xd7;" horiz-adv-x="581" 
d="M523 0l-94.001 -0.00195312v260h-122h-18c-31.333 0 -58.166 1.33301 -80.499 4s-44.5 9.33398 -66.5 20.001c-41.333 20 -70.666 51.667 -87.999 95c-12 30.667 -18 67.334 -18 110.001v211h94v-212c0 -26 2.33301 -46.667 7 -62c7.33301 -24 20.666 -42.667 39.999 -56
c14 -9.33301 31.667 -15.333 53 -18s45.333 -4 72 -4h127v352h94v-700z" />
    <glyph glyph-name="multiply" unicode="&#x427;" horiz-adv-x="581" 
d="M523 0l-94.001 -0.00195312v260h-122h-18c-31.333 0 -58.166 1.33301 -80.499 4s-44.5 9.33398 -66.5 20.001c-41.333 20 -70.666 51.667 -87.999 95c-12 30.667 -18 67.334 -18 110.001v211h94v-212c0 -26 2.33301 -46.667 7 -62c7.33301 -24 20.666 -42.667 39.999 -56
c14 -9.33301 31.667 -15.333 53 -18s45.333 -4 72 -4h127v352h94v-700z" />
    <glyph glyph-name="Oslash" unicode="&#xd8;" horiz-adv-x="906" 
d="M500 124h-94v576h94v-576zM848 0l-544.001 -0.000976562c-41.333 0 -72.666 2.33301 -93.999 7c-35.333 8 -65.5 23.667 -90.5 47s-42.167 54.333 -51.5 93c-6.66699 26.667 -10 61 -10 103v450h94v-454c0 -29.333 1 -49.666 3 -60.999
c4.66699 -26 14.667 -46.5 30 -61.5s35.333 -25.167 60 -30.5c15.333 -3.33301 37 -5 65 -5h444v612h94v-700z" />
    <glyph glyph-name="Oslash" unicode="&#x428;" horiz-adv-x="906" 
d="M500 124h-94v576h94v-576zM848 0l-544.001 -0.000976562c-41.333 0 -72.666 2.33301 -93.999 7c-35.333 8 -65.5 23.667 -90.5 47s-42.167 54.333 -51.5 93c-6.66699 26.667 -10 61 -10 103v450h94v-454c0 -29.333 1 -49.666 3 -60.999
c4.66699 -26 14.667 -46.5 30 -61.5s35.333 -25.167 60 -30.5c15.333 -3.33301 37 -5 65 -5h444v612h94v-700z" />
    <glyph glyph-name="Ugrave" unicode="&#xd9;" horiz-adv-x="946" 
d="M848 124h-94v576h94v-576zM500 124h-94v576h94v-576zM936 -142l-87.998 -0.00195312v142h-528c-46 0 -81 2.33301 -105 7c-37.333 7.33301 -68.5 22.5 -93.5 45.5s-42.5 53.167 -52.5 90.5c-7.33301 26.667 -11 57.334 -11 92.001v465h94v-453
c0 -29.333 1 -49.666 3 -60.999c4.66699 -27.333 14.667 -48.5 30 -63.5s34.166 -24.5 56.499 -28.5s48.166 -6 77.499 -6h617v-230z" />
    <glyph glyph-name="Ugrave" unicode="&#x429;" horiz-adv-x="946" 
d="M848 124h-94v576h94v-576zM500 124h-94v576h94v-576zM936 -142l-87.998 -0.00195312v142h-528c-46 0 -81 2.33301 -105 7c-37.333 7.33301 -68.5 22.5 -93.5 45.5s-42.5 53.167 -52.5 90.5c-7.33301 26.667 -11 57.334 -11 92.001v465h94v-453
c0 -29.333 1 -49.666 3 -60.999c4.66699 -27.333 14.667 -48.5 30 -63.5s34.166 -24.5 56.499 -28.5s48.166 -6 77.499 -6h617v-230z" />
    <glyph glyph-name="Uacute" unicode="&#xda;" horiz-adv-x="668" 
d="M632 240c0 -68 -20.665 -124.999 -61.998 -170.999c-47.333 -52.667 -112.333 -79 -195 -79c-33.333 0 -61 3.33301 -83 10c-28.667 8.66699 -54.667 24 -78 46c-29.333 26.667 -50 59.334 -62 98.001c-9.33301 30 -14 65 -14 105v363h-148v88h242v-450
c0 -30.667 1.66699 -53 5 -67c6 -26.667 19 -49.334 39 -68.001c14 -13.333 30 -22.833 48 -28.5s37 -8.5 57 -8.5c47.333 0 84.666 12.667 111.999 38c30 28 45 68 45 120c0 47.333 -13 85 -39 113s-62 42 -108 42c-16.667 0 -35.667 -2.16699 -57 -6.5
s-43.333 -13.5 -66 -27.5v96c34 12 57.667 19.333 71 22s29.666 4 48.999 4c78 0 139.333 -25 184 -75c40 -44.667 60 -99.334 60 -164.001z" />
    <glyph glyph-name="Uacute" unicode="&#x42a;" horiz-adv-x="668" 
d="M632 240c0 -68 -20.665 -124.999 -61.998 -170.999c-47.333 -52.667 -112.333 -79 -195 -79c-33.333 0 -61 3.33301 -83 10c-28.667 8.66699 -54.667 24 -78 46c-29.333 26.667 -50 59.334 -62 98.001c-9.33301 30 -14 65 -14 105v363h-148v88h242v-450
c0 -30.667 1.66699 -53 5 -67c6 -26.667 19 -49.334 39 -68.001c14 -13.333 30 -22.833 48 -28.5s37 -8.5 57 -8.5c47.333 0 84.666 12.667 111.999 38c30 28 45 68 45 120c0 47.333 -13 85 -39 113s-62 42 -108 42c-16.667 0 -35.667 -2.16699 -57 -6.5
s-43.333 -13.5 -66 -27.5v96c34 12 57.667 19.333 71 22s29.666 4 48.999 4c78 0 139.333 -25 184 -75c40 -44.667 60 -99.334 60 -164.001z" />
    <glyph glyph-name="Ucircumflex" unicode="&#xdb;" horiz-adv-x="765" 
d="M707 0h-94v700h94v-700zM553 240c0 -52.667 -13.5029 -99.998 -40.5029 -141.998s-64.167 -72 -111.5 -90c-18 -6.66699 -35.667 -11.334 -53 -14.001s-36 -4 -56 -4c-31.333 0 -58 3.33301 -80 10c-29.333 8.66699 -56 24 -80 46c-28 26 -48 57.667 -60 95
c-9.33301 30 -14 65 -14 105v454h94v-453c0 -31.333 1.33301 -53 4 -65c6 -26.667 19.333 -49.334 40 -68.001c12.667 -11.333 26.834 -20.166 42.501 -26.499s33.834 -9.5 54.501 -9.5c17.333 0 32.333 1.16699 45 3.5s26 6.83301 40 13.5
c24.667 12 44.334 29.5 59.001 52.5s22 52.5 22 88.5c0 46 -14 83.333 -42 112s-65 43 -111 43c-20 0 -39.167 -2.83301 -57.5 -8.5s-38.5 -14.167 -60.5 -25.5v96c34 12 57.667 19.333 71 22s29.666 4 48.999 4c78.667 0 140.334 -25 185.001 -75
c40 -44.667 60 -99.334 60 -164.001z" />
    <glyph glyph-name="Ucircumflex" unicode="&#x42b;" horiz-adv-x="765" 
d="M707 0h-94v700h94v-700zM553 240c0 -52.667 -13.5029 -99.998 -40.5029 -141.998s-64.167 -72 -111.5 -90c-18 -6.66699 -35.667 -11.334 -53 -14.001s-36 -4 -56 -4c-31.333 0 -58 3.33301 -80 10c-29.333 8.66699 -56 24 -80 46c-28 26 -48 57.667 -60 95
c-9.33301 30 -14 65 -14 105v454h94v-453c0 -31.333 1.33301 -53 4 -65c6 -26.667 19.333 -49.334 40 -68.001c12.667 -11.333 26.834 -20.166 42.501 -26.499s33.834 -9.5 54.501 -9.5c17.333 0 32.333 1.16699 45 3.5s26 6.83301 40 13.5
c24.667 12 44.334 29.5 59.001 52.5s22 52.5 22 88.5c0 46 -14 83.333 -42 112s-65 43 -111 43c-20 0 -39.167 -2.83301 -57.5 -8.5s-38.5 -14.167 -60.5 -25.5v96c34 12 57.667 19.333 71 22s29.666 4 48.999 4c78.667 0 140.334 -25 185.001 -75
c40 -44.667 60 -99.334 60 -164.001z" />
    <glyph glyph-name="Udieresis" unicode="&#xdc;" horiz-adv-x="589" 
d="M553 240c0 -52.667 -13.5 -99.998 -40.5 -141.998s-64.167 -72 -111.5 -90c-16.667 -6.66699 -33.5 -11.334 -50.5 -14.001s-35.167 -4 -54.5 -4c-20.667 0 -37 0.833008 -49 2.5s-26 5.16699 -42 10.5c-59.333 20 -101 59 -125 117c-14.667 35.333 -22 77 -22 125v455
h94v-453c0 -36 4 -64.667 12 -86c14 -36 40.333 -60.667 79 -74c18 -6 36.667 -9 56 -9c29.333 0 55.5 5.5 78.5 16.5s41.167 26.167 54.5 45.5c18 25.333 27 56.666 27 93.999c0 46 -14 83.667 -42 113s-65 44 -111 44c-20 0 -39.167 -2.83301 -57.5 -8.5
s-38.5 -14.167 -60.5 -25.5v96l47 16c22 6.66699 46.667 10 74 10c78 0 139.333 -24.667 184 -74c40 -44 60 -99 60 -165z" />
    <glyph glyph-name="Udieresis" unicode="&#x42c;" horiz-adv-x="589" 
d="M553 240c0 -52.667 -13.5 -99.998 -40.5 -141.998s-64.167 -72 -111.5 -90c-16.667 -6.66699 -33.5 -11.334 -50.5 -14.001s-35.167 -4 -54.5 -4c-20.667 0 -37 0.833008 -49 2.5s-26 5.16699 -42 10.5c-59.333 20 -101 59 -125 117c-14.667 35.333 -22 77 -22 125v455
h94v-453c0 -36 4 -64.667 12 -86c14 -36 40.333 -60.667 79 -74c18 -6 36.667 -9 56 -9c29.333 0 55.5 5.5 78.5 16.5s41.167 26.167 54.5 45.5c18 25.333 27 56.666 27 93.999c0 46 -14 83.667 -42 113s-65 44 -111 44c-20 0 -39.167 -2.83301 -57.5 -8.5
s-38.5 -14.167 -60.5 -25.5v96l47 16c22 6.66699 46.667 10 74 10c78 0 139.333 -24.667 184 -74c40 -44 60 -99 60 -165z" />
    <glyph glyph-name="Yacute" unicode="&#xdd;" horiz-adv-x="508" 
d="M472 350c0 -92 -30.334 -171 -91.001 -237c-69.333 -75.333 -163 -113 -281 -113h-64v88h79c70.667 0 129.834 21.333 177.501 64s74.834 98 81.501 166h-338v88h338c-8 54.667 -37.167 102.667 -87.5 144s-107.5 62 -171.5 62h-79v88h64
c117.333 0 210.666 -37.333 279.999 -112c61.333 -66 92 -145.333 92 -238z" />
    <glyph glyph-name="Yacute" unicode="&#x42d;" horiz-adv-x="508" 
d="M472 350c0 -92 -30.334 -171 -91.001 -237c-69.333 -75.333 -163 -113 -281 -113h-64v88h79c70.667 0 129.834 21.333 177.501 64s74.834 98 81.501 166h-338v88h338c-8 54.667 -37.167 102.667 -87.5 144s-107.5 62 -171.5 62h-79v88h64
c117.333 0 210.666 -37.333 279.999 -112c61.333 -66 92 -145.333 92 -238z" />
    <glyph glyph-name="Thorn" unicode="&#xde;" horiz-adv-x="1007" 
d="M971 350c0 -101.333 -35.6699 -186.669 -107.003 -256.002s-156.333 -104 -255 -104c-93.333 0 -174 29.333 -242 88c-70 60.667 -111.333 140.667 -124 240h-91v-318h-94v700h94v-294h194c-2.66699 -16.667 -4.16699 -28.167 -4.5 -34.5s-0.5 -11.5 -0.5 -15.5
c0 -70 22.333 -132.333 67 -187c50 -60.667 113.667 -91 191 -91c78.667 0 144 26.333 196 79s78 115.334 78 188.001c0 78.667 -26.167 144.5 -78.5 197.5s-115.833 79.5 -190.5 79.5c-53.333 0 -102.666 -15 -147.999 -45c-49.333 -32.667 -83.666 -77.667 -102.999 -135
h-94c22 78 65.167 142.167 129.5 192.5s137.5 75.5 219.5 75.5c98.667 0 183.834 -35.167 255.501 -105.5s107.5 -155.166 107.5 -254.499z" />
    <glyph glyph-name="Thorn" unicode="&#x42e;" horiz-adv-x="1007" 
d="M971 350c0 -101.333 -35.6699 -186.669 -107.003 -256.002s-156.333 -104 -255 -104c-93.333 0 -174 29.333 -242 88c-70 60.667 -111.333 140.667 -124 240h-91v-318h-94v700h94v-294h194c-2.66699 -16.667 -4.16699 -28.167 -4.5 -34.5s-0.5 -11.5 -0.5 -15.5
c0 -70 22.333 -132.333 67 -187c50 -60.667 113.667 -91 191 -91c78.667 0 144 26.333 196 79s78 115.334 78 188.001c0 78.667 -26.167 144.5 -78.5 197.5s-115.833 79.5 -190.5 79.5c-53.333 0 -102.666 -15 -147.999 -45c-49.333 -32.667 -83.666 -77.667 -102.999 -135
h-94c22 78 65.167 142.167 129.5 192.5s137.5 75.5 219.5 75.5c98.667 0 183.834 -35.167 255.501 -105.5s107.5 -155.166 107.5 -254.499z" />
    <glyph glyph-name="germandbls" unicode="&#xdf;" horiz-adv-x="553" 
d="M495 0l-94.001 0.00195312v455c0 34 -3.33301 61 -10 81c-11.333 34.667 -33 59.334 -65 74.001c-8.66699 4 -18.667 7 -30 9s-22.333 3 -33 3c-22.667 0 -44.667 -5 -66 -15c-16.667 -8 -31 -19.333 -43 -34c-16 -20 -24 -43.333 -24 -70c0 -36 10.333 -65 31 -87
c28 -30 74.333 -45 139 -45h65v-88h-62c-24.667 0 -49.167 -3.83301 -73.5 -11.5s-43.833 -18.834 -58.5 -33.501s-24.167 -31.334 -28.5 -50.001s-6.5 -40.667 -6.5 -66v-122h-94v122c0 50.667 4.66699 87.667 14 111c16.667 42 51 71.333 103 88
c-40 14 -70.5 37.5 -91.5 70.5s-31.5 68.5 -31.5 106.5c0 45.333 12.333 85 37 119c22.667 31.333 53 55.333 91 72c16 7.33301 33.333 12.666 52 15.999s37.667 5 57 5c23.333 0 44.833 -2.33301 64.5 -7s38.834 -13 57.501 -25c40 -24.667 68 -60 84 -106
c10.667 -30.667 16 -69.667 16 -117v-455z" />
    <glyph glyph-name="germandbls" unicode="&#x42f;" horiz-adv-x="553" 
d="M495 0l-94.001 0.00195312v455c0 34 -3.33301 61 -10 81c-11.333 34.667 -33 59.334 -65 74.001c-8.66699 4 -18.667 7 -30 9s-22.333 3 -33 3c-22.667 0 -44.667 -5 -66 -15c-16.667 -8 -31 -19.333 -43 -34c-16 -20 -24 -43.333 -24 -70c0 -36 10.333 -65 31 -87
c28 -30 74.333 -45 139 -45h65v-88h-62c-24.667 0 -49.167 -3.83301 -73.5 -11.5s-43.833 -18.834 -58.5 -33.501s-24.167 -31.334 -28.5 -50.001s-6.5 -40.667 -6.5 -66v-122h-94v122c0 50.667 4.66699 87.667 14 111c16.667 42 51 71.333 103 88
c-40 14 -70.5 37.5 -91.5 70.5s-31.5 68.5 -31.5 106.5c0 45.333 12.333 85 37 119c22.667 31.333 53 55.333 91 72c16 7.33301 33.333 12.666 52 15.999s37.667 5 57 5c23.333 0 44.833 -2.33301 64.5 -7s38.834 -13 57.501 -25c40 -24.667 68 -60 84 -106
c10.667 -30.667 16 -69.667 16 -117v-455z" />
    <glyph glyph-name="agrave" unicode="&#xe0;" horiz-adv-x="572" 
d="M532 0l-87.999 -0.000976562v215c0 72 -19 124 -57 156c-27.333 23.333 -63 35 -107 35c-46.667 0 -85.667 -15 -117 -45s-47 -70.667 -47 -122c0 -55.333 18.667 -98 56 -128c30.667 -24.667 67.334 -37 110.001 -37c24 0 46.167 4.5 66.5 13.5s40.166 22.5 59.499 40.5
v-92c-38.667 -30.667 -85 -46 -139 -46c-68.667 0 -126.334 22.333 -173.001 67s-70 103.334 -70 176.001c0 76 24.833 137.833 74.5 185.5s110.5 71.5 182.5 71.5c70 0 127 -21 171 -63c52 -49.333 78 -121 78 -215v-212z" />
    <glyph glyph-name="agrave" unicode="&#x430;" horiz-adv-x="572" 
d="M532 0l-87.999 -0.000976562v215c0 72 -19 124 -57 156c-27.333 23.333 -63 35 -107 35c-46.667 0 -85.667 -15 -117 -45s-47 -70.667 -47 -122c0 -55.333 18.667 -98 56 -128c30.667 -24.667 67.334 -37 110.001 -37c24 0 46.167 4.5 66.5 13.5s40.166 22.5 59.499 40.5
v-92c-38.667 -30.667 -85 -46 -139 -46c-68.667 0 -126.334 22.333 -173.001 67s-70 103.334 -70 176.001c0 76 24.833 137.833 74.5 185.5s110.5 71.5 182.5 71.5c70 0 127 -21 171 -63c52 -49.333 78 -121 78 -215v-212z" />
    <glyph glyph-name="aacute" unicode="&#xe1;" horiz-adv-x="580" 
d="M542 245c0 -45.333 -10.3291 -87.1689 -30.9961 -125.502s-47.334 -68.166 -80.001 -89.499c-20 -13.333 -42.167 -23.333 -66.5 -30s-49.5 -10 -75.5 -10c-37.333 0 -72 7 -104 21c-22.667 10 -43 23 -61 39c-36.667 33.333 -61 75.666 -73 126.999
c-7.33301 31.333 -11 73.333 -11 126v67c0 102.667 21.667 181 65 235c33.333 42 80 70 140 84c31.333 7.33301 74 11 128 11h124v-84h-118c-76.667 0 -132 -9.33301 -166 -28c-56.667 -31.333 -85 -93.333 -85 -186v-94c0 -55.333 4.66699 -97.666 14 -126.999
c14.667 -47.333 43.667 -79.333 87 -96c18.667 -7.33301 38 -11 58 -11c32.667 0 61.667 7.5 87 22.5s44.666 35.5 57.999 61.5s20 53.667 20 83c0 36.667 -8.66699 68.667 -26 96c-14 22.667 -32.333 39.667 -55 51c-12 6.66699 -25 11.334 -39 14.001s-28.333 4 -43 4
c-21.333 0 -42.833 -4.5 -64.5 -13.5s-41.834 -22.167 -60.501 -39.5v93c19.333 14 40.5 24.833 63.5 32.5s46.167 11.5 69.5 11.5s43.666 -1.83301 60.999 -5.5s35.333 -10.167 54 -19.5c40 -20 71.667 -49.667 95 -89s35 -83 35 -131z" />
    <glyph glyph-name="aacute" unicode="&#x431;" horiz-adv-x="580" 
d="M542 245c0 -45.333 -10.3291 -87.1689 -30.9961 -125.502s-47.334 -68.166 -80.001 -89.499c-20 -13.333 -42.167 -23.333 -66.5 -30s-49.5 -10 -75.5 -10c-37.333 0 -72 7 -104 21c-22.667 10 -43 23 -61 39c-36.667 33.333 -61 75.666 -73 126.999
c-7.33301 31.333 -11 73.333 -11 126v67c0 102.667 21.667 181 65 235c33.333 42 80 70 140 84c31.333 7.33301 74 11 128 11h124v-84h-118c-76.667 0 -132 -9.33301 -166 -28c-56.667 -31.333 -85 -93.333 -85 -186v-94c0 -55.333 4.66699 -97.666 14 -126.999
c14.667 -47.333 43.667 -79.333 87 -96c18.667 -7.33301 38 -11 58 -11c32.667 0 61.667 7.5 87 22.5s44.666 35.5 57.999 61.5s20 53.667 20 83c0 36.667 -8.66699 68.667 -26 96c-14 22.667 -32.333 39.667 -55 51c-12 6.66699 -25 11.334 -39 14.001s-28.333 4 -43 4
c-21.333 0 -42.833 -4.5 -64.5 -13.5s-41.834 -22.167 -60.501 -39.5v93c19.333 14 40.5 24.833 63.5 32.5s46.167 11.5 69.5 11.5s43.666 -1.83301 60.999 -5.5s35.333 -10.167 54 -19.5c40 -20 71.667 -49.667 95 -89s35 -83 35 -131z" />
    <glyph glyph-name="acircumflex" unicode="&#xe2;" horiz-adv-x="489" 
d="M463 131c0 -22 -5.33008 -42.332 -15.9971 -60.999c-17.333 -30 -42 -50 -74 -60c-20.667 -6.66699 -52.334 -10 -95.001 -10h-114v84h111c30 0 51.333 2.33301 64 7c22.667 8.66699 34 25.334 34 50.001c0 27.333 -12.667 45.666 -38 54.999
c-16.667 6 -43.334 9 -80.001 9h-91v80h75c39.333 0 66.333 4.16699 81 12.5s22 22.5 22 42.5c0 22 -8.5 38.5 -25.5 49.5s-38.833 16.5 -65.5 16.5c-38.667 0 -68.834 -10.5 -90.501 -31.5s-32.5 -50.833 -32.5 -89.5v-285h-88v304c0 58 20 103.5 60 136.5
s88.667 49.5 146 49.5c58 0 103.5 -13.667 136.5 -41s49.5 -60.666 49.5 -99.999c0 -22.667 -6 -42.334 -18 -59.001s-28 -29.667 -48 -39c28.667 -6.66699 52 -20.834 70 -42.501s27 -47.5 27 -77.5z" />
    <glyph glyph-name="acircumflex" unicode="&#x432;" horiz-adv-x="489" 
d="M463 131c0 -22 -5.33008 -42.332 -15.9971 -60.999c-17.333 -30 -42 -50 -74 -60c-20.667 -6.66699 -52.334 -10 -95.001 -10h-114v84h111c30 0 51.333 2.33301 64 7c22.667 8.66699 34 25.334 34 50.001c0 27.333 -12.667 45.666 -38 54.999
c-16.667 6 -43.334 9 -80.001 9h-91v80h75c39.333 0 66.333 4.16699 81 12.5s22 22.5 22 42.5c0 22 -8.5 38.5 -25.5 49.5s-38.833 16.5 -65.5 16.5c-38.667 0 -68.834 -10.5 -90.501 -31.5s-32.5 -50.833 -32.5 -89.5v-285h-88v304c0 58 20 103.5 60 136.5
s88.667 49.5 146 49.5c58 0 103.5 -13.667 136.5 -41s49.5 -60.666 49.5 -99.999c0 -22.667 -6 -42.334 -18 -59.001s-28 -29.667 -48 -39c28.667 -6.66699 52 -20.834 70 -42.501s27 -47.5 27 -77.5z" />
    <glyph glyph-name="atilde" unicode="&#xe3;" horiz-adv-x="331" 
d="M349 396h-118.999c-20.667 0 -37.167 -1.5 -49.5 -4.5s-23 -10 -32 -21s-14.667 -23.833 -17 -38.5s-3.5 -30.667 -3.5 -48v-11v-273h-88v273c0 33.333 1.66699 59 5 77c6 34 18.833 61.5 38.5 82.5s45.167 34.833 76.5 41.5c19.333 4 48.666 6 87.999 6h101v-84z" />
    <glyph glyph-name="atilde" unicode="&#x433;" horiz-adv-x="331" 
d="M349 396h-118.999c-20.667 0 -37.167 -1.5 -49.5 -4.5s-23 -10 -32 -21s-14.667 -23.833 -17 -38.5s-3.5 -30.667 -3.5 -48v-11v-273h-88v273c0 33.333 1.66699 59 5 77c6 34 18.833 61.5 38.5 82.5s45.167 34.833 76.5 41.5c19.333 4 48.666 6 87.999 6h101v-84z" />
    <glyph glyph-name="adieresis" unicode="&#xe4;" horiz-adv-x="572" 
d="M532 47c0 -46 -3.99707 -83.3311 -11.9971 -111.998c-10.667 -37.333 -30.334 -70 -59.001 -98c-19.333 -18.667 -41.333 -33.334 -66 -44.001c-32.667 -14 -70.334 -21 -113.001 -21c-20 0 -42.5 1.83301 -67.5 5.5s-55.5 11.167 -91.5 22.5l21 80
c27.333 -7.33301 51.833 -13.166 73.5 -17.499s41.5 -6.5 59.5 -6.5c52 0 91.667 12 119 36c32 28 48 72.667 48 134v165c0 44.667 -3.66699 79 -11 103c-14 45.333 -41 77.666 -81 96.999c-21.333 10 -44.333 15 -69 15c-47.333 0 -87 -15.667 -119 -47
s-48 -72.333 -48 -123c0 -46.667 13.667 -85.334 41 -116.001s64.666 -46 111.999 -46c54.667 0 101 18 139 54v-92c-40 -30.667 -83.667 -46 -131 -46c-65.333 0 -121.333 19 -168 57c-55.333 44.667 -83 107.667 -83 189c0 74 25.167 134.833 75.5 182.5
s110.833 71.5 181.5 71.5c34 0 65.667 -5.33301 95 -16c44 -16 78.667 -43.333 104 -82c33.333 -50.667 50 -117.667 50 -201v-144z" />
    <glyph glyph-name="adieresis" unicode="&#x434;" horiz-adv-x="572" 
d="M532 47c0 -46 -3.99707 -83.3311 -11.9971 -111.998c-10.667 -37.333 -30.334 -70 -59.001 -98c-19.333 -18.667 -41.333 -33.334 -66 -44.001c-32.667 -14 -70.334 -21 -113.001 -21c-20 0 -42.5 1.83301 -67.5 5.5s-55.5 11.167 -91.5 22.5l21 80
c27.333 -7.33301 51.833 -13.166 73.5 -17.499s41.5 -6.5 59.5 -6.5c52 0 91.667 12 119 36c32 28 48 72.667 48 134v165c0 44.667 -3.66699 79 -11 103c-14 45.333 -41 77.666 -81 96.999c-21.333 10 -44.333 15 -69 15c-47.333 0 -87 -15.667 -119 -47
s-48 -72.333 -48 -123c0 -46.667 13.667 -85.334 41 -116.001s64.666 -46 111.999 -46c54.667 0 101 18 139 54v-92c-40 -30.667 -83.667 -46 -131 -46c-65.333 0 -121.333 19 -168 57c-55.333 44.667 -83 107.667 -83 189c0 74 25.167 134.833 75.5 182.5
s110.833 71.5 181.5 71.5c34 0 65.667 -5.33301 95 -16c44 -16 78.667 -43.333 104 -82c33.333 -50.667 50 -117.667 50 -201v-144z" />
    <glyph glyph-name="aring" unicode="&#xe5;" horiz-adv-x="551" 
d="M525 213c-4.66699 -50.667 -21.3311 -94.332 -49.998 -130.999c-18.667 -24 -42.334 -44 -71.001 -60c-18 -10.667 -38.333 -18.667 -61 -24s-45.334 -8 -68.001 -8c-38.667 0 -76 8.66699 -112 26c-42 20.667 -75.333 50.5 -100 89.5s-37 83.833 -37 134.5
c0 71.333 23.833 130.833 71.5 178.5s106.834 71.5 177.501 71.5c49.333 0 94.5 -12.667 135.5 -38s73.167 -63.333 96.5 -114l-324 -180l-36 70l237 132c-16 17.333 -33.667 29.333 -53 36s-38.666 10 -57.999 10c-46.667 0 -84.5 -15.5 -113.5 -46.5
s-43.5 -70.833 -43.5 -119.5c0 -32.667 6.66699 -61.334 20 -86.001s30.666 -43.667 51.999 -57c12 -7.33301 25.333 -13 40 -17s29.667 -6 45 -6c18 0 34.167 1.5 48.5 4.5s28.5 8.5 42.5 16.5c21.333 12.667 38.666 30.5 51.999 53.5s20 48.167 20 75.5z" />
    <glyph glyph-name="aring" unicode="&#x435;" horiz-adv-x="551" 
d="M525 213c-4.66699 -50.667 -21.3311 -94.332 -49.998 -130.999c-18.667 -24 -42.334 -44 -71.001 -60c-18 -10.667 -38.333 -18.667 -61 -24s-45.334 -8 -68.001 -8c-38.667 0 -76 8.66699 -112 26c-42 20.667 -75.333 50.5 -100 89.5s-37 83.833 -37 134.5
c0 71.333 23.833 130.833 71.5 178.5s106.834 71.5 177.501 71.5c49.333 0 94.5 -12.667 135.5 -38s73.167 -63.333 96.5 -114l-324 -180l-36 70l237 132c-16 17.333 -33.667 29.333 -53 36s-38.666 10 -57.999 10c-46.667 0 -84.5 -15.5 -113.5 -46.5
s-43.5 -70.833 -43.5 -119.5c0 -32.667 6.66699 -61.334 20 -86.001s30.666 -43.667 51.999 -57c12 -7.33301 25.333 -13 40 -17s29.667 -6 45 -6c18 0 34.167 1.5 48.5 4.5s28.5 8.5 42.5 16.5c21.333 12.667 38.666 30.5 51.999 53.5s20 48.167 20 75.5z" />
    <glyph glyph-name="ae" unicode="&#xe6;" horiz-adv-x="676" 
d="M646 480l-59.9971 -111.999c-22 -40.667 -34.667 -63.334 -38 -68.001c-11.333 -14.667 -25.333 -28 -42 -40c20.667 -2 39.667 -7.83301 57 -17.5s31.666 -21.834 42.999 -36.501s18.666 -31.334 21.999 -50.001s5 -40.667 5 -66v-24v-66h-88v73
c0 44 -4.33301 74 -13 90c-15.333 28 -48.666 42 -99.999 42h-50v-205h-88v205h-50c-51.333 0 -84.666 -13.667 -99.999 -41c-8.66699 -15.333 -13 -45.666 -13 -90.999v-73h-88v66v26c0 25.333 1.66699 47 5 65s10.666 34.333 21.999 49s25.666 26.834 42.999 36.501
s36.333 15.5 57 17.5c-16 11.333 -29.667 24.333 -41 39c-4 5.33301 -17 28.333 -39 69l-60 112h94l48 -93c19.333 -36.667 37.666 -62.667 54.999 -78c15.333 -13.333 31 -20 47 -20h20v191h88v-191h20c15.333 0 30.666 6.66699 45.999 20
c18.667 16.667 37.334 42.667 56.001 78l48 93h94z" />
    <glyph glyph-name="ae" unicode="&#x436;" horiz-adv-x="676" 
d="M646 480l-59.9971 -111.999c-22 -40.667 -34.667 -63.334 -38 -68.001c-11.333 -14.667 -25.333 -28 -42 -40c20.667 -2 39.667 -7.83301 57 -17.5s31.666 -21.834 42.999 -36.501s18.666 -31.334 21.999 -50.001s5 -40.667 5 -66v-24v-66h-88v73
c0 44 -4.33301 74 -13 90c-15.333 28 -48.666 42 -99.999 42h-50v-205h-88v205h-50c-51.333 0 -84.666 -13.667 -99.999 -41c-8.66699 -15.333 -13 -45.666 -13 -90.999v-73h-88v66v26c0 25.333 1.66699 47 5 65s10.666 34.333 21.999 49s25.666 26.834 42.999 36.501
s36.333 15.5 57 17.5c-16 11.333 -29.667 24.333 -41 39c-4 5.33301 -17 28.333 -39 69l-60 112h94l48 -93c19.333 -36.667 37.666 -62.667 54.999 -78c15.333 -13.333 31 -20 47 -20h20v191h88v-191h20c15.333 0 30.666 6.66699 45.999 20
c18.667 16.667 37.334 42.667 56.001 78l48 93h94z" />
    <glyph glyph-name="ccedilla" unicode="&#xe7;" horiz-adv-x="407" 
d="M377 135c0 -28 -7.33105 -52.666 -21.998 -73.999c-18.667 -26.667 -44 -44.334 -76 -53.001c-20 -5.33301 -52 -8 -96 -8h-153v84h156c27.333 0 47.666 1.66699 60.999 5s24 11.666 32 24.999c5.33301 9.33301 8 19.333 8 30c0 12 -2 21.667 -6 29
c-8 14.667 -20.833 23.834 -38.5 27.501s-41.167 5.5 -70.5 5.5h-106v84h106h13c21.333 0 36 1 44 3c14.667 4 25.667 12.333 33 25c4 6.66699 6 16 6 28c0 7.33301 -1.33301 13.666 -4 18.999c-6.66699 16 -18.667 25.167 -36 27.5s-35 3.5 -53 3.5h-145v84h141
c45.333 0 75.666 -1.66699 90.999 -5c33.333 -7.33301 59 -24.333 77 -51c12.667 -19.333 19 -40 19 -62c0 -16.667 -3.16699 -32 -9.5 -46s-12.833 -25 -19.5 -33c-9.33301 -11.333 -21.333 -21 -36 -29c12.667 -3.33301 24 -8.66602 34 -15.999
c15.333 -10.667 27.5 -25.5 36.5 -44.5s13.5 -38.5 13.5 -58.5z" />
    <glyph glyph-name="ccedilla" unicode="&#x437;" horiz-adv-x="407" 
d="M377 135c0 -28 -7.33105 -52.666 -21.998 -73.999c-18.667 -26.667 -44 -44.334 -76 -53.001c-20 -5.33301 -52 -8 -96 -8h-153v84h156c27.333 0 47.666 1.66699 60.999 5s24 11.666 32 24.999c5.33301 9.33301 8 19.333 8 30c0 12 -2 21.667 -6 29
c-8 14.667 -20.833 23.834 -38.5 27.501s-41.167 5.5 -70.5 5.5h-106v84h106h13c21.333 0 36 1 44 3c14.667 4 25.667 12.333 33 25c4 6.66699 6 16 6 28c0 7.33301 -1.33301 13.666 -4 18.999c-6.66699 16 -18.667 25.167 -36 27.5s-35 3.5 -53 3.5h-145v84h141
c45.333 0 75.666 -1.66699 90.999 -5c33.333 -7.33301 59 -24.333 77 -51c12.667 -19.333 19 -40 19 -62c0 -16.667 -3.16699 -32 -9.5 -46s-12.833 -25 -19.5 -33c-9.33301 -11.333 -21.333 -21 -36 -29c12.667 -3.33301 24 -8.66602 34 -15.999
c15.333 -10.667 27.5 -25.5 36.5 -44.5s13.5 -38.5 13.5 -58.5z" />
    <glyph glyph-name="egrave" unicode="&#xe8;" horiz-adv-x="496" 
d="M456 0l-87.999 0.000976562v336v16l-3 -1l-17 -28l-174 -257l-34 -51c-14 -16.667 -30 -25 -48 -25c-22 0 -37 8.66699 -45 26c-4.66699 10 -7 23.333 -7 40v424h88v-339v-16l3 1l17 28l173 260c21.333 32.667 32.666 49.667 33.999 51c14 16.667 30.333 25 49 25
c17.333 0 30.333 -5.33301 39 -16s13 -25.334 13 -44.001v-430z" />
    <glyph glyph-name="egrave" unicode="&#x438;" horiz-adv-x="496" 
d="M456 0l-87.999 0.000976562v336v16l-3 -1l-17 -28l-174 -257l-34 -51c-14 -16.667 -30 -25 -48 -25c-22 0 -37 8.66699 -45 26c-4.66699 10 -7 23.333 -7 40v424h88v-339v-16l3 1l17 28l173 260c21.333 32.667 32.666 49.667 33.999 51c14 16.667 30.333 25 49 25
c17.333 0 30.333 -5.33301 39 -16s13 -25.334 13 -44.001v-430z" />
    <glyph glyph-name="eacute" unicode="&#xe9;" horiz-adv-x="496" 
d="M406 681c-8 -38 -26 -68 -54 -90s-63 -33 -105 -33c-42.667 0 -77.834 10.667 -105.501 32s-45.5 51.666 -53.5 90.999h71c4.66699 -21.333 15.167 -37.666 31.5 -48.999s35.166 -17 56.499 -17c20.667 0 39.334 5.5 56.001 16.5s27.334 27.5 32.001 49.5h71zM456 0h-88
v336v16l-3 -1l-17 -28l-174 -257l-34 -51c-14 -16.667 -30 -25 -48 -25s-31.167 5.83301 -39.5 17.5s-12.5 30.5 -12.5 56.5v416h88v-339v-16l3 1l17 28l173 260l35 51c14 16.667 30 25 48 25s31.167 -5.83301 39.5 -17.5s12.5 -30.5 12.5 -56.5v-416z" />
    <glyph glyph-name="eacute" unicode="&#x439;" horiz-adv-x="496" 
d="M406 681c-8 -38 -26 -68 -54 -90s-63 -33 -105 -33c-42.667 0 -77.834 10.667 -105.501 32s-45.5 51.666 -53.5 90.999h71c4.66699 -21.333 15.167 -37.666 31.5 -48.999s35.166 -17 56.499 -17c20.667 0 39.334 5.5 56.001 16.5s27.334 27.5 32.001 49.5h71zM456 0h-88
v336v16l-3 -1l-17 -28l-174 -257l-34 -51c-14 -16.667 -30 -25 -48 -25s-31.167 5.83301 -39.5 17.5s-12.5 30.5 -12.5 56.5v416h88v-339v-16l3 1l17 28l173 260l35 51c14 16.667 30 25 48 25s31.167 -5.83301 39.5 -17.5s12.5 -30.5 12.5 -56.5v-416z" />
    <glyph glyph-name="ecircumflex" unicode="&#xea;" horiz-adv-x="458" 
d="M428 480l-52.002 -98.999l-33 -64c-13.333 -22 -30.666 -41 -51.999 -57c20.667 -2.66699 39.334 -9 56.001 -19s29.667 -21.667 39 -35c12.667 -16.667 20.667 -35.5 24 -56.5s5 -46.833 5 -77.5v-72h-88v73c0 37.333 -5 65.666 -15 84.999c-16 31.333 -46 47 -90 47
h-94v-205h-88v480h88v-191h56c34 0 68 32.667 102 98l48 93h94z" />
    <glyph glyph-name="ecircumflex" unicode="&#x43a;" horiz-adv-x="458" 
d="M428 480l-52.002 -98.999l-33 -64c-13.333 -22 -30.666 -41 -51.999 -57c20.667 -2.66699 39.334 -9 56.001 -19s29.667 -21.667 39 -35c12.667 -16.667 20.667 -35.5 24 -56.5s5 -46.833 5 -77.5v-72h-88v73c0 37.333 -5 65.666 -15 84.999c-16 31.333 -46 47 -90 47
h-94v-205h-88v480h88v-191h56c34 0 68 32.667 102 98l48 93h94z" />
    <glyph glyph-name="edieresis" unicode="&#xeb;" horiz-adv-x="467" 
d="M427 0l-88.001 0.000976562v396h-14c-28.667 0 -49.667 -1.33301 -63 -4c-25.333 -5.33301 -48 -16 -68 -32c-25.333 -20.667 -42 -47.334 -50 -80.001c-5.33301 -20.667 -8 -49 -8 -85v-195h-146v84h62v111c0 50 4.33301 89.333 13 118c14.667 48 43.334 87 86.001 117
c28 19.333 61 32.5 99 39.5s78.333 10.5 121 10.5h56v-480z" />
    <glyph glyph-name="edieresis" unicode="&#x43b;" horiz-adv-x="467" 
d="M427 0l-88.001 0.000976562v396h-14c-28.667 0 -49.667 -1.33301 -63 -4c-25.333 -5.33301 -48 -16 -68 -32c-25.333 -20.667 -42 -47.334 -50 -80.001c-5.33301 -20.667 -8 -49 -8 -85v-195h-146v84h62v111c0 50 4.33301 89.333 13 118c14.667 48 43.334 87 86.001 117
c28 19.333 61 32.5 99 39.5s78.333 10.5 121 10.5h56v-480z" />
    <glyph glyph-name="igrave" unicode="&#xec;" horiz-adv-x="642" 
d="M638 0h-94l-59 369l-2 8l-1 -3c-2 -4.66699 -3.83301 -10.667 -5.5 -18s-3.16699 -12.666 -4.5 -15.999l-86 -267c-10.667 -32.667 -19.667 -54 -27 -64c-9.33301 -12.667 -22 -19 -38 -19s-28.667 6 -38 18s-19 33.667 -29 65l-84 266
c-2 7.33301 -3.66699 13.833 -5 19.5s-3 10.834 -5 15.501l-1 3l-2 -8l-59 -369h-94l80 417c3.33301 20 9 35.667 17 47c12 17.333 28.333 26 49 26s36.667 -6.66699 48 -20c7.33301 -8.66699 14.333 -23.334 21 -44.001l73 -236l13 -48l11 -38
c0.666992 -3.33301 1.5 -5.83301 2.5 -7.5s1.83301 -2.83398 2.5 -3.50098l4 10l22 85l76 238c8.66699 26.667 18 44 28 52s23.667 12 41 12c20.667 0 37 -8.66699 49 -26c8 -11.333 13.667 -27 17 -47z" />
    <glyph glyph-name="igrave" unicode="&#x43c;" horiz-adv-x="642" 
d="M638 0h-94l-59 369l-2 8l-1 -3c-2 -4.66699 -3.83301 -10.667 -5.5 -18s-3.16699 -12.666 -4.5 -15.999l-86 -267c-10.667 -32.667 -19.667 -54 -27 -64c-9.33301 -12.667 -22 -19 -38 -19s-28.667 6 -38 18s-19 33.667 -29 65l-84 266
c-2 7.33301 -3.66699 13.833 -5 19.5s-3 10.834 -5 15.501l-1 3l-2 -8l-59 -369h-94l80 417c3.33301 20 9 35.667 17 47c12 17.333 28.333 26 49 26s36.667 -6.66699 48 -20c7.33301 -8.66699 14.333 -23.334 21 -44.001l73 -236l13 -48l11 -38
c0.666992 -3.33301 1.5 -5.83301 2.5 -7.5s1.83301 -2.83398 2.5 -3.50098l4 10l22 85l76 238c8.66699 26.667 18 44 28 52s23.667 12 41 12c20.667 0 37 -8.66699 49 -26c8 -11.333 13.667 -27 17 -47z" />
    <glyph glyph-name="iacute" unicode="&#xed;" horiz-adv-x="484" 
d="M444 0h-88v219h-228v-219h-88v480h88v-177h228v177h88v-480z" />
    <glyph glyph-name="iacute" unicode="&#x43d;" horiz-adv-x="484" 
d="M444 0h-88v219h-228v-219h-88v480h88v-177h228v177h88v-480z" />
    <glyph glyph-name="icircumflex" unicode="&#xee;" horiz-adv-x="552" 
d="M526 240c0 -69.333 -24.333 -128.333 -73 -177s-107.667 -73 -177 -73s-128.333 24.333 -177 73s-73 107.667 -73 177s24.333 128.333 73 177s107.667 73 177 73s128.333 -24.333 177 -73s73 -107.667 73 -177zM436 240c0 48.667 -14.833 88.5 -44.5 119.5
s-68.167 46.5 -115.5 46.5c-46.667 0 -85 -15.333 -115 -46s-45 -70.667 -45 -120s14.667 -89.333 44 -120s68 -46 116 -46s86.667 15.333 116 46s44 70.667 44 120z" />
    <glyph glyph-name="icircumflex" unicode="&#x43e;" horiz-adv-x="552" 
d="M526 240c0 -69.333 -24.333 -128.333 -73 -177s-107.667 -73 -177 -73s-128.333 24.333 -177 73s-73 107.667 -73 177s24.333 128.333 73 177s107.667 73 177 73s128.333 -24.333 177 -73s73 -107.667 73 -177zM436 240c0 48.667 -14.833 88.5 -44.5 119.5
s-68.167 46.5 -115.5 46.5c-46.667 0 -85 -15.333 -115 -46s-45 -70.667 -45 -120s14.667 -89.333 44 -120s68 -46 116 -46s86.667 15.333 116 46s44 70.667 44 120z" />
    <glyph glyph-name="idieresis" unicode="&#xef;" horiz-adv-x="476" 
d="M438 0h-87.999v270c0 24 -1 41 -3 51c-4.66699 22.667 -14.334 40.334 -29.001 53.001c-10 8.66699 -23.167 14.5 -39.5 17.5s-32.5 4.5 -48.5 4.5h-10h-92v-396h-88v480h173c36.667 0 67 -1.83301 91 -5.5s46.667 -12.834 68 -27.501c28 -19.333 46.667 -45 56 -77
c6.66699 -22.667 10 -55.667 10 -99v-271z" />
    <glyph glyph-name="idieresis" unicode="&#x43f;" horiz-adv-x="476" 
d="M438 0h-87.999v270c0 24 -1 41 -3 51c-4.66699 22.667 -14.334 40.334 -29.001 53.001c-10 8.66699 -23.167 14.5 -39.5 17.5s-32.5 4.5 -48.5 4.5h-10h-92v-396h-88v480h173c36.667 0 67 -1.83301 91 -5.5s46.667 -12.834 68 -27.501c28 -19.333 46.667 -45 56 -77
c6.66699 -22.667 10 -55.667 10 -99v-271z" />
    <glyph glyph-name="eth" unicode="&#xf0;" horiz-adv-x="572" 
d="M546 233c0 -74 -25.667 -134 -77 -180c-46.667 -42 -103.667 -63 -171 -63c-24.667 0 -48.667 3.83301 -72 11.5s-44 19.167 -62 34.5v92c20.667 -19.333 41 -33.166 61 -41.499s40.667 -12.5 62 -12.5c50 0 90.667 15 122 45s47 68.667 47 116c0 50 -15.667 91 -47 123
s-70.333 48 -117 48c-44 0 -80 -13 -108 -39c-37.333 -34.667 -56 -90 -56 -166v-419h-88v426c0 101.333 28 176.333 84 225c44 38 99.667 57 167 57c70 0 129.333 -23 178 -69c51.333 -48.667 77 -111.334 77 -188.001z" />
    <glyph glyph-name="eth" unicode="&#x440;" horiz-adv-x="572" 
d="M546 233c0 -74 -25.667 -134 -77 -180c-46.667 -42 -103.667 -63 -171 -63c-24.667 0 -48.667 3.83301 -72 11.5s-44 19.167 -62 34.5v92c20.667 -19.333 41 -33.166 61 -41.499s40.667 -12.5 62 -12.5c50 0 90.667 15 122 45s47 68.667 47 116c0 50 -15.667 91 -47 123
s-70.333 48 -117 48c-44 0 -80 -13 -108 -39c-37.333 -34.667 -56 -90 -56 -166v-419h-88v426c0 101.333 28 176.333 84 225c44 38 99.667 57 167 57c70 0 129.333 -23 178 -69c51.333 -48.667 77 -111.334 77 -188.001z" />
    <glyph glyph-name="ntilde" unicode="&#xf1;" horiz-adv-x="371" 
d="M349 0l-62.998 -0.00195312c-82.667 0 -148 25.333 -196 76c-42.667 44.667 -64 98.334 -64 161.001c0 38 7.33301 73 22 105c17.333 38.667 44 70 80 94c25.333 16.667 51.666 28.167 78.999 34.5s55 9.5 83 9.5h59v-84h-61c-21.333 0 -41.333 -2.16699 -60 -6.5
s-36.834 -13.333 -54.501 -27s-31.667 -31.167 -42 -52.5s-15.5 -44.666 -15.5 -69.999c0 -33.333 9 -63 27 -89s42 -44.333 72 -55c22.667 -8 48.667 -12 78 -12h56v-84z" />
    <glyph glyph-name="ntilde" unicode="&#x441;" horiz-adv-x="371" 
d="M349 0l-62.998 -0.00195312c-82.667 0 -148 25.333 -196 76c-42.667 44.667 -64 98.334 -64 161.001c0 38 7.33301 73 22 105c17.333 38.667 44 70 80 94c25.333 16.667 51.666 28.167 78.999 34.5s55 9.5 83 9.5h59v-84h-61c-21.333 0 -41.333 -2.16699 -60 -6.5
s-36.834 -13.333 -54.501 -27s-31.667 -31.167 -42 -52.5s-15.5 -44.666 -15.5 -69.999c0 -33.333 9 -63 27 -89s42 -44.333 72 -55c22.667 -8 48.667 -12 78 -12h56v-84z" />
    <glyph glyph-name="ograve" unicode="&#xf2;" horiz-adv-x="386" 
d="M388 396h-151v-396h-88v396h-151v84h390v-84z" />
    <glyph glyph-name="ograve" unicode="&#x442;" horiz-adv-x="386" 
d="M388 396h-151v-396h-88v396h-151v84h390v-84z" />
    <glyph glyph-name="oacute" unicode="&#xf3;" horiz-adv-x="491" 
d="M451 5c0 -42.667 -3.66797 -76.001 -11.001 -100.001c-10 -33.333 -29.333 -61.666 -58 -84.999c-20 -16.667 -45 -29.334 -75 -38.001s-59.333 -13 -88 -13c-30.667 0 -59.667 3 -87 9s-56.666 14.667 -87.999 26l9 87c26 -12.667 51.5 -22.167 76.5 -28.5
s50.5 -9.5 76.5 -9.5s47.667 2 65 6c25.333 6 45.5 16 60.5 30s24.5 32 28.5 54c2 10.667 3 29.667 3 57v55c-8.66699 -13.333 -18.334 -24.333 -29.001 -33c-16 -12.667 -35.667 -21.667 -59 -27c-8.66699 -2 -17.5 -3.33301 -26.5 -4s-19.167 -1 -30.5 -1
c-10 0 -20.5 0.5 -31.5 1.5s-23.5 4.16699 -37.5 9.5c-46 16 -77.333 47.333 -94 94c-11.333 31.333 -17 74.333 -17 129v256h88v-240c0 -40 1.66699 -67.333 5 -82c6.66699 -30.667 22 -53.667 46 -69c8.66699 -5.33301 18 -9.16602 28 -11.499s21.333 -3.5 34 -3.5
c26.667 0 50.834 8 72.501 24s36.5 39.667 44.5 71c4.66699 18 7 41.667 7 71v240h88v-475z" />
    <glyph glyph-name="oacute" unicode="&#x443;" horiz-adv-x="491" 
d="M451 5c0 -42.667 -3.66797 -76.001 -11.001 -100.001c-10 -33.333 -29.333 -61.666 -58 -84.999c-20 -16.667 -45 -29.334 -75 -38.001s-59.333 -13 -88 -13c-30.667 0 -59.667 3 -87 9s-56.666 14.667 -87.999 26l9 87c26 -12.667 51.5 -22.167 76.5 -28.5
s50.5 -9.5 76.5 -9.5s47.667 2 65 6c25.333 6 45.5 16 60.5 30s24.5 32 28.5 54c2 10.667 3 29.667 3 57v55c-8.66699 -13.333 -18.334 -24.333 -29.001 -33c-16 -12.667 -35.667 -21.667 -59 -27c-8.66699 -2 -17.5 -3.33301 -26.5 -4s-19.167 -1 -30.5 -1
c-10 0 -20.5 0.5 -31.5 1.5s-23.5 4.16699 -37.5 9.5c-46 16 -77.333 47.333 -94 94c-11.333 31.333 -17 74.333 -17 129v256h88v-240c0 -40 1.66699 -67.333 5 -82c6.66699 -30.667 22 -53.667 46 -69c8.66699 -5.33301 18 -9.16602 28 -11.499s21.333 -3.5 34 -3.5
c26.667 0 50.834 8 72.501 24s36.5 39.667 44.5 71c4.66699 18 7 41.667 7 71v240h88v-475z" />
    <glyph glyph-name="ocircumflex" unicode="&#xf4;" horiz-adv-x="700" 
d="M668 241c0 -61.333 -20 -115.332 -60 -161.999c-45.333 -52.667 -104.666 -79 -177.999 -79v84c44 0 80.333 16.667 109 50c26 30 39 65.333 39 106c0 40 -12 73.667 -36 101c-32.667 36.667 -82 55 -148 55v-616h-88v220h-17c-72 0 -132.833 22.833 -182.5 68.5
s-74.5 102.5 -74.5 170.5c0 61.333 20 115.333 60 162c45.333 52.667 104.666 79 177.999 79v-84c-43.333 0 -78.833 -15.833 -106.5 -47.5s-41.5 -67.834 -41.5 -108.501c0 -54.667 20.667 -95.667 62 -123c33.333 -22 74 -33 122 -33v616h88v-220h14
c76.667 0 139.167 -22.5 187.5 -67.5s72.5 -102.167 72.5 -171.5z" />
    <glyph glyph-name="ocircumflex" unicode="&#x444;" horiz-adv-x="700" 
d="M668 241c0 -61.333 -20 -115.332 -60 -161.999c-45.333 -52.667 -104.666 -79 -177.999 -79v84c44 0 80.333 16.667 109 50c26 30 39 65.333 39 106c0 40 -12 73.667 -36 101c-32.667 36.667 -82 55 -148 55v-616h-88v220h-17c-72 0 -132.833 22.833 -182.5 68.5
s-74.5 102.5 -74.5 170.5c0 61.333 20 115.333 60 162c45.333 52.667 104.666 79 177.999 79v-84c-43.333 0 -78.833 -15.833 -106.5 -47.5s-41.5 -67.834 -41.5 -108.501c0 -54.667 20.667 -95.667 62 -123c33.333 -22 74 -33 122 -33v616h88v-220h14
c76.667 0 139.167 -22.5 187.5 -67.5s72.5 -102.167 72.5 -171.5z" />
    <glyph glyph-name="otilde" unicode="&#xf5;" horiz-adv-x="390" 
d="M383 0c-40.667 0 -77.5 10 -110.5 30s-58.833 47.333 -77.5 82c-18.667 -34 -44.334 -61.167 -77.001 -81.5s-69.667 -30.5 -111 -30.5v84c38.667 0 71.334 12 98.001 36c30.667 28 46 68 46 120c0 51.333 -15.333 91 -46 119c-26.667 24.667 -59.334 37 -98.001 37v84
c40.667 0 77.5 -10 110.5 -30s58.833 -47.333 77.5 -82c18.667 34 44.334 61.167 77.001 81.5s69.667 30.5 111 30.5v-84c-38.667 0 -71.334 -12 -98.001 -36c-30.667 -28 -46 -68 -46 -120c0 -51.333 15.333 -91 46 -119c26.667 -24.667 59.334 -37 98.001 -37v-84z" />
    <glyph glyph-name="otilde" unicode="&#x445;" horiz-adv-x="390" 
d="M383 0c-40.667 0 -77.5 10 -110.5 30s-58.833 47.333 -77.5 82c-18.667 -34 -44.334 -61.167 -77.001 -81.5s-69.667 -30.5 -111 -30.5v84c38.667 0 71.334 12 98.001 36c30.667 28 46 68 46 120c0 51.333 -15.333 91 -46 119c-26.667 24.667 -59.334 37 -98.001 37v84
c40.667 0 77.5 -10 110.5 -30s58.833 -47.333 77.5 -82c18.667 34 44.334 61.167 77.001 81.5s69.667 30.5 111 30.5v-84c-38.667 0 -71.334 -12 -98.001 -36c-30.667 -28 -46 -68 -46 -120c0 -51.333 15.333 -91 46 -119c26.667 -24.667 59.334 -37 98.001 -37v-84z" />
    <glyph glyph-name="odieresis" unicode="&#xf6;" horiz-adv-x="533" 
d="M439 120h-88v360h88v-360zM523 -125l-75.998 0.000976562v125h-204c-33.333 0 -60.333 2.16699 -81 6.5s-38.667 11.166 -54 20.499c-29.333 18 -49.333 44 -60 78c-6.66699 22 -10 51.667 -10 89v286h88v-282c0 -28 1.33301 -46.667 4 -56
c5.33301 -19.333 17.666 -34.333 36.999 -45c15.333 -8.66699 42.666 -13 81.999 -13h274v-209z" />
    <glyph glyph-name="odieresis" unicode="&#x446;" horiz-adv-x="533" 
d="M439 120h-88v360h88v-360zM523 -125l-75.998 0.000976562v125h-204c-33.333 0 -60.333 2.16699 -81 6.5s-38.667 11.166 -54 20.499c-29.333 18 -49.333 44 -60 78c-6.66699 22 -10 51.667 -10 89v286h88v-282c0 -28 1.33301 -46.667 4 -56
c5.33301 -19.333 17.666 -34.333 36.999 -45c15.333 -8.66699 42.666 -13 81.999 -13h274v-209z" />
    <glyph glyph-name="divide" unicode="&#xf7;" horiz-adv-x="458" 
d="M418 0l-88 0.000976562v160h-94c-82 0 -138.333 20.667 -169 62c-19.333 26 -29 64 -29 114v144h88v-147c0 -30.667 5 -51.334 15 -62.001c17.333 -18 54.333 -27 111 -27h78v236h88v-480z" />
    <glyph glyph-name="divide" unicode="&#x447;" horiz-adv-x="458" 
d="M418 0l-88 0.000976562v160h-94c-82 0 -138.333 20.667 -169 62c-19.333 26 -29 64 -29 114v144h88v-147c0 -30.667 5 -51.334 15 -62.001c17.333 -18 54.333 -27 111 -27h78v236h88v-480z" />
    <glyph glyph-name="oslash" unicode="&#xf8;" horiz-adv-x="704" 
d="M396 120h-88v360h88v-360zM664 0l-413.999 -0.000976562c-34 0 -60.667 1.33301 -80 4s-39 10.334 -59 23.001c-29.333 18.667 -49.333 43 -60 73c-7.33301 20.667 -11 50 -11 88v292h88v-284c0 -24 1.33301 -41 4 -51c5.33301 -18.667 15.666 -33.667 30.999 -45
c10 -7.33301 20.667 -11.833 32 -13.5s25.333 -2.5 42 -2.5h339v396h88v-480z" />
    <glyph glyph-name="oslash" unicode="&#x448;" horiz-adv-x="704" 
d="M396 120h-88v360h88v-360zM664 0l-413.999 -0.000976562c-34 0 -60.667 1.33301 -80 4s-39 10.334 -59 23.001c-29.333 18.667 -49.333 43 -60 73c-7.33301 20.667 -11 50 -11 88v292h88v-284c0 -24 1.33301 -41 4 -51c5.33301 -18.667 15.666 -33.667 30.999 -45
c10 -7.33301 20.667 -11.833 32 -13.5s25.333 -2.5 42 -2.5h339v396h88v-480z" />
    <glyph glyph-name="ugrave" unicode="&#xf9;" horiz-adv-x="759" 
d="M664 121h-88v359h88v-359zM396 121h-88v359h88v-359zM749 -125l-77 -0.000976562v125h-415h-16c-30 0 -51.667 1 -65 3c-25.333 4 -47.333 12 -66 24c-22 14 -38.667 32.333 -50 55c-13.333 26.667 -20 66 -20 118v280h88v-280c0 -31.333 3.83301 -54.166 11.5 -68.499
s19.5 -25.833 35.5 -34.5c10 -5.33301 22.5 -8.83301 37.5 -10.5s34.833 -2.5 59.5 -2.5h477v-209z" />
    <glyph glyph-name="ugrave" unicode="&#x449;" horiz-adv-x="759" 
d="M664 121h-88v359h88v-359zM396 121h-88v359h88v-359zM749 -125l-77 -0.000976562v125h-415h-16c-30 0 -51.667 1 -65 3c-25.333 4 -47.333 12 -66 24c-22 14 -38.667 32.333 -50 55c-13.333 26.667 -20 66 -20 118v280h88v-280c0 -31.333 3.83301 -54.166 11.5 -68.499
s19.5 -25.833 35.5 -34.5c10 -5.33301 22.5 -8.83301 37.5 -10.5s34.833 -2.5 59.5 -2.5h477v-209z" />
    <glyph glyph-name="uacute" unicode="&#xfa;" horiz-adv-x="536" 
d="M510 181c0 -32.667 -8.66797 -64.832 -26.001 -96.499s-41.333 -55.5 -72 -71.5c-15.333 -8 -31.666 -13.833 -48.999 -17.5s-36.333 -5.5 -57 -5.5c-28.667 0 -55.667 4.33301 -81 13c-49.333 18.667 -83.333 52 -102 100c-11.333 29.333 -17 66.333 -17 111v182h-116
v84h204v-281c0 -27.333 2 -47 6 -59c7.33301 -22 22.666 -39.333 45.999 -52c9.33301 -4.66699 19.833 -8.16699 31.5 -10.5s23.834 -3.5 36.501 -3.5c6 0 12.833 0.166992 20.5 0.5s17.5 2.83301 29.5 7.5c17.333 7.33301 31.333 18.166 42 32.499s16 31.833 16 52.5
c0 30 -10.5 54.5 -31.5 73.5s-46.833 28.5 -77.5 28.5c-16 0 -31.333 -2.83301 -46 -8.5s-27 -14.167 -37 -25.5v92c29.333 17.333 60.333 26 93 26c51.333 0 95.333 -16.667 132 -50s55 -74 55 -122z" />
    <glyph glyph-name="uacute" unicode="&#x44a;" horiz-adv-x="536" 
d="M510 181c0 -32.667 -8.66797 -64.832 -26.001 -96.499s-41.333 -55.5 -72 -71.5c-15.333 -8 -31.666 -13.833 -48.999 -17.5s-36.333 -5.5 -57 -5.5c-28.667 0 -55.667 4.33301 -81 13c-49.333 18.667 -83.333 52 -102 100c-11.333 29.333 -17 66.333 -17 111v182h-116
v84h204v-281c0 -27.333 2 -47 6 -59c7.33301 -22 22.666 -39.333 45.999 -52c9.33301 -4.66699 19.833 -8.16699 31.5 -10.5s23.834 -3.5 36.501 -3.5c6 0 12.833 0.166992 20.5 0.5s17.5 2.83301 29.5 7.5c17.333 7.33301 31.333 18.166 42 32.499s16 31.833 16 52.5
c0 30 -10.5 54.5 -31.5 73.5s-46.833 28.5 -77.5 28.5c-16 0 -31.333 -2.83301 -46 -8.5s-27 -14.167 -37 -25.5v92c29.333 17.333 60.333 26 93 26c51.333 0 95.333 -16.667 132 -50s55 -74 55 -122z" />
    <glyph glyph-name="ucircumflex" unicode="&#xfb;" horiz-adv-x="620" 
d="M580 0h-88v480h88v-480zM444 181c0 -32.667 -8.66895 -64.835 -26.002 -96.502s-41.333 -55.5 -72 -71.5c-15.333 -8 -31.666 -13.833 -48.999 -17.5s-36.333 -5.5 -57 -5.5c-23.333 0 -39 0.666992 -47 2s-19.333 5 -34 11c-49.333 18.667 -83.333 52.334 -102 101.001
c-11.333 29.333 -17 67.333 -17 114v262h88v-280c0 -34.667 5.66699 -61.334 17 -80.001c18.667 -30.667 52.334 -46 101.001 -46c37.333 0 66 10.333 86 31c16 16.667 24 37.334 24 62.001c0 28.667 -9.5 52.834 -28.5 72.501s-43.833 29.5 -74.5 29.5
c-16.667 0 -33 -2.83301 -49 -8.5s-29.333 -14.167 -40 -25.5v92c29.333 17.333 60.666 26 93.999 26c52.667 0 96.834 -16.5 132.501 -49.5s53.5 -73.833 53.5 -122.5z" />
    <glyph glyph-name="ucircumflex" unicode="&#x44b;" horiz-adv-x="620" 
d="M580 0h-88v480h88v-480zM444 181c0 -32.667 -8.66895 -64.835 -26.002 -96.502s-41.333 -55.5 -72 -71.5c-15.333 -8 -31.666 -13.833 -48.999 -17.5s-36.333 -5.5 -57 -5.5c-23.333 0 -39 0.666992 -47 2s-19.333 5 -34 11c-49.333 18.667 -83.333 52.334 -102 101.001
c-11.333 29.333 -17 67.333 -17 114v262h88v-280c0 -34.667 5.66699 -61.334 17 -80.001c18.667 -30.667 52.334 -46 101.001 -46c37.333 0 66 10.333 86 31c16 16.667 24 37.334 24 62.001c0 28.667 -9.5 52.834 -28.5 72.501s-43.833 29.5 -74.5 29.5
c-16.667 0 -33 -2.83301 -49 -8.5s-29.333 -14.167 -40 -25.5v92c29.333 17.333 60.666 26 93.999 26c52.667 0 96.834 -16.5 132.501 -49.5s53.5 -73.833 53.5 -122.5z" />
    <glyph glyph-name="udieresis" unicode="&#xfc;" horiz-adv-x="484" 
d="M444 181c0 -32.667 -8.66699 -64.832 -26 -96.499s-41.333 -55.5 -72 -71.5c-15.333 -8 -31.833 -13.833 -49.5 -17.5s-36.834 -5.5 -57.501 -5.5c-29.333 0 -56 4.33301 -80 13c-51.333 19.333 -86 53.666 -104 102.999c-10 27.333 -15 64.333 -15 111v263h88v-282
c0 -27.333 2.33301 -47.333 7 -60c7.33301 -20.667 22 -37 44 -49c18 -10 40 -15 66 -15c13.333 0 22.833 0.5 28.5 1.5s13.834 3.5 24.501 7.5c15.333 6 28 15 38 27c13.333 16 20 35 20 57c0 20 -4.33301 37.5 -13 52.5s-21 27 -37 36s-34.333 13.5 -55 13.5
c-17.333 0 -33.5 -2.66699 -48.5 -8s-27.833 -14 -38.5 -26v92c28.667 17.333 60.667 26 96 26c26.667 0 51.5 -4.5 74.5 -13.5s42.167 -21 57.5 -36s27.833 -33.667 37.5 -56s14.5 -44.5 14.5 -66.5z" />
    <glyph glyph-name="udieresis" unicode="&#x44c;" horiz-adv-x="484" 
d="M444 181c0 -32.667 -8.66699 -64.832 -26 -96.499s-41.333 -55.5 -72 -71.5c-15.333 -8 -31.833 -13.833 -49.5 -17.5s-36.834 -5.5 -57.501 -5.5c-29.333 0 -56 4.33301 -80 13c-51.333 19.333 -86 53.666 -104 102.999c-10 27.333 -15 64.333 -15 111v263h88v-282
c0 -27.333 2.33301 -47.333 7 -60c7.33301 -20.667 22 -37 44 -49c18 -10 40 -15 66 -15c13.333 0 22.833 0.5 28.5 1.5s13.834 3.5 24.501 7.5c15.333 6 28 15 38 27c13.333 16 20 35 20 57c0 20 -4.33301 37.5 -13 52.5s-21 27 -37 36s-34.333 13.5 -55 13.5
c-17.333 0 -33.5 -2.66699 -48.5 -8s-27.833 -14 -38.5 -26v92c28.667 17.333 60.667 26 96 26c26.667 0 51.5 -4.5 74.5 -13.5s42.167 -21 57.5 -36s27.833 -33.667 37.5 -56s14.5 -44.5 14.5 -66.5z" />
    <glyph glyph-name="yacute" unicode="&#xfd;" horiz-adv-x="385" 
d="M355 242c0 -38.667 -7.00293 -73.334 -21.0029 -104.001c-11.333 -24.667 -26.666 -46.667 -45.999 -66c-29.333 -29.333 -64.666 -49.666 -105.999 -60.999c-27.333 -7.33301 -60 -11 -98 -11h-62v84h53c57.333 0 99 7.33301 125 22c15.333 8.66699 28.333 20 39 34
c13.333 17.333 22 37.666 26 60.999h-243v84h243c-4.66699 19.333 -12.667 36.833 -24 52.5s-23.666 27.334 -36.999 35.001s-29.666 13.5 -48.999 17.5s-45.666 6 -78.999 6h-54v84h55c31.333 0 60.166 -2.16699 86.499 -6.5s52.666 -13.833 78.999 -28.5
s48.5 -34 66.5 -58c30.667 -40.667 46 -89 46 -145z" />
    <glyph glyph-name="yacute" unicode="&#x44d;" horiz-adv-x="385" 
d="M355 242c0 -38.667 -7.00293 -73.334 -21.0029 -104.001c-11.333 -24.667 -26.666 -46.667 -45.999 -66c-29.333 -29.333 -64.666 -49.666 -105.999 -60.999c-27.333 -7.33301 -60 -11 -98 -11h-62v84h53c57.333 0 99 7.33301 125 22c15.333 8.66699 28.333 20 39 34
c13.333 17.333 22 37.666 26 60.999h-243v84h243c-4.66699 19.333 -12.667 36.833 -24 52.5s-23.666 27.334 -36.999 35.001s-29.666 13.5 -48.999 17.5s-45.666 6 -78.999 6h-54v84h55c31.333 0 60.166 -2.16699 86.499 -6.5s52.666 -13.833 78.999 -28.5
s48.5 -34 66.5 -58c30.667 -40.667 46 -89 46 -145z" />
    <glyph glyph-name="thorn" unicode="&#xfe;" horiz-adv-x="699" 
d="M673 240c0 -69.333 -24.0029 -128.334 -72.0029 -177.001s-107 -73 -177 -73c-59.333 0 -111.666 18.333 -156.999 55c-48 38.667 -77.333 90.667 -88 156h-51v-201h-88v480h88v-195h144c-2 -9.33301 -3.33301 -16.333 -4 -21s-1 -12 -1 -22c0 -48 15 -88 45 -120
s68 -48 114 -48c43.333 0 80.333 15.333 111 46s46 70.667 46 120c0 44.667 -13 82.334 -39 113.001c-30 35.333 -71 53 -123 53c-31.333 0 -58.666 -7.33301 -81.999 -22s-41.666 -35.667 -54.999 -63h-94c16 50 45.333 90.667 88 122s91.334 47 146.001 47
c69.333 0 128.166 -24.167 176.499 -72.5s72.5 -107.5 72.5 -177.5z" />
    <glyph glyph-name="thorn" unicode="&#x44e;" horiz-adv-x="699" 
d="M673 240c0 -69.333 -24.0029 -128.334 -72.0029 -177.001s-107 -73 -177 -73c-59.333 0 -111.666 18.333 -156.999 55c-48 38.667 -77.333 90.667 -88 156h-51v-201h-88v480h88v-195h144c-2 -9.33301 -3.33301 -16.333 -4 -21s-1 -12 -1 -22c0 -48 15 -88 45 -120
s68 -48 114 -48c43.333 0 80.333 15.333 111 46s46 70.667 46 120c0 44.667 -13 82.334 -39 113.001c-30 35.333 -71 53 -123 53c-31.333 0 -58.666 -7.33301 -81.999 -22s-41.666 -35.667 -54.999 -63h-94c16 50 45.333 90.667 88 122s91.334 47 146.001 47
c69.333 0 128.166 -24.167 176.499 -72.5s72.5 -107.5 72.5 -177.5z" />
    <glyph glyph-name="ydieresis" unicode="&#xff;" horiz-adv-x="466" 
d="M426 0l-88.001 -0.000976562v237v22c0 36 -3 62.667 -9 80c-9.33301 28 -28 47.333 -56 58c-8.66699 3.33301 -17.667 5.66602 -27 6.99902s-19.333 2 -30 2c-23.333 0 -43.333 -4.66699 -60 -14c-13.333 -7.33301 -23 -16.833 -29 -28.5s-9 -23.167 -9 -34.5
c0 -31.333 14.333 -53 43 -65c17.333 -7.33301 40.666 -11 69.999 -11h71v-80h-61c-36.667 0 -62 -4.83301 -76 -14.5s-22.833 -20.834 -26.5 -33.501s-5.5 -28.667 -5.5 -48v-77h-88v59c0 30.667 0.833008 52.834 2.5 66.501s7.5 27.834 17.5 42.501
c6 9.33301 14 17.333 24 24s21 12.334 33 17.001c-28.667 6 -51.167 20.333 -67.5 43s-24.5 48 -24.5 76c0 28.667 7 55 21 79c17.333 30 44 52.333 80 67c26 10.667 54.333 16 85 16c32.667 0 61.334 -4.16699 86.001 -12.5s45.334 -19.833 62.001 -34.5
c26 -23.333 43.667 -52.333 53 -87c6 -23.333 9 -55.333 9 -96v-260z" />
    <glyph glyph-name="ydieresis" unicode="&#x44f;" horiz-adv-x="466" 
d="M426 0l-88.001 -0.000976562v237v22c0 36 -3 62.667 -9 80c-9.33301 28 -28 47.333 -56 58c-8.66699 3.33301 -17.667 5.66602 -27 6.99902s-19.333 2 -30 2c-23.333 0 -43.333 -4.66699 -60 -14c-13.333 -7.33301 -23 -16.833 -29 -28.5s-9 -23.167 -9 -34.5
c0 -31.333 14.333 -53 43 -65c17.333 -7.33301 40.666 -11 69.999 -11h71v-80h-61c-36.667 0 -62 -4.83301 -76 -14.5s-22.833 -20.834 -26.5 -33.501s-5.5 -28.667 -5.5 -48v-77h-88v59c0 30.667 0.833008 52.834 2.5 66.501s7.5 27.834 17.5 42.501
c6 9.33301 14 17.333 24 24s21 12.334 33 17.001c-28.667 6 -51.167 20.333 -67.5 43s-24.5 48 -24.5 76c0 28.667 7 55 21 79c17.333 30 44 52.333 80 67c26 10.667 54.333 16 85 16c32.667 0 61.334 -4.16699 86.001 -12.5s45.334 -19.833 62.001 -34.5
c26 -23.333 43.667 -52.333 53 -87c6 -23.333 9 -55.333 9 -96v-260z" />
    <glyph glyph-name="OE" unicode="&#x152;" horiz-adv-x="987" 
d="M951 240c0 -52.667 -13.5 -99.998 -40.5 -141.998s-64.167 -72 -111.5 -90c-16.667 -6.66699 -33.5 -11.334 -50.5 -14.001s-35.167 -4 -54.5 -4c-20.667 0 -37 0.833008 -49 2.5s-26 5.16699 -42 10.5c-59.333 20 -101 59 -125 117c-14.667 35.333 -22 77 -22 125v73
h-304v-318h-94v700h94v-294h304v294h94v-453c0 -36 4 -64.667 12 -86c14 -36 40.333 -60.667 79 -74c18 -6 36.667 -9 56 -9c29.333 0 55.5 5.5 78.5 16.5s41.167 26.167 54.5 45.5c18 25.333 27 56.666 27 93.999c0 46 -14 83.333 -42 112s-65 43 -111 43
c-22 0 -42 -2.66699 -60 -8c-12 -3.33301 -31.333 -11.333 -58 -24v96l47 16c22 6.66699 46.667 10 74 10c78 0 139.333 -24.667 184 -74c40 -44 60 -99 60 -165z" />
    <glyph glyph-name="OE" unicode="&#x40a;" horiz-adv-x="987" 
d="M951 240c0 -52.667 -13.5 -99.998 -40.5 -141.998s-64.167 -72 -111.5 -90c-16.667 -6.66699 -33.5 -11.334 -50.5 -14.001s-35.167 -4 -54.5 -4c-20.667 0 -37 0.833008 -49 2.5s-26 5.16699 -42 10.5c-59.333 20 -101 59 -125 117c-14.667 35.333 -22 77 -22 125v73
h-304v-318h-94v700h94v-294h304v294h94v-453c0 -36 4 -64.667 12 -86c14 -36 40.333 -60.667 79 -74c18 -6 36.667 -9 56 -9c29.333 0 55.5 5.5 78.5 16.5s41.167 26.167 54.5 45.5c18 25.333 27 56.666 27 93.999c0 46 -14 83.333 -42 112s-65 43 -111 43
c-22 0 -42 -2.66699 -60 -8c-12 -3.33301 -31.333 -11.333 -58 -24v96l47 16c22 6.66699 46.667 10 74 10c78 0 139.333 -24.667 184 -74c40 -44 60 -99 60 -165z" />
    <glyph glyph-name="oe" unicode="&#x153;" horiz-adv-x="797" 
d="M757 181c0 -32.667 -8.66797 -64.832 -26.001 -96.499s-41.333 -55.5 -72 -71.5c-15.333 -8 -31.833 -13.833 -49.5 -17.5s-36.834 -5.5 -57.501 -5.5c-29.333 0 -56 4.33301 -80 13c-47.333 17.333 -80.666 48.666 -99.999 93.999c-12.667 30 -19 66.667 -19 110v12
h-228v-219h-88v480h88v-177h228v177h88v-282c0 -27.333 2.33301 -47.333 7 -60c7.33301 -20.667 22 -37 44 -49c18 -10 40 -15 66 -15c13.333 0 22.833 0.5 28.5 1.5s13.834 3.5 24.501 7.5c15.333 6 28 15 38 27c13.333 16 20 35 20 57c0 20 -4.33301 37.5 -13 52.5
s-21 27 -37 36s-34.333 13.5 -55 13.5c-17.333 0 -33.5 -2.66699 -48.5 -8s-27.833 -14 -38.5 -26v92c28.667 17.333 60.667 26 96 26c26.667 0 51.5 -4.5 74.5 -13.5s42.167 -21 57.5 -36s27.833 -33.667 37.5 -56s14.5 -44.5 14.5 -66.5z" />
    <glyph glyph-name="oe" unicode="&#x45a;" horiz-adv-x="797" 
d="M757 181c0 -32.667 -8.66797 -64.832 -26.001 -96.499s-41.333 -55.5 -72 -71.5c-15.333 -8 -31.833 -13.833 -49.5 -17.5s-36.834 -5.5 -57.501 -5.5c-29.333 0 -56 4.33301 -80 13c-47.333 17.333 -80.666 48.666 -99.999 93.999c-12.667 30 -19 66.667 -19 110v12
h-228v-219h-88v480h88v-177h228v177h88v-282c0 -27.333 2.33301 -47.333 7 -60c7.33301 -20.667 22 -37 44 -49c18 -10 40 -15 66 -15c13.333 0 22.833 0.5 28.5 1.5s13.834 3.5 24.501 7.5c15.333 6 28 15 38 27c13.333 16 20 35 20 57c0 20 -4.33301 37.5 -13 52.5
s-21 27 -37 36s-34.333 13.5 -55 13.5c-17.333 0 -33.5 -2.66699 -48.5 -8s-27.833 -14 -38.5 -26v92c28.667 17.333 60.667 26 96 26c26.667 0 51.5 -4.5 74.5 -13.5s42.167 -21 57.5 -36s27.833 -33.667 37.5 -56s14.5 -44.5 14.5 -66.5z" />
    <glyph glyph-name="Scaron" unicode="&#x160;" horiz-adv-x="983" 
d="M947 240c0 -52.667 -13.5 -99.999 -40.5 -141.999s-64.167 -72 -111.5 -90c-16.667 -6.66699 -33.5 -11.334 -50.5 -14.001s-35.167 -4 -54.5 -4c-20.667 0 -37 0.833008 -49 2.5s-26 5.16699 -42 10.5c-59.333 20 -101 59 -125 117c-14.667 35.333 -22 77 -22 125v367
h-46c-38.667 0 -70.667 -3.33301 -96 -10c-42.667 -11.333 -76.667 -32.666 -102 -63.999c-18.667 -23.333 -31.167 -50.333 -37.5 -81s-9.5 -63.667 -9.5 -99v-358h-171v88h77v270c0 51.333 4.33301 94 13 128c11.333 43.333 32 82 62 116c36 40 79.333 67.667 130 83
c34 10 77.667 15 131 15h143v-453c0 -36 4 -64.667 12 -86c14 -36 40.333 -60.667 79 -74c18 -6 36.667 -9 56 -9c29.333 0 55.5 5.5 78.5 16.5s41.167 26.167 54.5 45.5c18 25.333 27 56.666 27 93.999c0 46 -14 83.333 -42 112s-65 43 -111 43c-22 0 -42 -2.66699 -60 -8
c-12 -3.33301 -31.333 -11.333 -58 -24v96l47 16c22 6.66699 46.667 10 74 10c78 0 139.333 -24.667 184 -74c40 -44 60 -99 60 -165z" />
    <glyph glyph-name="Scaron" unicode="&#x409;" horiz-adv-x="983" 
d="M947 240c0 -52.667 -13.5 -99.999 -40.5 -141.999s-64.167 -72 -111.5 -90c-16.667 -6.66699 -33.5 -11.334 -50.5 -14.001s-35.167 -4 -54.5 -4c-20.667 0 -37 0.833008 -49 2.5s-26 5.16699 -42 10.5c-59.333 20 -101 59 -125 117c-14.667 35.333 -22 77 -22 125v367
h-46c-38.667 0 -70.667 -3.33301 -96 -10c-42.667 -11.333 -76.667 -32.666 -102 -63.999c-18.667 -23.333 -31.167 -50.333 -37.5 -81s-9.5 -63.667 -9.5 -99v-358h-171v88h77v270c0 51.333 4.33301 94 13 128c11.333 43.333 32 82 62 116c36 40 79.333 67.667 130 83
c34 10 77.667 15 131 15h143v-453c0 -36 4 -64.667 12 -86c14 -36 40.333 -60.667 79 -74c18 -6 36.667 -9 56 -9c29.333 0 55.5 5.5 78.5 16.5s41.167 26.167 54.5 45.5c18 25.333 27 56.666 27 93.999c0 46 -14 83.333 -42 112s-65 43 -111 43c-22 0 -42 -2.66699 -60 -8
c-12 -3.33301 -31.333 -11.333 -58 -24v96l47 16c22 6.66699 46.667 10 74 10c78 0 139.333 -24.667 184 -74c40 -44 60 -99 60 -165z" />
    <glyph glyph-name="scaron" unicode="&#x161;" horiz-adv-x="783" 
d="M743 181c0 -32.667 -8.66699 -64.8311 -26 -96.498s-41.333 -55.5 -72 -71.5c-15.333 -8 -31.833 -13.833 -49.5 -17.5s-36.834 -5.5 -57.501 -5.5c-29.333 0 -56 4.33301 -80 13c-51.333 19.333 -86 53.666 -104 102.999c-10 27.333 -15 64.333 -15 111v179h-14
c-28.667 0 -49.667 -1.33301 -63 -4c-25.333 -5.33301 -48 -16 -68 -32c-25.333 -20.667 -42 -47.334 -50 -80.001c-5.33301 -20.667 -8 -49 -8 -85v-195h-146v84h62v111c0 50 4.33301 89.333 13 118c14.667 48.667 43.334 87.667 86.001 117c24.667 17.333 54.667 30 90 38
s71.666 12 108.999 12h77v-282c0 -27.333 2.33301 -47.333 7 -60c7.33301 -20.667 22 -37 44 -49c18 -10 40 -15 66 -15c13.333 0 22.833 0.5 28.5 1.5s13.834 3.5 24.501 7.5c15.333 6 28 15 38 27c13.333 16 20 35 20 57c0 20 -4.33301 37.5 -13 52.5s-21 27 -37 36
s-34.333 13.5 -55 13.5c-17.333 0 -33.5 -2.66699 -48.5 -8s-27.833 -14 -38.5 -26v92c28.667 17.333 60.667 26 96 26c26.667 0 51.5 -4.5 74.5 -13.5s42.167 -21 57.5 -36s27.833 -33.667 37.5 -56s14.5 -44.5 14.5 -66.5z" />
    <glyph glyph-name="scaron" unicode="&#x459;" horiz-adv-x="783" 
d="M743 181c0 -32.667 -8.66699 -64.8311 -26 -96.498s-41.333 -55.5 -72 -71.5c-15.333 -8 -31.833 -13.833 -49.5 -17.5s-36.834 -5.5 -57.501 -5.5c-29.333 0 -56 4.33301 -80 13c-51.333 19.333 -86 53.666 -104 102.999c-10 27.333 -15 64.333 -15 111v179h-14
c-28.667 0 -49.667 -1.33301 -63 -4c-25.333 -5.33301 -48 -16 -68 -32c-25.333 -20.667 -42 -47.334 -50 -80.001c-5.33301 -20.667 -8 -49 -8 -85v-195h-146v84h62v111c0 50 4.33301 89.333 13 118c14.667 48.667 43.334 87.667 86.001 117c24.667 17.333 54.667 30 90 38
s71.666 12 108.999 12h77v-282c0 -27.333 2.33301 -47.333 7 -60c7.33301 -20.667 22 -37 44 -49c18 -10 40 -15 66 -15c13.333 0 22.833 0.5 28.5 1.5s13.834 3.5 24.501 7.5c15.333 6 28 15 38 27c13.333 16 20 35 20 57c0 20 -4.33301 37.5 -13 52.5s-21 27 -37 36
s-34.333 13.5 -55 13.5c-17.333 0 -33.5 -2.66699 -48.5 -8s-27.833 -14 -38.5 -26v92c28.667 17.333 60.667 26 96 26c26.667 0 51.5 -4.5 74.5 -13.5s42.167 -21 57.5 -36s27.833 -33.667 37.5 -56s14.5 -44.5 14.5 -66.5z" />
    <glyph glyph-name="Ydieresis" unicode="&#x178;" horiz-adv-x="476" 
d="M438 0h-155v-208h-88v208h-155v480h88v-396h222v396h88v-480z" />
    <glyph glyph-name="Ydieresis" unicode="&#x45f;" horiz-adv-x="476" 
d="M438 0h-155v-208h-88v208h-155v480h88v-396h222v396h88v-480z" />
    <glyph glyph-name="florin" unicode="&#x192;" horiz-adv-x="418" 
d="M404 680l-130 -142h-68l90 142h108zM345 396h-118.999c-20.667 0 -37.167 -1.5 -49.5 -4.5s-23 -10 -32 -21s-14.667 -23.833 -17 -38.5s-3.5 -30.667 -3.5 -48v-11v-273h-88v273c0 33.333 1.66699 59 5 77c6 34 18.833 61.5 38.5 82.5s45.167 34.833 76.5 41.5
c19.333 4 48.666 6 87.999 6h101v-84z" />
    <glyph glyph-name="florin" unicode="&#x453;" horiz-adv-x="418" 
d="M404 680l-130 -142h-68l90 142h108zM345 396h-118.999c-20.667 0 -37.167 -1.5 -49.5 -4.5s-23 -10 -32 -21s-14.667 -23.833 -17 -38.5s-3.5 -30.667 -3.5 -48v-11v-273h-88v273c0 33.333 1.66699 59 5 77c6 34 18.833 61.5 38.5 82.5s45.167 34.833 76.5 41.5
c19.333 4 48.666 6 87.999 6h101v-84z" />
    <glyph glyph-name="circumflex" unicode="&#x2c6;" horiz-adv-x="358" 
d="M285 538h-80l-66 94l-66 -94h-80l100 142h92z" />
    <glyph glyph-name="tilde" unicode="&#x2dc;" horiz-adv-x="278" 
d="M309 663c0 -31.333 -10.002 -57.334 -30.002 -78.001s-44 -31 -72 -31c-11.333 0 -26.666 2.66699 -45.999 8c-10 2.66699 -24.333 7.33398 -43 14.001c-8.66699 3.33301 -18.5 6.83301 -29.5 10.5s-19.5 5.5 -25.5 5.5c-25.333 0 -40.666 -15 -45.999 -45h-48
c0 28 7.33301 52 22 72c18 24.667 44 37 78 37c20 0 45.667 -6 77 -18c10.667 -4.66699 22 -9.16699 34 -13.5s23.333 -6.5 34 -6.5c13.333 0 24.5 4.5 33.5 13.5s13.5 19.5 13.5 31.5h48z" />
    <glyph glyph-name="endash" unicode="&#x2013;" 
d="M527 208h-500v64h500v-64z" />
    <glyph glyph-name="emdash" unicode="&#x2014;" horiz-adv-x="1054" 
d="M1027 208h-1000v64h1000v-64z" />
    <glyph glyph-name="quoteleft" unicode="&#x2018;" horiz-adv-x="222" 
d="M166 498h-74l-46 202h84z" />
    <glyph glyph-name="quoteright" unicode="&#x2019;" horiz-adv-x="222" 
d="M176 700l-46 -202h-74l36 202h84z" />
    <glyph glyph-name="quotesinglbase" unicode="&#x201a;" horiz-adv-x="222" 
d="M156 100l-46 -202h-74l36 202h84z" />
    <glyph glyph-name="quotedblleft" unicode="&#x201c;" horiz-adv-x="389" 
d="M347 498h-74l-46 202h84zM162 498h-74l-46 202h84z" />
    <glyph glyph-name="quotedblright" unicode="&#x201d;" horiz-adv-x="389" 
d="M347 700l-46 -202h-74l36 202h84zM162 700l-46 -202h-74l36 202h84z" />
    <glyph glyph-name="quotedblbase" unicode="&#x201e;" horiz-adv-x="389" 
d="M347 100l-46 -202h-74l36 202h84zM162 100l-46 -202h-74l36 202h84z" />
    <glyph glyph-name="dagger" unicode="&#x2020;" horiz-adv-x="500" 
d="M435 428l-164 30l28 -168c-8 -46.667 -15 -103.667 -21 -171s-9 -126.333 -9 -177v-76h-38v76c0 50.667 -3 109.667 -9 177s-13 124.333 -21 171l28 168l-164 -30v96l164 -30l-28 206h98l-28 -206l164 30v-96z" />
    <glyph glyph-name="daggerdbl" unicode="&#x2021;" horiz-adv-x="500" 
d="M435 43l-164 29l28 -206h-98l28 206l-164 -29v96l164 -31l-28 175l28 175l-164 -30v96l164 -30l-28 206h98l-28 -206l164 30v-96l-164 30l28 -175l-28 -175l164 31v-96z" />
    <glyph glyph-name="bullet" unicode="&#x2022;" horiz-adv-x="500" 
d="M425 350c0 -49.333 -16.833 -90.833 -50.5 -124.5s-75.167 -50.5 -124.5 -50.5s-90.833 16.833 -124.5 50.5s-50.5 75.167 -50.5 124.5s16.833 90.833 50.5 124.5s75.167 50.5 124.5 50.5s90.833 -16.833 124.5 -50.5s50.5 -75.167 50.5 -124.5z" />
    <glyph glyph-name="ellipsis" unicode="&#x2026;" horiz-adv-x="1000" 
d="M892 53c0 -16 -5.83301 -29.833 -17.5 -41.5s-25.5 -17.5 -41.5 -17.5s-29.833 5.83301 -41.5 17.5s-17.5 25.5 -17.5 41.5s5.83301 29.833 17.5 41.5s25.5 17.5 41.5 17.5s29.833 -5.83301 41.5 -17.5s17.5 -25.5 17.5 -41.5zM559 53
c0 -16 -5.83301 -29.833 -17.5 -41.5s-25.5 -17.5 -41.5 -17.5s-29.833 5.83301 -41.5 17.5s-17.5 25.5 -17.5 41.5s5.83301 29.833 17.5 41.5s25.5 17.5 41.5 17.5s29.833 -5.83301 41.5 -17.5s17.5 -25.5 17.5 -41.5zM226 53c0 -16 -5.83301 -29.833 -17.5 -41.5
s-25.5 -17.5 -41.5 -17.5s-29.833 5.83301 -41.5 17.5s-17.5 25.5 -17.5 41.5s5.83301 29.833 17.5 41.5s25.5 17.5 41.5 17.5s29.833 -5.83301 41.5 -17.5s17.5 -25.5 17.5 -41.5z" />
    <glyph glyph-name="perthousand" unicode="&#x2030;" horiz-adv-x="1072" 
d="M1051 152c0 -46.667 -16 -85.667 -48 -117s-70.667 -47 -116 -47c-44.667 0 -83.167 15.833 -115.5 47.5s-48.5 70.5 -48.5 116.5c0 46.667 16 85.667 48 117s70.667 47 116 47c44.667 0 83.167 -15.833 115.5 -47.5s48.5 -70.5 48.5 -116.5zM349 548
c0 -46.667 -16 -85.667 -48 -117s-70.667 -47 -116 -47c-44.667 0 -83.167 15.833 -115.5 47.5s-48.5 70.5 -48.5 116.5c0 46.667 16 85.667 48 117s70.667 47 116 47c44.667 0 83.167 -15.833 115.5 -47.5s48.5 -70.5 48.5 -116.5zM626 712l-465 -724h-62l465 724h62z
M695 152c0 -46.667 -16 -85.667 -48 -117s-70.667 -47 -116 -47c-44.667 0 -83.167 15.833 -115.5 47.5s-48.5 70.5 -48.5 116.5c0 46.667 16 85.667 48 117s70.667 47 116 47c44.667 0 83.167 -15.833 115.5 -47.5s48.5 -70.5 48.5 -116.5zM973 152
c0 25.333 -8.33301 46 -25 62s-37 24 -61 24c-23.333 0 -43.5 -8.16699 -60.5 -24.5s-25.5 -36.833 -25.5 -61.5c0 -25.333 8.33301 -46 25 -62s37 -24 61 -24c23.333 0 43.5 8.16699 60.5 24.5s25.5 36.833 25.5 61.5zM271 548c0 25.333 -8.33301 46 -25 62s-37 24 -61 24
c-23.333 0 -43.5 -8.16699 -60.5 -24.5s-25.5 -36.833 -25.5 -61.5c0 -25.333 8.33301 -46 25 -62s37 -24 61 -24c23.333 0 43.5 8.16699 60.5 24.5s25.5 36.833 25.5 61.5zM617 152c0 25.333 -8.33301 46 -25 62s-37 24 -61 24c-23.333 0 -43.5 -8.16699 -60.5 -24.5
s-25.5 -36.833 -25.5 -61.5c0 -25.333 8.33301 -46 25 -62s37 -24 61 -24c23.333 0 43.5 8.16699 60.5 24.5s25.5 36.833 25.5 61.5z" />
    <glyph glyph-name="guilsinglleft" unicode="&#x2039;" horiz-adv-x="328" 
d="M270 86h-76l-125 154l125 154h76l-125 -154z" />
    <glyph glyph-name="guilsinglright" unicode="&#x203a;" horiz-adv-x="328" 
d="M259 240l-125 -154h-76l125 154l-125 154h76z" />
    <glyph glyph-name="trademark" unicode="&#x2122;" horiz-adv-x="1059" 
d="M1055 220l-94 0.00195312l-59 369l-2 8l-1 -3l-2 -5l-9 -29l-85 -268c-8 -26 -14.333 -43.333 -19 -52c-10.667 -20.667 -26 -31 -46 -31c-15.333 0 -27.833 6 -37.5 18s-19.5 33.667 -29.5 65l-83 267l-11 35l-1 3l-2 -8l-59 -369h-94l80 417c3.33301 20 9 35.667 17 47
c12 17.333 28.333 26 49 26s36.667 -6.66699 48 -20c7.33301 -8.66699 14.333 -23.334 21 -44.001l73 -236l13 -48l11 -38c0.666992 -3.33301 1.5 -5.83301 2.5 -7.5s1.83301 -2.83398 2.5 -3.50098l4 10l22 85l76 238c8.66699 26.667 18 44 28 52s23.667 12 41 12
c20.667 0 37 -8.66699 49 -26c8 -11.333 13.667 -27 17 -47zM444 616.002h-151v-396h-88v396h-151v84h390v-84z" />
    <glyph glyph-name="periodcentered" unicode="&#x2219;" horiz-adv-x="230" 
d="M174 240c0 -16 -5.83301 -29.833 -17.5 -41.5s-25.5 -17.5 -41.5 -17.5s-29.833 5.83301 -41.5 17.5s-17.5 25.5 -17.5 41.5s5.83301 29.833 17.5 41.5s25.5 17.5 41.5 17.5s29.833 -5.83301 41.5 -17.5s17.5 -25.5 17.5 -41.5z" />
    <glyph glyph-name=".null" horiz-adv-x="0" 
 />
    <glyph glyph-name="nonmarkingreturn" horiz-adv-x="233" 
 />
    </font>
</defs>
</svg>
